0
SECTION
2
HEADER
9
$INSUNITS
70
4
9
$ACADVER
1
AC1014
9
$HANDSEED
5
FFFF
0
ENDSEC
0
SECTION
2
TABLES
0
TABLE
2
VPORT
5
8
100
AcDbSymbolTable
0
ENDTAB
0
TABLE
2
LTYPE
5
5
100
AcDbSymbolTable
0
LTYPE
5
14
100
AcDbSymbolTableRecord
100
AcDbLinetypeTableRecord
2
BYBLOCK
70
0
0
LTYPE
5
15
100
AcDbSymbolTableRecord
100
AcDbLinetypeTableRecord
2
BYLAYER
70
0
0
ENDTAB
0
TABLE
2
LAYER
5
2
100
AcDbSymbolTable
70
2
0
LAYER
5
50
100
AcDbSymbolTableRecord
100
AcDbLayerTableRecord
2
0
70
0
6
CONTINUOUS
0
ENDTAB
0
TABLE
2
STYLE
5
3
100
AcDbSymbolTable
70
1
0
STYLE
5
11
100
AcDbSymbolTableRecord
100
AcDbTextStyleTableRecord
2
STANDARD
70
0
0
ENDTAB
0
TABLE
2
VIEW
5
6
100
AcDbSymbolTable
70
0
0
ENDTAB
0
TABLE
2
UCS
5
7
100
AcDbSymbolTable
70
0
0
ENDTAB
0
TABLE
2
APPID
5
9
100
AcDbSymbolTable
70
2
0
APPID
5
12
100
AcDbSymbolTableRecord
100
AcDbRegAppTableRecord
2
ACAD
70
0
0
ENDTAB
0
TABLE
2
DIMSTYLE
5
A
100
AcDbSymbolTable
70
1
0
ENDTAB
0
TABLE
2
BLOCK_RECORD
5
1
100
AcDbSymbolTable
70
1
0
BLOCK_RECORD
5
1F
100
AcDbSymbolTableRecord
100
AcDbBlockTableRecord
2
*MODEL_SPACE
0
BLOCK_RECORD
5
1B
100
AcDbSymbolTableRecord
100
AcDbBlockTableRecord
2
*PAPER_SPACE
0
ENDTAB
0
ENDSEC
0
SECTION
2
BLOCKS
0
BLOCK
5
20
100
AcDbEntity
100
AcDbBlockBegin
2
*MODEL_SPACE
0
ENDBLK
5
21
100
AcDbEntity
100
AcDbBlockEnd
0
BLOCK
5
1C
100
AcDbEntity
100
AcDbBlockBegin
2
*PAPER_SPACE
0
ENDBLK
5
1D
100
AcDbEntity
100
AcDbBlockEnd
0
ENDSEC
0
SECTION
2
ENTITIES
0
ARC
5
100
100
AcDbEntity
8
0
100
AcDbCircle
10
85.781121085210472
20
-104.33867800469152
30
0
40
10
210
-0
220
0
230
1
100
AcDbArc
50
-89.999999999999901
51
0
0
LINE
5
101
100
AcDbEntity
8
0
100
AcDbLine
10
-13.168880136684731
20
-114.33867800469152
30
0
11
85.781121085210486
21
-114.33867800469152
31
0
0
LINE
5
102
100
AcDbEntity
8
0
100
AcDbLine
10
95.781121085210472
20
-104.33867800469152
30
0
11
95.781121085210486
21
-5.1433289831670947
31
0
0
SPLINE
5
103
100
AcDbEntity
8
0
100
AcDbSpline
70
4
71
5
72
16
73
10
74
0
42
0.000000001
43
0.0000000001
44
0.0000000001
40
0
40
0
40
0
40
0
40
0
40
0
40
0.20000000000000001
40
0.40000000000000002
40
0.60000000000000009
40
0.80000000000000004
40
1
40
1
40
1
40
1
40
1
40
1
41
1
41
1
41
1
41
1
41
1
41
1
41
1
41
1
41
1
41
1
10
-27.401886286822599
20
-99.904292881028525
30
0
10
-26.438521313696572
20
-99.904292881028525
30
0
10
-24.712954045972513
20
-100.19904719438787
30
0
10
-22.72746629869312
20
-101.52452599504318
30
0
10
-21.048584128898877
20
-104.71083355564005
30
0
10
-19.522182294608168
20
-109.53213733008155
30
0
10
-17.843300124814085
20
-112.71844489067774
30
0
10
-15.857812377534728
20
-114.04392369133227
30
0
10
-14.132245109810757
20
-114.33867800469152
30
0
10
-13.168880136684731
20
-114.33867800469152
30
0
0
LINE
5
104
100
AcDbEntity
8
0
100
AcDbLine
10
-53.821313127861998
20
-99.904292881028525
30
0
11
-27.401886286822599
21
-99.904292881028525
31
0
0
SPLINE
5
105
100
AcDbEntity
8
0
100
AcDbSpline
70
4
71
3
72
14
73
10
74
0
42
0.000000001
43
0.0000000001
44
0.0000000001
40
0
40
0
40
0
40
0
40
0.37731023917335327
40
0.37731023917335327
40
0.37731023917335327
40
0.7369900589719196
40
0.7369900589719196
40
0.7369900589719196
40
1
40
1
40
1
40
1
41
1
41
1
41
1
41
1
41
1
41
1
41
1
41
1
41
1
41
1
10
-53.821313127861998
20
-99.904292881028525
30
0
10
-55.707619764930158
20
-99.904292881028525
30
0
10
-57.504450378857982
20
-99.384034468856086
30
0
10
-58.968907663528029
20
-98.475774026039886
30
0
10
-60.364935858805296
20
-97.609953493000432
30
0
10
-61.535308737408471
20
-96.406510633978613
30
0
10
-62.304086219264278
20
-94.828379776433636
30
0
10
-62.866242084110567
20
-93.67439759302961
30
0
10
-63.168880807236988
20
-92.31972483240618
30
0
10
-63.168880807236988
20
-90.939898849972138
30
0
0
CIRCLE
5
106
100
AcDbEntity
8
0
100
AcDbCircle
10
-55.168880762533504
20
-91.739263113815994
30
0
40
2.2499999999999991
210
0
220
-0
230
1
0
CIRCLE
5
107
100
AcDbEntity
8
0
100
AcDbCircle
10
0.83112007193151705
20
-107.73926335223457
30
0
40
2.2499999999999991
210
0
220
-0
230
1
0
CIRCLE
5
108
100
AcDbEntity
8
0
100
AcDbCircle
10
80.83112007193148
20
-107.73926335223415
30
0
40
2.2500000000000524
210
0
220
-0
230
1
0
CIRCLE
5
109
100
AcDbEntity
8
0
100
AcDbCircle
10
88.031120071931468
20
-27.739263352234151
30
0
40
2.2500000000000511
210
0
220
-0
230
1
0
ARC
5
110
100
AcDbEntity
8
0
100
AcDbCircle
10
83.281121085210486
20
-5.1433289831670992
30
0
40
12.5
210
0
220
-0
230
1
100
AcDbArc
50
0
51
38.367485384861546
0
LINE
5
111
100
AcDbEntity
8
0
100
AcDbLine
10
93.081693890982507
20
2.6154578214024191
30
0
11
64.705409223321496
21
38.459185822658483
31
0
0
LINE
5
112
100
AcDbEntity
8
0
100
AcDbLine
10
56.125867870630934
20
40.081403810998509
30
0
11
33.877854560031786
21
28.018943381716994
31
0
0
SPLINE
5
113
100
AcDbEntity
8
0
100
AcDbSpline
70
4
71
3
72
14
73
10
74
0
42
0.000000001
43
0.0000000001
44
0.0000000001
40
0
40
0
40
0
40
0
40
0.35679817608267678
40
0.35679817608267678
40
0.35679817608267678
40
0.8198601877766063
40
0.8198601877766063
40
0.8198601877766063
40
1
40
1
40
1
40
1
41
1
41
1
41
1
41
1
41
1
41
1
41
1
41
1
41
1
41
1
10
64.70540922332151
20
38.459185822658469
30
0
10
63.948810419898223
20
39.414889574351044
30
0
10
62.944690928182816
20
40.108536042553276
30
0
10
61.91371232579349
20
40.491319924177525
30
0
10
60.575681310956767
20
40.988106864668694
30
0
10
59.170352187891275
20
41.075843873864514
30
0
10
57.749645727261829
20
40.717817201021091
30
0
10
57.196964253551322
20
40.578538106670301
30
0
10
56.646939593210249
20
40.363919240429489
30
0
10
56.125867870630934
20
40.081403810998495
30
0
0
CIRCLE
5
114
100
AcDbEntity
8
0
100
AcDbCircle
10
31.0214612888145
20
7.7170106205385336
30
0
40
2.2499999999999991
210
0
220
-0
230
1
0
LINE
5
115
100
AcDbEntity
8
0
100
AcDbLine
10
28.442824563422633
20
20.382939210698648
30
0
11
24.353818664319753
21
8.5150660699815681
31
0
0
SPLINE
5
116
100
AcDbEntity
8
0
100
AcDbSpline
70
4
71
3
72
14
73
10
74
0
42
0.000000001
43
0.0000000001
44
0.0000000001
40
0.14043035166546106
40
0.14043035166546106
40
0.14043035166546106
40
0.14043035166546106
40
0.38205637586852548
40
0.38205637586852548
40
0.38205637586852548
40
0.9070141193646708
40
0.9070141193646708
40
0.9070141193646708
40
1
40
1
40
1
40
1
41
1
41
1
41
1
41
1
41
1
41
1
41
1
41
1
41
1
41
1
10
32.625590994507633
20
27.181544112937029
30
0
10
31.964349488537508
20
26.648230521068466
30
0
10
31.401309374518796
20
26.035709190616597
30
0
10
30.937319040126994
20
25.406145704568242
30
0
10
29.929251636172019
20
24.038353356399004
30
0
10
29.275538830450483
20
22.604159335701294
30
0
10
28.723292644273979
20
21.155968573566884
30
0
10
28.625473155781194
20
20.899450225160049
30
0
10
28.532023756116224
20
20.641829691481309
30
0
10
28.442824563422633
20
20.382939210698648
30
0
0
SPLINE
5
117
100
AcDbEntity
8
0
100
AcDbSpline
70
4
71
3
72
10
73
6
74
0
42
0.000000001
43
0.0000000001
44
0.0000000001
40
-2.5674590823219252
40
-2.5674590823219252
40
-2.5674590823219252
40
-2.5674590823219252
40
-2.4628459321570726
40
-2.4628459321570726
40
-2.1319614982575841
40
-2.1319614982575841
40
-2.1319614982575841
40
-2.1319614982575841
41
1
41
1
41
1
41
1
41
1
41
1
10
33.87785456002949
20
28.018943381715747
30
0
10
33.655817249805871
20
27.898558867781627
30
0
10
33.571065174343332
20
27.844610545406066
30
0
10
33.165172491375053
20
27.592788014876458
30
0
10
32.882738739453572
20
27.388942448128969
30
0
10
32.625590994507654
20
27.181544112937029
30
0
0
LINE
5
118
100
AcDbEntity
8
0
100
AcDbLine
10
24.353818664319753
20
8.5150660699815681
30
0
11
17.678183535910659
21
8.5150660699816036
31
0
0
ARC
5
119
100
AcDbEntity
8
0
100
AcDbCircle
10
0.27655926119192209
20
-0.7192976114812355
30
0
40
19.70000000000001
210
0
220
-0
230
1
100
AcDbArc
50
27.953149616485149
51
188.07027736026814
0
LINE
5
120
100
AcDbEntity
8
0
100
AcDbLine
10
-19.228344115999903
20
-3.4849339300183093
30
0
11
-57.482048440213035
21
-3.4849339300184612
31
0
0
CIRCLE
5
121
100
AcDbEntity
8
0
100
AcDbCircle
10
15.220976545163429
20
-0.7544892833183825
30
0
40
2.0000000000000284
210
0
220
-0
230
1
0
CIRCLE
5
122
100
AcDbEntity
8
0
100
AcDbCircle
10
-14.779021454837089
20
-0.75449228331838203
30
0
40
2.000000000000028
210
0
220
-0
230
1
0
SPLINE
5
123
100
AcDbEntity
8
0
100
AcDbSpline
70
4
71
3
72
20
73
16
74
0
42
0.000000001
43
0.0000000001
44
0.0000000001
40
0
40
0
40
0
40
0
40
0.35057399477329715
40
0.35057399477329715
40
0.35057399477329715
40
0.58262478352963121
40
0.58262478352963121
40
0.58262478352963121
40
0.74268394557924411
40
0.74268394557924411
40
0.74268394557924411
40
0.88813595044340432
40
0.88813595044340432
40
0.88813595044340432
40
1
40
1
40
1
40
1
41
1
41
1
41
1
41
1
41
1
41
1
41
1
41
1
41
1
41
1
41
1
41
1
41
1
41
1
41
1
41
1
10
-63.168880807237002
20
-14.110579406568963
30
0
10
-63.168880807237002
20
-13.167461881524719
30
0
10
-63.242810944301624
20
-12.045095127000142
30
0
10
-63.25274470680931
20
-10.724990005110232
30
0
10
-63.259320030306171
20
-9.851190352703231
30
0
10
-63.248833534732043
20
-8.9037827517751502
30
0
10
-63.00033269062947
20
-7.8249376360482659
30
0
10
-62.828926951873513
20
-7.0807943123817951
30
0
10
-62.528222963979481
20
-6.2394301004023633
30
0
10
-61.902982771538916
20
-5.4489647460774693
30
0
10
-61.334802616478839
20
-4.730638040564803
30
0
10
-60.477089641137738
20
-4.1203533402201176
30
0
10
-59.571468840469315
20
-3.8099487077071403
30
0
10
-58.874975105507943
20
-3.5712230935332245
30
0
10
-58.168676519566169
20
-3.4849339300184612
30
0
10
-57.482048440213056
20
-3.4849339300184612
30
0
0
LINE
5
124
100
AcDbEntity
8
0
100
AcDbLine
10
-63.168880807237002
20
-14.110579406568963
30
0
11
-63.168880807236988
21
-90.939898849972138
31
0
0
CIRCLE
5
125
100
AcDbEntity
8
0
100
AcDbCircle
10
-56.117230000000013
20
-10.335299000000017
30
0
40
2.2499999999999991
210
0
220
-0
230
1
0
ENDSEC
0
SECTION
2
OBJECTS
0
DICTIONARY
5
C
100
AcDbDictionary
3
ACAD_GROUP
350
D
3
ACAD_MLINESTYLE
350
17
0
DICTIONARY
5
D
100
AcDbDictionary
0
DICTIONARY
5
1A
330
C
100
AcDbDictionary
0
DICTIONARY
5
17
100
AcDbDictionary
0
ENDSEC
0
EOF
