0
SECTION
2
HEADER
9
$INSUNITS
70
4
9
$ACADVER
1
AC1014
9
$HANDSEED
5
FFFF
0
ENDSEC
0
SECTION
2
TABLES
0
TABLE
2
VPORT
5
8
100
AcDbSymbolTable
0
ENDTAB
0
TABLE
2
LTYPE
5
5
100
AcDbSymbolTable
0
LTYPE
5
14
100
AcDbSymbolTableRecord
100
AcDbLinetypeTableRecord
2
BYBLOCK
70
0
0
LTYPE
5
15
100
AcDbSymbolTableRecord
100
AcDbLinetypeTableRecord
2
BYLAYER
70
0
0
ENDTAB
0
TABLE
2
LAYER
5
2
100
AcDbSymbolTable
70
2
0
LAYER
5
50
100
AcDbSymbolTableRecord
100
AcDbLayerTableRecord
2
0
70
0
6
CONTINUOUS
0
ENDTAB
0
TABLE
2
STYLE
5
3
100
AcDbSymbolTable
70
1
0
STYLE
5
11
100
AcDbSymbolTableRecord
100
AcDbTextStyleTableRecord
2
STANDARD
70
0
0
ENDTAB
0
TABLE
2
VIEW
5
6
100
AcDbSymbolTable
70
0
0
ENDTAB
0
TABLE
2
UCS
5
7
100
AcDbSymbolTable
70
0
0
ENDTAB
0
TABLE
2
APPID
5
9
100
AcDbSymbolTable
70
2
0
APPID
5
12
100
AcDbSymbolTableRecord
100
AcDbRegAppTableRecord
2
ACAD
70
0
0
ENDTAB
0
TABLE
2
DIMSTYLE
5
A
100
AcDbSymbolTable
70
1
0
ENDTAB
0
TABLE
2
BLOCK_RECORD
5
1
100
AcDbSymbolTable
70
1
0
BLOCK_RECORD
5
1F
100
AcDbSymbolTableRecord
100
AcDbBlockTableRecord
2
*MODEL_SPACE
0
BLOCK_RECORD
5
1B
100
AcDbSymbolTableRecord
100
AcDbBlockTableRecord
2
*PAPER_SPACE
0
ENDTAB
0
ENDSEC
0
SECTION
2
BLOCKS
0
BLOCK
5
20
100
AcDbEntity
100
AcDbBlockBegin
2
*MODEL_SPACE
0
ENDBLK
5
21
100
AcDbEntity
100
AcDbBlockEnd
0
BLOCK
5
1C
100
AcDbEntity
100
AcDbBlockBegin
2
*PAPER_SPACE
0
ENDBLK
5
1D
100
AcDbEntity
100
AcDbBlockEnd
0
ENDSEC
0
SECTION
2
ENTITIES
0
ARC
5
100
100
AcDbEntity
8
0
100
AcDbCircle
10
-16.447472537487691
20
23.28807405955434
30
0
40
19.70000000000001
210
5.5353332287897286e-31
220
2.9373855753793705e-31
230
1
100
AcDbArc
50
27.953149616485149
51
188.07027736026816
0
LWPOLYLINE
5
101
100
AcDbEntity
8
0
100
AcDbPolyline
90
12
70
1
43
0.0
10
-26.347472537487896
20
19.444172601666203
42
0.11022841745766378
10
-25.372472537488207
20
16.303077388451435
10
-25.372472537488171
20
9.2880738807402352
10
-7.5224725374878165
20
9.2880738807402352
10
-7.5224725374878503
20
16.303077388450333
42
0.084782649780671571
10
-6.6474725374879462
20
18.689909230301787
10
-6.6474725374878396
20
28.476238888806336
42
0.084782649780686212
10
-7.5224725374878876
20
30.863070730658393
10
-7.5224725374879142
20
38.288074238368104
10
-25.372472537488271
20
38.288074238368104
10
-25.372472537488253
20
30.863070730657078
42
0.11022841745762683
10
-26.34747253748781
20
27.721975517443447
0
ARC
5
102
100
AcDbEntity
8
0
100
AcDbCircle
10
64.107088273251861
20
-83.731891681198576
30
0
40
5.0000000000000631
210
1.7516096429890761e-30
220
2.5080114204892686e-29
230
1
100
AcDbArc
50
85.892555468302092
51
133.02169621686838
0
CIRCLE
5
103
100
AcDbEntity
8
0
100
AcDbCircle
10
-31.503053253516704
20
23.252879387717194
30
0
40
2.000000000000028
210
1.1430590897427641e-33
220
-9.9144571870563429e-52
230
1
0
LINE
5
104
100
AcDbEntity
8
0
100
AcDbLine
10
-29.892911935364346
20
-90.331306333655945
30
0
11
69.057089286530868
21
-90.331306333655945
31
4.5790366357914931e-43
0
LINE
5
105
100
AcDbEntity
8
0
100
AcDbLine
10
74.938129849002152
20
-13.034043756717857
30
-3.15544362088405e-29
11
74.942010956247785
21
-13.180582595867776
31
3.1461991571509885e-29
0
ARC
5
106
100
AcDbEntity
8
0
100
AcDbCircle
10
71.30708827325185
20
-3.7318916811985758
30
-3.1554436208840472e-29
40
5.0000000000000906
210
3.5168707013580523e-30
220
-1.2123518690077375e-29
230
1
100
AcDbArc
50
105.28156377314647
51
223.02169621686863
0
SPLINE
5
107
100
AcDbEntity
8
0
100
AcDbSpline
70
4
71
5
72
16
73
10
74
0
42
0.000000001
43
0.0000000001
44
0.0000000001
40
0
40
0
40
0
40
0
40
0
40
0
40
0.20000000000000001
40
0.40000000000000002
40
0.60000000000000009
40
0.80000000000000004
40
1
40
1
40
1
40
1
40
1
40
1
41
1
41
1
41
1
41
1
41
1
41
1
41
1
41
1
41
1
41
1
10
-11.069700348206624
20
-82.41407834164437
30
0
10
-10.992763634071334
20
-82.695667565176123
30
0
10
-10.816986311992647
20
-83.255754500108949
30
0
10
-10.48765816089305
20
-84.086598422233294
30
0
10
-9.9270368210421189
20
-85.160820900111986
30
0
10
-9.032647766781583
20
-86.342098187358118
30
0
10
-8.1356425676848509
20
-87.025115096334389
30
0
10
-7.3295383270033287
20
-87.301480983210311
30
0
10
-6.7250026614349601
20
-87.362933256949304
30
0
10
-6.4059373140093356
20
-87.362933256949304
30
0
0
SPLINE
5
108
100
AcDbEntity
8
0
100
AcDbSpline
70
4
71
5
72
16
73
10
74
0
42
0.000000001
43
0.0000000001
44
0.0000000001
40
0
40
0
40
0
40
0
40
0
40
0
40
0.20000000000000001
40
0.40000000000000002
40
0.60000000000000009
40
0.80000000000000004
40
1
40
1
40
1
40
1
40
1
40
1
41
1
41
1
41
1
41
1
41
1
41
1
41
1
41
1
41
1
41
1
10
69.98927493369726
20
1.0913196973429962
30
0
10
70.270864157228999
20
1.1682564114782679
30
0
10
70.830951092161825
20
1.3440337335569552
30
0
10
71.661795014286142
20
1.673361884656579
30
0
10
72.736017492164834
20
2.2339832245075186
30
0
10
73.917294779410966
20
3.1283722787680546
30
0
10
74.600311688387237
20
4.0253774778648221
30
0
10
74.876677575263159
20
4.8314817185463355
30
0
10
74.938129849002152
20
5.436017384114713
30
0
10
74.938129849002152
20
5.7550827315403552
30
0
0
SPLINE
5
109
100
AcDbEntity
8
0
100
AcDbSpline
70
4
71
5
72
16
73
10
74
0
42
0.000000001
43
0.0000000001
44
0.0000000001
40
0
40
0
40
0
40
0
40
0
40
0
40
0.20000000000000001
40
0.40000000000000002
40
0.60000000000000009
40
0.80000000000000004
40
1
40
1
40
1
40
1
40
1
40
1
41
1
41
1
41
1
41
1
41
1
41
1
41
1
41
1
41
1
41
1
10
67.651611290325292
20
-7.1432679470617089
30
0
10
67.909720767586577
20
-7.4198464243892914
30
0
10
68.479268193115843
20
-7.92822069963659
30
0
10
69.493389337115545
20
-8.5565861762152551
30
0
10
71.085155933673889
20
-9.1900810416972334
30
0
10
73.086581399143171
20
-9.9466376578038762
30
0
10
74.319762309699286
20
-10.81600019340005
30
0
10
74.825639444799549
20
-11.778674413769146
30
0
10
74.938129849002152
20
-12.587688059014042
30
0
10
74.938129849002152
20
-13.034043756717857
30
0
0
ARC
5
110
100
AcDbEntity
8
0
100
AcDbCircle
10
69.057089286530854
20
-80.331306333655945
30
-8.2907218128906668e-75
40
10
210
-8.2263386237856334e-59
220
4.5790366357914929e-44
230
1
100
AcDbArc
50
-89.999999999999901
51
0
0
CIRCLE
5
111
100
AcDbEntity
8
0
100
AcDbCircle
10
71.30708827325185
20
-3.7318916811985758
30
-3.1554436208840472e-29
40
2.2500000000000511
210
1.1430663281017384e-33
220
1.97215226305253e-31
230
1
0
SPLINE
5
112
100
AcDbEntity
8
0
100
AcDbSpline
70
4
71
5
72
16
73
10
74
0
42
0.000000001
43
0.0000000001
44
0.0000000001
40
0
40
0
40
0
40
0
40
0
40
0
40
0.20000000000000001
40
0.40000000000000002
40
0.60000000000000009
40
0.80000000000000004
40
1
40
1
40
1
40
1
40
1
40
1
41
1
41
1
41
1
41
1
41
1
41
1
41
1
41
1
41
1
41
1
10
60.695712007388735
20
-80.076414698272032
30
0
10
60.419133530061146
20
-80.334524175533318
30
0
10
59.910759254813854
20
-80.904071601062554
30
0
10
59.282393778235196
20
-81.918192745062271
30
0
10
58.648898912753197
20
-83.509959341620601
30
0
10
57.892342296646575
20
-85.511384807089883
30
0
10
57.022979761050408
20
-86.744565717646012
30
0
10
56.060305540681306
20
-87.250442852746275
30
0
10
55.25129189543641
20
-87.362933256948878
30
0
10
54.804936197732587
20
-87.362933256948878
30
0
0
LINE
5
113
100
AcDbEntity
8
0
100
AcDbLine
10
74.942010956247771
20
5.876507828878772
30
7.8886090522101181e-30
11
74.938129849002166
21
5.7550827315403552
31
3.0352655923542837e-29
0
LINE
5
114
100
AcDbEntity
8
0
100
AcDbLine
10
54.804936197732587
20
-87.362933256948878
30
0
11
-6.4059373140093356
21
-87.362933256949304
31
6.1434479704132058e-30
0
CIRCLE
5
115
100
AcDbEntity
8
0
100
AcDbCircle
10
64.107088273251861
20
-83.731891681198576
30
0
40
2.2500000000000524
210
1.1430663281016566e-33
220
-9.9145827529648914e-52
230
1
0
CIRCLE
5
116
100
AcDbEntity
8
0
100
AcDbCircle
10
-1.5030552535161865
20
23.252882387717193
30
0
40
2.0000000000000284
210
1.1430590897427639e-33
220
1.9721522630525295e-31
230
1
0
SPLINE
5
117
100
AcDbEntity
8
0
100
AcDbSpline
70
4
71
5
72
16
73
10
74
0
42
0.000000001
43
0.0000000001
44
0.0000000001
40
0
40
0
40
0
40
0
40
0
40
0
40
0.20000000000000001
40
0.40000000000000002
40
0.60000000000000009
40
0.80000000000000004
40
1
40
1
40
1
40
1
40
1
40
1
41
1
41
1
41
1
41
1
41
1
41
1
41
1
41
1
41
1
41
1
10
18.307137027745281
20
34.711395090815245
30
0
10
17.98776972460216
20
35.140107509792706
30
0
10
17.353502033819346
20
35.991187896843613
30
0
10
16.415531028062293
20
37.24880331692713
30
0
10
15.224270438194761
20
38.902438178462475
30
0
10
14.057321299632841
20
41.011563148373789
30
0
10
13.658735445523114
20
42.819234079850013
30
0
10
13.844267694863905
20
44.295173634883795
30
0
10
14.220351414496255
20
45.342589988630415
30
0
10
14.471550281927685
20
45.882177356174196
30
0
0
LINE
5
118
100
AcDbEntity
8
0
100
AcDbLine
10
74.942010956247913
20
-78.744734257524058
30
0
11
64.465223487227163
21
-78.744734257524101
31
-1.2570579083782748e-28
0
CIRCLE
5
119
100
AcDbEntity
8
0
100
AcDbCircle
10
14.297429490134883
20
31.724382291574109
30
0
40
2.2499999999999991
210
1.1430590897427925e-33
220
-9.914457187056834e-52
230
1
0
SPLINE
5
120
100
AcDbEntity
8
0
100
AcDbSpline
70
4
71
3
72
8
73
4
74
0
42
0.000000001
43
0.0000000001
44
0.0000000001
40
-2.9610184154599368
40
-2.9610184154599368
40
-2.9610184154599368
40
-2.9610184154599368
40
-2.4244419085635291
40
-2.4244419085635291
40
-2.4244419085635291
40
-2.4244419085635291
41
1
41
1
41
1
41
1
10
16.872890185587345
20
49.397391996942872
30
0
10
17.216208484955956
20
49.705879284007963
30
0
10
17.47932448634198
20
49.927748151792208
30
0
10
18.107088779891317
20
50.268110315556598
30
0
0
LINE
5
121
100
AcDbEntity
8
0
100
AcDbLine
10
11.71879276474302
20
44.390310881734223
30
5.697480216615749e-45
11
7.6297868656401402
21
32.522437741017143
31
0
0
SPLINE
5
122
100
AcDbEntity
8
0
100
AcDbSpline
70
4
71
5
72
16
73
10
74
0
42
0.000000001
43
0.0000000001
44
0.0000000001
40
0
40
0
40
0
40
0
40
0
40
0
40
0.20000000000000001
40
0.40000000000000002
40
0.60000000000000009
40
0.80000000000000004
40
1
40
1
40
1
40
1
40
1
40
1
41
1
41
1
41
1
41
1
41
1
41
1
41
1
41
1
41
1
41
1
10
-44.125918085502214
20
-75.896921209992954
30
0
10
-43.162553112376187
20
-75.896921209992954
30
0
10
-41.436985844652128
20
-76.191675523352302
30
0
10
-39.451498097372735
20
-77.517154324007606
30
0
10
-37.772615927578492
20
-80.703461884604479
30
0
10
-36.246214093287783
20
-85.524765659045983
30
0
10
-34.567331923493697
20
-88.711073219642174
30
0
10
-32.581844176214346
20
-90.036552020296696
30
0
10
-30.856276908490372
20
-90.331306333655945
30
0
10
-29.892911935364346
20
-90.331306333655945
30
0
0
SPLINE
5
123
100
AcDbEntity
8
0
100
AcDbSpline
70
4
71
3
72
14
73
10
74
0
42
0.000000001
43
0.0000000001
44
0.0000000001
40
0.14043035166546106
40
0.14043035166546106
40
0.14043035166546106
40
0.14043035166546106
40
0.38205637586852548
40
0.38205637586852548
40
0.38205637586852548
40
0.9070141193646708
40
0.9070141193646708
40
0.9070141193646708
40
1
40
1
40
1
40
1
41
1
41
1
41
1
41
1
41
1
41
1
41
1
41
1
41
1
41
1
10
15.901559195828021
20
51.188915783972604
30
0
10
15.240317689857893
20
50.655602192104041
30
0
10
14.677277575839183
20
50.043080861652172
30
0
10
14.213287241447379
20
49.413517375603817
30
0
10
13.205219837492406
20
48.045725027434578
30
0
10
12.551507031770868
20
46.611531006736868
30
0
10
11.999260845594364
20
45.163340244602459
30
0
10
11.901441357101579
20
44.906821896195623
30
0
10
11.807991957436608
20
44.649201362516884
30
0
10
11.718792764743018
20
44.390310881734223
30
0
0
LINE
5
124
100
AcDbEntity
8
0
100
AcDbLine
10
-70.545344926541617
20
-75.896921209992954
30
-6.3108872417680944e-29
11
-44.125918085502214
21
-75.896921209992954
31
-6.3108872417680821e-29
0
CIRCLE
5
125
100
AcDbEntity
8
0
100
AcDbCircle
10
-71.892912561213109
20
-67.731891442780423
30
0
40
2.2499999999999991
210
1.1430590897427925e-33
220
-9.914457187056834e-52
230
1
0
SPLINE
5
126
100
AcDbEntity
8
0
100
AcDbSpline
70
4
71
3
72
14
73
10
74
0
42
0.000000001
43
0.0000000001
44
0.0000000001
40
0
40
0
40
0
40
0
40
0.37731023917335327
40
0.37731023917335327
40
0.37731023917335327
40
0.7369900589719196
40
0.7369900589719196
40
0.7369900589719196
40
1
40
1
40
1
40
1
41
1
41
1
41
1
41
1
41
1
41
1
41
1
41
1
41
1
41
1
10
-70.545344926541617
20
-75.896921209992954
30
0
10
-72.431651563609762
20
-75.896921209992954
30
0
10
-74.2284821775376
20
-75.376662797820515
30
0
10
-75.692939462207647
20
-74.468402355004315
30
0
10
-77.088967657484915
20
-73.602581821964861
30
0
10
-78.259340536088075
20
-72.399138962943042
30
0
10
-79.028118017943882
20
-70.821008105398064
30
0
10
-79.590273882790186
20
-69.667025921994039
30
0
10
-79.892912605916592
20
-68.312353161370609
30
0
10
-79.892912605916592
20
-66.932527178936567
30
0
0
SPLINE
5
127
100
AcDbEntity
8
0
100
AcDbSpline
70
4
71
3
72
10
73
6
74
0
42
0.000000001
43
0.0000000001
44
0.0000000001
40
-2.5674590823219252
40
-2.5674590823219252
40
-2.5674590823219252
40
-2.5674590823219252
40
-2.4628459321570726
40
-2.4628459321570726
40
-2.1319614982575841
40
-2.1319614982575841
40
-2.1319614982575841
40
-2.1319614982575841
41
1
41
1
41
1
41
1
41
1
41
1
10
17.153822761349879
20
52.026315052751322
30
0
10
16.931785451126256
20
51.905930538817202
30
0
10
16.847033375663724
20
51.851982216441641
30
0
10
16.441140692695434
20
51.600159685912033
30
0
10
16.158706940773953
20
51.396314119164543
30
0
10
15.901559195828037
20
51.188915783972604
30
0
0
LINE
5
128
100
AcDbEntity
8
0
100
AcDbLine
10
-43.009415099840197
20
-72.896921165289612
30
0
11
-64.149956740265395
21
-72.896921165289513
31
-5.1195399753450154e-31
0
SPLINE
5
129
100
AcDbEntity
8
0
100
AcDbSpline
70
4
71
5
72
15
73
9
74
0
42
0.000000001
43
0.0000000001
44
0.0000000001
40
0.18504851989632465
40
0.18504851989632465
40
0.18504851989632465
40
0.18504851989632465
40
0.18504851989632465
40
0.18504851989632465
40
0.20000000000000001
40
0.40000000000000002
40
0.60000000000000009
40
0.71669035358450695
40
0.71669035358450695
40
0.71669035358450695
40
0.71669035358450695
40
0.71669035358450695
40
0.71669035358450695
41
1
41
1
41
1
41
1
41
1
41
1
41
1
41
1
41
1
10
16.872890185587352
20
49.397391996942872
30
0
10
16.855049652787955
20
49.381361457431261
30
0
10
16.599707785939462
20
49.149839266206996
30
0
10
16.138339705016328
20
48.673767041531875
30
0
10
15.617860679716616
20
47.999621860772947
30
0
10
15.166634307711764
20
47.266498041217559
30
0
10
14.775786485318969
20
46.520829510186061
30
0
10
14.551964581037673
20
46.05491117624819
30
0
10
14.47155028192396
20
45.882177356166203
30
0
0
LINE
5
130
100
AcDbEntity
8
0
100
AcDbLine
10
76.357662092302888
20
26.622829492437994
30
3.4019626537656134e-29
11
47.981377424641877
21
62.466557493694062
31
0
0
ARC
5
131
100
AcDbEntity
8
0
100
AcDbCircle
10
-71.892912561213109
20
-67.731891442780423
30
0
40
4.9999999999999982
210
0
220
-0
230
1
100
AcDbArc
50
8.4218094659313945
51
94.556492754517521
0
SPLINE
5
132
100
AcDbEntity
8
0
100
AcDbSpline
70
4
71
5
72
16
73
10
74
0
42
0.000000001
43
0.0000000001
44
0.0000000001
40
0
40
0
40
0
40
0
40
0
40
0
40
0.20000000000000001
40
0.40000000000000002
40
0.60000000000000009
40
0.80000000000000004
40
1
40
1
40
1
40
1
40
1
40
1
41
1
41
1
41
1
41
1
41
1
41
1
41
1
41
1
41
1
41
1
10
-28.543403008180768
20
-87.362933256949304
30
0
10
-29.511365937697178
20
-87.362933256949304
30
0
10
-31.248539876889385
20
-87.067533111768753
30
0
10
-33.258662418778272
20
-85.73915007409741
30
0
10
-34.981996825413205
20
-82.545861042078343
30
0
10
-36.570821282608478
20
-77.713993380164013
30
0
10
-38.294155689243112
20
-74.520704348143383
30
0
10
-40.304278231131633
20
-73.192321310470305
30
0
10
-42.04145217032378
20
-72.896921165289541
30
0
10
-43.009415099840197
20
-72.896921165289541
30
0
0
SPLINE
5
133
100
AcDbEntity
8
0
100
AcDbSpline
70
4
71
5
72
16
73
10
74
0
42
0.000000001
43
0.0000000001
44
0.0000000001
40
0
40
0
40
0
40
0
40
0
40
0
40
0.20000000000000001
40
0.40000000000000002
40
0.60000000000000009
40
0.80000000000000004
40
1
40
1
40
1
40
1
40
1
40
1
41
1
41
1
41
1
41
1
41
1
41
1
41
1
41
1
41
1
41
1
10
-66.946829285060431
20
-66.999593535257276
30
0
10
-66.907240845767078
20
-67.266981596190334
30
0
10
-66.833434517251902
20
-67.823286733130388
30
0
10
-66.73879699286789
20
-68.722244146626466
30
0
10
-66.618523093714686
20
-70.006754835253844
30
0
10
-66.320460694922488
20
-71.528626051334143
30
0
10
-65.782622106658607
20
-72.441660526551203
30
0
10
-65.096146257843728
20
-72.81410344913337
30
0
10
-64.490107661097625
20
-72.896921165289513
30
0
10
-64.149956740265395
20
-72.896921165289513
30
0
0
SPLINE
5
134
100
AcDbEntity
8
0
100
AcDbSpline
70
4
71
5
72
16
73
10
74
0
42
0.000000001
43
0.0000000001
44
0.0000000001
40
0
40
0
40
0
40
0
40
0
40
0
40
0.20000000000000001
40
0.40000000000000002
40
0.60000000000000009
40
0.80000000000000004
40
1
40
1
40
1
40
1
40
1
40
1
41
1
41
1
41
1
41
1
41
1
41
1
41
1
41
1
41
1
41
1
10
-72.290122573910338
20
-62.747693994262441
30
0
10
-72.633319772677083
20
-62.77504470921464
30
0
10
-73.286769594339518
20
-62.789831587771836
30
0
10
-74.168186675101083
20
-62.692363072976143
30
0
10
-75.16203347498984
20
-62.344954462842637
30
0
10
-76.124514787061798
20
-61.59044808060866
30
0
10
-76.64156544502022
20
-60.713489246594072
30
0
10
-76.847192074400141
20
-59.865458901794923
30
0
10
-76.892912605916607
20
-59.205275592143387
30
0
10
-76.892912605916607
20
-58.851456793629069
30
0
0
LINE
5
135
100
AcDbEntity
8
0
100
AcDbLine
10
2.2249344888576639
20
17.008646072668228
30
-1.0860651356219938e-29
11
6.8397989586878616
21
17.008646194072519
31
2.3516648577501115e-29
0
LINE
5
136
100
AcDbEntity
8
0
100
AcDbLine
10
39.401836071951315
20
64.08877548203408
30
-3.1554436208840478e-29
11
17.153822761352167
21
52.026315052752565
31
5.1528197113810186e-25
0
ARC
5
137
100
AcDbEntity
8
0
100
AcDbCircle
10
14.297429490134883
20
31.724382291574109
30
0
40
5.0000000000000009
210
-4.4781578005746463e-31
220
-6.2970179307849642e-30
230
1
100
AcDbArc
50
-92.613308440284996
51
36.684095321457441
0
ARC
5
138
100
AcDbEntity
8
0
100
AcDbCircle
10
-15.892911726748098
20
-83.731891681199002
30
0
40
5.0000000000000071
210
2.8853903265385209e-48
220
-1.0560560465412725e-47
230
1
100
AcDbArc
50
15.281563773147232
51
133.02169621686775
0
ARC
5
139
100
AcDbEntity
8
0
100
AcDbCircle
10
-16.447472537487691
20
23.28807405955434
30
0
40
19.700000000000738
210
6.2862883832544815e-32
220
-1.8692806991698198e-31
230
1
100
AcDbArc
50
198.58750960967711
51
341.41249039032215
0
SPLINE
5
140
100
AcDbEntity
8
0
100
AcDbSpline
70
4
71
3
72
8
73
4
74
0
42
0.000000001
43
0.0000000001
44
0.0000000001
40
0
40
0
40
0
40
0
40
0.43627104497452524
40
0.43627104497452524
40
0.43627104497452524
40
0.43627104497452524
41
1
41
1
41
1
41
1
10
7.052996861772467
20
21.33551873000755
30
0
10
7.1919234192697079
20
19.887933108939215
30
0
10
7.1193559282020402
20
18.430446794775825
30
0
10
6.8398017310298176
20
17.008645648975289
30
0
0
SPLINE
5
141
100
AcDbEntity
8
0
100
AcDbSpline
70
4
71
5
72
16
73
10
74
0
42
0.000000001
43
0.0000000001
44
0.0000000001
40
0
40
0
40
0
40
0
40
0
40
0
40
0.20000000000000001
40
0.40000000000000002
40
0.60000000000000009
40
0.80000000000000004
40
1
40
1
40
1
40
1
40
1
40
1
41
1
41
1
41
1
41
1
41
1
41
1
41
1
41
1
41
1
41
1
10
-72.755143047823609
20
8.6728143699721727
30
0
10
-73.002632642725786
20
8.668551038597947
30
0
10
-73.490569807988905
20
8.6404770021669819
30
0
10
-74.201352419344687
20
8.5397637785321479
30
0
10
-75.098737498623422
20
8.2933634327778805
30
0
10
-76.066223311866551
20
7.7825699765363154
30
0
10
-76.61977666862154
20
7.1590948767694229
30
0
10
-76.843226907649509
20
6.5239320303099291
30
0
10
-76.892912605916607
20
6.0152346153828518
30
0
10
-76.892912605916607
20
5.7395534013489424
30
0
0
CIRCLE
5
142
100
AcDbEntity
8
0
100
AcDbCircle
10
-72.841261798679625
20
13.672072671035558
30
0
40
2.2499999999999991
210
1.1430590897427925e-33
220
-9.914457187056834e-52
230
1
0
LINE
5
143
100
AcDbEntity
8
0
100
AcDbLine
10
-62.52024941714113
20
17.008646072668192
30
0
11
-35.119879563833827
21
17.008646072668228
31
-1.100357787231153e-43
0
SPLINE
5
144
100
AcDbEntity
8
0
100
AcDbSpline
70
4
71
5
72
16
73
10
74
0
42
0.000000001
43
0.0000000001
44
0.0000000001
40
0
40
0
40
0
40
0
40
0
40
0
40
0.20000000000000001
40
0.40000000000000002
40
0.60000000000000009
40
0.80000000000000004
40
1
40
1
40
1
40
1
40
1
40
1
41
1
41
1
41
1
41
1
41
1
41
1
41
1
41
1
41
1
41
1
10
46.413285775718364
20
61.225151604962917
30
0
10
46.23183292411148
20
61.454355206992673
30
0
10
45.848026144758606
20
61.869916234005444
30
0
10
45.209672137130809
20
62.364824270183838
30
0
10
44.253110626854699
20
62.794090522358346
30
0
10
42.958720716525541
20
63.009875679847376
30
0
10
41.901645384459691
20
62.929540159633071
30
0
10
41.120827386409296
20
62.702160447438914
30
0
10
40.608904651002405
20
62.468177788679888
30
0
10
40.355102090490547
20
62.330570744838063
30
0
0
LINE
5
145
100
AcDbEntity
8
0
100
AcDbLine
10
46.413285775718364
20
61.225151604962917
30
0
11
74.942010956246392
21
25.188867166401145
31
0
0
LINE
5
146
100
AcDbEntity
8
0
100
AcDbLine
10
-35.952375914679507
20
20.522437741017256
30
1.8267730651087345e-30
11
-74.206080238892653
21
20.522437741017114
31
3.2066390206374701e-29
0
LINE
5
147
100
AcDbEntity
8
0
100
AcDbLine
10
18.107088779891317
20
50.268110315556598
30
-3.4553685370490788e-24
11
40.355102090490547
21
62.330570744838063
31
-3.9709344981130573e-24
0
SPLINE
5
148
100
AcDbEntity
8
0
100
AcDbSpline
70
4
71
3
72
14
73
10
74
0
42
0.000000001
43
0.0000000001
44
0.0000000001
40
0
40
0
40
0
40
0
40
0.35679817608267678
40
0.35679817608267678
40
0.35679817608267678
40
0.8198601877766063
40
0.8198601877766063
40
0.8198601877766063
40
1
40
1
40
1
40
1
41
1
41
1
41
1
41
1
41
1
41
1
41
1
41
1
41
1
41
1
10
47.981377424641892
20
62.46655749369404
30
0
10
47.224778621218604
20
63.422261245386622
30
0
10
46.220659129503197
20
64.115907713588854
30
0
10
45.189680527113872
20
64.498691595213103
30
0
10
43.851649512277149
20
64.995478535704265
30
0
10
42.446320389211664
20
65.083215544900085
30
0
10
41.02561392858221
20
64.725188872056663
30
0
10
40.47293245487171
20
64.585909777705865
30
0
10
39.922907794530637
20
64.371290911465053
30
0
10
39.401836071951315
20
64.088775482034066
30
0
0
LINE
5
149
100
AcDbEntity
8
0
100
AcDbLine
10
-79.892912605916621
20
9.8967922644666118
30
0
11
-79.892912605916592
21
-66.932527178936567
31
0
0
LINE
5
150
100
AcDbEntity
8
0
100
AcDbLine
10
7.6297868656401402
20
32.522437741017143
30
0
11
0.95415173723104374
21
32.522437741017178
31
-1.2344867575850064e-29
0
CIRCLE
5
151
100
AcDbEntity
8
0
100
AcDbCircle
10
-15.892911726748098
20
-83.731891681199002
30
0
40
2.2499999999999991
210
1.1430590897427925e-33
220
-9.914457187056834e-52
230
1
0
LINE
5
152
100
AcDbEntity
8
0
100
AcDbLine
10
74.942010956247785
20
-13.180582595867776
30
3.1461991571509885e-29
11
74.942010956247913
21
-78.744734257524058
31
0
0
SPLINE
5
153
100
AcDbEntity
8
0
100
AcDbSpline
70
4
71
5
72
16
73
10
74
0
42
0.000000001
43
0.0000000001
44
0.0000000001
40
0
40
0
40
0
40
0
40
0
40
0
40
0.20000000000000001
40
0.40000000000000002
40
0.60000000000000009
40
0.80000000000000004
40
1
40
1
40
1
40
1
40
1
40
1
41
1
41
1
41
1
41
1
41
1
41
1
41
1
41
1
41
1
41
1
10
-19.304287992611151
20
-80.076414698272416
30
0
10
-19.580866469938741
20
-80.334524175533701
30
0
10
-20.089240745186025
20
-80.904071601062952
30
0
10
-20.717606221764679
20
-81.918192745062655
30
0
10
-21.351101087246658
20
-83.509959341620998
30
0
10
-22.107657703353283
20
-85.511384807090309
30
0
10
-22.977020238949429
20
-86.744565717646438
30
0
10
-23.939694459318517
20
-87.250442852746701
30
0
10
-24.748708104563406
20
-87.362933256949304
30
0
10
-25.195063802267221
20
-87.362933256949304
30
0
0
ARC
5
154
100
AcDbEntity
8
0
100
AcDbCircle
10
-72.841261798679625
20
13.672072671035558
30
0
40
5.0000000000000169
210
5.8539585271405624e-32
220
1.0084207807647754e-33
230
1
100
AcDbArc
50
270.98689699137691
51
354.03122204349626
0
ARC
5
155
100
AcDbEntity
8
0
100
AcDbCircle
10
66.557089286530868
20
18.864042687868476
30
3.1554436208840556e-29
40
12.5
210
2.5243548967072446e-30
220
-1.2241207164138848e-31
230
1
100
AcDbArc
50
0
51
38.367485384861546
0
LINE
5
156
100
AcDbEntity
8
0
100
AcDbLine
10
-25.195063802267221
20
-87.362933256949276
30
-8.6182863752657459e-45
11
-28.543403008180768
21
-87.362933256949304
31
-1.5494863773222974e-44
0
LINE
5
157
100
AcDbEntity
8
0
100
AcDbLine
10
74.942010956246392
20
25.188867166401145
30
0
11
74.942010956247771
21
5.876507828878772
31
7.8886090522101181e-30
0
SPLINE
5
158
100
AcDbEntity
8
0
100
AcDbSpline
70
4
71
5
72
16
73
10
74
0
42
0.000000001
43
0.0000000001
44
0.0000000001
40
0
40
0
40
0
40
0
40
0
40
0
40
0.20000000000000001
40
0.40000000000000002
40
0.60000000000000009
40
0.80000000000000004
40
1
40
1
40
1
40
1
40
1
40
1
41
1
41
1
41
1
41
1
41
1
41
1
41
1
41
1
41
1
41
1
10
-67.868368258001425
20
13.152140143604321
30
0
10
-67.834638258598119
20
13.474750650372265
30
0
10
-67.71322985637552
20
14.079401942716068
30
0
10
-67.369418928172621
20
14.864771055183645
30
0
10
-66.633337530902139
20
15.695211154752435
30
0
10
-65.41309862363002
20
16.442908862283829
30
0
10
-64.301245161201933
20
16.825153447653705
30
0
10
-63.424830985620666
20
16.975269414780101
30
0
10
-62.824459625580488
20
17.008646072668228
30
0
10
-62.52024941714113
20
17.008646072668228
30
0
0
SPLINE
5
159
100
AcDbEntity
8
0
100
AcDbSpline
70
4
71
3
72
20
73
16
74
0
42
0.000000001
43
0.0000000001
44
0.0000000001
40
0
40
0
40
0
40
0
40
0.35057399477329715
40
0.35057399477329715
40
0.35057399477329715
40
0.58262478352963121
40
0.58262478352963121
40
0.58262478352963121
40
0.74268394557924411
40
0.74268394557924411
40
0.74268394557924411
40
0.88813595044340432
40
0.88813595044340432
40
0.88813595044340432
40
1
40
1
40
1
40
1
41
1
41
1
41
1
41
1
41
1
41
1
41
1
41
1
41
1
41
1
41
1
41
1
41
1
41
1
41
1
41
1
10
-79.892912605916621
20
9.8967922644666118
30
0
10
-79.892912605916621
20
10.839909789510855
30
0
10
-79.966842742981243
20
11.962276544035433
30
0
10
-79.976776505488928
20
13.282381665925342
30
0
10
-79.983351828985789
20
14.156181318332344
30
0
10
-79.972865333411661
20
15.103588919260424
30
0
10
-79.724364489309082
20
16.18243403498731
30
0
10
-79.552958750553131
20
16.92657735865378
30
0
10
-79.252254762659092
20
17.767941570633212
30
0
10
-78.627014570218535
20
18.558406924958106
30
0
10
-78.058834415158458
20
19.276733630470773
30
0
10
-77.201121439817356
20
19.887018330815458
30
0
10
-76.295500639148926
20
20.197422963328435
30
0
10
-75.599006904187561
20
20.436148577502351
30
0
10
-74.892708318245781
20
20.522437741017114
30
0
10
-74.206080238892667
20
20.522437741017114
30
0
0
SPLINE
5
160
100
AcDbEntity
8
0
100
AcDbSpline
70
4
71
5
72
13
73
7
74
0
42
0.000000001
43
0.0000000001
44
0.0000000001
40
0.44870045766067673
40
0.44870045766067673
40
0.44870045766067673
40
0.44870045766067673
40
0.44870045766067673
40
0.44870045766067673
40
0.60000000000000009
40
0.65446408658832056
40
0.65446408658832056
40
0.65446408658832056
40
0.65446408658832056
40
0.65446408658832056
40
0.65446408658832056
41
1
41
1
41
1
41
1
41
1
41
1
41
1
10
6.9909171058009623
20
22.839480528143454
30
0
10
6.9877141046086599
20
22.618301857725385
30
0
10
6.9897690791658551
20
22.317250435496945
30
0
10
7.000197737194398
20
22.016109903622052
30
0
10
7.0187268079076492
20
21.715232881295634
30
0
10
7.0453734793179912
20
21.414952777923624
30
0
10
7.0529968617725025
20
21.33551873000755
30
0
0
SPLINE
5
161
100
AcDbEntity
8
0
100
AcDbSpline
70
4
71
5
72
16
73
10
74
0
42
0.000000001
43
0.0000000001
44
0.0000000001
40
0
40
0
40
0
40
0
40
0
40
0
40
0.20000000000000001
40
0.40000000000000002
40
0.60000000000000009
40
0.80000000000000004
40
1
40
1
40
1
40
1
40
1
40
1
41
1
41
1
41
1
41
1
41
1
41
1
41
1
41
1
41
1
41
1
10
14.069454370671416
20
26.729582261051803
30
0
10
13.710339884817824
20
26.745973141029644
30
0
10
12.981241835498647
20
26.752272485762809
30
0
10
11.855048306267992
20
26.682323158083037
30
0
10
10.324558802133206
20
26.43263305345382
30
0
10
8.57198422029259
20
25.808747225682289
30
0
10
7.5319623378738143
20
24.953332022415395
30
0
10
7.1009366305256716
20
24.024853856468553
30
0
10
6.9969936807820954
20
23.259089730367322
30
0
10
6.9909171058009534
20
22.839480528142673
30
0
0
LINE
5
162
100
AcDbEntity
8
0
100
AcDbLine
10
-76.892912605916607
20
-58.851456793629104
30
4.9605968817353872e-44
11
-76.892912605916607
21
5.7395534013489424
31
0
0
LINE
5
163
100
AcDbEntity
8
0
100
AcDbLine
10
79.057089286530854
20
-80.331306333655945
30
9.23355779331007e-60
11
79.057089286530868
21
18.864042687868476
31
0
0
ENDSEC
0
SECTION
2
OBJECTS
0
DICTIONARY
5
C
100
AcDbDictionary
3
ACAD_GROUP
350
D
3
ACAD_MLINESTYLE
350
17
0
DICTIONARY
5
D
100
AcDbDictionary
0
DICTIONARY
5
1A
330
C
100
AcDbDictionary
0
DICTIONARY
5
17
100
AcDbDictionary
0
ENDSEC
0
EOF
