%TF.GenerationSoftware,KiCad,Pcbnew,(6.99.0-4085-g6c752680d7)*%
%TF.CreationDate,2022-11-08T23:05:40+08:00*%
%TF.ProjectId,evq,6576712e-6b69-4636-9164-5f7063625858,rev?*%
%TF.SameCoordinates,Original*%
%TF.FileFunction,Legend,Top*%
%TF.FilePolarity,Positive*%
%FSLAX46Y46*%
G04 Gerber Fmt 4.6, Leading zero omitted, Abs format (unit mm)*
G04 Created by KiCad (PCBNEW (6.99.0-4085-g6c752680d7)) date 2022-11-08 23:05:40*
%MOMM*%
%LPD*%
G01*
G04 APERTURE LIST*
%ADD10C,0.150000*%
%ADD11C,0.120000*%
%ADD12C,0.787400*%
%ADD13C,0.500000*%
%ADD14O,1.350000X1.350000*%
%ADD15R,1.350000X1.350000*%
%ADD16O,1.524000X1.524000*%
%ADD17C,1.524000*%
%ADD18O,2.000000X3.000000*%
G04 APERTURE END LIST*
D10*
%TO.C,J2*%
X96872412Y-111573328D02*
X97586698Y-111573328D01*
X97586698Y-111573328D02*
X97729555Y-111620947D01*
X97729555Y-111620947D02*
X97824793Y-111716185D01*
X97824793Y-111716185D02*
X97872412Y-111859042D01*
X97872412Y-111859042D02*
X97872412Y-111954280D01*
X96967651Y-111144756D02*
X96920032Y-111097137D01*
X96920032Y-111097137D02*
X96872412Y-111001899D01*
X96872412Y-111001899D02*
X96872412Y-110763804D01*
X96872412Y-110763804D02*
X96920032Y-110668566D01*
X96920032Y-110668566D02*
X96967651Y-110620947D01*
X96967651Y-110620947D02*
X97062889Y-110573328D01*
X97062889Y-110573328D02*
X97158127Y-110573328D01*
X97158127Y-110573328D02*
X97300984Y-110620947D01*
X97300984Y-110620947D02*
X97872412Y-111192375D01*
X97872412Y-111192375D02*
X97872412Y-110573328D01*
D11*
X100565032Y-110179995D02*
X108625032Y-110179995D01*
X108625032Y-112299995D02*
X108625032Y-110179995D01*
X100565032Y-112299995D02*
X100565032Y-110179995D01*
X100565032Y-112299995D02*
X108625032Y-112299995D01*
X99565032Y-112299995D02*
X98505032Y-112299995D01*
X98505032Y-112299995D02*
X98505032Y-111239995D01*
%TO.C,J1*%
X82109997Y-110179995D02*
X90169997Y-110179995D01*
X90169997Y-112299995D02*
X90169997Y-110179995D01*
X82109997Y-112299995D02*
X82109997Y-110179995D01*
X82109997Y-112299995D02*
X90169997Y-112299995D01*
X81109997Y-112299995D02*
X80049997Y-112299995D01*
X80049997Y-112299995D02*
X80049997Y-111239995D01*
%TD*%
%LPC*%
D12*
%TO.C,REF\u002A\u002A*%
X92406107Y-101994428D03*
X92406107Y-100724428D03*
X92406107Y-99454428D03*
X92406107Y-103264428D03*
X92406107Y-104534428D03*
%TD*%
D13*
%TO.C,REF\u002A\u002A*%
X94710107Y-103304428D03*
X94710107Y-100344428D03*
X94710107Y-102564428D03*
X94710107Y-101824428D03*
X94710107Y-104044428D03*
X94710107Y-101084428D03*
%TD*%
D14*
%TO.C,J2*%
X107565031Y-111239994D03*
X105565031Y-111239994D03*
X103565031Y-111239994D03*
X101565031Y-111239994D03*
D15*
X99565031Y-111239994D03*
%TD*%
D16*
%TO.C,SW1*%
X77709982Y-107139986D03*
D17*
X77709983Y-109139987D03*
D18*
X88329982Y-107489986D03*
X85789982Y-107489986D03*
X83249982Y-107489986D03*
X80709982Y-107489986D03*
%TD*%
D16*
%TO.C,SW2*%
X96165017Y-107139986D03*
D17*
X96165018Y-109139987D03*
D18*
X106785017Y-107489986D03*
X104245017Y-107489986D03*
X101705017Y-107489986D03*
X99165017Y-107489986D03*
%TD*%
D14*
%TO.C,J1*%
X89109996Y-111239994D03*
X87109996Y-111239994D03*
X85109996Y-111239994D03*
X83109996Y-111239994D03*
D15*
X81109996Y-111239994D03*
%TD*%
M02*
