M48
; DRILL file {KiCad (6.99.0-4085-g6c752680d7)} date Tue Nov  8 23:05:40 2022
; FORMAT={-:-/ absolute / inch / decimal}
; #@! TF.CreationDate,2022-11-08T23:05:40+08:00
; #@! TF.GenerationSoftware,Kicad,Pcbnew,(6.99.0-4085-g6c752680d7)
; #@! TF.FileFunction,Plated,1,2,PTH
FMAT,2
INCH
; #@! TA.AperFunction,Plated,PTH,ComponentDrill
T1C0.0300
; #@! TA.AperFunction,Plated,PTH,ComponentDrill
T2C0.0315
; #@! TA.AperFunction,Plated,PTH,ComponentDrill
T3C0.0394
%
G90
G05
T1
X3.0594Y-4.2181
X3.0594Y-4.2968
X3.786Y-4.2181
X3.786Y-4.2968
T2
X3.1933Y-4.3795
X3.272Y-4.3795
X3.3508Y-4.3795
X3.4295Y-4.3795
X3.5083Y-4.3795
X3.9199Y-4.3795
X3.9986Y-4.3795
X4.0774Y-4.3795
X4.1561Y-4.3795
X4.2348Y-4.3795
T3
X3.1776Y-4.2319
X3.2776Y-4.2319
X3.3776Y-4.2319
X3.4776Y-4.2319
X3.9041Y-4.2319
X4.0041Y-4.2319
X4.1041Y-4.2319
X4.2041Y-4.2319
T0
M30
