%TF.GenerationSoftware,KiCad,Pcbnew,(6.99.0-4085-g6c752680d7)*%
%TF.CreationDate,2022-11-08T23:05:40+08:00*%
%TF.ProjectId,evq,6576712e-6b69-4636-9164-5f7063625858,rev?*%
%TF.SameCoordinates,Original*%
%TF.FileFunction,Copper,L1,Top*%
%TF.FilePolarity,Positive*%
%FSLAX46Y46*%
G04 Gerber Fmt 4.6, Leading zero omitted, Abs format (unit mm)*
G04 Created by KiCad (PCBNEW (6.99.0-4085-g6c752680d7)) date 2022-11-08 23:05:40*
%MOMM*%
%LPD*%
G01*
G04 APERTURE LIST*
%TA.AperFunction,ComponentPad*%
%ADD10O,1.350000X1.350000*%
%TD*%
%TA.AperFunction,ComponentPad*%
%ADD11R,1.350000X1.350000*%
%TD*%
%TA.AperFunction,ComponentPad*%
%ADD12O,1.524000X1.524000*%
%TD*%
%TA.AperFunction,ComponentPad*%
%ADD13C,1.524000*%
%TD*%
%TA.AperFunction,ComponentPad*%
%ADD14O,2.000000X3.000000*%
%TD*%
%TA.AperFunction,Conductor*%
%ADD15C,0.250000*%
%TD*%
G04 APERTURE END LIST*
D10*
%TO.P,J2,5,Pin_5*%
%TO.N,Net-(J2-Pin_5)*%
X107565031Y-111239994D03*
%TO.P,J2,4,Pin_4*%
%TO.N,Net-(J2-Pin_4)*%
X105565031Y-111239994D03*
%TO.P,J2,3,Pin_3*%
%TO.N,Net-(J2-Pin_3)*%
X103565031Y-111239994D03*
%TO.P,J2,2,Pin_2*%
%TO.N,Net-(J2-Pin_2)*%
X101565031Y-111239994D03*
D11*
%TO.P,J2,1,Pin_1*%
%TO.N,Net-(J2-Pin_1)*%
X99565031Y-111239994D03*
%TD*%
D12*
%TO.P,SW1,S2,S2*%
%TO.N,Net-(J1-Pin_2)*%
X77709982Y-107139986D03*
D13*
%TO.P,SW1,S1,S1*%
%TO.N,Net-(J1-Pin_1)*%
X77709983Y-109139987D03*
D14*
%TO.P,SW1,NC,NC*%
%TO.N,unconnected-(SW1-PadNC)*%
X88329982Y-107489986D03*
%TO.P,SW1,C,C*%
%TO.N,Net-(J1-Pin_5)*%
X85789982Y-107489986D03*
%TO.P,SW1,B,B*%
%TO.N,Net-(J1-Pin_4)*%
X83249982Y-107489986D03*
%TO.P,SW1,A,A*%
%TO.N,Net-(J1-Pin_3)*%
X80709982Y-107489986D03*
%TD*%
D12*
%TO.P,SW2,S2,S2*%
%TO.N,Net-(J2-Pin_2)*%
X96165017Y-107139986D03*
D13*
%TO.P,SW2,S1,S1*%
%TO.N,Net-(J2-Pin_1)*%
X96165018Y-109139987D03*
D14*
%TO.P,SW2,NC,NC*%
%TO.N,unconnected-(SW2-PadNC)*%
X106785017Y-107489986D03*
%TO.P,SW2,C,C*%
%TO.N,Net-(J2-Pin_5)*%
X104245017Y-107489986D03*
%TO.P,SW2,B,B*%
%TO.N,Net-(J2-Pin_4)*%
X101705017Y-107489986D03*
%TO.P,SW2,A,A*%
%TO.N,Net-(J2-Pin_3)*%
X99165017Y-107489986D03*
%TD*%
D10*
%TO.P,J1,5,Pin_5*%
%TO.N,Net-(J1-Pin_5)*%
X89109996Y-111239994D03*
%TO.P,J1,4,Pin_4*%
%TO.N,Net-(J1-Pin_4)*%
X87109996Y-111239994D03*
%TO.P,J1,3,Pin_3*%
%TO.N,Net-(J1-Pin_3)*%
X85109996Y-111239994D03*
%TO.P,J1,2,Pin_2*%
%TO.N,Net-(J1-Pin_2)*%
X83109996Y-111239994D03*
D11*
%TO.P,J1,1,Pin_1*%
%TO.N,Net-(J1-Pin_1)*%
X81109996Y-111239994D03*
%TD*%
D15*
%TO.N,Net-(J1-Pin_1)*%
X81109997Y-111239995D02*
X79809992Y-111239997D01*
X79809992Y-111239997D02*
X77709996Y-109139996D01*
%TO.N,Net-(J1-Pin_2)*%
X80010000Y-109989996D02*
X79059991Y-109040005D01*
X83109989Y-111240004D02*
X83159998Y-111189990D01*
X83159998Y-111189990D02*
X81959986Y-109990002D01*
X77759991Y-107140001D02*
X77709987Y-107139993D01*
X79059991Y-109040005D02*
X79060002Y-108439997D01*
X79060002Y-108439997D02*
X77759991Y-107140001D01*
X81959986Y-109990002D02*
X80010000Y-109989996D01*
%TO.N,Net-(J1-Pin_3)*%
X82059988Y-109490002D02*
X80710001Y-108139992D01*
X83359982Y-109489988D02*
X82059988Y-109490002D01*
X85109986Y-111239998D02*
X83359982Y-109489988D01*
X80710001Y-108139992D02*
X80709998Y-107489986D01*
%TO.N,Net-(J1-Pin_4)*%
X84659997Y-109689999D02*
X83249995Y-108280000D01*
X87109995Y-111240007D02*
X87109985Y-110939981D01*
X83249995Y-108280000D02*
X83249996Y-107489996D01*
X85859998Y-109689995D02*
X84659997Y-109689999D01*
X87109985Y-110939981D02*
X85859998Y-109689995D01*
%TO.N,Net-(J1-Pin_5)*%
X87309994Y-109789996D02*
X85789995Y-108269989D01*
X89110003Y-111239996D02*
X87659999Y-109790002D01*
X87659999Y-109790002D02*
X87309994Y-109789996D01*
X85789995Y-108269989D02*
X85789985Y-107489998D01*
%TO.N,Net-(J2-Pin_1)*%
X96205666Y-109139987D02*
X98305674Y-111239995D01*
X98305674Y-111239995D02*
X99565032Y-111239995D01*
X96165018Y-109139987D02*
X96205666Y-109139987D01*
%TO.N,Net-(J2-Pin_2)*%
X100119465Y-109794428D02*
X101565032Y-111239995D01*
X96165018Y-107139987D02*
X98819459Y-109794428D01*
X98819459Y-109794428D02*
X100119465Y-109794428D01*
%TO.N,Net-(J2-Pin_3)*%
X100510107Y-109494428D02*
X101819465Y-109494428D01*
X101819465Y-109494428D02*
X103565032Y-111239995D01*
X99165018Y-108149339D02*
X100510107Y-109494428D01*
X99165018Y-107489987D02*
X99165018Y-108149339D01*
%TO.N,Net-(J2-Pin_4)*%
X105565032Y-111199353D02*
X105565032Y-111239995D01*
X103860107Y-109494428D02*
X105565032Y-111199353D01*
X101705018Y-107489987D02*
X101705018Y-107864339D01*
X101705018Y-107864339D02*
X103335107Y-109494428D01*
X103335107Y-109494428D02*
X103860107Y-109494428D01*
%TO.N,Net-(J2-Pin_5)*%
X104245018Y-107919981D02*
X107565032Y-111239995D01*
X104245018Y-107489987D02*
X104245018Y-107919981D01*
%TD*%
%TA.AperFunction,Conductor*%
%TO.N,Net-(J1-Pin_4)*%
G36*
X86431384Y-110081278D02*
G01*
X86728454Y-110250941D01*
X87359367Y-110611270D01*
X87364852Y-110618349D01*
X87364381Y-110625893D01*
X87113693Y-111233457D01*
X87107369Y-111239797D01*
X87102866Y-111240694D01*
X86685767Y-111240257D01*
X86444666Y-111240005D01*
X86436396Y-111236569D01*
X86433185Y-111230497D01*
X86248014Y-110259710D01*
X86249830Y-110250941D01*
X86251234Y-110249245D01*
X86417312Y-110083166D01*
X86425585Y-110079739D01*
X86431384Y-110081278D01*
G37*
%TD.AperFunction*%
%TD*%
%TA.AperFunction,Conductor*%
%TO.N,Net-(J2-Pin_1)*%
G36*
X98898023Y-110572986D02*
G01*
X99557256Y-111232219D01*
X99560683Y-111240492D01*
X99557047Y-111248969D01*
X98897613Y-111876231D01*
X98889257Y-111879450D01*
X98882022Y-111876711D01*
X98162962Y-111272496D01*
X98158833Y-111264551D01*
X98161532Y-111256012D01*
X98162216Y-111255266D01*
X98329825Y-111087657D01*
X98330117Y-111087375D01*
X98881769Y-110572704D01*
X98890156Y-110569566D01*
X98898023Y-110572986D01*
G37*
%TD.AperFunction*%
%TD*%
%TA.AperFunction,Conductor*%
%TO.N,Net-(J1-Pin_1)*%
G36*
X80443119Y-110573117D02*
G01*
X81102314Y-111232312D01*
X81105741Y-111240585D01*
X81102197Y-111248973D01*
X80442434Y-111890481D01*
X80434114Y-111893792D01*
X80426927Y-111891195D01*
X80426043Y-111890481D01*
X79696373Y-111301207D01*
X79692091Y-111293344D01*
X79694623Y-111284755D01*
X79695452Y-111283833D01*
X79862957Y-111116328D01*
X79863111Y-111116177D01*
X80426727Y-110572966D01*
X80435062Y-110569692D01*
X80443119Y-110573117D01*
G37*
%TD.AperFunction*%
%TD*%
%TA.AperFunction,Conductor*%
%TO.N,Net-(J1-Pin_2)*%
G36*
X82311022Y-110160111D02*
G01*
X82728985Y-110340480D01*
X83357737Y-110611814D01*
X83363975Y-110618238D01*
X83363917Y-110627019D01*
X83112560Y-111236205D01*
X83106208Y-111242557D01*
X82498237Y-111493413D01*
X82489282Y-111493400D01*
X82482958Y-111487060D01*
X82482594Y-111486047D01*
X82407446Y-111242558D01*
X82129034Y-110340479D01*
X82129869Y-110331565D01*
X82131941Y-110328757D01*
X82298114Y-110162580D01*
X82306387Y-110159153D01*
X82311022Y-110160111D01*
G37*
%TD.AperFunction*%
%TD*%
%TA.AperFunction,Conductor*%
%TO.N,Net-(J2-Pin_4)*%
G36*
X104730336Y-110183564D02*
G01*
X105187094Y-110364432D01*
X105812309Y-110612007D01*
X105818738Y-110618238D01*
X105818816Y-110627347D01*
X105567595Y-111236205D01*
X105561243Y-111242557D01*
X104952874Y-111493577D01*
X104943920Y-111493564D01*
X104937356Y-111486589D01*
X104548810Y-110364432D01*
X104549341Y-110355493D01*
X104551593Y-110352331D01*
X104717755Y-110186169D01*
X104726028Y-110182742D01*
X104730336Y-110183564D01*
G37*
%TD.AperFunction*%
%TD*%
%TA.AperFunction,Conductor*%
%TO.N,Net-(J1-Pin_3)*%
G36*
X84250832Y-110199646D02*
G01*
X84513393Y-110297560D01*
X85356962Y-110612145D01*
X85363515Y-110618246D01*
X85363689Y-110627570D01*
X85112560Y-111236205D01*
X85106208Y-111242557D01*
X84843535Y-111350939D01*
X84497571Y-111493687D01*
X84488616Y-111493674D01*
X84482146Y-111486959D01*
X84161652Y-110627570D01*
X84069638Y-110380840D01*
X84069958Y-110371892D01*
X84072327Y-110368480D01*
X84238471Y-110202336D01*
X84246744Y-110198909D01*
X84250832Y-110199646D01*
G37*
%TD.AperFunction*%
%TD*%
%TA.AperFunction,Conductor*%
%TO.N,Net-(J2-Pin_5)*%
G36*
X106705872Y-110199640D02*
G01*
X107811997Y-110612145D01*
X107818550Y-110618246D01*
X107818724Y-110627570D01*
X107567595Y-111236205D01*
X107561243Y-111242557D01*
X107147019Y-111413471D01*
X106952607Y-111493687D01*
X106943652Y-111493674D01*
X106937181Y-111486959D01*
X106846038Y-111242558D01*
X106524677Y-110380834D01*
X106524998Y-110371885D01*
X106527367Y-110368473D01*
X106693510Y-110202330D01*
X106701783Y-110198903D01*
X106705872Y-110199640D01*
G37*
%TD.AperFunction*%
%TD*%
%TA.AperFunction,Conductor*%
%TO.N,Net-(J2-Pin_3)*%
G36*
X102705872Y-110199640D02*
G01*
X103811997Y-110612145D01*
X103818550Y-110618246D01*
X103818724Y-110627570D01*
X103567595Y-111236205D01*
X103561243Y-111242557D01*
X103147019Y-111413471D01*
X102952607Y-111493687D01*
X102943652Y-111493674D01*
X102937181Y-111486959D01*
X102846038Y-111242558D01*
X102524677Y-110380834D01*
X102524998Y-110371885D01*
X102527367Y-110368473D01*
X102693510Y-110202330D01*
X102701783Y-110198903D01*
X102705872Y-110199640D01*
G37*
%TD.AperFunction*%
%TD*%
%TA.AperFunction,Conductor*%
%TO.N,Net-(J2-Pin_2)*%
G36*
X100705872Y-110199640D02*
G01*
X101811997Y-110612145D01*
X101818550Y-110618246D01*
X101818724Y-110627570D01*
X101567595Y-111236205D01*
X101561243Y-111242557D01*
X101147019Y-111413471D01*
X100952607Y-111493687D01*
X100943652Y-111493674D01*
X100937181Y-111486959D01*
X100846038Y-111242558D01*
X100524677Y-110380834D01*
X100524998Y-110371885D01*
X100527367Y-110368473D01*
X100693510Y-110202330D01*
X100701783Y-110198903D01*
X100705872Y-110199640D01*
G37*
%TD.AperFunction*%
%TD*%
%TA.AperFunction,Conductor*%
%TO.N,Net-(J1-Pin_5)*%
G36*
X88250836Y-110199640D02*
G01*
X89356962Y-110612145D01*
X89363515Y-110618246D01*
X89363689Y-110627570D01*
X89112560Y-111236205D01*
X89106208Y-111242557D01*
X88691984Y-111413471D01*
X88497572Y-111493687D01*
X88488617Y-111493674D01*
X88482146Y-111486959D01*
X88069642Y-110380835D01*
X88069963Y-110371886D01*
X88072332Y-110368474D01*
X88238474Y-110202330D01*
X88246747Y-110198903D01*
X88250836Y-110199640D01*
G37*
%TD.AperFunction*%
%TD*%
%TA.AperFunction,Conductor*%
%TO.N,Net-(J1-Pin_2)*%
G36*
X78411860Y-106852964D02*
G01*
X78418287Y-106859561D01*
X78893295Y-108092152D01*
X78893073Y-108101104D01*
X78890651Y-108104632D01*
X78724362Y-108270923D01*
X78716089Y-108274350D01*
X78712403Y-108273754D01*
X77430296Y-107847941D01*
X77423526Y-107842082D01*
X77423170Y-107832374D01*
X77707420Y-107143775D01*
X77713770Y-107137425D01*
X78402906Y-106852953D01*
X78411860Y-106852964D01*
G37*
%TD.AperFunction*%
%TD*%
%TA.AperFunction,Conductor*%
%TO.N,Net-(J2-Pin_1)*%
G36*
X96866849Y-108852983D02*
G01*
X96873294Y-108859625D01*
X97344622Y-110097784D01*
X97344362Y-110106735D01*
X97341960Y-110110219D01*
X97175675Y-110276504D01*
X97167402Y-110279931D01*
X97163662Y-110279317D01*
X95885257Y-109847979D01*
X95878513Y-109842087D01*
X95878182Y-109832429D01*
X96162455Y-109143775D01*
X96168805Y-109137425D01*
X96857895Y-108852972D01*
X96866849Y-108852983D01*
G37*
%TD.AperFunction*%
%TD*%
%TA.AperFunction,Conductor*%
%TO.N,Net-(J2-Pin_2)*%
G36*
X96866652Y-106853064D02*
G01*
X96873168Y-106859898D01*
X97328515Y-108122240D01*
X97328099Y-108131185D01*
X97325782Y-108134483D01*
X97159514Y-108300751D01*
X97151241Y-108304178D01*
X97147271Y-108303484D01*
X97139695Y-108300751D01*
X95884929Y-107848137D01*
X95878309Y-107842106D01*
X95878084Y-107832667D01*
X96162455Y-107143775D01*
X96168805Y-107137425D01*
X96857698Y-106853053D01*
X96866652Y-106853064D01*
G37*
%TD.AperFunction*%
%TD*%
%TA.AperFunction,Conductor*%
%TO.N,Net-(J1-Pin_1)*%
G36*
X78411617Y-108853064D02*
G01*
X78418133Y-108859898D01*
X78772433Y-109842106D01*
X78873481Y-110122238D01*
X78873065Y-110131183D01*
X78870748Y-110134481D01*
X78704479Y-110300750D01*
X78696206Y-110304177D01*
X78692236Y-110303483D01*
X77429894Y-109848137D01*
X77423274Y-109842106D01*
X77423049Y-109832667D01*
X77707420Y-109143775D01*
X77713770Y-109137425D01*
X78402663Y-108853053D01*
X78411617Y-108853064D01*
G37*
%TD.AperFunction*%
%TD*%
%TA.AperFunction,Conductor*%
%TO.N,Net-(J2-Pin_4)*%
G36*
X102702014Y-107145260D02*
G01*
X102708238Y-107152816D01*
X102796753Y-107488975D01*
X103256237Y-109233993D01*
X103255030Y-109242865D01*
X103253196Y-109245244D01*
X103086127Y-109412313D01*
X103077854Y-109415740D01*
X103074466Y-109415238D01*
X101614305Y-108972870D01*
X101607380Y-108967192D01*
X101606023Y-108960893D01*
X101703795Y-107497001D01*
X101707766Y-107488975D01*
X101711617Y-107486734D01*
X102669917Y-107152816D01*
X102693074Y-107144747D01*
X102702014Y-107145260D01*
G37*
%TD.AperFunction*%
%TD*%
%TA.AperFunction,Conductor*%
%TO.N,Net-(J2-Pin_5)*%
G36*
X105241921Y-107154328D02*
G01*
X105247825Y-107161061D01*
X105248097Y-107161985D01*
X105774055Y-109267420D01*
X105772736Y-109276277D01*
X105770977Y-109278529D01*
X105603970Y-109445536D01*
X105595697Y-109448963D01*
X105592049Y-109448380D01*
X104127577Y-108967763D01*
X104120785Y-108961927D01*
X104119567Y-108955654D01*
X104243662Y-107496907D01*
X104247778Y-107488954D01*
X104251560Y-107486820D01*
X104532121Y-107391603D01*
X105232987Y-107153742D01*
X105241921Y-107154328D01*
G37*
%TD.AperFunction*%
%TD*%
%TA.AperFunction,Conductor*%
%TO.N,Net-(J2-Pin_3)*%
G36*
X100161430Y-107192182D02*
G01*
X100167100Y-107199113D01*
X100167401Y-107200355D01*
X100380123Y-108345865D01*
X100490615Y-108940864D01*
X100570971Y-109373584D01*
X100569113Y-109382344D01*
X100567741Y-109383993D01*
X100400869Y-109550865D01*
X100392596Y-109554292D01*
X100388080Y-109553385D01*
X100276357Y-109506597D01*
X100274166Y-109505389D01*
X100259988Y-109495461D01*
X100259986Y-109495460D01*
X100259149Y-109494874D01*
X100246588Y-109491508D01*
X100243768Y-109490340D01*
X100233399Y-109484353D01*
X100233398Y-109484353D01*
X100232510Y-109483840D01*
X100215671Y-109480871D01*
X100213185Y-109480142D01*
X99742793Y-109283149D01*
X98940643Y-108947221D01*
X98934335Y-108940864D01*
X98933608Y-108934585D01*
X99163155Y-107496521D01*
X99167843Y-107488891D01*
X99171331Y-107487163D01*
X100152520Y-107191289D01*
X100161430Y-107192182D01*
G37*
%TD.AperFunction*%
%TD*%
%TA.AperFunction,Conductor*%
%TO.N,Net-(J1-Pin_3)*%
G36*
X81706417Y-107190630D02*
G01*
X81712096Y-107197553D01*
X81712397Y-107198780D01*
X82121519Y-109369828D01*
X82119683Y-109378593D01*
X82118294Y-109380268D01*
X81951417Y-109547142D01*
X81943144Y-109550569D01*
X81938657Y-109549674D01*
X81932560Y-109547142D01*
X80489866Y-108948041D01*
X80483541Y-108941705D01*
X80482795Y-108935427D01*
X80708140Y-107496537D01*
X80712806Y-107488893D01*
X80716305Y-107487150D01*
X81697505Y-107189750D01*
X81706417Y-107190630D01*
G37*
%TD.AperFunction*%
%TD*%
%TA.AperFunction,Conductor*%
%TO.N,Net-(J1-Pin_5)*%
G36*
X86786112Y-107212106D02*
G01*
X86791653Y-107219140D01*
X86791960Y-107220566D01*
X87123860Y-109422123D01*
X87121705Y-109430813D01*
X87120564Y-109432139D01*
X86953749Y-109598954D01*
X86945476Y-109602381D01*
X86940545Y-109601290D01*
X85511691Y-108936847D01*
X85505635Y-108930252D01*
X85505148Y-108923966D01*
X85787881Y-107496323D01*
X85792850Y-107488873D01*
X85796186Y-107487334D01*
X86777219Y-107211050D01*
X86786112Y-107212106D01*
G37*
%TD.AperFunction*%
%TD*%
%TA.AperFunction,Conductor*%
%TO.N,Net-(J1-Pin_4)*%
G36*
X84246088Y-107213748D02*
G01*
X84251619Y-107220790D01*
X84251925Y-107222228D01*
X84504412Y-108929390D01*
X84577882Y-109426146D01*
X84575703Y-109434832D01*
X84574581Y-109436131D01*
X84407773Y-109602940D01*
X84399500Y-109606367D01*
X84394533Y-109605260D01*
X84031086Y-109434832D01*
X82967309Y-108936004D01*
X82961274Y-108929390D01*
X82960807Y-108923104D01*
X83247862Y-107496307D01*
X83252853Y-107488873D01*
X83256177Y-107487348D01*
X84237197Y-107212678D01*
X84246088Y-107213748D01*
G37*
%TD.AperFunction*%
%TD*%
M02*
