%TF.GenerationSoftware,KiCad,Pcbnew,(6.99.0-4085-g6c752680d7)*%
%TF.CreationDate,2022-11-14T17:07:19+08:00*%
%TF.ProjectId,flex,666c6578-2e6b-4696-9361-645f70636258,rev?*%
%TF.SameCoordinates,Original*%
%TF.FileFunction,Soldermask,Top*%
%TF.FilePolarity,Negative*%
%FSLAX46Y46*%
G04 Gerber Fmt 4.6, Leading zero omitted, Abs format (unit mm)*
G04 Created by KiCad (PCBNEW (6.99.0-4085-g6c752680d7)) date 2022-11-14 17:07:19*
%MOMM*%
%LPD*%
G01*
G04 APERTURE LIST*
G04 Aperture macros list*
%AMRoundRect*
0 Rectangle with rounded corners*
0 $1 Rounding radius*
0 $2 $3 $4 $5 $6 $7 $8 $9 X,Y pos of 4 corners*
0 Add a 4 corners polygon primitive as box body*
4,1,4,$2,$3,$4,$5,$6,$7,$8,$9,$2,$3,0*
0 Add four circle primitives for the rounded corners*
1,1,$1+$1,$2,$3*
1,1,$1+$1,$4,$5*
1,1,$1+$1,$6,$7*
1,1,$1+$1,$8,$9*
0 Add four rect primitives between the rounded corners*
20,1,$1+$1,$2,$3,$4,$5,0*
20,1,$1+$1,$4,$5,$6,$7,0*
20,1,$1+$1,$6,$7,$8,$9,0*
20,1,$1+$1,$8,$9,$2,$3,0*%
%AMHorizOval*
0 Thick line with rounded ends*
0 $1 width*
0 $2 $3 position (X,Y) of the first rounded end (center of the circle)*
0 $4 $5 position (X,Y) of the second rounded end (center of the circle)*
0 Add line between two ends*
20,1,$1,$2,$3,$4,$5,0*
0 Add two circle primitives to create the rounded ends*
1,1,$1,$2,$3*
1,1,$1,$4,$5*%
%AMRotRect*
0 Rectangle, with rotation*
0 The origin of the aperture is its center*
0 $1 length*
0 $2 width*
0 $3 Rotation angle, in degrees counterclockwise*
0 Add horizontal line*
21,1,$1,$2,0,0,$3*%
G04 Aperture macros list end*
%ADD10R,1.700000X1.700000*%
%ADD11O,1.700000X1.700000*%
%ADD12R,1.524000X1.524000*%
%ADD13R,1.700000X1.000000*%
%ADD14RotRect,1.524000X1.524000X276.000000*%
%ADD15C,1.900000*%
%ADD16C,1.750000*%
%ADD17HorizOval,1.000000X0.295442X0.052094X-0.295442X-0.052094X0*%
%ADD18C,5.050000*%
%ADD19C,2.500000*%
%ADD20C,2.200000*%
%ADD21RoundRect,0.250000X-0.475000X0.337500X-0.475000X-0.337500X0.475000X-0.337500X0.475000X0.337500X0*%
%ADD22RotRect,1.524000X1.524000X280.000000*%
%ADD23O,1.600000X1.000000*%
%ADD24HorizOval,1.000000X0.288379X-0.082691X-0.288379X0.082691X0*%
%ADD25RotRect,1.700000X1.000000X190.000000*%
%ADD26RotRect,1.700000X1.000000X10.000000*%
%ADD27RotRect,1.700000X1.000000X164.000000*%
%ADD28RotRect,1.700000X1.700000X11.000000*%
%ADD29RotRect,1.524000X1.524000X257.000000*%
G04 APERTURE END LIST*
D10*
%TO.C,J2*%
X84959213Y-98494082D03*
D11*
X84959213Y-101034082D03*
X84959213Y-103574082D03*
%TD*%
D12*
%TO.C,D1*%
X85598034Y-92130937D03*
X85598034Y-95530937D03*
%TD*%
D13*
%TO.C,D4*%
X97616014Y-93052480D03*
X92116014Y-93052480D03*
X92116014Y-91652480D03*
X97616014Y-91652480D03*
%TD*%
%TO.C,D10*%
X90084020Y-69808480D03*
X95584020Y-69808480D03*
X95584020Y-71208480D03*
X90084020Y-71208480D03*
%TD*%
D14*
%TO.C,D9*%
X82766438Y-92261133D03*
X83121835Y-95642508D03*
%TD*%
D15*
%TO.C,SW9*%
X68672382Y-100136342D03*
D16*
X69086002Y-100063410D03*
D17*
X68270497Y-94977757D03*
D18*
X74088825Y-99181277D03*
D16*
X79091648Y-98299144D03*
D15*
X79505268Y-98226212D03*
D19*
X70777774Y-102344288D03*
D20*
X72526802Y-105295407D03*
X75113349Y-104991643D03*
X77472369Y-103743034D03*
X79238126Y-103045821D03*
X79672727Y-102055306D03*
%TD*%
D21*
%TO.C,C1*%
X87943072Y-99566558D03*
X87943072Y-101641558D03*
%TD*%
D22*
%TO.C,D5*%
X78902781Y-69814117D03*
X79493185Y-73162463D03*
%TD*%
D15*
%TO.C,SW19*%
X87334019Y-75508476D03*
D16*
X87754019Y-75508476D03*
D23*
X87834018Y-70358475D03*
D18*
X92834019Y-75508476D03*
D16*
X97914019Y-75508476D03*
D15*
X98334019Y-75508476D03*
D19*
X89024019Y-78048476D03*
D20*
X90234019Y-81258476D03*
X92834019Y-81408476D03*
X95374019Y-80588476D03*
X97234019Y-80208476D03*
X97834019Y-79308476D03*
%TD*%
D15*
%TO.C,SW14*%
X109340287Y-76989670D03*
D16*
X109744017Y-77105437D03*
D24*
X111240449Y-72176989D03*
D18*
X114627226Y-78505675D03*
D16*
X119510435Y-79905913D03*
D15*
X119914165Y-80021680D03*
D19*
X110264700Y-79897101D03*
D20*
X110543031Y-83316273D03*
X113000966Y-84177119D03*
X115668593Y-84089003D03*
X117561282Y-84236409D03*
X118386113Y-83536656D03*
%TD*%
D25*
%TO.C,D12*%
X68917600Y-72201393D03*
X74334043Y-71246328D03*
X74577150Y-72625059D03*
X69160707Y-73580124D03*
%TD*%
D26*
%TO.C,D2*%
X76050349Y-94469069D03*
X70633906Y-95424134D03*
X70390799Y-94045403D03*
X75807242Y-93090338D03*
%TD*%
D10*
%TO.C,J1*%
X82978828Y-69310873D03*
D11*
X82978828Y-71850873D03*
X82978828Y-74390873D03*
X82978828Y-76930873D03*
X82978828Y-79470873D03*
X82978828Y-82010873D03*
%TD*%
D15*
%TO.C,SW1*%
X89366022Y-97352476D03*
D16*
X89786022Y-97352476D03*
D23*
X89866021Y-92202475D03*
D18*
X94866022Y-97352476D03*
D16*
X99946022Y-97352476D03*
D15*
X100366022Y-97352476D03*
D19*
X91056022Y-99892476D03*
D20*
X92266022Y-103102476D03*
X94866022Y-103252476D03*
X97406022Y-102432476D03*
X99266022Y-102052476D03*
X99866022Y-101152476D03*
%TD*%
D12*
%TO.C,D19*%
X102006530Y-69436855D03*
X102006530Y-72836855D03*
%TD*%
D27*
%TO.C,D7*%
X113562085Y-72268792D03*
X118849025Y-73784798D03*
X118463133Y-75130564D03*
X113176193Y-73614558D03*
%TD*%
D15*
%TO.C,SW5*%
X67199186Y-78292338D03*
D16*
X67612806Y-78219406D03*
D17*
X66797301Y-73133753D03*
D18*
X72615629Y-77337273D03*
D16*
X77618452Y-76455140D03*
D15*
X78032072Y-76382208D03*
D19*
X69304578Y-80500284D03*
D20*
X71053606Y-83451403D03*
X73640153Y-83147639D03*
X75999173Y-81899030D03*
X77764930Y-81201817D03*
X78199531Y-80211302D03*
%TD*%
D28*
%TO.C,J3*%
X66648412Y-75536199D03*
%TD*%
D29*
%TO.C,D14*%
X107650117Y-69909034D03*
X106885283Y-73221892D03*
%TD*%
M02*
