M48
; DRILL file {KiCad (6.99.0-4085-g6c752680d7)} date Mon Nov 14 17:07:19 2022
; FORMAT={-:-/ absolute / inch / decimal}
; #@! TF.CreationDate,2022-11-14T17:07:19+08:00
; #@! TF.GenerationSoftware,Kicad,Pcbnew,(6.99.0-4085-g6c752680d7)
; #@! TF.FileFunction,NonPlated,1,4,NPTH
FMAT,2
INCH
; #@! TA.AperFunction,NonPlated,NPTH,ComponentDrill
T1C0.0394
; #@! TA.AperFunction,NonPlated,NPTH,ComponentDrill
T2C0.0689
; #@! TA.AperFunction,NonPlated,NPTH,ComponentDrill
T3C0.0748
; #@! TA.AperFunction,NonPlated,NPTH,ComponentDrill
T4C0.1988
%
G90
G05
T2
X2.6619Y-3.0795
X2.7199Y-3.9395
X3.0558Y-3.01
X3.1138Y-3.87
X3.4549Y-2.9728
X3.5349Y-3.8328
X3.8549Y-2.9728
X3.9349Y-3.8328
X4.3206Y-3.0356
X4.7051Y-3.1459
T3
X2.6456Y-3.0824
X2.7036Y-3.9424
X3.0721Y-3.0072
X3.1301Y-3.8672
X3.4383Y-2.9728
X3.5183Y-3.8328
X3.8714Y-2.9728
X3.9514Y-3.8328
X4.3047Y-3.0311
X4.721Y-3.1505
T4
X2.8589Y-3.0448
X2.9169Y-3.9048
X3.6549Y-2.9728
X3.7349Y-3.8328
X4.5129Y-3.0908
T1
G00X2.6182Y-2.8813
M15
G01X2.6414Y-2.8772
M16
G05
G00X2.6762Y-3.7413
M15
G01X2.6994Y-3.7372
M16
G05
G00X3.4462Y-2.77
M15
G01X3.4698Y-2.77
M16
G05
G00X3.5262Y-3.63
M15
G01X3.5498Y-3.63
M16
G05
G00X4.3682Y-2.8384
M15
G01X4.3909Y-2.8449
M16
G05
T0
M30
