%TF.GenerationSoftware,KiCad,Pcbnew,(6.99.0-4085-g6c752680d7)*%
%TF.CreationDate,2022-11-14T17:07:19+08:00*%
%TF.ProjectId,flex,666c6578-2e6b-4696-9361-645f70636258,rev?*%
%TF.SameCoordinates,Original*%
%TF.FileFunction,Copper,L3,Inr*%
%TF.FilePolarity,Positive*%
%FSLAX46Y46*%
G04 Gerber Fmt 4.6, Leading zero omitted, Abs format (unit mm)*
G04 Created by KiCad (PCBNEW (6.99.0-4085-g6c752680d7)) date 2022-11-14 17:07:19*
%MOMM*%
%LPD*%
G01*
G04 APERTURE LIST*
G04 Aperture macros list*
%AMRotRect*
0 Rectangle, with rotation*
0 The origin of the aperture is its center*
0 $1 length*
0 $2 width*
0 $3 Rotation angle, in degrees counterclockwise*
0 Add horizontal line*
21,1,$1,$2,0,0,$3*%
G04 Aperture macros list end*
%TA.AperFunction,ComponentPad*%
%ADD10R,1.700000X1.700000*%
%TD*%
%TA.AperFunction,ComponentPad*%
%ADD11O,1.700000X1.700000*%
%TD*%
%TA.AperFunction,ComponentPad*%
%ADD12C,2.200000*%
%TD*%
%TA.AperFunction,ComponentPad*%
%ADD13RotRect,1.700000X1.700000X11.000000*%
%TD*%
%TA.AperFunction,ViaPad*%
%ADD14C,0.800000*%
%TD*%
G04 APERTURE END LIST*
D10*
%TO.N,Vcc*%
%TO.C,J2*%
X84959213Y-98494082D03*
D11*
%TO.N,Gnd*%
X84959213Y-101034082D03*
%TO.N,Din*%
X84959213Y-103574082D03*
%TD*%
D12*
%TO.N,row1*%
%TO.C,SW9*%
X72526802Y-105295407D03*
%TO.N,Net-(D9-A)*%
X77472369Y-103743034D03*
X79238126Y-103045821D03*
%TD*%
%TO.N,row1*%
%TO.C,SW19*%
X90234019Y-81258476D03*
%TO.N,Net-(D19-A)*%
X95374019Y-80588476D03*
X97234019Y-80208476D03*
%TD*%
%TO.N,row1*%
%TO.C,SW14*%
X110543031Y-83316273D03*
%TO.N,Net-(D14-A)*%
X115668593Y-84089003D03*
X117561282Y-84236409D03*
%TD*%
D10*
%TO.N,col5*%
%TO.C,J1*%
X82978828Y-69310873D03*
D11*
%TO.N,col6*%
X82978828Y-71850873D03*
%TO.N,col4*%
X82978828Y-74390873D03*
%TO.N,row1*%
X82978828Y-76930873D03*
%TO.N,col2*%
X82978828Y-79470873D03*
%TO.N,col3*%
X82978828Y-82010873D03*
%TD*%
D12*
%TO.N,row1*%
%TO.C,SW1*%
X92266022Y-103102476D03*
%TO.N,Net-(D1-A)*%
X97406022Y-102432476D03*
X99266022Y-102052476D03*
%TD*%
%TO.N,row1*%
%TO.C,SW5*%
X71053606Y-83451403D03*
%TO.N,Net-(D5-A)*%
X75999173Y-81899030D03*
X77764930Y-81201817D03*
%TD*%
D13*
%TO.N,Net-(D12-DOUT)*%
%TO.C,J3*%
X66648412Y-75536199D03*
%TD*%
D14*
%TO.N,col4*%
X107650118Y-69909034D03*
%TO.N,row1*%
X103986371Y-96874827D03*
%TO.N,Vcc*%
X111841702Y-73675039D03*
X75663355Y-91909264D03*
X99273532Y-91645160D03*
X69461515Y-74847243D03*
X90143532Y-72435160D03*
%TO.N,Din*%
X67855711Y-93753350D03*
%TO.N,Gnd*%
X74146281Y-70030564D03*
X69348895Y-96149265D03*
X97003530Y-69855161D03*
X120331445Y-74216088D03*
X90773530Y-93785160D03*
%TO.N,Net-(D2-DOUT)*%
X88546371Y-90874828D03*
X77996370Y-94224828D03*
%TO.N,Net-(D10-DIN)*%
X100496371Y-74624828D03*
X111696370Y-70424827D03*
%TO.N,Net-(D10-DOUT)*%
X88620977Y-69194356D03*
X76347249Y-72262275D03*
%TD*%
%TA.AperFunction,Conductor*%
%TO.N,Vcc*%
G36*
X91188212Y-67408053D02*
G01*
X100993782Y-67408060D01*
X100996633Y-67408092D01*
X101000539Y-67408180D01*
X101028455Y-67408813D01*
X101034140Y-67409071D01*
X101057772Y-67410682D01*
X101064612Y-67411149D01*
X101070312Y-67411668D01*
X101102024Y-67415284D01*
X101104862Y-67415641D01*
X101143012Y-67420871D01*
X101142360Y-67425630D01*
X101142371Y-67425632D01*
X101143024Y-67420868D01*
X108700024Y-68456041D01*
X108700074Y-68456063D01*
X108700076Y-68456048D01*
X108701335Y-68456221D01*
X108704083Y-68456630D01*
X108735693Y-68461694D01*
X108741287Y-68462721D01*
X108771235Y-68468923D01*
X108776791Y-68470205D01*
X108807747Y-68478093D01*
X108810409Y-68478804D01*
X108810975Y-68478962D01*
X108811034Y-68478978D01*
X108811034Y-68478979D01*
X111246527Y-69158981D01*
X111548621Y-69243327D01*
X111640460Y-69268969D01*
X111700692Y-69306553D01*
X111731043Y-69370735D01*
X111721877Y-69441137D01*
X111676103Y-69495408D01*
X111613893Y-69514125D01*
X111614052Y-69515637D01*
X111607485Y-69516327D01*
X111600883Y-69516327D01*
X111594431Y-69517699D01*
X111594426Y-69517699D01*
X111528300Y-69531755D01*
X111414082Y-69556033D01*
X111408052Y-69558718D01*
X111408051Y-69558718D01*
X111245648Y-69631024D01*
X111245646Y-69631025D01*
X111239618Y-69633709D01*
X111234277Y-69637589D01*
X111234276Y-69637590D01*
X111187196Y-69671796D01*
X111085117Y-69745961D01*
X111080696Y-69750871D01*
X111080695Y-69750872D01*
X110967035Y-69877105D01*
X110957330Y-69887883D01*
X110903226Y-69981593D01*
X110871163Y-70037129D01*
X110861843Y-70053271D01*
X110802828Y-70234899D01*
X110782866Y-70424827D01*
X110783556Y-70431392D01*
X110801236Y-70599604D01*
X110802828Y-70614755D01*
X110861843Y-70796383D01*
X110865146Y-70802105D01*
X110865147Y-70802106D01*
X110878699Y-70825578D01*
X110957330Y-70961771D01*
X110961748Y-70966678D01*
X110961749Y-70966679D01*
X111063458Y-71079638D01*
X111085117Y-71103693D01*
X111171957Y-71166786D01*
X111234066Y-71211911D01*
X111239618Y-71215945D01*
X111245646Y-71218629D01*
X111245648Y-71218630D01*
X111267617Y-71228411D01*
X111414082Y-71293621D01*
X111507483Y-71313474D01*
X111594426Y-71331955D01*
X111594431Y-71331955D01*
X111600883Y-71333327D01*
X111791857Y-71333327D01*
X111798309Y-71331955D01*
X111798314Y-71331955D01*
X111885257Y-71313474D01*
X111978658Y-71293621D01*
X112125123Y-71228411D01*
X112147092Y-71218630D01*
X112147094Y-71218629D01*
X112153122Y-71215945D01*
X112158675Y-71211911D01*
X112220783Y-71166786D01*
X112307623Y-71103693D01*
X112329282Y-71079638D01*
X112430991Y-70966679D01*
X112430992Y-70966678D01*
X112435410Y-70961771D01*
X112514041Y-70825578D01*
X112527593Y-70802106D01*
X112527594Y-70802105D01*
X112530897Y-70796383D01*
X112589912Y-70614755D01*
X112591505Y-70599604D01*
X112609184Y-70431392D01*
X112609874Y-70424827D01*
X112589912Y-70234899D01*
X112530897Y-70053271D01*
X112521578Y-70037129D01*
X112489514Y-69981593D01*
X112435410Y-69887883D01*
X112425706Y-69877105D01*
X112312045Y-69750872D01*
X112312044Y-69750871D01*
X112307623Y-69745961D01*
X112224278Y-69685407D01*
X112180924Y-69629184D01*
X112174849Y-69558448D01*
X112207981Y-69495657D01*
X112269801Y-69460745D01*
X112332223Y-69462113D01*
X123730439Y-72644555D01*
X123730443Y-72644557D01*
X123730448Y-72644558D01*
X123730447Y-72644558D01*
X123762892Y-72653616D01*
X123774621Y-72657520D01*
X123903387Y-72707524D01*
X123925426Y-72718680D01*
X124036711Y-72789503D01*
X124056150Y-72804745D01*
X124151473Y-72895914D01*
X124167565Y-72914654D01*
X124243276Y-73022678D01*
X124255402Y-73044198D01*
X124308580Y-73164913D01*
X124316272Y-73188375D01*
X124342754Y-73307588D01*
X124344879Y-73317153D01*
X124347846Y-73341675D01*
X124350779Y-73473548D01*
X124348905Y-73498179D01*
X124324974Y-73634222D01*
X124322237Y-73646275D01*
X124313177Y-73678715D01*
X124313176Y-73678721D01*
X124313174Y-73678728D01*
X124313174Y-73678732D01*
X123262294Y-77442492D01*
X123257390Y-77441123D01*
X123257389Y-77441125D01*
X123262294Y-77442495D01*
X122969020Y-78492889D01*
X122967251Y-78498681D01*
X119749738Y-88196868D01*
X119709303Y-88255225D01*
X119643737Y-88282457D01*
X119632958Y-88283161D01*
X119579376Y-88284354D01*
X119554753Y-88282481D01*
X119418098Y-88258451D01*
X119406048Y-88255715D01*
X115265089Y-87099533D01*
X115265085Y-87099530D01*
X115232658Y-87090478D01*
X115226784Y-87088838D01*
X115226675Y-87088795D01*
X115226682Y-87088770D01*
X115132727Y-87062595D01*
X114938843Y-87041165D01*
X114933737Y-87041431D01*
X114933735Y-87041431D01*
X114877240Y-87044374D01*
X114744042Y-87051314D01*
X114739047Y-87052400D01*
X114739043Y-87052401D01*
X114600778Y-87082476D01*
X114553434Y-87092774D01*
X114500603Y-87113650D01*
X114376770Y-87162582D01*
X114376763Y-87162585D01*
X114372019Y-87164460D01*
X114204554Y-87264490D01*
X114055433Y-87390241D01*
X114006694Y-87447106D01*
X114004851Y-87445527D01*
X114004826Y-87445565D01*
X114006658Y-87447133D01*
X114006657Y-87447134D01*
X113993078Y-87462993D01*
X113991962Y-87464295D01*
X113989137Y-87461873D01*
X113989135Y-87461876D01*
X113991961Y-87464295D01*
X113966023Y-87494589D01*
X113966022Y-87494591D01*
X110751997Y-91248253D01*
X110751995Y-91248256D01*
X106391252Y-96341232D01*
X103154512Y-100121452D01*
X103151420Y-100125063D01*
X103151289Y-100125185D01*
X103151287Y-100125183D01*
X103095861Y-100189834D01*
X103093461Y-100193607D01*
X103093459Y-100193610D01*
X103040309Y-100277173D01*
X103004455Y-100333543D01*
X103002616Y-100337609D01*
X103002615Y-100337610D01*
X102995297Y-100353787D01*
X102934254Y-100488717D01*
X102933006Y-100493005D01*
X102933005Y-100493008D01*
X102925740Y-100517971D01*
X102886663Y-100652248D01*
X102862635Y-100820860D01*
X102862677Y-100882752D01*
X102862692Y-100905825D01*
X102862692Y-100905910D01*
X102862680Y-104601343D01*
X102862073Y-104613697D01*
X102848529Y-104751163D01*
X102843711Y-104775385D01*
X102807003Y-104896385D01*
X102805413Y-104901625D01*
X102795962Y-104924440D01*
X102791610Y-104932583D01*
X102733776Y-105040781D01*
X102720058Y-105061311D01*
X102636364Y-105163293D01*
X102618907Y-105180750D01*
X102516939Y-105264437D01*
X102496404Y-105278160D01*
X102380061Y-105340353D01*
X102357244Y-105349805D01*
X102241854Y-105384815D01*
X102231014Y-105388104D01*
X102206790Y-105392924D01*
X102069595Y-105406446D01*
X102057236Y-105407054D01*
X86508249Y-105407051D01*
X86508191Y-105407051D01*
X86490276Y-105407050D01*
X86490199Y-105407050D01*
X86490174Y-105407051D01*
X86485586Y-105407051D01*
X86485586Y-105405068D01*
X86484826Y-105404935D01*
X86484894Y-105407209D01*
X86454230Y-105408127D01*
X86453289Y-105408183D01*
X86453277Y-105408184D01*
X86423615Y-105409964D01*
X86423498Y-105408019D01*
X86422750Y-105408196D01*
X86422901Y-105409867D01*
X83724324Y-105653088D01*
X83724302Y-105653087D01*
X83724302Y-105653089D01*
X83706378Y-105654702D01*
X83706306Y-105654711D01*
X83706191Y-105654722D01*
X83701761Y-105655121D01*
X83701583Y-105653141D01*
X83700829Y-105653078D01*
X83701101Y-105655337D01*
X83670645Y-105659001D01*
X83669704Y-105659143D01*
X83669682Y-105659146D01*
X83640300Y-105663581D01*
X83640009Y-105661651D01*
X83639282Y-105661894D01*
X83639583Y-105663550D01*
X83635091Y-105664366D01*
X83635057Y-105664372D01*
X83617352Y-105667590D01*
X83612865Y-105668406D01*
X83612865Y-105668404D01*
X83612852Y-105668408D01*
X68352239Y-108441744D01*
X68352232Y-108441742D01*
X68319074Y-108447770D01*
X68306823Y-108449381D01*
X68285982Y-108451086D01*
X68169160Y-108460647D01*
X68144462Y-108460239D01*
X68035991Y-108447742D01*
X68013426Y-108445142D01*
X67989282Y-108439923D01*
X67863705Y-108399545D01*
X67841043Y-108389714D01*
X67725766Y-108325616D01*
X67705456Y-108311552D01*
X67604899Y-108226191D01*
X67587724Y-108208435D01*
X67505755Y-108105095D01*
X67492377Y-108084334D01*
X67432144Y-107966978D01*
X67423075Y-107944008D01*
X67385030Y-107810608D01*
X67382227Y-107798565D01*
X67376312Y-107765994D01*
X67380832Y-107765173D01*
X67380830Y-107765158D01*
X67376304Y-107765981D01*
X66927332Y-105295407D01*
X70913328Y-105295407D01*
X70933193Y-105547810D01*
X70934347Y-105552617D01*
X70934348Y-105552623D01*
X70960582Y-105661894D01*
X70992297Y-105793998D01*
X70994190Y-105798569D01*
X70994191Y-105798571D01*
X71087015Y-106022667D01*
X71089186Y-106027909D01*
X71221474Y-106243783D01*
X71385904Y-106436305D01*
X71578426Y-106600735D01*
X71794300Y-106733023D01*
X71798870Y-106734916D01*
X71798874Y-106734918D01*
X72023638Y-106828018D01*
X72028211Y-106829912D01*
X72112834Y-106850228D01*
X72269586Y-106887861D01*
X72269592Y-106887862D01*
X72274399Y-106889016D01*
X72526802Y-106908881D01*
X72779205Y-106889016D01*
X72784012Y-106887862D01*
X72784018Y-106887861D01*
X72940770Y-106850228D01*
X73025393Y-106829912D01*
X73029966Y-106828018D01*
X73254730Y-106734918D01*
X73254734Y-106734916D01*
X73259304Y-106733023D01*
X73475178Y-106600735D01*
X73667700Y-106436305D01*
X73832130Y-106243783D01*
X73964418Y-106027909D01*
X73966590Y-106022667D01*
X74059413Y-105798571D01*
X74059414Y-105798569D01*
X74061307Y-105793998D01*
X74062462Y-105789186D01*
X74062464Y-105789181D01*
X74063717Y-105783962D01*
X74099071Y-105722393D01*
X74162098Y-105689712D01*
X74232789Y-105696295D01*
X74273185Y-105722188D01*
X74363236Y-105808051D01*
X74425003Y-105866946D01*
X74603095Y-105981399D01*
X74799628Y-106060079D01*
X75007500Y-106100143D01*
X75166152Y-106100143D01*
X75236477Y-106093428D01*
X75318112Y-106085633D01*
X75318116Y-106085632D01*
X75324088Y-106085062D01*
X75447259Y-106048896D01*
X75521446Y-106027113D01*
X75521448Y-106027112D01*
X75527211Y-106025420D01*
X75715375Y-105928414D01*
X75881781Y-105797551D01*
X75993687Y-105668406D01*
X76016481Y-105642100D01*
X76016481Y-105642099D01*
X76020414Y-105637561D01*
X76023417Y-105632360D01*
X76123260Y-105459426D01*
X76123263Y-105459420D01*
X76126262Y-105454225D01*
X76128224Y-105448557D01*
X76128226Y-105448552D01*
X76179523Y-105300337D01*
X76195502Y-105254170D01*
X76225221Y-105047474D01*
X76254714Y-104982893D01*
X76314440Y-104944510D01*
X76385437Y-104944510D01*
X76431769Y-104969595D01*
X76523993Y-105048362D01*
X76739867Y-105180650D01*
X76744437Y-105182543D01*
X76744441Y-105182545D01*
X76969205Y-105275645D01*
X76973778Y-105277539D01*
X77048204Y-105295407D01*
X77215153Y-105335488D01*
X77215159Y-105335489D01*
X77219966Y-105336643D01*
X77472369Y-105356508D01*
X77724772Y-105336643D01*
X77729579Y-105335489D01*
X77729585Y-105335488D01*
X77896534Y-105295407D01*
X77970960Y-105277539D01*
X77975533Y-105275645D01*
X78200297Y-105182545D01*
X78200301Y-105182543D01*
X78204871Y-105180650D01*
X78420745Y-105048362D01*
X78592551Y-104901625D01*
X78609511Y-104887140D01*
X78613267Y-104883932D01*
X78777697Y-104691410D01*
X78780282Y-104687192D01*
X78784314Y-104680613D01*
X78836962Y-104632982D01*
X78907004Y-104621376D01*
X78921160Y-104623930D01*
X78980910Y-104638275D01*
X78980916Y-104638276D01*
X78985723Y-104639430D01*
X79238126Y-104659295D01*
X79490529Y-104639430D01*
X79495336Y-104638276D01*
X79495342Y-104638275D01*
X79652094Y-104600642D01*
X79736717Y-104580326D01*
X79741290Y-104578432D01*
X79966054Y-104485332D01*
X79966058Y-104485330D01*
X79970628Y-104483437D01*
X80186502Y-104351149D01*
X80379024Y-104186719D01*
X80543454Y-103994197D01*
X80675742Y-103778323D01*
X80682174Y-103762796D01*
X80760341Y-103574083D01*
X83596058Y-103574083D01*
X83596488Y-103579272D01*
X83613332Y-103782543D01*
X83614650Y-103798451D01*
X83615931Y-103803509D01*
X83615931Y-103803510D01*
X83665172Y-103997956D01*
X83669918Y-104016699D01*
X83682749Y-104045950D01*
X83746052Y-104190268D01*
X83760354Y-104222874D01*
X83763204Y-104227236D01*
X83763206Y-104227240D01*
X83841101Y-104346466D01*
X83883492Y-104411351D01*
X83887017Y-104415180D01*
X83887020Y-104415184D01*
X83944258Y-104477360D01*
X84035974Y-104576989D01*
X84040093Y-104580195D01*
X84188987Y-104696085D01*
X84213638Y-104715272D01*
X84218219Y-104717751D01*
X84364319Y-104796816D01*
X84411640Y-104822425D01*
X84624579Y-104895527D01*
X84629713Y-104896384D01*
X84629718Y-104896385D01*
X84841508Y-104931726D01*
X84841510Y-104931726D01*
X84846645Y-104932583D01*
X85071783Y-104932583D01*
X85076918Y-104931726D01*
X85076920Y-104931726D01*
X85288710Y-104896385D01*
X85288715Y-104896384D01*
X85293849Y-104895527D01*
X85506788Y-104822425D01*
X85554110Y-104796816D01*
X85700209Y-104717751D01*
X85704790Y-104715272D01*
X85729442Y-104696085D01*
X85878335Y-104580195D01*
X85882454Y-104576989D01*
X85974170Y-104477360D01*
X86031408Y-104415184D01*
X86031411Y-104415180D01*
X86034936Y-104411351D01*
X86077327Y-104346466D01*
X86155222Y-104227240D01*
X86155224Y-104227236D01*
X86158074Y-104222874D01*
X86172377Y-104190268D01*
X86235679Y-104045950D01*
X86248510Y-104016699D01*
X86253257Y-103997956D01*
X86302497Y-103803510D01*
X86302497Y-103803509D01*
X86303778Y-103798451D01*
X86305097Y-103782543D01*
X86321940Y-103579272D01*
X86322370Y-103574083D01*
X86314801Y-103482741D01*
X86304209Y-103354911D01*
X86304208Y-103354906D01*
X86303778Y-103349715D01*
X86278338Y-103249255D01*
X86249792Y-103136529D01*
X86249792Y-103136528D01*
X86248510Y-103131467D01*
X86235793Y-103102476D01*
X90652548Y-103102476D01*
X90672413Y-103354879D01*
X90673567Y-103359686D01*
X90673568Y-103359692D01*
X90703110Y-103482741D01*
X90731517Y-103601067D01*
X90733410Y-103605638D01*
X90733411Y-103605640D01*
X90825024Y-103826812D01*
X90828406Y-103834978D01*
X90960694Y-104050852D01*
X91125124Y-104243374D01*
X91317646Y-104407804D01*
X91533520Y-104540092D01*
X91538090Y-104541985D01*
X91538094Y-104541987D01*
X91762858Y-104635087D01*
X91767431Y-104636981D01*
X91852054Y-104657297D01*
X92008806Y-104694930D01*
X92008812Y-104694931D01*
X92013619Y-104696085D01*
X92266022Y-104715950D01*
X92518425Y-104696085D01*
X92523232Y-104694931D01*
X92523238Y-104694930D01*
X92679990Y-104657297D01*
X92764613Y-104636981D01*
X92769186Y-104635087D01*
X92993950Y-104541987D01*
X92993954Y-104541985D01*
X92998524Y-104540092D01*
X93214398Y-104407804D01*
X93406920Y-104243374D01*
X93571350Y-104050852D01*
X93703638Y-103834978D01*
X93705483Y-103836109D01*
X93748046Y-103791065D01*
X93816965Y-103774016D01*
X93884161Y-103796934D01*
X93914174Y-103826812D01*
X94014811Y-103968136D01*
X94024463Y-103981691D01*
X94177676Y-104127779D01*
X94355768Y-104242232D01*
X94552301Y-104320912D01*
X94760173Y-104360976D01*
X94918825Y-104360976D01*
X94989150Y-104354261D01*
X95070785Y-104346466D01*
X95070789Y-104346465D01*
X95076761Y-104345895D01*
X95187816Y-104313287D01*
X95274119Y-104287946D01*
X95274121Y-104287945D01*
X95279884Y-104286253D01*
X95468048Y-104189247D01*
X95634454Y-104058384D01*
X95645565Y-104045562D01*
X95769154Y-103902933D01*
X95769154Y-103902932D01*
X95773087Y-103898394D01*
X95797623Y-103855896D01*
X95875933Y-103720259D01*
X95875936Y-103720253D01*
X95878935Y-103715058D01*
X95880897Y-103709390D01*
X95880899Y-103709385D01*
X95946213Y-103520673D01*
X95946214Y-103520669D01*
X95948175Y-103515003D01*
X95948866Y-103510197D01*
X95984171Y-103449046D01*
X96047276Y-103416514D01*
X96117951Y-103423263D01*
X96166932Y-103458407D01*
X96261911Y-103569613D01*
X96261916Y-103569618D01*
X96265124Y-103573374D01*
X96457646Y-103737804D01*
X96673520Y-103870092D01*
X96678090Y-103871985D01*
X96678094Y-103871987D01*
X96902858Y-103965087D01*
X96907431Y-103966981D01*
X96948343Y-103976803D01*
X97148806Y-104024930D01*
X97148812Y-104024931D01*
X97153619Y-104026085D01*
X97406022Y-104045950D01*
X97658425Y-104026085D01*
X97663232Y-104024931D01*
X97663238Y-104024930D01*
X97863701Y-103976803D01*
X97904613Y-103966981D01*
X97909186Y-103965087D01*
X98133950Y-103871987D01*
X98133954Y-103871985D01*
X98138524Y-103870092D01*
X98354398Y-103737804D01*
X98546920Y-103573374D01*
X98547911Y-103574534D01*
X98604277Y-103543755D01*
X98679278Y-103550467D01*
X98710378Y-103563349D01*
X98754375Y-103581573D01*
X98767431Y-103586981D01*
X98845152Y-103605640D01*
X99008806Y-103644930D01*
X99008812Y-103644931D01*
X99013619Y-103646085D01*
X99266022Y-103665950D01*
X99518425Y-103646085D01*
X99523232Y-103644931D01*
X99523238Y-103644930D01*
X99686892Y-103605640D01*
X99764613Y-103586981D01*
X99769186Y-103585087D01*
X99993950Y-103491987D01*
X99993954Y-103491985D01*
X99998524Y-103490092D01*
X100214398Y-103357804D01*
X100406920Y-103193374D01*
X100571350Y-103000852D01*
X100703638Y-102784978D01*
X100725176Y-102732982D01*
X100798633Y-102555640D01*
X100798634Y-102555638D01*
X100800527Y-102551067D01*
X100826912Y-102441165D01*
X100858476Y-102309692D01*
X100858477Y-102309686D01*
X100859631Y-102304879D01*
X100879496Y-102052476D01*
X100859631Y-101800073D01*
X100858477Y-101795266D01*
X100858476Y-101795260D01*
X100845663Y-101741892D01*
X100849210Y-101670984D01*
X100859062Y-101649479D01*
X100862363Y-101643761D01*
X100878935Y-101615058D01*
X100880897Y-101609390D01*
X100880899Y-101609385D01*
X100915688Y-101508867D01*
X100948175Y-101415003D01*
X100970684Y-101258451D01*
X100977449Y-101211403D01*
X100977449Y-101211398D01*
X100978303Y-101205460D01*
X100968230Y-100994002D01*
X100918320Y-100788272D01*
X100909710Y-100769417D01*
X100854242Y-100647961D01*
X100830378Y-100595705D01*
X100824271Y-100587128D01*
X100711062Y-100428149D01*
X100711061Y-100428147D01*
X100707581Y-100423261D01*
X100613487Y-100333543D01*
X100558706Y-100281309D01*
X100558704Y-100281308D01*
X100554368Y-100277173D01*
X100376276Y-100162720D01*
X100179743Y-100084040D01*
X99971871Y-100043976D01*
X99813219Y-100043976D01*
X99742894Y-100050691D01*
X99661259Y-100058486D01*
X99661255Y-100058487D01*
X99655283Y-100059057D01*
X99562600Y-100086271D01*
X99457925Y-100117006D01*
X99457923Y-100117007D01*
X99452160Y-100118699D01*
X99263996Y-100215705D01*
X99097590Y-100346568D01*
X99093663Y-100351101D01*
X99093662Y-100351101D01*
X99023263Y-100432345D01*
X98957453Y-100472351D01*
X98767431Y-100517971D01*
X98762860Y-100519864D01*
X98762858Y-100519865D01*
X98538094Y-100612965D01*
X98538090Y-100612967D01*
X98533520Y-100614860D01*
X98317646Y-100747148D01*
X98125124Y-100911578D01*
X98124133Y-100910418D01*
X98067767Y-100941197D01*
X97992766Y-100934485D01*
X97909186Y-100899865D01*
X97909184Y-100899864D01*
X97904613Y-100897971D01*
X97780582Y-100868194D01*
X97663238Y-100840022D01*
X97663232Y-100840021D01*
X97658425Y-100838867D01*
X97406022Y-100819002D01*
X97153619Y-100838867D01*
X97148812Y-100840021D01*
X97148806Y-100840022D01*
X97031462Y-100868194D01*
X96907431Y-100897971D01*
X96902860Y-100899864D01*
X96902858Y-100899865D01*
X96678094Y-100992965D01*
X96678090Y-100992967D01*
X96673520Y-100994860D01*
X96457646Y-101127148D01*
X96265124Y-101291578D01*
X96100694Y-101484100D01*
X95968406Y-101699974D01*
X95966513Y-101704544D01*
X95966511Y-101704548D01*
X95873411Y-101929312D01*
X95871517Y-101933885D01*
X95866732Y-101953818D01*
X95815035Y-102169153D01*
X95812413Y-102180073D01*
X95800761Y-102328125D01*
X95775475Y-102394466D01*
X95718337Y-102436606D01*
X95647487Y-102441165D01*
X95588200Y-102409431D01*
X95572504Y-102394466D01*
X95554368Y-102377173D01*
X95376276Y-102262720D01*
X95179743Y-102184040D01*
X94971871Y-102143976D01*
X94813219Y-102143976D01*
X94744059Y-102150580D01*
X94661259Y-102158486D01*
X94661255Y-102158487D01*
X94655283Y-102159057D01*
X94566905Y-102185007D01*
X94457925Y-102217006D01*
X94457923Y-102217007D01*
X94452160Y-102218699D01*
X94263996Y-102315705D01*
X94097590Y-102446568D01*
X94093663Y-102451100D01*
X94093662Y-102451101D01*
X93986091Y-102575244D01*
X93926365Y-102613627D01*
X93855368Y-102613627D01*
X93795642Y-102575243D01*
X93774458Y-102540949D01*
X93705533Y-102374548D01*
X93705531Y-102374544D01*
X93703638Y-102369974D01*
X93571350Y-102154100D01*
X93406920Y-101961578D01*
X93214398Y-101797148D01*
X92998524Y-101664860D01*
X92993954Y-101662967D01*
X92993950Y-101662965D01*
X92769186Y-101569865D01*
X92769184Y-101569864D01*
X92764613Y-101567971D01*
X92652607Y-101541081D01*
X92523238Y-101510022D01*
X92523232Y-101510021D01*
X92518425Y-101508867D01*
X92266022Y-101489002D01*
X92013619Y-101508867D01*
X92008812Y-101510021D01*
X92008806Y-101510022D01*
X91879437Y-101541081D01*
X91767431Y-101567971D01*
X91762860Y-101569864D01*
X91762858Y-101569865D01*
X91538094Y-101662965D01*
X91538090Y-101662967D01*
X91533520Y-101664860D01*
X91317646Y-101797148D01*
X91125124Y-101961578D01*
X90960694Y-102154100D01*
X90828406Y-102369974D01*
X90826513Y-102374544D01*
X90826511Y-102374548D01*
X90746393Y-102567971D01*
X90731517Y-102603885D01*
X90730362Y-102608697D01*
X90686015Y-102793418D01*
X90672413Y-102850073D01*
X90652548Y-103102476D01*
X86235793Y-103102476D01*
X86213105Y-103050751D01*
X86160168Y-102930065D01*
X86160166Y-102930061D01*
X86158074Y-102925292D01*
X86034936Y-102736815D01*
X86031411Y-102732986D01*
X86031408Y-102732982D01*
X85885986Y-102575014D01*
X85882454Y-102571177D01*
X85801601Y-102508246D01*
X85708903Y-102436095D01*
X85708901Y-102436093D01*
X85704790Y-102432894D01*
X85671534Y-102414897D01*
X85621143Y-102364884D01*
X85605791Y-102295567D01*
X85630351Y-102228954D01*
X85671534Y-102193269D01*
X85684466Y-102186271D01*
X85704790Y-102175272D01*
X85714803Y-102167479D01*
X85878335Y-102040195D01*
X85882454Y-102036989D01*
X85948418Y-101965334D01*
X86031408Y-101875184D01*
X86031411Y-101875180D01*
X86034936Y-101871351D01*
X86103746Y-101766029D01*
X86155222Y-101687240D01*
X86155224Y-101687236D01*
X86158074Y-101682874D01*
X86163290Y-101670984D01*
X86243415Y-101488314D01*
X86248510Y-101476699D01*
X86249936Y-101471070D01*
X86302497Y-101263510D01*
X86302497Y-101263509D01*
X86303778Y-101258451D01*
X86304529Y-101249398D01*
X86321940Y-101039272D01*
X86322370Y-101034083D01*
X86314117Y-100934485D01*
X86304209Y-100814911D01*
X86304208Y-100814906D01*
X86303778Y-100809715D01*
X86281766Y-100722792D01*
X86249792Y-100596529D01*
X86249792Y-100596528D01*
X86248510Y-100591467D01*
X86163548Y-100397771D01*
X86160168Y-100390065D01*
X86160166Y-100390061D01*
X86158074Y-100385292D01*
X86138759Y-100355727D01*
X86037787Y-100201179D01*
X86034936Y-100196815D01*
X86031411Y-100192986D01*
X86031408Y-100192982D01*
X85915994Y-100067611D01*
X85891372Y-100040865D01*
X85859952Y-99977201D01*
X85863126Y-99949167D01*
X89793707Y-99949167D01*
X89824116Y-100173651D01*
X89894119Y-100389097D01*
X90001466Y-100588582D01*
X90004988Y-100592998D01*
X90004991Y-100593003D01*
X90139182Y-100761273D01*
X90142708Y-100765694D01*
X90146967Y-100769415D01*
X90146969Y-100769417D01*
X90210985Y-100825346D01*
X90313304Y-100914739D01*
X90318163Y-100917642D01*
X90318167Y-100917645D01*
X90367453Y-100947092D01*
X90507772Y-101030929D01*
X90594073Y-101063318D01*
X90714566Y-101108540D01*
X90714568Y-101108541D01*
X90719861Y-101110527D01*
X90850592Y-101134251D01*
X90937183Y-101149965D01*
X90937185Y-101149965D01*
X90942755Y-101150976D01*
X91112544Y-101150976D01*
X91281644Y-101135757D01*
X91287099Y-101134252D01*
X91287102Y-101134251D01*
X91494555Y-101076997D01*
X91494556Y-101076997D01*
X91500015Y-101075490D01*
X91704115Y-100977201D01*
X91715409Y-100968996D01*
X91795217Y-100911011D01*
X91887385Y-100844047D01*
X92003317Y-100722792D01*
X92040025Y-100684399D01*
X92040027Y-100684396D01*
X92043934Y-100680310D01*
X92105443Y-100587128D01*
X92165611Y-100495977D01*
X92165612Y-100495975D01*
X92168731Y-100491250D01*
X92257765Y-100282946D01*
X92308173Y-100062091D01*
X92318337Y-99835785D01*
X92287928Y-99611301D01*
X92283366Y-99597259D01*
X92241577Y-99468649D01*
X92217925Y-99395855D01*
X92142527Y-99255741D01*
X92113259Y-99201352D01*
X92113259Y-99201351D01*
X92110578Y-99196370D01*
X92107056Y-99191954D01*
X92107053Y-99191949D01*
X91972862Y-99023679D01*
X91972860Y-99023677D01*
X91969336Y-99019258D01*
X91876977Y-98938566D01*
X91803007Y-98873941D01*
X91798740Y-98870213D01*
X91793881Y-98867310D01*
X91793877Y-98867307D01*
X91650490Y-98781637D01*
X91604272Y-98754023D01*
X91477180Y-98706325D01*
X91397478Y-98676412D01*
X91397476Y-98676411D01*
X91392183Y-98674425D01*
X91232131Y-98645380D01*
X91174861Y-98634987D01*
X91174859Y-98634987D01*
X91169289Y-98633976D01*
X90999500Y-98633976D01*
X90830400Y-98649195D01*
X90824945Y-98650700D01*
X90824942Y-98650701D01*
X90617489Y-98707955D01*
X90612029Y-98709462D01*
X90407929Y-98807751D01*
X90403350Y-98811078D01*
X90403348Y-98811079D01*
X90394589Y-98817443D01*
X90224659Y-98940905D01*
X90190585Y-98976544D01*
X90083799Y-99088233D01*
X90068110Y-99104642D01*
X90064993Y-99109364D01*
X89956743Y-99273357D01*
X89943313Y-99293702D01*
X89854279Y-99502006D01*
X89803871Y-99722861D01*
X89793707Y-99949167D01*
X85863126Y-99949167D01*
X85867939Y-99906655D01*
X85912797Y-99851626D01*
X85940041Y-99837472D01*
X86046736Y-99797677D01*
X86062390Y-99789129D01*
X86164907Y-99712385D01*
X86177516Y-99699776D01*
X86254260Y-99597259D01*
X86262809Y-99581603D01*
X86307955Y-99460561D01*
X86311552Y-99445340D01*
X86316854Y-99396021D01*
X86317214Y-99389306D01*
X86317214Y-98766198D01*
X86312739Y-98750959D01*
X86311349Y-98749754D01*
X86303666Y-98748083D01*
X83619329Y-98748083D01*
X83604090Y-98752558D01*
X83602885Y-98753948D01*
X83601214Y-98761631D01*
X83601214Y-99389306D01*
X83601574Y-99396021D01*
X83606876Y-99445340D01*
X83610473Y-99460561D01*
X83655619Y-99581603D01*
X83664168Y-99597259D01*
X83740912Y-99699776D01*
X83753521Y-99712385D01*
X83856038Y-99789129D01*
X83871692Y-99797677D01*
X83978387Y-99837472D01*
X84035222Y-99880019D01*
X84060033Y-99946539D01*
X84044941Y-100015914D01*
X84027057Y-100040864D01*
X84002434Y-100067611D01*
X83887020Y-100192982D01*
X83887017Y-100192986D01*
X83883492Y-100196815D01*
X83880641Y-100201179D01*
X83779670Y-100355727D01*
X83760354Y-100385292D01*
X83758262Y-100390061D01*
X83758260Y-100390065D01*
X83754880Y-100397771D01*
X83669918Y-100591467D01*
X83668636Y-100596528D01*
X83668636Y-100596529D01*
X83636662Y-100722792D01*
X83614650Y-100809715D01*
X83614220Y-100814906D01*
X83614219Y-100814911D01*
X83604311Y-100934485D01*
X83596058Y-101034083D01*
X83596488Y-101039272D01*
X83613900Y-101249398D01*
X83614650Y-101258451D01*
X83615931Y-101263509D01*
X83615931Y-101263510D01*
X83668493Y-101471070D01*
X83669918Y-101476699D01*
X83675013Y-101488314D01*
X83755139Y-101670984D01*
X83760354Y-101682874D01*
X83763204Y-101687236D01*
X83763206Y-101687240D01*
X83814682Y-101766029D01*
X83883492Y-101871351D01*
X83887017Y-101875180D01*
X83887020Y-101875184D01*
X83970010Y-101965334D01*
X84035974Y-102036989D01*
X84040093Y-102040195D01*
X84203626Y-102167479D01*
X84213638Y-102175272D01*
X84233963Y-102186271D01*
X84246894Y-102193269D01*
X84297285Y-102243282D01*
X84312637Y-102312599D01*
X84288077Y-102379212D01*
X84246895Y-102414896D01*
X84213638Y-102432894D01*
X84209527Y-102436093D01*
X84209525Y-102436095D01*
X84116827Y-102508246D01*
X84035974Y-102571177D01*
X84032442Y-102575014D01*
X83887020Y-102732982D01*
X83887017Y-102732986D01*
X83883492Y-102736815D01*
X83760354Y-102925292D01*
X83758262Y-102930061D01*
X83758260Y-102930065D01*
X83705323Y-103050751D01*
X83669918Y-103131467D01*
X83668636Y-103136528D01*
X83668636Y-103136529D01*
X83640090Y-103249255D01*
X83614650Y-103349715D01*
X83614220Y-103354906D01*
X83614219Y-103354911D01*
X83603627Y-103482741D01*
X83596058Y-103574083D01*
X80760341Y-103574083D01*
X80770737Y-103548985D01*
X80770738Y-103548983D01*
X80772631Y-103544412D01*
X80814634Y-103369457D01*
X80830580Y-103303037D01*
X80830581Y-103303031D01*
X80831735Y-103298224D01*
X80851600Y-103045821D01*
X80831735Y-102793418D01*
X80816329Y-102729244D01*
X80786714Y-102605892D01*
X80772631Y-102547230D01*
X80770737Y-102542658D01*
X80770735Y-102542651D01*
X80738019Y-102463666D01*
X80730430Y-102393076D01*
X80735358Y-102374239D01*
X80752917Y-102323504D01*
X80754880Y-102317833D01*
X80768738Y-102221452D01*
X80784154Y-102114233D01*
X80784154Y-102114228D01*
X80785008Y-102108290D01*
X80774935Y-101896832D01*
X80725025Y-101691102D01*
X80721268Y-101682874D01*
X80685103Y-101603684D01*
X80637083Y-101498535D01*
X80632492Y-101492087D01*
X80517767Y-101330979D01*
X80517766Y-101330977D01*
X80514286Y-101326091D01*
X80443347Y-101258451D01*
X80365411Y-101184139D01*
X80365409Y-101184138D01*
X80361073Y-101180003D01*
X80182981Y-101065550D01*
X79986448Y-100986870D01*
X79778576Y-100946806D01*
X79619924Y-100946806D01*
X79549599Y-100953521D01*
X79467964Y-100961316D01*
X79467960Y-100961317D01*
X79461988Y-100961887D01*
X79372500Y-100988163D01*
X79264630Y-101019836D01*
X79264628Y-101019837D01*
X79258865Y-101021529D01*
X79070701Y-101118535D01*
X78904295Y-101249398D01*
X78900368Y-101253930D01*
X78900367Y-101253931D01*
X78837840Y-101326091D01*
X78765662Y-101409388D01*
X78717915Y-101492089D01*
X78666534Y-101541081D01*
X78657021Y-101545494D01*
X78598185Y-101569865D01*
X78510198Y-101606310D01*
X78510194Y-101606312D01*
X78505624Y-101608205D01*
X78289750Y-101740493D01*
X78097228Y-101904923D01*
X77932798Y-102097445D01*
X77930214Y-102101661D01*
X77930213Y-102101663D01*
X77926181Y-102108242D01*
X77873533Y-102155873D01*
X77803491Y-102167479D01*
X77789335Y-102164925D01*
X77729585Y-102150580D01*
X77729579Y-102150579D01*
X77724772Y-102149425D01*
X77472369Y-102129560D01*
X77219966Y-102149425D01*
X77215159Y-102150579D01*
X77215153Y-102150580D01*
X77075783Y-102184040D01*
X76973778Y-102208529D01*
X76969207Y-102210422D01*
X76969205Y-102210423D01*
X76744441Y-102303523D01*
X76744437Y-102303525D01*
X76739867Y-102305418D01*
X76523993Y-102437706D01*
X76331471Y-102602136D01*
X76167041Y-102794658D01*
X76034753Y-103010532D01*
X76032860Y-103015102D01*
X76032858Y-103015106D01*
X75939758Y-103239870D01*
X75937864Y-103244443D01*
X75924722Y-103299184D01*
X75880177Y-103484729D01*
X75878760Y-103490631D01*
X75858895Y-103743034D01*
X75872920Y-103921227D01*
X75872961Y-103921751D01*
X75858365Y-103991231D01*
X75808523Y-104041790D01*
X75739258Y-104057377D01*
X75679228Y-104037635D01*
X75661256Y-104026085D01*
X75623603Y-104001887D01*
X75604395Y-103994197D01*
X75531681Y-103965087D01*
X75427070Y-103923207D01*
X75219198Y-103883143D01*
X75060546Y-103883143D01*
X74990221Y-103889858D01*
X74908586Y-103897653D01*
X74908582Y-103897654D01*
X74902610Y-103898224D01*
X74809927Y-103925438D01*
X74705252Y-103956173D01*
X74705250Y-103956174D01*
X74699487Y-103957866D01*
X74511323Y-104054872D01*
X74344917Y-104185735D01*
X74340990Y-104190267D01*
X74340989Y-104190268D01*
X74298227Y-104239618D01*
X74206284Y-104345725D01*
X74203282Y-104350924D01*
X74203281Y-104350926D01*
X74130285Y-104477360D01*
X74078903Y-104526353D01*
X74009189Y-104539789D01*
X73943278Y-104513403D01*
X73913733Y-104480195D01*
X73867404Y-104404593D01*
X73832130Y-104347031D01*
X73667700Y-104154509D01*
X73475178Y-103990079D01*
X73259304Y-103857791D01*
X73254734Y-103855898D01*
X73254730Y-103855896D01*
X73029966Y-103762796D01*
X73029964Y-103762795D01*
X73025393Y-103760902D01*
X72929182Y-103737804D01*
X72784018Y-103702953D01*
X72784012Y-103702952D01*
X72779205Y-103701798D01*
X72526802Y-103681933D01*
X72274399Y-103701798D01*
X72269592Y-103702952D01*
X72269586Y-103702953D01*
X72124422Y-103737804D01*
X72028211Y-103760902D01*
X72023640Y-103762795D01*
X72023638Y-103762796D01*
X71798874Y-103855896D01*
X71798870Y-103855898D01*
X71794300Y-103857791D01*
X71578426Y-103990079D01*
X71385904Y-104154509D01*
X71221474Y-104347031D01*
X71089186Y-104562905D01*
X71087293Y-104567475D01*
X71087291Y-104567479D01*
X71021466Y-104726395D01*
X70992297Y-104796816D01*
X70972284Y-104880176D01*
X70959703Y-104932583D01*
X70933193Y-105043004D01*
X70913328Y-105295407D01*
X66927332Y-105295407D01*
X66677606Y-103921227D01*
X66677606Y-103921226D01*
X66401330Y-102400979D01*
X69515459Y-102400979D01*
X69545868Y-102625463D01*
X69615871Y-102840909D01*
X69723218Y-103040394D01*
X69726740Y-103044810D01*
X69726743Y-103044815D01*
X69860934Y-103213085D01*
X69864460Y-103217506D01*
X69868719Y-103221227D01*
X69868721Y-103221229D01*
X69949462Y-103291770D01*
X70035056Y-103366551D01*
X70039915Y-103369454D01*
X70039919Y-103369457D01*
X70118679Y-103416514D01*
X70229524Y-103482741D01*
X70330594Y-103520673D01*
X70436318Y-103560352D01*
X70436320Y-103560353D01*
X70441613Y-103562339D01*
X70601665Y-103591384D01*
X70658935Y-103601777D01*
X70658937Y-103601777D01*
X70664507Y-103602788D01*
X70834296Y-103602788D01*
X71003396Y-103587569D01*
X71008851Y-103586064D01*
X71008854Y-103586063D01*
X71216307Y-103528809D01*
X71216308Y-103528809D01*
X71221767Y-103527302D01*
X71425867Y-103429013D01*
X71433782Y-103423263D01*
X71516969Y-103362823D01*
X71609137Y-103295859D01*
X71710714Y-103189618D01*
X71761777Y-103136211D01*
X71761779Y-103136208D01*
X71765686Y-103132122D01*
X71829524Y-103035412D01*
X71887363Y-102947789D01*
X71887364Y-102947787D01*
X71890483Y-102943062D01*
X71899945Y-102920926D01*
X71932286Y-102845260D01*
X71979517Y-102734758D01*
X72029925Y-102513903D01*
X72040089Y-102287597D01*
X72009680Y-102063113D01*
X71939677Y-101847667D01*
X71858567Y-101696939D01*
X71835011Y-101653164D01*
X71835011Y-101653163D01*
X71832330Y-101648182D01*
X71828808Y-101643766D01*
X71828805Y-101643761D01*
X71694614Y-101475491D01*
X71694612Y-101475489D01*
X71691088Y-101471070D01*
X71632173Y-101419597D01*
X71524759Y-101325753D01*
X71520492Y-101322025D01*
X71515633Y-101319122D01*
X71515629Y-101319119D01*
X71330884Y-101208739D01*
X71326024Y-101205835D01*
X71140652Y-101136264D01*
X71119230Y-101128224D01*
X71119228Y-101128223D01*
X71113935Y-101126237D01*
X70953883Y-101097192D01*
X70896613Y-101086799D01*
X70896611Y-101086799D01*
X70891041Y-101085788D01*
X70721252Y-101085788D01*
X70552152Y-101101007D01*
X70546697Y-101102512D01*
X70546694Y-101102513D01*
X70339241Y-101159767D01*
X70333781Y-101161274D01*
X70129681Y-101259563D01*
X70125102Y-101262890D01*
X70125100Y-101262891D01*
X70049645Y-101317712D01*
X69946411Y-101392717D01*
X69922464Y-101417764D01*
X69834256Y-101510022D01*
X69789862Y-101556454D01*
X69786745Y-101561176D01*
X69670084Y-101737911D01*
X69665065Y-101745514D01*
X69576031Y-101953818D01*
X69525623Y-102174673D01*
X69515459Y-102400979D01*
X66401330Y-102400979D01*
X65989775Y-100136342D01*
X67616799Y-100136342D01*
X67637082Y-100342276D01*
X67638878Y-100348196D01*
X67638879Y-100348202D01*
X67660392Y-100419121D01*
X67697150Y-100540296D01*
X67794697Y-100722792D01*
X67925972Y-100882752D01*
X68085932Y-101014027D01*
X68268428Y-101111574D01*
X68311257Y-101124566D01*
X68460522Y-101169845D01*
X68460528Y-101169846D01*
X68466448Y-101171642D01*
X68539562Y-101178843D01*
X68617694Y-101186539D01*
X68617701Y-101186539D01*
X68620774Y-101186842D01*
X68723990Y-101186842D01*
X68727063Y-101186539D01*
X68727070Y-101186539D01*
X68805202Y-101178843D01*
X68878316Y-101171642D01*
X68884236Y-101169846D01*
X68884242Y-101169845D01*
X69014409Y-101130359D01*
X69076336Y-101111574D01*
X69081794Y-101108657D01*
X69081798Y-101108655D01*
X69208403Y-101040982D01*
X69255055Y-101026749D01*
X69262063Y-101026037D01*
X69277023Y-101024516D01*
X69277028Y-101024515D01*
X69283381Y-101023869D01*
X69472680Y-100964477D01*
X69646148Y-100868194D01*
X69796684Y-100738963D01*
X69805501Y-100727573D01*
X69914214Y-100587128D01*
X69914216Y-100587124D01*
X69918124Y-100582076D01*
X70005497Y-100403954D01*
X70010092Y-100386209D01*
X70053626Y-100218071D01*
X70053627Y-100218067D01*
X70055226Y-100211890D01*
X70055549Y-100205516D01*
X70055550Y-100205511D01*
X70061767Y-100082905D01*
X70065274Y-100013747D01*
X70054979Y-99946539D01*
X70036199Y-99823949D01*
X70036199Y-99823948D01*
X70035232Y-99817637D01*
X69966327Y-99631590D01*
X69861382Y-99463221D01*
X69724693Y-99319424D01*
X69719454Y-99315777D01*
X69719451Y-99315775D01*
X69642597Y-99262283D01*
X71459584Y-99262283D01*
X71489467Y-99584772D01*
X71507677Y-99667924D01*
X71554127Y-99880019D01*
X71558753Y-99901144D01*
X71560043Y-99904804D01*
X71560043Y-99904805D01*
X71659286Y-100186435D01*
X71666393Y-100206604D01*
X71668118Y-100210068D01*
X71668120Y-100210073D01*
X71808130Y-100491250D01*
X71810755Y-100496522D01*
X71876476Y-100595705D01*
X71987506Y-100763268D01*
X71987512Y-100763276D01*
X71989649Y-100766501D01*
X71992173Y-100769447D01*
X72189704Y-101000005D01*
X72200366Y-101012450D01*
X72203230Y-101015061D01*
X72203235Y-101015066D01*
X72321029Y-101122449D01*
X72439709Y-101230640D01*
X72704051Y-101417764D01*
X72707461Y-101419595D01*
X72707464Y-101419597D01*
X72985978Y-101569156D01*
X72985985Y-101569159D01*
X72989385Y-101570985D01*
X73092137Y-101610791D01*
X73285345Y-101685640D01*
X73291385Y-101687980D01*
X73327006Y-101696939D01*
X73601703Y-101766029D01*
X73601710Y-101766030D01*
X73605474Y-101766977D01*
X73926890Y-101806777D01*
X74169712Y-101806777D01*
X74183149Y-101805948D01*
X74408213Y-101792067D01*
X74408220Y-101792066D01*
X74412081Y-101791828D01*
X74730437Y-101732317D01*
X75039067Y-101634135D01*
X75099547Y-101606310D01*
X75329770Y-101500391D01*
X75329778Y-101500387D01*
X75333292Y-101498770D01*
X75341568Y-101493646D01*
X75605344Y-101330323D01*
X75605346Y-101330322D01*
X75608653Y-101328274D01*
X75658242Y-101288370D01*
X75857951Y-101127665D01*
X75857955Y-101127662D01*
X75860974Y-101125232D01*
X76086431Y-100892721D01*
X76090998Y-100886674D01*
X76152935Y-100804656D01*
X76281607Y-100634267D01*
X76300719Y-100601165D01*
X76380540Y-100462910D01*
X76443542Y-100353787D01*
X76506302Y-100205511D01*
X76568269Y-100059109D01*
X76568272Y-100059101D01*
X76569782Y-100055533D01*
X76658414Y-99744026D01*
X76660822Y-99728518D01*
X76707497Y-99427827D01*
X76708093Y-99423988D01*
X76708213Y-99420102D01*
X76717947Y-99104145D01*
X76717947Y-99104139D01*
X76718066Y-99100271D01*
X76688183Y-98777782D01*
X76665326Y-98673415D01*
X76619727Y-98465199D01*
X76619726Y-98465196D01*
X76618897Y-98461410D01*
X76592316Y-98385979D01*
X76579217Y-98348807D01*
X78112376Y-98348807D01*
X78113343Y-98355119D01*
X78113343Y-98355121D01*
X78130206Y-98465199D01*
X78142418Y-98544917D01*
X78211323Y-98730964D01*
X78316268Y-98899333D01*
X78452957Y-99043130D01*
X78458196Y-99046777D01*
X78458199Y-99046779D01*
X78548118Y-99109364D01*
X78615794Y-99156468D01*
X78798113Y-99234707D01*
X78804371Y-99235993D01*
X78804374Y-99235994D01*
X78895281Y-99254675D01*
X78992449Y-99274644D01*
X79141121Y-99274644D01*
X79272761Y-99261257D01*
X79299235Y-99262513D01*
X79299334Y-99261512D01*
X79450580Y-99276409D01*
X79450587Y-99276409D01*
X79453660Y-99276712D01*
X79556876Y-99276712D01*
X79559949Y-99276409D01*
X79559956Y-99276409D01*
X79638088Y-99268713D01*
X79711202Y-99261512D01*
X79717122Y-99259716D01*
X79717128Y-99259715D01*
X79893919Y-99206086D01*
X79909222Y-99201444D01*
X80091718Y-99103897D01*
X80251678Y-98972622D01*
X80382953Y-98812662D01*
X80480500Y-98630166D01*
X80506360Y-98544917D01*
X80538771Y-98438072D01*
X80538772Y-98438066D01*
X80540568Y-98432146D01*
X80560851Y-98226212D01*
X80560433Y-98221968D01*
X83601214Y-98221968D01*
X83605689Y-98237207D01*
X83607079Y-98238412D01*
X83614762Y-98240083D01*
X84687099Y-98240083D01*
X84702338Y-98235608D01*
X84703543Y-98234218D01*
X84705214Y-98226535D01*
X84705214Y-98221968D01*
X85213214Y-98221968D01*
X85217689Y-98237207D01*
X85219079Y-98238412D01*
X85226762Y-98240083D01*
X86299099Y-98240083D01*
X86314338Y-98235608D01*
X86315543Y-98234218D01*
X86317214Y-98226535D01*
X86317214Y-97598860D01*
X86316854Y-97592145D01*
X86311552Y-97542826D01*
X86307955Y-97527605D01*
X86262809Y-97406563D01*
X86254260Y-97390907D01*
X86225491Y-97352476D01*
X88310439Y-97352476D01*
X88330722Y-97558410D01*
X88332518Y-97564330D01*
X88332519Y-97564336D01*
X88362165Y-97662064D01*
X88390790Y-97756430D01*
X88488337Y-97938926D01*
X88619612Y-98098886D01*
X88779572Y-98230161D01*
X88962068Y-98327708D01*
X88980836Y-98333401D01*
X89154162Y-98385979D01*
X89154168Y-98385980D01*
X89160088Y-98387776D01*
X89233202Y-98394977D01*
X89311334Y-98402673D01*
X89311341Y-98402673D01*
X89314414Y-98402976D01*
X89417630Y-98402976D01*
X89420703Y-98402673D01*
X89420710Y-98402673D01*
X89498842Y-98394977D01*
X89571956Y-98387776D01*
X89577876Y-98385980D01*
X89577882Y-98385979D01*
X89751209Y-98333401D01*
X89787784Y-98327976D01*
X89835495Y-98327976D01*
X89983401Y-98312935D01*
X89990353Y-98310754D01*
X90013648Y-98303445D01*
X90172700Y-98253543D01*
X90346168Y-98157260D01*
X90353852Y-98150664D01*
X90409597Y-98102808D01*
X90496704Y-98028029D01*
X90514217Y-98005404D01*
X90614234Y-97876194D01*
X90614236Y-97876190D01*
X90618144Y-97871142D01*
X90705517Y-97693020D01*
X90719307Y-97639762D01*
X90753646Y-97507137D01*
X90753647Y-97507133D01*
X90755246Y-97500956D01*
X90755569Y-97494582D01*
X90755570Y-97494577D01*
X90758668Y-97433482D01*
X92236781Y-97433482D01*
X92266664Y-97755971D01*
X92267493Y-97759756D01*
X92308552Y-97947237D01*
X92335950Y-98072343D01*
X92337240Y-98076003D01*
X92337240Y-98076004D01*
X92431124Y-98342426D01*
X92443590Y-98377803D01*
X92445315Y-98381267D01*
X92445317Y-98381272D01*
X92473600Y-98438072D01*
X92587952Y-98667721D01*
X92644167Y-98752558D01*
X92764703Y-98934467D01*
X92764709Y-98934475D01*
X92766846Y-98937700D01*
X92769370Y-98940646D01*
X92958253Y-99161110D01*
X92977563Y-99183649D01*
X92980427Y-99186260D01*
X92980432Y-99186265D01*
X93064147Y-99262581D01*
X93216906Y-99401839D01*
X93481248Y-99588963D01*
X93484658Y-99590794D01*
X93484661Y-99590796D01*
X93763175Y-99740355D01*
X93763182Y-99740358D01*
X93766582Y-99742184D01*
X93925410Y-99803714D01*
X94012550Y-99837472D01*
X94068582Y-99859179D01*
X94151441Y-99880019D01*
X94378900Y-99937228D01*
X94378907Y-99937229D01*
X94382671Y-99938176D01*
X94704087Y-99977976D01*
X94946909Y-99977976D01*
X94960346Y-99977147D01*
X95185410Y-99963266D01*
X95185417Y-99963265D01*
X95189278Y-99963027D01*
X95507634Y-99903516D01*
X95816264Y-99805334D01*
X95941401Y-99747762D01*
X96106967Y-99671590D01*
X96106975Y-99671586D01*
X96110489Y-99669969D01*
X96162796Y-99637582D01*
X96382541Y-99501522D01*
X96382543Y-99501521D01*
X96385850Y-99499473D01*
X96424155Y-99468649D01*
X96635148Y-99298864D01*
X96635152Y-99298861D01*
X96638171Y-99296431D01*
X96863628Y-99063920D01*
X97058804Y-98805466D01*
X97074788Y-98777782D01*
X97140334Y-98664251D01*
X97220739Y-98524986D01*
X97262644Y-98425981D01*
X97345466Y-98230308D01*
X97345469Y-98230300D01*
X97346979Y-98226732D01*
X97435611Y-97915225D01*
X97449124Y-97828176D01*
X97484694Y-97599026D01*
X97485290Y-97595187D01*
X97485410Y-97591301D01*
X97491238Y-97402139D01*
X98966750Y-97402139D01*
X98967717Y-97408451D01*
X98967717Y-97408453D01*
X98985970Y-97527605D01*
X98996792Y-97598249D01*
X99065697Y-97784296D01*
X99170642Y-97952665D01*
X99307331Y-98096462D01*
X99312570Y-98100109D01*
X99312573Y-98100111D01*
X99398058Y-98159610D01*
X99470168Y-98209800D01*
X99652487Y-98288039D01*
X99658745Y-98289325D01*
X99658748Y-98289326D01*
X99744855Y-98307021D01*
X99846823Y-98327976D01*
X99944260Y-98327976D01*
X99980835Y-98333401D01*
X100154162Y-98385979D01*
X100154168Y-98385980D01*
X100160088Y-98387776D01*
X100233202Y-98394977D01*
X100311334Y-98402673D01*
X100311341Y-98402673D01*
X100314414Y-98402976D01*
X100417630Y-98402976D01*
X100420703Y-98402673D01*
X100420710Y-98402673D01*
X100498842Y-98394977D01*
X100571956Y-98387776D01*
X100577876Y-98385980D01*
X100577882Y-98385979D01*
X100751208Y-98333401D01*
X100769976Y-98327708D01*
X100952472Y-98230161D01*
X101112432Y-98098886D01*
X101243707Y-97938926D01*
X101341254Y-97756430D01*
X101369879Y-97662064D01*
X101399525Y-97564336D01*
X101399526Y-97564330D01*
X101401322Y-97558410D01*
X101421605Y-97352476D01*
X101401322Y-97146542D01*
X101399526Y-97140622D01*
X101399525Y-97140616D01*
X101343049Y-96954440D01*
X101341254Y-96948522D01*
X101301863Y-96874827D01*
X103072867Y-96874827D01*
X103073557Y-96881392D01*
X103089411Y-97032231D01*
X103092829Y-97064755D01*
X103151844Y-97246383D01*
X103155147Y-97252105D01*
X103155148Y-97252106D01*
X103171255Y-97280004D01*
X103247331Y-97411771D01*
X103251749Y-97416678D01*
X103251750Y-97416679D01*
X103270349Y-97437335D01*
X103375118Y-97553693D01*
X103529619Y-97665945D01*
X103535647Y-97668629D01*
X103535649Y-97668630D01*
X103603314Y-97698756D01*
X103704083Y-97743621D01*
X103779992Y-97759756D01*
X103884427Y-97781955D01*
X103884432Y-97781955D01*
X103890884Y-97783327D01*
X104081858Y-97783327D01*
X104088310Y-97781955D01*
X104088315Y-97781955D01*
X104192750Y-97759756D01*
X104268659Y-97743621D01*
X104369428Y-97698756D01*
X104437093Y-97668630D01*
X104437095Y-97668629D01*
X104443123Y-97665945D01*
X104597624Y-97553693D01*
X104702393Y-97437335D01*
X104720992Y-97416679D01*
X104720993Y-97416678D01*
X104725411Y-97411771D01*
X104801487Y-97280004D01*
X104817594Y-97252106D01*
X104817595Y-97252105D01*
X104820898Y-97246383D01*
X104879913Y-97064755D01*
X104883332Y-97032231D01*
X104899185Y-96881392D01*
X104899875Y-96874827D01*
X104886509Y-96747653D01*
X104880603Y-96691462D01*
X104880603Y-96691460D01*
X104879913Y-96684899D01*
X104820898Y-96503271D01*
X104816211Y-96495152D01*
X104728712Y-96343601D01*
X104725411Y-96337883D01*
X104708385Y-96318973D01*
X104602046Y-96200872D01*
X104602045Y-96200871D01*
X104597624Y-96195961D01*
X104443123Y-96083709D01*
X104437095Y-96081025D01*
X104437093Y-96081024D01*
X104274690Y-96008718D01*
X104274689Y-96008718D01*
X104268659Y-96006033D01*
X104175259Y-95986180D01*
X104088315Y-95967699D01*
X104088310Y-95967699D01*
X104081858Y-95966327D01*
X103890884Y-95966327D01*
X103884432Y-95967699D01*
X103884427Y-95967699D01*
X103797483Y-95986180D01*
X103704083Y-96006033D01*
X103698053Y-96008718D01*
X103698052Y-96008718D01*
X103535649Y-96081024D01*
X103535647Y-96081025D01*
X103529619Y-96083709D01*
X103375118Y-96195961D01*
X103370697Y-96200871D01*
X103370696Y-96200872D01*
X103264358Y-96318973D01*
X103247331Y-96337883D01*
X103244030Y-96343601D01*
X103156532Y-96495152D01*
X103151844Y-96503271D01*
X103092829Y-96684899D01*
X103092139Y-96691460D01*
X103092139Y-96691462D01*
X103086233Y-96747653D01*
X103072867Y-96874827D01*
X101301863Y-96874827D01*
X101243707Y-96766026D01*
X101112432Y-96606066D01*
X100952472Y-96474791D01*
X100769976Y-96377244D01*
X100720898Y-96362357D01*
X100577882Y-96318973D01*
X100577876Y-96318972D01*
X100571956Y-96317176D01*
X100498842Y-96309975D01*
X100420710Y-96302279D01*
X100420703Y-96302279D01*
X100417630Y-96301976D01*
X100314414Y-96301976D01*
X100311341Y-96302279D01*
X100311334Y-96302279D01*
X100233202Y-96309975D01*
X100160088Y-96317176D01*
X100154168Y-96318972D01*
X100154162Y-96318973D01*
X99980835Y-96371551D01*
X99944260Y-96376976D01*
X99896549Y-96376976D01*
X99748643Y-96392017D01*
X99559344Y-96451409D01*
X99385876Y-96547692D01*
X99235340Y-96676923D01*
X99231431Y-96681973D01*
X99231430Y-96681974D01*
X99117810Y-96828758D01*
X99117808Y-96828762D01*
X99113900Y-96833810D01*
X99026527Y-97011932D01*
X99024926Y-97018114D01*
X99024926Y-97018115D01*
X98980186Y-97190912D01*
X98976798Y-97203996D01*
X98976475Y-97210370D01*
X98976474Y-97210375D01*
X98972518Y-97288390D01*
X98966750Y-97402139D01*
X97491238Y-97402139D01*
X97495144Y-97275344D01*
X97495144Y-97275338D01*
X97495263Y-97271470D01*
X97465380Y-96948981D01*
X97429685Y-96785991D01*
X97396924Y-96636398D01*
X97396923Y-96636395D01*
X97396094Y-96632609D01*
X97385359Y-96602144D01*
X97289744Y-96330809D01*
X97289742Y-96330805D01*
X97288454Y-96327149D01*
X97276071Y-96302279D01*
X97145820Y-96040701D01*
X97145819Y-96040699D01*
X97144092Y-96037231D01*
X96976292Y-95783994D01*
X96967341Y-95770485D01*
X96967335Y-95770477D01*
X96965198Y-95767252D01*
X96842819Y-95624411D01*
X96757008Y-95524252D01*
X96757004Y-95524248D01*
X96754481Y-95521303D01*
X96751617Y-95518692D01*
X96751612Y-95518687D01*
X96572562Y-95355462D01*
X96515138Y-95303113D01*
X96250796Y-95115989D01*
X96247383Y-95114156D01*
X95968869Y-94964597D01*
X95968862Y-94964594D01*
X95965462Y-94962768D01*
X95663462Y-94845773D01*
X95487180Y-94801436D01*
X95353144Y-94767724D01*
X95353137Y-94767723D01*
X95349373Y-94766776D01*
X95027957Y-94726976D01*
X94785135Y-94726976D01*
X94771698Y-94727805D01*
X94546634Y-94741686D01*
X94546627Y-94741687D01*
X94542766Y-94741925D01*
X94224410Y-94801436D01*
X93915780Y-94899618D01*
X93912258Y-94901238D01*
X93912259Y-94901238D01*
X93625077Y-95033362D01*
X93625069Y-95033366D01*
X93621555Y-95034983D01*
X93618254Y-95037027D01*
X93618252Y-95037028D01*
X93463543Y-95132820D01*
X93346194Y-95205479D01*
X93343163Y-95207918D01*
X93159810Y-95355462D01*
X93093873Y-95408521D01*
X92868416Y-95641032D01*
X92673240Y-95899486D01*
X92511305Y-96179966D01*
X92506007Y-96192484D01*
X92386578Y-96474644D01*
X92386575Y-96474652D01*
X92385065Y-96478220D01*
X92296433Y-96789727D01*
X92295838Y-96793561D01*
X92295837Y-96793565D01*
X92290374Y-96828758D01*
X92246754Y-97109765D01*
X92246634Y-97113646D01*
X92246634Y-97113651D01*
X92237299Y-97416679D01*
X92236781Y-97433482D01*
X90758668Y-97433482D01*
X90762746Y-97353053D01*
X90765294Y-97302813D01*
X90759903Y-97267617D01*
X90736219Y-97113015D01*
X90736219Y-97113014D01*
X90735252Y-97106703D01*
X90666347Y-96920656D01*
X90561402Y-96752287D01*
X90424713Y-96608490D01*
X90419474Y-96604843D01*
X90419471Y-96604841D01*
X90267123Y-96498804D01*
X90261876Y-96495152D01*
X90079557Y-96416913D01*
X90073299Y-96415627D01*
X90073296Y-96415626D01*
X89982389Y-96396944D01*
X89885221Y-96376976D01*
X89787784Y-96376976D01*
X89751209Y-96371551D01*
X89577882Y-96318973D01*
X89577876Y-96318972D01*
X89571956Y-96317176D01*
X89498842Y-96309975D01*
X89420710Y-96302279D01*
X89420703Y-96302279D01*
X89417630Y-96301976D01*
X89314414Y-96301976D01*
X89311341Y-96302279D01*
X89311334Y-96302279D01*
X89233202Y-96309975D01*
X89160088Y-96317176D01*
X89154168Y-96318972D01*
X89154162Y-96318973D01*
X89011146Y-96362357D01*
X88962068Y-96377244D01*
X88779572Y-96474791D01*
X88619612Y-96606066D01*
X88488337Y-96766026D01*
X88390790Y-96948522D01*
X88388995Y-96954440D01*
X88332519Y-97140616D01*
X88332518Y-97140622D01*
X88330722Y-97146542D01*
X88310439Y-97352476D01*
X86225491Y-97352476D01*
X86177516Y-97288390D01*
X86164907Y-97275781D01*
X86062390Y-97199037D01*
X86046734Y-97190488D01*
X85925692Y-97145342D01*
X85910471Y-97141745D01*
X85861152Y-97136443D01*
X85854437Y-97136083D01*
X85231329Y-97136083D01*
X85216090Y-97140558D01*
X85214885Y-97141948D01*
X85213214Y-97149631D01*
X85213214Y-98221968D01*
X84705214Y-98221968D01*
X84705214Y-97154198D01*
X84700739Y-97138959D01*
X84699349Y-97137754D01*
X84691666Y-97136083D01*
X84063991Y-97136083D01*
X84057276Y-97136443D01*
X84007957Y-97141745D01*
X83992736Y-97145342D01*
X83871694Y-97190488D01*
X83856038Y-97199037D01*
X83753521Y-97275781D01*
X83740912Y-97288390D01*
X83664168Y-97390907D01*
X83655619Y-97406563D01*
X83610473Y-97527605D01*
X83606876Y-97542826D01*
X83601574Y-97592145D01*
X83601214Y-97598860D01*
X83601214Y-98221968D01*
X80560433Y-98221968D01*
X80540568Y-98020278D01*
X80538772Y-98014358D01*
X80538771Y-98014352D01*
X80482295Y-97828176D01*
X80480500Y-97822258D01*
X80382953Y-97639762D01*
X80251678Y-97479802D01*
X80091718Y-97348527D01*
X79909222Y-97250980D01*
X79860144Y-97236093D01*
X79717128Y-97192709D01*
X79717122Y-97192708D01*
X79711202Y-97190912D01*
X79638088Y-97183711D01*
X79559956Y-97176015D01*
X79559949Y-97176015D01*
X79556876Y-97175712D01*
X79453660Y-97175712D01*
X79450587Y-97176015D01*
X79450580Y-97176015D01*
X79372448Y-97183711D01*
X79299334Y-97190912D01*
X79293414Y-97192708D01*
X79293408Y-97192709D01*
X79189868Y-97224118D01*
X79101314Y-97250980D01*
X79095859Y-97253896D01*
X79095852Y-97253899D01*
X78969247Y-97321572D01*
X78922595Y-97335805D01*
X78915587Y-97336517D01*
X78900627Y-97338038D01*
X78900622Y-97338039D01*
X78894269Y-97338685D01*
X78704970Y-97398077D01*
X78531502Y-97494360D01*
X78526657Y-97498519D01*
X78526656Y-97498520D01*
X78497067Y-97523921D01*
X78380966Y-97623591D01*
X78377057Y-97628641D01*
X78377056Y-97628642D01*
X78263436Y-97775426D01*
X78263434Y-97775430D01*
X78259526Y-97780478D01*
X78172153Y-97958600D01*
X78170552Y-97964782D01*
X78170552Y-97964783D01*
X78137068Y-98094107D01*
X78122424Y-98150664D01*
X78122101Y-98157038D01*
X78122100Y-98157043D01*
X78118385Y-98230308D01*
X78112376Y-98348807D01*
X76579217Y-98348807D01*
X76512547Y-98159610D01*
X76512545Y-98159606D01*
X76511257Y-98155950D01*
X76484796Y-98102808D01*
X76368623Y-97869502D01*
X76368622Y-97869500D01*
X76366895Y-97866032D01*
X76256054Y-97698756D01*
X76190144Y-97599286D01*
X76190138Y-97599278D01*
X76188001Y-97596053D01*
X76151709Y-97553693D01*
X75979811Y-97353053D01*
X75979807Y-97353049D01*
X75977284Y-97350104D01*
X75974420Y-97347493D01*
X75974415Y-97347488D01*
X75760750Y-97152707D01*
X75737941Y-97131914D01*
X75473599Y-96944790D01*
X75470186Y-96942957D01*
X75191672Y-96793398D01*
X75191665Y-96793395D01*
X75188265Y-96791569D01*
X74896712Y-96678621D01*
X74889887Y-96675977D01*
X74889885Y-96675976D01*
X74886265Y-96674574D01*
X74709983Y-96630237D01*
X74575947Y-96596525D01*
X74575940Y-96596524D01*
X74572176Y-96595577D01*
X74250760Y-96555777D01*
X74007938Y-96555777D01*
X73994501Y-96556606D01*
X73769437Y-96570487D01*
X73769430Y-96570488D01*
X73765569Y-96570726D01*
X73447213Y-96630237D01*
X73138583Y-96728419D01*
X73135061Y-96730039D01*
X73135062Y-96730039D01*
X72847880Y-96862163D01*
X72847872Y-96862167D01*
X72844358Y-96863784D01*
X72841057Y-96865828D01*
X72841055Y-96865829D01*
X72713529Y-96944790D01*
X72568997Y-97034280D01*
X72565966Y-97036719D01*
X72364253Y-97199037D01*
X72316676Y-97237322D01*
X72091219Y-97469833D01*
X72088884Y-97472925D01*
X72083691Y-97479802D01*
X71896043Y-97728287D01*
X71894102Y-97731649D01*
X71894100Y-97731652D01*
X71844938Y-97816803D01*
X71734108Y-98008767D01*
X71725955Y-98028029D01*
X71609381Y-98303445D01*
X71609378Y-98303453D01*
X71607868Y-98307021D01*
X71519236Y-98618528D01*
X71518641Y-98622362D01*
X71518640Y-98622366D01*
X71489347Y-98811079D01*
X71469557Y-98938566D01*
X71469437Y-98942447D01*
X71469437Y-98942452D01*
X71459786Y-99255741D01*
X71459584Y-99262283D01*
X69642597Y-99262283D01*
X69567103Y-99209738D01*
X69561856Y-99206086D01*
X69379537Y-99127847D01*
X69373279Y-99126561D01*
X69373276Y-99126560D01*
X69266620Y-99104642D01*
X69185201Y-99087910D01*
X69036529Y-99087910D01*
X68904889Y-99101297D01*
X68878415Y-99100041D01*
X68878316Y-99101042D01*
X68727070Y-99086145D01*
X68727063Y-99086145D01*
X68723990Y-99085842D01*
X68620774Y-99085842D01*
X68617701Y-99086145D01*
X68617694Y-99086145D01*
X68539562Y-99093841D01*
X68466448Y-99101042D01*
X68460528Y-99102838D01*
X68460522Y-99102839D01*
X68317506Y-99146223D01*
X68268428Y-99161110D01*
X68085932Y-99258657D01*
X67925972Y-99389932D01*
X67794697Y-99549892D01*
X67697150Y-99732388D01*
X67682263Y-99781466D01*
X67638879Y-99924482D01*
X67638878Y-99924488D01*
X67637082Y-99930408D01*
X67616799Y-100136342D01*
X65989775Y-100136342D01*
X65470689Y-97280004D01*
X65470689Y-97280003D01*
X64829796Y-93753350D01*
X66942207Y-93753350D01*
X66942897Y-93759915D01*
X66961199Y-93934045D01*
X66962169Y-93943278D01*
X67021184Y-94124906D01*
X67024487Y-94130628D01*
X67024488Y-94130629D01*
X67042854Y-94162439D01*
X67116671Y-94290294D01*
X67121089Y-94295201D01*
X67121090Y-94295202D01*
X67228737Y-94414756D01*
X67244458Y-94432216D01*
X67281481Y-94459115D01*
X67380092Y-94530760D01*
X67398959Y-94544468D01*
X67404989Y-94547153D01*
X67410712Y-94550457D01*
X67409297Y-94552908D01*
X67453912Y-94590830D01*
X67474562Y-94658757D01*
X67460331Y-94718137D01*
X67405901Y-94822696D01*
X67400785Y-94845773D01*
X67374443Y-94964597D01*
X67371679Y-94977063D01*
X67372039Y-94985310D01*
X67372039Y-94985311D01*
X67373207Y-95012065D01*
X67378576Y-95135027D01*
X67381057Y-95142897D01*
X67381058Y-95142901D01*
X67400143Y-95203430D01*
X67426121Y-95285824D01*
X67438800Y-95305726D01*
X67506640Y-95412214D01*
X67506643Y-95412217D01*
X67511076Y-95419176D01*
X67517161Y-95424752D01*
X67621561Y-95520418D01*
X67621564Y-95520420D01*
X67627650Y-95525997D01*
X67767900Y-95599007D01*
X67827922Y-95612313D01*
X67914205Y-95631442D01*
X67914207Y-95631442D01*
X67922267Y-95633229D01*
X67930515Y-95632869D01*
X67930516Y-95632869D01*
X68036452Y-95628244D01*
X68036456Y-95628244D01*
X68040568Y-95628064D01*
X68398156Y-95565012D01*
X68468715Y-95572881D01*
X68523818Y-95617649D01*
X68545972Y-95685100D01*
X68529155Y-95752096D01*
X68517673Y-95771984D01*
X68514368Y-95777709D01*
X68455353Y-95959337D01*
X68435391Y-96149265D01*
X68436081Y-96155830D01*
X68453723Y-96323680D01*
X68455353Y-96339193D01*
X68514368Y-96520821D01*
X68609855Y-96686209D01*
X68614273Y-96691116D01*
X68614274Y-96691117D01*
X68704721Y-96791569D01*
X68737642Y-96828131D01*
X68892143Y-96940383D01*
X68898171Y-96943067D01*
X68898173Y-96943068D01*
X69039962Y-97006196D01*
X69066607Y-97018059D01*
X69154395Y-97036719D01*
X69246951Y-97056393D01*
X69246956Y-97056393D01*
X69253408Y-97057765D01*
X69444382Y-97057765D01*
X69450834Y-97056393D01*
X69450839Y-97056393D01*
X69543395Y-97036719D01*
X69631183Y-97018059D01*
X69657828Y-97006196D01*
X69799617Y-96943068D01*
X69799619Y-96943067D01*
X69805647Y-96940383D01*
X69960148Y-96828131D01*
X69993069Y-96791569D01*
X70083516Y-96691117D01*
X70083517Y-96691116D01*
X70087935Y-96686209D01*
X70183422Y-96520821D01*
X70242437Y-96339193D01*
X70244068Y-96323680D01*
X70261709Y-96155830D01*
X70262399Y-96149265D01*
X70242437Y-95959337D01*
X70183422Y-95777709D01*
X70087935Y-95612321D01*
X70026701Y-95544313D01*
X69964570Y-95475310D01*
X69964569Y-95475309D01*
X69960148Y-95470399D01*
X69805647Y-95358147D01*
X69799619Y-95355463D01*
X69799617Y-95355462D01*
X69637214Y-95283156D01*
X69637213Y-95283156D01*
X69631183Y-95280471D01*
X69537783Y-95260618D01*
X69450839Y-95242137D01*
X69450834Y-95242137D01*
X69444382Y-95240765D01*
X69268156Y-95240765D01*
X69200035Y-95220763D01*
X69153542Y-95167107D01*
X69143438Y-95096833D01*
X69145143Y-95087493D01*
X69167530Y-94986513D01*
X69169317Y-94978453D01*
X69162420Y-94820489D01*
X69159939Y-94812619D01*
X69159938Y-94812615D01*
X69117357Y-94677565D01*
X69114875Y-94669692D01*
X69029920Y-94536340D01*
X68971632Y-94482929D01*
X68919435Y-94435099D01*
X68919433Y-94435098D01*
X68913345Y-94429519D01*
X68906021Y-94425706D01*
X68906019Y-94425705D01*
X68780423Y-94360323D01*
X68780421Y-94360322D01*
X68773096Y-94356509D01*
X68748864Y-94351137D01*
X68686688Y-94316864D01*
X68652911Y-94254417D01*
X68658258Y-94183622D01*
X68667018Y-94165124D01*
X68686934Y-94130629D01*
X68686935Y-94130628D01*
X68690238Y-94124906D01*
X68749253Y-93943278D01*
X68750224Y-93934045D01*
X68768525Y-93759915D01*
X68769215Y-93753350D01*
X68762334Y-93687884D01*
X68749943Y-93569985D01*
X68749943Y-93569983D01*
X68749253Y-93563422D01*
X68690238Y-93381794D01*
X68675366Y-93356034D01*
X68616418Y-93253934D01*
X68594751Y-93216406D01*
X68585373Y-93205990D01*
X68471386Y-93079395D01*
X68471385Y-93079394D01*
X68466964Y-93074484D01*
X68410006Y-93033101D01*
X70973365Y-93033101D01*
X70977389Y-93055921D01*
X70977389Y-93055922D01*
X71511675Y-96086003D01*
X71511675Y-96086005D01*
X71527569Y-96176140D01*
X71535858Y-96187669D01*
X71537888Y-96192484D01*
X71541534Y-96198986D01*
X71544582Y-96203225D01*
X71550096Y-96216307D01*
X71560741Y-96225701D01*
X71563791Y-96229943D01*
X71568789Y-96235467D01*
X71572711Y-96238928D01*
X71580997Y-96250453D01*
X71593465Y-96257243D01*
X71597372Y-96260691D01*
X71603497Y-96264980D01*
X71608077Y-96267474D01*
X71618721Y-96276867D01*
X71632385Y-96280711D01*
X71636969Y-96283208D01*
X71643886Y-96286022D01*
X71648904Y-96287434D01*
X71661376Y-96294226D01*
X71675557Y-96294934D01*
X71680587Y-96296349D01*
X71687943Y-96297552D01*
X71693161Y-96297812D01*
X71706825Y-96301657D01*
X71720804Y-96299192D01*
X71729645Y-96297633D01*
X71729646Y-96297633D01*
X75252128Y-95676524D01*
X75252133Y-95676523D01*
X75328291Y-95663094D01*
X75328292Y-95663093D01*
X75342268Y-95660629D01*
X75353793Y-95652343D01*
X75358597Y-95650318D01*
X75365120Y-95646660D01*
X75369354Y-95643616D01*
X75382434Y-95638102D01*
X75391829Y-95627457D01*
X75396065Y-95624411D01*
X75401603Y-95619400D01*
X75405055Y-95615488D01*
X75416581Y-95607201D01*
X75423371Y-95594732D01*
X75426826Y-95590817D01*
X75431103Y-95584709D01*
X75433602Y-95580121D01*
X75442995Y-95569477D01*
X75446840Y-95555814D01*
X75449338Y-95551226D01*
X75452151Y-95544313D01*
X75453564Y-95539291D01*
X75460354Y-95526822D01*
X75461062Y-95512640D01*
X75462475Y-95507616D01*
X75463678Y-95500258D01*
X75463939Y-95495040D01*
X75467784Y-95481373D01*
X75463761Y-95458556D01*
X75463761Y-95458552D01*
X75246222Y-94224828D01*
X77082866Y-94224828D01*
X77083556Y-94231393D01*
X77090263Y-94295202D01*
X77102828Y-94414756D01*
X77161843Y-94596384D01*
X77257330Y-94761772D01*
X77261748Y-94766679D01*
X77261749Y-94766680D01*
X77303109Y-94812615D01*
X77385117Y-94903694D01*
X77475004Y-94969001D01*
X77488014Y-94978453D01*
X77539618Y-95015946D01*
X77545646Y-95018630D01*
X77545648Y-95018631D01*
X77586969Y-95037028D01*
X77714082Y-95093622D01*
X77807482Y-95113475D01*
X77894426Y-95131956D01*
X77894431Y-95131956D01*
X77900883Y-95133328D01*
X78091857Y-95133328D01*
X78098309Y-95131956D01*
X78098314Y-95131956D01*
X78185258Y-95113475D01*
X78278658Y-95093622D01*
X78405771Y-95037028D01*
X78447092Y-95018631D01*
X78447094Y-95018630D01*
X78453122Y-95015946D01*
X78504727Y-94978453D01*
X78517736Y-94969001D01*
X78607623Y-94903694D01*
X78689631Y-94812615D01*
X78730991Y-94766680D01*
X78730992Y-94766679D01*
X78735410Y-94761772D01*
X78830897Y-94596384D01*
X78889912Y-94414756D01*
X78902478Y-94295202D01*
X78909184Y-94231393D01*
X78909874Y-94224828D01*
X78902055Y-94150431D01*
X78890602Y-94041463D01*
X78890602Y-94041461D01*
X78889912Y-94034900D01*
X78830897Y-93853272D01*
X78735410Y-93687884D01*
X78629254Y-93569985D01*
X78612045Y-93550873D01*
X78612044Y-93550872D01*
X78607623Y-93545962D01*
X78453122Y-93433710D01*
X78447094Y-93431026D01*
X78447092Y-93431025D01*
X78284689Y-93358719D01*
X78284688Y-93358719D01*
X78278658Y-93356034D01*
X78185257Y-93336181D01*
X78098314Y-93317700D01*
X78098309Y-93317700D01*
X78091857Y-93316328D01*
X77900883Y-93316328D01*
X77894431Y-93317700D01*
X77894426Y-93317700D01*
X77807483Y-93336181D01*
X77714082Y-93356034D01*
X77708052Y-93358719D01*
X77708051Y-93358719D01*
X77545648Y-93431025D01*
X77545646Y-93431026D01*
X77539618Y-93433710D01*
X77385117Y-93545962D01*
X77380696Y-93550872D01*
X77380695Y-93550873D01*
X77363487Y-93569985D01*
X77257330Y-93687884D01*
X77161843Y-93853272D01*
X77102828Y-94034900D01*
X77102138Y-94041461D01*
X77102138Y-94041463D01*
X77090685Y-94150431D01*
X77082866Y-94224828D01*
X75246222Y-94224828D01*
X74917605Y-92361155D01*
X74913581Y-92338334D01*
X74905294Y-92326808D01*
X74903264Y-92321992D01*
X74899616Y-92315488D01*
X74896568Y-92311249D01*
X74891054Y-92298167D01*
X74880409Y-92288773D01*
X74877359Y-92284531D01*
X74872361Y-92279007D01*
X74868439Y-92275546D01*
X74860153Y-92264021D01*
X74847685Y-92257231D01*
X74843778Y-92253783D01*
X74837653Y-92249494D01*
X74833073Y-92247000D01*
X74822429Y-92237607D01*
X74808765Y-92233763D01*
X74804181Y-92231266D01*
X74797264Y-92228452D01*
X74792246Y-92227040D01*
X74779774Y-92220248D01*
X74765593Y-92219540D01*
X74760563Y-92218125D01*
X74753207Y-92216922D01*
X74747989Y-92216662D01*
X74734325Y-92212817D01*
X74720346Y-92215282D01*
X74711505Y-92216841D01*
X74711504Y-92216841D01*
X71189022Y-92837950D01*
X71189017Y-92837951D01*
X71098882Y-92853845D01*
X71087353Y-92862134D01*
X71082538Y-92864164D01*
X71076036Y-92867810D01*
X71071797Y-92870858D01*
X71058715Y-92876372D01*
X71049321Y-92887017D01*
X71045079Y-92890067D01*
X71039555Y-92895065D01*
X71036094Y-92898987D01*
X71024569Y-92907273D01*
X71017779Y-92919741D01*
X71014331Y-92923648D01*
X71010042Y-92929773D01*
X71007548Y-92934353D01*
X70998155Y-92944997D01*
X70994311Y-92958661D01*
X70991814Y-92963245D01*
X70989000Y-92970162D01*
X70987588Y-92975180D01*
X70980796Y-92987652D01*
X70980088Y-93001833D01*
X70978673Y-93006863D01*
X70977470Y-93014219D01*
X70977210Y-93019437D01*
X70973365Y-93033101D01*
X68410006Y-93033101D01*
X68352268Y-92991152D01*
X68317805Y-92966113D01*
X68317804Y-92966112D01*
X68312463Y-92962232D01*
X68306435Y-92959548D01*
X68306433Y-92959547D01*
X68144030Y-92887241D01*
X68144029Y-92887241D01*
X68137999Y-92884556D01*
X68042063Y-92864164D01*
X67957655Y-92846222D01*
X67957650Y-92846222D01*
X67951198Y-92844850D01*
X67760224Y-92844850D01*
X67753772Y-92846222D01*
X67753767Y-92846222D01*
X67669359Y-92864164D01*
X67573423Y-92884556D01*
X67567393Y-92887241D01*
X67567392Y-92887241D01*
X67404989Y-92959547D01*
X67404987Y-92959548D01*
X67398959Y-92962232D01*
X67393618Y-92966112D01*
X67393617Y-92966113D01*
X67359154Y-92991152D01*
X67244458Y-93074484D01*
X67240037Y-93079394D01*
X67240036Y-93079395D01*
X67126050Y-93205990D01*
X67116671Y-93216406D01*
X67095004Y-93253934D01*
X67036057Y-93356034D01*
X67021184Y-93381794D01*
X66962169Y-93563422D01*
X66961479Y-93569983D01*
X66961479Y-93569985D01*
X66949088Y-93687884D01*
X66942207Y-93753350D01*
X64829796Y-93753350D01*
X64780068Y-93479712D01*
X64782829Y-93479210D01*
X64782825Y-93479196D01*
X64780071Y-93479697D01*
X64780071Y-93479696D01*
X64774040Y-93446537D01*
X64772428Y-93434285D01*
X64761151Y-93296621D01*
X64761557Y-93271921D01*
X64776646Y-93140876D01*
X64781865Y-93116727D01*
X64822234Y-92991152D01*
X64832063Y-92968489D01*
X64896162Y-92853195D01*
X64910227Y-92832882D01*
X64995583Y-92732323D01*
X65013338Y-92715148D01*
X65116687Y-92633166D01*
X65137454Y-92619784D01*
X65254802Y-92559550D01*
X65277776Y-92550479D01*
X65410384Y-92512657D01*
X65422428Y-92509853D01*
X65455811Y-92503791D01*
X65456655Y-92508439D01*
X65456667Y-92508437D01*
X65455821Y-92503784D01*
X74419392Y-90874828D01*
X87632867Y-90874828D01*
X87652829Y-91064756D01*
X87711844Y-91246384D01*
X87715147Y-91252106D01*
X87715148Y-91252107D01*
X87749057Y-91310838D01*
X87807331Y-91411772D01*
X87935118Y-91553694D01*
X88089619Y-91665946D01*
X88095647Y-91668630D01*
X88095649Y-91668631D01*
X88208969Y-91719084D01*
X88264083Y-91743622D01*
X88343356Y-91760472D01*
X88444427Y-91781956D01*
X88444432Y-91781956D01*
X88450884Y-91783328D01*
X88641858Y-91783328D01*
X88648310Y-91781956D01*
X88648315Y-91781956D01*
X88749386Y-91760472D01*
X88828659Y-91743622D01*
X88834686Y-91740939D01*
X88834694Y-91740936D01*
X88883774Y-91719084D01*
X88954141Y-91709650D01*
X89018438Y-91739757D01*
X89056251Y-91799846D01*
X89055575Y-91870839D01*
X89045156Y-91894852D01*
X89041486Y-91899635D01*
X89038328Y-91907260D01*
X89038327Y-91907261D01*
X89012121Y-91970529D01*
X88980978Y-92045714D01*
X88960340Y-92202476D01*
X88980978Y-92359238D01*
X89041486Y-92505317D01*
X89137740Y-92630758D01*
X89263181Y-92727012D01*
X89409260Y-92787520D01*
X89526661Y-92802976D01*
X90191970Y-92802976D01*
X90260091Y-92822978D01*
X90306584Y-92876634D01*
X90316688Y-92946908D01*
X90287194Y-93011488D01*
X90266031Y-93030912D01*
X90162277Y-93106294D01*
X90034490Y-93248216D01*
X89994373Y-93317700D01*
X89957369Y-93381794D01*
X89939003Y-93413604D01*
X89879988Y-93595232D01*
X89860026Y-93785160D01*
X89860716Y-93791725D01*
X89879047Y-93966132D01*
X89879988Y-93975088D01*
X89939003Y-94156716D01*
X90034490Y-94322104D01*
X90038908Y-94327011D01*
X90038909Y-94327012D01*
X90112005Y-94408193D01*
X90162277Y-94464026D01*
X90254128Y-94530760D01*
X90281239Y-94550457D01*
X90316778Y-94576278D01*
X90322806Y-94578962D01*
X90322808Y-94578963D01*
X90374791Y-94602107D01*
X90491242Y-94653954D01*
X90584642Y-94673807D01*
X90671586Y-94692288D01*
X90671591Y-94692288D01*
X90678043Y-94693660D01*
X90869017Y-94693660D01*
X90875469Y-94692288D01*
X90875474Y-94692288D01*
X90962418Y-94673807D01*
X91055818Y-94653954D01*
X91172269Y-94602107D01*
X91224252Y-94578963D01*
X91224254Y-94578962D01*
X91230282Y-94576278D01*
X91265822Y-94550457D01*
X91292932Y-94530760D01*
X91384783Y-94464026D01*
X91435055Y-94408193D01*
X91508151Y-94327012D01*
X91508152Y-94327011D01*
X91512570Y-94322104D01*
X91608057Y-94156716D01*
X91667072Y-93975088D01*
X91668014Y-93966132D01*
X91669894Y-93948244D01*
X92865515Y-93948244D01*
X92871676Y-93961036D01*
X92872839Y-93966132D01*
X92875299Y-93973162D01*
X92877566Y-93977869D01*
X92880725Y-93991712D01*
X92889577Y-94002812D01*
X92891843Y-94007517D01*
X92895810Y-94013831D01*
X92899069Y-94017917D01*
X92905227Y-94030705D01*
X92916324Y-94039555D01*
X92919572Y-94043628D01*
X92924868Y-94048924D01*
X92928941Y-94052172D01*
X92937791Y-94063269D01*
X92950579Y-94069427D01*
X92954665Y-94072686D01*
X92960979Y-94076653D01*
X92965684Y-94078919D01*
X92976784Y-94087771D01*
X92990627Y-94090930D01*
X92995334Y-94093197D01*
X93002364Y-94095657D01*
X93007460Y-94096820D01*
X93020252Y-94102981D01*
X96711778Y-94102981D01*
X96724570Y-94096820D01*
X96729666Y-94095657D01*
X96736696Y-94093197D01*
X96741403Y-94090930D01*
X96755246Y-94087771D01*
X96766346Y-94078919D01*
X96771051Y-94076653D01*
X96777365Y-94072686D01*
X96781451Y-94069427D01*
X96794239Y-94063269D01*
X96803089Y-94052172D01*
X96807162Y-94048924D01*
X96812458Y-94043628D01*
X96815706Y-94039555D01*
X96826803Y-94030705D01*
X96832961Y-94017917D01*
X96836220Y-94013831D01*
X96840187Y-94007517D01*
X96842453Y-94002812D01*
X96851305Y-93991712D01*
X96854464Y-93977869D01*
X96856731Y-93973162D01*
X96859191Y-93966132D01*
X96860354Y-93961036D01*
X96866515Y-93948244D01*
X96866515Y-90756718D01*
X96860354Y-90743926D01*
X96859191Y-90738830D01*
X96856731Y-90731800D01*
X96854464Y-90727093D01*
X96851305Y-90713250D01*
X96842453Y-90702150D01*
X96840187Y-90697445D01*
X96836220Y-90691131D01*
X96832961Y-90687045D01*
X96826803Y-90674257D01*
X96815706Y-90665407D01*
X96812458Y-90661334D01*
X96807162Y-90656038D01*
X96803089Y-90652790D01*
X96794239Y-90641693D01*
X96781451Y-90635535D01*
X96777365Y-90632276D01*
X96771051Y-90628309D01*
X96766346Y-90626043D01*
X96755246Y-90617191D01*
X96741403Y-90614032D01*
X96736696Y-90611765D01*
X96729666Y-90609305D01*
X96724570Y-90608142D01*
X96711778Y-90601981D01*
X93020252Y-90601981D01*
X93007460Y-90608142D01*
X93002364Y-90609305D01*
X92995334Y-90611765D01*
X92990627Y-90614032D01*
X92976784Y-90617191D01*
X92965684Y-90626043D01*
X92960979Y-90628309D01*
X92954665Y-90632276D01*
X92950579Y-90635535D01*
X92937791Y-90641693D01*
X92928941Y-90652790D01*
X92924868Y-90656038D01*
X92919572Y-90661334D01*
X92916324Y-90665407D01*
X92905227Y-90674257D01*
X92899069Y-90687045D01*
X92895810Y-90691131D01*
X92891843Y-90697445D01*
X92889577Y-90702150D01*
X92880725Y-90713250D01*
X92877566Y-90727093D01*
X92875299Y-90731800D01*
X92872839Y-90738830D01*
X92871676Y-90743926D01*
X92865515Y-90756718D01*
X92865515Y-93948244D01*
X91669894Y-93948244D01*
X91686344Y-93791725D01*
X91687034Y-93785160D01*
X91667072Y-93595232D01*
X91608057Y-93413604D01*
X91589692Y-93381794D01*
X91552687Y-93317700D01*
X91512570Y-93248216D01*
X91384783Y-93106294D01*
X91230282Y-92994042D01*
X91224254Y-92991358D01*
X91224252Y-92991357D01*
X91061849Y-92919051D01*
X91061848Y-92919051D01*
X91055818Y-92916366D01*
X90955605Y-92895065D01*
X90875474Y-92878032D01*
X90875469Y-92878032D01*
X90869017Y-92876660D01*
X90678043Y-92876660D01*
X90671587Y-92878032D01*
X90671580Y-92878033D01*
X90663644Y-92879720D01*
X90592854Y-92874319D01*
X90536220Y-92831503D01*
X90511726Y-92764866D01*
X90527146Y-92695564D01*
X90560742Y-92656511D01*
X90587758Y-92635781D01*
X90594304Y-92630758D01*
X90690558Y-92505317D01*
X90751066Y-92359238D01*
X90771704Y-92202476D01*
X90751066Y-92045714D01*
X90690558Y-91899635D01*
X90594304Y-91774194D01*
X90468863Y-91677940D01*
X90322784Y-91617432D01*
X90205383Y-91601976D01*
X89526661Y-91601976D01*
X89409260Y-91617432D01*
X89408216Y-91617864D01*
X89340542Y-91616253D01*
X89281746Y-91576458D01*
X89253799Y-91511194D01*
X89265573Y-91441180D01*
X89278038Y-91422693D01*
X89277112Y-91422020D01*
X89280991Y-91416680D01*
X89285411Y-91411772D01*
X89343685Y-91310838D01*
X89377594Y-91252107D01*
X89377595Y-91252106D01*
X89380898Y-91246384D01*
X89439913Y-91064756D01*
X89459875Y-90874828D01*
X89441232Y-90697445D01*
X89440603Y-90691463D01*
X89440603Y-90691461D01*
X89439913Y-90684900D01*
X89380898Y-90503272D01*
X89285411Y-90337884D01*
X89157624Y-90195962D01*
X89003123Y-90083710D01*
X88997095Y-90081026D01*
X88997093Y-90081025D01*
X88834690Y-90008719D01*
X88834689Y-90008719D01*
X88828659Y-90006034D01*
X88729524Y-89984962D01*
X88648315Y-89967700D01*
X88648310Y-89967700D01*
X88641858Y-89966328D01*
X88450884Y-89966328D01*
X88444432Y-89967700D01*
X88444427Y-89967700D01*
X88363218Y-89984962D01*
X88264083Y-90006034D01*
X88258053Y-90008719D01*
X88258052Y-90008719D01*
X88095649Y-90081025D01*
X88095647Y-90081026D01*
X88089619Y-90083710D01*
X87935118Y-90195962D01*
X87807331Y-90337884D01*
X87711844Y-90503272D01*
X87652829Y-90684900D01*
X87652139Y-90691461D01*
X87652139Y-90691463D01*
X87651510Y-90697445D01*
X87632867Y-90874828D01*
X74419392Y-90874828D01*
X80716903Y-89730377D01*
X80720005Y-89729813D01*
X80721815Y-89729498D01*
X80742738Y-89726020D01*
X80746379Y-89725470D01*
X80761234Y-89723456D01*
X80766444Y-89722750D01*
X80770188Y-89722300D01*
X80791595Y-89720049D01*
X80793470Y-89719866D01*
X80816759Y-89717768D01*
X80831844Y-89716410D01*
X80831851Y-89716406D01*
X80831853Y-89716406D01*
X84890188Y-89350638D01*
X86435460Y-89211366D01*
X86437339Y-89211211D01*
X86458393Y-89209632D01*
X86462153Y-89209406D01*
X86482337Y-89208498D01*
X86486109Y-89208385D01*
X86505315Y-89208097D01*
X86507306Y-89208067D01*
X86509192Y-89208053D01*
X102023325Y-89208054D01*
X102023335Y-89208058D01*
X102023371Y-89208058D01*
X102057032Y-89208055D01*
X102069382Y-89208661D01*
X102168535Y-89218418D01*
X102206833Y-89222186D01*
X102231062Y-89227003D01*
X102357293Y-89265287D01*
X102380112Y-89274738D01*
X102469720Y-89322632D01*
X102496441Y-89336914D01*
X102516981Y-89350638D01*
X102618943Y-89434317D01*
X102636410Y-89451785D01*
X102714320Y-89546725D01*
X102720082Y-89553747D01*
X102733807Y-89574290D01*
X102795977Y-89690624D01*
X102805428Y-89713446D01*
X102810340Y-89729644D01*
X102843704Y-89839670D01*
X102848521Y-89863902D01*
X102862080Y-90001768D01*
X102862685Y-90014119D01*
X102862680Y-90047403D01*
X102857939Y-90047402D01*
X102857938Y-90047417D01*
X102862686Y-90047417D01*
X102862685Y-91213256D01*
X102862684Y-91213259D01*
X102862685Y-91238962D01*
X102862685Y-91275724D01*
X102862684Y-91275724D01*
X102862688Y-91275790D01*
X102862661Y-91357741D01*
X102898847Y-91563788D01*
X102970123Y-91760472D01*
X103074339Y-91941866D01*
X103077843Y-91946066D01*
X103165842Y-92051544D01*
X103208356Y-92102503D01*
X103212535Y-92106035D01*
X103212538Y-92106038D01*
X103343735Y-92216922D01*
X103368134Y-92237543D01*
X103548858Y-92342915D01*
X103554000Y-92344816D01*
X103554003Y-92344817D01*
X103631401Y-92373425D01*
X103745083Y-92415445D01*
X103750473Y-92416427D01*
X103750476Y-92416428D01*
X103826134Y-92430214D01*
X103950895Y-92452947D01*
X104066066Y-92453686D01*
X104154614Y-92454255D01*
X104154616Y-92454255D01*
X104160091Y-92454290D01*
X104175369Y-92451708D01*
X104360973Y-92420346D01*
X104360979Y-92420344D01*
X104366367Y-92419434D01*
X104371521Y-92417604D01*
X104371524Y-92417603D01*
X104535884Y-92359238D01*
X104563507Y-92349429D01*
X104745570Y-92246385D01*
X104907068Y-92113408D01*
X104975074Y-92033932D01*
X104975083Y-92033940D01*
X104975102Y-92033899D01*
X105001014Y-92003639D01*
X105001015Y-92003635D01*
X109119384Y-87193758D01*
X109119393Y-87193753D01*
X109119412Y-87193731D01*
X109119416Y-87193727D01*
X109145321Y-87163466D01*
X109145329Y-87163456D01*
X109159714Y-87146656D01*
X109159717Y-87146652D01*
X109160009Y-87146311D01*
X109160082Y-87146173D01*
X109160113Y-87146132D01*
X109207263Y-87090952D01*
X109207265Y-87090950D01*
X109210666Y-87086969D01*
X109284773Y-86963564D01*
X109311525Y-86919017D01*
X109311527Y-86919012D01*
X109314243Y-86914490D01*
X109316171Y-86909572D01*
X109385749Y-86732084D01*
X109385750Y-86732079D01*
X109387671Y-86727180D01*
X109428902Y-86530261D01*
X109436787Y-86329227D01*
X109433953Y-86307204D01*
X109420406Y-86201956D01*
X109411104Y-86129684D01*
X109352571Y-85937198D01*
X109337639Y-85907240D01*
X109270262Y-85772069D01*
X109262820Y-85757138D01*
X109208810Y-85683000D01*
X109147457Y-85598784D01*
X109147455Y-85598782D01*
X109144354Y-85594525D01*
X109000478Y-85453896D01*
X108835204Y-85339172D01*
X108653143Y-85253554D01*
X108578110Y-85232521D01*
X108578566Y-85230896D01*
X108578464Y-85230874D01*
X108578018Y-85232471D01*
X108556483Y-85226458D01*
X108556282Y-85226402D01*
X108556203Y-85226380D01*
X108517870Y-85215673D01*
X108519078Y-85211348D01*
X108519068Y-85211344D01*
X108517859Y-85215674D01*
X104438335Y-84076656D01*
X104426766Y-84073420D01*
X104400350Y-84067314D01*
X104375054Y-84061467D01*
X104375036Y-84061463D01*
X104373646Y-84061142D01*
X104349386Y-84056687D01*
X104321436Y-84051555D01*
X104321417Y-84051552D01*
X104320023Y-84051296D01*
X104296918Y-84048133D01*
X104296918Y-84048130D01*
X104296909Y-84048132D01*
X101197443Y-83623561D01*
X101197476Y-83623322D01*
X101197454Y-83623325D01*
X101197423Y-83623550D01*
X101196636Y-83623442D01*
X101196635Y-83623442D01*
X101157909Y-83618146D01*
X101135570Y-83615086D01*
X101135542Y-83615089D01*
X101135539Y-83615089D01*
X101130923Y-83614457D01*
X101129484Y-83614326D01*
X101129473Y-83614325D01*
X101084070Y-83610200D01*
X101076674Y-83609528D01*
X101075293Y-83609465D01*
X101075273Y-83609464D01*
X101023677Y-83607124D01*
X101023659Y-83607124D01*
X101022257Y-83607060D01*
X101017621Y-83607060D01*
X101017612Y-83607059D01*
X101017607Y-83607058D01*
X100994965Y-83607058D01*
X100955146Y-83607057D01*
X100955138Y-83607057D01*
X100955136Y-83607058D01*
X84507348Y-83607057D01*
X84507313Y-83607053D01*
X84507313Y-83607054D01*
X84490112Y-83607051D01*
X84489667Y-83607051D01*
X84489522Y-83607055D01*
X84489276Y-83607057D01*
X84484687Y-83607057D01*
X84484687Y-83605052D01*
X84483916Y-83604917D01*
X84483983Y-83607218D01*
X84454390Y-83608085D01*
X84453496Y-83608138D01*
X84453488Y-83608138D01*
X84424823Y-83609826D01*
X84424706Y-83607846D01*
X84423960Y-83608023D01*
X84424111Y-83609728D01*
X84419609Y-83610126D01*
X84419310Y-83610150D01*
X84419159Y-83610159D01*
X84418694Y-83610200D01*
X84418696Y-83610200D01*
X84401581Y-83611715D01*
X84377759Y-83613824D01*
X84377738Y-83613826D01*
X82209674Y-83805412D01*
X82195216Y-83806689D01*
X82195195Y-83806689D01*
X82195194Y-83806687D01*
X82195160Y-83806690D01*
X82177914Y-83808214D01*
X82177878Y-83808217D01*
X82177623Y-83808240D01*
X82177533Y-83808251D01*
X82177360Y-83808267D01*
X82172693Y-83808680D01*
X82172518Y-83806701D01*
X82171726Y-83806633D01*
X82171994Y-83808904D01*
X82142588Y-83812376D01*
X82141700Y-83812507D01*
X82141673Y-83812511D01*
X82113323Y-83816707D01*
X82113036Y-83814766D01*
X82112275Y-83815017D01*
X82112570Y-83816671D01*
X82090323Y-83820634D01*
X82090323Y-83820633D01*
X82075340Y-83823303D01*
X82075340Y-83823302D01*
X82075334Y-83823304D01*
X74814548Y-85116642D01*
X66781622Y-86547518D01*
X66769343Y-86549088D01*
X66631642Y-86559849D01*
X66606950Y-86559351D01*
X66475966Y-86543779D01*
X66451844Y-86538473D01*
X66326413Y-86497648D01*
X66303793Y-86487741D01*
X66188732Y-86423234D01*
X66168479Y-86409105D01*
X66068212Y-86323391D01*
X66051103Y-86305581D01*
X65969483Y-86201956D01*
X65956177Y-86181151D01*
X65896339Y-86063599D01*
X65887346Y-86040598D01*
X65859643Y-85942234D01*
X65849784Y-85907226D01*
X65847022Y-85895178D01*
X65842495Y-85869760D01*
X65411718Y-83451403D01*
X69440132Y-83451403D01*
X69459997Y-83703806D01*
X69461151Y-83708613D01*
X69461152Y-83708619D01*
X69486636Y-83814766D01*
X69519101Y-83949994D01*
X69520994Y-83954565D01*
X69520995Y-83954567D01*
X69613819Y-84178663D01*
X69615990Y-84183905D01*
X69748278Y-84399779D01*
X69912708Y-84592301D01*
X70105230Y-84756731D01*
X70321104Y-84889019D01*
X70325674Y-84890912D01*
X70325678Y-84890914D01*
X70550442Y-84984014D01*
X70555015Y-84985908D01*
X70639638Y-85006224D01*
X70796390Y-85043857D01*
X70796396Y-85043858D01*
X70801203Y-85045012D01*
X71053606Y-85064877D01*
X71306009Y-85045012D01*
X71310816Y-85043858D01*
X71310822Y-85043857D01*
X71467574Y-85006224D01*
X71552197Y-84985908D01*
X71556770Y-84984014D01*
X71781534Y-84890914D01*
X71781538Y-84890912D01*
X71786108Y-84889019D01*
X72001982Y-84756731D01*
X72194504Y-84592301D01*
X72358934Y-84399779D01*
X72491222Y-84183905D01*
X72493394Y-84178663D01*
X72586217Y-83954567D01*
X72586218Y-83954565D01*
X72588111Y-83949994D01*
X72589266Y-83945182D01*
X72589268Y-83945177D01*
X72590521Y-83939958D01*
X72625875Y-83878389D01*
X72688902Y-83845708D01*
X72759593Y-83852291D01*
X72799989Y-83878184D01*
X72837536Y-83913985D01*
X72943948Y-84015448D01*
X72951807Y-84022942D01*
X73129899Y-84137395D01*
X73326432Y-84216075D01*
X73534304Y-84256139D01*
X73692956Y-84256139D01*
X73763281Y-84249424D01*
X73844916Y-84241629D01*
X73844920Y-84241628D01*
X73850892Y-84241058D01*
X73969829Y-84206135D01*
X74048250Y-84183109D01*
X74048252Y-84183108D01*
X74054015Y-84181416D01*
X74242179Y-84084410D01*
X74408585Y-83953547D01*
X74523756Y-83820634D01*
X74543285Y-83798096D01*
X74543285Y-83798095D01*
X74547218Y-83793557D01*
X74550221Y-83788356D01*
X74650064Y-83615422D01*
X74650067Y-83615416D01*
X74653066Y-83610221D01*
X74655028Y-83604553D01*
X74655030Y-83604548D01*
X74706327Y-83456333D01*
X74722306Y-83410166D01*
X74746189Y-83244060D01*
X74752025Y-83203470D01*
X74781518Y-83138889D01*
X74841244Y-83100506D01*
X74912241Y-83100506D01*
X74958573Y-83125591D01*
X75050797Y-83204358D01*
X75266671Y-83336646D01*
X75271241Y-83338539D01*
X75271245Y-83338541D01*
X75381440Y-83384185D01*
X75500582Y-83433535D01*
X75560434Y-83447904D01*
X75741957Y-83491484D01*
X75741963Y-83491485D01*
X75746770Y-83492639D01*
X75999173Y-83512504D01*
X76251576Y-83492639D01*
X76256383Y-83491485D01*
X76256389Y-83491484D01*
X76437912Y-83447904D01*
X76497764Y-83433535D01*
X76616906Y-83384185D01*
X76727101Y-83338541D01*
X76727105Y-83338539D01*
X76731675Y-83336646D01*
X76947549Y-83204358D01*
X77140071Y-83039928D01*
X77304501Y-82847406D01*
X77309801Y-82838758D01*
X77311118Y-82836609D01*
X77363766Y-82788978D01*
X77433808Y-82777372D01*
X77447964Y-82779926D01*
X77507714Y-82794271D01*
X77507720Y-82794272D01*
X77512527Y-82795426D01*
X77764930Y-82815291D01*
X78017333Y-82795426D01*
X78022140Y-82794272D01*
X78022146Y-82794271D01*
X78178898Y-82756638D01*
X78263521Y-82736322D01*
X78268094Y-82734428D01*
X78492858Y-82641328D01*
X78492862Y-82641326D01*
X78497432Y-82639433D01*
X78713306Y-82507145D01*
X78905828Y-82342715D01*
X79070258Y-82150193D01*
X79155633Y-82010874D01*
X81615673Y-82010874D01*
X81616103Y-82016063D01*
X81632844Y-82218091D01*
X81634265Y-82235242D01*
X81635546Y-82240300D01*
X81635546Y-82240301D01*
X81686937Y-82443237D01*
X81689533Y-82453490D01*
X81710454Y-82501186D01*
X81775507Y-82649492D01*
X81779969Y-82659665D01*
X81782819Y-82664027D01*
X81782821Y-82664031D01*
X81864453Y-82788978D01*
X81903107Y-82848142D01*
X81906632Y-82851971D01*
X81906635Y-82851975D01*
X81992176Y-82944896D01*
X82055589Y-83013780D01*
X82059708Y-83016986D01*
X82213731Y-83136868D01*
X82233253Y-83152063D01*
X82237834Y-83154542D01*
X82400849Y-83242761D01*
X82431255Y-83259216D01*
X82644194Y-83332318D01*
X82649328Y-83333175D01*
X82649333Y-83333176D01*
X82861123Y-83368517D01*
X82861125Y-83368517D01*
X82866260Y-83369374D01*
X83091398Y-83369374D01*
X83096533Y-83368517D01*
X83096535Y-83368517D01*
X83308325Y-83333176D01*
X83308330Y-83333175D01*
X83313464Y-83332318D01*
X83360202Y-83316273D01*
X108929557Y-83316273D01*
X108949422Y-83568676D01*
X108950576Y-83573483D01*
X108950577Y-83573489D01*
X108983019Y-83708619D01*
X109008526Y-83814864D01*
X109010419Y-83819435D01*
X109010420Y-83819437D01*
X109094715Y-84022942D01*
X109105415Y-84048775D01*
X109237703Y-84264649D01*
X109402133Y-84457171D01*
X109594655Y-84621601D01*
X109810529Y-84753889D01*
X109815099Y-84755782D01*
X109815103Y-84755784D01*
X109988425Y-84827576D01*
X110044440Y-84850778D01*
X110129063Y-84871094D01*
X110285815Y-84908727D01*
X110285821Y-84908728D01*
X110290628Y-84909882D01*
X110543031Y-84929747D01*
X110795434Y-84909882D01*
X110800241Y-84908728D01*
X110800247Y-84908727D01*
X110956999Y-84871094D01*
X111041622Y-84850778D01*
X111097637Y-84827576D01*
X111270959Y-84755784D01*
X111270963Y-84755782D01*
X111275533Y-84753889D01*
X111491407Y-84621601D01*
X111683929Y-84457171D01*
X111714076Y-84421873D01*
X111773526Y-84383065D01*
X111844521Y-84382557D01*
X111904519Y-84420513D01*
X111932335Y-84473998D01*
X111948668Y-84541323D01*
X112036610Y-84733890D01*
X112040089Y-84738776D01*
X112040091Y-84738779D01*
X112147077Y-84889019D01*
X112159407Y-84906334D01*
X112163749Y-84910474D01*
X112305256Y-85045400D01*
X112312620Y-85052422D01*
X112490712Y-85166875D01*
X112687245Y-85245555D01*
X112895117Y-85285619D01*
X113053769Y-85285619D01*
X113124094Y-85278904D01*
X113205729Y-85271109D01*
X113205733Y-85271108D01*
X113211705Y-85270538D01*
X113350103Y-85229901D01*
X113409063Y-85212589D01*
X113409065Y-85212588D01*
X113414828Y-85210896D01*
X113602992Y-85113890D01*
X113769398Y-84983027D01*
X113908031Y-84823037D01*
X113946313Y-84756731D01*
X113968688Y-84717975D01*
X114020070Y-84668982D01*
X114089784Y-84655545D01*
X114155695Y-84681932D01*
X114194216Y-84732756D01*
X114203755Y-84755784D01*
X114230977Y-84821505D01*
X114363265Y-85037379D01*
X114527695Y-85229901D01*
X114720217Y-85394331D01*
X114936091Y-85526619D01*
X114940661Y-85528512D01*
X114940665Y-85528514D01*
X115143361Y-85612473D01*
X115170002Y-85623508D01*
X115254625Y-85643824D01*
X115411377Y-85681457D01*
X115411383Y-85681458D01*
X115416190Y-85682612D01*
X115668593Y-85702477D01*
X115920996Y-85682612D01*
X115925803Y-85681458D01*
X115925809Y-85681457D01*
X116082561Y-85643824D01*
X116167184Y-85623508D01*
X116193825Y-85612473D01*
X116396521Y-85528514D01*
X116396525Y-85528512D01*
X116401095Y-85526619D01*
X116436059Y-85505193D01*
X116504593Y-85486654D01*
X116572269Y-85508110D01*
X116583715Y-85516806D01*
X116612906Y-85541737D01*
X116828780Y-85674025D01*
X116833350Y-85675918D01*
X116833354Y-85675920D01*
X117058118Y-85769020D01*
X117062691Y-85770914D01*
X117147314Y-85791230D01*
X117304066Y-85828863D01*
X117304072Y-85828864D01*
X117308879Y-85830018D01*
X117561282Y-85849883D01*
X117813685Y-85830018D01*
X117818492Y-85828864D01*
X117818498Y-85828863D01*
X117975250Y-85791230D01*
X118059873Y-85770914D01*
X118064446Y-85769020D01*
X118289210Y-85675920D01*
X118289214Y-85675918D01*
X118293784Y-85674025D01*
X118509658Y-85541737D01*
X118702180Y-85377307D01*
X118866610Y-85184785D01*
X118998898Y-84968911D01*
X119015121Y-84929747D01*
X119093893Y-84739573D01*
X119093894Y-84739571D01*
X119095787Y-84735000D01*
X119122392Y-84624183D01*
X119153736Y-84493625D01*
X119153737Y-84493619D01*
X119154891Y-84488812D01*
X119160159Y-84421874D01*
X119164335Y-84368823D01*
X119189621Y-84302482D01*
X119194723Y-84296197D01*
X119289245Y-84187113D01*
X119289245Y-84187112D01*
X119293178Y-84182574D01*
X119296181Y-84177373D01*
X119396024Y-84004439D01*
X119396027Y-84004433D01*
X119399026Y-83999238D01*
X119400988Y-83993570D01*
X119400990Y-83993565D01*
X119452163Y-83845708D01*
X119468266Y-83799183D01*
X119481287Y-83708619D01*
X119497540Y-83595583D01*
X119497540Y-83595578D01*
X119498394Y-83589640D01*
X119488321Y-83378182D01*
X119438411Y-83172452D01*
X119426375Y-83146095D01*
X119398489Y-83085034D01*
X119350469Y-82979885D01*
X119331191Y-82952812D01*
X119231153Y-82812329D01*
X119231152Y-82812327D01*
X119227672Y-82807441D01*
X119116988Y-82701904D01*
X119078797Y-82665489D01*
X119078795Y-82665488D01*
X119074459Y-82661353D01*
X118896367Y-82546900D01*
X118699834Y-82468220D01*
X118491962Y-82428156D01*
X118333310Y-82428156D01*
X118262985Y-82434871D01*
X118181350Y-82442666D01*
X118181346Y-82442667D01*
X118175374Y-82443237D01*
X118082691Y-82470451D01*
X117978016Y-82501186D01*
X117978014Y-82501187D01*
X117972251Y-82502879D01*
X117784087Y-82599885D01*
X117775870Y-82606347D01*
X117709961Y-82632733D01*
X117688101Y-82632916D01*
X117561282Y-82622935D01*
X117308879Y-82642800D01*
X117304072Y-82643954D01*
X117304066Y-82643955D01*
X117198085Y-82669399D01*
X117062691Y-82701904D01*
X117058120Y-82703797D01*
X117058118Y-82703798D01*
X116833354Y-82796898D01*
X116833350Y-82796900D01*
X116828780Y-82798793D01*
X116802491Y-82814903D01*
X116793816Y-82820219D01*
X116725282Y-82838758D01*
X116657606Y-82817302D01*
X116646160Y-82808606D01*
X116616969Y-82783675D01*
X116401095Y-82651387D01*
X116396525Y-82649494D01*
X116396521Y-82649492D01*
X116171757Y-82556392D01*
X116171755Y-82556391D01*
X116167184Y-82554498D01*
X116082561Y-82534182D01*
X115925809Y-82496549D01*
X115925803Y-82496548D01*
X115920996Y-82495394D01*
X115668593Y-82475529D01*
X115416190Y-82495394D01*
X115411383Y-82496548D01*
X115411377Y-82496549D01*
X115254625Y-82534182D01*
X115170002Y-82554498D01*
X115165431Y-82556391D01*
X115165429Y-82556392D01*
X114940665Y-82649492D01*
X114940661Y-82649494D01*
X114936091Y-82651387D01*
X114720217Y-82783675D01*
X114527695Y-82948105D01*
X114363265Y-83140627D01*
X114230977Y-83356501D01*
X114229084Y-83361071D01*
X114229082Y-83361075D01*
X114151252Y-83548974D01*
X114106704Y-83604255D01*
X114039340Y-83626676D01*
X113970549Y-83609118D01*
X113932207Y-83573843D01*
X113846011Y-83452799D01*
X113846009Y-83452797D01*
X113842525Y-83447904D01*
X113723129Y-83334060D01*
X113693650Y-83305952D01*
X113693648Y-83305951D01*
X113689312Y-83301816D01*
X113511220Y-83187363D01*
X113314687Y-83108683D01*
X113106815Y-83068619D01*
X112948163Y-83068619D01*
X112877838Y-83075334D01*
X112796203Y-83083129D01*
X112796199Y-83083130D01*
X112790227Y-83083700D01*
X112697544Y-83110914D01*
X112592869Y-83141649D01*
X112592867Y-83141650D01*
X112587104Y-83143342D01*
X112398940Y-83240348D01*
X112394223Y-83244057D01*
X112394219Y-83244060D01*
X112350039Y-83278804D01*
X112284128Y-83305190D01*
X112214414Y-83291754D01*
X112163032Y-83242761D01*
X112146539Y-83189647D01*
X112142385Y-83136868D01*
X112136640Y-83063870D01*
X112131663Y-83043136D01*
X112089628Y-82868051D01*
X112077536Y-82817682D01*
X112066520Y-82791087D01*
X111982542Y-82588345D01*
X111982540Y-82588341D01*
X111980647Y-82583771D01*
X111848359Y-82367897D01*
X111683929Y-82175375D01*
X111491407Y-82010945D01*
X111275533Y-81878657D01*
X111270963Y-81876764D01*
X111270959Y-81876762D01*
X111046195Y-81783662D01*
X111046193Y-81783661D01*
X111041622Y-81781768D01*
X110938734Y-81757067D01*
X110800247Y-81723819D01*
X110800241Y-81723818D01*
X110795434Y-81722664D01*
X110543031Y-81702799D01*
X110290628Y-81722664D01*
X110285821Y-81723818D01*
X110285815Y-81723819D01*
X110147328Y-81757067D01*
X110044440Y-81781768D01*
X110039869Y-81783661D01*
X110039867Y-81783662D01*
X109815103Y-81876762D01*
X109815099Y-81876764D01*
X109810529Y-81878657D01*
X109594655Y-82010945D01*
X109402133Y-82175375D01*
X109237703Y-82367897D01*
X109105415Y-82583771D01*
X109103522Y-82588341D01*
X109103520Y-82588345D01*
X109019542Y-82791087D01*
X109008526Y-82817682D01*
X108996434Y-82868051D01*
X108954400Y-83043136D01*
X108949422Y-83063870D01*
X108929557Y-83316273D01*
X83360202Y-83316273D01*
X83526403Y-83259216D01*
X83556810Y-83242761D01*
X83719824Y-83154542D01*
X83724405Y-83152063D01*
X83743928Y-83136868D01*
X83897950Y-83016986D01*
X83902069Y-83013780D01*
X83965482Y-82944896D01*
X84051023Y-82851975D01*
X84051026Y-82851971D01*
X84054551Y-82848142D01*
X84093205Y-82788978D01*
X84174837Y-82664031D01*
X84174839Y-82664027D01*
X84177689Y-82659665D01*
X84182152Y-82649492D01*
X84247204Y-82501186D01*
X84268125Y-82453490D01*
X84270722Y-82443237D01*
X84322112Y-82240301D01*
X84322112Y-82240300D01*
X84323393Y-82235242D01*
X84324815Y-82218091D01*
X84341555Y-82016063D01*
X84341985Y-82010874D01*
X84332018Y-81890593D01*
X84323824Y-81791702D01*
X84323823Y-81791697D01*
X84323393Y-81786506D01*
X84315938Y-81757067D01*
X84269407Y-81573320D01*
X84269407Y-81573319D01*
X84268125Y-81568258D01*
X84237338Y-81498070D01*
X84179783Y-81366856D01*
X84179781Y-81366852D01*
X84177689Y-81362083D01*
X84129366Y-81288118D01*
X84110000Y-81258476D01*
X88620545Y-81258476D01*
X88640410Y-81510879D01*
X88641564Y-81515686D01*
X88641565Y-81515692D01*
X88671106Y-81638737D01*
X88699514Y-81757067D01*
X88701407Y-81761638D01*
X88701408Y-81761640D01*
X88793021Y-81982812D01*
X88796403Y-81990978D01*
X88928691Y-82206852D01*
X89093121Y-82399374D01*
X89285643Y-82563804D01*
X89501517Y-82696092D01*
X89506087Y-82697985D01*
X89506091Y-82697987D01*
X89730855Y-82791087D01*
X89735428Y-82792981D01*
X89795659Y-82807441D01*
X89976803Y-82850930D01*
X89976809Y-82850931D01*
X89981616Y-82852085D01*
X90234019Y-82871950D01*
X90486422Y-82852085D01*
X90491229Y-82850931D01*
X90491235Y-82850930D01*
X90672379Y-82807441D01*
X90732610Y-82792981D01*
X90737183Y-82791087D01*
X90961947Y-82697987D01*
X90961951Y-82697985D01*
X90966521Y-82696092D01*
X91182395Y-82563804D01*
X91374917Y-82399374D01*
X91539347Y-82206852D01*
X91671635Y-81990978D01*
X91673480Y-81992109D01*
X91716043Y-81947065D01*
X91784962Y-81930016D01*
X91852158Y-81952934D01*
X91882171Y-81982812D01*
X91982808Y-82124136D01*
X91992460Y-82137691D01*
X92145673Y-82283779D01*
X92323765Y-82398232D01*
X92520298Y-82476912D01*
X92728170Y-82516976D01*
X92886822Y-82516976D01*
X92957147Y-82510261D01*
X93038782Y-82502466D01*
X93038786Y-82502465D01*
X93044758Y-82501895D01*
X93193339Y-82458268D01*
X93242116Y-82443946D01*
X93242118Y-82443945D01*
X93247881Y-82442253D01*
X93436045Y-82345247D01*
X93602451Y-82214384D01*
X93613562Y-82201562D01*
X93737151Y-82058933D01*
X93737151Y-82058932D01*
X93741084Y-82054394D01*
X93749236Y-82040274D01*
X93843930Y-81876259D01*
X93843933Y-81876253D01*
X93846932Y-81871058D01*
X93848894Y-81865390D01*
X93848896Y-81865385D01*
X93914210Y-81676673D01*
X93914211Y-81676669D01*
X93916172Y-81671003D01*
X93916863Y-81666197D01*
X93952168Y-81605046D01*
X94015273Y-81572514D01*
X94085948Y-81579263D01*
X94134929Y-81614407D01*
X94229908Y-81725613D01*
X94229913Y-81725618D01*
X94233121Y-81729374D01*
X94425643Y-81893804D01*
X94641517Y-82026092D01*
X94646087Y-82027985D01*
X94646091Y-82027987D01*
X94860059Y-82116615D01*
X94875428Y-82122981D01*
X94916340Y-82132803D01*
X95116803Y-82180930D01*
X95116809Y-82180931D01*
X95121616Y-82182085D01*
X95374019Y-82201950D01*
X95626422Y-82182085D01*
X95631229Y-82180931D01*
X95631235Y-82180930D01*
X95831698Y-82132803D01*
X95872610Y-82122981D01*
X95887979Y-82116615D01*
X96101947Y-82027987D01*
X96101951Y-82027985D01*
X96106521Y-82026092D01*
X96322395Y-81893804D01*
X96514917Y-81729374D01*
X96515908Y-81730534D01*
X96572274Y-81699755D01*
X96647275Y-81706467D01*
X96722372Y-81737573D01*
X96735428Y-81742981D01*
X96794101Y-81757067D01*
X96976803Y-81800930D01*
X96976809Y-81800931D01*
X96981616Y-81802085D01*
X97234019Y-81821950D01*
X97486422Y-81802085D01*
X97491229Y-81800931D01*
X97491235Y-81800930D01*
X97673937Y-81757067D01*
X97732610Y-81742981D01*
X97737183Y-81741087D01*
X97961947Y-81647987D01*
X97961951Y-81647985D01*
X97966521Y-81646092D01*
X98182395Y-81513804D01*
X98374917Y-81349374D01*
X98539347Y-81156852D01*
X98671635Y-80940978D01*
X98689943Y-80896780D01*
X98766630Y-80711640D01*
X98766631Y-80711638D01*
X98768524Y-80707067D01*
X98792101Y-80608862D01*
X98826473Y-80465692D01*
X98826474Y-80465686D01*
X98827628Y-80460879D01*
X98847493Y-80208476D01*
X98827628Y-79956073D01*
X98827080Y-79953792D01*
X109002385Y-79953792D01*
X109032794Y-80178276D01*
X109102797Y-80393722D01*
X109210144Y-80593207D01*
X109213666Y-80597623D01*
X109213669Y-80597628D01*
X109347748Y-80765757D01*
X109351386Y-80770319D01*
X109355645Y-80774040D01*
X109355647Y-80774042D01*
X109482924Y-80885240D01*
X109521982Y-80919364D01*
X109526841Y-80922267D01*
X109526845Y-80922270D01*
X109589506Y-80959708D01*
X109716450Y-81035554D01*
X109813233Y-81071877D01*
X109923244Y-81113165D01*
X109923246Y-81113166D01*
X109928539Y-81115152D01*
X110059270Y-81138876D01*
X110145861Y-81154590D01*
X110145863Y-81154590D01*
X110151433Y-81155601D01*
X110321222Y-81155601D01*
X110490322Y-81140382D01*
X110495777Y-81138877D01*
X110495780Y-81138876D01*
X110703233Y-81081622D01*
X110703234Y-81081622D01*
X110708693Y-81080115D01*
X110912793Y-80981826D01*
X110949898Y-80954868D01*
X111031691Y-80895441D01*
X111096063Y-80848672D01*
X111178397Y-80762558D01*
X111248703Y-80689024D01*
X111248705Y-80689021D01*
X111252612Y-80684935D01*
X111299078Y-80614542D01*
X111374289Y-80500602D01*
X111374290Y-80500600D01*
X111377409Y-80495875D01*
X111466443Y-80287571D01*
X111516851Y-80066716D01*
X111527015Y-79840410D01*
X111498115Y-79627066D01*
X111497365Y-79621529D01*
X111496606Y-79615926D01*
X111426603Y-79400480D01*
X111349122Y-79256496D01*
X111321937Y-79205977D01*
X111321937Y-79205976D01*
X111319256Y-79200995D01*
X111315734Y-79196579D01*
X111315731Y-79196574D01*
X111181540Y-79028304D01*
X111181538Y-79028302D01*
X111178014Y-79023883D01*
X111156225Y-79004846D01*
X111011685Y-78878566D01*
X111007418Y-78874838D01*
X111002559Y-78871935D01*
X111002555Y-78871932D01*
X110860232Y-78786898D01*
X110812950Y-78758648D01*
X110661337Y-78701747D01*
X110606156Y-78681037D01*
X110606154Y-78681036D01*
X110600861Y-78679050D01*
X110435535Y-78649048D01*
X110383539Y-78639612D01*
X110383537Y-78639612D01*
X110377967Y-78638601D01*
X110208178Y-78638601D01*
X110039078Y-78653820D01*
X110033623Y-78655325D01*
X110033620Y-78655326D01*
X109826167Y-78712580D01*
X109820707Y-78714087D01*
X109616607Y-78812376D01*
X109612028Y-78815703D01*
X109612026Y-78815704D01*
X109596677Y-78826856D01*
X109433337Y-78945530D01*
X109392562Y-78988177D01*
X109282696Y-79103088D01*
X109276788Y-79109267D01*
X109273671Y-79113989D01*
X109162011Y-79283148D01*
X109151991Y-79298327D01*
X109062957Y-79506631D01*
X109012549Y-79727486D01*
X109002385Y-79953792D01*
X98827080Y-79953792D01*
X98826474Y-79951266D01*
X98826473Y-79951260D01*
X98813660Y-79897892D01*
X98817207Y-79826984D01*
X98827059Y-79805479D01*
X98835920Y-79790131D01*
X98846932Y-79771058D01*
X98848894Y-79765390D01*
X98848896Y-79765385D01*
X98883685Y-79664867D01*
X98916172Y-79571003D01*
X98928348Y-79486319D01*
X98945446Y-79367403D01*
X98945446Y-79367398D01*
X98946300Y-79361460D01*
X98936227Y-79150002D01*
X98886317Y-78944272D01*
X98877707Y-78925417D01*
X98830515Y-78822083D01*
X98798375Y-78751705D01*
X98793245Y-78744500D01*
X98680862Y-78586681D01*
X111997985Y-78586681D01*
X112027868Y-78909170D01*
X112028697Y-78912955D01*
X112087151Y-79179865D01*
X112097154Y-79225542D01*
X112098444Y-79229202D01*
X112098444Y-79229203D01*
X112183606Y-79470874D01*
X112204794Y-79531002D01*
X112206519Y-79534466D01*
X112206521Y-79534471D01*
X112326915Y-79776255D01*
X112349156Y-79820920D01*
X112416779Y-79922973D01*
X112525907Y-80087666D01*
X112525913Y-80087674D01*
X112528050Y-80090899D01*
X112530574Y-80093845D01*
X112734392Y-80331741D01*
X112738767Y-80336848D01*
X112741631Y-80339459D01*
X112741636Y-80339464D01*
X112875409Y-80461414D01*
X112978110Y-80555038D01*
X113242452Y-80742162D01*
X113245862Y-80743993D01*
X113245865Y-80743995D01*
X113524379Y-80893554D01*
X113524386Y-80893557D01*
X113527786Y-80895383D01*
X113679993Y-80954348D01*
X113813511Y-81006073D01*
X113829786Y-81012378D01*
X113910387Y-81032650D01*
X114140104Y-81090427D01*
X114140111Y-81090428D01*
X114143875Y-81091375D01*
X114465291Y-81131175D01*
X114708113Y-81131175D01*
X114721550Y-81130346D01*
X114946614Y-81116465D01*
X114946621Y-81116464D01*
X114950482Y-81116226D01*
X115268838Y-81056715D01*
X115577468Y-80958533D01*
X115656288Y-80922270D01*
X115868171Y-80824789D01*
X115868179Y-80824785D01*
X115871693Y-80823168D01*
X115883265Y-80816003D01*
X116143745Y-80654721D01*
X116143747Y-80654720D01*
X116147054Y-80652672D01*
X116150500Y-80649899D01*
X116396352Y-80452063D01*
X116396356Y-80452060D01*
X116399375Y-80449630D01*
X116624832Y-80217119D01*
X116820008Y-79958665D01*
X116821792Y-79955576D01*
X118531163Y-79955576D01*
X118532130Y-79961888D01*
X118532130Y-79961890D01*
X118560238Y-80145374D01*
X118561205Y-80151686D01*
X118630110Y-80337733D01*
X118735055Y-80506102D01*
X118871744Y-80649899D01*
X118876983Y-80653546D01*
X118876986Y-80653548D01*
X118971334Y-80719216D01*
X119034581Y-80763237D01*
X119216900Y-80841476D01*
X119223155Y-80842761D01*
X119223157Y-80842762D01*
X119240131Y-80846250D01*
X119294701Y-80872272D01*
X119322925Y-80895435D01*
X119322932Y-80895440D01*
X119327715Y-80899365D01*
X119510211Y-80996912D01*
X119540411Y-81006073D01*
X119702305Y-81055183D01*
X119702311Y-81055184D01*
X119708231Y-81056980D01*
X119781345Y-81064181D01*
X119859477Y-81071877D01*
X119859484Y-81071877D01*
X119862557Y-81072180D01*
X119965773Y-81072180D01*
X119968846Y-81071877D01*
X119968853Y-81071877D01*
X120046985Y-81064181D01*
X120120099Y-81056980D01*
X120126019Y-81055184D01*
X120126025Y-81055183D01*
X120287919Y-81006073D01*
X120318119Y-80996912D01*
X120500615Y-80899365D01*
X120660575Y-80768090D01*
X120791850Y-80608130D01*
X120889397Y-80425634D01*
X120905361Y-80373006D01*
X120947668Y-80233540D01*
X120947669Y-80233534D01*
X120949465Y-80227614D01*
X120969748Y-80021680D01*
X120949465Y-79815746D01*
X120947669Y-79809826D01*
X120947668Y-79809820D01*
X120900633Y-79654766D01*
X120889397Y-79617726D01*
X120791850Y-79435230D01*
X120660575Y-79275270D01*
X120500615Y-79143995D01*
X120318119Y-79046448D01*
X120254956Y-79027288D01*
X120126025Y-78988177D01*
X120126019Y-78988176D01*
X120120099Y-78986380D01*
X120046985Y-78979179D01*
X119968853Y-78971483D01*
X119968846Y-78971483D01*
X119965773Y-78971180D01*
X119862557Y-78971180D01*
X119843895Y-78973018D01*
X119804263Y-78968926D01*
X119803970Y-78970350D01*
X119609634Y-78930413D01*
X119460962Y-78930413D01*
X119313056Y-78945454D01*
X119123757Y-79004846D01*
X118950289Y-79101129D01*
X118799753Y-79230360D01*
X118795844Y-79235410D01*
X118795843Y-79235411D01*
X118682223Y-79382195D01*
X118682221Y-79382199D01*
X118678313Y-79387247D01*
X118590940Y-79565369D01*
X118589339Y-79571551D01*
X118589339Y-79571552D01*
X118549096Y-79726981D01*
X118541211Y-79757433D01*
X118540888Y-79763807D01*
X118540887Y-79763812D01*
X118537684Y-79826984D01*
X118531163Y-79955576D01*
X116821792Y-79955576D01*
X116822822Y-79953792D01*
X116902522Y-79815746D01*
X116981943Y-79678185D01*
X117024907Y-79576679D01*
X117106670Y-79383507D01*
X117106673Y-79383499D01*
X117108183Y-79379931D01*
X117196815Y-79068424D01*
X117200227Y-79046448D01*
X117243005Y-78770860D01*
X117246494Y-78748386D01*
X117248099Y-78696292D01*
X117256348Y-78428543D01*
X117256348Y-78428537D01*
X117256467Y-78424669D01*
X117226584Y-78102180D01*
X117195881Y-77961986D01*
X117158128Y-77789597D01*
X117158127Y-77789594D01*
X117157298Y-77785808D01*
X117152751Y-77772904D01*
X117050948Y-77484008D01*
X117050946Y-77484004D01*
X117049658Y-77480348D01*
X117047205Y-77475420D01*
X116907024Y-77193900D01*
X116907023Y-77193898D01*
X116905296Y-77190430D01*
X116805992Y-77040565D01*
X116728545Y-76923684D01*
X116728539Y-76923676D01*
X116726402Y-76920451D01*
X116648407Y-76829415D01*
X116518212Y-76677451D01*
X116518208Y-76677447D01*
X116515685Y-76674502D01*
X116512821Y-76671891D01*
X116512816Y-76671886D01*
X116322534Y-76498422D01*
X116276342Y-76456312D01*
X116012000Y-76269188D01*
X115987648Y-76256111D01*
X115730073Y-76117796D01*
X115730066Y-76117793D01*
X115726666Y-76115967D01*
X115510422Y-76032194D01*
X115428288Y-76000375D01*
X115428286Y-76000374D01*
X115424666Y-75998972D01*
X115320603Y-75972799D01*
X115114348Y-75920923D01*
X115114341Y-75920922D01*
X115110577Y-75919975D01*
X114789161Y-75880175D01*
X114546339Y-75880175D01*
X114532902Y-75881004D01*
X114307838Y-75894885D01*
X114307831Y-75894886D01*
X114303970Y-75895124D01*
X113985614Y-75954635D01*
X113676984Y-76052817D01*
X113673462Y-76054437D01*
X113673463Y-76054437D01*
X113386281Y-76186561D01*
X113386273Y-76186565D01*
X113382759Y-76188182D01*
X113379458Y-76190226D01*
X113379456Y-76190227D01*
X113180751Y-76313260D01*
X113107398Y-76358678D01*
X113104367Y-76361117D01*
X112858487Y-76558976D01*
X112855077Y-76561720D01*
X112629620Y-76794231D01*
X112434444Y-77052685D01*
X112432503Y-77056047D01*
X112432501Y-77056050D01*
X112408023Y-77098448D01*
X112272509Y-77333165D01*
X112255441Y-77373490D01*
X112147782Y-77627843D01*
X112147779Y-77627851D01*
X112146269Y-77631419D01*
X112057637Y-77942926D01*
X112057042Y-77946760D01*
X112057041Y-77946764D01*
X112036285Y-78080478D01*
X112007958Y-78262964D01*
X112007838Y-78266845D01*
X112007838Y-78266850D01*
X111998214Y-78579261D01*
X111997985Y-78586681D01*
X98680862Y-78586681D01*
X98679059Y-78584149D01*
X98679058Y-78584147D01*
X98675578Y-78579261D01*
X98634107Y-78539719D01*
X98526703Y-78437309D01*
X98526701Y-78437308D01*
X98522365Y-78433173D01*
X98344273Y-78318720D01*
X98147740Y-78240040D01*
X97939868Y-78199976D01*
X97781216Y-78199976D01*
X97710891Y-78206691D01*
X97629256Y-78214486D01*
X97629252Y-78214487D01*
X97623280Y-78215057D01*
X97530597Y-78242271D01*
X97425922Y-78273006D01*
X97425920Y-78273007D01*
X97420157Y-78274699D01*
X97231993Y-78371705D01*
X97065587Y-78502568D01*
X97061660Y-78507101D01*
X97061659Y-78507101D01*
X96991260Y-78588345D01*
X96925450Y-78628351D01*
X96735428Y-78673971D01*
X96730857Y-78675864D01*
X96730855Y-78675865D01*
X96506091Y-78768965D01*
X96506087Y-78768967D01*
X96501517Y-78770860D01*
X96285643Y-78903148D01*
X96093121Y-79067578D01*
X96092130Y-79066418D01*
X96035764Y-79097197D01*
X95960763Y-79090485D01*
X95877183Y-79055865D01*
X95877181Y-79055864D01*
X95872610Y-79053971D01*
X95786592Y-79033320D01*
X95631235Y-78996022D01*
X95631229Y-78996021D01*
X95626422Y-78994867D01*
X95374019Y-78975002D01*
X95121616Y-78994867D01*
X95116809Y-78996021D01*
X95116803Y-78996022D01*
X94961446Y-79033320D01*
X94875428Y-79053971D01*
X94870857Y-79055864D01*
X94870855Y-79055865D01*
X94646091Y-79148965D01*
X94646087Y-79148967D01*
X94641517Y-79150860D01*
X94425643Y-79283148D01*
X94233121Y-79447578D01*
X94068691Y-79640100D01*
X93936403Y-79855974D01*
X93934510Y-79860544D01*
X93934508Y-79860548D01*
X93857282Y-80046989D01*
X93839514Y-80089885D01*
X93833406Y-80115328D01*
X93783033Y-80325149D01*
X93780410Y-80336073D01*
X93769572Y-80473780D01*
X93768758Y-80484125D01*
X93743472Y-80550466D01*
X93686334Y-80592606D01*
X93615484Y-80597165D01*
X93556197Y-80565431D01*
X93539039Y-80549072D01*
X93522365Y-80533173D01*
X93344273Y-80418720D01*
X93294271Y-80398702D01*
X93268397Y-80388344D01*
X93147740Y-80340040D01*
X92939868Y-80299976D01*
X92781216Y-80299976D01*
X92712097Y-80306576D01*
X92629256Y-80314486D01*
X92629252Y-80314487D01*
X92623280Y-80315057D01*
X92534902Y-80341007D01*
X92425922Y-80373006D01*
X92425920Y-80373007D01*
X92420157Y-80374699D01*
X92231993Y-80471705D01*
X92065587Y-80602568D01*
X92061660Y-80607100D01*
X92061659Y-80607101D01*
X91954088Y-80731244D01*
X91894362Y-80769627D01*
X91823365Y-80769627D01*
X91763639Y-80731243D01*
X91742455Y-80696949D01*
X91673530Y-80530548D01*
X91673528Y-80530544D01*
X91671635Y-80525974D01*
X91539347Y-80310100D01*
X91374917Y-80117578D01*
X91182395Y-79953148D01*
X90966521Y-79820860D01*
X90961951Y-79818967D01*
X90961947Y-79818965D01*
X90737183Y-79725865D01*
X90737181Y-79725864D01*
X90732610Y-79723971D01*
X90634017Y-79700301D01*
X90491235Y-79666022D01*
X90491229Y-79666021D01*
X90486422Y-79664867D01*
X90234019Y-79645002D01*
X89981616Y-79664867D01*
X89976809Y-79666021D01*
X89976803Y-79666022D01*
X89834021Y-79700301D01*
X89735428Y-79723971D01*
X89730857Y-79725864D01*
X89730855Y-79725865D01*
X89506091Y-79818965D01*
X89506087Y-79818967D01*
X89501517Y-79820860D01*
X89285643Y-79953148D01*
X89093121Y-80117578D01*
X88928691Y-80310100D01*
X88796403Y-80525974D01*
X88794510Y-80530544D01*
X88794508Y-80530548D01*
X88706855Y-80742162D01*
X88699514Y-80759885D01*
X88697544Y-80768090D01*
X88653715Y-80950654D01*
X88640410Y-81006073D01*
X88620545Y-81258476D01*
X84110000Y-81258476D01*
X84069761Y-81196887D01*
X84054551Y-81173606D01*
X84051026Y-81169777D01*
X84051023Y-81169773D01*
X83927464Y-81035554D01*
X83902069Y-81007968D01*
X83810125Y-80936404D01*
X83728518Y-80872886D01*
X83728516Y-80872884D01*
X83724405Y-80869685D01*
X83691149Y-80851688D01*
X83640758Y-80801675D01*
X83625406Y-80732358D01*
X83649966Y-80665745D01*
X83691149Y-80630060D01*
X83719824Y-80614542D01*
X83724405Y-80612063D01*
X83730781Y-80607101D01*
X83897950Y-80476986D01*
X83902069Y-80473780D01*
X83990746Y-80377452D01*
X84051023Y-80311975D01*
X84051026Y-80311971D01*
X84054551Y-80308142D01*
X84103291Y-80233540D01*
X84174837Y-80124031D01*
X84174839Y-80124027D01*
X84177689Y-80119665D01*
X84192758Y-80085312D01*
X84247990Y-79959394D01*
X84268125Y-79913490D01*
X84269840Y-79906720D01*
X84322112Y-79700301D01*
X84322112Y-79700300D01*
X84323393Y-79695242D01*
X84324232Y-79685125D01*
X84341555Y-79476063D01*
X84341985Y-79470874D01*
X84334788Y-79384023D01*
X84323824Y-79251702D01*
X84323823Y-79251697D01*
X84323393Y-79246506D01*
X84319972Y-79232997D01*
X84269407Y-79033320D01*
X84269407Y-79033319D01*
X84268125Y-79028258D01*
X84202465Y-78878566D01*
X84179783Y-78826856D01*
X84179781Y-78826852D01*
X84177689Y-78822083D01*
X84173522Y-78815704D01*
X84057402Y-78637970D01*
X84054551Y-78633606D01*
X84051026Y-78629777D01*
X84051023Y-78629773D01*
X83930508Y-78498861D01*
X83902069Y-78467968D01*
X83783161Y-78375417D01*
X83728518Y-78332886D01*
X83728516Y-78332884D01*
X83724405Y-78329685D01*
X83691149Y-78311688D01*
X83640758Y-78261675D01*
X83625406Y-78192358D01*
X83649966Y-78125745D01*
X83673714Y-78105167D01*
X87761704Y-78105167D01*
X87792113Y-78329651D01*
X87862116Y-78545097D01*
X87914283Y-78642040D01*
X87962872Y-78732333D01*
X87969463Y-78744582D01*
X87972985Y-78748998D01*
X87972988Y-78749003D01*
X88100717Y-78909170D01*
X88110705Y-78921694D01*
X88114964Y-78925415D01*
X88114966Y-78925417D01*
X88232730Y-79028304D01*
X88281301Y-79070739D01*
X88286160Y-79073642D01*
X88286164Y-79073645D01*
X88360206Y-79117883D01*
X88475769Y-79186929D01*
X88580399Y-79226197D01*
X88682563Y-79264540D01*
X88682565Y-79264541D01*
X88687858Y-79266527D01*
X88818589Y-79290251D01*
X88905180Y-79305965D01*
X88905182Y-79305965D01*
X88910752Y-79306976D01*
X89080541Y-79306976D01*
X89249641Y-79291757D01*
X89255096Y-79290252D01*
X89255099Y-79290251D01*
X89462552Y-79232997D01*
X89462553Y-79232997D01*
X89468012Y-79231490D01*
X89672112Y-79133201D01*
X89683406Y-79124996D01*
X89758083Y-79070739D01*
X89855382Y-79000047D01*
X89950496Y-78900566D01*
X90008022Y-78840399D01*
X90008024Y-78840396D01*
X90011931Y-78836310D01*
X90027730Y-78812376D01*
X90133608Y-78651977D01*
X90133609Y-78651975D01*
X90136728Y-78647250D01*
X90140695Y-78637970D01*
X90178262Y-78550077D01*
X90225762Y-78438946D01*
X90276170Y-78218091D01*
X90286334Y-77991785D01*
X90255925Y-77767301D01*
X90249263Y-77746796D01*
X90207532Y-77618364D01*
X90185922Y-77551855D01*
X90087216Y-77368428D01*
X90081256Y-77357352D01*
X90081256Y-77357351D01*
X90078575Y-77352370D01*
X90075053Y-77347954D01*
X90075050Y-77347949D01*
X89940859Y-77179679D01*
X89940857Y-77179677D01*
X89937333Y-77175258D01*
X89920214Y-77160301D01*
X89771004Y-77029941D01*
X89766737Y-77026213D01*
X89761878Y-77023310D01*
X89761874Y-77023307D01*
X89605693Y-76929993D01*
X89572269Y-76910023D01*
X89438087Y-76859664D01*
X89365475Y-76832412D01*
X89365473Y-76832411D01*
X89360180Y-76830425D01*
X89177772Y-76797323D01*
X89142858Y-76790987D01*
X89142856Y-76790987D01*
X89137286Y-76789976D01*
X88967497Y-76789976D01*
X88798397Y-76805195D01*
X88792942Y-76806700D01*
X88792939Y-76806701D01*
X88585486Y-76863955D01*
X88580026Y-76865462D01*
X88375926Y-76963751D01*
X88371347Y-76967078D01*
X88371345Y-76967079D01*
X88295890Y-77021900D01*
X88192656Y-77096905D01*
X88141848Y-77150046D01*
X88040290Y-77256267D01*
X88036107Y-77260642D01*
X88032990Y-77265364D01*
X87916972Y-77441125D01*
X87911310Y-77449702D01*
X87909084Y-77454911D01*
X87909083Y-77454912D01*
X87899694Y-77476879D01*
X87822276Y-77658006D01*
X87771868Y-77878861D01*
X87761704Y-78105167D01*
X83673714Y-78105167D01*
X83691149Y-78090060D01*
X83719824Y-78074542D01*
X83724405Y-78072063D01*
X83731499Y-78066542D01*
X83897950Y-77936986D01*
X83902069Y-77933780D01*
X83963218Y-77867355D01*
X84051023Y-77771975D01*
X84051026Y-77771971D01*
X84054551Y-77768142D01*
X84122904Y-77663520D01*
X84174837Y-77584031D01*
X84174839Y-77584027D01*
X84177689Y-77579665D01*
X84181638Y-77570664D01*
X84260575Y-77390703D01*
X84268125Y-77373490D01*
X84272190Y-77357440D01*
X84322112Y-77160301D01*
X84322112Y-77160300D01*
X84323393Y-77155242D01*
X84325275Y-77132540D01*
X84341555Y-76936063D01*
X84341985Y-76930874D01*
X84335588Y-76853679D01*
X84323824Y-76711702D01*
X84323823Y-76711697D01*
X84323393Y-76706506D01*
X84317351Y-76682647D01*
X84269407Y-76493320D01*
X84269407Y-76493319D01*
X84268125Y-76488258D01*
X84223406Y-76386308D01*
X84179783Y-76286856D01*
X84179781Y-76286852D01*
X84177689Y-76282083D01*
X84170728Y-76271427D01*
X84067417Y-76113299D01*
X84054551Y-76093606D01*
X84051026Y-76089777D01*
X84051023Y-76089773D01*
X83918413Y-75945722D01*
X83902069Y-75927968D01*
X83881516Y-75911971D01*
X83728518Y-75792886D01*
X83728516Y-75792884D01*
X83724405Y-75789685D01*
X83691149Y-75771688D01*
X83640758Y-75721675D01*
X83625406Y-75652358D01*
X83649966Y-75585745D01*
X83691149Y-75550060D01*
X83719824Y-75534542D01*
X83724405Y-75532063D01*
X83754710Y-75508476D01*
X86278436Y-75508476D01*
X86298719Y-75714410D01*
X86300515Y-75720330D01*
X86300516Y-75720336D01*
X86336735Y-75839734D01*
X86358787Y-75912430D01*
X86456334Y-76094926D01*
X86587609Y-76254886D01*
X86747569Y-76386161D01*
X86930065Y-76483708D01*
X86945065Y-76488258D01*
X87122159Y-76541979D01*
X87122165Y-76541980D01*
X87128085Y-76543776D01*
X87201199Y-76550977D01*
X87279331Y-76558673D01*
X87279338Y-76558673D01*
X87282411Y-76558976D01*
X87385627Y-76558976D01*
X87388700Y-76558673D01*
X87388707Y-76558673D01*
X87466839Y-76550977D01*
X87539953Y-76543776D01*
X87545873Y-76541980D01*
X87545879Y-76541979D01*
X87719206Y-76489401D01*
X87755781Y-76483976D01*
X87803492Y-76483976D01*
X87951398Y-76468935D01*
X88140697Y-76409543D01*
X88314165Y-76313260D01*
X88464701Y-76184029D01*
X88475658Y-76169874D01*
X88582231Y-76032194D01*
X88582233Y-76032190D01*
X88586141Y-76027142D01*
X88673514Y-75849020D01*
X88688048Y-75792886D01*
X88721643Y-75663137D01*
X88721644Y-75663133D01*
X88723243Y-75656956D01*
X88723566Y-75650582D01*
X88723567Y-75650577D01*
X88726665Y-75589482D01*
X90204778Y-75589482D01*
X90234661Y-75911971D01*
X90244262Y-75955809D01*
X90295600Y-76190227D01*
X90303947Y-76228343D01*
X90305237Y-76232003D01*
X90305237Y-76232004D01*
X90401525Y-76505248D01*
X90411587Y-76533803D01*
X90413312Y-76537267D01*
X90413314Y-76537272D01*
X90539146Y-76789976D01*
X90555949Y-76823721D01*
X90622187Y-76923684D01*
X90732700Y-77090467D01*
X90732706Y-77090475D01*
X90734843Y-77093700D01*
X90737367Y-77096646D01*
X90940005Y-77333165D01*
X90945560Y-77339649D01*
X90948424Y-77342260D01*
X90948429Y-77342265D01*
X91066223Y-77449648D01*
X91184903Y-77557839D01*
X91449245Y-77744963D01*
X91452655Y-77746794D01*
X91452658Y-77746796D01*
X91731172Y-77896355D01*
X91731179Y-77896358D01*
X91734579Y-77898184D01*
X91850072Y-77942926D01*
X92019122Y-78008416D01*
X92036579Y-78015179D01*
X92117899Y-78035632D01*
X92346897Y-78093228D01*
X92346904Y-78093229D01*
X92350668Y-78094176D01*
X92672084Y-78133976D01*
X92914906Y-78133976D01*
X92928343Y-78133147D01*
X93153407Y-78119266D01*
X93153414Y-78119265D01*
X93157275Y-78119027D01*
X93475631Y-78059516D01*
X93784261Y-77961334D01*
X93824272Y-77942926D01*
X94074964Y-77827590D01*
X94074972Y-77827586D01*
X94078486Y-77825969D01*
X94081789Y-77823924D01*
X94350538Y-77657522D01*
X94350540Y-77657521D01*
X94353847Y-77655473D01*
X94383739Y-77631419D01*
X94603145Y-77454864D01*
X94603149Y-77454861D01*
X94606168Y-77452431D01*
X94831625Y-77219920D01*
X95005502Y-76989670D01*
X108284704Y-76989670D01*
X108304987Y-77195604D01*
X108306783Y-77201524D01*
X108306784Y-77201530D01*
X108332518Y-77286364D01*
X108365055Y-77393624D01*
X108462602Y-77576120D01*
X108593877Y-77736080D01*
X108753837Y-77867355D01*
X108936333Y-77964902D01*
X108965116Y-77973633D01*
X109128427Y-78023173D01*
X109128433Y-78023174D01*
X109134353Y-78024970D01*
X109207467Y-78032171D01*
X109285599Y-78039867D01*
X109285606Y-78039867D01*
X109288679Y-78040170D01*
X109391895Y-78040170D01*
X109410557Y-78038332D01*
X109450189Y-78042424D01*
X109450482Y-78041000D01*
X109644818Y-78080937D01*
X109793490Y-78080937D01*
X109941396Y-78065896D01*
X110130695Y-78006504D01*
X110304163Y-77910221D01*
X110311692Y-77903758D01*
X110358667Y-77863431D01*
X110454699Y-77780990D01*
X110469460Y-77761921D01*
X110572229Y-77629155D01*
X110572231Y-77629151D01*
X110576139Y-77624103D01*
X110663512Y-77445981D01*
X110669687Y-77422132D01*
X110711641Y-77260098D01*
X110711642Y-77260094D01*
X110713241Y-77253917D01*
X110713564Y-77247543D01*
X110713565Y-77247538D01*
X110721322Y-77094562D01*
X110723289Y-77055774D01*
X110721747Y-77045704D01*
X110694214Y-76865976D01*
X110694214Y-76865975D01*
X110693247Y-76859664D01*
X110624342Y-76673617D01*
X110519397Y-76505248D01*
X110382708Y-76361451D01*
X110377469Y-76357804D01*
X110377466Y-76357802D01*
X110225118Y-76251765D01*
X110219871Y-76248113D01*
X110037552Y-76169874D01*
X110031297Y-76168589D01*
X110031295Y-76168588D01*
X110014321Y-76165100D01*
X109959751Y-76139078D01*
X109931527Y-76115915D01*
X109931518Y-76115909D01*
X109926737Y-76111985D01*
X109744241Y-76014438D01*
X109690127Y-75998023D01*
X109552147Y-75956167D01*
X109552141Y-75956166D01*
X109546221Y-75954370D01*
X109458418Y-75945722D01*
X109394975Y-75939473D01*
X109394968Y-75939473D01*
X109391895Y-75939170D01*
X109288679Y-75939170D01*
X109285606Y-75939473D01*
X109285599Y-75939473D01*
X109222156Y-75945722D01*
X109134353Y-75954370D01*
X109128433Y-75956166D01*
X109128427Y-75956167D01*
X108990447Y-75998023D01*
X108936333Y-76014438D01*
X108753837Y-76111985D01*
X108593877Y-76243260D01*
X108462602Y-76403220D01*
X108365055Y-76585716D01*
X108361528Y-76597344D01*
X108306784Y-76777810D01*
X108306783Y-76777816D01*
X108304987Y-76783736D01*
X108284704Y-76989670D01*
X95005502Y-76989670D01*
X95026801Y-76961466D01*
X95041468Y-76936063D01*
X95108331Y-76820251D01*
X95188736Y-76680986D01*
X95226555Y-76591634D01*
X95313463Y-76386308D01*
X95313466Y-76386300D01*
X95314976Y-76382732D01*
X95403608Y-76071225D01*
X95406466Y-76052817D01*
X95448094Y-75784638D01*
X95453287Y-75751187D01*
X95454196Y-75721675D01*
X95459234Y-75558139D01*
X96934747Y-75558139D01*
X96935714Y-75564451D01*
X96935714Y-75564453D01*
X96951789Y-75669390D01*
X96964789Y-75754249D01*
X97033694Y-75940296D01*
X97138639Y-76108665D01*
X97275328Y-76252462D01*
X97280567Y-76256109D01*
X97280570Y-76256111D01*
X97431437Y-76361117D01*
X97438165Y-76365800D01*
X97620484Y-76444039D01*
X97626742Y-76445325D01*
X97626745Y-76445326D01*
X97680205Y-76456312D01*
X97814820Y-76483976D01*
X97912257Y-76483976D01*
X97948832Y-76489401D01*
X98122159Y-76541979D01*
X98122165Y-76541980D01*
X98128085Y-76543776D01*
X98201199Y-76550977D01*
X98279331Y-76558673D01*
X98279338Y-76558673D01*
X98282411Y-76558976D01*
X98385627Y-76558976D01*
X98388700Y-76558673D01*
X98388707Y-76558673D01*
X98466839Y-76550977D01*
X98539953Y-76543776D01*
X98545873Y-76541980D01*
X98545879Y-76541979D01*
X98722973Y-76488258D01*
X98737973Y-76483708D01*
X98920469Y-76386161D01*
X99080429Y-76254886D01*
X99211704Y-76094926D01*
X99309251Y-75912430D01*
X99331303Y-75839734D01*
X99367522Y-75720336D01*
X99367523Y-75720330D01*
X99369319Y-75714410D01*
X99389602Y-75508476D01*
X99369319Y-75302542D01*
X99367523Y-75296622D01*
X99367522Y-75296616D01*
X99311046Y-75110440D01*
X99309251Y-75104522D01*
X99211704Y-74922026D01*
X99080429Y-74762066D01*
X98920469Y-74630791D01*
X98909313Y-74624828D01*
X99582867Y-74624828D01*
X99583557Y-74631393D01*
X99599955Y-74787407D01*
X99602829Y-74814756D01*
X99661844Y-74996384D01*
X99757331Y-75161772D01*
X99761749Y-75166679D01*
X99761750Y-75166680D01*
X99868890Y-75285671D01*
X99885118Y-75303694D01*
X99962611Y-75359996D01*
X100031291Y-75409895D01*
X100039619Y-75415946D01*
X100045647Y-75418630D01*
X100045649Y-75418631D01*
X100135900Y-75458813D01*
X100214083Y-75493622D01*
X100286661Y-75509049D01*
X100394427Y-75531956D01*
X100394432Y-75531956D01*
X100400884Y-75533328D01*
X100591858Y-75533328D01*
X100598310Y-75531956D01*
X100598315Y-75531956D01*
X100706081Y-75509049D01*
X100778659Y-75493622D01*
X100856842Y-75458813D01*
X100947093Y-75418631D01*
X100947095Y-75418630D01*
X100953123Y-75415946D01*
X100961452Y-75409895D01*
X101030131Y-75359996D01*
X101107624Y-75303694D01*
X101123852Y-75285671D01*
X101230992Y-75166680D01*
X101230993Y-75166679D01*
X101235411Y-75161772D01*
X101330898Y-74996384D01*
X101389913Y-74814756D01*
X101392788Y-74787407D01*
X101403844Y-74682212D01*
X113649754Y-74682212D01*
X113652150Y-74696206D01*
X113651863Y-74701430D01*
X113652290Y-74708857D01*
X113653172Y-74714009D01*
X113652393Y-74728188D01*
X113657843Y-74741300D01*
X113658723Y-74746440D01*
X113660798Y-74753610D01*
X113662802Y-74758431D01*
X113665198Y-74772425D01*
X113673429Y-74783995D01*
X113675431Y-74788811D01*
X113679050Y-74795341D01*
X113682076Y-74799595D01*
X113687525Y-74812703D01*
X113698122Y-74822150D01*
X113701149Y-74826405D01*
X113706137Y-74831972D01*
X113710026Y-74835439D01*
X113718254Y-74847004D01*
X113730685Y-74853854D01*
X113734580Y-74857326D01*
X113740676Y-74861640D01*
X113745248Y-74864159D01*
X113755845Y-74873606D01*
X113843826Y-74898834D01*
X113843827Y-74898834D01*
X115486642Y-75369904D01*
X117282089Y-75884741D01*
X117282090Y-75884741D01*
X117282093Y-75884742D01*
X117282094Y-75884742D01*
X117304368Y-75891129D01*
X117318362Y-75888733D01*
X117323586Y-75889020D01*
X117331013Y-75888593D01*
X117336165Y-75887711D01*
X117350344Y-75888490D01*
X117363456Y-75883040D01*
X117368596Y-75882160D01*
X117375766Y-75880085D01*
X117380587Y-75878081D01*
X117394581Y-75875685D01*
X117406151Y-75867454D01*
X117410967Y-75865452D01*
X117417497Y-75861833D01*
X117421751Y-75858807D01*
X117434859Y-75853358D01*
X117444306Y-75842761D01*
X117448561Y-75839734D01*
X117454128Y-75834746D01*
X117457595Y-75830857D01*
X117469160Y-75822629D01*
X117476010Y-75810198D01*
X117479482Y-75806303D01*
X117483796Y-75800207D01*
X117486315Y-75795635D01*
X117495762Y-75785038D01*
X117520990Y-75697057D01*
X117520990Y-75697056D01*
X117945651Y-74216088D01*
X119417941Y-74216088D01*
X119418631Y-74222653D01*
X119436312Y-74390874D01*
X119437903Y-74406016D01*
X119496918Y-74587644D01*
X119500221Y-74593366D01*
X119500222Y-74593367D01*
X119533584Y-74651152D01*
X119592405Y-74753032D01*
X119596823Y-74757939D01*
X119596824Y-74757940D01*
X119687087Y-74858187D01*
X119720192Y-74894954D01*
X119764963Y-74927482D01*
X119858649Y-74995549D01*
X119874693Y-75007206D01*
X119880721Y-75009890D01*
X119880723Y-75009891D01*
X120018494Y-75071230D01*
X120049157Y-75084882D01*
X120125908Y-75101196D01*
X120229501Y-75123216D01*
X120229506Y-75123216D01*
X120235958Y-75124588D01*
X120426932Y-75124588D01*
X120433384Y-75123216D01*
X120433389Y-75123216D01*
X120536982Y-75101196D01*
X120613733Y-75084882D01*
X120644396Y-75071230D01*
X120782167Y-75009891D01*
X120782169Y-75009890D01*
X120788197Y-75007206D01*
X120804242Y-74995549D01*
X120897927Y-74927482D01*
X120942698Y-74894954D01*
X120975803Y-74858187D01*
X121066066Y-74757940D01*
X121066067Y-74757939D01*
X121070485Y-74753032D01*
X121129306Y-74651152D01*
X121162668Y-74593367D01*
X121162669Y-74593366D01*
X121165972Y-74587644D01*
X121224987Y-74406016D01*
X121226579Y-74390874D01*
X121244259Y-74222653D01*
X121244949Y-74216088D01*
X121232075Y-74093602D01*
X121225677Y-74032723D01*
X121225677Y-74032721D01*
X121224987Y-74026160D01*
X121165972Y-73844532D01*
X121159034Y-73832514D01*
X121115315Y-73756791D01*
X121070485Y-73679144D01*
X121049870Y-73656248D01*
X120947120Y-73542133D01*
X120947119Y-73542132D01*
X120942698Y-73537222D01*
X120788197Y-73424970D01*
X120782169Y-73422286D01*
X120782167Y-73422285D01*
X120619764Y-73349979D01*
X120619763Y-73349979D01*
X120613733Y-73347294D01*
X120520332Y-73327441D01*
X120433389Y-73308960D01*
X120433384Y-73308960D01*
X120426932Y-73307588D01*
X120235958Y-73307588D01*
X120229506Y-73308960D01*
X120229501Y-73308960D01*
X120142558Y-73327441D01*
X120049157Y-73347294D01*
X120043127Y-73349979D01*
X120043126Y-73349979D01*
X119880723Y-73422285D01*
X119880721Y-73422286D01*
X119874693Y-73424970D01*
X119720192Y-73537222D01*
X119715771Y-73542132D01*
X119715770Y-73542133D01*
X119613021Y-73656248D01*
X119592405Y-73679144D01*
X119547575Y-73756791D01*
X119503857Y-73832514D01*
X119496918Y-73844532D01*
X119437903Y-74026160D01*
X119437213Y-74032721D01*
X119437213Y-74032723D01*
X119430815Y-74093602D01*
X119417941Y-74216088D01*
X117945651Y-74216088D01*
X118369079Y-72739421D01*
X118369079Y-72739420D01*
X118375466Y-72717146D01*
X118373070Y-72703152D01*
X118373357Y-72697927D01*
X118372930Y-72690500D01*
X118372048Y-72685348D01*
X118372827Y-72671169D01*
X118367377Y-72658058D01*
X118366497Y-72652916D01*
X118364423Y-72645751D01*
X118362418Y-72640928D01*
X118360022Y-72626933D01*
X118351791Y-72615363D01*
X118349789Y-72610547D01*
X118346170Y-72604017D01*
X118343144Y-72599763D01*
X118337695Y-72586655D01*
X118327098Y-72577208D01*
X118324071Y-72572953D01*
X118319083Y-72567386D01*
X118315194Y-72563919D01*
X118306966Y-72552354D01*
X118294535Y-72545504D01*
X118290640Y-72542032D01*
X118284544Y-72537718D01*
X118279972Y-72535199D01*
X118269375Y-72525752D01*
X118181394Y-72500524D01*
X118181393Y-72500524D01*
X115856235Y-71833795D01*
X114743131Y-71514617D01*
X114743130Y-71514617D01*
X114743127Y-71514616D01*
X114743126Y-71514616D01*
X114720852Y-71508229D01*
X114706858Y-71510625D01*
X114701634Y-71510338D01*
X114694207Y-71510765D01*
X114689055Y-71511647D01*
X114674876Y-71510868D01*
X114661764Y-71516318D01*
X114656624Y-71517198D01*
X114649454Y-71519273D01*
X114644633Y-71521277D01*
X114630639Y-71523673D01*
X114619069Y-71531904D01*
X114614253Y-71533906D01*
X114607723Y-71537525D01*
X114603469Y-71540551D01*
X114590361Y-71546000D01*
X114580914Y-71556597D01*
X114576659Y-71559624D01*
X114571092Y-71564612D01*
X114567625Y-71568501D01*
X114556060Y-71576729D01*
X114549210Y-71589160D01*
X114545738Y-71593055D01*
X114541422Y-71599153D01*
X114538903Y-71603725D01*
X114529458Y-71614320D01*
X114516759Y-71658608D01*
X113664499Y-74630791D01*
X113649754Y-74682212D01*
X101403844Y-74682212D01*
X101409185Y-74631393D01*
X101409875Y-74624828D01*
X101393432Y-74468378D01*
X101390603Y-74441463D01*
X101390603Y-74441461D01*
X101389913Y-74434900D01*
X101330898Y-74253272D01*
X101307021Y-74211915D01*
X101283803Y-74171702D01*
X101235411Y-74087884D01*
X101184365Y-74031191D01*
X101112046Y-73950873D01*
X101112045Y-73950872D01*
X101107624Y-73945962D01*
X100953123Y-73833710D01*
X100947095Y-73831026D01*
X100947093Y-73831025D01*
X100784690Y-73758719D01*
X100784689Y-73758719D01*
X100778659Y-73756034D01*
X100685258Y-73736181D01*
X100598315Y-73717700D01*
X100598310Y-73717700D01*
X100591858Y-73716328D01*
X100400884Y-73716328D01*
X100394432Y-73717700D01*
X100394427Y-73717700D01*
X100307484Y-73736181D01*
X100214083Y-73756034D01*
X100208053Y-73758719D01*
X100208052Y-73758719D01*
X100045649Y-73831025D01*
X100045647Y-73831026D01*
X100039619Y-73833710D01*
X99885118Y-73945962D01*
X99880697Y-73950872D01*
X99880696Y-73950873D01*
X99808378Y-74031191D01*
X99757331Y-74087884D01*
X99708939Y-74171702D01*
X99685722Y-74211915D01*
X99661844Y-74253272D01*
X99602829Y-74434900D01*
X99602139Y-74441461D01*
X99602139Y-74441463D01*
X99599310Y-74468378D01*
X99582867Y-74624828D01*
X98909313Y-74624828D01*
X98737973Y-74533244D01*
X98688895Y-74518357D01*
X98545879Y-74474973D01*
X98545873Y-74474972D01*
X98539953Y-74473176D01*
X98466839Y-74465975D01*
X98388707Y-74458279D01*
X98388700Y-74458279D01*
X98385627Y-74457976D01*
X98282411Y-74457976D01*
X98279338Y-74458279D01*
X98279331Y-74458279D01*
X98201199Y-74465975D01*
X98128085Y-74473176D01*
X98122165Y-74474972D01*
X98122159Y-74474973D01*
X97948832Y-74527551D01*
X97912257Y-74532976D01*
X97864546Y-74532976D01*
X97716640Y-74548017D01*
X97527341Y-74607409D01*
X97353873Y-74703692D01*
X97349028Y-74707851D01*
X97349027Y-74707852D01*
X97327325Y-74726483D01*
X97203337Y-74832923D01*
X97199428Y-74837973D01*
X97199427Y-74837974D01*
X97085807Y-74984758D01*
X97085805Y-74984762D01*
X97081897Y-74989810D01*
X96994524Y-75167932D01*
X96992923Y-75174114D01*
X96992923Y-75174115D01*
X96948184Y-75346908D01*
X96944795Y-75359996D01*
X96944472Y-75366370D01*
X96944471Y-75366375D01*
X96941373Y-75427470D01*
X96934747Y-75558139D01*
X95459234Y-75558139D01*
X95463141Y-75431344D01*
X95463141Y-75431338D01*
X95463260Y-75427470D01*
X95433377Y-75104981D01*
X95397682Y-74941991D01*
X95364921Y-74792398D01*
X95364920Y-74792395D01*
X95364091Y-74788609D01*
X95349231Y-74746440D01*
X95257741Y-74486809D01*
X95257739Y-74486805D01*
X95256451Y-74483149D01*
X95252422Y-74475056D01*
X95113817Y-74196701D01*
X95113816Y-74196699D01*
X95112089Y-74193231D01*
X95018761Y-74052385D01*
X94935338Y-73926485D01*
X94935332Y-73926477D01*
X94933195Y-73923252D01*
X94865752Y-73844532D01*
X94725005Y-73680252D01*
X94725001Y-73680248D01*
X94722478Y-73677303D01*
X94719614Y-73674692D01*
X94719609Y-73674687D01*
X94494476Y-73469452D01*
X94483135Y-73459113D01*
X94218793Y-73271989D01*
X94177258Y-73249685D01*
X93936866Y-73120597D01*
X93936859Y-73120594D01*
X93933459Y-73118768D01*
X93685421Y-73022678D01*
X93635081Y-73003176D01*
X93635079Y-73003175D01*
X93631459Y-73001773D01*
X93455177Y-72957436D01*
X93321141Y-72923724D01*
X93321134Y-72923723D01*
X93317370Y-72922776D01*
X92995954Y-72882976D01*
X92753132Y-72882976D01*
X92739695Y-72883805D01*
X92514631Y-72897686D01*
X92514624Y-72897687D01*
X92510763Y-72897925D01*
X92192407Y-72957436D01*
X91883777Y-73055618D01*
X91880255Y-73057238D01*
X91880256Y-73057238D01*
X91593074Y-73189362D01*
X91593066Y-73189366D01*
X91589552Y-73190983D01*
X91586251Y-73193027D01*
X91586249Y-73193028D01*
X91337101Y-73347294D01*
X91314191Y-73361479D01*
X91311160Y-73363918D01*
X91070011Y-73557970D01*
X91061870Y-73564521D01*
X90836413Y-73797032D01*
X90641237Y-74055486D01*
X90639296Y-74058848D01*
X90639294Y-74058851D01*
X90622532Y-74087884D01*
X90479302Y-74335966D01*
X90474008Y-74348474D01*
X90354575Y-74630644D01*
X90354572Y-74630652D01*
X90353062Y-74634220D01*
X90264430Y-74945727D01*
X90263835Y-74949561D01*
X90263834Y-74949565D01*
X90255678Y-75002107D01*
X90214751Y-75265765D01*
X90214631Y-75269646D01*
X90214631Y-75269651D01*
X90205744Y-75558139D01*
X90204778Y-75589482D01*
X88726665Y-75589482D01*
X88730743Y-75509049D01*
X88733291Y-75458813D01*
X88727900Y-75423617D01*
X88704216Y-75269015D01*
X88704216Y-75269014D01*
X88703249Y-75262703D01*
X88634344Y-75076656D01*
X88529399Y-74908287D01*
X88392710Y-74764490D01*
X88387471Y-74760843D01*
X88387468Y-74760841D01*
X88235120Y-74654804D01*
X88229873Y-74651152D01*
X88047554Y-74572913D01*
X88041296Y-74571627D01*
X88041293Y-74571626D01*
X87950386Y-74552945D01*
X87853218Y-74532976D01*
X87755781Y-74532976D01*
X87719206Y-74527551D01*
X87545879Y-74474973D01*
X87545873Y-74474972D01*
X87539953Y-74473176D01*
X87466839Y-74465975D01*
X87388707Y-74458279D01*
X87388700Y-74458279D01*
X87385627Y-74457976D01*
X87282411Y-74457976D01*
X87279338Y-74458279D01*
X87279331Y-74458279D01*
X87201199Y-74465975D01*
X87128085Y-74473176D01*
X87122165Y-74474972D01*
X87122159Y-74474973D01*
X86979143Y-74518357D01*
X86930065Y-74533244D01*
X86747569Y-74630791D01*
X86587609Y-74762066D01*
X86456334Y-74922026D01*
X86358787Y-75104522D01*
X86356992Y-75110440D01*
X86300516Y-75296616D01*
X86300515Y-75296622D01*
X86298719Y-75302542D01*
X86278436Y-75508476D01*
X83754710Y-75508476D01*
X83897950Y-75396986D01*
X83902069Y-75393780D01*
X83985000Y-75303694D01*
X84051023Y-75231975D01*
X84051026Y-75231971D01*
X84054551Y-75228142D01*
X84122206Y-75124588D01*
X84174837Y-75044031D01*
X84174839Y-75044027D01*
X84177689Y-75039665D01*
X84185515Y-75021825D01*
X84266029Y-74838268D01*
X84268125Y-74833490D01*
X84279491Y-74788609D01*
X84322112Y-74620301D01*
X84322112Y-74620300D01*
X84323393Y-74615242D01*
X84324043Y-74607409D01*
X84341555Y-74396063D01*
X84341985Y-74390874D01*
X84337435Y-74335966D01*
X84323824Y-74171702D01*
X84323823Y-74171697D01*
X84323393Y-74166506D01*
X84293526Y-74048565D01*
X84269407Y-73953320D01*
X84269407Y-73953319D01*
X84268125Y-73948258D01*
X84217880Y-73833710D01*
X84179783Y-73746856D01*
X84179781Y-73746852D01*
X84177689Y-73742083D01*
X84166834Y-73725467D01*
X84061682Y-73564521D01*
X84054551Y-73553606D01*
X84051026Y-73549777D01*
X84051023Y-73549773D01*
X83949469Y-73439457D01*
X83902069Y-73387968D01*
X83848049Y-73345922D01*
X83728518Y-73252886D01*
X83728516Y-73252884D01*
X83724405Y-73249685D01*
X83691149Y-73231688D01*
X83640758Y-73181675D01*
X83625406Y-73112358D01*
X83649966Y-73045745D01*
X83691149Y-73010060D01*
X83719824Y-72994542D01*
X83724405Y-72992063D01*
X83744420Y-72976485D01*
X83897950Y-72856986D01*
X83902069Y-72853780D01*
X84026439Y-72718680D01*
X84051023Y-72691975D01*
X84051026Y-72691971D01*
X84054551Y-72688142D01*
X84120856Y-72586655D01*
X84174837Y-72504031D01*
X84174839Y-72504027D01*
X84177689Y-72499665D01*
X84184803Y-72483448D01*
X84266029Y-72298268D01*
X84268125Y-72293490D01*
X84316049Y-72104244D01*
X90833521Y-72104244D01*
X90839682Y-72117036D01*
X90840845Y-72122132D01*
X90843305Y-72129162D01*
X90845572Y-72133869D01*
X90848731Y-72147712D01*
X90857583Y-72158812D01*
X90859849Y-72163517D01*
X90863816Y-72169831D01*
X90867075Y-72173917D01*
X90873233Y-72186705D01*
X90884330Y-72195555D01*
X90887578Y-72199628D01*
X90892874Y-72204924D01*
X90896947Y-72208172D01*
X90905797Y-72219269D01*
X90918585Y-72225427D01*
X90922671Y-72228686D01*
X90928985Y-72232653D01*
X90933690Y-72234919D01*
X90944790Y-72243771D01*
X90958633Y-72246930D01*
X90963340Y-72249197D01*
X90970370Y-72251657D01*
X90975466Y-72252820D01*
X90988258Y-72258981D01*
X94679784Y-72258981D01*
X94692576Y-72252820D01*
X94697672Y-72251657D01*
X94704702Y-72249197D01*
X94709409Y-72246930D01*
X94723252Y-72243771D01*
X94734352Y-72234919D01*
X94739057Y-72232653D01*
X94745371Y-72228686D01*
X94749457Y-72225427D01*
X94762245Y-72219269D01*
X94771095Y-72208172D01*
X94775168Y-72204924D01*
X94780464Y-72199628D01*
X94783712Y-72195555D01*
X94794809Y-72186705D01*
X94800967Y-72173917D01*
X94804226Y-72169831D01*
X94808193Y-72163517D01*
X94810459Y-72158812D01*
X94819311Y-72147712D01*
X94822470Y-72133869D01*
X94824737Y-72129162D01*
X94827197Y-72122132D01*
X94828360Y-72117036D01*
X94834521Y-72104244D01*
X94834521Y-72083729D01*
X110346481Y-72083729D01*
X110347416Y-72091935D01*
X110347416Y-72091936D01*
X110348958Y-72105466D01*
X110364381Y-72240827D01*
X110367408Y-72248511D01*
X110367408Y-72248512D01*
X110375497Y-72269047D01*
X110422330Y-72387940D01*
X110427242Y-72394578D01*
X110427243Y-72394580D01*
X110505637Y-72500524D01*
X110516380Y-72515042D01*
X110640122Y-72613470D01*
X110647695Y-72616763D01*
X110647697Y-72616764D01*
X110744924Y-72659040D01*
X110744929Y-72659042D01*
X110748715Y-72660688D01*
X110752686Y-72661827D01*
X110752687Y-72661827D01*
X111397180Y-72846631D01*
X111397183Y-72846632D01*
X111401146Y-72847768D01*
X111405223Y-72848377D01*
X111405226Y-72848378D01*
X111441372Y-72853780D01*
X111518259Y-72865271D01*
X111526466Y-72864336D01*
X111666528Y-72848378D01*
X111675358Y-72847372D01*
X111683040Y-72844346D01*
X111683044Y-72844345D01*
X111814782Y-72792451D01*
X111814786Y-72792449D01*
X111822470Y-72789422D01*
X111829110Y-72784509D01*
X111829113Y-72784507D01*
X111942930Y-72700287D01*
X111942931Y-72700286D01*
X111949572Y-72695372D01*
X112048000Y-72571630D01*
X112086032Y-72484163D01*
X112107757Y-72434199D01*
X112107758Y-72434196D01*
X112111048Y-72426629D01*
X112134419Y-72270251D01*
X112132301Y-72251657D01*
X112117455Y-72121360D01*
X112116520Y-72113153D01*
X112058570Y-71966040D01*
X112053657Y-71959400D01*
X112053655Y-71959397D01*
X111969435Y-71845580D01*
X111969434Y-71845579D01*
X111964520Y-71838938D01*
X111840778Y-71740510D01*
X111732185Y-71693293D01*
X111728226Y-71692158D01*
X111728221Y-71692156D01*
X111083720Y-71507349D01*
X111083717Y-71507348D01*
X111079754Y-71506212D01*
X111075677Y-71505603D01*
X111075674Y-71505602D01*
X111005097Y-71495054D01*
X110962641Y-71488709D01*
X110954435Y-71489644D01*
X110954434Y-71489644D01*
X110906886Y-71495062D01*
X110805543Y-71506609D01*
X110797859Y-71509636D01*
X110797858Y-71509636D01*
X110791504Y-71512139D01*
X110658430Y-71564558D01*
X110651792Y-71569470D01*
X110651790Y-71569471D01*
X110559769Y-71637563D01*
X110531328Y-71658608D01*
X110432900Y-71782350D01*
X110410531Y-71833795D01*
X110373143Y-71919781D01*
X110373142Y-71919784D01*
X110369852Y-71927351D01*
X110346481Y-72083729D01*
X94834521Y-72083729D01*
X94834521Y-69855161D01*
X96090026Y-69855161D01*
X96109988Y-70045089D01*
X96169003Y-70226717D01*
X96264490Y-70392105D01*
X96268908Y-70397012D01*
X96268909Y-70397013D01*
X96383370Y-70524135D01*
X96392277Y-70534027D01*
X96546778Y-70646279D01*
X96552806Y-70648963D01*
X96552808Y-70648964D01*
X96715211Y-70721270D01*
X96721242Y-70723955D01*
X96814643Y-70743808D01*
X96901586Y-70762289D01*
X96901591Y-70762289D01*
X96908043Y-70763661D01*
X97099017Y-70763661D01*
X97105469Y-70762289D01*
X97105474Y-70762289D01*
X97192417Y-70743808D01*
X97285818Y-70723955D01*
X97291849Y-70721270D01*
X97454252Y-70648964D01*
X97454254Y-70648963D01*
X97460282Y-70646279D01*
X97614783Y-70534027D01*
X97623690Y-70524135D01*
X97738151Y-70397013D01*
X97738152Y-70397012D01*
X97742570Y-70392105D01*
X97838057Y-70226717D01*
X97897072Y-70045089D01*
X97911372Y-69909034D01*
X106736614Y-69909034D01*
X106737304Y-69915599D01*
X106751574Y-70051367D01*
X106756576Y-70098962D01*
X106815591Y-70280590D01*
X106911078Y-70445978D01*
X106915496Y-70450885D01*
X106915497Y-70450886D01*
X106993854Y-70537910D01*
X107038865Y-70587900D01*
X107193366Y-70700152D01*
X107199394Y-70702836D01*
X107199396Y-70702837D01*
X107336010Y-70763661D01*
X107367830Y-70777828D01*
X107445743Y-70794389D01*
X107548174Y-70816162D01*
X107548179Y-70816162D01*
X107554631Y-70817534D01*
X107745605Y-70817534D01*
X107752057Y-70816162D01*
X107752062Y-70816162D01*
X107854493Y-70794389D01*
X107932406Y-70777828D01*
X107964226Y-70763661D01*
X108100840Y-70702837D01*
X108100842Y-70702836D01*
X108106870Y-70700152D01*
X108261371Y-70587900D01*
X108306382Y-70537910D01*
X108384739Y-70450886D01*
X108384740Y-70450885D01*
X108389158Y-70445978D01*
X108484645Y-70280590D01*
X108543660Y-70098962D01*
X108548663Y-70051367D01*
X108562932Y-69915599D01*
X108563622Y-69909034D01*
X108547802Y-69758514D01*
X108544350Y-69725669D01*
X108544350Y-69725667D01*
X108543660Y-69719106D01*
X108484645Y-69537478D01*
X108472434Y-69516327D01*
X108392459Y-69377808D01*
X108389158Y-69372090D01*
X108336232Y-69313309D01*
X108265793Y-69235079D01*
X108265792Y-69235078D01*
X108261371Y-69230168D01*
X108106870Y-69117916D01*
X108100842Y-69115232D01*
X108100840Y-69115231D01*
X107938437Y-69042925D01*
X107938436Y-69042925D01*
X107932406Y-69040240D01*
X107839005Y-69020387D01*
X107752062Y-69001906D01*
X107752057Y-69001906D01*
X107745605Y-69000534D01*
X107554631Y-69000534D01*
X107548179Y-69001906D01*
X107548174Y-69001906D01*
X107461231Y-69020387D01*
X107367830Y-69040240D01*
X107361800Y-69042925D01*
X107361799Y-69042925D01*
X107199396Y-69115231D01*
X107199394Y-69115232D01*
X107193366Y-69117916D01*
X107038865Y-69230168D01*
X107034444Y-69235078D01*
X107034443Y-69235079D01*
X106964005Y-69313309D01*
X106911078Y-69372090D01*
X106907777Y-69377808D01*
X106827803Y-69516327D01*
X106815591Y-69537478D01*
X106756576Y-69719106D01*
X106755886Y-69725667D01*
X106755886Y-69725669D01*
X106752434Y-69758514D01*
X106736614Y-69909034D01*
X97911372Y-69909034D01*
X97917034Y-69855161D01*
X97914804Y-69833940D01*
X97897762Y-69671796D01*
X97897762Y-69671794D01*
X97897072Y-69665233D01*
X97838057Y-69483605D01*
X97742570Y-69318217D01*
X97663291Y-69230168D01*
X97619205Y-69181206D01*
X97619204Y-69181205D01*
X97614783Y-69176295D01*
X97460282Y-69064043D01*
X97454254Y-69061359D01*
X97454252Y-69061358D01*
X97291849Y-68989052D01*
X97291848Y-68989052D01*
X97285818Y-68986367D01*
X97192417Y-68966514D01*
X97105474Y-68948033D01*
X97105469Y-68948033D01*
X97099017Y-68946661D01*
X96908043Y-68946661D01*
X96901591Y-68948033D01*
X96901586Y-68948033D01*
X96814643Y-68966514D01*
X96721242Y-68986367D01*
X96715212Y-68989052D01*
X96715211Y-68989052D01*
X96552808Y-69061358D01*
X96552806Y-69061359D01*
X96546778Y-69064043D01*
X96392277Y-69176295D01*
X96387856Y-69181205D01*
X96387855Y-69181206D01*
X96343770Y-69230168D01*
X96264490Y-69318217D01*
X96169003Y-69483605D01*
X96109988Y-69665233D01*
X96109298Y-69671794D01*
X96109298Y-69671796D01*
X96092256Y-69833940D01*
X96090026Y-69855161D01*
X94834521Y-69855161D01*
X94834521Y-68912718D01*
X94828360Y-68899926D01*
X94827197Y-68894830D01*
X94824737Y-68887800D01*
X94822470Y-68883093D01*
X94819311Y-68869250D01*
X94810459Y-68858150D01*
X94808193Y-68853445D01*
X94804226Y-68847131D01*
X94800967Y-68843045D01*
X94794809Y-68830257D01*
X94783712Y-68821407D01*
X94780464Y-68817334D01*
X94775168Y-68812038D01*
X94771095Y-68808790D01*
X94762245Y-68797693D01*
X94749457Y-68791535D01*
X94745371Y-68788276D01*
X94739057Y-68784309D01*
X94734352Y-68782043D01*
X94723252Y-68773191D01*
X94709409Y-68770032D01*
X94704702Y-68767765D01*
X94697672Y-68765305D01*
X94692576Y-68764142D01*
X94679784Y-68757981D01*
X90988258Y-68757981D01*
X90975466Y-68764142D01*
X90970370Y-68765305D01*
X90963340Y-68767765D01*
X90958633Y-68770032D01*
X90944790Y-68773191D01*
X90933690Y-68782043D01*
X90928985Y-68784309D01*
X90922671Y-68788276D01*
X90918585Y-68791535D01*
X90905797Y-68797693D01*
X90896947Y-68808790D01*
X90892874Y-68812038D01*
X90887578Y-68817334D01*
X90884330Y-68821407D01*
X90873233Y-68830257D01*
X90867075Y-68843045D01*
X90863816Y-68847131D01*
X90859849Y-68853445D01*
X90857583Y-68858150D01*
X90848731Y-68869250D01*
X90845572Y-68883093D01*
X90843305Y-68887800D01*
X90840845Y-68894830D01*
X90839682Y-68899926D01*
X90833521Y-68912718D01*
X90833521Y-72104244D01*
X84316049Y-72104244D01*
X84319166Y-72091936D01*
X84322112Y-72080301D01*
X84322112Y-72080300D01*
X84323393Y-72075242D01*
X84324154Y-72066069D01*
X84341555Y-71856063D01*
X84341985Y-71850874D01*
X84331582Y-71725331D01*
X84323824Y-71631702D01*
X84323823Y-71631697D01*
X84323393Y-71626506D01*
X84299982Y-71534059D01*
X84269407Y-71413320D01*
X84269407Y-71413319D01*
X84268125Y-71408258D01*
X84216663Y-71290936D01*
X84179783Y-71206856D01*
X84179781Y-71206852D01*
X84177689Y-71202083D01*
X84154629Y-71166786D01*
X84057402Y-71017970D01*
X84054551Y-71013606D01*
X84051026Y-71009777D01*
X84051023Y-71009773D01*
X83911354Y-70858054D01*
X83879933Y-70794389D01*
X83887920Y-70723843D01*
X83932778Y-70668814D01*
X83960020Y-70654661D01*
X84075033Y-70611763D01*
X84087584Y-70602368D01*
X84184879Y-70529533D01*
X84192090Y-70524135D01*
X84261517Y-70431392D01*
X84274318Y-70414292D01*
X84274319Y-70414290D01*
X84279718Y-70407078D01*
X84297846Y-70358476D01*
X86928337Y-70358476D01*
X86948975Y-70515238D01*
X87009483Y-70661317D01*
X87077960Y-70750558D01*
X87099938Y-70779200D01*
X87105737Y-70786758D01*
X87112283Y-70791781D01*
X87125739Y-70802106D01*
X87231178Y-70883012D01*
X87377257Y-70943520D01*
X87385445Y-70944598D01*
X87414135Y-70948375D01*
X87494658Y-70958976D01*
X88173380Y-70958976D01*
X88253904Y-70948375D01*
X88282593Y-70944598D01*
X88290781Y-70943520D01*
X88436860Y-70883012D01*
X88542299Y-70802106D01*
X88555755Y-70791781D01*
X88562301Y-70786758D01*
X88568101Y-70779200D01*
X88590078Y-70750558D01*
X88658555Y-70661317D01*
X88719063Y-70515238D01*
X88739701Y-70358476D01*
X88721534Y-70220485D01*
X88732473Y-70150338D01*
X88779601Y-70097239D01*
X88820258Y-70080794D01*
X88861667Y-70071992D01*
X88896807Y-70064523D01*
X88896810Y-70064522D01*
X88903265Y-70063150D01*
X88909296Y-70060465D01*
X89071699Y-69988159D01*
X89071701Y-69988158D01*
X89077729Y-69985474D01*
X89232230Y-69873222D01*
X89323052Y-69772354D01*
X89355598Y-69736208D01*
X89355599Y-69736207D01*
X89360017Y-69731300D01*
X89455504Y-69565912D01*
X89514519Y-69384284D01*
X89516317Y-69367182D01*
X89533791Y-69200921D01*
X89534481Y-69194356D01*
X89514519Y-69004428D01*
X89455504Y-68822800D01*
X89441009Y-68797693D01*
X89363318Y-68663130D01*
X89360017Y-68657412D01*
X89232230Y-68515490D01*
X89077729Y-68403238D01*
X89071701Y-68400554D01*
X89071699Y-68400553D01*
X88909296Y-68328247D01*
X88909295Y-68328247D01*
X88903265Y-68325562D01*
X88809865Y-68305709D01*
X88722921Y-68287228D01*
X88722916Y-68287228D01*
X88716464Y-68285856D01*
X88525490Y-68285856D01*
X88519038Y-68287228D01*
X88519033Y-68287228D01*
X88432089Y-68305709D01*
X88338689Y-68325562D01*
X88332659Y-68328247D01*
X88332658Y-68328247D01*
X88170255Y-68400553D01*
X88170253Y-68400554D01*
X88164225Y-68403238D01*
X88009724Y-68515490D01*
X87881937Y-68657412D01*
X87878636Y-68663130D01*
X87800946Y-68797693D01*
X87786450Y-68822800D01*
X87727435Y-69004428D01*
X87707473Y-69194356D01*
X87708163Y-69200921D01*
X87725638Y-69367182D01*
X87727435Y-69384284D01*
X87786450Y-69565912D01*
X87789754Y-69571635D01*
X87792438Y-69577663D01*
X87790532Y-69578511D01*
X87804957Y-69637971D01*
X87781737Y-69705063D01*
X87725929Y-69748950D01*
X87679100Y-69757976D01*
X87494658Y-69757976D01*
X87377257Y-69773432D01*
X87231178Y-69833940D01*
X87105737Y-69930194D01*
X87009483Y-70055635D01*
X86948975Y-70201714D01*
X86947897Y-70209902D01*
X86946503Y-70220492D01*
X86928337Y-70358476D01*
X84297846Y-70358476D01*
X84330818Y-70270075D01*
X84337329Y-70209512D01*
X84337329Y-68412236D01*
X84330818Y-68351673D01*
X84279718Y-68214670D01*
X84192090Y-68097613D01*
X84075033Y-68009985D01*
X83938030Y-67958885D01*
X83901124Y-67954917D01*
X83880817Y-67952734D01*
X83880814Y-67952734D01*
X83877467Y-67952374D01*
X82080191Y-67952374D01*
X82076844Y-67952734D01*
X82076841Y-67952734D01*
X82056534Y-67954917D01*
X82019628Y-67958885D01*
X81882625Y-68009985D01*
X81765568Y-68097613D01*
X81677940Y-68214670D01*
X81626840Y-68351673D01*
X81620329Y-68412236D01*
X81620329Y-70209512D01*
X81626840Y-70270075D01*
X81677940Y-70407078D01*
X81683339Y-70414290D01*
X81683340Y-70414292D01*
X81696141Y-70431392D01*
X81765568Y-70524135D01*
X81772779Y-70529533D01*
X81870075Y-70602368D01*
X81882625Y-70611763D01*
X81997637Y-70654661D01*
X82054471Y-70697207D01*
X82079282Y-70763727D01*
X82064190Y-70833101D01*
X82046304Y-70858054D01*
X81906635Y-71009773D01*
X81906632Y-71009777D01*
X81903107Y-71013606D01*
X81900256Y-71017970D01*
X81803030Y-71166786D01*
X81779969Y-71202083D01*
X81777877Y-71206852D01*
X81777875Y-71206856D01*
X81740995Y-71290936D01*
X81689533Y-71408258D01*
X81688251Y-71413319D01*
X81688251Y-71413320D01*
X81657676Y-71534059D01*
X81634265Y-71626506D01*
X81633835Y-71631697D01*
X81633834Y-71631702D01*
X81626076Y-71725331D01*
X81615673Y-71850874D01*
X81616103Y-71856063D01*
X81633505Y-72066069D01*
X81634265Y-72075242D01*
X81635546Y-72080300D01*
X81635546Y-72080301D01*
X81638493Y-72091936D01*
X81689533Y-72293490D01*
X81691629Y-72298268D01*
X81772856Y-72483448D01*
X81779969Y-72499665D01*
X81782819Y-72504027D01*
X81782821Y-72504031D01*
X81836802Y-72586655D01*
X81903107Y-72688142D01*
X81906632Y-72691971D01*
X81906635Y-72691975D01*
X81931219Y-72718680D01*
X82055589Y-72853780D01*
X82059708Y-72856986D01*
X82213239Y-72976485D01*
X82233253Y-72992063D01*
X82237834Y-72994542D01*
X82266509Y-73010060D01*
X82316900Y-73060073D01*
X82332252Y-73129390D01*
X82307692Y-73196003D01*
X82266510Y-73231687D01*
X82233253Y-73249685D01*
X82229142Y-73252884D01*
X82229140Y-73252886D01*
X82109609Y-73345922D01*
X82055589Y-73387968D01*
X82008189Y-73439457D01*
X81906635Y-73549773D01*
X81906632Y-73549777D01*
X81903107Y-73553606D01*
X81895976Y-73564521D01*
X81790825Y-73725467D01*
X81779969Y-73742083D01*
X81777877Y-73746852D01*
X81777875Y-73746856D01*
X81739778Y-73833710D01*
X81689533Y-73948258D01*
X81688251Y-73953319D01*
X81688251Y-73953320D01*
X81664132Y-74048565D01*
X81634265Y-74166506D01*
X81633835Y-74171697D01*
X81633834Y-74171702D01*
X81620223Y-74335966D01*
X81615673Y-74390874D01*
X81616103Y-74396063D01*
X81633616Y-74607409D01*
X81634265Y-74615242D01*
X81635546Y-74620300D01*
X81635546Y-74620301D01*
X81678168Y-74788609D01*
X81689533Y-74833490D01*
X81691629Y-74838268D01*
X81772144Y-75021825D01*
X81779969Y-75039665D01*
X81782819Y-75044027D01*
X81782821Y-75044031D01*
X81835452Y-75124588D01*
X81903107Y-75228142D01*
X81906632Y-75231971D01*
X81906635Y-75231975D01*
X81972658Y-75303694D01*
X82055589Y-75393780D01*
X82059708Y-75396986D01*
X82202949Y-75508476D01*
X82233253Y-75532063D01*
X82237834Y-75534542D01*
X82266509Y-75550060D01*
X82316900Y-75600073D01*
X82332252Y-75669390D01*
X82307692Y-75736003D01*
X82266510Y-75771687D01*
X82233253Y-75789685D01*
X82229142Y-75792884D01*
X82229140Y-75792886D01*
X82076142Y-75911971D01*
X82055589Y-75927968D01*
X82039245Y-75945722D01*
X81906635Y-76089773D01*
X81906632Y-76089777D01*
X81903107Y-76093606D01*
X81890241Y-76113299D01*
X81786931Y-76271427D01*
X81779969Y-76282083D01*
X81777877Y-76286852D01*
X81777875Y-76286856D01*
X81734252Y-76386308D01*
X81689533Y-76488258D01*
X81688251Y-76493319D01*
X81688251Y-76493320D01*
X81640307Y-76682647D01*
X81634265Y-76706506D01*
X81633835Y-76711697D01*
X81633834Y-76711702D01*
X81622070Y-76853679D01*
X81615673Y-76930874D01*
X81616103Y-76936063D01*
X81632384Y-77132540D01*
X81634265Y-77155242D01*
X81635546Y-77160300D01*
X81635546Y-77160301D01*
X81685469Y-77357440D01*
X81689533Y-77373490D01*
X81697083Y-77390703D01*
X81776021Y-77570664D01*
X81779969Y-77579665D01*
X81782819Y-77584027D01*
X81782821Y-77584031D01*
X81834754Y-77663520D01*
X81903107Y-77768142D01*
X81906632Y-77771971D01*
X81906635Y-77771975D01*
X81994440Y-77867355D01*
X82055589Y-77933780D01*
X82059708Y-77936986D01*
X82226160Y-78066542D01*
X82233253Y-78072063D01*
X82237834Y-78074542D01*
X82266509Y-78090060D01*
X82316900Y-78140073D01*
X82332252Y-78209390D01*
X82307692Y-78276003D01*
X82266510Y-78311687D01*
X82233253Y-78329685D01*
X82229142Y-78332884D01*
X82229140Y-78332886D01*
X82174497Y-78375417D01*
X82055589Y-78467968D01*
X82027150Y-78498861D01*
X81906635Y-78629773D01*
X81906632Y-78629777D01*
X81903107Y-78633606D01*
X81900256Y-78637970D01*
X81784137Y-78815704D01*
X81779969Y-78822083D01*
X81777877Y-78826852D01*
X81777875Y-78826856D01*
X81755193Y-78878566D01*
X81689533Y-79028258D01*
X81688251Y-79033319D01*
X81688251Y-79033320D01*
X81637686Y-79232997D01*
X81634265Y-79246506D01*
X81633835Y-79251697D01*
X81633834Y-79251702D01*
X81622870Y-79384023D01*
X81615673Y-79470874D01*
X81616103Y-79476063D01*
X81633427Y-79685125D01*
X81634265Y-79695242D01*
X81635546Y-79700300D01*
X81635546Y-79700301D01*
X81687819Y-79906720D01*
X81689533Y-79913490D01*
X81709668Y-79959394D01*
X81764901Y-80085312D01*
X81779969Y-80119665D01*
X81782819Y-80124027D01*
X81782821Y-80124031D01*
X81854367Y-80233540D01*
X81903107Y-80308142D01*
X81906632Y-80311971D01*
X81906635Y-80311975D01*
X81966912Y-80377452D01*
X82055589Y-80473780D01*
X82059708Y-80476986D01*
X82226878Y-80607101D01*
X82233253Y-80612063D01*
X82237834Y-80614542D01*
X82266509Y-80630060D01*
X82316900Y-80680073D01*
X82332252Y-80749390D01*
X82307692Y-80816003D01*
X82266510Y-80851687D01*
X82233253Y-80869685D01*
X82229142Y-80872884D01*
X82229140Y-80872886D01*
X82147533Y-80936404D01*
X82055589Y-81007968D01*
X82030194Y-81035554D01*
X81906635Y-81169773D01*
X81906632Y-81169777D01*
X81903107Y-81173606D01*
X81887897Y-81196887D01*
X81828293Y-81288118D01*
X81779969Y-81362083D01*
X81777877Y-81366852D01*
X81777875Y-81366856D01*
X81720320Y-81498070D01*
X81689533Y-81568258D01*
X81688251Y-81573319D01*
X81688251Y-81573320D01*
X81641720Y-81757067D01*
X81634265Y-81786506D01*
X81633835Y-81791697D01*
X81633834Y-81791702D01*
X81625640Y-81890593D01*
X81615673Y-82010874D01*
X79155633Y-82010874D01*
X79202546Y-81934319D01*
X79208978Y-81918792D01*
X79297541Y-81704981D01*
X79297542Y-81704979D01*
X79299435Y-81700408D01*
X79329946Y-81573320D01*
X79357384Y-81459033D01*
X79357385Y-81459027D01*
X79358539Y-81454220D01*
X79378404Y-81201817D01*
X79358539Y-80949414D01*
X79352023Y-80922270D01*
X79313518Y-80761888D01*
X79299435Y-80703226D01*
X79297541Y-80698654D01*
X79297539Y-80698647D01*
X79264823Y-80619662D01*
X79257234Y-80549072D01*
X79262162Y-80530235D01*
X79275857Y-80490665D01*
X79281684Y-80473829D01*
X79296180Y-80373006D01*
X79310958Y-80270229D01*
X79310958Y-80270224D01*
X79311812Y-80264286D01*
X79301739Y-80052828D01*
X79251829Y-79847098D01*
X79246217Y-79834808D01*
X79199788Y-79733143D01*
X79163887Y-79654531D01*
X79159296Y-79648083D01*
X79044571Y-79486975D01*
X79044570Y-79486973D01*
X79041090Y-79482087D01*
X78971317Y-79415559D01*
X78892215Y-79340135D01*
X78892213Y-79340134D01*
X78887877Y-79335999D01*
X78709785Y-79221546D01*
X78513252Y-79142866D01*
X78305380Y-79102802D01*
X78146728Y-79102802D01*
X78079023Y-79109267D01*
X77994768Y-79117312D01*
X77994764Y-79117313D01*
X77988792Y-79117883D01*
X77899862Y-79143995D01*
X77791434Y-79175832D01*
X77791432Y-79175833D01*
X77785669Y-79177525D01*
X77597505Y-79274531D01*
X77431099Y-79405394D01*
X77427172Y-79409926D01*
X77427171Y-79409927D01*
X77364644Y-79482087D01*
X77292466Y-79565384D01*
X77244719Y-79648085D01*
X77193338Y-79697077D01*
X77183825Y-79701490D01*
X77124979Y-79725865D01*
X77037002Y-79762306D01*
X77036998Y-79762308D01*
X77032428Y-79764201D01*
X76816554Y-79896489D01*
X76624032Y-80060919D01*
X76459602Y-80253441D01*
X76457018Y-80257657D01*
X76457017Y-80257659D01*
X76452985Y-80264238D01*
X76400337Y-80311869D01*
X76330295Y-80323475D01*
X76316139Y-80320921D01*
X76256389Y-80306576D01*
X76256383Y-80306575D01*
X76251576Y-80305421D01*
X75999173Y-80285556D01*
X75746770Y-80305421D01*
X75741963Y-80306575D01*
X75741957Y-80306576D01*
X75607298Y-80338905D01*
X75500582Y-80364525D01*
X75496011Y-80366418D01*
X75496009Y-80366419D01*
X75271245Y-80459519D01*
X75271241Y-80459521D01*
X75266671Y-80461414D01*
X75050797Y-80593702D01*
X74918064Y-80707067D01*
X74868511Y-80749390D01*
X74858275Y-80758132D01*
X74855067Y-80761888D01*
X74843137Y-80775856D01*
X74693845Y-80950654D01*
X74561557Y-81166528D01*
X74559664Y-81171098D01*
X74559662Y-81171102D01*
X74466562Y-81395866D01*
X74464668Y-81400439D01*
X74451526Y-81455180D01*
X74406981Y-81640725D01*
X74405564Y-81646627D01*
X74385699Y-81899030D01*
X74397518Y-82049193D01*
X74399765Y-82077747D01*
X74385169Y-82147227D01*
X74335327Y-82197786D01*
X74266062Y-82213373D01*
X74206032Y-82193631D01*
X74155456Y-82161128D01*
X74150407Y-82157883D01*
X74131199Y-82150193D01*
X74058495Y-82121087D01*
X73953874Y-82079203D01*
X73746002Y-82039139D01*
X73587350Y-82039139D01*
X73517025Y-82045854D01*
X73435390Y-82053649D01*
X73435386Y-82053650D01*
X73429414Y-82054220D01*
X73336731Y-82081434D01*
X73232056Y-82112169D01*
X73232054Y-82112170D01*
X73226291Y-82113862D01*
X73038127Y-82210868D01*
X72871721Y-82341731D01*
X72733088Y-82501721D01*
X72730086Y-82506920D01*
X72730085Y-82506922D01*
X72657089Y-82633356D01*
X72605707Y-82682349D01*
X72535993Y-82695785D01*
X72470082Y-82669399D01*
X72440537Y-82636191D01*
X72438418Y-82632733D01*
X72358934Y-82503027D01*
X72194504Y-82310505D01*
X72001982Y-82146075D01*
X71786108Y-82013787D01*
X71781538Y-82011894D01*
X71781534Y-82011892D01*
X71556770Y-81918792D01*
X71556768Y-81918791D01*
X71552197Y-81916898D01*
X71442628Y-81890593D01*
X71310822Y-81858949D01*
X71310816Y-81858948D01*
X71306009Y-81857794D01*
X71053606Y-81837929D01*
X70801203Y-81857794D01*
X70796396Y-81858948D01*
X70796390Y-81858949D01*
X70664584Y-81890593D01*
X70555015Y-81916898D01*
X70550444Y-81918791D01*
X70550442Y-81918792D01*
X70325678Y-82011892D01*
X70325674Y-82011894D01*
X70321104Y-82013787D01*
X70105230Y-82146075D01*
X69912708Y-82310505D01*
X69748278Y-82503027D01*
X69615990Y-82718901D01*
X69614097Y-82723471D01*
X69614095Y-82723475D01*
X69554210Y-82868051D01*
X69519101Y-82952812D01*
X69505385Y-83009943D01*
X69462012Y-83190608D01*
X69459997Y-83199000D01*
X69440132Y-83451403D01*
X65411718Y-83451403D01*
X65155909Y-82015305D01*
X64896141Y-80556975D01*
X68042263Y-80556975D01*
X68072672Y-80781459D01*
X68142675Y-80996905D01*
X68250022Y-81196390D01*
X68253544Y-81200806D01*
X68253547Y-81200811D01*
X68385964Y-81366856D01*
X68391264Y-81373502D01*
X68395523Y-81377223D01*
X68395525Y-81377225D01*
X68476266Y-81447766D01*
X68561860Y-81522547D01*
X68566719Y-81525450D01*
X68566723Y-81525453D01*
X68638367Y-81568258D01*
X68756328Y-81638737D01*
X68842301Y-81671003D01*
X68963122Y-81716348D01*
X68963124Y-81716349D01*
X68968417Y-81718335D01*
X69128469Y-81747380D01*
X69185739Y-81757773D01*
X69185741Y-81757773D01*
X69191311Y-81758784D01*
X69361100Y-81758784D01*
X69530200Y-81743565D01*
X69535655Y-81742060D01*
X69535658Y-81742059D01*
X69743111Y-81684805D01*
X69743112Y-81684805D01*
X69748571Y-81683298D01*
X69952671Y-81585009D01*
X69968760Y-81573320D01*
X70061493Y-81505945D01*
X70135941Y-81451855D01*
X70237514Y-81345618D01*
X70288581Y-81292207D01*
X70288583Y-81292204D01*
X70292490Y-81288118D01*
X70308802Y-81263406D01*
X70414167Y-81103785D01*
X70414168Y-81103783D01*
X70417287Y-81099058D01*
X70506321Y-80890754D01*
X70556729Y-80669899D01*
X70566893Y-80443593D01*
X70536484Y-80219109D01*
X70466481Y-80003663D01*
X70389468Y-79860548D01*
X70361815Y-79809160D01*
X70361815Y-79809159D01*
X70359134Y-79804178D01*
X70355612Y-79799762D01*
X70355609Y-79799757D01*
X70221418Y-79631487D01*
X70221416Y-79631485D01*
X70217892Y-79627066D01*
X70211555Y-79621529D01*
X70051563Y-79481749D01*
X70047296Y-79478021D01*
X70042437Y-79475118D01*
X70042433Y-79475115D01*
X69876874Y-79376198D01*
X69852828Y-79361831D01*
X69697504Y-79303537D01*
X69646034Y-79284220D01*
X69646032Y-79284219D01*
X69640739Y-79282233D01*
X69443866Y-79246506D01*
X69423417Y-79242795D01*
X69423415Y-79242795D01*
X69417845Y-79241784D01*
X69248056Y-79241784D01*
X69078956Y-79257003D01*
X69073501Y-79258508D01*
X69073498Y-79258509D01*
X68897884Y-79306976D01*
X68860585Y-79317270D01*
X68656485Y-79415559D01*
X68651906Y-79418886D01*
X68651904Y-79418887D01*
X68629410Y-79435230D01*
X68473215Y-79548713D01*
X68412447Y-79612271D01*
X68328282Y-79700301D01*
X68316666Y-79712450D01*
X68313549Y-79717172D01*
X68196888Y-79893907D01*
X68191869Y-79901510D01*
X68102835Y-80109814D01*
X68052427Y-80330669D01*
X68042263Y-80556975D01*
X64896141Y-80556975D01*
X64492749Y-78292338D01*
X66143603Y-78292338D01*
X66163886Y-78498272D01*
X66165682Y-78504192D01*
X66165683Y-78504198D01*
X66207497Y-78642040D01*
X66223954Y-78696292D01*
X66321501Y-78878788D01*
X66452776Y-79038748D01*
X66612736Y-79170023D01*
X66795232Y-79267570D01*
X66836370Y-79280049D01*
X66987326Y-79325841D01*
X66987332Y-79325842D01*
X66993252Y-79327638D01*
X67066366Y-79334839D01*
X67144498Y-79342535D01*
X67144505Y-79342535D01*
X67147578Y-79342838D01*
X67250794Y-79342838D01*
X67253867Y-79342535D01*
X67253874Y-79342535D01*
X67332006Y-79334839D01*
X67405120Y-79327638D01*
X67411040Y-79325842D01*
X67411046Y-79325841D01*
X67541200Y-79286359D01*
X67603140Y-79267570D01*
X67608598Y-79264653D01*
X67608602Y-79264651D01*
X67735207Y-79196978D01*
X67781859Y-79182745D01*
X67788867Y-79182033D01*
X67803827Y-79180512D01*
X67803832Y-79180511D01*
X67810185Y-79179865D01*
X67999484Y-79120473D01*
X68172952Y-79024190D01*
X68323488Y-78894959D01*
X68332305Y-78883569D01*
X68441018Y-78743124D01*
X68441020Y-78743120D01*
X68444928Y-78738072D01*
X68532301Y-78559950D01*
X68537539Y-78539719D01*
X68580430Y-78374067D01*
X68580431Y-78374063D01*
X68582030Y-78367886D01*
X68582353Y-78361512D01*
X68582354Y-78361507D01*
X68589694Y-78216748D01*
X68592078Y-78169743D01*
X68584346Y-78119266D01*
X68563003Y-77979945D01*
X68563003Y-77979944D01*
X68562036Y-77973633D01*
X68493131Y-77787586D01*
X68481012Y-77768142D01*
X68412363Y-77658006D01*
X68388186Y-77619217D01*
X68251497Y-77475420D01*
X68246258Y-77471773D01*
X68246255Y-77471771D01*
X68169401Y-77418279D01*
X69986388Y-77418279D01*
X70016271Y-77740768D01*
X70034482Y-77823924D01*
X70081841Y-78040170D01*
X70085557Y-78057140D01*
X70086847Y-78060800D01*
X70086847Y-78060801D01*
X70180725Y-78327206D01*
X70193197Y-78362600D01*
X70194922Y-78366064D01*
X70194924Y-78366069D01*
X70334936Y-78647250D01*
X70337559Y-78652518D01*
X70407883Y-78758648D01*
X70514310Y-78919264D01*
X70514316Y-78919272D01*
X70516453Y-78922497D01*
X70518977Y-78925443D01*
X70714319Y-79153446D01*
X70727170Y-79168446D01*
X70730034Y-79171057D01*
X70730039Y-79171062D01*
X70847833Y-79278445D01*
X70966513Y-79386636D01*
X71230855Y-79573760D01*
X71234265Y-79575591D01*
X71234268Y-79575593D01*
X71512782Y-79725152D01*
X71512789Y-79725155D01*
X71516189Y-79726981D01*
X71675017Y-79788511D01*
X71812149Y-79841636D01*
X71818189Y-79843976D01*
X71853810Y-79852935D01*
X72128507Y-79922025D01*
X72128514Y-79922026D01*
X72132278Y-79922973D01*
X72453694Y-79962773D01*
X72696516Y-79962773D01*
X72712843Y-79961766D01*
X72935017Y-79948063D01*
X72935024Y-79948062D01*
X72938885Y-79947824D01*
X73257241Y-79888313D01*
X73565871Y-79790131D01*
X73650377Y-79751252D01*
X73856574Y-79656387D01*
X73856582Y-79656383D01*
X73860096Y-79654766D01*
X73868372Y-79649642D01*
X74132148Y-79486319D01*
X74132150Y-79486318D01*
X74135457Y-79484270D01*
X74216709Y-79418887D01*
X74384755Y-79283661D01*
X74384759Y-79283658D01*
X74387778Y-79281228D01*
X74613235Y-79048717D01*
X74617802Y-79042670D01*
X74672415Y-78970350D01*
X74808411Y-78790263D01*
X74820708Y-78768965D01*
X74901891Y-78628351D01*
X74970346Y-78509783D01*
X75006372Y-78424669D01*
X75095073Y-78215105D01*
X75095076Y-78215097D01*
X75096586Y-78211529D01*
X75185218Y-77900022D01*
X75187872Y-77882929D01*
X75234301Y-77583823D01*
X75234897Y-77579984D01*
X75235184Y-77570664D01*
X75244751Y-77260141D01*
X75244751Y-77260135D01*
X75244870Y-77256267D01*
X75214987Y-76933778D01*
X75159576Y-76680760D01*
X75146531Y-76621195D01*
X75146530Y-76621192D01*
X75145701Y-76617406D01*
X75140985Y-76604022D01*
X75106022Y-76504803D01*
X76639180Y-76504803D01*
X76640147Y-76511115D01*
X76640147Y-76511117D01*
X76668255Y-76694601D01*
X76669222Y-76700913D01*
X76738127Y-76886960D01*
X76843072Y-77055329D01*
X76979761Y-77199126D01*
X76985000Y-77202773D01*
X76985003Y-77202775D01*
X77099628Y-77282556D01*
X77142598Y-77312464D01*
X77324917Y-77390703D01*
X77331175Y-77391989D01*
X77331178Y-77391990D01*
X77422085Y-77410671D01*
X77519253Y-77430640D01*
X77667925Y-77430640D01*
X77799565Y-77417253D01*
X77826039Y-77418509D01*
X77826138Y-77417508D01*
X77977384Y-77432405D01*
X77977391Y-77432405D01*
X77980464Y-77432708D01*
X78083680Y-77432708D01*
X78086753Y-77432405D01*
X78086760Y-77432405D01*
X78164892Y-77424709D01*
X78238006Y-77417508D01*
X78243926Y-77415712D01*
X78243932Y-77415711D01*
X78420723Y-77362082D01*
X78436026Y-77357440D01*
X78618522Y-77259893D01*
X78778482Y-77128618D01*
X78909757Y-76968658D01*
X79007304Y-76786162D01*
X79034266Y-76697280D01*
X79065575Y-76594068D01*
X79065576Y-76594062D01*
X79067372Y-76588142D01*
X79087655Y-76382208D01*
X79067372Y-76176274D01*
X79065576Y-76170354D01*
X79065575Y-76170348D01*
X79009099Y-75984172D01*
X79007304Y-75978254D01*
X78909757Y-75795758D01*
X78778482Y-75635798D01*
X78618522Y-75504523D01*
X78436026Y-75406976D01*
X78386948Y-75392089D01*
X78243932Y-75348705D01*
X78243926Y-75348704D01*
X78238006Y-75346908D01*
X78164892Y-75339707D01*
X78086760Y-75332011D01*
X78086753Y-75332011D01*
X78083680Y-75331708D01*
X77980464Y-75331708D01*
X77977391Y-75332011D01*
X77977384Y-75332011D01*
X77899252Y-75339707D01*
X77826138Y-75346908D01*
X77820218Y-75348704D01*
X77820212Y-75348705D01*
X77750329Y-75369904D01*
X77628118Y-75406976D01*
X77622663Y-75409892D01*
X77622656Y-75409895D01*
X77496051Y-75477568D01*
X77449399Y-75491801D01*
X77442391Y-75492513D01*
X77427431Y-75494034D01*
X77427426Y-75494035D01*
X77421073Y-75494681D01*
X77231774Y-75554073D01*
X77058306Y-75650356D01*
X76907770Y-75779587D01*
X76903861Y-75784637D01*
X76903860Y-75784638D01*
X76790240Y-75931422D01*
X76790238Y-75931426D01*
X76786330Y-75936474D01*
X76698957Y-76114596D01*
X76697356Y-76120778D01*
X76697356Y-76120779D01*
X76654356Y-76286856D01*
X76649228Y-76306660D01*
X76648905Y-76313034D01*
X76648904Y-76313039D01*
X76644574Y-76398439D01*
X76639180Y-76504803D01*
X75106022Y-76504803D01*
X75039351Y-76315606D01*
X75039349Y-76315602D01*
X75038061Y-76311946D01*
X75015858Y-76267355D01*
X74895427Y-76025498D01*
X74895426Y-76025496D01*
X74893699Y-76022028D01*
X74743768Y-75795758D01*
X74716948Y-75755282D01*
X74716942Y-75755274D01*
X74714805Y-75752049D01*
X74627869Y-75650577D01*
X74506615Y-75509049D01*
X74506611Y-75509045D01*
X74504088Y-75506100D01*
X74501224Y-75503489D01*
X74501219Y-75503484D01*
X74287558Y-75308707D01*
X74264745Y-75287910D01*
X74000403Y-75100786D01*
X73965786Y-75082197D01*
X73718476Y-74949394D01*
X73718469Y-74949391D01*
X73715069Y-74947565D01*
X73484357Y-74858187D01*
X73416691Y-74831973D01*
X73416689Y-74831972D01*
X73413069Y-74830570D01*
X73236787Y-74786233D01*
X73102751Y-74752521D01*
X73102744Y-74752520D01*
X73098980Y-74751573D01*
X72777564Y-74711773D01*
X72534742Y-74711773D01*
X72521305Y-74712602D01*
X72296241Y-74726483D01*
X72296234Y-74726484D01*
X72292373Y-74726722D01*
X71974017Y-74786233D01*
X71665387Y-74884415D01*
X71661865Y-74886035D01*
X71661866Y-74886035D01*
X71374684Y-75018159D01*
X71374676Y-75018163D01*
X71371162Y-75019780D01*
X71367861Y-75021824D01*
X71367859Y-75021825D01*
X71141837Y-75161772D01*
X71095801Y-75190276D01*
X71092770Y-75192715D01*
X70872577Y-75369904D01*
X70843480Y-75393318D01*
X70618023Y-75625829D01*
X70615688Y-75628921D01*
X70610495Y-75635798D01*
X70422847Y-75884283D01*
X70420906Y-75887645D01*
X70420904Y-75887648D01*
X70391158Y-75939170D01*
X70260912Y-76164763D01*
X70251686Y-76186561D01*
X70136185Y-76459441D01*
X70136182Y-76459449D01*
X70134672Y-76463017D01*
X70046040Y-76774524D01*
X70045445Y-76778358D01*
X70045444Y-76778362D01*
X70020721Y-76937633D01*
X69996361Y-77094562D01*
X69996241Y-77098443D01*
X69996241Y-77098448D01*
X69986590Y-77411737D01*
X69986388Y-77418279D01*
X68169401Y-77418279D01*
X68093907Y-77365734D01*
X68088660Y-77362082D01*
X67906341Y-77283843D01*
X67900083Y-77282557D01*
X67900080Y-77282556D01*
X67793443Y-77260642D01*
X67712005Y-77243906D01*
X67563333Y-77243906D01*
X67431693Y-77257293D01*
X67405219Y-77256037D01*
X67405120Y-77257038D01*
X67253874Y-77242141D01*
X67253867Y-77242141D01*
X67250794Y-77241838D01*
X67147578Y-77241838D01*
X67144505Y-77242141D01*
X67144498Y-77242141D01*
X67066366Y-77249837D01*
X66993252Y-77257038D01*
X66987332Y-77258834D01*
X66987326Y-77258835D01*
X66844310Y-77302219D01*
X66795232Y-77317106D01*
X66612736Y-77414653D01*
X66452776Y-77545928D01*
X66321501Y-77705888D01*
X66223954Y-77888384D01*
X66218592Y-77906061D01*
X66165683Y-78080478D01*
X66165682Y-78080484D01*
X66163886Y-78086404D01*
X66143603Y-78292338D01*
X64492749Y-78292338D01*
X63972186Y-75369904D01*
X63880037Y-74852594D01*
X65138240Y-74852594D01*
X65140946Y-74884400D01*
X65142979Y-74908287D01*
X65143404Y-74913287D01*
X65144048Y-74916598D01*
X65144048Y-74916601D01*
X65237254Y-75396101D01*
X65486341Y-76677542D01*
X65504288Y-76735749D01*
X65508398Y-76742468D01*
X65508400Y-76742472D01*
X65563418Y-76832412D01*
X65580591Y-76860485D01*
X65587267Y-76866535D01*
X65587269Y-76866537D01*
X65603195Y-76880968D01*
X65688944Y-76958671D01*
X65697056Y-76962596D01*
X65697058Y-76962597D01*
X65812457Y-77018429D01*
X65812461Y-77018430D01*
X65820571Y-77022354D01*
X65829466Y-77023835D01*
X65829465Y-77023835D01*
X65957028Y-77045078D01*
X65957031Y-77045078D01*
X65964807Y-77046373D01*
X65996613Y-77043667D01*
X66022132Y-77041496D01*
X66022140Y-77041495D01*
X66025500Y-77041209D01*
X66028811Y-77040565D01*
X66028814Y-77040565D01*
X66955243Y-76860485D01*
X67789755Y-76698272D01*
X67792969Y-76697281D01*
X67792973Y-76697280D01*
X67840431Y-76682647D01*
X67847962Y-76680325D01*
X67854681Y-76676215D01*
X67854685Y-76676213D01*
X67965012Y-76608724D01*
X67965014Y-76608723D01*
X67972698Y-76604022D01*
X67978748Y-76597346D01*
X67978750Y-76597344D01*
X68028919Y-76541979D01*
X68070884Y-76495669D01*
X68074810Y-76487555D01*
X68130642Y-76372156D01*
X68130643Y-76372152D01*
X68134567Y-76364042D01*
X68145152Y-76300479D01*
X68157291Y-76227585D01*
X68157291Y-76227582D01*
X68158586Y-76219806D01*
X68154338Y-76169874D01*
X68153709Y-76162481D01*
X68153708Y-76162473D01*
X68153422Y-76159113D01*
X68143695Y-76109069D01*
X67931643Y-75018159D01*
X67810485Y-74394858D01*
X67809437Y-74391457D01*
X67794860Y-74344182D01*
X67792538Y-74336651D01*
X67788428Y-74329932D01*
X67788426Y-74329928D01*
X67720937Y-74219601D01*
X67720936Y-74219599D01*
X67716235Y-74211915D01*
X67709559Y-74205865D01*
X67709557Y-74205863D01*
X67660541Y-74161447D01*
X67607882Y-74113729D01*
X67599770Y-74109804D01*
X67599768Y-74109803D01*
X67484369Y-74053971D01*
X67484365Y-74053970D01*
X67476255Y-74050046D01*
X67446354Y-74045067D01*
X67339798Y-74027322D01*
X67339795Y-74027322D01*
X67332019Y-74026027D01*
X67300213Y-74028733D01*
X67274694Y-74030904D01*
X67274686Y-74030905D01*
X67271326Y-74031191D01*
X67268015Y-74031835D01*
X67268012Y-74031835D01*
X66815560Y-74119783D01*
X65507071Y-74374128D01*
X65503857Y-74375119D01*
X65503853Y-74375120D01*
X65468784Y-74385933D01*
X65448864Y-74392075D01*
X65442145Y-74396185D01*
X65442141Y-74396187D01*
X65331814Y-74463676D01*
X65331812Y-74463677D01*
X65324128Y-74468378D01*
X65318078Y-74475054D01*
X65318076Y-74475056D01*
X65313886Y-74479680D01*
X65225942Y-74576731D01*
X65222017Y-74584843D01*
X65222016Y-74584845D01*
X65166184Y-74700244D01*
X65166183Y-74700248D01*
X65162259Y-74708358D01*
X65160778Y-74717252D01*
X65140626Y-74838268D01*
X65138240Y-74852594D01*
X63880037Y-74852594D01*
X63573735Y-73133059D01*
X65898483Y-73133059D01*
X65898843Y-73141306D01*
X65898843Y-73141307D01*
X65899873Y-73164906D01*
X65905380Y-73291023D01*
X65907861Y-73298893D01*
X65907862Y-73298897D01*
X65923968Y-73349979D01*
X65952925Y-73441820D01*
X65970529Y-73469452D01*
X66033444Y-73568210D01*
X66033447Y-73568213D01*
X66037880Y-73575172D01*
X66043965Y-73580748D01*
X66148365Y-73676414D01*
X66148368Y-73676416D01*
X66154454Y-73681993D01*
X66294704Y-73755003D01*
X66331638Y-73763191D01*
X66441009Y-73787438D01*
X66441011Y-73787438D01*
X66449071Y-73789225D01*
X66457319Y-73788865D01*
X66457320Y-73788865D01*
X66563256Y-73784240D01*
X66563260Y-73784240D01*
X66567372Y-73784060D01*
X67235782Y-73666202D01*
X67348715Y-73630595D01*
X67482068Y-73545640D01*
X67588889Y-73429066D01*
X67661898Y-73288816D01*
X67696121Y-73134449D01*
X67695157Y-73112358D01*
X67692180Y-73044198D01*
X67689224Y-72976485D01*
X67686743Y-72968615D01*
X67686742Y-72968611D01*
X67648833Y-72848378D01*
X67641679Y-72825688D01*
X67566400Y-72707524D01*
X67561162Y-72699302D01*
X67561161Y-72699301D01*
X67556724Y-72692336D01*
X67485349Y-72626933D01*
X67446239Y-72591095D01*
X67446237Y-72591094D01*
X67440149Y-72585515D01*
X67432825Y-72581702D01*
X67432823Y-72581701D01*
X67307227Y-72516319D01*
X67307225Y-72516318D01*
X67299900Y-72512505D01*
X67220452Y-72494892D01*
X67153595Y-72480070D01*
X67153593Y-72480070D01*
X67145533Y-72478283D01*
X67137285Y-72478643D01*
X67137284Y-72478643D01*
X67031348Y-72483268D01*
X67031344Y-72483268D01*
X67027232Y-72483448D01*
X66358822Y-72601306D01*
X66245888Y-72636913D01*
X66219670Y-72653616D01*
X66119498Y-72717432D01*
X66119495Y-72717435D01*
X66112536Y-72721868D01*
X66106960Y-72727953D01*
X66011294Y-72832353D01*
X66011292Y-72832356D01*
X66005715Y-72838442D01*
X65932705Y-72978692D01*
X65929741Y-72992063D01*
X65901246Y-73120597D01*
X65898483Y-73133059D01*
X63573735Y-73133059D01*
X63288903Y-71534054D01*
X63287335Y-71521789D01*
X63286581Y-71512143D01*
X63276565Y-71384101D01*
X63277061Y-71359407D01*
X63292627Y-71228411D01*
X63297931Y-71204289D01*
X63302877Y-71189091D01*
X69500166Y-71189091D01*
X69504190Y-71211911D01*
X69504190Y-71211912D01*
X70038476Y-74241993D01*
X70038476Y-74241995D01*
X70054370Y-74332130D01*
X70062659Y-74343659D01*
X70064689Y-74348474D01*
X70068335Y-74354976D01*
X70071383Y-74359215D01*
X70076897Y-74372297D01*
X70087542Y-74381691D01*
X70090592Y-74385933D01*
X70095590Y-74391457D01*
X70099512Y-74394918D01*
X70107798Y-74406443D01*
X70120266Y-74413233D01*
X70124173Y-74416681D01*
X70130298Y-74420970D01*
X70134878Y-74423464D01*
X70145522Y-74432857D01*
X70159186Y-74436701D01*
X70163770Y-74439198D01*
X70170687Y-74442012D01*
X70175705Y-74443424D01*
X70188177Y-74450216D01*
X70202358Y-74450924D01*
X70207388Y-74452339D01*
X70214744Y-74453542D01*
X70219962Y-74453802D01*
X70233626Y-74457647D01*
X70247605Y-74455182D01*
X70256446Y-74453623D01*
X70256447Y-74453623D01*
X73778929Y-73832514D01*
X73778934Y-73832513D01*
X73855092Y-73819084D01*
X73855093Y-73819083D01*
X73869069Y-73816619D01*
X73880594Y-73808333D01*
X73885398Y-73806308D01*
X73891921Y-73802650D01*
X73896155Y-73799606D01*
X73909235Y-73794092D01*
X73918630Y-73783447D01*
X73922866Y-73780401D01*
X73928404Y-73775390D01*
X73931856Y-73771478D01*
X73943382Y-73763191D01*
X73950172Y-73750722D01*
X73953627Y-73746807D01*
X73957904Y-73740699D01*
X73960403Y-73736111D01*
X73969796Y-73725467D01*
X73973641Y-73711804D01*
X73976139Y-73707216D01*
X73978952Y-73700303D01*
X73980365Y-73695281D01*
X73987155Y-73682812D01*
X73987863Y-73668630D01*
X73989276Y-73663606D01*
X73990479Y-73656248D01*
X73990740Y-73651030D01*
X73994585Y-73637363D01*
X73990562Y-73614546D01*
X73990562Y-73614542D01*
X73752120Y-72262275D01*
X75433745Y-72262275D01*
X75453707Y-72452203D01*
X75512722Y-72633831D01*
X75516025Y-72639553D01*
X75516026Y-72639554D01*
X75534279Y-72671169D01*
X75608209Y-72799219D01*
X75612627Y-72804126D01*
X75612628Y-72804127D01*
X75719460Y-72922776D01*
X75735996Y-72941141D01*
X75890497Y-73053393D01*
X75896525Y-73056077D01*
X75896527Y-73056078D01*
X76051323Y-73124997D01*
X76064961Y-73131069D01*
X76158361Y-73150922D01*
X76245305Y-73169403D01*
X76245310Y-73169403D01*
X76251762Y-73170775D01*
X76442736Y-73170775D01*
X76449188Y-73169403D01*
X76449193Y-73169403D01*
X76536137Y-73150922D01*
X76629537Y-73131069D01*
X76643175Y-73124997D01*
X76797971Y-73056078D01*
X76797973Y-73056077D01*
X76804001Y-73053393D01*
X76958502Y-72941141D01*
X76975038Y-72922776D01*
X77081870Y-72804127D01*
X77081871Y-72804126D01*
X77086289Y-72799219D01*
X77160219Y-72671169D01*
X77178472Y-72639554D01*
X77178473Y-72639553D01*
X77181776Y-72633831D01*
X77240791Y-72452203D01*
X77260753Y-72262275D01*
X77248712Y-72147712D01*
X77241481Y-72078910D01*
X77241481Y-72078908D01*
X77240791Y-72072347D01*
X77181776Y-71890719D01*
X77158772Y-71850874D01*
X77144563Y-71826265D01*
X77086289Y-71725331D01*
X77032034Y-71665074D01*
X76962924Y-71588320D01*
X76962923Y-71588319D01*
X76958502Y-71583409D01*
X76804001Y-71471157D01*
X76797973Y-71468473D01*
X76797971Y-71468472D01*
X76635568Y-71396166D01*
X76635567Y-71396166D01*
X76629537Y-71393481D01*
X76527193Y-71371727D01*
X76449193Y-71355147D01*
X76449188Y-71355147D01*
X76442736Y-71353775D01*
X76251762Y-71353775D01*
X76245310Y-71355147D01*
X76245305Y-71355147D01*
X76167305Y-71371727D01*
X76064961Y-71393481D01*
X76058931Y-71396166D01*
X76058930Y-71396166D01*
X75896527Y-71468472D01*
X75896525Y-71468473D01*
X75890497Y-71471157D01*
X75735996Y-71583409D01*
X75731575Y-71588319D01*
X75731574Y-71588320D01*
X75662465Y-71665074D01*
X75608209Y-71725331D01*
X75549935Y-71826265D01*
X75535727Y-71850874D01*
X75512722Y-71890719D01*
X75453707Y-72072347D01*
X75453017Y-72078908D01*
X75453017Y-72078910D01*
X75445786Y-72147712D01*
X75433745Y-72262275D01*
X73752120Y-72262275D01*
X73522945Y-70962564D01*
X73530814Y-70892006D01*
X73575581Y-70836902D01*
X73643033Y-70814748D01*
X73698280Y-70825578D01*
X73834377Y-70886172D01*
X73863993Y-70899358D01*
X73957394Y-70919211D01*
X74044337Y-70937692D01*
X74044342Y-70937692D01*
X74050794Y-70939064D01*
X74241768Y-70939064D01*
X74248220Y-70937692D01*
X74248225Y-70937692D01*
X74335168Y-70919211D01*
X74428569Y-70899358D01*
X74445082Y-70892006D01*
X74597003Y-70824367D01*
X74597005Y-70824366D01*
X74603033Y-70821682D01*
X74617465Y-70811197D01*
X74684780Y-70762289D01*
X74757534Y-70709430D01*
X74768540Y-70697207D01*
X74880902Y-70572416D01*
X74880903Y-70572415D01*
X74885321Y-70567508D01*
X74967698Y-70424827D01*
X74977504Y-70407843D01*
X74977505Y-70407842D01*
X74980808Y-70402120D01*
X75039823Y-70220492D01*
X75042599Y-70194085D01*
X75059095Y-70037129D01*
X75059785Y-70030564D01*
X75039823Y-69840636D01*
X74980808Y-69659008D01*
X74964652Y-69631024D01*
X74922905Y-69558718D01*
X74885321Y-69493620D01*
X74876304Y-69483605D01*
X74761956Y-69356609D01*
X74761955Y-69356608D01*
X74757534Y-69351698D01*
X74603033Y-69239446D01*
X74597005Y-69236762D01*
X74597003Y-69236761D01*
X74434600Y-69164455D01*
X74434599Y-69164455D01*
X74428569Y-69161770D01*
X74335169Y-69141917D01*
X74248225Y-69123436D01*
X74248220Y-69123436D01*
X74241768Y-69122064D01*
X74050794Y-69122064D01*
X74044342Y-69123436D01*
X74044337Y-69123436D01*
X73957393Y-69141917D01*
X73863993Y-69161770D01*
X73857963Y-69164455D01*
X73857962Y-69164455D01*
X73695559Y-69236761D01*
X73695557Y-69236762D01*
X73689529Y-69239446D01*
X73535028Y-69351698D01*
X73530607Y-69356608D01*
X73530606Y-69356609D01*
X73416259Y-69483605D01*
X73407241Y-69493620D01*
X73369657Y-69558718D01*
X73327911Y-69631024D01*
X73311754Y-69659008D01*
X73252739Y-69840636D01*
X73232777Y-70030564D01*
X73233467Y-70037129D01*
X73249964Y-70194085D01*
X73252739Y-70220492D01*
X73254779Y-70226769D01*
X73256152Y-70233230D01*
X73254247Y-70233635D01*
X73256011Y-70295279D01*
X73219351Y-70356079D01*
X73156031Y-70387338D01*
X71403988Y-70696271D01*
X69715823Y-70993940D01*
X69715818Y-70993941D01*
X69625683Y-71009835D01*
X69614154Y-71018124D01*
X69609339Y-71020154D01*
X69602837Y-71023800D01*
X69598598Y-71026848D01*
X69585516Y-71032362D01*
X69576122Y-71043007D01*
X69571880Y-71046057D01*
X69566356Y-71051055D01*
X69562895Y-71054977D01*
X69551370Y-71063263D01*
X69544580Y-71075731D01*
X69541132Y-71079638D01*
X69536843Y-71085763D01*
X69534349Y-71090343D01*
X69524956Y-71100987D01*
X69521112Y-71114651D01*
X69518615Y-71119235D01*
X69515801Y-71126152D01*
X69514389Y-71131170D01*
X69507597Y-71143642D01*
X69506889Y-71157823D01*
X69505474Y-71162853D01*
X69504271Y-71170209D01*
X69504011Y-71175427D01*
X69500166Y-71189091D01*
X63302877Y-71189091D01*
X63338752Y-71078847D01*
X63348660Y-71056223D01*
X63362037Y-71032362D01*
X63413166Y-70941159D01*
X63427296Y-70920904D01*
X63513013Y-70820629D01*
X63530825Y-70803517D01*
X63532617Y-70802106D01*
X63631836Y-70723955D01*
X63634453Y-70721894D01*
X63655259Y-70708587D01*
X63735254Y-70667868D01*
X63772820Y-70648746D01*
X63795822Y-70639754D01*
X63928582Y-70602368D01*
X63940640Y-70599604D01*
X66751230Y-70098962D01*
X79248778Y-67872811D01*
X79250434Y-67872528D01*
X79270966Y-67869183D01*
X79274571Y-67868650D01*
X79294247Y-67866033D01*
X79297897Y-67865602D01*
X79318405Y-67863481D01*
X79320214Y-67863307D01*
X84397194Y-67414669D01*
X84397197Y-67414670D01*
X84434820Y-67411344D01*
X84434820Y-67411345D01*
X84435947Y-67411245D01*
X84437807Y-67411094D01*
X84458523Y-67409569D01*
X84462214Y-67409352D01*
X84481981Y-67408479D01*
X84485677Y-67408370D01*
X84504896Y-67408086D01*
X84506438Y-67408063D01*
X84508297Y-67408049D01*
X91188212Y-67408053D01*
G37*
%TD.AperFunction*%
%TD*%
M02*
