M48
; DRILL file {KiCad (6.99.0-4085-g6c752680d7)} date Mon Nov 14 17:07:19 2022
; FORMAT={-:-/ absolute / inch / decimal}
; #@! TF.CreationDate,2022-11-14T17:07:19+08:00
; #@! TF.GenerationSoftware,Kicad,Pcbnew,(6.99.0-4085-g6c752680d7)
; #@! TF.FileFunction,Plated,1,4,PTH
FMAT,2
INCH
; #@! TA.AperFunction,Plated,PTH,ViaDrill
T1C0.0157
; #@! TA.AperFunction,Plated,PTH,ComponentDrill
T2C0.0394
; #@! TA.AperFunction,Plated,PTH,ComponentDrill
T3C0.0472
; #@! TA.AperFunction,Plated,PTH,ComponentDrill
T4C0.0591
%
G90
G05
T1
X2.6715Y-3.6911
X2.7303Y-3.7854
X2.7347Y-2.9467
X2.9191Y-2.7571
X2.9789Y-3.6185
X3.0058Y-2.845
X3.0707Y-3.7096
X3.4861Y-3.5777
X3.489Y-2.7242
X3.549Y-2.8518
X3.5738Y-3.6923
X3.819Y-2.7502
X3.9084Y-3.6081
X3.9566Y-2.938
X4.094Y-3.814
X4.2382Y-2.7523
X4.3975Y-2.7726
X4.4032Y-2.9006
X4.7375Y-2.9219
T2
X2.624Y-2.9739
X3.2669Y-2.7288
X3.2669Y-2.8288
X3.2669Y-2.9288
X3.2669Y-3.0288
X3.2669Y-3.1288
X3.2669Y-3.2288
X3.3449Y-3.8777
X3.3449Y-3.9777
X3.3449Y-4.0777
T3
X2.7974Y-3.2855
X2.8554Y-4.1455
X2.8992Y-3.2735
X2.9572Y-4.1335
X3.0616Y-3.1969
X3.0787Y-3.1579
X3.1196Y-4.0569
X3.1367Y-4.0179
X3.5525Y-3.1992
X3.6325Y-4.0592
X3.6549Y-3.2051
X3.7349Y-4.0651
X3.8281Y-3.1578
X3.8517Y-3.1224
X3.9081Y-4.0178
X3.9317Y-3.9824
X4.3521Y-3.2802
X4.4489Y-3.3141
X4.6284Y-3.3164
X4.6609Y-3.2888
T4
X2.7285Y-3.1693
X2.7865Y-4.0293
X2.9921Y-3.2244
X3.0501Y-4.0844
X3.5049Y-3.0728
X3.5849Y-3.9328
X3.7549Y-3.1728
X3.8349Y-4.0328
X4.3411Y-3.1456
X4.5539Y-3.3106
T0
M30
