%TF.GenerationSoftware,KiCad,Pcbnew,(6.99.0-4085-g6c752680d7)*%
%TF.CreationDate,2022-11-14T17:07:19+08:00*%
%TF.ProjectId,flex,666c6578-2e6b-4696-9361-645f70636258,rev?*%
%TF.SameCoordinates,Original*%
%TF.FileFunction,Copper,L2,Inr*%
%TF.FilePolarity,Positive*%
%FSLAX46Y46*%
G04 Gerber Fmt 4.6, Leading zero omitted, Abs format (unit mm)*
G04 Created by KiCad (PCBNEW (6.99.0-4085-g6c752680d7)) date 2022-11-14 17:07:19*
%MOMM*%
%LPD*%
G01*
G04 APERTURE LIST*
G04 Aperture macros list*
%AMRotRect*
0 Rectangle, with rotation*
0 The origin of the aperture is its center*
0 $1 length*
0 $2 width*
0 $3 Rotation angle, in degrees counterclockwise*
0 Add horizontal line*
21,1,$1,$2,0,0,$3*%
G04 Aperture macros list end*
%TA.AperFunction,ComponentPad*%
%ADD10R,1.700000X1.700000*%
%TD*%
%TA.AperFunction,ComponentPad*%
%ADD11O,1.700000X1.700000*%
%TD*%
%TA.AperFunction,ComponentPad*%
%ADD12C,2.500000*%
%TD*%
%TA.AperFunction,ComponentPad*%
%ADD13C,2.200000*%
%TD*%
%TA.AperFunction,ComponentPad*%
%ADD14RotRect,1.700000X1.700000X11.000000*%
%TD*%
%TA.AperFunction,ViaPad*%
%ADD15C,0.800000*%
%TD*%
G04 APERTURE END LIST*
D10*
%TO.N,Vcc*%
%TO.C,J2*%
X84959213Y-98494082D03*
D11*
%TO.N,Gnd*%
X84959213Y-101034082D03*
%TO.N,Din*%
X84959213Y-103574082D03*
%TD*%
D12*
%TO.N,row1*%
%TO.C,SW9*%
X70777774Y-102344288D03*
D13*
X72526802Y-105295407D03*
X75113349Y-104991643D03*
%TO.N,Net-(D9-A)*%
X77472369Y-103743034D03*
X79238126Y-103045821D03*
X79672727Y-102055306D03*
%TD*%
D12*
%TO.N,row1*%
%TO.C,SW19*%
X89024019Y-78048476D03*
D13*
X90234019Y-81258476D03*
X92834019Y-81408476D03*
%TO.N,Net-(D19-A)*%
X95374019Y-80588476D03*
X97234019Y-80208476D03*
X97834019Y-79308476D03*
%TD*%
D12*
%TO.N,row1*%
%TO.C,SW14*%
X110264700Y-79897101D03*
D13*
X110543031Y-83316273D03*
X113000966Y-84177119D03*
%TO.N,Net-(D14-A)*%
X115668593Y-84089003D03*
X117561282Y-84236409D03*
X118386113Y-83536656D03*
%TD*%
D10*
%TO.N,col5*%
%TO.C,J1*%
X82978828Y-69310873D03*
D11*
%TO.N,col6*%
X82978828Y-71850873D03*
%TO.N,col4*%
X82978828Y-74390873D03*
%TO.N,row1*%
X82978828Y-76930873D03*
%TO.N,col2*%
X82978828Y-79470873D03*
%TO.N,col3*%
X82978828Y-82010873D03*
%TD*%
D12*
%TO.N,row1*%
%TO.C,SW1*%
X91056022Y-99892476D03*
D13*
X92266022Y-103102476D03*
X94866022Y-103252476D03*
%TO.N,Net-(D1-A)*%
X97406022Y-102432476D03*
X99266022Y-102052476D03*
X99866022Y-101152476D03*
%TD*%
D12*
%TO.N,row1*%
%TO.C,SW5*%
X69304578Y-80500284D03*
D13*
X71053606Y-83451403D03*
X73640153Y-83147639D03*
%TO.N,Net-(D5-A)*%
X75999173Y-81899030D03*
X77764930Y-81201817D03*
X78199531Y-80211302D03*
%TD*%
D14*
%TO.N,Net-(D12-DOUT)*%
%TO.C,J3*%
X66648412Y-75536199D03*
%TD*%
D15*
%TO.N,col4*%
X107650118Y-69909034D03*
%TO.N,row1*%
X103986371Y-96874827D03*
%TO.N,Vcc*%
X111841702Y-73675039D03*
X75663355Y-91909264D03*
X99273532Y-91645160D03*
X69461515Y-74847243D03*
X90143532Y-72435160D03*
%TO.N,Din*%
X67855711Y-93753350D03*
%TO.N,Gnd*%
X74146281Y-70030564D03*
X69348895Y-96149265D03*
X97003530Y-69855161D03*
X120331445Y-74216088D03*
X90773530Y-93785160D03*
%TO.N,Net-(D2-DOUT)*%
X88546371Y-90874828D03*
X77996370Y-94224828D03*
%TO.N,Net-(D10-DIN)*%
X100496371Y-74624828D03*
X111696370Y-70424827D03*
%TO.N,Net-(D10-DOUT)*%
X88620977Y-69194356D03*
X76347249Y-72262275D03*
%TD*%
%TA.AperFunction,Conductor*%
%TO.N,Gnd*%
G36*
X91188212Y-67408053D02*
G01*
X100993782Y-67408060D01*
X100996633Y-67408092D01*
X101000539Y-67408180D01*
X101028455Y-67408813D01*
X101034140Y-67409071D01*
X101057772Y-67410682D01*
X101064612Y-67411149D01*
X101070312Y-67411668D01*
X101102024Y-67415284D01*
X101104862Y-67415641D01*
X101143012Y-67420871D01*
X101142360Y-67425630D01*
X101142371Y-67425632D01*
X101143024Y-67420868D01*
X108700024Y-68456041D01*
X108700074Y-68456063D01*
X108700076Y-68456048D01*
X108701335Y-68456221D01*
X108704083Y-68456630D01*
X108735693Y-68461694D01*
X108741287Y-68462721D01*
X108771235Y-68468923D01*
X108776791Y-68470205D01*
X108807747Y-68478093D01*
X108810409Y-68478804D01*
X108810975Y-68478962D01*
X108811034Y-68478978D01*
X108811034Y-68478979D01*
X111099449Y-69117916D01*
X111519080Y-69235079D01*
X111640460Y-69268969D01*
X111700692Y-69306553D01*
X111731043Y-69370735D01*
X111721877Y-69441137D01*
X111676103Y-69495408D01*
X111613893Y-69514125D01*
X111614052Y-69515637D01*
X111607485Y-69516327D01*
X111600883Y-69516327D01*
X111594431Y-69517699D01*
X111594426Y-69517699D01*
X111528300Y-69531755D01*
X111414082Y-69556033D01*
X111408052Y-69558718D01*
X111408051Y-69558718D01*
X111245648Y-69631024D01*
X111245646Y-69631025D01*
X111239618Y-69633709D01*
X111085117Y-69745961D01*
X111080696Y-69750871D01*
X111080695Y-69750872D01*
X110967035Y-69877105D01*
X110957330Y-69887883D01*
X110861843Y-70053271D01*
X110802828Y-70234899D01*
X110782866Y-70424827D01*
X110783556Y-70431392D01*
X110800414Y-70591783D01*
X110802828Y-70614755D01*
X110861843Y-70796383D01*
X110865146Y-70802105D01*
X110865147Y-70802106D01*
X110875841Y-70820629D01*
X110957330Y-70961771D01*
X110961748Y-70966678D01*
X110961749Y-70966679D01*
X111063458Y-71079638D01*
X111085117Y-71103693D01*
X111171957Y-71166786D01*
X111234066Y-71211911D01*
X111239618Y-71215945D01*
X111245646Y-71218629D01*
X111245648Y-71218630D01*
X111267617Y-71228411D01*
X111414082Y-71293621D01*
X111507483Y-71313474D01*
X111594426Y-71331955D01*
X111594431Y-71331955D01*
X111600883Y-71333327D01*
X111791857Y-71333327D01*
X111798309Y-71331955D01*
X111798314Y-71331955D01*
X111885257Y-71313474D01*
X111978658Y-71293621D01*
X112125123Y-71228411D01*
X112147092Y-71218630D01*
X112147094Y-71218629D01*
X112153122Y-71215945D01*
X112158675Y-71211911D01*
X112220783Y-71166786D01*
X112307623Y-71103693D01*
X112329282Y-71079638D01*
X112430991Y-70966679D01*
X112430992Y-70966678D01*
X112435410Y-70961771D01*
X112516899Y-70820629D01*
X112527593Y-70802106D01*
X112527594Y-70802105D01*
X112530897Y-70796383D01*
X112589912Y-70614755D01*
X112592327Y-70591783D01*
X112609184Y-70431392D01*
X112609874Y-70424827D01*
X112589912Y-70234899D01*
X112530897Y-70053271D01*
X112435410Y-69887883D01*
X112425706Y-69877105D01*
X112312045Y-69750872D01*
X112312044Y-69750871D01*
X112307623Y-69745961D01*
X112224278Y-69685407D01*
X112180924Y-69629184D01*
X112174849Y-69558448D01*
X112207981Y-69495657D01*
X112269801Y-69460745D01*
X112332223Y-69462113D01*
X123730439Y-72644555D01*
X123730443Y-72644557D01*
X123730448Y-72644558D01*
X123730447Y-72644558D01*
X123762892Y-72653616D01*
X123774621Y-72657520D01*
X123903387Y-72707524D01*
X123925426Y-72718680D01*
X124036711Y-72789503D01*
X124056150Y-72804745D01*
X124151473Y-72895914D01*
X124167565Y-72914654D01*
X124243276Y-73022678D01*
X124255402Y-73044198D01*
X124308580Y-73164913D01*
X124316272Y-73188375D01*
X124341842Y-73303483D01*
X124344879Y-73317153D01*
X124347846Y-73341675D01*
X124350779Y-73473548D01*
X124348905Y-73498179D01*
X124324974Y-73634222D01*
X124322237Y-73646275D01*
X124313177Y-73678715D01*
X124313176Y-73678721D01*
X124313174Y-73678728D01*
X124313174Y-73678732D01*
X123262294Y-77442492D01*
X123257390Y-77441123D01*
X123257389Y-77441125D01*
X123262294Y-77442495D01*
X122455609Y-80331741D01*
X122454255Y-80336589D01*
X122452934Y-80341005D01*
X119955949Y-88165441D01*
X119916184Y-88224254D01*
X119863240Y-88250133D01*
X119825791Y-88258452D01*
X119735775Y-88278449D01*
X119711255Y-88281417D01*
X119652396Y-88282728D01*
X119579376Y-88284354D01*
X119554753Y-88282481D01*
X119418098Y-88258451D01*
X119406048Y-88255715D01*
X115265089Y-87099533D01*
X115265085Y-87099530D01*
X115232658Y-87090478D01*
X115226784Y-87088838D01*
X115226675Y-87088795D01*
X115226682Y-87088770D01*
X115132727Y-87062595D01*
X114938843Y-87041165D01*
X114933737Y-87041431D01*
X114933735Y-87041431D01*
X114877240Y-87044374D01*
X114744042Y-87051314D01*
X114739047Y-87052400D01*
X114739043Y-87052401D01*
X114600778Y-87082476D01*
X114553434Y-87092774D01*
X114500603Y-87113650D01*
X114376770Y-87162582D01*
X114376763Y-87162585D01*
X114372019Y-87164460D01*
X114204554Y-87264490D01*
X114055433Y-87390241D01*
X114006694Y-87447106D01*
X114004851Y-87445527D01*
X114004826Y-87445565D01*
X114006658Y-87447133D01*
X114006657Y-87447134D01*
X113993078Y-87462993D01*
X113991962Y-87464295D01*
X113989137Y-87461873D01*
X113989135Y-87461876D01*
X113991961Y-87464295D01*
X113966023Y-87494589D01*
X113966022Y-87494591D01*
X110751997Y-91248253D01*
X110751995Y-91248256D01*
X106391252Y-96341232D01*
X103207892Y-100059109D01*
X103151420Y-100125063D01*
X103151289Y-100125185D01*
X103151287Y-100125183D01*
X103095861Y-100189834D01*
X103093461Y-100193607D01*
X103093459Y-100193610D01*
X103085194Y-100206604D01*
X103004455Y-100333543D01*
X103002616Y-100337609D01*
X103002615Y-100337610D01*
X102967263Y-100415754D01*
X102934254Y-100488717D01*
X102933006Y-100493005D01*
X102933005Y-100493008D01*
X102931042Y-100499755D01*
X102886663Y-100652248D01*
X102886034Y-100656663D01*
X102886033Y-100656667D01*
X102877508Y-100716493D01*
X102862635Y-100820860D01*
X102862677Y-100882752D01*
X102862692Y-100905825D01*
X102862692Y-100905910D01*
X102862680Y-104601343D01*
X102862073Y-104613697D01*
X102848529Y-104751163D01*
X102843711Y-104775385D01*
X102807003Y-104896385D01*
X102805413Y-104901625D01*
X102795962Y-104924440D01*
X102791610Y-104932583D01*
X102733776Y-105040781D01*
X102720058Y-105061311D01*
X102636364Y-105163293D01*
X102618907Y-105180750D01*
X102516939Y-105264437D01*
X102496404Y-105278160D01*
X102380061Y-105340353D01*
X102357244Y-105349805D01*
X102241854Y-105384815D01*
X102231014Y-105388104D01*
X102206790Y-105392924D01*
X102069595Y-105406446D01*
X102057236Y-105407054D01*
X86508249Y-105407051D01*
X86508191Y-105407051D01*
X86490276Y-105407050D01*
X86490199Y-105407050D01*
X86490174Y-105407051D01*
X86485586Y-105407051D01*
X86485586Y-105405068D01*
X86484826Y-105404935D01*
X86484894Y-105407209D01*
X86454230Y-105408127D01*
X86453289Y-105408183D01*
X86453277Y-105408184D01*
X86423615Y-105409964D01*
X86423498Y-105408019D01*
X86422750Y-105408196D01*
X86422901Y-105409867D01*
X83724324Y-105653088D01*
X83724302Y-105653087D01*
X83724302Y-105653089D01*
X83706378Y-105654702D01*
X83706306Y-105654711D01*
X83706191Y-105654722D01*
X83701761Y-105655121D01*
X83701583Y-105653141D01*
X83700829Y-105653078D01*
X83701101Y-105655337D01*
X83670645Y-105659001D01*
X83669704Y-105659143D01*
X83669682Y-105659146D01*
X83640300Y-105663581D01*
X83640009Y-105661651D01*
X83639282Y-105661894D01*
X83639583Y-105663550D01*
X83635091Y-105664366D01*
X83635057Y-105664372D01*
X83617352Y-105667590D01*
X83612865Y-105668406D01*
X83612865Y-105668404D01*
X83612852Y-105668408D01*
X68352239Y-108441744D01*
X68352232Y-108441742D01*
X68319074Y-108447770D01*
X68306823Y-108449381D01*
X68285982Y-108451086D01*
X68169160Y-108460647D01*
X68144462Y-108460239D01*
X68035991Y-108447742D01*
X68013426Y-108445142D01*
X67989282Y-108439923D01*
X67863705Y-108399545D01*
X67841043Y-108389714D01*
X67725766Y-108325616D01*
X67705456Y-108311552D01*
X67604899Y-108226191D01*
X67587724Y-108208435D01*
X67505755Y-108105095D01*
X67492377Y-108084334D01*
X67432144Y-107966978D01*
X67423075Y-107944008D01*
X67385030Y-107810608D01*
X67382227Y-107798565D01*
X67376312Y-107765994D01*
X67380832Y-107765173D01*
X67380830Y-107765158D01*
X67376304Y-107765981D01*
X66677606Y-103921227D01*
X66677606Y-103921226D01*
X65989775Y-100136342D01*
X67616799Y-100136342D01*
X67637082Y-100342276D01*
X67638878Y-100348196D01*
X67638879Y-100348202D01*
X67673658Y-100462852D01*
X67697150Y-100540296D01*
X67794697Y-100722792D01*
X67925972Y-100882752D01*
X68085932Y-101014027D01*
X68268428Y-101111574D01*
X68311257Y-101124566D01*
X68460522Y-101169845D01*
X68460528Y-101169846D01*
X68466448Y-101171642D01*
X68539562Y-101178843D01*
X68617694Y-101186539D01*
X68617701Y-101186539D01*
X68620774Y-101186842D01*
X68723990Y-101186842D01*
X68727063Y-101186539D01*
X68727070Y-101186539D01*
X68805202Y-101178843D01*
X68878316Y-101171642D01*
X68884236Y-101169846D01*
X68884242Y-101169845D01*
X69023290Y-101127665D01*
X69076336Y-101111574D01*
X69081794Y-101108657D01*
X69081798Y-101108655D01*
X69208403Y-101040982D01*
X69255055Y-101026749D01*
X69262063Y-101026037D01*
X69277023Y-101024516D01*
X69277028Y-101024515D01*
X69283381Y-101023869D01*
X69289477Y-101021956D01*
X69295736Y-101020670D01*
X69296067Y-101022282D01*
X69358951Y-101021128D01*
X69419372Y-101058409D01*
X69450045Y-101122437D01*
X69441233Y-101192885D01*
X69424189Y-101221215D01*
X69323694Y-101347231D01*
X69323691Y-101347235D01*
X69320759Y-101350912D01*
X69318406Y-101354988D01*
X69318403Y-101354992D01*
X69277492Y-101425853D01*
X69188978Y-101579164D01*
X69187254Y-101583557D01*
X69096474Y-101814860D01*
X69092687Y-101824508D01*
X69091637Y-101829107D01*
X69091637Y-101829108D01*
X69043544Y-102039820D01*
X69034039Y-102081462D01*
X69033687Y-102086162D01*
X69033686Y-102086167D01*
X69015733Y-102325741D01*
X69014343Y-102344288D01*
X69014695Y-102348985D01*
X69033426Y-102598928D01*
X69034039Y-102607114D01*
X69035089Y-102611713D01*
X69035089Y-102611715D01*
X69063642Y-102736815D01*
X69092687Y-102864068D01*
X69188978Y-103109412D01*
X69320759Y-103337664D01*
X69323691Y-103341341D01*
X69323694Y-103341345D01*
X69482153Y-103540046D01*
X69485088Y-103543726D01*
X69678293Y-103722994D01*
X69752737Y-103773749D01*
X69890254Y-103867506D01*
X69896059Y-103871464D01*
X69900308Y-103873510D01*
X69900311Y-103873512D01*
X69999390Y-103921226D01*
X70133520Y-103985820D01*
X70138022Y-103987209D01*
X70138028Y-103987211D01*
X70264057Y-104026085D01*
X70385374Y-104063506D01*
X70390024Y-104064207D01*
X70390029Y-104064208D01*
X70501351Y-104080987D01*
X70645993Y-104102788D01*
X70909555Y-104102788D01*
X71170174Y-104063506D01*
X71170387Y-104064917D01*
X71234962Y-104068875D01*
X71292228Y-104110840D01*
X71317715Y-104177104D01*
X71303331Y-104246629D01*
X71287945Y-104269204D01*
X71224684Y-104343272D01*
X71224681Y-104343276D01*
X71221474Y-104347031D01*
X71089186Y-104562905D01*
X71087293Y-104567475D01*
X71087291Y-104567479D01*
X71011207Y-104751163D01*
X70992297Y-104796816D01*
X70980746Y-104844930D01*
X70959703Y-104932583D01*
X70933193Y-105043004D01*
X70913328Y-105295407D01*
X70933193Y-105547810D01*
X70934347Y-105552617D01*
X70934348Y-105552623D01*
X70960582Y-105661894D01*
X70992297Y-105793998D01*
X70994190Y-105798569D01*
X70994191Y-105798571D01*
X71052781Y-105940019D01*
X71089186Y-106027909D01*
X71221474Y-106243783D01*
X71385904Y-106436305D01*
X71578426Y-106600735D01*
X71794300Y-106733023D01*
X71798870Y-106734916D01*
X71798874Y-106734918D01*
X72023638Y-106828018D01*
X72028211Y-106829912D01*
X72112834Y-106850228D01*
X72269586Y-106887861D01*
X72269592Y-106887862D01*
X72274399Y-106889016D01*
X72526802Y-106908881D01*
X72779205Y-106889016D01*
X72784012Y-106887862D01*
X72784018Y-106887861D01*
X72940770Y-106850228D01*
X73025393Y-106829912D01*
X73029966Y-106828018D01*
X73254730Y-106734918D01*
X73254734Y-106734916D01*
X73259304Y-106733023D01*
X73475178Y-106600735D01*
X73667700Y-106436305D01*
X73832130Y-106243783D01*
X73834712Y-106239569D01*
X73834716Y-106239564D01*
X73848005Y-106217878D01*
X73900652Y-106170246D01*
X73970694Y-106158639D01*
X74037269Y-106187901D01*
X74164973Y-106296971D01*
X74380847Y-106429259D01*
X74385417Y-106431152D01*
X74385421Y-106431154D01*
X74610185Y-106524254D01*
X74614758Y-106526148D01*
X74699381Y-106546464D01*
X74856133Y-106584097D01*
X74856139Y-106584098D01*
X74860946Y-106585252D01*
X75113349Y-106605117D01*
X75365752Y-106585252D01*
X75370559Y-106584098D01*
X75370565Y-106584097D01*
X75527317Y-106546464D01*
X75611940Y-106526148D01*
X75616513Y-106524254D01*
X75841277Y-106431154D01*
X75841281Y-106431152D01*
X75845851Y-106429259D01*
X76061725Y-106296971D01*
X76254247Y-106132541D01*
X76418677Y-105940019D01*
X76550965Y-105724145D01*
X76575726Y-105664368D01*
X76645960Y-105494807D01*
X76645961Y-105494805D01*
X76647854Y-105490234D01*
X76672373Y-105388104D01*
X76689339Y-105317437D01*
X76724691Y-105255868D01*
X76787718Y-105223185D01*
X76860076Y-105230442D01*
X76961159Y-105272312D01*
X76973778Y-105277539D01*
X77048204Y-105295407D01*
X77215153Y-105335488D01*
X77215159Y-105335489D01*
X77219966Y-105336643D01*
X77472369Y-105356508D01*
X77724772Y-105336643D01*
X77729579Y-105335489D01*
X77729585Y-105335488D01*
X77896534Y-105295407D01*
X77970960Y-105277539D01*
X77975533Y-105275645D01*
X78200297Y-105182545D01*
X78200301Y-105182543D01*
X78204871Y-105180650D01*
X78420745Y-105048362D01*
X78592551Y-104901625D01*
X78609511Y-104887140D01*
X78613267Y-104883932D01*
X78777697Y-104691410D01*
X78780282Y-104687192D01*
X78784314Y-104680613D01*
X78836962Y-104632982D01*
X78907004Y-104621376D01*
X78921160Y-104623930D01*
X78980910Y-104638275D01*
X78980916Y-104638276D01*
X78985723Y-104639430D01*
X79238126Y-104659295D01*
X79490529Y-104639430D01*
X79495336Y-104638276D01*
X79495342Y-104638275D01*
X79652094Y-104600642D01*
X79736717Y-104580326D01*
X79741290Y-104578432D01*
X79966054Y-104485332D01*
X79966058Y-104485330D01*
X79970628Y-104483437D01*
X80186502Y-104351149D01*
X80379024Y-104186719D01*
X80543454Y-103994197D01*
X80675742Y-103778323D01*
X80682174Y-103762796D01*
X80760341Y-103574083D01*
X83596058Y-103574083D01*
X83596488Y-103579272D01*
X83613332Y-103782543D01*
X83614650Y-103798451D01*
X83615931Y-103803509D01*
X83615931Y-103803510D01*
X83665172Y-103997956D01*
X83669918Y-104016699D01*
X83682749Y-104045950D01*
X83753819Y-104207975D01*
X83760354Y-104222874D01*
X83883492Y-104411351D01*
X83887017Y-104415180D01*
X83887020Y-104415184D01*
X83947472Y-104480851D01*
X84035974Y-104576989D01*
X84040093Y-104580195D01*
X84188987Y-104696085D01*
X84213638Y-104715272D01*
X84218219Y-104717751D01*
X84364319Y-104796816D01*
X84411640Y-104822425D01*
X84624579Y-104895527D01*
X84629713Y-104896384D01*
X84629718Y-104896385D01*
X84841508Y-104931726D01*
X84841510Y-104931726D01*
X84846645Y-104932583D01*
X85071783Y-104932583D01*
X85076918Y-104931726D01*
X85076920Y-104931726D01*
X85288710Y-104896385D01*
X85288715Y-104896384D01*
X85293849Y-104895527D01*
X85506788Y-104822425D01*
X85554110Y-104796816D01*
X85700209Y-104717751D01*
X85704790Y-104715272D01*
X85729442Y-104696085D01*
X85878335Y-104580195D01*
X85882454Y-104576989D01*
X85970956Y-104480851D01*
X86031408Y-104415184D01*
X86031411Y-104415180D01*
X86034936Y-104411351D01*
X86158074Y-104222874D01*
X86164610Y-104207975D01*
X86235679Y-104045950D01*
X86248510Y-104016699D01*
X86253257Y-103997956D01*
X86302497Y-103803510D01*
X86302497Y-103803509D01*
X86303778Y-103798451D01*
X86305097Y-103782543D01*
X86321940Y-103579272D01*
X86322370Y-103574083D01*
X86317317Y-103513106D01*
X86304209Y-103354911D01*
X86304208Y-103354906D01*
X86303778Y-103349715D01*
X86302497Y-103344656D01*
X86249792Y-103136529D01*
X86249792Y-103136528D01*
X86248510Y-103131467D01*
X86197470Y-103015106D01*
X86160168Y-102930065D01*
X86160166Y-102930061D01*
X86158074Y-102925292D01*
X86118075Y-102864068D01*
X86037787Y-102741179D01*
X86034936Y-102736815D01*
X86031411Y-102732986D01*
X86031408Y-102732982D01*
X85885986Y-102575014D01*
X85882454Y-102571177D01*
X85776179Y-102488459D01*
X85708903Y-102436095D01*
X85708901Y-102436093D01*
X85704790Y-102432894D01*
X85671006Y-102414611D01*
X85620617Y-102364598D01*
X85605265Y-102295281D01*
X85629826Y-102228668D01*
X85671008Y-102192984D01*
X85699933Y-102177331D01*
X85708625Y-102171652D01*
X85878003Y-102039820D01*
X85885646Y-102032783D01*
X86031004Y-101874882D01*
X86037391Y-101866676D01*
X86154783Y-101686996D01*
X86159726Y-101677861D01*
X86245944Y-101481306D01*
X86249314Y-101471491D01*
X86291311Y-101305644D01*
X86290781Y-101291553D01*
X86282359Y-101288083D01*
X83640785Y-101288083D01*
X83627254Y-101292056D01*
X83625958Y-101301069D01*
X83669114Y-101471491D01*
X83672484Y-101481306D01*
X83758702Y-101677861D01*
X83763645Y-101686996D01*
X83881037Y-101866676D01*
X83887424Y-101874882D01*
X84032782Y-102032783D01*
X84040425Y-102039820D01*
X84209803Y-102171652D01*
X84218495Y-102177331D01*
X84247420Y-102192984D01*
X84297811Y-102242997D01*
X84313163Y-102312314D01*
X84288602Y-102378927D01*
X84247422Y-102414611D01*
X84213638Y-102432894D01*
X84209527Y-102436093D01*
X84209525Y-102436095D01*
X84142249Y-102488459D01*
X84035974Y-102571177D01*
X84032442Y-102575014D01*
X83887020Y-102732982D01*
X83887017Y-102732986D01*
X83883492Y-102736815D01*
X83880641Y-102741179D01*
X83800354Y-102864068D01*
X83760354Y-102925292D01*
X83758262Y-102930061D01*
X83758260Y-102930065D01*
X83720958Y-103015106D01*
X83669918Y-103131467D01*
X83668636Y-103136528D01*
X83668636Y-103136529D01*
X83615931Y-103344656D01*
X83614650Y-103349715D01*
X83614220Y-103354906D01*
X83614219Y-103354911D01*
X83601111Y-103513106D01*
X83596058Y-103574083D01*
X80760341Y-103574083D01*
X80770737Y-103548985D01*
X80770738Y-103548983D01*
X80772631Y-103544412D01*
X80812542Y-103378169D01*
X80830580Y-103303037D01*
X80830581Y-103303031D01*
X80831735Y-103298224D01*
X80839206Y-103203305D01*
X80869007Y-103131362D01*
X80974839Y-103007448D01*
X80974842Y-103007444D01*
X80978055Y-103003682D01*
X81110343Y-102787808D01*
X81129658Y-102741179D01*
X81205338Y-102558470D01*
X81205339Y-102558468D01*
X81207232Y-102553897D01*
X81236282Y-102432894D01*
X81265181Y-102312522D01*
X81265182Y-102312516D01*
X81266336Y-102307709D01*
X81286201Y-102055306D01*
X81266336Y-101802903D01*
X81264955Y-101797148D01*
X81208387Y-101561527D01*
X81207232Y-101556715D01*
X81198403Y-101535399D01*
X81112238Y-101327378D01*
X81112236Y-101327374D01*
X81110343Y-101322804D01*
X80978055Y-101106930D01*
X80813625Y-100914408D01*
X80793028Y-100896816D01*
X80761514Y-100869901D01*
X80621103Y-100749978D01*
X80417272Y-100625070D01*
X80409449Y-100620276D01*
X80405229Y-100617690D01*
X80400659Y-100615797D01*
X80400655Y-100615795D01*
X80175891Y-100522695D01*
X80175889Y-100522694D01*
X80171318Y-100520801D01*
X80070188Y-100496522D01*
X79929943Y-100462852D01*
X79929937Y-100462851D01*
X79925130Y-100461697D01*
X79672727Y-100441832D01*
X79420324Y-100461697D01*
X79415517Y-100462851D01*
X79415511Y-100462852D01*
X79275266Y-100496522D01*
X79174136Y-100520801D01*
X79169565Y-100522694D01*
X79169563Y-100522695D01*
X78944799Y-100615795D01*
X78944795Y-100615797D01*
X78940225Y-100617690D01*
X78936005Y-100620276D01*
X78928182Y-100625070D01*
X78724351Y-100749978D01*
X78583940Y-100869901D01*
X78552427Y-100896816D01*
X78531829Y-100914408D01*
X78367399Y-101106930D01*
X78235111Y-101322804D01*
X78233218Y-101327374D01*
X78233216Y-101327378D01*
X78147051Y-101535399D01*
X78138222Y-101556715D01*
X78137067Y-101561527D01*
X78080500Y-101797148D01*
X78079118Y-101802903D01*
X78076507Y-101836082D01*
X78071647Y-101897822D01*
X78041846Y-101969765D01*
X77942430Y-102086167D01*
X77932798Y-102097445D01*
X77930214Y-102101661D01*
X77930213Y-102101663D01*
X77926181Y-102108242D01*
X77873533Y-102155873D01*
X77803491Y-102167479D01*
X77789335Y-102164925D01*
X77729585Y-102150580D01*
X77729579Y-102150579D01*
X77724772Y-102149425D01*
X77472369Y-102129560D01*
X77219966Y-102149425D01*
X77215159Y-102150579D01*
X77215153Y-102150580D01*
X77103728Y-102177331D01*
X76973778Y-102208529D01*
X76969207Y-102210422D01*
X76969205Y-102210423D01*
X76744441Y-102303523D01*
X76744437Y-102303525D01*
X76739867Y-102305418D01*
X76523993Y-102437706D01*
X76331471Y-102602136D01*
X76167041Y-102794658D01*
X76034753Y-103010532D01*
X76032860Y-103015102D01*
X76032858Y-103015106D01*
X75954904Y-103203305D01*
X75937864Y-103244443D01*
X75936709Y-103249255D01*
X75896379Y-103417240D01*
X75861027Y-103478809D01*
X75798000Y-103511492D01*
X75725642Y-103504235D01*
X75616513Y-103459032D01*
X75616511Y-103459031D01*
X75611940Y-103457138D01*
X75527317Y-103436822D01*
X75370565Y-103399189D01*
X75370559Y-103399188D01*
X75365752Y-103398034D01*
X75113349Y-103378169D01*
X74860946Y-103398034D01*
X74856139Y-103399188D01*
X74856133Y-103399189D01*
X74699381Y-103436822D01*
X74614758Y-103457138D01*
X74610187Y-103459031D01*
X74610185Y-103459032D01*
X74385421Y-103552132D01*
X74385417Y-103552134D01*
X74380847Y-103554027D01*
X74164973Y-103686315D01*
X73972451Y-103850745D01*
X73808021Y-104043267D01*
X73805439Y-104047481D01*
X73805435Y-104047486D01*
X73792146Y-104069172D01*
X73739499Y-104116804D01*
X73669457Y-104128411D01*
X73602882Y-104099149D01*
X73475178Y-103990079D01*
X73259304Y-103857791D01*
X73254734Y-103855898D01*
X73254730Y-103855896D01*
X73029966Y-103762796D01*
X73029964Y-103762795D01*
X73025393Y-103760902D01*
X72929182Y-103737804D01*
X72784018Y-103702953D01*
X72784012Y-103702952D01*
X72779205Y-103701798D01*
X72526802Y-103681933D01*
X72274399Y-103701798D01*
X72269592Y-103702952D01*
X72269586Y-103702953D01*
X72238341Y-103710455D01*
X72222803Y-103714185D01*
X72151896Y-103710638D01*
X72094162Y-103669318D01*
X72067932Y-103603345D01*
X72081534Y-103533663D01*
X72094879Y-103513106D01*
X72231854Y-103341345D01*
X72231857Y-103341341D01*
X72234789Y-103337664D01*
X72366570Y-103109412D01*
X72462861Y-102864068D01*
X72491906Y-102736815D01*
X72520459Y-102611715D01*
X72520459Y-102611713D01*
X72521509Y-102607114D01*
X72522123Y-102598928D01*
X72540853Y-102348985D01*
X72541205Y-102344288D01*
X72539815Y-102325741D01*
X72521862Y-102086167D01*
X72521861Y-102086162D01*
X72521509Y-102081462D01*
X72512005Y-102039820D01*
X72463911Y-101829108D01*
X72463911Y-101829107D01*
X72462861Y-101824508D01*
X72459075Y-101814860D01*
X72368294Y-101583557D01*
X72366570Y-101579164D01*
X72278056Y-101425853D01*
X72263385Y-101400441D01*
X72246647Y-101331445D01*
X72269868Y-101264353D01*
X72325675Y-101220466D01*
X72396350Y-101213718D01*
X72445302Y-101234599D01*
X72704051Y-101417764D01*
X72707461Y-101419595D01*
X72707464Y-101419597D01*
X72985978Y-101569156D01*
X72985985Y-101569159D01*
X72989385Y-101570985D01*
X73148213Y-101632515D01*
X73265265Y-101677861D01*
X73291385Y-101687980D01*
X73339073Y-101699974D01*
X73601703Y-101766029D01*
X73601710Y-101766030D01*
X73605474Y-101766977D01*
X73926890Y-101806777D01*
X74169712Y-101806777D01*
X74183149Y-101805948D01*
X74408213Y-101792067D01*
X74408220Y-101792066D01*
X74412081Y-101791828D01*
X74730437Y-101732317D01*
X75039067Y-101634135D01*
X75149002Y-101583557D01*
X75329770Y-101500391D01*
X75329778Y-101500387D01*
X75333292Y-101498770D01*
X75356985Y-101484100D01*
X75605344Y-101330323D01*
X75605346Y-101330322D01*
X75608653Y-101328274D01*
X75658242Y-101288370D01*
X75857951Y-101127665D01*
X75857955Y-101127662D01*
X75860974Y-101125232D01*
X76086431Y-100892721D01*
X76090998Y-100886674D01*
X76144051Y-100816420D01*
X76281607Y-100634267D01*
X76308978Y-100586860D01*
X76405329Y-100419974D01*
X76443542Y-100353787D01*
X76504371Y-100210073D01*
X76568269Y-100059109D01*
X76568272Y-100059101D01*
X76569782Y-100055533D01*
X76658414Y-99744026D01*
X76661068Y-99726933D01*
X76707497Y-99427827D01*
X76708093Y-99423988D01*
X76708213Y-99420102D01*
X76709057Y-99392721D01*
X83600714Y-99392721D01*
X83607225Y-99453284D01*
X83658325Y-99590287D01*
X83663724Y-99597499D01*
X83663725Y-99597501D01*
X83685182Y-99626164D01*
X83745953Y-99707344D01*
X83863010Y-99794972D01*
X83923777Y-99817637D01*
X83978527Y-99838058D01*
X84035363Y-99880605D01*
X84060174Y-99947125D01*
X84045083Y-100016499D01*
X84027196Y-100041451D01*
X83887424Y-100193284D01*
X83881037Y-100201490D01*
X83763645Y-100381170D01*
X83758702Y-100390305D01*
X83672484Y-100586860D01*
X83669114Y-100596675D01*
X83627117Y-100762522D01*
X83627647Y-100776613D01*
X83636069Y-100780083D01*
X86277643Y-100780083D01*
X86291174Y-100776110D01*
X86292470Y-100767097D01*
X86249314Y-100596675D01*
X86245944Y-100586860D01*
X86159726Y-100390305D01*
X86154783Y-100381170D01*
X86037391Y-100201490D01*
X86031004Y-100193284D01*
X85891232Y-100041451D01*
X85859811Y-99977786D01*
X85867798Y-99907240D01*
X85912657Y-99852212D01*
X85939901Y-99838058D01*
X85994651Y-99817637D01*
X86055418Y-99794972D01*
X86172475Y-99707344D01*
X86233246Y-99626164D01*
X86254703Y-99597501D01*
X86254704Y-99597499D01*
X86260103Y-99590287D01*
X86311203Y-99453284D01*
X86317714Y-99392721D01*
X86317714Y-97595445D01*
X86317269Y-97591301D01*
X86315171Y-97571788D01*
X86311203Y-97534882D01*
X86260103Y-97397879D01*
X86226115Y-97352476D01*
X88310439Y-97352476D01*
X88330722Y-97558410D01*
X88332518Y-97564330D01*
X88332519Y-97564336D01*
X88362165Y-97662064D01*
X88390790Y-97756430D01*
X88488337Y-97938926D01*
X88619612Y-98098886D01*
X88779572Y-98230161D01*
X88962068Y-98327708D01*
X88968302Y-98329599D01*
X89154162Y-98385979D01*
X89154168Y-98385980D01*
X89160088Y-98387776D01*
X89233202Y-98394977D01*
X89311334Y-98402673D01*
X89311341Y-98402673D01*
X89314414Y-98402976D01*
X89417630Y-98402976D01*
X89420703Y-98402673D01*
X89420710Y-98402673D01*
X89498842Y-98394977D01*
X89571956Y-98387776D01*
X89577876Y-98385980D01*
X89577882Y-98385979D01*
X89751209Y-98333401D01*
X89787784Y-98327976D01*
X89835495Y-98327976D01*
X89835495Y-98329599D01*
X89898386Y-98344634D01*
X89947550Y-98395853D01*
X89961219Y-98465522D01*
X89935052Y-98531520D01*
X89921453Y-98546327D01*
X89763336Y-98693038D01*
X89760403Y-98696716D01*
X89760401Y-98696718D01*
X89601942Y-98895419D01*
X89601939Y-98895423D01*
X89599007Y-98899100D01*
X89596654Y-98903176D01*
X89596651Y-98903180D01*
X89576721Y-98937700D01*
X89467226Y-99127352D01*
X89370935Y-99372696D01*
X89369885Y-99377295D01*
X89369885Y-99377296D01*
X89321574Y-99588963D01*
X89312287Y-99629650D01*
X89311935Y-99634350D01*
X89311934Y-99634355D01*
X89299898Y-99794972D01*
X89292591Y-99892476D01*
X89292943Y-99897173D01*
X89304531Y-100051800D01*
X89312287Y-100155302D01*
X89313337Y-100159901D01*
X89313337Y-100159903D01*
X89356315Y-100348202D01*
X89370935Y-100412256D01*
X89372659Y-100416647D01*
X89372659Y-100416649D01*
X89400944Y-100488717D01*
X89467226Y-100657600D01*
X89492494Y-100701365D01*
X89589798Y-100869901D01*
X89599007Y-100885852D01*
X89601939Y-100889529D01*
X89601942Y-100889533D01*
X89760401Y-101088234D01*
X89763336Y-101091914D01*
X89956541Y-101271182D01*
X90038966Y-101327378D01*
X90168254Y-101415525D01*
X90174307Y-101419652D01*
X90178556Y-101421698D01*
X90178559Y-101421700D01*
X90300328Y-101480341D01*
X90411768Y-101534008D01*
X90416270Y-101535397D01*
X90416276Y-101535399D01*
X90558161Y-101579164D01*
X90663622Y-101611694D01*
X90668272Y-101612395D01*
X90668277Y-101612396D01*
X90779599Y-101629175D01*
X90924241Y-101650976D01*
X91147253Y-101650976D01*
X91215374Y-101670978D01*
X91261867Y-101724634D01*
X91271971Y-101794908D01*
X91242477Y-101859488D01*
X91229084Y-101872787D01*
X91202730Y-101895296D01*
X91125124Y-101961578D01*
X90960694Y-102154100D01*
X90828406Y-102369974D01*
X90826513Y-102374544D01*
X90826511Y-102374548D01*
X90750328Y-102558470D01*
X90731517Y-102603885D01*
X90730362Y-102608697D01*
X90687028Y-102789198D01*
X90672413Y-102850073D01*
X90652548Y-103102476D01*
X90672413Y-103354879D01*
X90673567Y-103359686D01*
X90673568Y-103359692D01*
X90687384Y-103417240D01*
X90731517Y-103601067D01*
X90733410Y-103605638D01*
X90733411Y-103605640D01*
X90815372Y-103803510D01*
X90828406Y-103834978D01*
X90960694Y-104050852D01*
X91125124Y-104243374D01*
X91317646Y-104407804D01*
X91533520Y-104540092D01*
X91538090Y-104541985D01*
X91538094Y-104541987D01*
X91762858Y-104635087D01*
X91767431Y-104636981D01*
X91852054Y-104657297D01*
X92008806Y-104694930D01*
X92008812Y-104694931D01*
X92013619Y-104696085D01*
X92266022Y-104715950D01*
X92518425Y-104696085D01*
X92523232Y-104694931D01*
X92523238Y-104694930D01*
X92679990Y-104657297D01*
X92764613Y-104636981D01*
X92769186Y-104635087D01*
X92993950Y-104541987D01*
X92993954Y-104541985D01*
X92998524Y-104540092D01*
X93214398Y-104407804D01*
X93406920Y-104243374D01*
X93410128Y-104239618D01*
X93412810Y-104236936D01*
X93475122Y-104202910D01*
X93545937Y-104207975D01*
X93597716Y-104244200D01*
X93721916Y-104389618D01*
X93725124Y-104393374D01*
X93917646Y-104557804D01*
X94133520Y-104690092D01*
X94138090Y-104691985D01*
X94138094Y-104691987D01*
X94362858Y-104785087D01*
X94367431Y-104786981D01*
X94428441Y-104801628D01*
X94608806Y-104844930D01*
X94608812Y-104844931D01*
X94613619Y-104846085D01*
X94866022Y-104865950D01*
X95118425Y-104846085D01*
X95123232Y-104844931D01*
X95123238Y-104844930D01*
X95303603Y-104801628D01*
X95364613Y-104786981D01*
X95369186Y-104785087D01*
X95593950Y-104691987D01*
X95593954Y-104691985D01*
X95598524Y-104690092D01*
X95814398Y-104557804D01*
X96006920Y-104393374D01*
X96171350Y-104200852D01*
X96303638Y-103984978D01*
X96310615Y-103968136D01*
X96360016Y-103848870D01*
X96404564Y-103793589D01*
X96471928Y-103771168D01*
X96542260Y-103789656D01*
X96669290Y-103867501D01*
X96669300Y-103867506D01*
X96673520Y-103870092D01*
X96678090Y-103871985D01*
X96678094Y-103871987D01*
X96902858Y-103965087D01*
X96907431Y-103966981D01*
X96982395Y-103984978D01*
X97148806Y-104024930D01*
X97148812Y-104024931D01*
X97153619Y-104026085D01*
X97406022Y-104045950D01*
X97658425Y-104026085D01*
X97663232Y-104024931D01*
X97663238Y-104024930D01*
X97829649Y-103984978D01*
X97904613Y-103966981D01*
X97909186Y-103965087D01*
X98133950Y-103871987D01*
X98133954Y-103871985D01*
X98138524Y-103870092D01*
X98354398Y-103737804D01*
X98546920Y-103573374D01*
X98547911Y-103574534D01*
X98604277Y-103543755D01*
X98679278Y-103550467D01*
X98694116Y-103556613D01*
X98748820Y-103579272D01*
X98767431Y-103586981D01*
X98826104Y-103601067D01*
X99008806Y-103644930D01*
X99008812Y-103644931D01*
X99013619Y-103646085D01*
X99266022Y-103665950D01*
X99518425Y-103646085D01*
X99523232Y-103644931D01*
X99523238Y-103644930D01*
X99705940Y-103601067D01*
X99764613Y-103586981D01*
X99769186Y-103585087D01*
X99993950Y-103491987D01*
X99993954Y-103491985D01*
X99998524Y-103490092D01*
X100214398Y-103357804D01*
X100406920Y-103193374D01*
X100571350Y-103000852D01*
X100703638Y-102784978D01*
X100725176Y-102732982D01*
X100798633Y-102555640D01*
X100798634Y-102555638D01*
X100800527Y-102551067D01*
X100801683Y-102546253D01*
X100801685Y-102546246D01*
X100815559Y-102488459D01*
X100856246Y-102422063D01*
X101003164Y-102296582D01*
X101006920Y-102293374D01*
X101171350Y-102100852D01*
X101303638Y-101884978D01*
X101314197Y-101859488D01*
X101398633Y-101655640D01*
X101398634Y-101655638D01*
X101400527Y-101651067D01*
X101437581Y-101496725D01*
X101458476Y-101409692D01*
X101458477Y-101409686D01*
X101459631Y-101404879D01*
X101479496Y-101152476D01*
X101459631Y-100900073D01*
X101456415Y-100886674D01*
X101401682Y-100658697D01*
X101400527Y-100653885D01*
X101395711Y-100642257D01*
X101305533Y-100424548D01*
X101305531Y-100424544D01*
X101303638Y-100419974D01*
X101171350Y-100204100D01*
X101006920Y-100011578D01*
X100814398Y-99847148D01*
X100598524Y-99714860D01*
X100593954Y-99712967D01*
X100593950Y-99712965D01*
X100369186Y-99619865D01*
X100369184Y-99619864D01*
X100364613Y-99617971D01*
X100234459Y-99586724D01*
X100123238Y-99560022D01*
X100123232Y-99560021D01*
X100118425Y-99558867D01*
X99866022Y-99539002D01*
X99613619Y-99558867D01*
X99608812Y-99560021D01*
X99608806Y-99560022D01*
X99497585Y-99586724D01*
X99367431Y-99617971D01*
X99362860Y-99619864D01*
X99362858Y-99619865D01*
X99138094Y-99712965D01*
X99138090Y-99712967D01*
X99133520Y-99714860D01*
X98917646Y-99847148D01*
X98725124Y-100011578D01*
X98560694Y-100204100D01*
X98428406Y-100419974D01*
X98426513Y-100424544D01*
X98426511Y-100424548D01*
X98336333Y-100642257D01*
X98331517Y-100653885D01*
X98330362Y-100658697D01*
X98330359Y-100658706D01*
X98316485Y-100716493D01*
X98275798Y-100782889D01*
X98125124Y-100911578D01*
X98124133Y-100910418D01*
X98067767Y-100941197D01*
X97992766Y-100934485D01*
X97909186Y-100899865D01*
X97909184Y-100899864D01*
X97904613Y-100897971D01*
X97780582Y-100868194D01*
X97663238Y-100840022D01*
X97663232Y-100840021D01*
X97658425Y-100838867D01*
X97406022Y-100819002D01*
X97153619Y-100838867D01*
X97148812Y-100840021D01*
X97148806Y-100840022D01*
X97031462Y-100868194D01*
X96907431Y-100897971D01*
X96902860Y-100899864D01*
X96902858Y-100899865D01*
X96678094Y-100992965D01*
X96678090Y-100992967D01*
X96673520Y-100994860D01*
X96457646Y-101127148D01*
X96265124Y-101291578D01*
X96100694Y-101484100D01*
X95968406Y-101699974D01*
X95966513Y-101704544D01*
X95966511Y-101704548D01*
X95912028Y-101836082D01*
X95867480Y-101891363D01*
X95800116Y-101913784D01*
X95729784Y-101895296D01*
X95602754Y-101817451D01*
X95602743Y-101817445D01*
X95598524Y-101814860D01*
X95593954Y-101812967D01*
X95593950Y-101812965D01*
X95369186Y-101719865D01*
X95369184Y-101719864D01*
X95364613Y-101717971D01*
X95272072Y-101695754D01*
X95123238Y-101660022D01*
X95123232Y-101660021D01*
X95118425Y-101658867D01*
X94866022Y-101639002D01*
X94613619Y-101658867D01*
X94608812Y-101660021D01*
X94608806Y-101660022D01*
X94459972Y-101695754D01*
X94367431Y-101717971D01*
X94362860Y-101719864D01*
X94362858Y-101719865D01*
X94138094Y-101812965D01*
X94138090Y-101812967D01*
X94133520Y-101814860D01*
X93917646Y-101947148D01*
X93725124Y-102111578D01*
X93721916Y-102115334D01*
X93719234Y-102118016D01*
X93656922Y-102152042D01*
X93586107Y-102146977D01*
X93534328Y-102110752D01*
X93410128Y-101965334D01*
X93406920Y-101961578D01*
X93214398Y-101797148D01*
X92998524Y-101664860D01*
X92993954Y-101662967D01*
X92993950Y-101662965D01*
X92769186Y-101569865D01*
X92769184Y-101569864D01*
X92764613Y-101567971D01*
X92623146Y-101534008D01*
X92523238Y-101510022D01*
X92523232Y-101510021D01*
X92518425Y-101508867D01*
X92266022Y-101489002D01*
X92261092Y-101489390D01*
X92261084Y-101489390D01*
X92249677Y-101490288D01*
X92180196Y-101475694D01*
X92129636Y-101425853D01*
X92114048Y-101356589D01*
X92138381Y-101289893D01*
X92155943Y-101271656D01*
X92155503Y-101271182D01*
X92288751Y-101147546D01*
X92348708Y-101091914D01*
X92351643Y-101088234D01*
X92510102Y-100889533D01*
X92510105Y-100889529D01*
X92513037Y-100885852D01*
X92522247Y-100869901D01*
X92619550Y-100701365D01*
X92644818Y-100657600D01*
X92711100Y-100488717D01*
X92739385Y-100416649D01*
X92739385Y-100416647D01*
X92741109Y-100412256D01*
X92755729Y-100348202D01*
X92798707Y-100159903D01*
X92798707Y-100159901D01*
X92799757Y-100155302D01*
X92807514Y-100051800D01*
X92819101Y-99897173D01*
X92819453Y-99892476D01*
X92812146Y-99794972D01*
X92800110Y-99634355D01*
X92800109Y-99634350D01*
X92799757Y-99629650D01*
X92790471Y-99588963D01*
X92742159Y-99377296D01*
X92742159Y-99377295D01*
X92741109Y-99372696D01*
X92677056Y-99209492D01*
X92670788Y-99138774D01*
X92703749Y-99075892D01*
X92765473Y-99040813D01*
X92836365Y-99044673D01*
X92890031Y-99081482D01*
X92958253Y-99161110D01*
X92977563Y-99183649D01*
X92980427Y-99186260D01*
X92980432Y-99186265D01*
X93064147Y-99262581D01*
X93216906Y-99401839D01*
X93481248Y-99588963D01*
X93484658Y-99590794D01*
X93484661Y-99590796D01*
X93763175Y-99740355D01*
X93763182Y-99740358D01*
X93766582Y-99742184D01*
X93780981Y-99747762D01*
X94051556Y-99852583D01*
X94068582Y-99859179D01*
X94153771Y-99880605D01*
X94378900Y-99937228D01*
X94378907Y-99937229D01*
X94382671Y-99938176D01*
X94704087Y-99977976D01*
X94946909Y-99977976D01*
X94960346Y-99977147D01*
X95185410Y-99963266D01*
X95185417Y-99963265D01*
X95189278Y-99963027D01*
X95507634Y-99903516D01*
X95816264Y-99805334D01*
X95941401Y-99747762D01*
X96106967Y-99671590D01*
X96106975Y-99671586D01*
X96110489Y-99669969D01*
X96168008Y-99634355D01*
X96382541Y-99501522D01*
X96382543Y-99501521D01*
X96385850Y-99499473D01*
X96424155Y-99468649D01*
X96635148Y-99298864D01*
X96635152Y-99298861D01*
X96638171Y-99296431D01*
X96863628Y-99063920D01*
X97058804Y-98805466D01*
X97074788Y-98777782D01*
X97164517Y-98622366D01*
X97220739Y-98524986D01*
X97262644Y-98425981D01*
X97345466Y-98230308D01*
X97345469Y-98230300D01*
X97346979Y-98226732D01*
X97435611Y-97915225D01*
X97449124Y-97828176D01*
X97484694Y-97599026D01*
X97485290Y-97595187D01*
X97485410Y-97591301D01*
X97491238Y-97402139D01*
X98966750Y-97402139D01*
X98967717Y-97408451D01*
X98967717Y-97408453D01*
X98985954Y-97527502D01*
X98996792Y-97598249D01*
X99065697Y-97784296D01*
X99170642Y-97952665D01*
X99307331Y-98096462D01*
X99312570Y-98100109D01*
X99312573Y-98100111D01*
X99419662Y-98174647D01*
X99470168Y-98209800D01*
X99652487Y-98288039D01*
X99658745Y-98289325D01*
X99658748Y-98289326D01*
X99744855Y-98307021D01*
X99846823Y-98327976D01*
X99944260Y-98327976D01*
X99980835Y-98333401D01*
X100154162Y-98385979D01*
X100154168Y-98385980D01*
X100160088Y-98387776D01*
X100233202Y-98394977D01*
X100311334Y-98402673D01*
X100311341Y-98402673D01*
X100314414Y-98402976D01*
X100417630Y-98402976D01*
X100420703Y-98402673D01*
X100420710Y-98402673D01*
X100498842Y-98394977D01*
X100571956Y-98387776D01*
X100577876Y-98385980D01*
X100577882Y-98385979D01*
X100763742Y-98329599D01*
X100769976Y-98327708D01*
X100952472Y-98230161D01*
X101112432Y-98098886D01*
X101243707Y-97938926D01*
X101341254Y-97756430D01*
X101369879Y-97662064D01*
X101399525Y-97564336D01*
X101399526Y-97564330D01*
X101401322Y-97558410D01*
X101421605Y-97352476D01*
X101401322Y-97146542D01*
X101399526Y-97140622D01*
X101399525Y-97140616D01*
X101343049Y-96954440D01*
X101341254Y-96948522D01*
X101301863Y-96874827D01*
X103072867Y-96874827D01*
X103073557Y-96881392D01*
X103089411Y-97032231D01*
X103092829Y-97064755D01*
X103151844Y-97246383D01*
X103155147Y-97252105D01*
X103155148Y-97252106D01*
X103171255Y-97280004D01*
X103247331Y-97411771D01*
X103251749Y-97416678D01*
X103251750Y-97416679D01*
X103365234Y-97542716D01*
X103375118Y-97553693D01*
X103529619Y-97665945D01*
X103535647Y-97668629D01*
X103535649Y-97668630D01*
X103603314Y-97698756D01*
X103704083Y-97743621D01*
X103779992Y-97759756D01*
X103884427Y-97781955D01*
X103884432Y-97781955D01*
X103890884Y-97783327D01*
X104081858Y-97783327D01*
X104088310Y-97781955D01*
X104088315Y-97781955D01*
X104192750Y-97759756D01*
X104268659Y-97743621D01*
X104369428Y-97698756D01*
X104437093Y-97668630D01*
X104437095Y-97668629D01*
X104443123Y-97665945D01*
X104597624Y-97553693D01*
X104607508Y-97542716D01*
X104720992Y-97416679D01*
X104720993Y-97416678D01*
X104725411Y-97411771D01*
X104801487Y-97280004D01*
X104817594Y-97252106D01*
X104817595Y-97252105D01*
X104820898Y-97246383D01*
X104879913Y-97064755D01*
X104883332Y-97032231D01*
X104899185Y-96881392D01*
X104899875Y-96874827D01*
X104886509Y-96747653D01*
X104880603Y-96691462D01*
X104880603Y-96691460D01*
X104879913Y-96684899D01*
X104820898Y-96503271D01*
X104816211Y-96495152D01*
X104728712Y-96343601D01*
X104725411Y-96337883D01*
X104708385Y-96318973D01*
X104602046Y-96200872D01*
X104602045Y-96200871D01*
X104597624Y-96195961D01*
X104443123Y-96083709D01*
X104437095Y-96081025D01*
X104437093Y-96081024D01*
X104274690Y-96008718D01*
X104274689Y-96008718D01*
X104268659Y-96006033D01*
X104175259Y-95986180D01*
X104088315Y-95967699D01*
X104088310Y-95967699D01*
X104081858Y-95966327D01*
X103890884Y-95966327D01*
X103884432Y-95967699D01*
X103884427Y-95967699D01*
X103797483Y-95986180D01*
X103704083Y-96006033D01*
X103698053Y-96008718D01*
X103698052Y-96008718D01*
X103535649Y-96081024D01*
X103535647Y-96081025D01*
X103529619Y-96083709D01*
X103375118Y-96195961D01*
X103370697Y-96200871D01*
X103370696Y-96200872D01*
X103264358Y-96318973D01*
X103247331Y-96337883D01*
X103244030Y-96343601D01*
X103156532Y-96495152D01*
X103151844Y-96503271D01*
X103092829Y-96684899D01*
X103092139Y-96691460D01*
X103092139Y-96691462D01*
X103086233Y-96747653D01*
X103072867Y-96874827D01*
X101301863Y-96874827D01*
X101243707Y-96766026D01*
X101112432Y-96606066D01*
X100952472Y-96474791D01*
X100769976Y-96377244D01*
X100659069Y-96343601D01*
X100577882Y-96318973D01*
X100577876Y-96318972D01*
X100571956Y-96317176D01*
X100498842Y-96309975D01*
X100420710Y-96302279D01*
X100420703Y-96302279D01*
X100417630Y-96301976D01*
X100314414Y-96301976D01*
X100311341Y-96302279D01*
X100311334Y-96302279D01*
X100233202Y-96309975D01*
X100160088Y-96317176D01*
X100154168Y-96318972D01*
X100154162Y-96318973D01*
X99980835Y-96371551D01*
X99944260Y-96376976D01*
X99896549Y-96376976D01*
X99748643Y-96392017D01*
X99559344Y-96451409D01*
X99385876Y-96547692D01*
X99235340Y-96676923D01*
X99231431Y-96681973D01*
X99231430Y-96681974D01*
X99117810Y-96828758D01*
X99117808Y-96828762D01*
X99113900Y-96833810D01*
X99026527Y-97011932D01*
X99024926Y-97018114D01*
X99024926Y-97018115D01*
X98979595Y-97193194D01*
X98976798Y-97203996D01*
X98976475Y-97210370D01*
X98976474Y-97210375D01*
X98972902Y-97280822D01*
X98966750Y-97402139D01*
X97491238Y-97402139D01*
X97495144Y-97275344D01*
X97495144Y-97275338D01*
X97495263Y-97271470D01*
X97465380Y-96948981D01*
X97429685Y-96785991D01*
X97396924Y-96636398D01*
X97396923Y-96636395D01*
X97396094Y-96632609D01*
X97385359Y-96602144D01*
X97289744Y-96330809D01*
X97289742Y-96330805D01*
X97288454Y-96327149D01*
X97276071Y-96302279D01*
X97145820Y-96040701D01*
X97145819Y-96040699D01*
X97144092Y-96037231D01*
X97029296Y-95863986D01*
X96967341Y-95770485D01*
X96967335Y-95770477D01*
X96965198Y-95767252D01*
X96842819Y-95624411D01*
X96757008Y-95524252D01*
X96757004Y-95524248D01*
X96754481Y-95521303D01*
X96751617Y-95518692D01*
X96751612Y-95518687D01*
X96598632Y-95379228D01*
X96515138Y-95303113D01*
X96250796Y-95115989D01*
X96247383Y-95114156D01*
X95968869Y-94964597D01*
X95968862Y-94964594D01*
X95965462Y-94962768D01*
X95663462Y-94845773D01*
X95487180Y-94801436D01*
X95353144Y-94767724D01*
X95353137Y-94767723D01*
X95349373Y-94766776D01*
X95027957Y-94726976D01*
X94785135Y-94726976D01*
X94771698Y-94727805D01*
X94546634Y-94741686D01*
X94546627Y-94741687D01*
X94542766Y-94741925D01*
X94224410Y-94801436D01*
X93915780Y-94899618D01*
X93912258Y-94901238D01*
X93912259Y-94901238D01*
X93625077Y-95033362D01*
X93625069Y-95033366D01*
X93621555Y-95034983D01*
X93618254Y-95037027D01*
X93618252Y-95037028D01*
X93463543Y-95132820D01*
X93346194Y-95205479D01*
X93343163Y-95207918D01*
X93117332Y-95389644D01*
X93093873Y-95408521D01*
X92868416Y-95641032D01*
X92673240Y-95899486D01*
X92511305Y-96179966D01*
X92506007Y-96192484D01*
X92386578Y-96474644D01*
X92386575Y-96474652D01*
X92385065Y-96478220D01*
X92296433Y-96789727D01*
X92246754Y-97109765D01*
X92246634Y-97113646D01*
X92246634Y-97113651D01*
X92237299Y-97416679D01*
X92236781Y-97433482D01*
X92266664Y-97755971D01*
X92267493Y-97759756D01*
X92333306Y-98060268D01*
X92335950Y-98072343D01*
X92337240Y-98076003D01*
X92337240Y-98076004D01*
X92431902Y-98344634D01*
X92443590Y-98377803D01*
X92445315Y-98381267D01*
X92445317Y-98381272D01*
X92508908Y-98508979D01*
X92521367Y-98578874D01*
X92494060Y-98644409D01*
X92435657Y-98684777D01*
X92364700Y-98687162D01*
X92310415Y-98657507D01*
X92158958Y-98516976D01*
X92155503Y-98513770D01*
X92035783Y-98432146D01*
X91941634Y-98367956D01*
X91941632Y-98367955D01*
X91937738Y-98365300D01*
X91779977Y-98289326D01*
X91704525Y-98252990D01*
X91704523Y-98252989D01*
X91700276Y-98250944D01*
X91448422Y-98173258D01*
X91443772Y-98172557D01*
X91443767Y-98172556D01*
X91332445Y-98155777D01*
X91187803Y-98133976D01*
X90924241Y-98133976D01*
X90769762Y-98157260D01*
X90668285Y-98172555D01*
X90668283Y-98172555D01*
X90666654Y-98172801D01*
X90666653Y-98172801D01*
X90663622Y-98173258D01*
X90663524Y-98172610D01*
X90596226Y-98168491D01*
X90538956Y-98126530D01*
X90513464Y-98060268D01*
X90527842Y-97990742D01*
X90539406Y-97972864D01*
X90614230Y-97876199D01*
X90614232Y-97876196D01*
X90618144Y-97871142D01*
X90705517Y-97693020D01*
X90719307Y-97639762D01*
X90753646Y-97507137D01*
X90753647Y-97507133D01*
X90755246Y-97500956D01*
X90755569Y-97494582D01*
X90755570Y-97494577D01*
X90762746Y-97353053D01*
X90765294Y-97302813D01*
X90761099Y-97275424D01*
X90736219Y-97113015D01*
X90736219Y-97113014D01*
X90735252Y-97106703D01*
X90666347Y-96920656D01*
X90561402Y-96752287D01*
X90424713Y-96608490D01*
X90419474Y-96604843D01*
X90419471Y-96604841D01*
X90267123Y-96498804D01*
X90261876Y-96495152D01*
X90079557Y-96416913D01*
X90073299Y-96415627D01*
X90073296Y-96415626D01*
X89982389Y-96396944D01*
X89885221Y-96376976D01*
X89787784Y-96376976D01*
X89751209Y-96371551D01*
X89577882Y-96318973D01*
X89577876Y-96318972D01*
X89571956Y-96317176D01*
X89498842Y-96309975D01*
X89420710Y-96302279D01*
X89420703Y-96302279D01*
X89417630Y-96301976D01*
X89314414Y-96301976D01*
X89311341Y-96302279D01*
X89311334Y-96302279D01*
X89233202Y-96309975D01*
X89160088Y-96317176D01*
X89154168Y-96318972D01*
X89154162Y-96318973D01*
X89072975Y-96343601D01*
X88962068Y-96377244D01*
X88779572Y-96474791D01*
X88619612Y-96606066D01*
X88488337Y-96766026D01*
X88390790Y-96948522D01*
X88388995Y-96954440D01*
X88332519Y-97140616D01*
X88332518Y-97140622D01*
X88330722Y-97146542D01*
X88310439Y-97352476D01*
X86226115Y-97352476D01*
X86223159Y-97348527D01*
X86177873Y-97288033D01*
X86172475Y-97280822D01*
X86055418Y-97193194D01*
X85918415Y-97142094D01*
X85881509Y-97138126D01*
X85861202Y-97135943D01*
X85861199Y-97135943D01*
X85857852Y-97135583D01*
X84060576Y-97135583D01*
X84057229Y-97135943D01*
X84057226Y-97135943D01*
X84036919Y-97138126D01*
X84000013Y-97142094D01*
X83863010Y-97193194D01*
X83745953Y-97280822D01*
X83740555Y-97288033D01*
X83695270Y-97348527D01*
X83658325Y-97397879D01*
X83607225Y-97534882D01*
X83603257Y-97571788D01*
X83601160Y-97591301D01*
X83600714Y-97595445D01*
X83600714Y-99392721D01*
X76709057Y-99392721D01*
X76717947Y-99104145D01*
X76717947Y-99104139D01*
X76718066Y-99100271D01*
X76688183Y-98777782D01*
X76618897Y-98461410D01*
X76592316Y-98385979D01*
X76579217Y-98348807D01*
X78112376Y-98348807D01*
X78113343Y-98355119D01*
X78113343Y-98355121D01*
X78136913Y-98508979D01*
X78142418Y-98544917D01*
X78211323Y-98730964D01*
X78316268Y-98899333D01*
X78452957Y-99043130D01*
X78458196Y-99046777D01*
X78458199Y-99046779D01*
X78590372Y-99138774D01*
X78615794Y-99156468D01*
X78798113Y-99234707D01*
X78804371Y-99235993D01*
X78804374Y-99235994D01*
X78895281Y-99254675D01*
X78992449Y-99274644D01*
X79141121Y-99274644D01*
X79272761Y-99261257D01*
X79299235Y-99262513D01*
X79299334Y-99261512D01*
X79450580Y-99276409D01*
X79450587Y-99276409D01*
X79453660Y-99276712D01*
X79556876Y-99276712D01*
X79559949Y-99276409D01*
X79559956Y-99276409D01*
X79638088Y-99268713D01*
X79711202Y-99261512D01*
X79717122Y-99259716D01*
X79717128Y-99259715D01*
X79881880Y-99209738D01*
X79909222Y-99201444D01*
X80091718Y-99103897D01*
X80251678Y-98972622D01*
X80382953Y-98812662D01*
X80480500Y-98630166D01*
X80506360Y-98544917D01*
X80538771Y-98438072D01*
X80538772Y-98438066D01*
X80540568Y-98432146D01*
X80560851Y-98226212D01*
X80540568Y-98020278D01*
X80538772Y-98014358D01*
X80538771Y-98014352D01*
X80482295Y-97828176D01*
X80480500Y-97822258D01*
X80382953Y-97639762D01*
X80251678Y-97479802D01*
X80091718Y-97348527D01*
X79909222Y-97250980D01*
X79860144Y-97236093D01*
X79717128Y-97192709D01*
X79717122Y-97192708D01*
X79711202Y-97190912D01*
X79638088Y-97183711D01*
X79559956Y-97176015D01*
X79559949Y-97176015D01*
X79556876Y-97175712D01*
X79453660Y-97175712D01*
X79450587Y-97176015D01*
X79450580Y-97176015D01*
X79372448Y-97183711D01*
X79299334Y-97190912D01*
X79293414Y-97192708D01*
X79293408Y-97192709D01*
X79189868Y-97224118D01*
X79101314Y-97250980D01*
X79095859Y-97253896D01*
X79095852Y-97253899D01*
X78969247Y-97321572D01*
X78922595Y-97335805D01*
X78915587Y-97336517D01*
X78900627Y-97338038D01*
X78900622Y-97338039D01*
X78894269Y-97338685D01*
X78704970Y-97398077D01*
X78531502Y-97494360D01*
X78526657Y-97498519D01*
X78526656Y-97498520D01*
X78497067Y-97523921D01*
X78380966Y-97623591D01*
X78377057Y-97628641D01*
X78377056Y-97628642D01*
X78263436Y-97775426D01*
X78263434Y-97775430D01*
X78259526Y-97780478D01*
X78172153Y-97958600D01*
X78170552Y-97964782D01*
X78170552Y-97964783D01*
X78126563Y-98134679D01*
X78122424Y-98150664D01*
X78122101Y-98157038D01*
X78122100Y-98157043D01*
X78118385Y-98230308D01*
X78112376Y-98348807D01*
X76579217Y-98348807D01*
X76512547Y-98159610D01*
X76512545Y-98159606D01*
X76511257Y-98155950D01*
X76500666Y-98134679D01*
X76368623Y-97869502D01*
X76368622Y-97869500D01*
X76366895Y-97866032D01*
X76256054Y-97698756D01*
X76190144Y-97599286D01*
X76190138Y-97599278D01*
X76188001Y-97596053D01*
X76151709Y-97553693D01*
X75979811Y-97353053D01*
X75979807Y-97353049D01*
X75977284Y-97350104D01*
X75974420Y-97347493D01*
X75974415Y-97347488D01*
X75748184Y-97141252D01*
X75737941Y-97131914D01*
X75473599Y-96944790D01*
X75470186Y-96942957D01*
X75191672Y-96793398D01*
X75191665Y-96793395D01*
X75188265Y-96791569D01*
X74896712Y-96678621D01*
X74889887Y-96675977D01*
X74889885Y-96675976D01*
X74886265Y-96674574D01*
X74709983Y-96630237D01*
X74575947Y-96596525D01*
X74575940Y-96596524D01*
X74572176Y-96595577D01*
X74250760Y-96555777D01*
X74007938Y-96555777D01*
X73994501Y-96556606D01*
X73769437Y-96570487D01*
X73769430Y-96570488D01*
X73765569Y-96570726D01*
X73447213Y-96630237D01*
X73138583Y-96728419D01*
X73135061Y-96730039D01*
X73135062Y-96730039D01*
X72847880Y-96862163D01*
X72847872Y-96862167D01*
X72844358Y-96863784D01*
X72841057Y-96865828D01*
X72841055Y-96865829D01*
X72713529Y-96944790D01*
X72568997Y-97034280D01*
X72565966Y-97036719D01*
X72372117Y-97192709D01*
X72316676Y-97237322D01*
X72091219Y-97469833D01*
X72088884Y-97472925D01*
X72083691Y-97479802D01*
X71896043Y-97728287D01*
X71894102Y-97731649D01*
X71894100Y-97731652D01*
X71844938Y-97816803D01*
X71734108Y-98008767D01*
X71725955Y-98028029D01*
X71609381Y-98303445D01*
X71609378Y-98303453D01*
X71607868Y-98307021D01*
X71519236Y-98618528D01*
X71518641Y-98622362D01*
X71518640Y-98622366D01*
X71489101Y-98812662D01*
X71469557Y-98938566D01*
X71469437Y-98942447D01*
X71469437Y-98942452D01*
X71459786Y-99255741D01*
X71459584Y-99262283D01*
X71489467Y-99584772D01*
X71507677Y-99667924D01*
X71556855Y-99892476D01*
X71558753Y-99901144D01*
X71560043Y-99904804D01*
X71560043Y-99904805D01*
X71659286Y-100186435D01*
X71666393Y-100206604D01*
X71668118Y-100210068D01*
X71668120Y-100210073D01*
X71809005Y-100493008D01*
X71810755Y-100496522D01*
X71967897Y-100733675D01*
X71988851Y-100801507D01*
X71969804Y-100869901D01*
X71916805Y-100917141D01*
X71846679Y-100928227D01*
X71791885Y-100907377D01*
X71663386Y-100819768D01*
X71663384Y-100819767D01*
X71659490Y-100817112D01*
X71514724Y-100747396D01*
X71426277Y-100704802D01*
X71426275Y-100704801D01*
X71422028Y-100702756D01*
X71170174Y-100625070D01*
X71165524Y-100624369D01*
X71165519Y-100624368D01*
X71054197Y-100607589D01*
X70909555Y-100585788D01*
X70645993Y-100585788D01*
X70501351Y-100607589D01*
X70390029Y-100624368D01*
X70390024Y-100624369D01*
X70385374Y-100625070D01*
X70345505Y-100637368D01*
X70138028Y-100701365D01*
X70138022Y-100701367D01*
X70133520Y-100702756D01*
X70129273Y-100704801D01*
X70129266Y-100704804D01*
X70102234Y-100717822D01*
X70032181Y-100729357D01*
X69967012Y-100701188D01*
X69927418Y-100642257D01*
X69925970Y-100571275D01*
X69934442Y-100548811D01*
X70002682Y-100409695D01*
X70002685Y-100409686D01*
X70005497Y-100403954D01*
X70010092Y-100386209D01*
X70053626Y-100218071D01*
X70053627Y-100218067D01*
X70055226Y-100211890D01*
X70055549Y-100205516D01*
X70055550Y-100205511D01*
X70060763Y-100102706D01*
X70065274Y-100013747D01*
X70053771Y-99938653D01*
X70036199Y-99823949D01*
X70036199Y-99823948D01*
X70035232Y-99817637D01*
X69966327Y-99631590D01*
X69861382Y-99463221D01*
X69724693Y-99319424D01*
X69719454Y-99315777D01*
X69719451Y-99315775D01*
X69567103Y-99209738D01*
X69561856Y-99206086D01*
X69379537Y-99127847D01*
X69373279Y-99126561D01*
X69373276Y-99126560D01*
X69277184Y-99106813D01*
X69185201Y-99087910D01*
X69036529Y-99087910D01*
X68904889Y-99101297D01*
X68878415Y-99100041D01*
X68878316Y-99101042D01*
X68727070Y-99086145D01*
X68727063Y-99086145D01*
X68723990Y-99085842D01*
X68620774Y-99085842D01*
X68617701Y-99086145D01*
X68617694Y-99086145D01*
X68539562Y-99093841D01*
X68466448Y-99101042D01*
X68460528Y-99102838D01*
X68460522Y-99102839D01*
X68317506Y-99146223D01*
X68268428Y-99161110D01*
X68085932Y-99258657D01*
X67925972Y-99389932D01*
X67794697Y-99549892D01*
X67697150Y-99732388D01*
X67682263Y-99781466D01*
X67638879Y-99924482D01*
X67638878Y-99924488D01*
X67637082Y-99930408D01*
X67616799Y-100136342D01*
X65989775Y-100136342D01*
X65470689Y-97280004D01*
X65470689Y-97280003D01*
X64829796Y-93753350D01*
X66942207Y-93753350D01*
X66942897Y-93759915D01*
X66961199Y-93934045D01*
X66962169Y-93943278D01*
X67021184Y-94124906D01*
X67116671Y-94290294D01*
X67121089Y-94295201D01*
X67121090Y-94295202D01*
X67228737Y-94414756D01*
X67244458Y-94432216D01*
X67343554Y-94504214D01*
X67380092Y-94530760D01*
X67398959Y-94544468D01*
X67404989Y-94547153D01*
X67410712Y-94550457D01*
X67409297Y-94552908D01*
X67453912Y-94590830D01*
X67474562Y-94658757D01*
X67460331Y-94718137D01*
X67405901Y-94822696D01*
X67400785Y-94845773D01*
X67374443Y-94964597D01*
X67371679Y-94977063D01*
X67372039Y-94985310D01*
X67372039Y-94985311D01*
X67373207Y-95012065D01*
X67378576Y-95135027D01*
X67381057Y-95142897D01*
X67381058Y-95142901D01*
X67400143Y-95203430D01*
X67426121Y-95285824D01*
X67438800Y-95305726D01*
X67506640Y-95412214D01*
X67506643Y-95412217D01*
X67511076Y-95419176D01*
X67517161Y-95424752D01*
X67621561Y-95520418D01*
X67621564Y-95520420D01*
X67627650Y-95525997D01*
X67767900Y-95599007D01*
X67804861Y-95607201D01*
X67914205Y-95631442D01*
X67914207Y-95631442D01*
X67922267Y-95633229D01*
X67930515Y-95632869D01*
X67930516Y-95632869D01*
X68036452Y-95628244D01*
X68036456Y-95628244D01*
X68040568Y-95628064D01*
X68708978Y-95510206D01*
X68821911Y-95474599D01*
X68955264Y-95389644D01*
X69062085Y-95273070D01*
X69135094Y-95132820D01*
X69138826Y-95115989D01*
X69167530Y-94986513D01*
X69169317Y-94978453D01*
X69162420Y-94820489D01*
X69159939Y-94812619D01*
X69159938Y-94812615D01*
X69117357Y-94677565D01*
X69114875Y-94669692D01*
X69029920Y-94536340D01*
X68913345Y-94429519D01*
X68906021Y-94425706D01*
X68906019Y-94425705D01*
X68780423Y-94360323D01*
X68780421Y-94360322D01*
X68773096Y-94356509D01*
X68748864Y-94351137D01*
X68686688Y-94316864D01*
X68652911Y-94254417D01*
X68658258Y-94183622D01*
X68667018Y-94165124D01*
X68686934Y-94130629D01*
X68686935Y-94130628D01*
X68690238Y-94124906D01*
X68749253Y-93943278D01*
X68750224Y-93934045D01*
X68768525Y-93759915D01*
X68769215Y-93753350D01*
X68762334Y-93687884D01*
X68749943Y-93569985D01*
X68749943Y-93569983D01*
X68749253Y-93563422D01*
X68690238Y-93381794D01*
X68675366Y-93356034D01*
X68598052Y-93222124D01*
X68594751Y-93216406D01*
X68585373Y-93205990D01*
X68471386Y-93079395D01*
X68471385Y-93079394D01*
X68466964Y-93074484D01*
X68410006Y-93033101D01*
X70973365Y-93033101D01*
X70977389Y-93055921D01*
X70977389Y-93055922D01*
X71511675Y-96086003D01*
X71511675Y-96086005D01*
X71527569Y-96176140D01*
X71535858Y-96187669D01*
X71537888Y-96192484D01*
X71541534Y-96198986D01*
X71544582Y-96203225D01*
X71550096Y-96216307D01*
X71560741Y-96225701D01*
X71563791Y-96229943D01*
X71568789Y-96235467D01*
X71572711Y-96238928D01*
X71580997Y-96250453D01*
X71593465Y-96257243D01*
X71597372Y-96260691D01*
X71603497Y-96264980D01*
X71608077Y-96267474D01*
X71618721Y-96276867D01*
X71632385Y-96280711D01*
X71636969Y-96283208D01*
X71643886Y-96286022D01*
X71648904Y-96287434D01*
X71661376Y-96294226D01*
X71675557Y-96294934D01*
X71680587Y-96296349D01*
X71687943Y-96297552D01*
X71693161Y-96297812D01*
X71706825Y-96301657D01*
X71720804Y-96299192D01*
X71729645Y-96297633D01*
X71729646Y-96297633D01*
X75252128Y-95676524D01*
X75252133Y-95676523D01*
X75328291Y-95663094D01*
X75328292Y-95663093D01*
X75342268Y-95660629D01*
X75353793Y-95652343D01*
X75358597Y-95650318D01*
X75365120Y-95646660D01*
X75369354Y-95643616D01*
X75382434Y-95638102D01*
X75391829Y-95627457D01*
X75396065Y-95624411D01*
X75401603Y-95619400D01*
X75405055Y-95615488D01*
X75416581Y-95607201D01*
X75423371Y-95594732D01*
X75426826Y-95590817D01*
X75431103Y-95584709D01*
X75433602Y-95580121D01*
X75442995Y-95569477D01*
X75446840Y-95555814D01*
X75449338Y-95551226D01*
X75452151Y-95544313D01*
X75453564Y-95539291D01*
X75460354Y-95526822D01*
X75461062Y-95512640D01*
X75462475Y-95507616D01*
X75463678Y-95500258D01*
X75463939Y-95495040D01*
X75467784Y-95481373D01*
X75463761Y-95458556D01*
X75463761Y-95458552D01*
X75406415Y-95133328D01*
X75246222Y-94224828D01*
X77082866Y-94224828D01*
X77083556Y-94231393D01*
X77090263Y-94295202D01*
X77102828Y-94414756D01*
X77161843Y-94596384D01*
X77257330Y-94761772D01*
X77261748Y-94766679D01*
X77261749Y-94766680D01*
X77303109Y-94812615D01*
X77385117Y-94903694D01*
X77475004Y-94969001D01*
X77488014Y-94978453D01*
X77539618Y-95015946D01*
X77545646Y-95018630D01*
X77545648Y-95018631D01*
X77586969Y-95037028D01*
X77714082Y-95093622D01*
X77807482Y-95113475D01*
X77894426Y-95131956D01*
X77894431Y-95131956D01*
X77900883Y-95133328D01*
X78091857Y-95133328D01*
X78098309Y-95131956D01*
X78098314Y-95131956D01*
X78185258Y-95113475D01*
X78278658Y-95093622D01*
X78405771Y-95037028D01*
X78447092Y-95018631D01*
X78447094Y-95018630D01*
X78453122Y-95015946D01*
X78504727Y-94978453D01*
X78517736Y-94969001D01*
X78607623Y-94903694D01*
X78689631Y-94812615D01*
X78730991Y-94766680D01*
X78730992Y-94766679D01*
X78735410Y-94761772D01*
X78830897Y-94596384D01*
X78889912Y-94414756D01*
X78902478Y-94295202D01*
X78909184Y-94231393D01*
X78909874Y-94224828D01*
X78903599Y-94165124D01*
X78890602Y-94041463D01*
X78890602Y-94041461D01*
X78889912Y-94034900D01*
X78861756Y-93948244D01*
X92865515Y-93948244D01*
X92871676Y-93961036D01*
X92872839Y-93966132D01*
X92875299Y-93973162D01*
X92877566Y-93977869D01*
X92880725Y-93991712D01*
X92889577Y-94002812D01*
X92891843Y-94007517D01*
X92895810Y-94013831D01*
X92899069Y-94017917D01*
X92905227Y-94030705D01*
X92916324Y-94039555D01*
X92919572Y-94043628D01*
X92924868Y-94048924D01*
X92928941Y-94052172D01*
X92937791Y-94063269D01*
X92950579Y-94069427D01*
X92954665Y-94072686D01*
X92960979Y-94076653D01*
X92965684Y-94078919D01*
X92976784Y-94087771D01*
X92990627Y-94090930D01*
X92995334Y-94093197D01*
X93002364Y-94095657D01*
X93007460Y-94096820D01*
X93020252Y-94102981D01*
X96711778Y-94102981D01*
X96724570Y-94096820D01*
X96729666Y-94095657D01*
X96736696Y-94093197D01*
X96741403Y-94090930D01*
X96755246Y-94087771D01*
X96766346Y-94078919D01*
X96771051Y-94076653D01*
X96777365Y-94072686D01*
X96781451Y-94069427D01*
X96794239Y-94063269D01*
X96803089Y-94052172D01*
X96807162Y-94048924D01*
X96812458Y-94043628D01*
X96815706Y-94039555D01*
X96826803Y-94030705D01*
X96832961Y-94017917D01*
X96836220Y-94013831D01*
X96840187Y-94007517D01*
X96842453Y-94002812D01*
X96851305Y-93991712D01*
X96854464Y-93977869D01*
X96856731Y-93973162D01*
X96859191Y-93966132D01*
X96860354Y-93961036D01*
X96866515Y-93948244D01*
X96866515Y-91645160D01*
X98360028Y-91645160D01*
X98360718Y-91651725D01*
X98366849Y-91710054D01*
X98379990Y-91835088D01*
X98439005Y-92016716D01*
X98534492Y-92182104D01*
X98538910Y-92187011D01*
X98538911Y-92187012D01*
X98562146Y-92212817D01*
X98662279Y-92324026D01*
X98761375Y-92396024D01*
X98794852Y-92420346D01*
X98816780Y-92436278D01*
X98822808Y-92438962D01*
X98822810Y-92438963D01*
X98978857Y-92508439D01*
X98991244Y-92513954D01*
X99084644Y-92533807D01*
X99171588Y-92552288D01*
X99171593Y-92552288D01*
X99178045Y-92553660D01*
X99369019Y-92553660D01*
X99375471Y-92552288D01*
X99375476Y-92552288D01*
X99462420Y-92533807D01*
X99555820Y-92513954D01*
X99568207Y-92508439D01*
X99724254Y-92438963D01*
X99724256Y-92438962D01*
X99730284Y-92436278D01*
X99752213Y-92420346D01*
X99785689Y-92396024D01*
X99884785Y-92324026D01*
X99984918Y-92212817D01*
X100008153Y-92187012D01*
X100008154Y-92187011D01*
X100012572Y-92182104D01*
X100108059Y-92016716D01*
X100167074Y-91835088D01*
X100180216Y-91710054D01*
X100186346Y-91651725D01*
X100187036Y-91645160D01*
X100177423Y-91553694D01*
X100167764Y-91461795D01*
X100167764Y-91461793D01*
X100167074Y-91455232D01*
X100108059Y-91273604D01*
X100092344Y-91246384D01*
X100015873Y-91113934D01*
X100012572Y-91108216D01*
X99973441Y-91064756D01*
X99889207Y-90971205D01*
X99889206Y-90971204D01*
X99884785Y-90966294D01*
X99767929Y-90881393D01*
X99735626Y-90857923D01*
X99735625Y-90857922D01*
X99730284Y-90854042D01*
X99724256Y-90851358D01*
X99724254Y-90851357D01*
X99561851Y-90779051D01*
X99561850Y-90779051D01*
X99555820Y-90776366D01*
X99462419Y-90756513D01*
X99375476Y-90738032D01*
X99375471Y-90738032D01*
X99369019Y-90736660D01*
X99178045Y-90736660D01*
X99171593Y-90738032D01*
X99171588Y-90738032D01*
X99084645Y-90756513D01*
X98991244Y-90776366D01*
X98985214Y-90779051D01*
X98985213Y-90779051D01*
X98822810Y-90851357D01*
X98822808Y-90851358D01*
X98816780Y-90854042D01*
X98811439Y-90857922D01*
X98811438Y-90857923D01*
X98779135Y-90881393D01*
X98662279Y-90966294D01*
X98657858Y-90971204D01*
X98657857Y-90971205D01*
X98573624Y-91064756D01*
X98534492Y-91108216D01*
X98531191Y-91113934D01*
X98454721Y-91246384D01*
X98439005Y-91273604D01*
X98379990Y-91455232D01*
X98379300Y-91461793D01*
X98379300Y-91461795D01*
X98369641Y-91553694D01*
X98360028Y-91645160D01*
X96866515Y-91645160D01*
X96866515Y-90756718D01*
X96860354Y-90743926D01*
X96859191Y-90738830D01*
X96856731Y-90731800D01*
X96854464Y-90727093D01*
X96851305Y-90713250D01*
X96842453Y-90702150D01*
X96840187Y-90697445D01*
X96836220Y-90691131D01*
X96832961Y-90687045D01*
X96826803Y-90674257D01*
X96815706Y-90665407D01*
X96812458Y-90661334D01*
X96807162Y-90656038D01*
X96803089Y-90652790D01*
X96794239Y-90641693D01*
X96781451Y-90635535D01*
X96777365Y-90632276D01*
X96771051Y-90628309D01*
X96766346Y-90626043D01*
X96755246Y-90617191D01*
X96741403Y-90614032D01*
X96736696Y-90611765D01*
X96729666Y-90609305D01*
X96724570Y-90608142D01*
X96711778Y-90601981D01*
X93020252Y-90601981D01*
X93007460Y-90608142D01*
X93002364Y-90609305D01*
X92995334Y-90611765D01*
X92990627Y-90614032D01*
X92976784Y-90617191D01*
X92965684Y-90626043D01*
X92960979Y-90628309D01*
X92954665Y-90632276D01*
X92950579Y-90635535D01*
X92937791Y-90641693D01*
X92928941Y-90652790D01*
X92924868Y-90656038D01*
X92919572Y-90661334D01*
X92916324Y-90665407D01*
X92905227Y-90674257D01*
X92899069Y-90687045D01*
X92895810Y-90691131D01*
X92891843Y-90697445D01*
X92889577Y-90702150D01*
X92880725Y-90713250D01*
X92877566Y-90727093D01*
X92875299Y-90731800D01*
X92872839Y-90738830D01*
X92871676Y-90743926D01*
X92865515Y-90756718D01*
X92865515Y-93948244D01*
X78861756Y-93948244D01*
X78830897Y-93853272D01*
X78735410Y-93687884D01*
X78629254Y-93569985D01*
X78612045Y-93550873D01*
X78612044Y-93550872D01*
X78607623Y-93545962D01*
X78453122Y-93433710D01*
X78447094Y-93431026D01*
X78447092Y-93431025D01*
X78284689Y-93358719D01*
X78284688Y-93358719D01*
X78278658Y-93356034D01*
X78185257Y-93336181D01*
X78098314Y-93317700D01*
X78098309Y-93317700D01*
X78091857Y-93316328D01*
X77900883Y-93316328D01*
X77894431Y-93317700D01*
X77894426Y-93317700D01*
X77807483Y-93336181D01*
X77714082Y-93356034D01*
X77708052Y-93358719D01*
X77708051Y-93358719D01*
X77545648Y-93431025D01*
X77545646Y-93431026D01*
X77539618Y-93433710D01*
X77385117Y-93545962D01*
X77380696Y-93550872D01*
X77380695Y-93550873D01*
X77363487Y-93569985D01*
X77257330Y-93687884D01*
X77161843Y-93853272D01*
X77102828Y-94034900D01*
X77102138Y-94041461D01*
X77102138Y-94041463D01*
X77089141Y-94165124D01*
X77082866Y-94224828D01*
X75246222Y-94224828D01*
X74997900Y-92816528D01*
X75005769Y-92745969D01*
X75050536Y-92690865D01*
X75117988Y-92668711D01*
X75186709Y-92686542D01*
X75196044Y-92692710D01*
X75206603Y-92700382D01*
X75212631Y-92703066D01*
X75212633Y-92703067D01*
X75375036Y-92775373D01*
X75381067Y-92778058D01*
X75474468Y-92797911D01*
X75561411Y-92816392D01*
X75561416Y-92816392D01*
X75567868Y-92817764D01*
X75758842Y-92817764D01*
X75765294Y-92816392D01*
X75765299Y-92816392D01*
X75852242Y-92797911D01*
X75945643Y-92778058D01*
X75951674Y-92775373D01*
X76114077Y-92703067D01*
X76114079Y-92703066D01*
X76120107Y-92700382D01*
X76131976Y-92691759D01*
X76209022Y-92635781D01*
X76274608Y-92588130D01*
X76350547Y-92503791D01*
X76397976Y-92451116D01*
X76397977Y-92451115D01*
X76402395Y-92446208D01*
X76497882Y-92280820D01*
X76556897Y-92099192D01*
X76558100Y-92087752D01*
X76576169Y-91915829D01*
X76576169Y-91915828D01*
X76576859Y-91909264D01*
X76559450Y-91743622D01*
X76557587Y-91725899D01*
X76557587Y-91725897D01*
X76556897Y-91719336D01*
X76497882Y-91537708D01*
X76402395Y-91372320D01*
X76315431Y-91275736D01*
X76279030Y-91235309D01*
X76279029Y-91235308D01*
X76274608Y-91230398D01*
X76120107Y-91118146D01*
X76114079Y-91115462D01*
X76114077Y-91115461D01*
X75951674Y-91043155D01*
X75951673Y-91043155D01*
X75945643Y-91040470D01*
X75852243Y-91020617D01*
X75765299Y-91002136D01*
X75765294Y-91002136D01*
X75758842Y-91000764D01*
X75567868Y-91000764D01*
X75561416Y-91002136D01*
X75561411Y-91002136D01*
X75474467Y-91020617D01*
X75381067Y-91040470D01*
X75375037Y-91043155D01*
X75375036Y-91043155D01*
X75212633Y-91115461D01*
X75212631Y-91115462D01*
X75206603Y-91118146D01*
X75052102Y-91230398D01*
X75047681Y-91235308D01*
X75047680Y-91235309D01*
X75011280Y-91275736D01*
X74924315Y-91372320D01*
X74828828Y-91537708D01*
X74769813Y-91719336D01*
X74769123Y-91725897D01*
X74769123Y-91725899D01*
X74767260Y-91743622D01*
X74749851Y-91909264D01*
X74764193Y-92045714D01*
X74768611Y-92087752D01*
X74755839Y-92157591D01*
X74707337Y-92209437D01*
X74665181Y-92225009D01*
X71189022Y-92837950D01*
X71189017Y-92837951D01*
X71098882Y-92853845D01*
X71087353Y-92862134D01*
X71082538Y-92864164D01*
X71076036Y-92867810D01*
X71071797Y-92870858D01*
X71058715Y-92876372D01*
X71049321Y-92887017D01*
X71045079Y-92890067D01*
X71039555Y-92895065D01*
X71036094Y-92898987D01*
X71024569Y-92907273D01*
X71017779Y-92919741D01*
X71014331Y-92923648D01*
X71010042Y-92929773D01*
X71007548Y-92934353D01*
X70998155Y-92944997D01*
X70994311Y-92958661D01*
X70991814Y-92963245D01*
X70989000Y-92970162D01*
X70987588Y-92975180D01*
X70980796Y-92987652D01*
X70980088Y-93001833D01*
X70978673Y-93006863D01*
X70977470Y-93014219D01*
X70977210Y-93019437D01*
X70973365Y-93033101D01*
X68410006Y-93033101D01*
X68352268Y-92991152D01*
X68317805Y-92966113D01*
X68317804Y-92966112D01*
X68312463Y-92962232D01*
X68306435Y-92959548D01*
X68306433Y-92959547D01*
X68144030Y-92887241D01*
X68144029Y-92887241D01*
X68137999Y-92884556D01*
X68042063Y-92864164D01*
X67957655Y-92846222D01*
X67957650Y-92846222D01*
X67951198Y-92844850D01*
X67760224Y-92844850D01*
X67753772Y-92846222D01*
X67753767Y-92846222D01*
X67669359Y-92864164D01*
X67573423Y-92884556D01*
X67567393Y-92887241D01*
X67567392Y-92887241D01*
X67404989Y-92959547D01*
X67404987Y-92959548D01*
X67398959Y-92962232D01*
X67393618Y-92966112D01*
X67393617Y-92966113D01*
X67359154Y-92991152D01*
X67244458Y-93074484D01*
X67240037Y-93079394D01*
X67240036Y-93079395D01*
X67126050Y-93205990D01*
X67116671Y-93216406D01*
X67113370Y-93222124D01*
X67036057Y-93356034D01*
X67021184Y-93381794D01*
X66962169Y-93563422D01*
X66961479Y-93569983D01*
X66961479Y-93569985D01*
X66949088Y-93687884D01*
X66942207Y-93753350D01*
X64829796Y-93753350D01*
X64780068Y-93479712D01*
X64782829Y-93479210D01*
X64782825Y-93479196D01*
X64780071Y-93479697D01*
X64780071Y-93479696D01*
X64774040Y-93446537D01*
X64772428Y-93434285D01*
X64761151Y-93296621D01*
X64761557Y-93271921D01*
X64776646Y-93140876D01*
X64781865Y-93116727D01*
X64822234Y-92991152D01*
X64832063Y-92968489D01*
X64896162Y-92853195D01*
X64910227Y-92832882D01*
X64995583Y-92732323D01*
X65013338Y-92715148D01*
X65116687Y-92633166D01*
X65137454Y-92619784D01*
X65199122Y-92588130D01*
X65254802Y-92559550D01*
X65277776Y-92550479D01*
X65410384Y-92512657D01*
X65422428Y-92509853D01*
X65455811Y-92503791D01*
X65456655Y-92508439D01*
X65456667Y-92508437D01*
X65455821Y-92503784D01*
X74419392Y-90874828D01*
X87632867Y-90874828D01*
X87633557Y-90881393D01*
X87650559Y-91043155D01*
X87652829Y-91064756D01*
X87711844Y-91246384D01*
X87715147Y-91252106D01*
X87715148Y-91252107D01*
X87731188Y-91279889D01*
X87807331Y-91411772D01*
X87811749Y-91416679D01*
X87811750Y-91416680D01*
X87852372Y-91461795D01*
X87935118Y-91553694D01*
X88023549Y-91617943D01*
X88070046Y-91651725D01*
X88089619Y-91665946D01*
X88095647Y-91668630D01*
X88095649Y-91668631D01*
X88208969Y-91719084D01*
X88264083Y-91743622D01*
X88343356Y-91760472D01*
X88444427Y-91781956D01*
X88444432Y-91781956D01*
X88450884Y-91783328D01*
X88641858Y-91783328D01*
X88648310Y-91781956D01*
X88648315Y-91781956D01*
X88749386Y-91760472D01*
X88828659Y-91743622D01*
X88834686Y-91740939D01*
X88834694Y-91740936D01*
X88883774Y-91719084D01*
X88954141Y-91709650D01*
X89018438Y-91739757D01*
X89056251Y-91799846D01*
X89055575Y-91870839D01*
X89045156Y-91894852D01*
X89041486Y-91899635D01*
X89038328Y-91907260D01*
X89038327Y-91907261D01*
X89012121Y-91970529D01*
X88980978Y-92045714D01*
X88960340Y-92202476D01*
X88980978Y-92359238D01*
X89041486Y-92505317D01*
X89137740Y-92630758D01*
X89263181Y-92727012D01*
X89409260Y-92787520D01*
X89526661Y-92802976D01*
X90205383Y-92802976D01*
X90322784Y-92787520D01*
X90468863Y-92727012D01*
X90594304Y-92630758D01*
X90690558Y-92505317D01*
X90751066Y-92359238D01*
X90771704Y-92202476D01*
X90751066Y-92045714D01*
X90690558Y-91899635D01*
X90594304Y-91774194D01*
X90468863Y-91677940D01*
X90322784Y-91617432D01*
X90205383Y-91601976D01*
X89526661Y-91601976D01*
X89409260Y-91617432D01*
X89408216Y-91617864D01*
X89340542Y-91616253D01*
X89281746Y-91576458D01*
X89253799Y-91511194D01*
X89265573Y-91441180D01*
X89278038Y-91422693D01*
X89277112Y-91422020D01*
X89280991Y-91416680D01*
X89285411Y-91411772D01*
X89361554Y-91279889D01*
X89377594Y-91252107D01*
X89377595Y-91252106D01*
X89380898Y-91246384D01*
X89439913Y-91064756D01*
X89442184Y-91043155D01*
X89459185Y-90881393D01*
X89459875Y-90874828D01*
X89441232Y-90697445D01*
X89440603Y-90691463D01*
X89440603Y-90691461D01*
X89439913Y-90684900D01*
X89380898Y-90503272D01*
X89285411Y-90337884D01*
X89157624Y-90195962D01*
X89003123Y-90083710D01*
X88997095Y-90081026D01*
X88997093Y-90081025D01*
X88834690Y-90008719D01*
X88834689Y-90008719D01*
X88828659Y-90006034D01*
X88729524Y-89984962D01*
X88648315Y-89967700D01*
X88648310Y-89967700D01*
X88641858Y-89966328D01*
X88450884Y-89966328D01*
X88444432Y-89967700D01*
X88444427Y-89967700D01*
X88363218Y-89984962D01*
X88264083Y-90006034D01*
X88258053Y-90008719D01*
X88258052Y-90008719D01*
X88095649Y-90081025D01*
X88095647Y-90081026D01*
X88089619Y-90083710D01*
X87935118Y-90195962D01*
X87807331Y-90337884D01*
X87711844Y-90503272D01*
X87652829Y-90684900D01*
X87652139Y-90691461D01*
X87652139Y-90691463D01*
X87651510Y-90697445D01*
X87632867Y-90874828D01*
X74419392Y-90874828D01*
X80716903Y-89730377D01*
X80720005Y-89729813D01*
X80721815Y-89729498D01*
X80742738Y-89726020D01*
X80746379Y-89725470D01*
X80761234Y-89723456D01*
X80766444Y-89722750D01*
X80770188Y-89722300D01*
X80791595Y-89720049D01*
X80793470Y-89719866D01*
X80816759Y-89717768D01*
X80831844Y-89716410D01*
X80831851Y-89716406D01*
X80831853Y-89716406D01*
X84890188Y-89350638D01*
X86435460Y-89211366D01*
X86437339Y-89211211D01*
X86458393Y-89209632D01*
X86462153Y-89209406D01*
X86482337Y-89208498D01*
X86486109Y-89208385D01*
X86505315Y-89208097D01*
X86507306Y-89208067D01*
X86509192Y-89208053D01*
X102023325Y-89208054D01*
X102023335Y-89208058D01*
X102023371Y-89208058D01*
X102057032Y-89208055D01*
X102069382Y-89208661D01*
X102168535Y-89218418D01*
X102206833Y-89222186D01*
X102231062Y-89227003D01*
X102357293Y-89265287D01*
X102380112Y-89274738D01*
X102469720Y-89322632D01*
X102496441Y-89336914D01*
X102516981Y-89350638D01*
X102618943Y-89434317D01*
X102636410Y-89451785D01*
X102714320Y-89546725D01*
X102720082Y-89553747D01*
X102733807Y-89574290D01*
X102795977Y-89690624D01*
X102805428Y-89713446D01*
X102810340Y-89729644D01*
X102843704Y-89839670D01*
X102848521Y-89863902D01*
X102862080Y-90001768D01*
X102862685Y-90014119D01*
X102862680Y-90047403D01*
X102857939Y-90047402D01*
X102857938Y-90047417D01*
X102862686Y-90047417D01*
X102862685Y-91213256D01*
X102862684Y-91213259D01*
X102862685Y-91238962D01*
X102862685Y-91275724D01*
X102862684Y-91275724D01*
X102862688Y-91275790D01*
X102862661Y-91357741D01*
X102898847Y-91563788D01*
X102970123Y-91760472D01*
X103074339Y-91941866D01*
X103077843Y-91946066D01*
X103165842Y-92051544D01*
X103208356Y-92102503D01*
X103212535Y-92106035D01*
X103212538Y-92106038D01*
X103346304Y-92219093D01*
X103368134Y-92237543D01*
X103548858Y-92342915D01*
X103554000Y-92344816D01*
X103554003Y-92344817D01*
X103631401Y-92373425D01*
X103745083Y-92415445D01*
X103750473Y-92416427D01*
X103750476Y-92416428D01*
X103826134Y-92430214D01*
X103950895Y-92452947D01*
X104066066Y-92453686D01*
X104154614Y-92454255D01*
X104154616Y-92454255D01*
X104160091Y-92454290D01*
X104207920Y-92446208D01*
X104360973Y-92420346D01*
X104360979Y-92420344D01*
X104366367Y-92419434D01*
X104371521Y-92417604D01*
X104371524Y-92417603D01*
X104558345Y-92351262D01*
X104563507Y-92349429D01*
X104745570Y-92246385D01*
X104907068Y-92113408D01*
X104975074Y-92033932D01*
X104975083Y-92033940D01*
X104975102Y-92033899D01*
X105001014Y-92003639D01*
X105001015Y-92003635D01*
X109119384Y-87193758D01*
X109119393Y-87193753D01*
X109119412Y-87193731D01*
X109119416Y-87193727D01*
X109145321Y-87163466D01*
X109145329Y-87163456D01*
X109159714Y-87146656D01*
X109159717Y-87146652D01*
X109160009Y-87146311D01*
X109160082Y-87146173D01*
X109160113Y-87146132D01*
X109207263Y-87090952D01*
X109207265Y-87090950D01*
X109210666Y-87086969D01*
X109284773Y-86963564D01*
X109311525Y-86919017D01*
X109311527Y-86919012D01*
X109314243Y-86914490D01*
X109316171Y-86909572D01*
X109385749Y-86732084D01*
X109385750Y-86732079D01*
X109387671Y-86727180D01*
X109428902Y-86530261D01*
X109436787Y-86329227D01*
X109433953Y-86307204D01*
X109420406Y-86201956D01*
X109411104Y-86129684D01*
X109352571Y-85937198D01*
X109337639Y-85907240D01*
X109269787Y-85771116D01*
X109262820Y-85757138D01*
X109229663Y-85711624D01*
X109147457Y-85598784D01*
X109147455Y-85598782D01*
X109144354Y-85594525D01*
X109000478Y-85453896D01*
X108835204Y-85339172D01*
X108790220Y-85318017D01*
X108657885Y-85255784D01*
X108653143Y-85253554D01*
X108578110Y-85232521D01*
X108578566Y-85230896D01*
X108578464Y-85230874D01*
X108578018Y-85232471D01*
X108556483Y-85226458D01*
X108556282Y-85226402D01*
X108556203Y-85226380D01*
X108517870Y-85215673D01*
X108519078Y-85211348D01*
X108519068Y-85211344D01*
X108517859Y-85215674D01*
X104438335Y-84076656D01*
X104426766Y-84073420D01*
X104400350Y-84067314D01*
X104375054Y-84061467D01*
X104375036Y-84061463D01*
X104373646Y-84061142D01*
X104349386Y-84056687D01*
X104321436Y-84051555D01*
X104321417Y-84051552D01*
X104320023Y-84051296D01*
X104296918Y-84048133D01*
X104296918Y-84048130D01*
X104296909Y-84048132D01*
X101197443Y-83623561D01*
X101197476Y-83623322D01*
X101197454Y-83623325D01*
X101197423Y-83623550D01*
X101196636Y-83623442D01*
X101196635Y-83623442D01*
X101157909Y-83618146D01*
X101135570Y-83615086D01*
X101135542Y-83615089D01*
X101135539Y-83615089D01*
X101130923Y-83614457D01*
X101129484Y-83614326D01*
X101129473Y-83614325D01*
X101084070Y-83610200D01*
X101076674Y-83609528D01*
X101075293Y-83609465D01*
X101075273Y-83609464D01*
X101023677Y-83607124D01*
X101023659Y-83607124D01*
X101022257Y-83607060D01*
X101017621Y-83607060D01*
X101017612Y-83607059D01*
X101017607Y-83607058D01*
X100994965Y-83607058D01*
X100955146Y-83607057D01*
X100955138Y-83607057D01*
X100955136Y-83607058D01*
X84507348Y-83607057D01*
X84507313Y-83607053D01*
X84507313Y-83607054D01*
X84490112Y-83607051D01*
X84489667Y-83607051D01*
X84489522Y-83607055D01*
X84489276Y-83607057D01*
X84484687Y-83607057D01*
X84484687Y-83605052D01*
X84483916Y-83604917D01*
X84483983Y-83607218D01*
X84454390Y-83608085D01*
X84453496Y-83608138D01*
X84453488Y-83608138D01*
X84424823Y-83609826D01*
X84424706Y-83607846D01*
X84423960Y-83608023D01*
X84424111Y-83609728D01*
X84419609Y-83610126D01*
X84419310Y-83610150D01*
X84419159Y-83610159D01*
X84418694Y-83610200D01*
X84418696Y-83610200D01*
X84401581Y-83611715D01*
X84377759Y-83613824D01*
X84377738Y-83613826D01*
X82209674Y-83805412D01*
X82195216Y-83806689D01*
X82195195Y-83806689D01*
X82195194Y-83806687D01*
X82195160Y-83806690D01*
X82177914Y-83808214D01*
X82177878Y-83808217D01*
X82177623Y-83808240D01*
X82177533Y-83808251D01*
X82177360Y-83808267D01*
X82172693Y-83808680D01*
X82172518Y-83806701D01*
X82171726Y-83806633D01*
X82171994Y-83808904D01*
X82142588Y-83812376D01*
X82141700Y-83812507D01*
X82141673Y-83812511D01*
X82113323Y-83816707D01*
X82113036Y-83814766D01*
X82112275Y-83815017D01*
X82112570Y-83816671D01*
X82090323Y-83820634D01*
X82090323Y-83820633D01*
X82075340Y-83823303D01*
X82075340Y-83823302D01*
X82075334Y-83823304D01*
X74787522Y-85121456D01*
X66781622Y-86547518D01*
X66769343Y-86549088D01*
X66631642Y-86559849D01*
X66606950Y-86559351D01*
X66475966Y-86543779D01*
X66451844Y-86538473D01*
X66326413Y-86497648D01*
X66303793Y-86487741D01*
X66188732Y-86423234D01*
X66168479Y-86409105D01*
X66068212Y-86323391D01*
X66051103Y-86305581D01*
X65969483Y-86201956D01*
X65956177Y-86181151D01*
X65896339Y-86063599D01*
X65887346Y-86040598D01*
X65859643Y-85942234D01*
X65849784Y-85907226D01*
X65847022Y-85895178D01*
X65842495Y-85869760D01*
X65155909Y-82015305D01*
X64492749Y-78292338D01*
X66143603Y-78292338D01*
X66163886Y-78498272D01*
X66165682Y-78504192D01*
X66165683Y-78504198D01*
X66200462Y-78618848D01*
X66223954Y-78696292D01*
X66321501Y-78878788D01*
X66452776Y-79038748D01*
X66612736Y-79170023D01*
X66795232Y-79267570D01*
X66836370Y-79280049D01*
X66987326Y-79325841D01*
X66987332Y-79325842D01*
X66993252Y-79327638D01*
X67066366Y-79334839D01*
X67144498Y-79342535D01*
X67144505Y-79342535D01*
X67147578Y-79342838D01*
X67250794Y-79342838D01*
X67253867Y-79342535D01*
X67253874Y-79342535D01*
X67332006Y-79334839D01*
X67405120Y-79327638D01*
X67411040Y-79325842D01*
X67411046Y-79325841D01*
X67550094Y-79283661D01*
X67603140Y-79267570D01*
X67608598Y-79264653D01*
X67608602Y-79264651D01*
X67735207Y-79196978D01*
X67781859Y-79182745D01*
X67788867Y-79182033D01*
X67803827Y-79180512D01*
X67803832Y-79180511D01*
X67810185Y-79179865D01*
X67816281Y-79177952D01*
X67822540Y-79176666D01*
X67822871Y-79178278D01*
X67885755Y-79177124D01*
X67946176Y-79214405D01*
X67976849Y-79278433D01*
X67968037Y-79348881D01*
X67950993Y-79377211D01*
X67940319Y-79390596D01*
X67850498Y-79503227D01*
X67850495Y-79503231D01*
X67847563Y-79506908D01*
X67845210Y-79510984D01*
X67845207Y-79510988D01*
X67786732Y-79612271D01*
X67715782Y-79735160D01*
X67681735Y-79821911D01*
X67626797Y-79961890D01*
X67619491Y-79980504D01*
X67618441Y-79985103D01*
X67618441Y-79985104D01*
X67581861Y-80145374D01*
X67560843Y-80237458D01*
X67560491Y-80242158D01*
X67560490Y-80242163D01*
X67543421Y-80469943D01*
X67541147Y-80500284D01*
X67541499Y-80504981D01*
X67560259Y-80755312D01*
X67560843Y-80763110D01*
X67561893Y-80767709D01*
X67561893Y-80767711D01*
X67579023Y-80842762D01*
X67619491Y-81020064D01*
X67621215Y-81024455D01*
X67621215Y-81024457D01*
X67634218Y-81057587D01*
X67715782Y-81265408D01*
X67847563Y-81493660D01*
X67850495Y-81497337D01*
X67850498Y-81497341D01*
X68008957Y-81696042D01*
X68011892Y-81699722D01*
X68205097Y-81878990D01*
X68299052Y-81943047D01*
X68417064Y-82023506D01*
X68422863Y-82027460D01*
X68427112Y-82029506D01*
X68427115Y-82029508D01*
X68543647Y-82085627D01*
X68660324Y-82141816D01*
X68664826Y-82143205D01*
X68664832Y-82143207D01*
X68790874Y-82182085D01*
X68912178Y-82219502D01*
X68916828Y-82220203D01*
X68916833Y-82220204D01*
X68990638Y-82231328D01*
X69172797Y-82258784D01*
X69436359Y-82258784D01*
X69696978Y-82219502D01*
X69697191Y-82220913D01*
X69761766Y-82224871D01*
X69819032Y-82266836D01*
X69844519Y-82333100D01*
X69830135Y-82402625D01*
X69814749Y-82425200D01*
X69751488Y-82499268D01*
X69751485Y-82499272D01*
X69748278Y-82503027D01*
X69615990Y-82718901D01*
X69614097Y-82723471D01*
X69614095Y-82723475D01*
X69523173Y-82942981D01*
X69519101Y-82952812D01*
X69517946Y-82957624D01*
X69492439Y-83063870D01*
X69459997Y-83199000D01*
X69440132Y-83451403D01*
X69459997Y-83703806D01*
X69461151Y-83708613D01*
X69461152Y-83708619D01*
X69486636Y-83814766D01*
X69519101Y-83949994D01*
X69520994Y-83954565D01*
X69520995Y-83954567D01*
X69579585Y-84096015D01*
X69615990Y-84183905D01*
X69748278Y-84399779D01*
X69912708Y-84592301D01*
X70105230Y-84756731D01*
X70321104Y-84889019D01*
X70325674Y-84890912D01*
X70325678Y-84890914D01*
X70526923Y-84974272D01*
X70555015Y-84985908D01*
X70639638Y-85006224D01*
X70796390Y-85043857D01*
X70796396Y-85043858D01*
X70801203Y-85045012D01*
X71053606Y-85064877D01*
X71306009Y-85045012D01*
X71310816Y-85043858D01*
X71310822Y-85043857D01*
X71467574Y-85006224D01*
X71552197Y-84985908D01*
X71580289Y-84974272D01*
X71781534Y-84890914D01*
X71781538Y-84890912D01*
X71786108Y-84889019D01*
X72001982Y-84756731D01*
X72194504Y-84592301D01*
X72358934Y-84399779D01*
X72361516Y-84395565D01*
X72361520Y-84395560D01*
X72374809Y-84373874D01*
X72427456Y-84326242D01*
X72497498Y-84314635D01*
X72564073Y-84343897D01*
X72691777Y-84452967D01*
X72907651Y-84585255D01*
X72912221Y-84587148D01*
X72912225Y-84587150D01*
X73136989Y-84680250D01*
X73141562Y-84682144D01*
X73226185Y-84702460D01*
X73382937Y-84740093D01*
X73382943Y-84740094D01*
X73387750Y-84741248D01*
X73640153Y-84761113D01*
X73892556Y-84741248D01*
X73897363Y-84740094D01*
X73897369Y-84740093D01*
X74054121Y-84702460D01*
X74138744Y-84682144D01*
X74143317Y-84680250D01*
X74368081Y-84587150D01*
X74368085Y-84587148D01*
X74372655Y-84585255D01*
X74588529Y-84452967D01*
X74781051Y-84288537D01*
X74945481Y-84096015D01*
X75077769Y-83880141D01*
X75101312Y-83823305D01*
X75172764Y-83650803D01*
X75172765Y-83650801D01*
X75174658Y-83646230D01*
X75193277Y-83568676D01*
X75216143Y-83473433D01*
X75251495Y-83411864D01*
X75314522Y-83379181D01*
X75386880Y-83386438D01*
X75448264Y-83411864D01*
X75500582Y-83433535D01*
X75575008Y-83451403D01*
X75741957Y-83491484D01*
X75741963Y-83491485D01*
X75746770Y-83492639D01*
X75999173Y-83512504D01*
X76251576Y-83492639D01*
X76256383Y-83491485D01*
X76256389Y-83491484D01*
X76423338Y-83451403D01*
X76497764Y-83433535D01*
X76502337Y-83431641D01*
X76727101Y-83338541D01*
X76727105Y-83338539D01*
X76731675Y-83336646D01*
X76947549Y-83204358D01*
X77140071Y-83039928D01*
X77304501Y-82847406D01*
X77309801Y-82838758D01*
X77311118Y-82836609D01*
X77363766Y-82788978D01*
X77433808Y-82777372D01*
X77447964Y-82779926D01*
X77507714Y-82794271D01*
X77507720Y-82794272D01*
X77512527Y-82795426D01*
X77764930Y-82815291D01*
X78017333Y-82795426D01*
X78022140Y-82794272D01*
X78022146Y-82794271D01*
X78222463Y-82746179D01*
X78263521Y-82736322D01*
X78277548Y-82730512D01*
X78492858Y-82641328D01*
X78492862Y-82641326D01*
X78497432Y-82639433D01*
X78713306Y-82507145D01*
X78905828Y-82342715D01*
X79070258Y-82150193D01*
X79155633Y-82010874D01*
X81615673Y-82010874D01*
X81616103Y-82016063D01*
X81633727Y-82228746D01*
X81634265Y-82235242D01*
X81635546Y-82240300D01*
X81635546Y-82240301D01*
X81674199Y-82392936D01*
X81689533Y-82453490D01*
X81707914Y-82495394D01*
X81775507Y-82649492D01*
X81779969Y-82659665D01*
X81782819Y-82664027D01*
X81782821Y-82664031D01*
X81864453Y-82788978D01*
X81903107Y-82848142D01*
X81906632Y-82851971D01*
X81906635Y-82851975D01*
X81992177Y-82944897D01*
X82055589Y-83013780D01*
X82059708Y-83016986D01*
X82224400Y-83145172D01*
X82233253Y-83152063D01*
X82237834Y-83154542D01*
X82379429Y-83231169D01*
X82431255Y-83259216D01*
X82644194Y-83332318D01*
X82649328Y-83333175D01*
X82649333Y-83333176D01*
X82861123Y-83368517D01*
X82861125Y-83368517D01*
X82866260Y-83369374D01*
X83091398Y-83369374D01*
X83096533Y-83368517D01*
X83096535Y-83368517D01*
X83308325Y-83333176D01*
X83308330Y-83333175D01*
X83313464Y-83332318D01*
X83526403Y-83259216D01*
X83578230Y-83231169D01*
X83719824Y-83154542D01*
X83724405Y-83152063D01*
X83733259Y-83145172D01*
X83897950Y-83016986D01*
X83902069Y-83013780D01*
X83965481Y-82944897D01*
X84051023Y-82851975D01*
X84051026Y-82851971D01*
X84054551Y-82848142D01*
X84093205Y-82788978D01*
X84174837Y-82664031D01*
X84174839Y-82664027D01*
X84177689Y-82659665D01*
X84182152Y-82649492D01*
X84249744Y-82495394D01*
X84268125Y-82453490D01*
X84283460Y-82392936D01*
X84322112Y-82240301D01*
X84322112Y-82240300D01*
X84323393Y-82235242D01*
X84323932Y-82228746D01*
X84341555Y-82016063D01*
X84341985Y-82010874D01*
X84336365Y-81943047D01*
X84323824Y-81791702D01*
X84323823Y-81791697D01*
X84323393Y-81786506D01*
X84315938Y-81757067D01*
X84269407Y-81573320D01*
X84269407Y-81573319D01*
X84268125Y-81568258D01*
X84196624Y-81405251D01*
X84179783Y-81366856D01*
X84179781Y-81366852D01*
X84177689Y-81362083D01*
X84054551Y-81173606D01*
X84051026Y-81169777D01*
X84051023Y-81169773D01*
X83913204Y-81020064D01*
X83902069Y-81007968D01*
X83816001Y-80940978D01*
X83728518Y-80872886D01*
X83728516Y-80872884D01*
X83724405Y-80869685D01*
X83691149Y-80851688D01*
X83640758Y-80801675D01*
X83625406Y-80732358D01*
X83649966Y-80665745D01*
X83691149Y-80630060D01*
X83719824Y-80614542D01*
X83724405Y-80612063D01*
X83751313Y-80591120D01*
X83897950Y-80476986D01*
X83902069Y-80473780D01*
X84000903Y-80366419D01*
X84051023Y-80311975D01*
X84051026Y-80311971D01*
X84054551Y-80308142D01*
X84103737Y-80232857D01*
X84174837Y-80124031D01*
X84174839Y-80124027D01*
X84177689Y-80119665D01*
X84209404Y-80047363D01*
X84248207Y-79958899D01*
X84268125Y-79913490D01*
X84323393Y-79695242D01*
X84323879Y-79689383D01*
X84341555Y-79476063D01*
X84341985Y-79470874D01*
X84335005Y-79386636D01*
X84323824Y-79251702D01*
X84323823Y-79251697D01*
X84323393Y-79246506D01*
X84307883Y-79185260D01*
X84269407Y-79033320D01*
X84269407Y-79033319D01*
X84268125Y-79028258D01*
X84194671Y-78860798D01*
X84179783Y-78826856D01*
X84179781Y-78826852D01*
X84177689Y-78822083D01*
X84172870Y-78814706D01*
X84057402Y-78637970D01*
X84054551Y-78633606D01*
X84051026Y-78629777D01*
X84051023Y-78629773D01*
X83905601Y-78471805D01*
X83902069Y-78467968D01*
X83841489Y-78420816D01*
X83728518Y-78332886D01*
X83728516Y-78332884D01*
X83724405Y-78329685D01*
X83691149Y-78311688D01*
X83640758Y-78261675D01*
X83625406Y-78192358D01*
X83649966Y-78125745D01*
X83691149Y-78090060D01*
X83695191Y-78087873D01*
X83724405Y-78072063D01*
X83732329Y-78065896D01*
X83897950Y-77936986D01*
X83902069Y-77933780D01*
X83963218Y-77867355D01*
X84051023Y-77771975D01*
X84051026Y-77771971D01*
X84054551Y-77768142D01*
X84141438Y-77635152D01*
X84174837Y-77584031D01*
X84174839Y-77584027D01*
X84177689Y-77579665D01*
X84181638Y-77570664D01*
X84260575Y-77390703D01*
X84268125Y-77373490D01*
X84272190Y-77357440D01*
X84322112Y-77160301D01*
X84322112Y-77160300D01*
X84323393Y-77155242D01*
X84325275Y-77132540D01*
X84341555Y-76936063D01*
X84341985Y-76930874D01*
X84335588Y-76853679D01*
X84323824Y-76711702D01*
X84323823Y-76711697D01*
X84323393Y-76706506D01*
X84317351Y-76682647D01*
X84269407Y-76493320D01*
X84269407Y-76493319D01*
X84268125Y-76488258D01*
X84223406Y-76386308D01*
X84179783Y-76286856D01*
X84179781Y-76286852D01*
X84177689Y-76282083D01*
X84170728Y-76271427D01*
X84067417Y-76113299D01*
X84054551Y-76093606D01*
X84051026Y-76089777D01*
X84051023Y-76089773D01*
X83918413Y-75945722D01*
X83902069Y-75927968D01*
X83881516Y-75911971D01*
X83728518Y-75792886D01*
X83728516Y-75792884D01*
X83724405Y-75789685D01*
X83691149Y-75771688D01*
X83640758Y-75721675D01*
X83625406Y-75652358D01*
X83649966Y-75585745D01*
X83691149Y-75550060D01*
X83719824Y-75534542D01*
X83724405Y-75532063D01*
X83738365Y-75521198D01*
X83754710Y-75508476D01*
X86278436Y-75508476D01*
X86298719Y-75714410D01*
X86300515Y-75720330D01*
X86300516Y-75720336D01*
X86336735Y-75839734D01*
X86358787Y-75912430D01*
X86456334Y-76094926D01*
X86587609Y-76254886D01*
X86747569Y-76386161D01*
X86930065Y-76483708D01*
X86945065Y-76488258D01*
X87122159Y-76541979D01*
X87122165Y-76541980D01*
X87128085Y-76543776D01*
X87201199Y-76550977D01*
X87279331Y-76558673D01*
X87279338Y-76558673D01*
X87282411Y-76558976D01*
X87385627Y-76558976D01*
X87388700Y-76558673D01*
X87388707Y-76558673D01*
X87466839Y-76550977D01*
X87539953Y-76543776D01*
X87545873Y-76541980D01*
X87545879Y-76541979D01*
X87719206Y-76489401D01*
X87755781Y-76483976D01*
X87803492Y-76483976D01*
X87803492Y-76485599D01*
X87866383Y-76500634D01*
X87915547Y-76551853D01*
X87929216Y-76621522D01*
X87903049Y-76687520D01*
X87889450Y-76702327D01*
X87731333Y-76849038D01*
X87728400Y-76852716D01*
X87728398Y-76852718D01*
X87569939Y-77051419D01*
X87569936Y-77051423D01*
X87567004Y-77055100D01*
X87564651Y-77059176D01*
X87564648Y-77059180D01*
X87524558Y-77128618D01*
X87435223Y-77283352D01*
X87420831Y-77320022D01*
X87361274Y-77471771D01*
X87338932Y-77528696D01*
X87337882Y-77533295D01*
X87337882Y-77533296D01*
X87281348Y-77780990D01*
X87280284Y-77785650D01*
X87279932Y-77790350D01*
X87279931Y-77790355D01*
X87267030Y-77962509D01*
X87260588Y-78048476D01*
X87260940Y-78053173D01*
X87279325Y-78298501D01*
X87280284Y-78311302D01*
X87281334Y-78315901D01*
X87281334Y-78315903D01*
X87328283Y-78521601D01*
X87338932Y-78568256D01*
X87340656Y-78572647D01*
X87340656Y-78572649D01*
X87358182Y-78617305D01*
X87435223Y-78813600D01*
X87462473Y-78860798D01*
X87562453Y-79033969D01*
X87567004Y-79041852D01*
X87569936Y-79045529D01*
X87569939Y-79045533D01*
X87728398Y-79244234D01*
X87731333Y-79247914D01*
X87924538Y-79427182D01*
X88000248Y-79478800D01*
X88136245Y-79571521D01*
X88142304Y-79575652D01*
X88146553Y-79577698D01*
X88146556Y-79577700D01*
X88264035Y-79634275D01*
X88379765Y-79690008D01*
X88384267Y-79691397D01*
X88384273Y-79691399D01*
X88526145Y-79735160D01*
X88631619Y-79767694D01*
X88636269Y-79768395D01*
X88636274Y-79768396D01*
X88747596Y-79785175D01*
X88892238Y-79806976D01*
X89115250Y-79806976D01*
X89183371Y-79826978D01*
X89229864Y-79880634D01*
X89239968Y-79950908D01*
X89210474Y-80015488D01*
X89197081Y-80028787D01*
X89119988Y-80094631D01*
X89093121Y-80117578D01*
X88928691Y-80310100D01*
X88796403Y-80525974D01*
X88794510Y-80530544D01*
X88794508Y-80530548D01*
X88706855Y-80742162D01*
X88699514Y-80759885D01*
X88697635Y-80767711D01*
X88653715Y-80950654D01*
X88640410Y-81006073D01*
X88620545Y-81258476D01*
X88640410Y-81510879D01*
X88641564Y-81515686D01*
X88641565Y-81515692D01*
X88660156Y-81593128D01*
X88699514Y-81757067D01*
X88701407Y-81761638D01*
X88701408Y-81761640D01*
X88777028Y-81944202D01*
X88796403Y-81990978D01*
X88928691Y-82206852D01*
X89093121Y-82399374D01*
X89285643Y-82563804D01*
X89501517Y-82696092D01*
X89506087Y-82697985D01*
X89506091Y-82697987D01*
X89730855Y-82791087D01*
X89735428Y-82792981D01*
X89800478Y-82808598D01*
X89976803Y-82850930D01*
X89976809Y-82850931D01*
X89981616Y-82852085D01*
X90234019Y-82871950D01*
X90486422Y-82852085D01*
X90491229Y-82850931D01*
X90491235Y-82850930D01*
X90667560Y-82808598D01*
X90732610Y-82792981D01*
X90737183Y-82791087D01*
X90961947Y-82697987D01*
X90961951Y-82697985D01*
X90966521Y-82696092D01*
X91182395Y-82563804D01*
X91374917Y-82399374D01*
X91378125Y-82395618D01*
X91380807Y-82392936D01*
X91443119Y-82358910D01*
X91513934Y-82363975D01*
X91565713Y-82400200D01*
X91654311Y-82503934D01*
X91693121Y-82549374D01*
X91885643Y-82713804D01*
X92101517Y-82846092D01*
X92106087Y-82847985D01*
X92106091Y-82847987D01*
X92330855Y-82941087D01*
X92335428Y-82942981D01*
X92396421Y-82957624D01*
X92576803Y-83000930D01*
X92576809Y-83000931D01*
X92581616Y-83002085D01*
X92834019Y-83021950D01*
X93086422Y-83002085D01*
X93091229Y-83000931D01*
X93091235Y-83000930D01*
X93271617Y-82957624D01*
X93332610Y-82942981D01*
X93337183Y-82941087D01*
X93561947Y-82847987D01*
X93561951Y-82847985D01*
X93566521Y-82846092D01*
X93782395Y-82713804D01*
X93974917Y-82549374D01*
X94139347Y-82356852D01*
X94271635Y-82140978D01*
X94278612Y-82124136D01*
X94328013Y-82004870D01*
X94372561Y-81949589D01*
X94439925Y-81927168D01*
X94510257Y-81945656D01*
X94637287Y-82023501D01*
X94637297Y-82023506D01*
X94641517Y-82026092D01*
X94646087Y-82027985D01*
X94646091Y-82027987D01*
X94785247Y-82085627D01*
X94875428Y-82122981D01*
X94945360Y-82139770D01*
X95116803Y-82180930D01*
X95116809Y-82180931D01*
X95121616Y-82182085D01*
X95374019Y-82201950D01*
X95626422Y-82182085D01*
X95631229Y-82180931D01*
X95631235Y-82180930D01*
X95802678Y-82139770D01*
X95872610Y-82122981D01*
X95962791Y-82085627D01*
X96101947Y-82027987D01*
X96101951Y-82027985D01*
X96106521Y-82026092D01*
X96322395Y-81893804D01*
X96514917Y-81729374D01*
X96515908Y-81730534D01*
X96572274Y-81699755D01*
X96647275Y-81706467D01*
X96702578Y-81729374D01*
X96735428Y-81742981D01*
X96794101Y-81757067D01*
X96976803Y-81800930D01*
X96976809Y-81800931D01*
X96981616Y-81802085D01*
X97234019Y-81821950D01*
X97486422Y-81802085D01*
X97491229Y-81800931D01*
X97491235Y-81800930D01*
X97673937Y-81757067D01*
X97732610Y-81742981D01*
X97762660Y-81730534D01*
X97961947Y-81647987D01*
X97961951Y-81647985D01*
X97966521Y-81646092D01*
X98182395Y-81513804D01*
X98374917Y-81349374D01*
X98539347Y-81156852D01*
X98671635Y-80940978D01*
X98689943Y-80896780D01*
X98766630Y-80711640D01*
X98766631Y-80711638D01*
X98768524Y-80707067D01*
X98769680Y-80702253D01*
X98769682Y-80702246D01*
X98783556Y-80644459D01*
X98824243Y-80578063D01*
X98971161Y-80452582D01*
X98974917Y-80449374D01*
X99139347Y-80256852D01*
X99271635Y-80040978D01*
X99279629Y-80021680D01*
X99366630Y-79811640D01*
X99366631Y-79811638D01*
X99368524Y-79807067D01*
X99405579Y-79652721D01*
X99426473Y-79565692D01*
X99426474Y-79565686D01*
X99427628Y-79560879D01*
X99447493Y-79308476D01*
X99427628Y-79056073D01*
X99426018Y-79049364D01*
X99383555Y-78872493D01*
X99368524Y-78809885D01*
X99361681Y-78793364D01*
X99273530Y-78580548D01*
X99273528Y-78580544D01*
X99271635Y-78575974D01*
X99139347Y-78360100D01*
X98974917Y-78167578D01*
X98782395Y-78003148D01*
X98566521Y-77870860D01*
X98561951Y-77868967D01*
X98561947Y-77868965D01*
X98337183Y-77775865D01*
X98337181Y-77775864D01*
X98332610Y-77773971D01*
X98211782Y-77744963D01*
X98091235Y-77716022D01*
X98091229Y-77716021D01*
X98086422Y-77714867D01*
X97834019Y-77695002D01*
X97581616Y-77714867D01*
X97576809Y-77716021D01*
X97576803Y-77716022D01*
X97456256Y-77744963D01*
X97335428Y-77773971D01*
X97330857Y-77775864D01*
X97330855Y-77775865D01*
X97106091Y-77868965D01*
X97106087Y-77868967D01*
X97101517Y-77870860D01*
X96885643Y-78003148D01*
X96693121Y-78167578D01*
X96528691Y-78360100D01*
X96396403Y-78575974D01*
X96394510Y-78580544D01*
X96394508Y-78580548D01*
X96306357Y-78793364D01*
X96299514Y-78809885D01*
X96298359Y-78814697D01*
X96298356Y-78814706D01*
X96284482Y-78872493D01*
X96243795Y-78938889D01*
X96093121Y-79067578D01*
X96092130Y-79066418D01*
X96035764Y-79097197D01*
X95960763Y-79090485D01*
X95877183Y-79055865D01*
X95877181Y-79055864D01*
X95872610Y-79053971D01*
X95765507Y-79028258D01*
X95631235Y-78996022D01*
X95631229Y-78996021D01*
X95626422Y-78994867D01*
X95374019Y-78975002D01*
X95121616Y-78994867D01*
X95116809Y-78996021D01*
X95116803Y-78996022D01*
X94982531Y-79028258D01*
X94875428Y-79053971D01*
X94870857Y-79055864D01*
X94870855Y-79055865D01*
X94646091Y-79148965D01*
X94646087Y-79148967D01*
X94641517Y-79150860D01*
X94425643Y-79283148D01*
X94233121Y-79447578D01*
X94068691Y-79640100D01*
X93936403Y-79855974D01*
X93934510Y-79860544D01*
X93934508Y-79860548D01*
X93880025Y-79992082D01*
X93835477Y-80047363D01*
X93768113Y-80069784D01*
X93697781Y-80051296D01*
X93570751Y-79973451D01*
X93570740Y-79973445D01*
X93566521Y-79970860D01*
X93561951Y-79968967D01*
X93561947Y-79968965D01*
X93337183Y-79875865D01*
X93337181Y-79875864D01*
X93332610Y-79873971D01*
X93201827Y-79842573D01*
X93091235Y-79816022D01*
X93091229Y-79816021D01*
X93086422Y-79814867D01*
X92834019Y-79795002D01*
X92581616Y-79814867D01*
X92576809Y-79816021D01*
X92576803Y-79816022D01*
X92466211Y-79842573D01*
X92335428Y-79873971D01*
X92330857Y-79875864D01*
X92330855Y-79875865D01*
X92106091Y-79968965D01*
X92106087Y-79968967D01*
X92101517Y-79970860D01*
X91885643Y-80103148D01*
X91693121Y-80267578D01*
X91689913Y-80271334D01*
X91687231Y-80274016D01*
X91624919Y-80308042D01*
X91554104Y-80302977D01*
X91502325Y-80266752D01*
X91378125Y-80121334D01*
X91374917Y-80117578D01*
X91182395Y-79953148D01*
X90966521Y-79820860D01*
X90961951Y-79818967D01*
X90961947Y-79818965D01*
X90737183Y-79725865D01*
X90737181Y-79725864D01*
X90732610Y-79723971D01*
X90634017Y-79700301D01*
X90491235Y-79666022D01*
X90491229Y-79666021D01*
X90486422Y-79664867D01*
X90234019Y-79645002D01*
X90229089Y-79645390D01*
X90229081Y-79645390D01*
X90217674Y-79646288D01*
X90148193Y-79631694D01*
X90097633Y-79581853D01*
X90082045Y-79512589D01*
X90106378Y-79445893D01*
X90123940Y-79427656D01*
X90123500Y-79427182D01*
X90280801Y-79281228D01*
X90316705Y-79247914D01*
X90319640Y-79244234D01*
X90478099Y-79045533D01*
X90478102Y-79045529D01*
X90481034Y-79041852D01*
X90485586Y-79033969D01*
X90585565Y-78860798D01*
X90612815Y-78813600D01*
X90689856Y-78617305D01*
X90707382Y-78572649D01*
X90707382Y-78572647D01*
X90709106Y-78568256D01*
X90719755Y-78521601D01*
X90766704Y-78315903D01*
X90766704Y-78315901D01*
X90767754Y-78311302D01*
X90768714Y-78298501D01*
X90787098Y-78053173D01*
X90787450Y-78048476D01*
X90781008Y-77962509D01*
X90768107Y-77790355D01*
X90768106Y-77790350D01*
X90767754Y-77785650D01*
X90766691Y-77780990D01*
X90710156Y-77533296D01*
X90710156Y-77533295D01*
X90709106Y-77528696D01*
X90645053Y-77365492D01*
X90638785Y-77294774D01*
X90671746Y-77231892D01*
X90733470Y-77196813D01*
X90804362Y-77200673D01*
X90858028Y-77237482D01*
X90940005Y-77333165D01*
X90945560Y-77339649D01*
X90948424Y-77342260D01*
X90948429Y-77342265D01*
X91066223Y-77449648D01*
X91184903Y-77557839D01*
X91449245Y-77744963D01*
X91452655Y-77746794D01*
X91452658Y-77746796D01*
X91731172Y-77896355D01*
X91731179Y-77896358D01*
X91734579Y-77898184D01*
X92036579Y-78015179D01*
X92117899Y-78035632D01*
X92346897Y-78093228D01*
X92346904Y-78093229D01*
X92350668Y-78094176D01*
X92672084Y-78133976D01*
X92914906Y-78133976D01*
X92928343Y-78133147D01*
X93153407Y-78119266D01*
X93153414Y-78119265D01*
X93157275Y-78119027D01*
X93475631Y-78059516D01*
X93784261Y-77961334D01*
X93824272Y-77942926D01*
X94074964Y-77827590D01*
X94074972Y-77827586D01*
X94078486Y-77825969D01*
X94081789Y-77823924D01*
X94350538Y-77657522D01*
X94350540Y-77657521D01*
X94353847Y-77655473D01*
X94383739Y-77631419D01*
X94603145Y-77454864D01*
X94603149Y-77454861D01*
X94606168Y-77452431D01*
X94831625Y-77219920D01*
X95005502Y-76989670D01*
X108284704Y-76989670D01*
X108304987Y-77195604D01*
X108306783Y-77201524D01*
X108306784Y-77201530D01*
X108339328Y-77308812D01*
X108365055Y-77393624D01*
X108462602Y-77576120D01*
X108593877Y-77736080D01*
X108753837Y-77867355D01*
X108936333Y-77964902D01*
X108965116Y-77973633D01*
X109128427Y-78023173D01*
X109128433Y-78023174D01*
X109134353Y-78024970D01*
X109207467Y-78032171D01*
X109285599Y-78039867D01*
X109285606Y-78039867D01*
X109288679Y-78040170D01*
X109391895Y-78040170D01*
X109410557Y-78038332D01*
X109450188Y-78042424D01*
X109450481Y-78041000D01*
X109516505Y-78054568D01*
X109579205Y-78087873D01*
X109613946Y-78149789D01*
X109609697Y-78220659D01*
X109567808Y-78277981D01*
X109545812Y-78291511D01*
X109387237Y-78367877D01*
X109387234Y-78367879D01*
X109382985Y-78369925D01*
X109379086Y-78372583D01*
X109379083Y-78372585D01*
X109308341Y-78420816D01*
X109165219Y-78518395D01*
X108972014Y-78697663D01*
X108969081Y-78701341D01*
X108969079Y-78701343D01*
X108810620Y-78900044D01*
X108810617Y-78900048D01*
X108807685Y-78903725D01*
X108805332Y-78907801D01*
X108805329Y-78907805D01*
X108776636Y-78957503D01*
X108675904Y-79131977D01*
X108674180Y-79136370D01*
X108582599Y-79369714D01*
X108579613Y-79377321D01*
X108578563Y-79381920D01*
X108578563Y-79381921D01*
X108536619Y-79565692D01*
X108520965Y-79634275D01*
X108520613Y-79638975D01*
X108520612Y-79638980D01*
X108507366Y-79815746D01*
X108501269Y-79897101D01*
X108501621Y-79901798D01*
X108519575Y-80141375D01*
X108520965Y-80159927D01*
X108522015Y-80164526D01*
X108522015Y-80164528D01*
X108562786Y-80343159D01*
X108579613Y-80416881D01*
X108581337Y-80421272D01*
X108581337Y-80421274D01*
X108614190Y-80504981D01*
X108675904Y-80662225D01*
X108703425Y-80709893D01*
X108797529Y-80872886D01*
X108807685Y-80890477D01*
X108810617Y-80894154D01*
X108810620Y-80894158D01*
X108952588Y-81072180D01*
X108972014Y-81096539D01*
X109165219Y-81275807D01*
X109227821Y-81318488D01*
X109341314Y-81395866D01*
X109382985Y-81424277D01*
X109387234Y-81426323D01*
X109387237Y-81426325D01*
X109455156Y-81459033D01*
X109620446Y-81538633D01*
X109624948Y-81540022D01*
X109624954Y-81540024D01*
X109865868Y-81614335D01*
X109925067Y-81653527D01*
X109953679Y-81718503D01*
X109942620Y-81788633D01*
X109895402Y-81841651D01*
X109876947Y-81851146D01*
X109815103Y-81876762D01*
X109815099Y-81876764D01*
X109810529Y-81878657D01*
X109594655Y-82010945D01*
X109402133Y-82175375D01*
X109237703Y-82367897D01*
X109105415Y-82583771D01*
X109103522Y-82588341D01*
X109103520Y-82588345D01*
X109019951Y-82790100D01*
X109008526Y-82817682D01*
X108996434Y-82868051D01*
X108954400Y-83043136D01*
X108949422Y-83063870D01*
X108929557Y-83316273D01*
X108949422Y-83568676D01*
X108950576Y-83573483D01*
X108950577Y-83573489D01*
X108983019Y-83708619D01*
X109008526Y-83814864D01*
X109010419Y-83819435D01*
X109010420Y-83819437D01*
X109101706Y-84039820D01*
X109105415Y-84048775D01*
X109237703Y-84264649D01*
X109402133Y-84457171D01*
X109594655Y-84621601D01*
X109810529Y-84753889D01*
X109815099Y-84755782D01*
X109815103Y-84755784D01*
X110039867Y-84848884D01*
X110044440Y-84850778D01*
X110129063Y-84871094D01*
X110285815Y-84908727D01*
X110285821Y-84908728D01*
X110290628Y-84909882D01*
X110543031Y-84929747D01*
X110795434Y-84909882D01*
X110800241Y-84908728D01*
X110800247Y-84908727D01*
X110956999Y-84871094D01*
X111041622Y-84850778D01*
X111046195Y-84848884D01*
X111270959Y-84755784D01*
X111270963Y-84755782D01*
X111275533Y-84753889D01*
X111279753Y-84751303D01*
X111279763Y-84751298D01*
X111327848Y-84721831D01*
X111396381Y-84703292D01*
X111464058Y-84724748D01*
X111510092Y-84781045D01*
X111563350Y-84909621D01*
X111695638Y-85125495D01*
X111860068Y-85318017D01*
X112052590Y-85482447D01*
X112268464Y-85614735D01*
X112273034Y-85616628D01*
X112273038Y-85616630D01*
X112433270Y-85683000D01*
X112502375Y-85711624D01*
X112586998Y-85731940D01*
X112743750Y-85769573D01*
X112743756Y-85769574D01*
X112748563Y-85770728D01*
X113000966Y-85790593D01*
X113253369Y-85770728D01*
X113258176Y-85769574D01*
X113258182Y-85769573D01*
X113414934Y-85731940D01*
X113499557Y-85711624D01*
X113568662Y-85683000D01*
X113728894Y-85616630D01*
X113728898Y-85616628D01*
X113733468Y-85614735D01*
X113949342Y-85482447D01*
X114141864Y-85318017D01*
X114196921Y-85253554D01*
X114276598Y-85160265D01*
X114336049Y-85121456D01*
X114407044Y-85120950D01*
X114468220Y-85160265D01*
X114527695Y-85229901D01*
X114720217Y-85394331D01*
X114936091Y-85526619D01*
X114940661Y-85528512D01*
X114940665Y-85528514D01*
X115143361Y-85612473D01*
X115170002Y-85623508D01*
X115254625Y-85643824D01*
X115411377Y-85681457D01*
X115411383Y-85681458D01*
X115416190Y-85682612D01*
X115668593Y-85702477D01*
X115920996Y-85682612D01*
X115925803Y-85681458D01*
X115925809Y-85681457D01*
X116082561Y-85643824D01*
X116167184Y-85623508D01*
X116193825Y-85612473D01*
X116396521Y-85528514D01*
X116396525Y-85528512D01*
X116401095Y-85526619D01*
X116436059Y-85505193D01*
X116504593Y-85486654D01*
X116572269Y-85508110D01*
X116583715Y-85516806D01*
X116612906Y-85541737D01*
X116828780Y-85674025D01*
X116833350Y-85675918D01*
X116833354Y-85675920D01*
X117058118Y-85769020D01*
X117062691Y-85770914D01*
X117144661Y-85790593D01*
X117304066Y-85828863D01*
X117304072Y-85828864D01*
X117308879Y-85830018D01*
X117561282Y-85849883D01*
X117813685Y-85830018D01*
X117818492Y-85828864D01*
X117818498Y-85828863D01*
X117977903Y-85790593D01*
X118059873Y-85770914D01*
X118064446Y-85769020D01*
X118289210Y-85675920D01*
X118289214Y-85675918D01*
X118293784Y-85674025D01*
X118509658Y-85541737D01*
X118702180Y-85377307D01*
X118866610Y-85184785D01*
X118932379Y-85077460D01*
X118991594Y-85026886D01*
X119114041Y-84976167D01*
X119114045Y-84976165D01*
X119118615Y-84974272D01*
X119334489Y-84841984D01*
X119503428Y-84697696D01*
X119523255Y-84680762D01*
X119527011Y-84677554D01*
X119691441Y-84485032D01*
X119823729Y-84269158D01*
X119827343Y-84260435D01*
X119918724Y-84039820D01*
X119918725Y-84039818D01*
X119920618Y-84035247D01*
X119956842Y-83884361D01*
X119978567Y-83793872D01*
X119978568Y-83793866D01*
X119979722Y-83789059D01*
X119999587Y-83536656D01*
X119979722Y-83284253D01*
X119973712Y-83259216D01*
X119926813Y-83063870D01*
X119920618Y-83038065D01*
X119918724Y-83033492D01*
X119825624Y-82808728D01*
X119825622Y-82808724D01*
X119823729Y-82804154D01*
X119691441Y-82588280D01*
X119527011Y-82395758D01*
X119334489Y-82231328D01*
X119118615Y-82099040D01*
X119114045Y-82097147D01*
X119114041Y-82097145D01*
X118889277Y-82004045D01*
X118889275Y-82004044D01*
X118884704Y-82002151D01*
X118800081Y-81981835D01*
X118643329Y-81944202D01*
X118643323Y-81944201D01*
X118638516Y-81943047D01*
X118386113Y-81923182D01*
X118133710Y-81943047D01*
X118128903Y-81944201D01*
X118128897Y-81944202D01*
X117972145Y-81981835D01*
X117887522Y-82002151D01*
X117882951Y-82004044D01*
X117882949Y-82004045D01*
X117658185Y-82097145D01*
X117658181Y-82097147D01*
X117653611Y-82099040D01*
X117437737Y-82231328D01*
X117245215Y-82395758D01*
X117080785Y-82588280D01*
X117043274Y-82649492D01*
X117015016Y-82695605D01*
X116955801Y-82746179D01*
X116833354Y-82796898D01*
X116833350Y-82796900D01*
X116828780Y-82798793D01*
X116802491Y-82814903D01*
X116793816Y-82820219D01*
X116725282Y-82838758D01*
X116657606Y-82817302D01*
X116646160Y-82808606D01*
X116616969Y-82783675D01*
X116401095Y-82651387D01*
X116396525Y-82649494D01*
X116396521Y-82649492D01*
X116171757Y-82556392D01*
X116171755Y-82556391D01*
X116167184Y-82554498D01*
X116082561Y-82534182D01*
X115925809Y-82496549D01*
X115925803Y-82496548D01*
X115920996Y-82495394D01*
X115668593Y-82475529D01*
X115416190Y-82495394D01*
X115411383Y-82496548D01*
X115411377Y-82496549D01*
X115254625Y-82534182D01*
X115170002Y-82554498D01*
X115165431Y-82556391D01*
X115165429Y-82556392D01*
X114940665Y-82649492D01*
X114940661Y-82649494D01*
X114936091Y-82651387D01*
X114720217Y-82783675D01*
X114527695Y-82948105D01*
X114524487Y-82951861D01*
X114392961Y-83105857D01*
X114333510Y-83144666D01*
X114262515Y-83145172D01*
X114201339Y-83105857D01*
X114145072Y-83039977D01*
X114141864Y-83036221D01*
X113949342Y-82871791D01*
X113733468Y-82739503D01*
X113728898Y-82737610D01*
X113728894Y-82737608D01*
X113504130Y-82644508D01*
X113504128Y-82644507D01*
X113499557Y-82642614D01*
X113414934Y-82622298D01*
X113258182Y-82584665D01*
X113258176Y-82584664D01*
X113253369Y-82583510D01*
X113000966Y-82563645D01*
X112748563Y-82583510D01*
X112743756Y-82584664D01*
X112743750Y-82584665D01*
X112586998Y-82622298D01*
X112502375Y-82642614D01*
X112497804Y-82644507D01*
X112497802Y-82644508D01*
X112273038Y-82737608D01*
X112273034Y-82737610D01*
X112268464Y-82739503D01*
X112264245Y-82742088D01*
X112264234Y-82742094D01*
X112216149Y-82771561D01*
X112147616Y-82790100D01*
X112079939Y-82768644D01*
X112033905Y-82712347D01*
X111982542Y-82588345D01*
X111982540Y-82588341D01*
X111980647Y-82583771D01*
X111848359Y-82367897D01*
X111683929Y-82175375D01*
X111491407Y-82010945D01*
X111275533Y-81878657D01*
X111270963Y-81876764D01*
X111270959Y-81876762D01*
X111046195Y-81783662D01*
X111046193Y-81783661D01*
X111041622Y-81781768D01*
X111036808Y-81780612D01*
X111036801Y-81780610D01*
X110960112Y-81762198D01*
X110898543Y-81726846D01*
X110865861Y-81663819D01*
X110872442Y-81593128D01*
X110916196Y-81537217D01*
X110934856Y-81526159D01*
X111146416Y-81424277D01*
X111150318Y-81421617D01*
X111261787Y-81345618D01*
X111364181Y-81275807D01*
X111557386Y-81096539D01*
X111576812Y-81072180D01*
X111718780Y-80894158D01*
X111718783Y-80894154D01*
X111721715Y-80890477D01*
X111731872Y-80872886D01*
X111825975Y-80709893D01*
X111853496Y-80662225D01*
X111915210Y-80504981D01*
X111948063Y-80421274D01*
X111948063Y-80421272D01*
X111949787Y-80416881D01*
X111966614Y-80343159D01*
X112007385Y-80164528D01*
X112007385Y-80164526D01*
X112008435Y-80159927D01*
X112009826Y-80141375D01*
X112027779Y-79901798D01*
X112028131Y-79897101D01*
X112022034Y-79815746D01*
X112012565Y-79689383D01*
X112027421Y-79619958D01*
X112077452Y-79569585D01*
X112146775Y-79554258D01*
X112213379Y-79578843D01*
X112251004Y-79623804D01*
X112284662Y-79691399D01*
X112336444Y-79795390D01*
X112349156Y-79820920D01*
X112416779Y-79922973D01*
X112525907Y-80087666D01*
X112525913Y-80087674D01*
X112528050Y-80090899D01*
X112530574Y-80093845D01*
X112734392Y-80331741D01*
X112738767Y-80336848D01*
X112741631Y-80339459D01*
X112741636Y-80339464D01*
X112842144Y-80431089D01*
X112978110Y-80555038D01*
X113242452Y-80742162D01*
X113245862Y-80743993D01*
X113245865Y-80743995D01*
X113524379Y-80893554D01*
X113524386Y-80893557D01*
X113527786Y-80895383D01*
X113681335Y-80954868D01*
X113813511Y-81006073D01*
X113829786Y-81012378D01*
X113877812Y-81024457D01*
X114140104Y-81090427D01*
X114140111Y-81090428D01*
X114143875Y-81091375D01*
X114465291Y-81131175D01*
X114708113Y-81131175D01*
X114721550Y-81130346D01*
X114946614Y-81116465D01*
X114946621Y-81116464D01*
X114950482Y-81116226D01*
X115268838Y-81056715D01*
X115577468Y-80958533D01*
X115625567Y-80936404D01*
X115868171Y-80824789D01*
X115868179Y-80824785D01*
X115871693Y-80823168D01*
X115883265Y-80816003D01*
X116143745Y-80654721D01*
X116143747Y-80654720D01*
X116147054Y-80652672D01*
X116150500Y-80649899D01*
X116396352Y-80452063D01*
X116396356Y-80452060D01*
X116399375Y-80449630D01*
X116624832Y-80217119D01*
X116820008Y-79958665D01*
X116821791Y-79955576D01*
X118531163Y-79955576D01*
X118532130Y-79961888D01*
X118532130Y-79961890D01*
X118559625Y-80141375D01*
X118561205Y-80151686D01*
X118630110Y-80337733D01*
X118735055Y-80506102D01*
X118871744Y-80649899D01*
X118876983Y-80653546D01*
X118876986Y-80653548D01*
X118964510Y-80714466D01*
X119034581Y-80763237D01*
X119216900Y-80841476D01*
X119223155Y-80842761D01*
X119223157Y-80842762D01*
X119240131Y-80846250D01*
X119294701Y-80872272D01*
X119322925Y-80895435D01*
X119322932Y-80895440D01*
X119327715Y-80899365D01*
X119510211Y-80996912D01*
X119540411Y-81006073D01*
X119702305Y-81055183D01*
X119702311Y-81055184D01*
X119708231Y-81056980D01*
X119781345Y-81064181D01*
X119859477Y-81071877D01*
X119859484Y-81071877D01*
X119862557Y-81072180D01*
X119965773Y-81072180D01*
X119968846Y-81071877D01*
X119968853Y-81071877D01*
X120046985Y-81064181D01*
X120120099Y-81056980D01*
X120126019Y-81055184D01*
X120126025Y-81055183D01*
X120287919Y-81006073D01*
X120318119Y-80996912D01*
X120500615Y-80899365D01*
X120660575Y-80768090D01*
X120791850Y-80608130D01*
X120889397Y-80425634D01*
X120904284Y-80376556D01*
X120947668Y-80233540D01*
X120947669Y-80233534D01*
X120949465Y-80227614D01*
X120969748Y-80021680D01*
X120949465Y-79815746D01*
X120947669Y-79809826D01*
X120947668Y-79809820D01*
X120891192Y-79623644D01*
X120889397Y-79617726D01*
X120791850Y-79435230D01*
X120660575Y-79275270D01*
X120500615Y-79143995D01*
X120318119Y-79046448D01*
X120250371Y-79025897D01*
X120126025Y-78988177D01*
X120126019Y-78988176D01*
X120120099Y-78986380D01*
X120046985Y-78979179D01*
X119968853Y-78971483D01*
X119968846Y-78971483D01*
X119965773Y-78971180D01*
X119862557Y-78971180D01*
X119843895Y-78973018D01*
X119804263Y-78968926D01*
X119803970Y-78970350D01*
X119609634Y-78930413D01*
X119460962Y-78930413D01*
X119313056Y-78945454D01*
X119123757Y-79004846D01*
X118950289Y-79101129D01*
X118799753Y-79230360D01*
X118795844Y-79235410D01*
X118795843Y-79235411D01*
X118682223Y-79382195D01*
X118682221Y-79382199D01*
X118678313Y-79387247D01*
X118590940Y-79565369D01*
X118589339Y-79571551D01*
X118589339Y-79571552D01*
X118549096Y-79726981D01*
X118541211Y-79757433D01*
X118540888Y-79763807D01*
X118540887Y-79763812D01*
X118537684Y-79826978D01*
X118531163Y-79955576D01*
X116821791Y-79955576D01*
X116840340Y-79923450D01*
X116904893Y-79811640D01*
X116981943Y-79678185D01*
X117024475Y-79577700D01*
X117106670Y-79383507D01*
X117106673Y-79383499D01*
X117108183Y-79379931D01*
X117196815Y-79068424D01*
X117197967Y-79061007D01*
X117240516Y-78786898D01*
X117246494Y-78748386D01*
X117246676Y-78742487D01*
X117256348Y-78428543D01*
X117256348Y-78428537D01*
X117256467Y-78424669D01*
X117226584Y-78102180D01*
X117195881Y-77961986D01*
X117158128Y-77789597D01*
X117158127Y-77789594D01*
X117157298Y-77785808D01*
X117152720Y-77772816D01*
X117050948Y-77484008D01*
X117050946Y-77484004D01*
X117049658Y-77480348D01*
X117047205Y-77475420D01*
X116907024Y-77193900D01*
X116907023Y-77193898D01*
X116905296Y-77190430D01*
X116793925Y-77022354D01*
X116728545Y-76923684D01*
X116728539Y-76923676D01*
X116726402Y-76920451D01*
X116665219Y-76849038D01*
X116518212Y-76677451D01*
X116518208Y-76677447D01*
X116515685Y-76674502D01*
X116512821Y-76671891D01*
X116512816Y-76671886D01*
X116322534Y-76498422D01*
X116276342Y-76456312D01*
X116012000Y-76269188D01*
X115987648Y-76256111D01*
X115730073Y-76117796D01*
X115730066Y-76117793D01*
X115726666Y-76115967D01*
X115510435Y-76032199D01*
X115428288Y-76000375D01*
X115428286Y-76000374D01*
X115424666Y-75998972D01*
X115320603Y-75972799D01*
X115114348Y-75920923D01*
X115114341Y-75920922D01*
X115110577Y-75919975D01*
X114789161Y-75880175D01*
X114546339Y-75880175D01*
X114532902Y-75881004D01*
X114307838Y-75894885D01*
X114307831Y-75894886D01*
X114303970Y-75895124D01*
X113985614Y-75954635D01*
X113676984Y-76052817D01*
X113673462Y-76054437D01*
X113673463Y-76054437D01*
X113386281Y-76186561D01*
X113386273Y-76186565D01*
X113382759Y-76188182D01*
X113379458Y-76190226D01*
X113379456Y-76190227D01*
X113152670Y-76330647D01*
X113107398Y-76358678D01*
X113104367Y-76361117D01*
X112858487Y-76558976D01*
X112855077Y-76561720D01*
X112629620Y-76794231D01*
X112434444Y-77052685D01*
X112272509Y-77333165D01*
X112255441Y-77373490D01*
X112147782Y-77627843D01*
X112147779Y-77627851D01*
X112146269Y-77631419D01*
X112057637Y-77942926D01*
X112057042Y-77946760D01*
X112057041Y-77946764D01*
X112030301Y-78119027D01*
X112007958Y-78262964D01*
X112007838Y-78266845D01*
X112007838Y-78266850D01*
X111998553Y-78568256D01*
X111997985Y-78586681D01*
X112027868Y-78909170D01*
X112028698Y-78912959D01*
X112039401Y-78961835D01*
X112034435Y-79032657D01*
X111991967Y-79089552D01*
X111925481Y-79114455D01*
X111856086Y-79099460D01*
X111807200Y-79051790D01*
X111721715Y-78903725D01*
X111718783Y-78900048D01*
X111718780Y-78900044D01*
X111560321Y-78701343D01*
X111560319Y-78701341D01*
X111557386Y-78697663D01*
X111364181Y-78518395D01*
X111221059Y-78420816D01*
X111150312Y-78372581D01*
X111150310Y-78372580D01*
X111146416Y-78369925D01*
X110998103Y-78298501D01*
X110913203Y-78257615D01*
X110913201Y-78257614D01*
X110908954Y-78255569D01*
X110657100Y-78177883D01*
X110652450Y-78177182D01*
X110652445Y-78177181D01*
X110541123Y-78160402D01*
X110396481Y-78138601D01*
X110376500Y-78138601D01*
X110308379Y-78118599D01*
X110261886Y-78064943D01*
X110251782Y-77994669D01*
X110281276Y-77930089D01*
X110302085Y-77911374D01*
X110304163Y-77910221D01*
X110454699Y-77780990D01*
X110468022Y-77763778D01*
X110572229Y-77629155D01*
X110572231Y-77629151D01*
X110576139Y-77624103D01*
X110663512Y-77445981D01*
X110669687Y-77422132D01*
X110711641Y-77260098D01*
X110711642Y-77260094D01*
X110713241Y-77253917D01*
X110713564Y-77247543D01*
X110713565Y-77247538D01*
X110721322Y-77094562D01*
X110723289Y-77055774D01*
X110721747Y-77045704D01*
X110694214Y-76865976D01*
X110694214Y-76865975D01*
X110693247Y-76859664D01*
X110624342Y-76673617D01*
X110519397Y-76505248D01*
X110382708Y-76361451D01*
X110377469Y-76357804D01*
X110377466Y-76357802D01*
X110225118Y-76251765D01*
X110219871Y-76248113D01*
X110037552Y-76169874D01*
X110031297Y-76168589D01*
X110031295Y-76168588D01*
X110014321Y-76165100D01*
X109959751Y-76139078D01*
X109931527Y-76115915D01*
X109931518Y-76115909D01*
X109926737Y-76111985D01*
X109744241Y-76014438D01*
X109690127Y-75998023D01*
X109552147Y-75956167D01*
X109552141Y-75956166D01*
X109546221Y-75954370D01*
X109458418Y-75945722D01*
X109394975Y-75939473D01*
X109394968Y-75939473D01*
X109391895Y-75939170D01*
X109288679Y-75939170D01*
X109285606Y-75939473D01*
X109285599Y-75939473D01*
X109222156Y-75945722D01*
X109134353Y-75954370D01*
X109128433Y-75956166D01*
X109128427Y-75956167D01*
X108990447Y-75998023D01*
X108936333Y-76014438D01*
X108753837Y-76111985D01*
X108593877Y-76243260D01*
X108462602Y-76403220D01*
X108365055Y-76585716D01*
X108350168Y-76634794D01*
X108306784Y-76777810D01*
X108306783Y-76777816D01*
X108304987Y-76783736D01*
X108284704Y-76989670D01*
X95005502Y-76989670D01*
X95026801Y-76961466D01*
X95041468Y-76936063D01*
X95153237Y-76742472D01*
X95188736Y-76680986D01*
X95226555Y-76591634D01*
X95313463Y-76386308D01*
X95313466Y-76386300D01*
X95314976Y-76382732D01*
X95403608Y-76071225D01*
X95406466Y-76052817D01*
X95448094Y-75784638D01*
X95453287Y-75751187D01*
X95454196Y-75721675D01*
X95459234Y-75558139D01*
X96934747Y-75558139D01*
X96935714Y-75564451D01*
X96935714Y-75564453D01*
X96951789Y-75669390D01*
X96964789Y-75754249D01*
X97033694Y-75940296D01*
X97138639Y-76108665D01*
X97275328Y-76252462D01*
X97280567Y-76256109D01*
X97280570Y-76256111D01*
X97431437Y-76361117D01*
X97438165Y-76365800D01*
X97620484Y-76444039D01*
X97626742Y-76445325D01*
X97626745Y-76445326D01*
X97680205Y-76456312D01*
X97814820Y-76483976D01*
X97912257Y-76483976D01*
X97948832Y-76489401D01*
X98122159Y-76541979D01*
X98122165Y-76541980D01*
X98128085Y-76543776D01*
X98201199Y-76550977D01*
X98279331Y-76558673D01*
X98279338Y-76558673D01*
X98282411Y-76558976D01*
X98385627Y-76558976D01*
X98388700Y-76558673D01*
X98388707Y-76558673D01*
X98466839Y-76550977D01*
X98539953Y-76543776D01*
X98545873Y-76541980D01*
X98545879Y-76541979D01*
X98722973Y-76488258D01*
X98737973Y-76483708D01*
X98920469Y-76386161D01*
X99080429Y-76254886D01*
X99211704Y-76094926D01*
X99309251Y-75912430D01*
X99331303Y-75839734D01*
X99367522Y-75720336D01*
X99367523Y-75720330D01*
X99369319Y-75714410D01*
X99389602Y-75508476D01*
X99369319Y-75302542D01*
X99367523Y-75296622D01*
X99367522Y-75296616D01*
X99311046Y-75110440D01*
X99309251Y-75104522D01*
X99211704Y-74922026D01*
X99080429Y-74762066D01*
X98920469Y-74630791D01*
X98909313Y-74624828D01*
X99582867Y-74624828D01*
X99583557Y-74631393D01*
X99599955Y-74787407D01*
X99602829Y-74814756D01*
X99661844Y-74996384D01*
X99757331Y-75161772D01*
X99761749Y-75166679D01*
X99761750Y-75166680D01*
X99868890Y-75285671D01*
X99885118Y-75303694D01*
X99962611Y-75359996D01*
X100031291Y-75409895D01*
X100039619Y-75415946D01*
X100045647Y-75418630D01*
X100045649Y-75418631D01*
X100135900Y-75458813D01*
X100214083Y-75493622D01*
X100286661Y-75509049D01*
X100394427Y-75531956D01*
X100394432Y-75531956D01*
X100400884Y-75533328D01*
X100591858Y-75533328D01*
X100598310Y-75531956D01*
X100598315Y-75531956D01*
X100706081Y-75509049D01*
X100778659Y-75493622D01*
X100856842Y-75458813D01*
X100947093Y-75418631D01*
X100947095Y-75418630D01*
X100953123Y-75415946D01*
X100961452Y-75409895D01*
X101030131Y-75359996D01*
X101107624Y-75303694D01*
X101123852Y-75285671D01*
X101230992Y-75166680D01*
X101230993Y-75166679D01*
X101235411Y-75161772D01*
X101330898Y-74996384D01*
X101389913Y-74814756D01*
X101392788Y-74787407D01*
X101403844Y-74682212D01*
X113649754Y-74682212D01*
X113652150Y-74696206D01*
X113651863Y-74701430D01*
X113652290Y-74708857D01*
X113653172Y-74714009D01*
X113652393Y-74728188D01*
X113657843Y-74741300D01*
X113658723Y-74746440D01*
X113660798Y-74753610D01*
X113662802Y-74758431D01*
X113665198Y-74772425D01*
X113673429Y-74783995D01*
X113675431Y-74788811D01*
X113679050Y-74795341D01*
X113682076Y-74799595D01*
X113687525Y-74812703D01*
X113698122Y-74822150D01*
X113701149Y-74826405D01*
X113706137Y-74831972D01*
X113710026Y-74835439D01*
X113718254Y-74847004D01*
X113730685Y-74853854D01*
X113734580Y-74857326D01*
X113740676Y-74861640D01*
X113745248Y-74864159D01*
X113755845Y-74873606D01*
X113843826Y-74898834D01*
X113843827Y-74898834D01*
X116040993Y-75528862D01*
X117282089Y-75884741D01*
X117282090Y-75884741D01*
X117282093Y-75884742D01*
X117282094Y-75884742D01*
X117304368Y-75891129D01*
X117318362Y-75888733D01*
X117323586Y-75889020D01*
X117331013Y-75888593D01*
X117336165Y-75887711D01*
X117350344Y-75888490D01*
X117363456Y-75883040D01*
X117368596Y-75882160D01*
X117375766Y-75880085D01*
X117380587Y-75878081D01*
X117394581Y-75875685D01*
X117406151Y-75867454D01*
X117410967Y-75865452D01*
X117417497Y-75861833D01*
X117421751Y-75858807D01*
X117434859Y-75853358D01*
X117444306Y-75842761D01*
X117448561Y-75839734D01*
X117454128Y-75834746D01*
X117457595Y-75830857D01*
X117469160Y-75822629D01*
X117476010Y-75810198D01*
X117479482Y-75806303D01*
X117483796Y-75800207D01*
X117486315Y-75795635D01*
X117495762Y-75785038D01*
X117520990Y-75697057D01*
X117520990Y-75697056D01*
X118369079Y-72739421D01*
X118369079Y-72739420D01*
X118375466Y-72717146D01*
X118373070Y-72703152D01*
X118373357Y-72697927D01*
X118372930Y-72690500D01*
X118372048Y-72685348D01*
X118372827Y-72671169D01*
X118367377Y-72658058D01*
X118366497Y-72652916D01*
X118364423Y-72645751D01*
X118362418Y-72640928D01*
X118360022Y-72626933D01*
X118351791Y-72615363D01*
X118349789Y-72610547D01*
X118346170Y-72604017D01*
X118343144Y-72599763D01*
X118337695Y-72586655D01*
X118327098Y-72577208D01*
X118324071Y-72572953D01*
X118319083Y-72567386D01*
X118315194Y-72563919D01*
X118306966Y-72552354D01*
X118294535Y-72545504D01*
X118290640Y-72542032D01*
X118284544Y-72537718D01*
X118279972Y-72535199D01*
X118269375Y-72525752D01*
X118181394Y-72500524D01*
X118181393Y-72500524D01*
X115856235Y-71833795D01*
X114743131Y-71514617D01*
X114743130Y-71514617D01*
X114743127Y-71514616D01*
X114743126Y-71514616D01*
X114720852Y-71508229D01*
X114706858Y-71510625D01*
X114701634Y-71510338D01*
X114694207Y-71510765D01*
X114689055Y-71511647D01*
X114674876Y-71510868D01*
X114661764Y-71516318D01*
X114656624Y-71517198D01*
X114649454Y-71519273D01*
X114644633Y-71521277D01*
X114630639Y-71523673D01*
X114619069Y-71531904D01*
X114614253Y-71533906D01*
X114607723Y-71537525D01*
X114603469Y-71540551D01*
X114590361Y-71546000D01*
X114580914Y-71556597D01*
X114576659Y-71559624D01*
X114571092Y-71564612D01*
X114567625Y-71568501D01*
X114556060Y-71576729D01*
X114549210Y-71589160D01*
X114545738Y-71593055D01*
X114541422Y-71599153D01*
X114538903Y-71603725D01*
X114529458Y-71614320D01*
X114516759Y-71658608D01*
X113664499Y-74630791D01*
X113649754Y-74682212D01*
X101403844Y-74682212D01*
X101409185Y-74631393D01*
X101409875Y-74624828D01*
X101394984Y-74483149D01*
X101390603Y-74441463D01*
X101390603Y-74441461D01*
X101389913Y-74434900D01*
X101330898Y-74253272D01*
X101307021Y-74211915D01*
X101281884Y-74168377D01*
X101235411Y-74087884D01*
X101184365Y-74031191D01*
X101112046Y-73950873D01*
X101112045Y-73950872D01*
X101107624Y-73945962D01*
X100953123Y-73833710D01*
X100947095Y-73831026D01*
X100947093Y-73831025D01*
X100784690Y-73758719D01*
X100784689Y-73758719D01*
X100778659Y-73756034D01*
X100685258Y-73736181D01*
X100598315Y-73717700D01*
X100598310Y-73717700D01*
X100591858Y-73716328D01*
X100400884Y-73716328D01*
X100394432Y-73717700D01*
X100394427Y-73717700D01*
X100307484Y-73736181D01*
X100214083Y-73756034D01*
X100208053Y-73758719D01*
X100208052Y-73758719D01*
X100045649Y-73831025D01*
X100045647Y-73831026D01*
X100039619Y-73833710D01*
X99885118Y-73945962D01*
X99880697Y-73950872D01*
X99880696Y-73950873D01*
X99808378Y-74031191D01*
X99757331Y-74087884D01*
X99710858Y-74168377D01*
X99685722Y-74211915D01*
X99661844Y-74253272D01*
X99602829Y-74434900D01*
X99602139Y-74441461D01*
X99602139Y-74441463D01*
X99597758Y-74483149D01*
X99582867Y-74624828D01*
X98909313Y-74624828D01*
X98737973Y-74533244D01*
X98678163Y-74515101D01*
X98545879Y-74474973D01*
X98545873Y-74474972D01*
X98539953Y-74473176D01*
X98466839Y-74465975D01*
X98388707Y-74458279D01*
X98388700Y-74458279D01*
X98385627Y-74457976D01*
X98282411Y-74457976D01*
X98279338Y-74458279D01*
X98279331Y-74458279D01*
X98201199Y-74465975D01*
X98128085Y-74473176D01*
X98122165Y-74474972D01*
X98122159Y-74474973D01*
X97948832Y-74527551D01*
X97912257Y-74532976D01*
X97864546Y-74532976D01*
X97716640Y-74548017D01*
X97527341Y-74607409D01*
X97353873Y-74703692D01*
X97349028Y-74707851D01*
X97349027Y-74707852D01*
X97327325Y-74726483D01*
X97203337Y-74832923D01*
X97199428Y-74837973D01*
X97199427Y-74837974D01*
X97085807Y-74984758D01*
X97085805Y-74984762D01*
X97081897Y-74989810D01*
X96994524Y-75167932D01*
X96992923Y-75174114D01*
X96992923Y-75174115D01*
X96948184Y-75346908D01*
X96944795Y-75359996D01*
X96944472Y-75366370D01*
X96944471Y-75366375D01*
X96941373Y-75427470D01*
X96934747Y-75558139D01*
X95459234Y-75558139D01*
X95463141Y-75431344D01*
X95463141Y-75431338D01*
X95463260Y-75427470D01*
X95433377Y-75104981D01*
X95397682Y-74941991D01*
X95364921Y-74792398D01*
X95364920Y-74792395D01*
X95364091Y-74788609D01*
X95349231Y-74746440D01*
X95257741Y-74486809D01*
X95257739Y-74486805D01*
X95256451Y-74483149D01*
X95252736Y-74475687D01*
X95113817Y-74196701D01*
X95113816Y-74196699D01*
X95112089Y-74193231D01*
X95018717Y-74052318D01*
X94935338Y-73926485D01*
X94935332Y-73926477D01*
X94933195Y-73923252D01*
X94883259Y-73864967D01*
X94725005Y-73680252D01*
X94725001Y-73680248D01*
X94722478Y-73677303D01*
X94719614Y-73674692D01*
X94719609Y-73674687D01*
X94494476Y-73469452D01*
X94483135Y-73459113D01*
X94218793Y-73271989D01*
X94177258Y-73249685D01*
X93936866Y-73120597D01*
X93936859Y-73120594D01*
X93933459Y-73118768D01*
X93685421Y-73022678D01*
X93635081Y-73003176D01*
X93635079Y-73003175D01*
X93631459Y-73001773D01*
X93455177Y-72957436D01*
X93321141Y-72923724D01*
X93321134Y-72923723D01*
X93317370Y-72922776D01*
X92995954Y-72882976D01*
X92753132Y-72882976D01*
X92739695Y-72883805D01*
X92514631Y-72897686D01*
X92514624Y-72897687D01*
X92510763Y-72897925D01*
X92192407Y-72957436D01*
X91883777Y-73055618D01*
X91880255Y-73057238D01*
X91880256Y-73057238D01*
X91593074Y-73189362D01*
X91593066Y-73189366D01*
X91589552Y-73190983D01*
X91586251Y-73193027D01*
X91586249Y-73193028D01*
X91342970Y-73343660D01*
X91314191Y-73361479D01*
X91311160Y-73363918D01*
X91070011Y-73557970D01*
X91061870Y-73564521D01*
X90836413Y-73797032D01*
X90641237Y-74055486D01*
X90639296Y-74058848D01*
X90639294Y-74058851D01*
X90622532Y-74087884D01*
X90479302Y-74335966D01*
X90473788Y-74348994D01*
X90354575Y-74630644D01*
X90354572Y-74630652D01*
X90353062Y-74634220D01*
X90264430Y-74945727D01*
X90263835Y-74949561D01*
X90263834Y-74949565D01*
X90255678Y-75002107D01*
X90214751Y-75265765D01*
X90214631Y-75269646D01*
X90214631Y-75269651D01*
X90205744Y-75558139D01*
X90204778Y-75589482D01*
X90234661Y-75911971D01*
X90244262Y-75955809D01*
X90301303Y-76216268D01*
X90303947Y-76228343D01*
X90305237Y-76232003D01*
X90305237Y-76232004D01*
X90401525Y-76505248D01*
X90411587Y-76533803D01*
X90413312Y-76537267D01*
X90413314Y-76537272D01*
X90476905Y-76664979D01*
X90489364Y-76734874D01*
X90462057Y-76800409D01*
X90403654Y-76840777D01*
X90332697Y-76843162D01*
X90278412Y-76813507D01*
X90135344Y-76680760D01*
X90123500Y-76669770D01*
X89961452Y-76559287D01*
X89909631Y-76523956D01*
X89909629Y-76523955D01*
X89905735Y-76521300D01*
X89747974Y-76445326D01*
X89672522Y-76408990D01*
X89672520Y-76408989D01*
X89668273Y-76406944D01*
X89416419Y-76329258D01*
X89411769Y-76328557D01*
X89411764Y-76328556D01*
X89278546Y-76308477D01*
X89155800Y-76289976D01*
X88892238Y-76289976D01*
X88737759Y-76313260D01*
X88636282Y-76328555D01*
X88636280Y-76328555D01*
X88634651Y-76328801D01*
X88634650Y-76328801D01*
X88631619Y-76329258D01*
X88631521Y-76328610D01*
X88564223Y-76324491D01*
X88506953Y-76282530D01*
X88481461Y-76216268D01*
X88495839Y-76146742D01*
X88507403Y-76128864D01*
X88582227Y-76032199D01*
X88582229Y-76032196D01*
X88586141Y-76027142D01*
X88673514Y-75849020D01*
X88688048Y-75792886D01*
X88721643Y-75663137D01*
X88721644Y-75663133D01*
X88723243Y-75656956D01*
X88723566Y-75650582D01*
X88723567Y-75650577D01*
X88730743Y-75509049D01*
X88733291Y-75458813D01*
X88727900Y-75423617D01*
X88704216Y-75269015D01*
X88704216Y-75269014D01*
X88703249Y-75262703D01*
X88634344Y-75076656D01*
X88529399Y-74908287D01*
X88392710Y-74764490D01*
X88387471Y-74760843D01*
X88387468Y-74760841D01*
X88235120Y-74654804D01*
X88229873Y-74651152D01*
X88047554Y-74572913D01*
X88041296Y-74571627D01*
X88041293Y-74571626D01*
X87950386Y-74552945D01*
X87853218Y-74532976D01*
X87755781Y-74532976D01*
X87719206Y-74527551D01*
X87545879Y-74474973D01*
X87545873Y-74474972D01*
X87539953Y-74473176D01*
X87466839Y-74465975D01*
X87388707Y-74458279D01*
X87388700Y-74458279D01*
X87385627Y-74457976D01*
X87282411Y-74457976D01*
X87279338Y-74458279D01*
X87279331Y-74458279D01*
X87201199Y-74465975D01*
X87128085Y-74473176D01*
X87122165Y-74474972D01*
X87122159Y-74474973D01*
X86989875Y-74515101D01*
X86930065Y-74533244D01*
X86747569Y-74630791D01*
X86587609Y-74762066D01*
X86456334Y-74922026D01*
X86358787Y-75104522D01*
X86356992Y-75110440D01*
X86300516Y-75296616D01*
X86300515Y-75296622D01*
X86298719Y-75302542D01*
X86278436Y-75508476D01*
X83754710Y-75508476D01*
X83897950Y-75396986D01*
X83902069Y-75393780D01*
X83985000Y-75303694D01*
X84051023Y-75231975D01*
X84051026Y-75231971D01*
X84054551Y-75228142D01*
X84101648Y-75156054D01*
X84174837Y-75044031D01*
X84174839Y-75044027D01*
X84177689Y-75039665D01*
X84185515Y-75021825D01*
X84266029Y-74838268D01*
X84268125Y-74833490D01*
X84279491Y-74788609D01*
X84322112Y-74620301D01*
X84322112Y-74620300D01*
X84323393Y-74615242D01*
X84324043Y-74607409D01*
X84341555Y-74396063D01*
X84341985Y-74390874D01*
X84337435Y-74335966D01*
X84323824Y-74171702D01*
X84323823Y-74171697D01*
X84323393Y-74166506D01*
X84302240Y-74082976D01*
X84269407Y-73953320D01*
X84269407Y-73953319D01*
X84268125Y-73948258D01*
X84231604Y-73864998D01*
X84179783Y-73746856D01*
X84179781Y-73746852D01*
X84177689Y-73742083D01*
X84166834Y-73725467D01*
X84061682Y-73564521D01*
X84054551Y-73553606D01*
X84051026Y-73549777D01*
X84051023Y-73549773D01*
X83949469Y-73439457D01*
X83902069Y-73387968D01*
X83843380Y-73342288D01*
X83728518Y-73252886D01*
X83728516Y-73252884D01*
X83724405Y-73249685D01*
X83691149Y-73231688D01*
X83640758Y-73181675D01*
X83625406Y-73112358D01*
X83649966Y-73045745D01*
X83691149Y-73010060D01*
X83707734Y-73001085D01*
X83724405Y-72992063D01*
X83743743Y-72977012D01*
X83897950Y-72856986D01*
X83902069Y-72853780D01*
X84026439Y-72718680D01*
X84051023Y-72691975D01*
X84051026Y-72691971D01*
X84054551Y-72688142D01*
X84120856Y-72586655D01*
X84174837Y-72504031D01*
X84174839Y-72504027D01*
X84177689Y-72499665D01*
X84184803Y-72483448D01*
X84205984Y-72435160D01*
X89230028Y-72435160D01*
X89230718Y-72441725D01*
X89248462Y-72610547D01*
X89249990Y-72625088D01*
X89309005Y-72806716D01*
X89312308Y-72812438D01*
X89312309Y-72812439D01*
X89324504Y-72833561D01*
X89404492Y-72972104D01*
X89408910Y-72977011D01*
X89408911Y-72977012D01*
X89515521Y-73095414D01*
X89532279Y-73114026D01*
X89686780Y-73226278D01*
X89692808Y-73228962D01*
X89692810Y-73228963D01*
X89855213Y-73301269D01*
X89861244Y-73303954D01*
X89954645Y-73323807D01*
X90041588Y-73342288D01*
X90041593Y-73342288D01*
X90048045Y-73343660D01*
X90239019Y-73343660D01*
X90245471Y-73342288D01*
X90245476Y-73342288D01*
X90332419Y-73323807D01*
X90425820Y-73303954D01*
X90431851Y-73301269D01*
X90594254Y-73228963D01*
X90594256Y-73228962D01*
X90600284Y-73226278D01*
X90754785Y-73114026D01*
X90771543Y-73095414D01*
X90878153Y-72977012D01*
X90878154Y-72977011D01*
X90882572Y-72972104D01*
X90962560Y-72833561D01*
X90974755Y-72812439D01*
X90974756Y-72812438D01*
X90978059Y-72806716D01*
X91037074Y-72625088D01*
X91038603Y-72610547D01*
X91056346Y-72441725D01*
X91057036Y-72435160D01*
X91053146Y-72398151D01*
X91065918Y-72328314D01*
X91114419Y-72276467D01*
X91178456Y-72258981D01*
X94679784Y-72258981D01*
X94692576Y-72252820D01*
X94697672Y-72251657D01*
X94704702Y-72249197D01*
X94709409Y-72246930D01*
X94723252Y-72243771D01*
X94734352Y-72234919D01*
X94739057Y-72232653D01*
X94745371Y-72228686D01*
X94749457Y-72225427D01*
X94762245Y-72219269D01*
X94771095Y-72208172D01*
X94775168Y-72204924D01*
X94780464Y-72199628D01*
X94783712Y-72195555D01*
X94794809Y-72186705D01*
X94800967Y-72173917D01*
X94804226Y-72169831D01*
X94808193Y-72163517D01*
X94810459Y-72158812D01*
X94819311Y-72147712D01*
X94822470Y-72133869D01*
X94824737Y-72129162D01*
X94827197Y-72122132D01*
X94828360Y-72117036D01*
X94834521Y-72104244D01*
X94834521Y-72083729D01*
X110346481Y-72083729D01*
X110347416Y-72091935D01*
X110347416Y-72091936D01*
X110348958Y-72105466D01*
X110364381Y-72240827D01*
X110367408Y-72248511D01*
X110367408Y-72248512D01*
X110375497Y-72269047D01*
X110422330Y-72387940D01*
X110427242Y-72394578D01*
X110427243Y-72394580D01*
X110505637Y-72500524D01*
X110516380Y-72515042D01*
X110640122Y-72613470D01*
X110647695Y-72616763D01*
X110647697Y-72616764D01*
X110744924Y-72659040D01*
X110744929Y-72659042D01*
X110748715Y-72660688D01*
X110752686Y-72661827D01*
X110752687Y-72661827D01*
X111178967Y-72784060D01*
X111238936Y-72822064D01*
X111268838Y-72886456D01*
X111259181Y-72956793D01*
X111230498Y-72996137D01*
X111230449Y-72996173D01*
X111141092Y-73095414D01*
X111120838Y-73117909D01*
X111102662Y-73138095D01*
X111073063Y-73189362D01*
X111020357Y-73280652D01*
X111007175Y-73303483D01*
X110948160Y-73485111D01*
X110947470Y-73491672D01*
X110947470Y-73491674D01*
X110932869Y-73630595D01*
X110928198Y-73675039D01*
X110928888Y-73681604D01*
X110944593Y-73831025D01*
X110948160Y-73864967D01*
X111007175Y-74046595D01*
X111010478Y-74052317D01*
X111010479Y-74052318D01*
X111012308Y-74055486D01*
X111102662Y-74211983D01*
X111107080Y-74216890D01*
X111107081Y-74216891D01*
X111221694Y-74344182D01*
X111230449Y-74353905D01*
X111384950Y-74466157D01*
X111390978Y-74468841D01*
X111390980Y-74468842D01*
X111535756Y-74533300D01*
X111559414Y-74543833D01*
X111652815Y-74563686D01*
X111739758Y-74582167D01*
X111739763Y-74582167D01*
X111746215Y-74583539D01*
X111937189Y-74583539D01*
X111943641Y-74582167D01*
X111943646Y-74582167D01*
X112030589Y-74563686D01*
X112123990Y-74543833D01*
X112147648Y-74533300D01*
X112292424Y-74468842D01*
X112292426Y-74468841D01*
X112298454Y-74466157D01*
X112452955Y-74353905D01*
X112461710Y-74344182D01*
X112576323Y-74216891D01*
X112576324Y-74216890D01*
X112580742Y-74211983D01*
X112671096Y-74055486D01*
X112672925Y-74052318D01*
X112672926Y-74052317D01*
X112676229Y-74046595D01*
X112735244Y-73864967D01*
X112738812Y-73831025D01*
X112754516Y-73681604D01*
X112755206Y-73675039D01*
X112750535Y-73630595D01*
X112735934Y-73491674D01*
X112735934Y-73491672D01*
X112735244Y-73485111D01*
X112676229Y-73303483D01*
X112663048Y-73280652D01*
X112610341Y-73189362D01*
X112580742Y-73138095D01*
X112562567Y-73117909D01*
X112457377Y-73001084D01*
X112457376Y-73001083D01*
X112452955Y-72996173D01*
X112298454Y-72883921D01*
X112292426Y-72881237D01*
X112292424Y-72881236D01*
X112130021Y-72808930D01*
X112130020Y-72808930D01*
X112123990Y-72806245D01*
X112117535Y-72804873D01*
X112117532Y-72804872D01*
X112098524Y-72800832D01*
X112036050Y-72767104D01*
X112001729Y-72704955D01*
X112006456Y-72634116D01*
X112026109Y-72599152D01*
X112048000Y-72571630D01*
X112086032Y-72484163D01*
X112107757Y-72434199D01*
X112107758Y-72434196D01*
X112111048Y-72426629D01*
X112134419Y-72270251D01*
X112132301Y-72251657D01*
X112117455Y-72121360D01*
X112116520Y-72113153D01*
X112058570Y-71966040D01*
X112053657Y-71959400D01*
X112053655Y-71959397D01*
X111969435Y-71845580D01*
X111969434Y-71845579D01*
X111964520Y-71838938D01*
X111840778Y-71740510D01*
X111732185Y-71693293D01*
X111728226Y-71692158D01*
X111728221Y-71692156D01*
X111083720Y-71507349D01*
X111083717Y-71507348D01*
X111079754Y-71506212D01*
X111075677Y-71505603D01*
X111075674Y-71505602D01*
X111005097Y-71495054D01*
X110962641Y-71488709D01*
X110954435Y-71489644D01*
X110954434Y-71489644D01*
X110906886Y-71495062D01*
X110805543Y-71506609D01*
X110797859Y-71509636D01*
X110797858Y-71509636D01*
X110791504Y-71512139D01*
X110658430Y-71564558D01*
X110651792Y-71569470D01*
X110651790Y-71569471D01*
X110551013Y-71644042D01*
X110531328Y-71658608D01*
X110432900Y-71782350D01*
X110405407Y-71845580D01*
X110373143Y-71919781D01*
X110373142Y-71919784D01*
X110369852Y-71927351D01*
X110346481Y-72083729D01*
X94834521Y-72083729D01*
X94834521Y-69909034D01*
X106736614Y-69909034D01*
X106756576Y-70098962D01*
X106815591Y-70280590D01*
X106911078Y-70445978D01*
X106915496Y-70450885D01*
X106915497Y-70450886D01*
X106973440Y-70515238D01*
X107038865Y-70587900D01*
X107193366Y-70700152D01*
X107199394Y-70702836D01*
X107199396Y-70702837D01*
X107246577Y-70723843D01*
X107367830Y-70777828D01*
X107445743Y-70794389D01*
X107548174Y-70816162D01*
X107548179Y-70816162D01*
X107554631Y-70817534D01*
X107745605Y-70817534D01*
X107752057Y-70816162D01*
X107752062Y-70816162D01*
X107854493Y-70794389D01*
X107932406Y-70777828D01*
X108053659Y-70723843D01*
X108100840Y-70702837D01*
X108100842Y-70702836D01*
X108106870Y-70700152D01*
X108261371Y-70587900D01*
X108326796Y-70515238D01*
X108384739Y-70450886D01*
X108384740Y-70450885D01*
X108389158Y-70445978D01*
X108484645Y-70280590D01*
X108543660Y-70098962D01*
X108563622Y-69909034D01*
X108547802Y-69758514D01*
X108544350Y-69725669D01*
X108544350Y-69725667D01*
X108543660Y-69719106D01*
X108484645Y-69537478D01*
X108472434Y-69516327D01*
X108392459Y-69377808D01*
X108389158Y-69372090D01*
X108261371Y-69230168D01*
X108106870Y-69117916D01*
X108100842Y-69115232D01*
X108100840Y-69115231D01*
X107938437Y-69042925D01*
X107938436Y-69042925D01*
X107932406Y-69040240D01*
X107839005Y-69020387D01*
X107752062Y-69001906D01*
X107752057Y-69001906D01*
X107745605Y-69000534D01*
X107554631Y-69000534D01*
X107548179Y-69001906D01*
X107548174Y-69001906D01*
X107461231Y-69020387D01*
X107367830Y-69040240D01*
X107361800Y-69042925D01*
X107361799Y-69042925D01*
X107199396Y-69115231D01*
X107199394Y-69115232D01*
X107193366Y-69117916D01*
X107038865Y-69230168D01*
X106911078Y-69372090D01*
X106907777Y-69377808D01*
X106827803Y-69516327D01*
X106815591Y-69537478D01*
X106756576Y-69719106D01*
X106755886Y-69725667D01*
X106755886Y-69725669D01*
X106752434Y-69758514D01*
X106736614Y-69909034D01*
X94834521Y-69909034D01*
X94834521Y-68912718D01*
X94828360Y-68899926D01*
X94827197Y-68894830D01*
X94824737Y-68887800D01*
X94822470Y-68883093D01*
X94819311Y-68869250D01*
X94810459Y-68858150D01*
X94808193Y-68853445D01*
X94804226Y-68847131D01*
X94800967Y-68843045D01*
X94794809Y-68830257D01*
X94783712Y-68821407D01*
X94780464Y-68817334D01*
X94775168Y-68812038D01*
X94771095Y-68808790D01*
X94762245Y-68797693D01*
X94749457Y-68791535D01*
X94745371Y-68788276D01*
X94739057Y-68784309D01*
X94734352Y-68782043D01*
X94723252Y-68773191D01*
X94709409Y-68770032D01*
X94704702Y-68767765D01*
X94697672Y-68765305D01*
X94692576Y-68764142D01*
X94679784Y-68757981D01*
X90988258Y-68757981D01*
X90975466Y-68764142D01*
X90970370Y-68765305D01*
X90963340Y-68767765D01*
X90958633Y-68770032D01*
X90944790Y-68773191D01*
X90933690Y-68782043D01*
X90928985Y-68784309D01*
X90922671Y-68788276D01*
X90918585Y-68791535D01*
X90905797Y-68797693D01*
X90896947Y-68808790D01*
X90892874Y-68812038D01*
X90887578Y-68817334D01*
X90884330Y-68821407D01*
X90873233Y-68830257D01*
X90867075Y-68843045D01*
X90863816Y-68847131D01*
X90859849Y-68853445D01*
X90857583Y-68858150D01*
X90848731Y-68869250D01*
X90845572Y-68883093D01*
X90843305Y-68887800D01*
X90840845Y-68894830D01*
X90839682Y-68899926D01*
X90833521Y-68912718D01*
X90833521Y-71566210D01*
X90813519Y-71634331D01*
X90759863Y-71680824D01*
X90689589Y-71690928D01*
X90633460Y-71668146D01*
X90605626Y-71647923D01*
X90605625Y-71647922D01*
X90600284Y-71644042D01*
X90594256Y-71641358D01*
X90594254Y-71641357D01*
X90431851Y-71569051D01*
X90431850Y-71569051D01*
X90425820Y-71566366D01*
X90330006Y-71546000D01*
X90245476Y-71528032D01*
X90245471Y-71528032D01*
X90239019Y-71526660D01*
X90048045Y-71526660D01*
X90041593Y-71528032D01*
X90041588Y-71528032D01*
X89957058Y-71546000D01*
X89861244Y-71566366D01*
X89855214Y-71569051D01*
X89855213Y-71569051D01*
X89692810Y-71641357D01*
X89692808Y-71641358D01*
X89686780Y-71644042D01*
X89681439Y-71647922D01*
X89681438Y-71647923D01*
X89666732Y-71658608D01*
X89532279Y-71756294D01*
X89527858Y-71761204D01*
X89527857Y-71761205D01*
X89451886Y-71845580D01*
X89404492Y-71898216D01*
X89309005Y-72063604D01*
X89249990Y-72245232D01*
X89230028Y-72435160D01*
X84205984Y-72435160D01*
X84266029Y-72298268D01*
X84268125Y-72293490D01*
X84281936Y-72238954D01*
X84322112Y-72080301D01*
X84322112Y-72080300D01*
X84323393Y-72075242D01*
X84324154Y-72066069D01*
X84341555Y-71856063D01*
X84341985Y-71850874D01*
X84331582Y-71725331D01*
X84323824Y-71631702D01*
X84323823Y-71631697D01*
X84323393Y-71626506D01*
X84308950Y-71569471D01*
X84269407Y-71413320D01*
X84269407Y-71413319D01*
X84268125Y-71408258D01*
X84216663Y-71290936D01*
X84179783Y-71206856D01*
X84179781Y-71206852D01*
X84177689Y-71202083D01*
X84154629Y-71166786D01*
X84057402Y-71017970D01*
X84054551Y-71013606D01*
X84051026Y-71009777D01*
X84051023Y-71009773D01*
X83911354Y-70858054D01*
X83879933Y-70794389D01*
X83887920Y-70723843D01*
X83932778Y-70668814D01*
X83960020Y-70654661D01*
X84075033Y-70611763D01*
X84089824Y-70600691D01*
X84184879Y-70529533D01*
X84192090Y-70524135D01*
X84261517Y-70431392D01*
X84274318Y-70414292D01*
X84274319Y-70414290D01*
X84279718Y-70407078D01*
X84297846Y-70358476D01*
X86928337Y-70358476D01*
X86948975Y-70515238D01*
X87009483Y-70661317D01*
X87046597Y-70709685D01*
X87099938Y-70779200D01*
X87105737Y-70786758D01*
X87112283Y-70791781D01*
X87125739Y-70802106D01*
X87231178Y-70883012D01*
X87377257Y-70943520D01*
X87385445Y-70944598D01*
X87414135Y-70948375D01*
X87494658Y-70958976D01*
X88173380Y-70958976D01*
X88253904Y-70948375D01*
X88282593Y-70944598D01*
X88290781Y-70943520D01*
X88436860Y-70883012D01*
X88542299Y-70802106D01*
X88555755Y-70791781D01*
X88562301Y-70786758D01*
X88568101Y-70779200D01*
X88621441Y-70709685D01*
X88658555Y-70661317D01*
X88719063Y-70515238D01*
X88739701Y-70358476D01*
X88721534Y-70220485D01*
X88732473Y-70150338D01*
X88779601Y-70097239D01*
X88820258Y-70080794D01*
X88861667Y-70071992D01*
X88896807Y-70064523D01*
X88896810Y-70064522D01*
X88903265Y-70063150D01*
X88909296Y-70060465D01*
X89071699Y-69988159D01*
X89071701Y-69988158D01*
X89077729Y-69985474D01*
X89232230Y-69873222D01*
X89323052Y-69772354D01*
X89355598Y-69736208D01*
X89355599Y-69736207D01*
X89360017Y-69731300D01*
X89455504Y-69565912D01*
X89514519Y-69384284D01*
X89516317Y-69367182D01*
X89533791Y-69200921D01*
X89534481Y-69194356D01*
X89514519Y-69004428D01*
X89455504Y-68822800D01*
X89441009Y-68797693D01*
X89363318Y-68663130D01*
X89360017Y-68657412D01*
X89232230Y-68515490D01*
X89077729Y-68403238D01*
X89071701Y-68400554D01*
X89071699Y-68400553D01*
X88909296Y-68328247D01*
X88909295Y-68328247D01*
X88903265Y-68325562D01*
X88809865Y-68305709D01*
X88722921Y-68287228D01*
X88722916Y-68287228D01*
X88716464Y-68285856D01*
X88525490Y-68285856D01*
X88519038Y-68287228D01*
X88519033Y-68287228D01*
X88432089Y-68305709D01*
X88338689Y-68325562D01*
X88332659Y-68328247D01*
X88332658Y-68328247D01*
X88170255Y-68400553D01*
X88170253Y-68400554D01*
X88164225Y-68403238D01*
X88009724Y-68515490D01*
X87881937Y-68657412D01*
X87878636Y-68663130D01*
X87800946Y-68797693D01*
X87786450Y-68822800D01*
X87727435Y-69004428D01*
X87707473Y-69194356D01*
X87708163Y-69200921D01*
X87725638Y-69367182D01*
X87727435Y-69384284D01*
X87786450Y-69565912D01*
X87789754Y-69571635D01*
X87792438Y-69577663D01*
X87790532Y-69578511D01*
X87804957Y-69637971D01*
X87781737Y-69705063D01*
X87725929Y-69748950D01*
X87679100Y-69757976D01*
X87494658Y-69757976D01*
X87377257Y-69773432D01*
X87231178Y-69833940D01*
X87105737Y-69930194D01*
X87009483Y-70055635D01*
X86948975Y-70201714D01*
X86947897Y-70209902D01*
X86946248Y-70222424D01*
X86928337Y-70358476D01*
X84297846Y-70358476D01*
X84330818Y-70270075D01*
X84337329Y-70209512D01*
X84337329Y-68412236D01*
X84330818Y-68351673D01*
X84279718Y-68214670D01*
X84192090Y-68097613D01*
X84075033Y-68009985D01*
X83938030Y-67958885D01*
X83901124Y-67954917D01*
X83880817Y-67952734D01*
X83880814Y-67952734D01*
X83877467Y-67952374D01*
X82080191Y-67952374D01*
X82076844Y-67952734D01*
X82076841Y-67952734D01*
X82056534Y-67954917D01*
X82019628Y-67958885D01*
X81882625Y-68009985D01*
X81765568Y-68097613D01*
X81677940Y-68214670D01*
X81626840Y-68351673D01*
X81620329Y-68412236D01*
X81620329Y-70209512D01*
X81626840Y-70270075D01*
X81677940Y-70407078D01*
X81683339Y-70414290D01*
X81683340Y-70414292D01*
X81696141Y-70431392D01*
X81765568Y-70524135D01*
X81772779Y-70529533D01*
X81867835Y-70600691D01*
X81882625Y-70611763D01*
X81997637Y-70654661D01*
X82054471Y-70697207D01*
X82079282Y-70763727D01*
X82064190Y-70833101D01*
X82046304Y-70858054D01*
X81906635Y-71009773D01*
X81906632Y-71009777D01*
X81903107Y-71013606D01*
X81900256Y-71017970D01*
X81803030Y-71166786D01*
X81779969Y-71202083D01*
X81777877Y-71206852D01*
X81777875Y-71206856D01*
X81740995Y-71290936D01*
X81689533Y-71408258D01*
X81688251Y-71413319D01*
X81688251Y-71413320D01*
X81648708Y-71569471D01*
X81634265Y-71626506D01*
X81633835Y-71631697D01*
X81633834Y-71631702D01*
X81626076Y-71725331D01*
X81615673Y-71850874D01*
X81616103Y-71856063D01*
X81633505Y-72066069D01*
X81634265Y-72075242D01*
X81635546Y-72080300D01*
X81635546Y-72080301D01*
X81675723Y-72238954D01*
X81689533Y-72293490D01*
X81691629Y-72298268D01*
X81772856Y-72483448D01*
X81779969Y-72499665D01*
X81782819Y-72504027D01*
X81782821Y-72504031D01*
X81836802Y-72586655D01*
X81903107Y-72688142D01*
X81906632Y-72691971D01*
X81906635Y-72691975D01*
X81931219Y-72718680D01*
X82055589Y-72853780D01*
X82059708Y-72856986D01*
X82213916Y-72977012D01*
X82233253Y-72992063D01*
X82249925Y-73001085D01*
X82266509Y-73010060D01*
X82316900Y-73060073D01*
X82332252Y-73129390D01*
X82307692Y-73196003D01*
X82266510Y-73231687D01*
X82233253Y-73249685D01*
X82229142Y-73252884D01*
X82229140Y-73252886D01*
X82114278Y-73342288D01*
X82055589Y-73387968D01*
X82008189Y-73439457D01*
X81906635Y-73549773D01*
X81906632Y-73549777D01*
X81903107Y-73553606D01*
X81895976Y-73564521D01*
X81790825Y-73725467D01*
X81779969Y-73742083D01*
X81777877Y-73746852D01*
X81777875Y-73746856D01*
X81726054Y-73864998D01*
X81689533Y-73948258D01*
X81688251Y-73953319D01*
X81688251Y-73953320D01*
X81655418Y-74082976D01*
X81634265Y-74166506D01*
X81633835Y-74171697D01*
X81633834Y-74171702D01*
X81620223Y-74335966D01*
X81615673Y-74390874D01*
X81616103Y-74396063D01*
X81633616Y-74607409D01*
X81634265Y-74615242D01*
X81635546Y-74620300D01*
X81635546Y-74620301D01*
X81678168Y-74788609D01*
X81689533Y-74833490D01*
X81691629Y-74838268D01*
X81772144Y-75021825D01*
X81779969Y-75039665D01*
X81782819Y-75044027D01*
X81782821Y-75044031D01*
X81856010Y-75156054D01*
X81903107Y-75228142D01*
X81906632Y-75231971D01*
X81906635Y-75231975D01*
X81972658Y-75303694D01*
X82055589Y-75393780D01*
X82059708Y-75396986D01*
X82219294Y-75521198D01*
X82233253Y-75532063D01*
X82237834Y-75534542D01*
X82266509Y-75550060D01*
X82316900Y-75600073D01*
X82332252Y-75669390D01*
X82307692Y-75736003D01*
X82266510Y-75771687D01*
X82233253Y-75789685D01*
X82229142Y-75792884D01*
X82229140Y-75792886D01*
X82076142Y-75911971D01*
X82055589Y-75927968D01*
X82039245Y-75945722D01*
X81906635Y-76089773D01*
X81906632Y-76089777D01*
X81903107Y-76093606D01*
X81890241Y-76113299D01*
X81786931Y-76271427D01*
X81779969Y-76282083D01*
X81777877Y-76286852D01*
X81777875Y-76286856D01*
X81734252Y-76386308D01*
X81689533Y-76488258D01*
X81688251Y-76493319D01*
X81688251Y-76493320D01*
X81640307Y-76682647D01*
X81634265Y-76706506D01*
X81633835Y-76711697D01*
X81633834Y-76711702D01*
X81622070Y-76853679D01*
X81615673Y-76930874D01*
X81616103Y-76936063D01*
X81632384Y-77132540D01*
X81634265Y-77155242D01*
X81635546Y-77160300D01*
X81635546Y-77160301D01*
X81685469Y-77357440D01*
X81689533Y-77373490D01*
X81697083Y-77390703D01*
X81776021Y-77570664D01*
X81779969Y-77579665D01*
X81782819Y-77584027D01*
X81782821Y-77584031D01*
X81816220Y-77635152D01*
X81903107Y-77768142D01*
X81906632Y-77771971D01*
X81906635Y-77771975D01*
X81994440Y-77867355D01*
X82055589Y-77933780D01*
X82059708Y-77936986D01*
X82225330Y-78065896D01*
X82233253Y-78072063D01*
X82262468Y-78087873D01*
X82266509Y-78090060D01*
X82316900Y-78140073D01*
X82332252Y-78209390D01*
X82307692Y-78276003D01*
X82266510Y-78311687D01*
X82233253Y-78329685D01*
X82229142Y-78332884D01*
X82229140Y-78332886D01*
X82116169Y-78420816D01*
X82055589Y-78467968D01*
X82052057Y-78471805D01*
X81906635Y-78629773D01*
X81906632Y-78629777D01*
X81903107Y-78633606D01*
X81900256Y-78637970D01*
X81784789Y-78814706D01*
X81779969Y-78822083D01*
X81777877Y-78826852D01*
X81777875Y-78826856D01*
X81762987Y-78860798D01*
X81689533Y-79028258D01*
X81688251Y-79033319D01*
X81688251Y-79033320D01*
X81649775Y-79185260D01*
X81634265Y-79246506D01*
X81633835Y-79251697D01*
X81633834Y-79251702D01*
X81622653Y-79386636D01*
X81615673Y-79470874D01*
X81616103Y-79476063D01*
X81633780Y-79689383D01*
X81634265Y-79695242D01*
X81689533Y-79913490D01*
X81709451Y-79958899D01*
X81748255Y-80047363D01*
X81779969Y-80119665D01*
X81782819Y-80124027D01*
X81782821Y-80124031D01*
X81853921Y-80232857D01*
X81903107Y-80308142D01*
X81906632Y-80311971D01*
X81906635Y-80311975D01*
X81956755Y-80366419D01*
X82055589Y-80473780D01*
X82059708Y-80476986D01*
X82206346Y-80591120D01*
X82233253Y-80612063D01*
X82237834Y-80614542D01*
X82266509Y-80630060D01*
X82316900Y-80680073D01*
X82332252Y-80749390D01*
X82307692Y-80816003D01*
X82266510Y-80851687D01*
X82233253Y-80869685D01*
X82229142Y-80872884D01*
X82229140Y-80872886D01*
X82141657Y-80940978D01*
X82055589Y-81007968D01*
X82044454Y-81020064D01*
X81906635Y-81169773D01*
X81906632Y-81169777D01*
X81903107Y-81173606D01*
X81779969Y-81362083D01*
X81777877Y-81366852D01*
X81777875Y-81366856D01*
X81761034Y-81405251D01*
X81689533Y-81568258D01*
X81688251Y-81573319D01*
X81688251Y-81573320D01*
X81641720Y-81757067D01*
X81634265Y-81786506D01*
X81633835Y-81791697D01*
X81633834Y-81791702D01*
X81621293Y-81943047D01*
X81615673Y-82010874D01*
X79155633Y-82010874D01*
X79202546Y-81934319D01*
X79206999Y-81923570D01*
X79297541Y-81704981D01*
X79297542Y-81704979D01*
X79299435Y-81700408D01*
X79334670Y-81553642D01*
X79357384Y-81459033D01*
X79357385Y-81459027D01*
X79358539Y-81454220D01*
X79366010Y-81359301D01*
X79395811Y-81287358D01*
X79501643Y-81163444D01*
X79501646Y-81163440D01*
X79504859Y-81159678D01*
X79637147Y-80943804D01*
X79640213Y-80936404D01*
X79732142Y-80714466D01*
X79732143Y-80714464D01*
X79734036Y-80709893D01*
X79771213Y-80555038D01*
X79791985Y-80468518D01*
X79791986Y-80468512D01*
X79793140Y-80463705D01*
X79813005Y-80211302D01*
X79793140Y-79958899D01*
X79791760Y-79953148D01*
X79735191Y-79717523D01*
X79734036Y-79712711D01*
X79726800Y-79695242D01*
X79639042Y-79483374D01*
X79639040Y-79483370D01*
X79637147Y-79478800D01*
X79504859Y-79262926D01*
X79340429Y-79070404D01*
X79147907Y-78905974D01*
X78944076Y-78781066D01*
X78936253Y-78776272D01*
X78932033Y-78773686D01*
X78927463Y-78771793D01*
X78927459Y-78771791D01*
X78702695Y-78678691D01*
X78702693Y-78678690D01*
X78698122Y-78676797D01*
X78596992Y-78652518D01*
X78456747Y-78618848D01*
X78456741Y-78618847D01*
X78451934Y-78617693D01*
X78199531Y-78597828D01*
X77947128Y-78617693D01*
X77942321Y-78618847D01*
X77942315Y-78618848D01*
X77802070Y-78652518D01*
X77700940Y-78676797D01*
X77696369Y-78678690D01*
X77696367Y-78678691D01*
X77471603Y-78771791D01*
X77471599Y-78771793D01*
X77467029Y-78773686D01*
X77462809Y-78776272D01*
X77454986Y-78781066D01*
X77251155Y-78905974D01*
X77058633Y-79070404D01*
X76894203Y-79262926D01*
X76761915Y-79478800D01*
X76760022Y-79483370D01*
X76760020Y-79483374D01*
X76672262Y-79695242D01*
X76665026Y-79712711D01*
X76663871Y-79717523D01*
X76607303Y-79953148D01*
X76605922Y-79958899D01*
X76603310Y-79992082D01*
X76598451Y-80053818D01*
X76568650Y-80125761D01*
X76469234Y-80242163D01*
X76459602Y-80253441D01*
X76457018Y-80257657D01*
X76457017Y-80257659D01*
X76452985Y-80264238D01*
X76400337Y-80311869D01*
X76330295Y-80323475D01*
X76316139Y-80320921D01*
X76256389Y-80306576D01*
X76256383Y-80306575D01*
X76251576Y-80305421D01*
X75999173Y-80285556D01*
X75746770Y-80305421D01*
X75741963Y-80306575D01*
X75741957Y-80306576D01*
X75604969Y-80339464D01*
X75500582Y-80364525D01*
X75496011Y-80366418D01*
X75496009Y-80366419D01*
X75271245Y-80459519D01*
X75271241Y-80459521D01*
X75266671Y-80461414D01*
X75050797Y-80593702D01*
X74918064Y-80707067D01*
X74868511Y-80749390D01*
X74858275Y-80758132D01*
X74693845Y-80950654D01*
X74561557Y-81166528D01*
X74559664Y-81171098D01*
X74559662Y-81171102D01*
X74466562Y-81395866D01*
X74464668Y-81400439D01*
X74452941Y-81449287D01*
X74423183Y-81573236D01*
X74387831Y-81634805D01*
X74324804Y-81667488D01*
X74252446Y-81660231D01*
X74241269Y-81655601D01*
X74206607Y-81641244D01*
X74143317Y-81615028D01*
X74143315Y-81615027D01*
X74138744Y-81613134D01*
X74054121Y-81592818D01*
X73897369Y-81555185D01*
X73897363Y-81555184D01*
X73892556Y-81554030D01*
X73640153Y-81534165D01*
X73387750Y-81554030D01*
X73382943Y-81555184D01*
X73382937Y-81555185D01*
X73226185Y-81592818D01*
X73141562Y-81613134D01*
X73136991Y-81615027D01*
X73136989Y-81615028D01*
X72912225Y-81708128D01*
X72912221Y-81708130D01*
X72907651Y-81710023D01*
X72691777Y-81842311D01*
X72570776Y-81945656D01*
X72505982Y-82000996D01*
X72499255Y-82006741D01*
X72334825Y-82199263D01*
X72332243Y-82203477D01*
X72332239Y-82203482D01*
X72318950Y-82225168D01*
X72266303Y-82272800D01*
X72196261Y-82284407D01*
X72129686Y-82255145D01*
X72106383Y-82235242D01*
X72001982Y-82146075D01*
X71786108Y-82013787D01*
X71781538Y-82011894D01*
X71781534Y-82011892D01*
X71556770Y-81918792D01*
X71556768Y-81918791D01*
X71552197Y-81916898D01*
X71442628Y-81890593D01*
X71310822Y-81858949D01*
X71310816Y-81858948D01*
X71306009Y-81857794D01*
X71053606Y-81837929D01*
X70801203Y-81857794D01*
X70796396Y-81858948D01*
X70796390Y-81858949D01*
X70765145Y-81866451D01*
X70749607Y-81870181D01*
X70678700Y-81866634D01*
X70620966Y-81825314D01*
X70594736Y-81759341D01*
X70608338Y-81689659D01*
X70621683Y-81669102D01*
X70758658Y-81497341D01*
X70758661Y-81497337D01*
X70761593Y-81493660D01*
X70893374Y-81265408D01*
X70974938Y-81057587D01*
X70987941Y-81024457D01*
X70987941Y-81024455D01*
X70989665Y-81020064D01*
X71030133Y-80842762D01*
X71047263Y-80767711D01*
X71047263Y-80767709D01*
X71048313Y-80763110D01*
X71048898Y-80755312D01*
X71067657Y-80504981D01*
X71068009Y-80500284D01*
X71065735Y-80469943D01*
X71048666Y-80242163D01*
X71048665Y-80242158D01*
X71048313Y-80237458D01*
X71027296Y-80145374D01*
X70990715Y-79985104D01*
X70990715Y-79985103D01*
X70989665Y-79980504D01*
X70982360Y-79961890D01*
X70927421Y-79821911D01*
X70893374Y-79735160D01*
X70829083Y-79623804D01*
X70790189Y-79556437D01*
X70773451Y-79487441D01*
X70796672Y-79420349D01*
X70852479Y-79376462D01*
X70923154Y-79369714D01*
X70972106Y-79390595D01*
X71230855Y-79573760D01*
X71234265Y-79575591D01*
X71234268Y-79575593D01*
X71512782Y-79725152D01*
X71512789Y-79725155D01*
X71516189Y-79726981D01*
X71621282Y-79767694D01*
X71758520Y-79820860D01*
X71818189Y-79843976D01*
X71865893Y-79855974D01*
X72128507Y-79922025D01*
X72128514Y-79922026D01*
X72132278Y-79922973D01*
X72453694Y-79962773D01*
X72696516Y-79962773D01*
X72712843Y-79961766D01*
X72935017Y-79948063D01*
X72935024Y-79948062D01*
X72938885Y-79947824D01*
X73257241Y-79888313D01*
X73565871Y-79790131D01*
X73603067Y-79773018D01*
X73856574Y-79656387D01*
X73856582Y-79656383D01*
X73860096Y-79654766D01*
X73863399Y-79652721D01*
X74132148Y-79486319D01*
X74132150Y-79486318D01*
X74135457Y-79484270D01*
X74202341Y-79430449D01*
X74384755Y-79283661D01*
X74384759Y-79283658D01*
X74387778Y-79281228D01*
X74613235Y-79048717D01*
X74617802Y-79042670D01*
X74671788Y-78971180D01*
X74808411Y-78790263D01*
X74835995Y-78742487D01*
X74925949Y-78586681D01*
X74970346Y-78509783D01*
X75006372Y-78424669D01*
X75095073Y-78215105D01*
X75095076Y-78215097D01*
X75096586Y-78211529D01*
X75185218Y-77900022D01*
X75187872Y-77882929D01*
X75234301Y-77583823D01*
X75234897Y-77579984D01*
X75235184Y-77570664D01*
X75244751Y-77260141D01*
X75244751Y-77260135D01*
X75244870Y-77256267D01*
X75214987Y-76933778D01*
X75159576Y-76680760D01*
X75146531Y-76621195D01*
X75146530Y-76621192D01*
X75145701Y-76617406D01*
X75140985Y-76604022D01*
X75106022Y-76504803D01*
X76639180Y-76504803D01*
X76640147Y-76511115D01*
X76640147Y-76511117D01*
X76667170Y-76687520D01*
X76669222Y-76700913D01*
X76738127Y-76886960D01*
X76843072Y-77055329D01*
X76979761Y-77199126D01*
X76985000Y-77202773D01*
X76985003Y-77202775D01*
X77094900Y-77279265D01*
X77142598Y-77312464D01*
X77324917Y-77390703D01*
X77331175Y-77391989D01*
X77331178Y-77391990D01*
X77422085Y-77410671D01*
X77519253Y-77430640D01*
X77667925Y-77430640D01*
X77799565Y-77417253D01*
X77826039Y-77418509D01*
X77826138Y-77417508D01*
X77977384Y-77432405D01*
X77977391Y-77432405D01*
X77980464Y-77432708D01*
X78083680Y-77432708D01*
X78086753Y-77432405D01*
X78086760Y-77432405D01*
X78164892Y-77424709D01*
X78238006Y-77417508D01*
X78243926Y-77415712D01*
X78243932Y-77415711D01*
X78408684Y-77365734D01*
X78436026Y-77357440D01*
X78618522Y-77259893D01*
X78778482Y-77128618D01*
X78909757Y-76968658D01*
X79007304Y-76786162D01*
X79031467Y-76706506D01*
X79065575Y-76594068D01*
X79065576Y-76594062D01*
X79067372Y-76588142D01*
X79087655Y-76382208D01*
X79067372Y-76176274D01*
X79065576Y-76170354D01*
X79065575Y-76170348D01*
X79009099Y-75984172D01*
X79007304Y-75978254D01*
X78909757Y-75795758D01*
X78778482Y-75635798D01*
X78618522Y-75504523D01*
X78436026Y-75406976D01*
X78386948Y-75392089D01*
X78243932Y-75348705D01*
X78243926Y-75348704D01*
X78238006Y-75346908D01*
X78164892Y-75339707D01*
X78086760Y-75332011D01*
X78086753Y-75332011D01*
X78083680Y-75331708D01*
X77980464Y-75331708D01*
X77977391Y-75332011D01*
X77977384Y-75332011D01*
X77899252Y-75339707D01*
X77826138Y-75346908D01*
X77820218Y-75348704D01*
X77820212Y-75348705D01*
X77750329Y-75369904D01*
X77628118Y-75406976D01*
X77622663Y-75409892D01*
X77622656Y-75409895D01*
X77496051Y-75477568D01*
X77449399Y-75491801D01*
X77442391Y-75492513D01*
X77427431Y-75494034D01*
X77427426Y-75494035D01*
X77421073Y-75494681D01*
X77231774Y-75554073D01*
X77058306Y-75650356D01*
X76907770Y-75779587D01*
X76903861Y-75784637D01*
X76903860Y-75784638D01*
X76790240Y-75931422D01*
X76790238Y-75931426D01*
X76786330Y-75936474D01*
X76698957Y-76114596D01*
X76697356Y-76120778D01*
X76697356Y-76120779D01*
X76653366Y-76290679D01*
X76649228Y-76306660D01*
X76648905Y-76313034D01*
X76648904Y-76313039D01*
X76644055Y-76408676D01*
X76639180Y-76504803D01*
X75106022Y-76504803D01*
X75039351Y-76315606D01*
X75039349Y-76315602D01*
X75038061Y-76311946D01*
X75027472Y-76290679D01*
X74895427Y-76025498D01*
X74895426Y-76025496D01*
X74893699Y-76022028D01*
X74743768Y-75795758D01*
X74716948Y-75755282D01*
X74716942Y-75755274D01*
X74714805Y-75752049D01*
X74627869Y-75650577D01*
X74506615Y-75509049D01*
X74506611Y-75509045D01*
X74504088Y-75506100D01*
X74501224Y-75503489D01*
X74501219Y-75503484D01*
X74287558Y-75308707D01*
X74264745Y-75287910D01*
X74000403Y-75100786D01*
X73966626Y-75082648D01*
X73718476Y-74949394D01*
X73718469Y-74949391D01*
X73715069Y-74947565D01*
X73484357Y-74858187D01*
X73416691Y-74831973D01*
X73416689Y-74831972D01*
X73413069Y-74830570D01*
X73236787Y-74786233D01*
X73102751Y-74752521D01*
X73102744Y-74752520D01*
X73098980Y-74751573D01*
X72777564Y-74711773D01*
X72534742Y-74711773D01*
X72521305Y-74712602D01*
X72296241Y-74726483D01*
X72296234Y-74726484D01*
X72292373Y-74726722D01*
X71974017Y-74786233D01*
X71665387Y-74884415D01*
X71661865Y-74886035D01*
X71661866Y-74886035D01*
X71374684Y-75018159D01*
X71374676Y-75018163D01*
X71371162Y-75019780D01*
X71367861Y-75021824D01*
X71367859Y-75021825D01*
X71141837Y-75161772D01*
X71095801Y-75190276D01*
X71092770Y-75192715D01*
X70848728Y-75389095D01*
X70843480Y-75393318D01*
X70618023Y-75625829D01*
X70615688Y-75628921D01*
X70611490Y-75634480D01*
X70422847Y-75884283D01*
X70420906Y-75887645D01*
X70420904Y-75887648D01*
X70391158Y-75939170D01*
X70260912Y-76164763D01*
X70251686Y-76186561D01*
X70136185Y-76459441D01*
X70136182Y-76459449D01*
X70134672Y-76463017D01*
X70046040Y-76774524D01*
X70045445Y-76778358D01*
X70045444Y-76778362D01*
X70020721Y-76937633D01*
X69996361Y-77094562D01*
X69996241Y-77098443D01*
X69996241Y-77098448D01*
X69986590Y-77411737D01*
X69986388Y-77418279D01*
X70016271Y-77740768D01*
X70034482Y-77823924D01*
X70083660Y-78048476D01*
X70085557Y-78057140D01*
X70086847Y-78060800D01*
X70086847Y-78060801D01*
X70180725Y-78327206D01*
X70193197Y-78362600D01*
X70194922Y-78366064D01*
X70194924Y-78366069D01*
X70310520Y-78598216D01*
X70337559Y-78652518D01*
X70494701Y-78889671D01*
X70515655Y-78957503D01*
X70496608Y-79025897D01*
X70443609Y-79073137D01*
X70373483Y-79084223D01*
X70318689Y-79063373D01*
X70190190Y-78975764D01*
X70190188Y-78975763D01*
X70186294Y-78973108D01*
X70041528Y-78903392D01*
X69953081Y-78860798D01*
X69953079Y-78860797D01*
X69948832Y-78858752D01*
X69696978Y-78781066D01*
X69692328Y-78780365D01*
X69692323Y-78780364D01*
X69581001Y-78763585D01*
X69436359Y-78741784D01*
X69172797Y-78741784D01*
X69028155Y-78763585D01*
X68916833Y-78780364D01*
X68916828Y-78780365D01*
X68912178Y-78781066D01*
X68872309Y-78793364D01*
X68664832Y-78857361D01*
X68664826Y-78857363D01*
X68660324Y-78858752D01*
X68656077Y-78860797D01*
X68656070Y-78860800D01*
X68629038Y-78873818D01*
X68558985Y-78885353D01*
X68493816Y-78857184D01*
X68454222Y-78798253D01*
X68452774Y-78727271D01*
X68461246Y-78704807D01*
X68529486Y-78565691D01*
X68529489Y-78565682D01*
X68532301Y-78559950D01*
X68542230Y-78521601D01*
X68580430Y-78374067D01*
X68580431Y-78374063D01*
X68582030Y-78367886D01*
X68582353Y-78361512D01*
X68582354Y-78361507D01*
X68589496Y-78220659D01*
X68592078Y-78169743D01*
X68587308Y-78138601D01*
X68563003Y-77979945D01*
X68563003Y-77979944D01*
X68562036Y-77973633D01*
X68493131Y-77787586D01*
X68489057Y-77781049D01*
X68435423Y-77695002D01*
X68388186Y-77619217D01*
X68251497Y-77475420D01*
X68246258Y-77471773D01*
X68246255Y-77471771D01*
X68093907Y-77365734D01*
X68088660Y-77362082D01*
X67906341Y-77283843D01*
X67900083Y-77282557D01*
X67900080Y-77282556D01*
X67803988Y-77262809D01*
X67712005Y-77243906D01*
X67563333Y-77243906D01*
X67431693Y-77257293D01*
X67405219Y-77256037D01*
X67405120Y-77257038D01*
X67253874Y-77242141D01*
X67253867Y-77242141D01*
X67250794Y-77241838D01*
X67147578Y-77241838D01*
X67144505Y-77242141D01*
X67144498Y-77242141D01*
X67066366Y-77249837D01*
X66993252Y-77257038D01*
X66987332Y-77258834D01*
X66987326Y-77258835D01*
X66844310Y-77302219D01*
X66795232Y-77317106D01*
X66612736Y-77414653D01*
X66452776Y-77545928D01*
X66321501Y-77705888D01*
X66223954Y-77888384D01*
X66217643Y-77909188D01*
X66165683Y-78080478D01*
X66165682Y-78080484D01*
X66163886Y-78086404D01*
X66143603Y-78292338D01*
X64492749Y-78292338D01*
X63972186Y-75369904D01*
X63880037Y-74852594D01*
X65138240Y-74852594D01*
X65140946Y-74884400D01*
X65142979Y-74908287D01*
X65143404Y-74913287D01*
X65144048Y-74916598D01*
X65144048Y-74916601D01*
X65263661Y-75531956D01*
X65486341Y-76677542D01*
X65487332Y-76680756D01*
X65487333Y-76680760D01*
X65491601Y-76694601D01*
X65504288Y-76735749D01*
X65508398Y-76742468D01*
X65508400Y-76742472D01*
X65575889Y-76852799D01*
X65580591Y-76860485D01*
X65587267Y-76866535D01*
X65587269Y-76866537D01*
X65603195Y-76880968D01*
X65688944Y-76958671D01*
X65697056Y-76962596D01*
X65697058Y-76962597D01*
X65812457Y-77018429D01*
X65812461Y-77018430D01*
X65820571Y-77022354D01*
X65829466Y-77023835D01*
X65829465Y-77023835D01*
X65957028Y-77045078D01*
X65957031Y-77045078D01*
X65964807Y-77046373D01*
X65996613Y-77043667D01*
X66022132Y-77041496D01*
X66022140Y-77041495D01*
X66025500Y-77041209D01*
X66028811Y-77040565D01*
X66028814Y-77040565D01*
X66955243Y-76860485D01*
X67789755Y-76698272D01*
X67792969Y-76697281D01*
X67792973Y-76697280D01*
X67840431Y-76682647D01*
X67847962Y-76680325D01*
X67854681Y-76676215D01*
X67854685Y-76676213D01*
X67965012Y-76608724D01*
X67965014Y-76608723D01*
X67972698Y-76604022D01*
X67978748Y-76597346D01*
X67978750Y-76597344D01*
X68028919Y-76541979D01*
X68070884Y-76495669D01*
X68075756Y-76485599D01*
X68130642Y-76372156D01*
X68130643Y-76372152D01*
X68134567Y-76364042D01*
X68140476Y-76328556D01*
X68157291Y-76227585D01*
X68157291Y-76227582D01*
X68158586Y-76219806D01*
X68154338Y-76169874D01*
X68153709Y-76162481D01*
X68153708Y-76162473D01*
X68153422Y-76159113D01*
X68143695Y-76109069D01*
X67936672Y-75044031D01*
X67898420Y-74847243D01*
X68548011Y-74847243D01*
X68548701Y-74853808D01*
X68564288Y-75002107D01*
X68567973Y-75037171D01*
X68626988Y-75218799D01*
X68722475Y-75384187D01*
X68726893Y-75389094D01*
X68726894Y-75389095D01*
X68828200Y-75501607D01*
X68850262Y-75526109D01*
X69004763Y-75638361D01*
X69010791Y-75641045D01*
X69010793Y-75641046D01*
X69173196Y-75713352D01*
X69179227Y-75716037D01*
X69272627Y-75735890D01*
X69359571Y-75754371D01*
X69359576Y-75754371D01*
X69366028Y-75755743D01*
X69557002Y-75755743D01*
X69563454Y-75754371D01*
X69563459Y-75754371D01*
X69650403Y-75735890D01*
X69743803Y-75716037D01*
X69749834Y-75713352D01*
X69912237Y-75641046D01*
X69912239Y-75641045D01*
X69918267Y-75638361D01*
X70072768Y-75526109D01*
X70094830Y-75501607D01*
X70196136Y-75389095D01*
X70196137Y-75389094D01*
X70200555Y-75384187D01*
X70296042Y-75218799D01*
X70355057Y-75037171D01*
X70358743Y-75002107D01*
X70374329Y-74853808D01*
X70375019Y-74847243D01*
X70373076Y-74828760D01*
X70355747Y-74663878D01*
X70355747Y-74663876D01*
X70355057Y-74657315D01*
X70331907Y-74586067D01*
X70329879Y-74515101D01*
X70366541Y-74454303D01*
X70429860Y-74423046D01*
X73778929Y-73832514D01*
X73778934Y-73832513D01*
X73855092Y-73819084D01*
X73855093Y-73819083D01*
X73869069Y-73816619D01*
X73880594Y-73808333D01*
X73885398Y-73806308D01*
X73891921Y-73802650D01*
X73896155Y-73799606D01*
X73909235Y-73794092D01*
X73918630Y-73783447D01*
X73922866Y-73780401D01*
X73928404Y-73775390D01*
X73931856Y-73771478D01*
X73943382Y-73763191D01*
X73950172Y-73750722D01*
X73953627Y-73746807D01*
X73957904Y-73740699D01*
X73960403Y-73736111D01*
X73969796Y-73725467D01*
X73973641Y-73711804D01*
X73976139Y-73707216D01*
X73978952Y-73700303D01*
X73980365Y-73695281D01*
X73987155Y-73682812D01*
X73987863Y-73668630D01*
X73989276Y-73663606D01*
X73990479Y-73656248D01*
X73990740Y-73651030D01*
X73994585Y-73637363D01*
X73990562Y-73614546D01*
X73990562Y-73614542D01*
X73752120Y-72262275D01*
X75433745Y-72262275D01*
X75453707Y-72452203D01*
X75512722Y-72633831D01*
X75516025Y-72639553D01*
X75516026Y-72639554D01*
X75534279Y-72671169D01*
X75608209Y-72799219D01*
X75612627Y-72804126D01*
X75612628Y-72804127D01*
X75719460Y-72922776D01*
X75735996Y-72941141D01*
X75890497Y-73053393D01*
X75896525Y-73056077D01*
X75896527Y-73056078D01*
X76051323Y-73124997D01*
X76064961Y-73131069D01*
X76158361Y-73150922D01*
X76245305Y-73169403D01*
X76245310Y-73169403D01*
X76251762Y-73170775D01*
X76442736Y-73170775D01*
X76449188Y-73169403D01*
X76449193Y-73169403D01*
X76536137Y-73150922D01*
X76629537Y-73131069D01*
X76643175Y-73124997D01*
X76797971Y-73056078D01*
X76797973Y-73056077D01*
X76804001Y-73053393D01*
X76958502Y-72941141D01*
X76975038Y-72922776D01*
X77081870Y-72804127D01*
X77081871Y-72804126D01*
X77086289Y-72799219D01*
X77160219Y-72671169D01*
X77178472Y-72639554D01*
X77178473Y-72639553D01*
X77181776Y-72633831D01*
X77240791Y-72452203D01*
X77260753Y-72262275D01*
X77248712Y-72147712D01*
X77241481Y-72078910D01*
X77241481Y-72078908D01*
X77240791Y-72072347D01*
X77181776Y-71890719D01*
X77158772Y-71850874D01*
X77144563Y-71826265D01*
X77086289Y-71725331D01*
X77055313Y-71690928D01*
X76962924Y-71588320D01*
X76962923Y-71588319D01*
X76958502Y-71583409D01*
X76804001Y-71471157D01*
X76797973Y-71468473D01*
X76797971Y-71468472D01*
X76635568Y-71396166D01*
X76635567Y-71396166D01*
X76629537Y-71393481D01*
X76527193Y-71371727D01*
X76449193Y-71355147D01*
X76449188Y-71355147D01*
X76442736Y-71353775D01*
X76251762Y-71353775D01*
X76245310Y-71355147D01*
X76245305Y-71355147D01*
X76167305Y-71371727D01*
X76064961Y-71393481D01*
X76058931Y-71396166D01*
X76058930Y-71396166D01*
X75896527Y-71468472D01*
X75896525Y-71468473D01*
X75890497Y-71471157D01*
X75735996Y-71583409D01*
X75731575Y-71588319D01*
X75731574Y-71588320D01*
X75639186Y-71690928D01*
X75608209Y-71725331D01*
X75549935Y-71826265D01*
X75535727Y-71850874D01*
X75512722Y-71890719D01*
X75453707Y-72072347D01*
X75453017Y-72078908D01*
X75453017Y-72078910D01*
X75445786Y-72147712D01*
X75433745Y-72262275D01*
X73752120Y-72262275D01*
X73444406Y-70517145D01*
X73440382Y-70494324D01*
X73432095Y-70482798D01*
X73430065Y-70477982D01*
X73426417Y-70471478D01*
X73423369Y-70467239D01*
X73417855Y-70454157D01*
X73407210Y-70444763D01*
X73404160Y-70440521D01*
X73399162Y-70434997D01*
X73395240Y-70431536D01*
X73386954Y-70420011D01*
X73374486Y-70413221D01*
X73370579Y-70409773D01*
X73364454Y-70405484D01*
X73359874Y-70402990D01*
X73349230Y-70393597D01*
X73335566Y-70389753D01*
X73330982Y-70387256D01*
X73324065Y-70384442D01*
X73319047Y-70383030D01*
X73306575Y-70376238D01*
X73292394Y-70375530D01*
X73287364Y-70374115D01*
X73280008Y-70372912D01*
X73274790Y-70372652D01*
X73261126Y-70368807D01*
X73247147Y-70371272D01*
X73238306Y-70372831D01*
X73238305Y-70372831D01*
X69715823Y-70993940D01*
X69715818Y-70993941D01*
X69625683Y-71009835D01*
X69614154Y-71018124D01*
X69609339Y-71020154D01*
X69602837Y-71023800D01*
X69598598Y-71026848D01*
X69585516Y-71032362D01*
X69576122Y-71043007D01*
X69571880Y-71046057D01*
X69566356Y-71051055D01*
X69562895Y-71054977D01*
X69551370Y-71063263D01*
X69544580Y-71075731D01*
X69541132Y-71079638D01*
X69536843Y-71085763D01*
X69534349Y-71090343D01*
X69524956Y-71100987D01*
X69521112Y-71114651D01*
X69518615Y-71119235D01*
X69515801Y-71126152D01*
X69514389Y-71131170D01*
X69507597Y-71143642D01*
X69506889Y-71157823D01*
X69505474Y-71162853D01*
X69504271Y-71170209D01*
X69504011Y-71175427D01*
X69500166Y-71189091D01*
X69504190Y-71211911D01*
X69504190Y-71211912D01*
X69971997Y-73864967D01*
X69972002Y-73864998D01*
X69964133Y-73935557D01*
X69919366Y-73990661D01*
X69851914Y-74012815D01*
X69796668Y-74001985D01*
X69749838Y-73981135D01*
X69749830Y-73981132D01*
X69743803Y-73978449D01*
X69650403Y-73958596D01*
X69563459Y-73940115D01*
X69563454Y-73940115D01*
X69557002Y-73938743D01*
X69366028Y-73938743D01*
X69359576Y-73940115D01*
X69359571Y-73940115D01*
X69272627Y-73958596D01*
X69179227Y-73978449D01*
X69173197Y-73981134D01*
X69173196Y-73981134D01*
X69010793Y-74053440D01*
X69010791Y-74053441D01*
X69004763Y-74056125D01*
X68850262Y-74168377D01*
X68845841Y-74173287D01*
X68845840Y-74173288D01*
X68816148Y-74206265D01*
X68722475Y-74310299D01*
X68685623Y-74374128D01*
X68633923Y-74463676D01*
X68626988Y-74475687D01*
X68567973Y-74657315D01*
X68567283Y-74663876D01*
X68567283Y-74663878D01*
X68549954Y-74828760D01*
X68548011Y-74847243D01*
X67898420Y-74847243D01*
X67810485Y-74394858D01*
X67792538Y-74336651D01*
X67788428Y-74329932D01*
X67788426Y-74329928D01*
X67720937Y-74219601D01*
X67720936Y-74219599D01*
X67716235Y-74211915D01*
X67709559Y-74205865D01*
X67709557Y-74205863D01*
X67660541Y-74161447D01*
X67607882Y-74113729D01*
X67599770Y-74109804D01*
X67599768Y-74109803D01*
X67484369Y-74053971D01*
X67484365Y-74053970D01*
X67476255Y-74050046D01*
X67417790Y-74040310D01*
X67339798Y-74027322D01*
X67339795Y-74027322D01*
X67332019Y-74026027D01*
X67300213Y-74028733D01*
X67274694Y-74030904D01*
X67274686Y-74030905D01*
X67271326Y-74031191D01*
X67268015Y-74031835D01*
X67268012Y-74031835D01*
X66454336Y-74189998D01*
X65507071Y-74374128D01*
X65503857Y-74375119D01*
X65503853Y-74375120D01*
X65463704Y-74387499D01*
X65448864Y-74392075D01*
X65442145Y-74396185D01*
X65442141Y-74396187D01*
X65331814Y-74463676D01*
X65331812Y-74463677D01*
X65324128Y-74468378D01*
X65318078Y-74475054D01*
X65318076Y-74475056D01*
X65310743Y-74483149D01*
X65225942Y-74576731D01*
X65222017Y-74584843D01*
X65222016Y-74584845D01*
X65166184Y-74700244D01*
X65166183Y-74700248D01*
X65162259Y-74708358D01*
X65160778Y-74717252D01*
X65140626Y-74838268D01*
X65138240Y-74852594D01*
X63880037Y-74852594D01*
X63573735Y-73133059D01*
X65898483Y-73133059D01*
X65898843Y-73141306D01*
X65898843Y-73141307D01*
X65899873Y-73164906D01*
X65905380Y-73291023D01*
X65907861Y-73298893D01*
X65907862Y-73298897D01*
X65917438Y-73329267D01*
X65952925Y-73441820D01*
X65970529Y-73469452D01*
X66033444Y-73568210D01*
X66033447Y-73568213D01*
X66037880Y-73575172D01*
X66043965Y-73580748D01*
X66148365Y-73676414D01*
X66148368Y-73676416D01*
X66154454Y-73681993D01*
X66294704Y-73755003D01*
X66331638Y-73763191D01*
X66441009Y-73787438D01*
X66441011Y-73787438D01*
X66449071Y-73789225D01*
X66457319Y-73788865D01*
X66457320Y-73788865D01*
X66563256Y-73784240D01*
X66563260Y-73784240D01*
X66567372Y-73784060D01*
X67235782Y-73666202D01*
X67348715Y-73630595D01*
X67482068Y-73545640D01*
X67588889Y-73429066D01*
X67661898Y-73288816D01*
X67696121Y-73134449D01*
X67695157Y-73112358D01*
X67692180Y-73044198D01*
X67689224Y-72976485D01*
X67686743Y-72968615D01*
X67686742Y-72968611D01*
X67649326Y-72849943D01*
X67641679Y-72825688D01*
X67556724Y-72692336D01*
X67485349Y-72626933D01*
X67446239Y-72591095D01*
X67446237Y-72591094D01*
X67440149Y-72585515D01*
X67432825Y-72581702D01*
X67432823Y-72581701D01*
X67307227Y-72516319D01*
X67307225Y-72516318D01*
X67299900Y-72512505D01*
X67220452Y-72494892D01*
X67153595Y-72480070D01*
X67153593Y-72480070D01*
X67145533Y-72478283D01*
X67137285Y-72478643D01*
X67137284Y-72478643D01*
X67031348Y-72483268D01*
X67031344Y-72483268D01*
X67027232Y-72483448D01*
X66358822Y-72601306D01*
X66245888Y-72636913D01*
X66219670Y-72653616D01*
X66119498Y-72717432D01*
X66119495Y-72717435D01*
X66112536Y-72721868D01*
X66106960Y-72727953D01*
X66011294Y-72832353D01*
X66011292Y-72832356D01*
X66005715Y-72838442D01*
X65932705Y-72978692D01*
X65929191Y-72994542D01*
X65901246Y-73120597D01*
X65898483Y-73133059D01*
X63573735Y-73133059D01*
X63288903Y-71534054D01*
X63287335Y-71521789D01*
X63286581Y-71512143D01*
X63276565Y-71384101D01*
X63277061Y-71359407D01*
X63292627Y-71228411D01*
X63297931Y-71204289D01*
X63338752Y-71078847D01*
X63348660Y-71056223D01*
X63362037Y-71032362D01*
X63413166Y-70941159D01*
X63427296Y-70920904D01*
X63513013Y-70820629D01*
X63530825Y-70803517D01*
X63532617Y-70802106D01*
X63581342Y-70763727D01*
X63634453Y-70721894D01*
X63655259Y-70708587D01*
X63735254Y-70667868D01*
X63772820Y-70648746D01*
X63795821Y-70639755D01*
X63849383Y-70624671D01*
X63857619Y-70622648D01*
X64088173Y-70574208D01*
X64113966Y-70568789D01*
X64117700Y-70568065D01*
X79248778Y-67872811D01*
X79250434Y-67872528D01*
X79270966Y-67869183D01*
X79274571Y-67868650D01*
X79294247Y-67866033D01*
X79297897Y-67865602D01*
X79318405Y-67863481D01*
X79320214Y-67863307D01*
X84397194Y-67414669D01*
X84397197Y-67414670D01*
X84434820Y-67411344D01*
X84434820Y-67411345D01*
X84435947Y-67411245D01*
X84437807Y-67411094D01*
X84458523Y-67409569D01*
X84462214Y-67409352D01*
X84481981Y-67408479D01*
X84485677Y-67408370D01*
X84504896Y-67408086D01*
X84506438Y-67408063D01*
X84508297Y-67408049D01*
X91188212Y-67408053D01*
G37*
%TD.AperFunction*%
%TD*%
M02*
