%TF.GenerationSoftware,KiCad,Pcbnew,(6.99.0-4085-g6c752680d7)*%
%TF.CreationDate,2022-11-14T16:54:03+08:00*%
%TF.ProjectId,flex_thumbs_right,666c6578-5f74-4687-956d-62735f726967,rev?*%
%TF.SameCoordinates,Original*%
%TF.FileFunction,Copper,L4,Bot*%
%TF.FilePolarity,Positive*%
%FSLAX46Y46*%
G04 Gerber Fmt 4.6, Leading zero omitted, Abs format (unit mm)*
G04 Created by KiCad (PCBNEW (6.99.0-4085-g6c752680d7)) date 2022-11-14 16:54:03*
%MOMM*%
%LPD*%
G01*
G04 APERTURE LIST*
G04 Aperture macros list*
%AMRotRect*
0 Rectangle, with rotation*
0 The origin of the aperture is its center*
0 $1 length*
0 $2 width*
0 $3 Rotation angle, in degrees counterclockwise*
0 Add horizontal line*
21,1,$1,$2,0,0,$3*%
G04 Aperture macros list end*
%TA.AperFunction,ComponentPad*%
%ADD10C,2.500000*%
%TD*%
%TA.AperFunction,ComponentPad*%
%ADD11C,2.200000*%
%TD*%
%TA.AperFunction,ComponentPad*%
%ADD12R,1.700000X1.700000*%
%TD*%
%TA.AperFunction,ComponentPad*%
%ADD13O,1.700000X1.700000*%
%TD*%
%TA.AperFunction,ComponentPad*%
%ADD14RotRect,1.700000X1.700000X169.000000*%
%TD*%
%TA.AperFunction,ViaPad*%
%ADD15C,0.800000*%
%TD*%
%TA.AperFunction,ViaPad*%
%ADD16C,0.600000*%
%TD*%
%TA.AperFunction,Conductor*%
%ADD17C,0.250000*%
%TD*%
%TA.AperFunction,Conductor*%
%ADD18C,0.152400*%
%TD*%
G04 APERTURE END LIST*
D10*
%TO.P,SW9,1,1*%
%TO.N,row1*%
X107887334Y-102836702D03*
D11*
X108521541Y-106208049D03*
X111055994Y-106807256D03*
%TO.P,SW9,2,2*%
%TO.N,Net-(D9-A)*%
X113699797Y-106440780D03*
X115597526Y-106389538D03*
X116344694Y-105607400D03*
%TD*%
D10*
%TO.P,SW19,1,1*%
%TO.N,row1*%
X89525313Y-79864091D03*
D11*
X90735313Y-83074091D03*
X93335313Y-83224091D03*
%TO.P,SW19,2,2*%
%TO.N,Net-(D19-A)*%
X95875313Y-82404091D03*
X97735313Y-82024091D03*
X98335313Y-81124091D03*
%TD*%
D10*
%TO.P,SW14,1,1*%
%TO.N,row1*%
X68579822Y-83813068D03*
D11*
X70627744Y-86565197D03*
X73168370Y-85992729D03*
%TO.P,SW14,2,2*%
%TO.N,Net-(D14-A)*%
X75383952Y-84504376D03*
X77067157Y-83626411D03*
X77395840Y-82595893D03*
%TD*%
D12*
%TO.P,J1,1,Pin_1*%
%TO.N,col5*%
X103190504Y-71126487D03*
D13*
%TO.P,J1,2,Pin_2*%
%TO.N,col6*%
X103190504Y-73666487D03*
%TO.P,J1,3,Pin_3*%
%TO.N,col4*%
X103190504Y-76206487D03*
%TO.P,J1,4,Pin_4*%
%TO.N,row1*%
X103190504Y-78746487D03*
%TO.P,J1,5,Pin_5*%
%TO.N,col2*%
X103190504Y-81286487D03*
%TO.P,J1,6,Pin_6*%
%TO.N,col3*%
X103190504Y-83826487D03*
%TD*%
D10*
%TO.P,SW1,1,1*%
%TO.N,row1*%
X87493303Y-101708090D03*
D11*
X88703303Y-104918090D03*
X91303303Y-105068090D03*
%TO.P,SW1,2,2*%
%TO.N,Net-(D1-A)*%
X93843303Y-104248090D03*
X95703303Y-103868090D03*
X96303303Y-102968090D03*
%TD*%
D10*
%TO.P,SW5,1,1*%
%TO.N,row1*%
X109360530Y-80992697D03*
D11*
X109994737Y-84364044D03*
X112529190Y-84963251D03*
%TO.P,SW5,2,2*%
%TO.N,Net-(D5-A)*%
X115172993Y-84596775D03*
X117070722Y-84545533D03*
X117817890Y-83763395D03*
%TD*%
D12*
%TO.P,J2,1,Pin_1*%
%TO.N,Vcc*%
X101210124Y-100309689D03*
D13*
%TO.P,J2,2,Pin_2*%
%TO.N,Gnd*%
X101210124Y-102849689D03*
%TO.P,J2,3,Pin_3*%
%TO.N,Din*%
X101210124Y-105389689D03*
%TD*%
D14*
%TO.P,J3,1,Pin_1*%
%TO.N,Net-(D12-DOUT)*%
X119520923Y-77351807D03*
%TD*%
D15*
%TO.N,Vcc*%
X87239564Y-95920397D03*
X74135443Y-73643870D03*
X97551925Y-71629727D03*
X118608547Y-74258199D03*
X108688562Y-96580640D03*
%TO.N,Din*%
X117297389Y-98103888D03*
%TO.N,Gnd*%
X95749565Y-93480395D03*
X110140631Y-74714693D03*
D16*
X117319128Y-96137789D03*
D15*
X68159451Y-78561582D03*
X89311923Y-73409726D03*
%TO.N,Net-(D4-DOUT)*%
X74597633Y-88751727D03*
X63996195Y-75833445D03*
%TO.N,Net-(D10-DIN)*%
X77678190Y-76747593D03*
X87731923Y-70919728D03*
%TO.N,Net-(D10-DOUT)*%
X110153592Y-72107333D03*
X97951922Y-75039724D03*
%TD*%
D17*
%TO.N,row1*%
X95260772Y-85149543D02*
X109209241Y-85149548D01*
X109209241Y-85149548D02*
X109994730Y-84364054D01*
X93335316Y-83224084D02*
X95260772Y-85149543D01*
D18*
X108648285Y-79975509D02*
X103403536Y-79050716D01*
X109360490Y-80992690D02*
G75*
G03*
X108648285Y-79975509I-864690J152490D01*
G01*
X103190493Y-78746483D02*
G75*
G03*
X103403536Y-79050716I258607J-45617D01*
G01*
%TO.N,Din*%
X108954449Y-97506063D02*
X116301117Y-98801484D01*
X101210111Y-105389691D02*
X101750829Y-105485038D01*
X103591209Y-104196394D02*
X104181611Y-100848047D01*
X116301133Y-98801392D02*
G75*
G03*
X117297388Y-98103888I149367J846892D01*
G01*
X108954441Y-97506109D02*
G75*
G03*
X104181611Y-100848047I-715441J-4057391D01*
G01*
X101750833Y-105485014D02*
G75*
G03*
X103591209Y-104196394I275867J1564514D01*
G01*
D17*
%TO.N,Net-(D4-DOUT)*%
X63688593Y-75921647D02*
X63996195Y-75833445D01*
X65955275Y-86257254D02*
X63229226Y-76750369D01*
X70416179Y-88535933D02*
X70185470Y-88602082D01*
X72915455Y-87819276D02*
X70416179Y-88535933D01*
X65955311Y-86257244D02*
G75*
G03*
X70185470Y-88602081I3287489J942644D01*
G01*
X63688590Y-75921638D02*
G75*
G03*
X63229226Y-76750369I184710J-644062D01*
G01*
X74597617Y-88751732D02*
G75*
G03*
X72915455Y-87819277I-1307317J-374868D01*
G01*
%TO.N,Net-(D10-DIN)*%
X77678190Y-76747593D02*
X85829683Y-74410188D01*
X85829683Y-74410188D02*
X86071461Y-74410184D01*
X86421926Y-74059724D02*
X86421920Y-72229723D01*
X87731923Y-70919720D02*
G75*
G03*
X86421920Y-72229723I-23J-1309980D01*
G01*
X86071461Y-74410126D02*
G75*
G03*
X86421926Y-74059724I39J350426D01*
G01*
%TO.N,Net-(D10-DOUT)*%
X107031923Y-74949724D02*
X107080561Y-74958300D01*
X108821200Y-71831781D02*
X110121147Y-72060996D01*
X103661927Y-74939724D02*
X107021922Y-74939726D01*
X107545425Y-74632801D02*
X107929190Y-72456375D01*
X97951922Y-75039724D02*
X98051924Y-74939725D01*
X98051924Y-74939725D02*
X103661927Y-74939724D01*
X107080575Y-74958220D02*
G75*
G03*
X107545424Y-74632801I69725J395120D01*
G01*
X108821199Y-71831786D02*
G75*
G03*
X107929191Y-72456375I-133699J-758314D01*
G01*
X110153605Y-72107335D02*
G75*
G03*
X110121147Y-72060997I-39405J6935D01*
G01*
X107031874Y-74949724D02*
G75*
G03*
X107021922Y-74939726I-9974J24D01*
G01*
%TD*%
%TA.AperFunction,Conductor*%
%TO.N,Gnd*%
G36*
X101662980Y-69223673D02*
G01*
X101664252Y-69223692D01*
X101683650Y-69223979D01*
X101687349Y-69224088D01*
X101707121Y-69224962D01*
X101710782Y-69225177D01*
X101731181Y-69226682D01*
X101732914Y-69226823D01*
X101772026Y-69230288D01*
X101772031Y-69230288D01*
X101772099Y-69230294D01*
X101772122Y-69230287D01*
X106848896Y-69678895D01*
X106850748Y-69679072D01*
X106871452Y-69681210D01*
X106875119Y-69681644D01*
X106894760Y-69684256D01*
X106898401Y-69684794D01*
X106918697Y-69688101D01*
X106920480Y-69688406D01*
X122051730Y-72383702D01*
X122055476Y-72384429D01*
X122311311Y-72438180D01*
X122319527Y-72440199D01*
X122373491Y-72455397D01*
X122396480Y-72464384D01*
X122514051Y-72524234D01*
X122534839Y-72537530D01*
X122638469Y-72619160D01*
X122656273Y-72636264D01*
X122741989Y-72736542D01*
X122756113Y-72756790D01*
X122817716Y-72866681D01*
X122820614Y-72871851D01*
X122830521Y-72894474D01*
X122869197Y-73013331D01*
X122871337Y-73019906D01*
X122876641Y-73044028D01*
X122892204Y-73175014D01*
X122892700Y-73199708D01*
X122881870Y-73338132D01*
X122880301Y-73350401D01*
X122203946Y-77147320D01*
X122192460Y-77211802D01*
X121013426Y-83830913D01*
X120323815Y-87702339D01*
X120322239Y-87711184D01*
X120319473Y-87723246D01*
X120292808Y-87817921D01*
X120282025Y-87856204D01*
X120273031Y-87879207D01*
X120213188Y-87996760D01*
X120199881Y-88017566D01*
X120118257Y-88121187D01*
X120101151Y-88138992D01*
X120000874Y-88224708D01*
X119980630Y-88238829D01*
X119865559Y-88303337D01*
X119842943Y-88313241D01*
X119717507Y-88354059D01*
X119693386Y-88359363D01*
X119562399Y-88374928D01*
X119537707Y-88375424D01*
X119480557Y-88370955D01*
X119399487Y-88364614D01*
X119387229Y-88363047D01*
X106306911Y-86033093D01*
X106243354Y-86001456D01*
X106206991Y-85940479D01*
X106209368Y-85869522D01*
X106249729Y-85811114D01*
X106315261Y-85783799D01*
X106329008Y-85783047D01*
X109130476Y-85783048D01*
X109141659Y-85783575D01*
X109149152Y-85785250D01*
X109157078Y-85785001D01*
X109157080Y-85785001D01*
X109193799Y-85783847D01*
X109254955Y-85797516D01*
X109258025Y-85799080D01*
X109262235Y-85801660D01*
X109266799Y-85803550D01*
X109266802Y-85803552D01*
X109490586Y-85896246D01*
X109496146Y-85898549D01*
X109580769Y-85918865D01*
X109737521Y-85956498D01*
X109737527Y-85956499D01*
X109742334Y-85957653D01*
X109994737Y-85977518D01*
X110247140Y-85957653D01*
X110251947Y-85956499D01*
X110251953Y-85956498D01*
X110408705Y-85918865D01*
X110493328Y-85898549D01*
X110498888Y-85896246D01*
X110722665Y-85803555D01*
X110722671Y-85803552D01*
X110727239Y-85801660D01*
X110931858Y-85676269D01*
X111000392Y-85657731D01*
X111068068Y-85679187D01*
X111105125Y-85717866D01*
X111223862Y-85911627D01*
X111388292Y-86104149D01*
X111580814Y-86268579D01*
X111796688Y-86400867D01*
X111801258Y-86402760D01*
X111801262Y-86402762D01*
X112015061Y-86491320D01*
X112030599Y-86497756D01*
X112115222Y-86518072D01*
X112271974Y-86555705D01*
X112271980Y-86555706D01*
X112276787Y-86556860D01*
X112529190Y-86576725D01*
X112781593Y-86556860D01*
X112786400Y-86555706D01*
X112786406Y-86555705D01*
X112943158Y-86518072D01*
X113027781Y-86497756D01*
X113043319Y-86491320D01*
X113257118Y-86402762D01*
X113257122Y-86402760D01*
X113261692Y-86400867D01*
X113477566Y-86268579D01*
X113670088Y-86104149D01*
X113834518Y-85911627D01*
X113895292Y-85812453D01*
X113947939Y-85764823D01*
X114017980Y-85753216D01*
X114084554Y-85782478D01*
X114102162Y-85797516D01*
X114220858Y-85898893D01*
X114220862Y-85898896D01*
X114224617Y-85902103D01*
X114440491Y-86034391D01*
X114445061Y-86036284D01*
X114445065Y-86036286D01*
X114641042Y-86117462D01*
X114674402Y-86131280D01*
X114759025Y-86151596D01*
X114915777Y-86189229D01*
X114915783Y-86189230D01*
X114920590Y-86190384D01*
X115172993Y-86210249D01*
X115425396Y-86190384D01*
X115430203Y-86189230D01*
X115430209Y-86189229D01*
X115586961Y-86151596D01*
X115671584Y-86131280D01*
X115704944Y-86117462D01*
X115900921Y-86036286D01*
X115900925Y-86036284D01*
X115905495Y-86034391D01*
X115909715Y-86031805D01*
X115909725Y-86031800D01*
X116097832Y-85916527D01*
X116166365Y-85897988D01*
X116229502Y-85916527D01*
X116333990Y-85980558D01*
X116334000Y-85980563D01*
X116338220Y-85983149D01*
X116342790Y-85985042D01*
X116342794Y-85985044D01*
X116539703Y-86066606D01*
X116572131Y-86080038D01*
X116656754Y-86100354D01*
X116813506Y-86137987D01*
X116813512Y-86137988D01*
X116818319Y-86139142D01*
X117070722Y-86159007D01*
X117323125Y-86139142D01*
X117327932Y-86137988D01*
X117327938Y-86137987D01*
X117484690Y-86100354D01*
X117569313Y-86080038D01*
X117601741Y-86066606D01*
X117798650Y-85985044D01*
X117798654Y-85985042D01*
X117803224Y-85983149D01*
X118019098Y-85850861D01*
X118211620Y-85686431D01*
X118376050Y-85493909D01*
X118508338Y-85278035D01*
X118510231Y-85273465D01*
X118510235Y-85273457D01*
X118521122Y-85247172D01*
X118565670Y-85191891D01*
X118571696Y-85187956D01*
X118665999Y-85130167D01*
X118766266Y-85068723D01*
X118958788Y-84904293D01*
X119123218Y-84711771D01*
X119255506Y-84495897D01*
X119264047Y-84475279D01*
X119350501Y-84266559D01*
X119350502Y-84266557D01*
X119352395Y-84261986D01*
X119387305Y-84116575D01*
X119410344Y-84020611D01*
X119410345Y-84020605D01*
X119411499Y-84015798D01*
X119431364Y-83763395D01*
X119411499Y-83510992D01*
X119405877Y-83487571D01*
X119368361Y-83331307D01*
X119352395Y-83264804D01*
X119342206Y-83240205D01*
X119257401Y-83035467D01*
X119257399Y-83035463D01*
X119255506Y-83030893D01*
X119123218Y-82815019D01*
X118958788Y-82622497D01*
X118766266Y-82458067D01*
X118550392Y-82325779D01*
X118545822Y-82323886D01*
X118545818Y-82323884D01*
X118321054Y-82230784D01*
X118321052Y-82230783D01*
X118316481Y-82228890D01*
X118220249Y-82205787D01*
X118075106Y-82170941D01*
X118075100Y-82170940D01*
X118070293Y-82169786D01*
X117817890Y-82149921D01*
X117565487Y-82169786D01*
X117560680Y-82170940D01*
X117560674Y-82170941D01*
X117415531Y-82205787D01*
X117319299Y-82228890D01*
X117314728Y-82230783D01*
X117314726Y-82230784D01*
X117089962Y-82323884D01*
X117089958Y-82323886D01*
X117085388Y-82325779D01*
X116869514Y-82458067D01*
X116676992Y-82622497D01*
X116512562Y-82815019D01*
X116380274Y-83030893D01*
X116378381Y-83035463D01*
X116378377Y-83035471D01*
X116367490Y-83061756D01*
X116322942Y-83117037D01*
X116316916Y-83120971D01*
X116145883Y-83225781D01*
X116077350Y-83244320D01*
X116014213Y-83225781D01*
X115909725Y-83161750D01*
X115909714Y-83161744D01*
X115905495Y-83159159D01*
X115900925Y-83157266D01*
X115900921Y-83157264D01*
X115676157Y-83064164D01*
X115676155Y-83064163D01*
X115671584Y-83062270D01*
X115586961Y-83041954D01*
X115430209Y-83004321D01*
X115430203Y-83004320D01*
X115425396Y-83003166D01*
X115172993Y-82983301D01*
X114920590Y-83003166D01*
X114915783Y-83004320D01*
X114915777Y-83004321D01*
X114759025Y-83041954D01*
X114674402Y-83062270D01*
X114669831Y-83064163D01*
X114669829Y-83064164D01*
X114445065Y-83157264D01*
X114445061Y-83157266D01*
X114440491Y-83159159D01*
X114224617Y-83291447D01*
X114032095Y-83455877D01*
X113867665Y-83648399D01*
X113808657Y-83744692D01*
X113806892Y-83747572D01*
X113754244Y-83795203D01*
X113684203Y-83806810D01*
X113617628Y-83777548D01*
X113606830Y-83768325D01*
X113491196Y-83669564D01*
X113481325Y-83661133D01*
X113481321Y-83661130D01*
X113477566Y-83657923D01*
X113261692Y-83525635D01*
X113257122Y-83523742D01*
X113257118Y-83523740D01*
X113032354Y-83430640D01*
X113032352Y-83430639D01*
X113027781Y-83428746D01*
X112943158Y-83408430D01*
X112786406Y-83370797D01*
X112786400Y-83370796D01*
X112781593Y-83369642D01*
X112529190Y-83349777D01*
X112276787Y-83369642D01*
X112271980Y-83370796D01*
X112271974Y-83370797D01*
X112115222Y-83408430D01*
X112030599Y-83428746D01*
X112026028Y-83430639D01*
X112026026Y-83430640D01*
X111801262Y-83523740D01*
X111801258Y-83523742D01*
X111796688Y-83525635D01*
X111792468Y-83528221D01*
X111592069Y-83651026D01*
X111523535Y-83669564D01*
X111455859Y-83648108D01*
X111418801Y-83609428D01*
X111411223Y-83597061D01*
X111300065Y-83415668D01*
X111135635Y-83223146D01*
X110943113Y-83058716D01*
X110727239Y-82926428D01*
X110722669Y-82924535D01*
X110722665Y-82924533D01*
X110497901Y-82831433D01*
X110497899Y-82831432D01*
X110493328Y-82829539D01*
X110248614Y-82770789D01*
X110248612Y-82770788D01*
X110247140Y-82770435D01*
X110247214Y-82770126D01*
X110185323Y-82740787D01*
X110147795Y-82680520D01*
X110148807Y-82609530D01*
X110188039Y-82550357D01*
X110214516Y-82533227D01*
X110237998Y-82521919D01*
X110238001Y-82521917D01*
X110242246Y-82519873D01*
X110246148Y-82517213D01*
X110388342Y-82420266D01*
X110460011Y-82371403D01*
X110653216Y-82192135D01*
X110670752Y-82170146D01*
X110814610Y-81989754D01*
X110814613Y-81989750D01*
X110817545Y-81986073D01*
X110849928Y-81929985D01*
X110894941Y-81852019D01*
X110949326Y-81757821D01*
X111017817Y-81583309D01*
X111043893Y-81516870D01*
X111043893Y-81516868D01*
X111045617Y-81512477D01*
X111047648Y-81503577D01*
X111103215Y-81260124D01*
X111103215Y-81260122D01*
X111104265Y-81255523D01*
X111105020Y-81245455D01*
X111123609Y-80997394D01*
X111123961Y-80992697D01*
X111120058Y-80940611D01*
X111104618Y-80734576D01*
X111104617Y-80734571D01*
X111104265Y-80729871D01*
X111094733Y-80688108D01*
X111076814Y-80609598D01*
X111081156Y-80538735D01*
X111123121Y-80481468D01*
X111189385Y-80455980D01*
X111258910Y-80470363D01*
X111304688Y-80511962D01*
X111454538Y-80738109D01*
X111457062Y-80741055D01*
X111656542Y-80973888D01*
X111665255Y-80984058D01*
X111668119Y-80986669D01*
X111668124Y-80986674D01*
X111770790Y-81080266D01*
X111904598Y-81202248D01*
X112168940Y-81389372D01*
X112172350Y-81391203D01*
X112172353Y-81391205D01*
X112450867Y-81540764D01*
X112450874Y-81540767D01*
X112454274Y-81542593D01*
X112561187Y-81584011D01*
X112735993Y-81651731D01*
X112756274Y-81659588D01*
X112803990Y-81671589D01*
X113066592Y-81737637D01*
X113066599Y-81737638D01*
X113070363Y-81738585D01*
X113391779Y-81778385D01*
X113634601Y-81778385D01*
X113650960Y-81777376D01*
X113873102Y-81763675D01*
X113873109Y-81763674D01*
X113876970Y-81763436D01*
X114195326Y-81703925D01*
X114503956Y-81605743D01*
X114555737Y-81581920D01*
X114794659Y-81471999D01*
X114794667Y-81471995D01*
X114798181Y-81470378D01*
X114821863Y-81455715D01*
X115070233Y-81301931D01*
X115070235Y-81301930D01*
X115073542Y-81299882D01*
X115085120Y-81290565D01*
X115322840Y-81099273D01*
X115322844Y-81099270D01*
X115325863Y-81096840D01*
X115551320Y-80864329D01*
X115555887Y-80858282D01*
X115652858Y-80729871D01*
X115746496Y-80605875D01*
X115768459Y-80567835D01*
X115860088Y-80409128D01*
X115908431Y-80325395D01*
X115942818Y-80244153D01*
X116010317Y-80084681D01*
X117577265Y-80084681D01*
X117578232Y-80090993D01*
X117578232Y-80090995D01*
X117600511Y-80236426D01*
X117607307Y-80280791D01*
X117676212Y-80466838D01*
X117781157Y-80635207D01*
X117917846Y-80779004D01*
X117923085Y-80782651D01*
X117923088Y-80782653D01*
X118058097Y-80876622D01*
X118080683Y-80892342D01*
X118263002Y-80970581D01*
X118269257Y-80971866D01*
X118269259Y-80971867D01*
X118279094Y-80973888D01*
X118395439Y-80997797D01*
X118429467Y-81010094D01*
X118480483Y-81037363D01*
X118560749Y-81080267D01*
X118560751Y-81080268D01*
X118566203Y-81083182D01*
X118619249Y-81099273D01*
X118758297Y-81141453D01*
X118758303Y-81141454D01*
X118764223Y-81143250D01*
X118837337Y-81150451D01*
X118915469Y-81158147D01*
X118915476Y-81158147D01*
X118918549Y-81158450D01*
X119021765Y-81158450D01*
X119024838Y-81158147D01*
X119024845Y-81158147D01*
X119102977Y-81150451D01*
X119176091Y-81143250D01*
X119182011Y-81141454D01*
X119182017Y-81141453D01*
X119329086Y-81096840D01*
X119374111Y-81083182D01*
X119556607Y-80985635D01*
X119716567Y-80854360D01*
X119847842Y-80694400D01*
X119945389Y-80511904D01*
X119964404Y-80449220D01*
X120003660Y-80319810D01*
X120003661Y-80319804D01*
X120005457Y-80313884D01*
X120025740Y-80107950D01*
X120005457Y-79902016D01*
X120003661Y-79896096D01*
X120003660Y-79896090D01*
X119957996Y-79745557D01*
X119945389Y-79703996D01*
X119847842Y-79521500D01*
X119716567Y-79361540D01*
X119556607Y-79230265D01*
X119374111Y-79132718D01*
X119325033Y-79117831D01*
X119182017Y-79074447D01*
X119182011Y-79074446D01*
X119176091Y-79072650D01*
X119102977Y-79065449D01*
X119024845Y-79057753D01*
X119024838Y-79057753D01*
X119021765Y-79057450D01*
X118918549Y-79057450D01*
X118915476Y-79057753D01*
X118915469Y-79057753D01*
X118823739Y-79066788D01*
X118764223Y-79072650D01*
X118764207Y-79072488D01*
X118718144Y-79072343D01*
X118676296Y-79063743D01*
X118661995Y-79060804D01*
X118661993Y-79060804D01*
X118655736Y-79059518D01*
X118507064Y-79059518D01*
X118359158Y-79074559D01*
X118169859Y-79133951D01*
X117996391Y-79230234D01*
X117845855Y-79359465D01*
X117841946Y-79364515D01*
X117841945Y-79364516D01*
X117728325Y-79511300D01*
X117728323Y-79511304D01*
X117724415Y-79516352D01*
X117637042Y-79694474D01*
X117635441Y-79700656D01*
X117635441Y-79700657D01*
X117590814Y-79873018D01*
X117587313Y-79886538D01*
X117586990Y-79892912D01*
X117586989Y-79892917D01*
X117582221Y-79986949D01*
X117577265Y-80084681D01*
X116010317Y-80084681D01*
X116033158Y-80030717D01*
X116033161Y-80030709D01*
X116034671Y-80027141D01*
X116123303Y-79715634D01*
X116125957Y-79698541D01*
X116172386Y-79399435D01*
X116172982Y-79395596D01*
X116174095Y-79359465D01*
X116182836Y-79075753D01*
X116182836Y-79075747D01*
X116182955Y-79071879D01*
X116153072Y-78749390D01*
X116116619Y-78582937D01*
X116084616Y-78436807D01*
X116084615Y-78436804D01*
X116083786Y-78433018D01*
X116055549Y-78352887D01*
X115977436Y-78131218D01*
X115977434Y-78131214D01*
X115976146Y-78127558D01*
X115972594Y-78120423D01*
X115930264Y-78035414D01*
X118010751Y-78035414D01*
X118012046Y-78043190D01*
X118012046Y-78043193D01*
X118024214Y-78116263D01*
X118034770Y-78179650D01*
X118038694Y-78187760D01*
X118038695Y-78187764D01*
X118092669Y-78299323D01*
X118098453Y-78311277D01*
X118153273Y-78371774D01*
X118190587Y-78412952D01*
X118190589Y-78412954D01*
X118196639Y-78419630D01*
X118204323Y-78424331D01*
X118204325Y-78424332D01*
X118314652Y-78491821D01*
X118314656Y-78491823D01*
X118321375Y-78495933D01*
X118328906Y-78498255D01*
X118376364Y-78512888D01*
X118376368Y-78512889D01*
X118379582Y-78513880D01*
X119174553Y-78668407D01*
X120140523Y-78856173D01*
X120140526Y-78856173D01*
X120143837Y-78856817D01*
X120147197Y-78857103D01*
X120147205Y-78857104D01*
X120172724Y-78859275D01*
X120204530Y-78861981D01*
X120212306Y-78860686D01*
X120212309Y-78860686D01*
X120339872Y-78839443D01*
X120339871Y-78839443D01*
X120348766Y-78837962D01*
X120356876Y-78834038D01*
X120356880Y-78834037D01*
X120472279Y-78778205D01*
X120472281Y-78778204D01*
X120480393Y-78774279D01*
X120540890Y-78719459D01*
X120582068Y-78682145D01*
X120582070Y-78682143D01*
X120588746Y-78676093D01*
X120597702Y-78661452D01*
X120660937Y-78558080D01*
X120660939Y-78558076D01*
X120665049Y-78551357D01*
X120682996Y-78493150D01*
X120893363Y-77410908D01*
X121025289Y-76732209D01*
X121025289Y-76732206D01*
X121025933Y-76728895D01*
X121027163Y-76714447D01*
X121029656Y-76685137D01*
X121031097Y-76668202D01*
X121029018Y-76655713D01*
X121008559Y-76532860D01*
X121007078Y-76523966D01*
X121003154Y-76515856D01*
X121003153Y-76515852D01*
X120947321Y-76400453D01*
X120947320Y-76400451D01*
X120943395Y-76392339D01*
X120861917Y-76302424D01*
X120851261Y-76290664D01*
X120851259Y-76290662D01*
X120845209Y-76283986D01*
X120837525Y-76279285D01*
X120837523Y-76279284D01*
X120727196Y-76211795D01*
X120727192Y-76211793D01*
X120720473Y-76207683D01*
X120699768Y-76201299D01*
X120665484Y-76190728D01*
X120665480Y-76190727D01*
X120662266Y-76189736D01*
X119419797Y-75948224D01*
X118901325Y-75847443D01*
X118901322Y-75847443D01*
X118898011Y-75846799D01*
X118894651Y-75846513D01*
X118894643Y-75846512D01*
X118869124Y-75844341D01*
X118837318Y-75841635D01*
X118829542Y-75842930D01*
X118829539Y-75842930D01*
X118722983Y-75860675D01*
X118693082Y-75865654D01*
X118684972Y-75869578D01*
X118684968Y-75869579D01*
X118569569Y-75925411D01*
X118569567Y-75925412D01*
X118561455Y-75929337D01*
X118534470Y-75953790D01*
X118459780Y-76021471D01*
X118459778Y-76021473D01*
X118453102Y-76027523D01*
X118448401Y-76035207D01*
X118448400Y-76035209D01*
X118380911Y-76145536D01*
X118380909Y-76145540D01*
X118376799Y-76152259D01*
X118374477Y-76159790D01*
X118360079Y-76206488D01*
X118358852Y-76210466D01*
X118205595Y-76998902D01*
X118024313Y-77931519D01*
X118015915Y-77974721D01*
X118015629Y-77978081D01*
X118015628Y-77978089D01*
X118013930Y-77998051D01*
X118010751Y-78035414D01*
X115930264Y-78035414D01*
X115833512Y-77841110D01*
X115833511Y-77841108D01*
X115831784Y-77837640D01*
X115711487Y-77656093D01*
X115655033Y-77570894D01*
X115655027Y-77570886D01*
X115652890Y-77567661D01*
X115617853Y-77526766D01*
X115444700Y-77324661D01*
X115444696Y-77324657D01*
X115442173Y-77321712D01*
X115439309Y-77319101D01*
X115439304Y-77319096D01*
X115226250Y-77124872D01*
X115202830Y-77103522D01*
X114938488Y-76916398D01*
X114912933Y-76902675D01*
X114656561Y-76765006D01*
X114656554Y-76765003D01*
X114653154Y-76763177D01*
X114420225Y-76672940D01*
X114354776Y-76647585D01*
X114354774Y-76647584D01*
X114351154Y-76646182D01*
X114174872Y-76601845D01*
X114040836Y-76568133D01*
X114040829Y-76568132D01*
X114037065Y-76567185D01*
X113715649Y-76527385D01*
X113472827Y-76527385D01*
X113459390Y-76528214D01*
X113234326Y-76542095D01*
X113234319Y-76542096D01*
X113230458Y-76542334D01*
X112912102Y-76601845D01*
X112603472Y-76700027D01*
X112599950Y-76701647D01*
X112599951Y-76701647D01*
X112312769Y-76833771D01*
X112312761Y-76833775D01*
X112309247Y-76835392D01*
X112305946Y-76837436D01*
X112305944Y-76837437D01*
X112045636Y-76998613D01*
X112033886Y-77005888D01*
X112030855Y-77008327D01*
X111785757Y-77205557D01*
X111781565Y-77208930D01*
X111556108Y-77441441D01*
X111553773Y-77444533D01*
X111548580Y-77451410D01*
X111360932Y-77699895D01*
X111358991Y-77703257D01*
X111358989Y-77703260D01*
X111342759Y-77731371D01*
X111198997Y-77980375D01*
X111188220Y-78005837D01*
X111074270Y-78275053D01*
X111074267Y-78275061D01*
X111072757Y-78278629D01*
X110984125Y-78590136D01*
X110983530Y-78593970D01*
X110983529Y-78593974D01*
X110955628Y-78773716D01*
X110934446Y-78910174D01*
X110934326Y-78914055D01*
X110934326Y-78914060D01*
X110924675Y-79227349D01*
X110924473Y-79233891D01*
X110954356Y-79556380D01*
X110988831Y-79713799D01*
X111023642Y-79872752D01*
X111022425Y-79873018D01*
X111021866Y-79938753D01*
X110982976Y-79998151D01*
X110918146Y-80027093D01*
X110847961Y-80016392D01*
X110802765Y-79980788D01*
X110777887Y-79949591D01*
X110682030Y-79829391D01*
X110656151Y-79796939D01*
X110656149Y-79796937D01*
X110653216Y-79793259D01*
X110460011Y-79613991D01*
X110253417Y-79473137D01*
X110246142Y-79468177D01*
X110246140Y-79468176D01*
X110242246Y-79465521D01*
X110123515Y-79408343D01*
X110009033Y-79353211D01*
X110009031Y-79353210D01*
X110004784Y-79351165D01*
X109752930Y-79273479D01*
X109748280Y-79272778D01*
X109748275Y-79272777D01*
X109636953Y-79255998D01*
X109492311Y-79234197D01*
X109266429Y-79234197D01*
X109198308Y-79214195D01*
X109151815Y-79160539D01*
X109141711Y-79090265D01*
X109171205Y-79025685D01*
X109184356Y-79012594D01*
X109210648Y-78990022D01*
X109261573Y-78946305D01*
X109289541Y-78910174D01*
X109379103Y-78794470D01*
X109379105Y-78794466D01*
X109383013Y-78789418D01*
X109470386Y-78611296D01*
X109471987Y-78605113D01*
X109518515Y-78425413D01*
X109518516Y-78425409D01*
X109520115Y-78419232D01*
X109520438Y-78412858D01*
X109520439Y-78412853D01*
X109526247Y-78298304D01*
X109530163Y-78221089D01*
X109527205Y-78201776D01*
X109501088Y-78031291D01*
X109501088Y-78031290D01*
X109500121Y-78024979D01*
X109431216Y-77838932D01*
X109326271Y-77670563D01*
X109189582Y-77526766D01*
X109184343Y-77523119D01*
X109184340Y-77523117D01*
X109031992Y-77417080D01*
X109026745Y-77413428D01*
X108844426Y-77335189D01*
X108838171Y-77333904D01*
X108838169Y-77333903D01*
X108793195Y-77324661D01*
X108711989Y-77307973D01*
X108677961Y-77295676D01*
X108557015Y-77231028D01*
X108546679Y-77225503D01*
X108546677Y-77225502D01*
X108541225Y-77222588D01*
X108452671Y-77195726D01*
X108349131Y-77164317D01*
X108349125Y-77164316D01*
X108343205Y-77162520D01*
X108270091Y-77155319D01*
X108191959Y-77147623D01*
X108191952Y-77147623D01*
X108188879Y-77147320D01*
X108085663Y-77147320D01*
X108082590Y-77147623D01*
X108082583Y-77147623D01*
X108004451Y-77155319D01*
X107931337Y-77162520D01*
X107925417Y-77164316D01*
X107925411Y-77164317D01*
X107782395Y-77207701D01*
X107733317Y-77222588D01*
X107550821Y-77320135D01*
X107390861Y-77451410D01*
X107259586Y-77611370D01*
X107162039Y-77793866D01*
X107149741Y-77834407D01*
X107103768Y-77985960D01*
X107103767Y-77985966D01*
X107101971Y-77991886D01*
X107081688Y-78197820D01*
X107101971Y-78403754D01*
X107103767Y-78409674D01*
X107103768Y-78409680D01*
X107139452Y-78527315D01*
X107162039Y-78601774D01*
X107259586Y-78784270D01*
X107319359Y-78857104D01*
X107382023Y-78933461D01*
X107409776Y-78998808D01*
X107397794Y-79068786D01*
X107349881Y-79121178D01*
X107281249Y-79139349D01*
X107262743Y-79137480D01*
X107242729Y-79133951D01*
X104642039Y-78675378D01*
X104578427Y-78643851D01*
X104541957Y-78582937D01*
X104538349Y-78561699D01*
X104536868Y-78543826D01*
X104535069Y-78522120D01*
X104527710Y-78493061D01*
X104481083Y-78308934D01*
X104481083Y-78308933D01*
X104479801Y-78303872D01*
X104433283Y-78197820D01*
X104391459Y-78102470D01*
X104391457Y-78102466D01*
X104389365Y-78097697D01*
X104382401Y-78087037D01*
X104282028Y-77933406D01*
X104266227Y-77909220D01*
X104262702Y-77905391D01*
X104262699Y-77905387D01*
X104155013Y-77788411D01*
X104113745Y-77743582D01*
X104100792Y-77733500D01*
X103940194Y-77608500D01*
X103940192Y-77608498D01*
X103936081Y-77605299D01*
X103902825Y-77587302D01*
X103852434Y-77537289D01*
X103837082Y-77467972D01*
X103861642Y-77401359D01*
X103902825Y-77365674D01*
X103931500Y-77350156D01*
X103936081Y-77347677D01*
X103952126Y-77335189D01*
X104109626Y-77212600D01*
X104113745Y-77209394D01*
X104196822Y-77119149D01*
X104262699Y-77047589D01*
X104262702Y-77047585D01*
X104266227Y-77043756D01*
X104344173Y-76924451D01*
X104386513Y-76859645D01*
X104386515Y-76859641D01*
X104389365Y-76855279D01*
X104391504Y-76850404D01*
X104462205Y-76689220D01*
X104479801Y-76649104D01*
X104506900Y-76542095D01*
X104533788Y-76435915D01*
X104533788Y-76435914D01*
X104535069Y-76430856D01*
X104535877Y-76421112D01*
X104552842Y-76216367D01*
X104553661Y-76206488D01*
X104549791Y-76159790D01*
X104535500Y-75987316D01*
X104535499Y-75987311D01*
X104535069Y-75982120D01*
X104525432Y-75944063D01*
X104481083Y-75768934D01*
X104481083Y-75768933D01*
X104479801Y-75763872D01*
X104477706Y-75759096D01*
X104477702Y-75759084D01*
X104473645Y-75749835D01*
X104464599Y-75679417D01*
X104495061Y-75615288D01*
X104555358Y-75577807D01*
X104589032Y-75573224D01*
X106814616Y-75573226D01*
X106904340Y-75573226D01*
X106919825Y-75574181D01*
X106934716Y-75576025D01*
X106941113Y-75576985D01*
X106969551Y-75582000D01*
X106969623Y-75582012D01*
X106970471Y-75582161D01*
X106980632Y-75583953D01*
X107008637Y-75588891D01*
X107008652Y-75588893D01*
X107009808Y-75589097D01*
X107010203Y-75589117D01*
X107011020Y-75589234D01*
X107059638Y-75597813D01*
X107065135Y-75597814D01*
X107065138Y-75597814D01*
X107150273Y-75597825D01*
X107240699Y-75597836D01*
X107419012Y-75566416D01*
X107589160Y-75504509D01*
X107678434Y-75452980D01*
X112174746Y-75452980D01*
X112178591Y-75466644D01*
X112178851Y-75471862D01*
X112180054Y-75479218D01*
X112181469Y-75484248D01*
X112182177Y-75498429D01*
X112188969Y-75510901D01*
X112190381Y-75515919D01*
X112193195Y-75522836D01*
X112195692Y-75527420D01*
X112199536Y-75541084D01*
X112208929Y-75551728D01*
X112211423Y-75556308D01*
X112215712Y-75562433D01*
X112219160Y-75566340D01*
X112225950Y-75578808D01*
X112237475Y-75587094D01*
X112240936Y-75591016D01*
X112246460Y-75596014D01*
X112250702Y-75599064D01*
X112260096Y-75609709D01*
X112273178Y-75615223D01*
X112277417Y-75618271D01*
X112283919Y-75621917D01*
X112288734Y-75623947D01*
X112300263Y-75632236D01*
X112364238Y-75643517D01*
X112390398Y-75648130D01*
X112390403Y-75648131D01*
X115703377Y-76232298D01*
X115912885Y-76269240D01*
X115912886Y-76269240D01*
X115935706Y-76273264D01*
X115949370Y-76269419D01*
X115954588Y-76269159D01*
X115961944Y-76267956D01*
X115966974Y-76266541D01*
X115981155Y-76265833D01*
X115993627Y-76259041D01*
X115998645Y-76257629D01*
X116005562Y-76254815D01*
X116010146Y-76252318D01*
X116023810Y-76248474D01*
X116034454Y-76239081D01*
X116039034Y-76236587D01*
X116045159Y-76232298D01*
X116049066Y-76228850D01*
X116061534Y-76222060D01*
X116069820Y-76210535D01*
X116073742Y-76207074D01*
X116078740Y-76201550D01*
X116081790Y-76197308D01*
X116092435Y-76187914D01*
X116097949Y-76174832D01*
X116100997Y-76170593D01*
X116104642Y-76164093D01*
X116106672Y-76159277D01*
X116114962Y-76147747D01*
X116130855Y-76057612D01*
X116448141Y-74258199D01*
X117695043Y-74258199D01*
X117695733Y-74264764D01*
X117700486Y-74309982D01*
X117715005Y-74448127D01*
X117774020Y-74629755D01*
X117777323Y-74635477D01*
X117777324Y-74635478D01*
X117795566Y-74667074D01*
X117869507Y-74795143D01*
X117873925Y-74800050D01*
X117873926Y-74800051D01*
X117907351Y-74837173D01*
X117997294Y-74937065D01*
X118092998Y-75006598D01*
X118144045Y-75043686D01*
X118151795Y-75049317D01*
X118157823Y-75052001D01*
X118157825Y-75052002D01*
X118233672Y-75085771D01*
X118326259Y-75126993D01*
X118410650Y-75144931D01*
X118506603Y-75165327D01*
X118506608Y-75165327D01*
X118513060Y-75166699D01*
X118704034Y-75166699D01*
X118710486Y-75165327D01*
X118710491Y-75165327D01*
X118806444Y-75144931D01*
X118890835Y-75126993D01*
X118983422Y-75085771D01*
X119059269Y-75052002D01*
X119059271Y-75052001D01*
X119065299Y-75049317D01*
X119073050Y-75043686D01*
X119124096Y-75006598D01*
X119219800Y-74937065D01*
X119309743Y-74837173D01*
X119343168Y-74800051D01*
X119343169Y-74800050D01*
X119347587Y-74795143D01*
X119421528Y-74667074D01*
X119439770Y-74635478D01*
X119439771Y-74635477D01*
X119443074Y-74629755D01*
X119502089Y-74448127D01*
X119516609Y-74309982D01*
X119521361Y-74264764D01*
X119522051Y-74258199D01*
X119519357Y-74232566D01*
X119502779Y-74074834D01*
X119502779Y-74074832D01*
X119502089Y-74068271D01*
X119443074Y-73886643D01*
X119432516Y-73868355D01*
X119379880Y-73777188D01*
X119347587Y-73721255D01*
X119337206Y-73709725D01*
X119224222Y-73584244D01*
X119224221Y-73584243D01*
X119219800Y-73579333D01*
X119065299Y-73467081D01*
X119059271Y-73464397D01*
X119059269Y-73464396D01*
X118896866Y-73392090D01*
X118896865Y-73392090D01*
X118890835Y-73389405D01*
X118789879Y-73367946D01*
X118710491Y-73351071D01*
X118710486Y-73351071D01*
X118704034Y-73349699D01*
X118513060Y-73349699D01*
X118506608Y-73351071D01*
X118506603Y-73351071D01*
X118427215Y-73367946D01*
X118326259Y-73389405D01*
X118320229Y-73392090D01*
X118320228Y-73392090D01*
X118157825Y-73464396D01*
X118157823Y-73464397D01*
X118151795Y-73467081D01*
X117997294Y-73579333D01*
X117992873Y-73584243D01*
X117992872Y-73584244D01*
X117879889Y-73709725D01*
X117869507Y-73721255D01*
X117837214Y-73777188D01*
X117784579Y-73868355D01*
X117774020Y-73886643D01*
X117715005Y-74068271D01*
X117714315Y-74074832D01*
X117714315Y-74074834D01*
X117697737Y-74232566D01*
X117695043Y-74258199D01*
X116448141Y-74258199D01*
X116665142Y-73027529D01*
X116665142Y-73027525D01*
X116669165Y-73004708D01*
X116665320Y-72991041D01*
X116665059Y-72985823D01*
X116663856Y-72978465D01*
X116662443Y-72973441D01*
X116661735Y-72959259D01*
X116654945Y-72946790D01*
X116653532Y-72941768D01*
X116650719Y-72934855D01*
X116648221Y-72930267D01*
X116644376Y-72916604D01*
X116634983Y-72905960D01*
X116632484Y-72901372D01*
X116628207Y-72895264D01*
X116624752Y-72891349D01*
X116617962Y-72878880D01*
X116606436Y-72870593D01*
X116602984Y-72866681D01*
X116597446Y-72861670D01*
X116593210Y-72858624D01*
X116583815Y-72847979D01*
X116570735Y-72842465D01*
X116566501Y-72839421D01*
X116559978Y-72835763D01*
X116555174Y-72833738D01*
X116543649Y-72825452D01*
X116529673Y-72822988D01*
X116529672Y-72822987D01*
X116453514Y-72809558D01*
X116453509Y-72809557D01*
X112931027Y-72188448D01*
X112931026Y-72188448D01*
X112908206Y-72184424D01*
X112894542Y-72188269D01*
X112889324Y-72188529D01*
X112881968Y-72189732D01*
X112876938Y-72191147D01*
X112862757Y-72191855D01*
X112850285Y-72198647D01*
X112845267Y-72200059D01*
X112838350Y-72202873D01*
X112833766Y-72205370D01*
X112820102Y-72209214D01*
X112809458Y-72218607D01*
X112804878Y-72221101D01*
X112798753Y-72225390D01*
X112794846Y-72228838D01*
X112782378Y-72235628D01*
X112774092Y-72247153D01*
X112770170Y-72250614D01*
X112765172Y-72256138D01*
X112762122Y-72260380D01*
X112751477Y-72269774D01*
X112745963Y-72282856D01*
X112742915Y-72287095D01*
X112739269Y-72293597D01*
X112737239Y-72298412D01*
X112728950Y-72309941D01*
X112713056Y-72400076D01*
X112713056Y-72400078D01*
X112179207Y-75427681D01*
X112174746Y-75452980D01*
X107678434Y-75452980D01*
X107745973Y-75413996D01*
X107865367Y-75313833D01*
X107880472Y-75301161D01*
X107880475Y-75301158D01*
X107884684Y-75297627D01*
X108001081Y-75158937D01*
X108062832Y-75052002D01*
X108088874Y-75006905D01*
X108088876Y-75006901D01*
X108091624Y-75002142D01*
X108153564Y-74832006D01*
X108154520Y-74826588D01*
X108155389Y-74821663D01*
X108155394Y-74821641D01*
X108155403Y-74821622D01*
X108166593Y-74758161D01*
X108169290Y-74742866D01*
X108169294Y-74742847D01*
X108174506Y-74713301D01*
X108182656Y-74667102D01*
X108182654Y-74667080D01*
X108182657Y-74667059D01*
X108411437Y-73369593D01*
X108442965Y-73305981D01*
X108503879Y-73269511D01*
X108574839Y-73271764D01*
X108633318Y-73312023D01*
X108653006Y-73352760D01*
X108654755Y-73352124D01*
X108657578Y-73359879D01*
X108659366Y-73367946D01*
X108732376Y-73508196D01*
X108737953Y-73514282D01*
X108737955Y-73514285D01*
X108833621Y-73618685D01*
X108839197Y-73624770D01*
X108846156Y-73629203D01*
X108846159Y-73629206D01*
X108903574Y-73665783D01*
X108972549Y-73709725D01*
X109085483Y-73745332D01*
X109753893Y-73863190D01*
X109758005Y-73863370D01*
X109758009Y-73863370D01*
X109863945Y-73867995D01*
X109863946Y-73867995D01*
X109872194Y-73868355D01*
X109880254Y-73866568D01*
X109880256Y-73866568D01*
X109966539Y-73847439D01*
X110026561Y-73834133D01*
X110039812Y-73827235D01*
X110159484Y-73764937D01*
X110159486Y-73764936D01*
X110166810Y-73761123D01*
X110210319Y-73721255D01*
X110227743Y-73705288D01*
X110283385Y-73654302D01*
X110368340Y-73520950D01*
X110389712Y-73453165D01*
X110413403Y-73378027D01*
X110413404Y-73378023D01*
X110415885Y-73370153D01*
X110422782Y-73212189D01*
X110398608Y-73103149D01*
X110403391Y-73032314D01*
X110445712Y-72975309D01*
X110470373Y-72960770D01*
X110604311Y-72901138D01*
X110604318Y-72901134D01*
X110610344Y-72898451D01*
X110632057Y-72882676D01*
X110710818Y-72825452D01*
X110764845Y-72786199D01*
X110843695Y-72698627D01*
X110888213Y-72649185D01*
X110888214Y-72649184D01*
X110892632Y-72644277D01*
X110975992Y-72499893D01*
X110984815Y-72484612D01*
X110984816Y-72484611D01*
X110988119Y-72478889D01*
X111047134Y-72297261D01*
X111048203Y-72287095D01*
X111066406Y-72113898D01*
X111067096Y-72107333D01*
X111058372Y-72024332D01*
X111047824Y-71923968D01*
X111047824Y-71923966D01*
X111047134Y-71917405D01*
X110988119Y-71735777D01*
X110892632Y-71570389D01*
X110764845Y-71428467D01*
X110610344Y-71316215D01*
X110604316Y-71313531D01*
X110604314Y-71313530D01*
X110441911Y-71241224D01*
X110441910Y-71241224D01*
X110435880Y-71238539D01*
X110313316Y-71212487D01*
X110255536Y-71200205D01*
X110255531Y-71200205D01*
X110249079Y-71198833D01*
X110058105Y-71198833D01*
X110051653Y-71200205D01*
X110051648Y-71200205D01*
X109993868Y-71212487D01*
X109871304Y-71238539D01*
X109865274Y-71241224D01*
X109865273Y-71241224D01*
X109702871Y-71313530D01*
X109696840Y-71316215D01*
X109696439Y-71315315D01*
X109633203Y-71330656D01*
X109617320Y-71328885D01*
X109006955Y-71221261D01*
X109006949Y-71221259D01*
X109006921Y-71221254D01*
X108957195Y-71212487D01*
X108957194Y-71212487D01*
X108892048Y-71201000D01*
X108892037Y-71200998D01*
X108891955Y-71200984D01*
X108891927Y-71200983D01*
X108891857Y-71200973D01*
X108837096Y-71191318D01*
X108822417Y-71188730D01*
X108708949Y-71186751D01*
X108606485Y-71184963D01*
X108606481Y-71184963D01*
X108601538Y-71184877D01*
X108596645Y-71185565D01*
X108596640Y-71185565D01*
X108387675Y-71214935D01*
X108387670Y-71214936D01*
X108382776Y-71215624D01*
X108299043Y-71241224D01*
X108176249Y-71278766D01*
X108176246Y-71278767D01*
X108171517Y-71280213D01*
X108167072Y-71282381D01*
X107977418Y-71374882D01*
X107977412Y-71374886D01*
X107972962Y-71377056D01*
X107892525Y-71433378D01*
X107797474Y-71499933D01*
X107792001Y-71503765D01*
X107788439Y-71507205D01*
X107641030Y-71649555D01*
X107633089Y-71657223D01*
X107630114Y-71661171D01*
X107515632Y-71813092D01*
X107500139Y-71833651D01*
X107497819Y-71838015D01*
X107497816Y-71838019D01*
X107458943Y-71911127D01*
X107396425Y-72028704D01*
X107394814Y-72033384D01*
X107394813Y-72033385D01*
X107327142Y-72229906D01*
X107324499Y-72237580D01*
X107319214Y-72267549D01*
X107319212Y-72267554D01*
X107319208Y-72267577D01*
X107305319Y-72346346D01*
X107305316Y-72346357D01*
X107291958Y-72422109D01*
X107291958Y-72422115D01*
X106989100Y-74139700D01*
X106978096Y-74202106D01*
X106946568Y-74265718D01*
X106885655Y-74302188D01*
X106854011Y-74306226D01*
X106123189Y-74306225D01*
X104586194Y-74306224D01*
X104518073Y-74286222D01*
X104471580Y-74232566D01*
X104461477Y-74162292D01*
X104470806Y-74129611D01*
X104477705Y-74113882D01*
X104479801Y-74109104D01*
X104496213Y-74044297D01*
X104533788Y-73895915D01*
X104533788Y-73895914D01*
X104535069Y-73890856D01*
X104535893Y-73880920D01*
X104553231Y-73671677D01*
X104553661Y-73666488D01*
X104540949Y-73513077D01*
X104535500Y-73447316D01*
X104535499Y-73447311D01*
X104535069Y-73442120D01*
X104519062Y-73378909D01*
X104481083Y-73228934D01*
X104481083Y-73228933D01*
X104479801Y-73223872D01*
X104428504Y-73106926D01*
X104391459Y-73022470D01*
X104391457Y-73022466D01*
X104389365Y-73017697D01*
X104366309Y-72982406D01*
X104269078Y-72833584D01*
X104266227Y-72829220D01*
X104262702Y-72825391D01*
X104262699Y-72825387D01*
X104123030Y-72673668D01*
X104091609Y-72610003D01*
X104099596Y-72539457D01*
X104144454Y-72484428D01*
X104171696Y-72470275D01*
X104286709Y-72427377D01*
X104300620Y-72416964D01*
X104396555Y-72345147D01*
X104403766Y-72339749D01*
X104428562Y-72306626D01*
X104485994Y-72229906D01*
X104485995Y-72229904D01*
X104491394Y-72222692D01*
X104542494Y-72085689D01*
X104549005Y-72025126D01*
X104549005Y-70227850D01*
X104542494Y-70167287D01*
X104491394Y-70030284D01*
X104403766Y-69913227D01*
X104370429Y-69888271D01*
X104293923Y-69830999D01*
X104293921Y-69830998D01*
X104286709Y-69825599D01*
X104149706Y-69774499D01*
X104112800Y-69770531D01*
X104092493Y-69768348D01*
X104092490Y-69768348D01*
X104089143Y-69767988D01*
X102291867Y-69767988D01*
X102288520Y-69768348D01*
X102288517Y-69768348D01*
X102268210Y-69770531D01*
X102231304Y-69774499D01*
X102094301Y-69825599D01*
X102087089Y-69830998D01*
X102087087Y-69830999D01*
X102010581Y-69888271D01*
X101977244Y-69913227D01*
X101889616Y-70030284D01*
X101838516Y-70167287D01*
X101832005Y-70227850D01*
X101832005Y-72025126D01*
X101838516Y-72085689D01*
X101889616Y-72222692D01*
X101895015Y-72229904D01*
X101895016Y-72229906D01*
X101952448Y-72306626D01*
X101977244Y-72339749D01*
X101984455Y-72345147D01*
X102080391Y-72416964D01*
X102094301Y-72427377D01*
X102209313Y-72470275D01*
X102266147Y-72512821D01*
X102290958Y-72579341D01*
X102275866Y-72648715D01*
X102257980Y-72673668D01*
X102118311Y-72825387D01*
X102118308Y-72825391D01*
X102114783Y-72829220D01*
X102111932Y-72833584D01*
X102014702Y-72982406D01*
X101991645Y-73017697D01*
X101989553Y-73022466D01*
X101989551Y-73022470D01*
X101952506Y-73106926D01*
X101901209Y-73223872D01*
X101899927Y-73228933D01*
X101899927Y-73228934D01*
X101861948Y-73378909D01*
X101845941Y-73442120D01*
X101845511Y-73447311D01*
X101845510Y-73447316D01*
X101840061Y-73513077D01*
X101827349Y-73666488D01*
X101827779Y-73671677D01*
X101845118Y-73880920D01*
X101845941Y-73890856D01*
X101847222Y-73895914D01*
X101847222Y-73895915D01*
X101884798Y-74044297D01*
X101901209Y-74109104D01*
X101903305Y-74113882D01*
X101910204Y-74129611D01*
X101919250Y-74200029D01*
X101888789Y-74264159D01*
X101828492Y-74301640D01*
X101794816Y-74306224D01*
X99100808Y-74306225D01*
X98528919Y-74306225D01*
X98460798Y-74286223D01*
X98454858Y-74282161D01*
X98414016Y-74252487D01*
X98414014Y-74252486D01*
X98408674Y-74248606D01*
X98402646Y-74245922D01*
X98402644Y-74245921D01*
X98240241Y-74173615D01*
X98240240Y-74173615D01*
X98234210Y-74170930D01*
X98140810Y-74151077D01*
X98053866Y-74132596D01*
X98053861Y-74132596D01*
X98047409Y-74131224D01*
X97856435Y-74131224D01*
X97849983Y-74132596D01*
X97849978Y-74132596D01*
X97763034Y-74151077D01*
X97669634Y-74170930D01*
X97663604Y-74173615D01*
X97663603Y-74173615D01*
X97501200Y-74245921D01*
X97501198Y-74245922D01*
X97495170Y-74248606D01*
X97489829Y-74252486D01*
X97489828Y-74252487D01*
X97471617Y-74265718D01*
X97340669Y-74360858D01*
X97336248Y-74365768D01*
X97336247Y-74365769D01*
X97246553Y-74465385D01*
X97212882Y-74502780D01*
X97187693Y-74546409D01*
X97141579Y-74626281D01*
X97117395Y-74668168D01*
X97058380Y-74849796D01*
X97057690Y-74856357D01*
X97057690Y-74856359D01*
X97050337Y-74926317D01*
X97038418Y-75039724D01*
X97039108Y-75046289D01*
X97052641Y-75175045D01*
X97058380Y-75229652D01*
X97117395Y-75411280D01*
X97120698Y-75417002D01*
X97120699Y-75417003D01*
X97142922Y-75455494D01*
X97212882Y-75576668D01*
X97217300Y-75581575D01*
X97217301Y-75581576D01*
X97308034Y-75682345D01*
X97340669Y-75718590D01*
X97495170Y-75830842D01*
X97501198Y-75833526D01*
X97501200Y-75833527D01*
X97608914Y-75881484D01*
X97669634Y-75908518D01*
X97749109Y-75925411D01*
X97849978Y-75946852D01*
X97849983Y-75946852D01*
X97856435Y-75948224D01*
X98047409Y-75948224D01*
X98053861Y-75946852D01*
X98053866Y-75946852D01*
X98154735Y-75925411D01*
X98234210Y-75908518D01*
X98294930Y-75881484D01*
X98402644Y-75833527D01*
X98402646Y-75833526D01*
X98408674Y-75830842D01*
X98563175Y-75718590D01*
X98656525Y-75614915D01*
X98716970Y-75577675D01*
X98750160Y-75573225D01*
X99446063Y-75573225D01*
X101791977Y-75573224D01*
X101860098Y-75593226D01*
X101906591Y-75646882D01*
X101916695Y-75717156D01*
X101907365Y-75749835D01*
X101903308Y-75759084D01*
X101903304Y-75759096D01*
X101901209Y-75763872D01*
X101899927Y-75768933D01*
X101899927Y-75768934D01*
X101855578Y-75944063D01*
X101845941Y-75982120D01*
X101845511Y-75987311D01*
X101845510Y-75987316D01*
X101831219Y-76159790D01*
X101827349Y-76206488D01*
X101828168Y-76216367D01*
X101845134Y-76421112D01*
X101845941Y-76430856D01*
X101847222Y-76435914D01*
X101847222Y-76435915D01*
X101874111Y-76542095D01*
X101901209Y-76649104D01*
X101918805Y-76689220D01*
X101989507Y-76850404D01*
X101991645Y-76855279D01*
X101994495Y-76859641D01*
X101994497Y-76859645D01*
X102036837Y-76924451D01*
X102114783Y-77043756D01*
X102118308Y-77047585D01*
X102118311Y-77047589D01*
X102184188Y-77119149D01*
X102267265Y-77209394D01*
X102271384Y-77212600D01*
X102428885Y-77335189D01*
X102444929Y-77347677D01*
X102449510Y-77350156D01*
X102478185Y-77365674D01*
X102528576Y-77415687D01*
X102543928Y-77485004D01*
X102519368Y-77551617D01*
X102478186Y-77587301D01*
X102444929Y-77605299D01*
X102440818Y-77608498D01*
X102440816Y-77608500D01*
X102280218Y-77733500D01*
X102267265Y-77743582D01*
X102225997Y-77788411D01*
X102118311Y-77905387D01*
X102118308Y-77905391D01*
X102114783Y-77909220D01*
X102098982Y-77933406D01*
X101998610Y-78087037D01*
X101991645Y-78097697D01*
X101989553Y-78102466D01*
X101989551Y-78102470D01*
X101947727Y-78197820D01*
X101901209Y-78303872D01*
X101899927Y-78308933D01*
X101899927Y-78308934D01*
X101853300Y-78493061D01*
X101845941Y-78522120D01*
X101845511Y-78527311D01*
X101845510Y-78527316D01*
X101838416Y-78612933D01*
X101827349Y-78746488D01*
X101827779Y-78751677D01*
X101844252Y-78950468D01*
X101845941Y-78970856D01*
X101847222Y-78975914D01*
X101847222Y-78975915D01*
X101897082Y-79172805D01*
X101901209Y-79189104D01*
X101921075Y-79234394D01*
X101982072Y-79373454D01*
X101991645Y-79395279D01*
X101994495Y-79399641D01*
X101994497Y-79399645D01*
X102039580Y-79468649D01*
X102114783Y-79583756D01*
X102118308Y-79587585D01*
X102118311Y-79587589D01*
X102166135Y-79639539D01*
X102267265Y-79749394D01*
X102271384Y-79752600D01*
X102437831Y-79882152D01*
X102444929Y-79887677D01*
X102471426Y-79902016D01*
X102478185Y-79905674D01*
X102528576Y-79955687D01*
X102543928Y-80025004D01*
X102519368Y-80091617D01*
X102478186Y-80127301D01*
X102444929Y-80145299D01*
X102440818Y-80148498D01*
X102440816Y-80148500D01*
X102327850Y-80236426D01*
X102267265Y-80283582D01*
X102232064Y-80321820D01*
X102118311Y-80445387D01*
X102118308Y-80445391D01*
X102114783Y-80449220D01*
X102101179Y-80470042D01*
X101996470Y-80630312D01*
X101991645Y-80637697D01*
X101989553Y-80642466D01*
X101989551Y-80642470D01*
X101946308Y-80741055D01*
X101901209Y-80843872D01*
X101899927Y-80848933D01*
X101899927Y-80848934D01*
X101852210Y-81037363D01*
X101845941Y-81062120D01*
X101845511Y-81067311D01*
X101845510Y-81067316D01*
X101834885Y-81195541D01*
X101827349Y-81286488D01*
X101827779Y-81291677D01*
X101845338Y-81503577D01*
X101845941Y-81510856D01*
X101847222Y-81515914D01*
X101847222Y-81515915D01*
X101894536Y-81702751D01*
X101901209Y-81729104D01*
X101925543Y-81784580D01*
X101989323Y-81929985D01*
X101991645Y-81935279D01*
X101994495Y-81939641D01*
X101994497Y-81939645D01*
X102024830Y-81986073D01*
X102114783Y-82123756D01*
X102118308Y-82127585D01*
X102118311Y-82127589D01*
X102199695Y-82215994D01*
X102267265Y-82289394D01*
X102271384Y-82292600D01*
X102401248Y-82393678D01*
X102444929Y-82427677D01*
X102449510Y-82430156D01*
X102478185Y-82445674D01*
X102528576Y-82495687D01*
X102543928Y-82565004D01*
X102519368Y-82631617D01*
X102478186Y-82667301D01*
X102444929Y-82685299D01*
X102440818Y-82688498D01*
X102440816Y-82688500D01*
X102278267Y-82815019D01*
X102267265Y-82823582D01*
X102244514Y-82848296D01*
X102118311Y-82985387D01*
X102118308Y-82985391D01*
X102114783Y-82989220D01*
X102111932Y-82993584D01*
X101997852Y-83168197D01*
X101991645Y-83177697D01*
X101989553Y-83182466D01*
X101989551Y-83182470D01*
X101940342Y-83294658D01*
X101901209Y-83383872D01*
X101899927Y-83388933D01*
X101899927Y-83388934D01*
X101852238Y-83577255D01*
X101845941Y-83602120D01*
X101845511Y-83607311D01*
X101845510Y-83607316D01*
X101831404Y-83777548D01*
X101827349Y-83826488D01*
X101827779Y-83831677D01*
X101843589Y-84022467D01*
X101845941Y-84050856D01*
X101847222Y-84055914D01*
X101847222Y-84055915D01*
X101898121Y-84256908D01*
X101901209Y-84269104D01*
X101903305Y-84273882D01*
X101932057Y-84339432D01*
X101941103Y-84409850D01*
X101910642Y-84473980D01*
X101850345Y-84511461D01*
X101816669Y-84516045D01*
X96858813Y-84516043D01*
X95575367Y-84516043D01*
X95507246Y-84496041D01*
X95486271Y-84479138D01*
X95361472Y-84354339D01*
X95088886Y-84081751D01*
X95054861Y-84019440D01*
X95059926Y-83948624D01*
X95102473Y-83891789D01*
X95168993Y-83866978D01*
X95226200Y-83876248D01*
X95263720Y-83891789D01*
X95376722Y-83938596D01*
X95461345Y-83958912D01*
X95618097Y-83996545D01*
X95618103Y-83996546D01*
X95622910Y-83997700D01*
X95875313Y-84017565D01*
X96127716Y-83997700D01*
X96132523Y-83996546D01*
X96132529Y-83996545D01*
X96289281Y-83958912D01*
X96373904Y-83938596D01*
X96378477Y-83936702D01*
X96603241Y-83843602D01*
X96603245Y-83843600D01*
X96607815Y-83841707D01*
X96823689Y-83709419D01*
X97016211Y-83544989D01*
X97017202Y-83546149D01*
X97073568Y-83515370D01*
X97148569Y-83522082D01*
X97163390Y-83528221D01*
X97230455Y-83556000D01*
X97236722Y-83558596D01*
X97314443Y-83577255D01*
X97478097Y-83616545D01*
X97478103Y-83616546D01*
X97482910Y-83617700D01*
X97735313Y-83637565D01*
X97987716Y-83617700D01*
X97992523Y-83616546D01*
X97992529Y-83616545D01*
X98156183Y-83577255D01*
X98233904Y-83558596D01*
X98238477Y-83556702D01*
X98463241Y-83463602D01*
X98463245Y-83463600D01*
X98467815Y-83461707D01*
X98683689Y-83329419D01*
X98876211Y-83164989D01*
X99040641Y-82972467D01*
X99172929Y-82756593D01*
X99177240Y-82746187D01*
X99267924Y-82527255D01*
X99267925Y-82527253D01*
X99269818Y-82522682D01*
X99270974Y-82517868D01*
X99270976Y-82517861D01*
X99284850Y-82460074D01*
X99325537Y-82393678D01*
X99472455Y-82268197D01*
X99476211Y-82264989D01*
X99640641Y-82072467D01*
X99772929Y-81856593D01*
X99783488Y-81831103D01*
X99867924Y-81627255D01*
X99867925Y-81627253D01*
X99869818Y-81622682D01*
X99898412Y-81503577D01*
X99927767Y-81381307D01*
X99927768Y-81381301D01*
X99928922Y-81376494D01*
X99948787Y-81124091D01*
X99928922Y-80871688D01*
X99927311Y-80864974D01*
X99870973Y-80630312D01*
X99869818Y-80625500D01*
X99860295Y-80602510D01*
X99774824Y-80396163D01*
X99774822Y-80396159D01*
X99772929Y-80391589D01*
X99640641Y-80175715D01*
X99476211Y-79983193D01*
X99283689Y-79818763D01*
X99067815Y-79686475D01*
X99063245Y-79684582D01*
X99063241Y-79684580D01*
X98838477Y-79591480D01*
X98838475Y-79591479D01*
X98833904Y-79589586D01*
X98703750Y-79558339D01*
X98592529Y-79531637D01*
X98592523Y-79531636D01*
X98587716Y-79530482D01*
X98335313Y-79510617D01*
X98082910Y-79530482D01*
X98078103Y-79531636D01*
X98078097Y-79531637D01*
X97966876Y-79558339D01*
X97836722Y-79589586D01*
X97832151Y-79591479D01*
X97832149Y-79591480D01*
X97607385Y-79684580D01*
X97607381Y-79684582D01*
X97602811Y-79686475D01*
X97386937Y-79818763D01*
X97194415Y-79983193D01*
X97029985Y-80175715D01*
X96897697Y-80391589D01*
X96895804Y-80396159D01*
X96895802Y-80396163D01*
X96810331Y-80602510D01*
X96800808Y-80625500D01*
X96799653Y-80630312D01*
X96799650Y-80630321D01*
X96785776Y-80688108D01*
X96745089Y-80754504D01*
X96594415Y-80883193D01*
X96593424Y-80882033D01*
X96537058Y-80912812D01*
X96462057Y-80906100D01*
X96378477Y-80871480D01*
X96378475Y-80871479D01*
X96373904Y-80869586D01*
X96289281Y-80849270D01*
X96132529Y-80811637D01*
X96132523Y-80811636D01*
X96127716Y-80810482D01*
X95875313Y-80790617D01*
X95622910Y-80810482D01*
X95618103Y-80811636D01*
X95618097Y-80811637D01*
X95461345Y-80849270D01*
X95376722Y-80869586D01*
X95372151Y-80871479D01*
X95372149Y-80871480D01*
X95147385Y-80964580D01*
X95147381Y-80964582D01*
X95142811Y-80966475D01*
X94926937Y-81098763D01*
X94734415Y-81263193D01*
X94569985Y-81455715D01*
X94437697Y-81671589D01*
X94435804Y-81676159D01*
X94435802Y-81676163D01*
X94381319Y-81807697D01*
X94336771Y-81862978D01*
X94269407Y-81885399D01*
X94199075Y-81866911D01*
X94072045Y-81789066D01*
X94072034Y-81789060D01*
X94067815Y-81786475D01*
X94063245Y-81784582D01*
X94063241Y-81784580D01*
X93838477Y-81691480D01*
X93838475Y-81691479D01*
X93833904Y-81689586D01*
X93741363Y-81667369D01*
X93592529Y-81631637D01*
X93592523Y-81631636D01*
X93587716Y-81630482D01*
X93335313Y-81610617D01*
X93082910Y-81630482D01*
X93078103Y-81631636D01*
X93078097Y-81631637D01*
X92929263Y-81667369D01*
X92836722Y-81689586D01*
X92832151Y-81691479D01*
X92832149Y-81691480D01*
X92607385Y-81784580D01*
X92607381Y-81784582D01*
X92602811Y-81786475D01*
X92386937Y-81918763D01*
X92194415Y-82083193D01*
X92191207Y-82086949D01*
X92188525Y-82089631D01*
X92126213Y-82123657D01*
X92055398Y-82118592D01*
X92003619Y-82082367D01*
X91879419Y-81936949D01*
X91876211Y-81933193D01*
X91683689Y-81768763D01*
X91467815Y-81636475D01*
X91463245Y-81634582D01*
X91463241Y-81634580D01*
X91238477Y-81541480D01*
X91238475Y-81541479D01*
X91233904Y-81539586D01*
X91136281Y-81516149D01*
X90992529Y-81481637D01*
X90992523Y-81481636D01*
X90987716Y-81480482D01*
X90735313Y-81460617D01*
X90730383Y-81461005D01*
X90730375Y-81461005D01*
X90718968Y-81461903D01*
X90649487Y-81447309D01*
X90598927Y-81397468D01*
X90583339Y-81328204D01*
X90607672Y-81261508D01*
X90625234Y-81243271D01*
X90624794Y-81242797D01*
X90782098Y-81096840D01*
X90817999Y-81063529D01*
X90838866Y-81037363D01*
X90979393Y-80861148D01*
X90979396Y-80861144D01*
X90982328Y-80857467D01*
X91022959Y-80787093D01*
X91058652Y-80725270D01*
X91114109Y-80629215D01*
X91200487Y-80409128D01*
X91208676Y-80388264D01*
X91208676Y-80388262D01*
X91210400Y-80383871D01*
X91224563Y-80321820D01*
X91267998Y-80131518D01*
X91267998Y-80131516D01*
X91269048Y-80126917D01*
X91270470Y-80107950D01*
X91288392Y-79868788D01*
X91288744Y-79864091D01*
X91282214Y-79776949D01*
X91269401Y-79605970D01*
X91269400Y-79605965D01*
X91269048Y-79601265D01*
X91259762Y-79560578D01*
X91211450Y-79348911D01*
X91211450Y-79348910D01*
X91210400Y-79344311D01*
X91146347Y-79181107D01*
X91140079Y-79110389D01*
X91173040Y-79047507D01*
X91234764Y-79012428D01*
X91305656Y-79016288D01*
X91359322Y-79053097D01*
X91441295Y-79148775D01*
X91446854Y-79155264D01*
X91449718Y-79157875D01*
X91449723Y-79157880D01*
X91576530Y-79273479D01*
X91686197Y-79373454D01*
X91950539Y-79560578D01*
X91953949Y-79562409D01*
X91953952Y-79562411D01*
X92232466Y-79711970D01*
X92232473Y-79711973D01*
X92235873Y-79713799D01*
X92398883Y-79776949D01*
X92459141Y-79800293D01*
X92537873Y-79830794D01*
X92625547Y-79852845D01*
X92848191Y-79908843D01*
X92848198Y-79908844D01*
X92851962Y-79909791D01*
X93173378Y-79949591D01*
X93416200Y-79949591D01*
X93429637Y-79948762D01*
X93654701Y-79934881D01*
X93654708Y-79934880D01*
X93658569Y-79934642D01*
X93976925Y-79875131D01*
X94285555Y-79776949D01*
X94410707Y-79719370D01*
X94576258Y-79643205D01*
X94576266Y-79643201D01*
X94579780Y-79641584D01*
X94583083Y-79639539D01*
X94851832Y-79473137D01*
X94851834Y-79473136D01*
X94855141Y-79471088D01*
X94889483Y-79443453D01*
X95104439Y-79270479D01*
X95104443Y-79270476D01*
X95107462Y-79268046D01*
X95332919Y-79035535D01*
X95528095Y-78777081D01*
X95544083Y-78749390D01*
X95633812Y-78593974D01*
X95690030Y-78496601D01*
X95725436Y-78412952D01*
X95814757Y-78201923D01*
X95814760Y-78201915D01*
X95816270Y-78198347D01*
X95904902Y-77886840D01*
X95913997Y-77828253D01*
X95948990Y-77602820D01*
X95954581Y-77566802D01*
X95955364Y-77541396D01*
X95960529Y-77373754D01*
X97436041Y-77373754D01*
X97437008Y-77380066D01*
X97437008Y-77380068D01*
X97457321Y-77512670D01*
X97466083Y-77569864D01*
X97534988Y-77755911D01*
X97639933Y-77924280D01*
X97776622Y-78068077D01*
X97781861Y-78071724D01*
X97781864Y-78071726D01*
X97888953Y-78146262D01*
X97939459Y-78181415D01*
X98121778Y-78259654D01*
X98128036Y-78260940D01*
X98128039Y-78260941D01*
X98218946Y-78279622D01*
X98316114Y-78299591D01*
X98413551Y-78299591D01*
X98450126Y-78305016D01*
X98623453Y-78357594D01*
X98623459Y-78357595D01*
X98629379Y-78359391D01*
X98702493Y-78366592D01*
X98780625Y-78374288D01*
X98780632Y-78374288D01*
X98783705Y-78374591D01*
X98886921Y-78374591D01*
X98889994Y-78374288D01*
X98890001Y-78374288D01*
X98968133Y-78366592D01*
X99041247Y-78359391D01*
X99047167Y-78357595D01*
X99047173Y-78357594D01*
X99220499Y-78305016D01*
X99239267Y-78299323D01*
X99421763Y-78201776D01*
X99581723Y-78070501D01*
X99712998Y-77910541D01*
X99810545Y-77728045D01*
X99828464Y-77668972D01*
X99868816Y-77535951D01*
X99868817Y-77535945D01*
X99870613Y-77530025D01*
X99890896Y-77324091D01*
X99870613Y-77118157D01*
X99868817Y-77112237D01*
X99868816Y-77112231D01*
X99812340Y-76926055D01*
X99810545Y-76920137D01*
X99712998Y-76737641D01*
X99581723Y-76577681D01*
X99421763Y-76446406D01*
X99239267Y-76348859D01*
X99190189Y-76333972D01*
X99047173Y-76290588D01*
X99047167Y-76290587D01*
X99041247Y-76288791D01*
X98968133Y-76281590D01*
X98890001Y-76273894D01*
X98889994Y-76273894D01*
X98886921Y-76273591D01*
X98783705Y-76273591D01*
X98780632Y-76273894D01*
X98780625Y-76273894D01*
X98702493Y-76281590D01*
X98629379Y-76288791D01*
X98623459Y-76290587D01*
X98623453Y-76290588D01*
X98450126Y-76343166D01*
X98413551Y-76348591D01*
X98365840Y-76348591D01*
X98217934Y-76363632D01*
X98028635Y-76423024D01*
X97855167Y-76519307D01*
X97850322Y-76523466D01*
X97850321Y-76523467D01*
X97839380Y-76532860D01*
X97704631Y-76648538D01*
X97700722Y-76653588D01*
X97700721Y-76653589D01*
X97587101Y-76800373D01*
X97587099Y-76800377D01*
X97583191Y-76805425D01*
X97495818Y-76983547D01*
X97494217Y-76989729D01*
X97494217Y-76989730D01*
X97449479Y-77162520D01*
X97446089Y-77175611D01*
X97445766Y-77181985D01*
X97445765Y-77181990D01*
X97441398Y-77268114D01*
X97436041Y-77373754D01*
X95960529Y-77373754D01*
X95964435Y-77246959D01*
X95964435Y-77246953D01*
X95964554Y-77243085D01*
X95934671Y-76920596D01*
X95895803Y-76743116D01*
X95866215Y-76608013D01*
X95866214Y-76608010D01*
X95865385Y-76604224D01*
X95854650Y-76573759D01*
X95759035Y-76302424D01*
X95759033Y-76302420D01*
X95757745Y-76298764D01*
X95750387Y-76283986D01*
X95615111Y-76012316D01*
X95615110Y-76012314D01*
X95613383Y-76008846D01*
X95505817Y-75846512D01*
X95436632Y-75742100D01*
X95436626Y-75742092D01*
X95434489Y-75738867D01*
X95334292Y-75621917D01*
X95226299Y-75495867D01*
X95226295Y-75495863D01*
X95223772Y-75492918D01*
X95220908Y-75490307D01*
X95220903Y-75490302D01*
X95013924Y-75301616D01*
X94984429Y-75274728D01*
X94720087Y-75087604D01*
X94653788Y-75052002D01*
X94438160Y-74936212D01*
X94438153Y-74936209D01*
X94434753Y-74934383D01*
X94143788Y-74821663D01*
X94136375Y-74818791D01*
X94136373Y-74818790D01*
X94132753Y-74817388D01*
X93956471Y-74773051D01*
X93822435Y-74739339D01*
X93822428Y-74739338D01*
X93818664Y-74738391D01*
X93497248Y-74698591D01*
X93254426Y-74698591D01*
X93240989Y-74699420D01*
X93015925Y-74713301D01*
X93015918Y-74713302D01*
X93012057Y-74713540D01*
X92693701Y-74773051D01*
X92385071Y-74871233D01*
X92381549Y-74872853D01*
X92381550Y-74872853D01*
X92094368Y-75004977D01*
X92094360Y-75004981D01*
X92090846Y-75006598D01*
X92087545Y-75008642D01*
X92087543Y-75008643D01*
X91832274Y-75166699D01*
X91815485Y-75177094D01*
X91812454Y-75179533D01*
X91659992Y-75302219D01*
X91563164Y-75380136D01*
X91337707Y-75612647D01*
X91142531Y-75871101D01*
X91140590Y-75874463D01*
X91140588Y-75874466D01*
X91093240Y-75956475D01*
X90980596Y-76151581D01*
X90975300Y-76164093D01*
X90855869Y-76446259D01*
X90855866Y-76446267D01*
X90854356Y-76449835D01*
X90765724Y-76761342D01*
X90765129Y-76765176D01*
X90765128Y-76765180D01*
X90738376Y-76937521D01*
X90716045Y-77081380D01*
X90715925Y-77085261D01*
X90715925Y-77085266D01*
X90707038Y-77373754D01*
X90706072Y-77405097D01*
X90706429Y-77408949D01*
X90706429Y-77408950D01*
X90707596Y-77421548D01*
X90735955Y-77727586D01*
X90740846Y-77749919D01*
X90802597Y-78031883D01*
X90805241Y-78043958D01*
X90806531Y-78047618D01*
X90806531Y-78047619D01*
X90901795Y-78317957D01*
X90912881Y-78349418D01*
X90914606Y-78352882D01*
X90914608Y-78352887D01*
X90978199Y-78480594D01*
X90990658Y-78550489D01*
X90963351Y-78616024D01*
X90904948Y-78656392D01*
X90833991Y-78658777D01*
X90779706Y-78629122D01*
X90659883Y-78517943D01*
X90624794Y-78485385D01*
X90462738Y-78374897D01*
X90410925Y-78339571D01*
X90410923Y-78339570D01*
X90407029Y-78336915D01*
X90249268Y-78260941D01*
X90173816Y-78224605D01*
X90173814Y-78224604D01*
X90169567Y-78222559D01*
X89917713Y-78144873D01*
X89913063Y-78144172D01*
X89913058Y-78144171D01*
X89779820Y-78124089D01*
X89657094Y-78105591D01*
X89393532Y-78105591D01*
X89247791Y-78127558D01*
X89137576Y-78144170D01*
X89137574Y-78144170D01*
X89135945Y-78144416D01*
X89135944Y-78144416D01*
X89132913Y-78144873D01*
X89132815Y-78144225D01*
X89065517Y-78140106D01*
X89008247Y-78098145D01*
X88982755Y-78031883D01*
X88997133Y-77962357D01*
X89008697Y-77944479D01*
X89083521Y-77847814D01*
X89083523Y-77847811D01*
X89087435Y-77842757D01*
X89174808Y-77664635D01*
X89178504Y-77650360D01*
X89222937Y-77478752D01*
X89222938Y-77478748D01*
X89224537Y-77472571D01*
X89224860Y-77466197D01*
X89224861Y-77466192D01*
X89231754Y-77330254D01*
X89234585Y-77274428D01*
X89231364Y-77253398D01*
X89205510Y-77084630D01*
X89205510Y-77084629D01*
X89204543Y-77078318D01*
X89135638Y-76892271D01*
X89030693Y-76723902D01*
X88894004Y-76580105D01*
X88888765Y-76576458D01*
X88888762Y-76576456D01*
X88736414Y-76470419D01*
X88731167Y-76466767D01*
X88548848Y-76388528D01*
X88542590Y-76387242D01*
X88542587Y-76387241D01*
X88451680Y-76368559D01*
X88354512Y-76348591D01*
X88257075Y-76348591D01*
X88220500Y-76343166D01*
X88047173Y-76290588D01*
X88047167Y-76290587D01*
X88041247Y-76288791D01*
X87968133Y-76281590D01*
X87890001Y-76273894D01*
X87889994Y-76273894D01*
X87886921Y-76273591D01*
X87783705Y-76273591D01*
X87780632Y-76273894D01*
X87780625Y-76273894D01*
X87702493Y-76281590D01*
X87629379Y-76288791D01*
X87623459Y-76290587D01*
X87623453Y-76290588D01*
X87480437Y-76333972D01*
X87431359Y-76348859D01*
X87248863Y-76446406D01*
X87088903Y-76577681D01*
X86957628Y-76737641D01*
X86860081Y-76920137D01*
X86858286Y-76926055D01*
X86801810Y-77112231D01*
X86801809Y-77112237D01*
X86800013Y-77118157D01*
X86779730Y-77324091D01*
X86800013Y-77530025D01*
X86801809Y-77535945D01*
X86801810Y-77535951D01*
X86842162Y-77668972D01*
X86860081Y-77728045D01*
X86957628Y-77910541D01*
X87088903Y-78070501D01*
X87248863Y-78201776D01*
X87431359Y-78299323D01*
X87450127Y-78305016D01*
X87623453Y-78357594D01*
X87623459Y-78357595D01*
X87629379Y-78359391D01*
X87702493Y-78366592D01*
X87780625Y-78374288D01*
X87780632Y-78374288D01*
X87783705Y-78374591D01*
X87886921Y-78374591D01*
X87889994Y-78374288D01*
X87890001Y-78374288D01*
X87968133Y-78366592D01*
X88041247Y-78359391D01*
X88047167Y-78357595D01*
X88047173Y-78357594D01*
X88220500Y-78305016D01*
X88257075Y-78299591D01*
X88304786Y-78299591D01*
X88304786Y-78301214D01*
X88367677Y-78316249D01*
X88416841Y-78367468D01*
X88430510Y-78437137D01*
X88404343Y-78503135D01*
X88390744Y-78517942D01*
X88232627Y-78664653D01*
X88229694Y-78668331D01*
X88229692Y-78668333D01*
X88071233Y-78867034D01*
X88071230Y-78867038D01*
X88068298Y-78870715D01*
X88065945Y-78874791D01*
X88065942Y-78874795D01*
X88027572Y-78941254D01*
X87936517Y-79098967D01*
X87934793Y-79103360D01*
X87867481Y-79274868D01*
X87840226Y-79344311D01*
X87839176Y-79348910D01*
X87839176Y-79348911D01*
X87790865Y-79560578D01*
X87781578Y-79601265D01*
X87781226Y-79605965D01*
X87781225Y-79605970D01*
X87768412Y-79776949D01*
X87761882Y-79864091D01*
X87762234Y-79868788D01*
X87780157Y-80107950D01*
X87781578Y-80126917D01*
X87782628Y-80131516D01*
X87782628Y-80131518D01*
X87826063Y-80321820D01*
X87840226Y-80383871D01*
X87841950Y-80388262D01*
X87841950Y-80388264D01*
X87850139Y-80409128D01*
X87936517Y-80629215D01*
X87991974Y-80725270D01*
X88027668Y-80787093D01*
X88068298Y-80857467D01*
X88071230Y-80861144D01*
X88071233Y-80861148D01*
X88211760Y-81037363D01*
X88232627Y-81063529D01*
X88425832Y-81242797D01*
X88489915Y-81286488D01*
X88637535Y-81387133D01*
X88643598Y-81391267D01*
X88647847Y-81393313D01*
X88647850Y-81393315D01*
X88769268Y-81451787D01*
X88881059Y-81505623D01*
X88885561Y-81507012D01*
X88885567Y-81507014D01*
X89000914Y-81542593D01*
X89132913Y-81583309D01*
X89137563Y-81584010D01*
X89137568Y-81584011D01*
X89248890Y-81600790D01*
X89393532Y-81622591D01*
X89616544Y-81622591D01*
X89684665Y-81642593D01*
X89731158Y-81696249D01*
X89741262Y-81766523D01*
X89711768Y-81831103D01*
X89698375Y-81844402D01*
X89614333Y-81916181D01*
X89594415Y-81933193D01*
X89429985Y-82125715D01*
X89297697Y-82341589D01*
X89295804Y-82346159D01*
X89295802Y-82346163D01*
X89202702Y-82570927D01*
X89200808Y-82575500D01*
X89190295Y-82619289D01*
X89143067Y-82816011D01*
X89141704Y-82821688D01*
X89121839Y-83074091D01*
X89141704Y-83326494D01*
X89142858Y-83331301D01*
X89142859Y-83331307D01*
X89174165Y-83461707D01*
X89200808Y-83572682D01*
X89202701Y-83577253D01*
X89202702Y-83577255D01*
X89285211Y-83776448D01*
X89297697Y-83806593D01*
X89429985Y-84022467D01*
X89594415Y-84214989D01*
X89786937Y-84379419D01*
X90002811Y-84511707D01*
X90007381Y-84513600D01*
X90007385Y-84513602D01*
X90232149Y-84606702D01*
X90236722Y-84608596D01*
X90321345Y-84628912D01*
X90478097Y-84666545D01*
X90478103Y-84666546D01*
X90482910Y-84667700D01*
X90735313Y-84687565D01*
X90987716Y-84667700D01*
X90992523Y-84666546D01*
X90992529Y-84666545D01*
X91149281Y-84628912D01*
X91233904Y-84608596D01*
X91238477Y-84606702D01*
X91463241Y-84513602D01*
X91463245Y-84513600D01*
X91467815Y-84511707D01*
X91683689Y-84379419D01*
X91876211Y-84214989D01*
X91879419Y-84211233D01*
X91882101Y-84208551D01*
X91944413Y-84174525D01*
X92015228Y-84179590D01*
X92067007Y-84215815D01*
X92163035Y-84328248D01*
X92194415Y-84364989D01*
X92386937Y-84529419D01*
X92602811Y-84661707D01*
X92607381Y-84663600D01*
X92607385Y-84663602D01*
X92832149Y-84756702D01*
X92836722Y-84758596D01*
X92857370Y-84763553D01*
X93078097Y-84816545D01*
X93078103Y-84816546D01*
X93082910Y-84817700D01*
X93335313Y-84837565D01*
X93587716Y-84817700D01*
X93592523Y-84816546D01*
X93592529Y-84816545D01*
X93813256Y-84763553D01*
X93833904Y-84758596D01*
X93838477Y-84756702D01*
X93855133Y-84749803D01*
X93925723Y-84742215D01*
X93992444Y-84777118D01*
X94422898Y-85207572D01*
X94456924Y-85269884D01*
X94451859Y-85340699D01*
X94409312Y-85397535D01*
X94342792Y-85422346D01*
X94333803Y-85422667D01*
X85214173Y-85422669D01*
X85214173Y-85418810D01*
X85214153Y-85418813D01*
X85214154Y-85422661D01*
X85174292Y-85422669D01*
X85151720Y-85422669D01*
X85151693Y-85422675D01*
X85151690Y-85422675D01*
X85147047Y-85422676D01*
X85092651Y-85425146D01*
X85057840Y-85428308D01*
X85039820Y-85429944D01*
X85039811Y-85429945D01*
X85038424Y-85430071D01*
X85037028Y-85430262D01*
X85037016Y-85430263D01*
X85033796Y-85430703D01*
X85033541Y-85428833D01*
X85033505Y-85428841D01*
X85033760Y-85430700D01*
X85033758Y-85430700D01*
X85011166Y-85433795D01*
X85011118Y-85433787D01*
X85011120Y-85433801D01*
X84971934Y-85439154D01*
X84971316Y-85434629D01*
X84971279Y-85434631D01*
X84971901Y-85439173D01*
X81947584Y-85853443D01*
X81876354Y-85863200D01*
X81876332Y-85863200D01*
X81876332Y-85863201D01*
X81849318Y-85866898D01*
X81821970Y-85871919D01*
X81797071Y-85876490D01*
X81797056Y-85876493D01*
X81795684Y-85876745D01*
X81794312Y-85877062D01*
X81794303Y-85877064D01*
X81743954Y-85888702D01*
X81743938Y-85888706D01*
X81742554Y-85889026D01*
X81716794Y-85896231D01*
X81716739Y-85896246D01*
X77902438Y-86961220D01*
X77591305Y-87048090D01*
X77591009Y-87048250D01*
X77590576Y-87048398D01*
X77516232Y-87069222D01*
X77511494Y-87071449D01*
X77511489Y-87071451D01*
X77338917Y-87152569D01*
X77338913Y-87152571D01*
X77334146Y-87154812D01*
X77306848Y-87173755D01*
X77173172Y-87266516D01*
X77173166Y-87266521D01*
X77168847Y-87269518D01*
X77024947Y-87410137D01*
X76906461Y-87572748D01*
X76816695Y-87752813D01*
X76815163Y-87757851D01*
X76767891Y-87913295D01*
X76758155Y-87945308D01*
X76751533Y-87996760D01*
X76733227Y-88138997D01*
X76732472Y-88144861D01*
X76740364Y-88345905D01*
X76741444Y-88351063D01*
X76741445Y-88351068D01*
X76774232Y-88507599D01*
X76781611Y-88542831D01*
X76783533Y-88547733D01*
X76783535Y-88547739D01*
X76808658Y-88611806D01*
X76855062Y-88730144D01*
X76883532Y-88777539D01*
X76935240Y-88863619D01*
X76958666Y-88902618D01*
X76962073Y-88906604D01*
X77009287Y-88961844D01*
X77006613Y-88964129D01*
X77006684Y-88964185D01*
X77009328Y-88961921D01*
X81168320Y-93819252D01*
X81168325Y-93819267D01*
X81168353Y-93819300D01*
X81168356Y-93819304D01*
X81194235Y-93849518D01*
X81194261Y-93849564D01*
X81194268Y-93849558D01*
X81262278Y-93929024D01*
X81266509Y-93932508D01*
X81266514Y-93932512D01*
X81350035Y-94001270D01*
X81423781Y-94061981D01*
X81428544Y-94064676D01*
X81428545Y-94064677D01*
X81601079Y-94162311D01*
X81601082Y-94162312D01*
X81605842Y-94165006D01*
X81610997Y-94166836D01*
X81611001Y-94166838D01*
X81633574Y-94174852D01*
X81802976Y-94234996D01*
X82009244Y-94269843D01*
X82014723Y-94269808D01*
X82014727Y-94269808D01*
X82113837Y-94269169D01*
X82218430Y-94268495D01*
X82223817Y-94267513D01*
X82223821Y-94267513D01*
X82352883Y-94243994D01*
X82424231Y-94230993D01*
X82555480Y-94182481D01*
X82615305Y-94160369D01*
X82615309Y-94160367D01*
X82620447Y-94158468D01*
X82801165Y-94053104D01*
X82842597Y-94018090D01*
X85397621Y-94018090D01*
X85418259Y-94174852D01*
X85478767Y-94320931D01*
X85575021Y-94446372D01*
X85700462Y-94542626D01*
X85846541Y-94603134D01*
X85854729Y-94604212D01*
X85940251Y-94615471D01*
X85963942Y-94618590D01*
X86642664Y-94618590D01*
X86666356Y-94615471D01*
X86751877Y-94604212D01*
X86760065Y-94603134D01*
X86906144Y-94542626D01*
X87031585Y-94446372D01*
X87127839Y-94320931D01*
X87188347Y-94174852D01*
X87208985Y-94018090D01*
X87188347Y-93861328D01*
X87127839Y-93715249D01*
X87031585Y-93589808D01*
X86906144Y-93493554D01*
X86760065Y-93433046D01*
X86642664Y-93417590D01*
X85963942Y-93417590D01*
X85846541Y-93433046D01*
X85700462Y-93493554D01*
X85575021Y-93589808D01*
X85478767Y-93715249D01*
X85418259Y-93861328D01*
X85397621Y-94018090D01*
X82842597Y-94018090D01*
X82960941Y-93918077D01*
X82964450Y-93913872D01*
X83091447Y-93761666D01*
X83091450Y-93761662D01*
X83094960Y-93757455D01*
X83100751Y-93747378D01*
X83196455Y-93580826D01*
X83199184Y-93576077D01*
X83270472Y-93379409D01*
X83286121Y-93290356D01*
X83305727Y-93178789D01*
X83305727Y-93178785D01*
X83306678Y-93173375D01*
X83306655Y-93068780D01*
X83306661Y-93028898D01*
X83311285Y-93028899D01*
X83311286Y-93028883D01*
X83306655Y-93028883D01*
X83306647Y-91829363D01*
X83307254Y-91817010D01*
X83320796Y-91679549D01*
X83325615Y-91655324D01*
X83363910Y-91529092D01*
X83373362Y-91506274D01*
X83435545Y-91389937D01*
X83449267Y-91369401D01*
X83532944Y-91267438D01*
X83550409Y-91249972D01*
X83652383Y-91166281D01*
X83672918Y-91152559D01*
X83789247Y-91090374D01*
X83812065Y-91080922D01*
X83938295Y-91042623D01*
X83962519Y-91037803D01*
X84099823Y-91024271D01*
X84112181Y-91023663D01*
X99621339Y-91023669D01*
X99621304Y-91023669D01*
X99621304Y-91027528D01*
X99621316Y-91027526D01*
X99621316Y-91023674D01*
X99660273Y-91023669D01*
X99662130Y-91023683D01*
X99671015Y-91023815D01*
X99683239Y-91023997D01*
X99687020Y-91024110D01*
X99707157Y-91025015D01*
X99710928Y-91025241D01*
X99731678Y-91026798D01*
X99733485Y-91026947D01*
X99737331Y-91027293D01*
X99772645Y-91030477D01*
X99772648Y-91030476D01*
X105366081Y-91534594D01*
X105366087Y-91534596D01*
X105366087Y-91534594D01*
X105376177Y-91535504D01*
X105378047Y-91535687D01*
X105394461Y-91537414D01*
X105399158Y-91537909D01*
X105402886Y-91538358D01*
X105422902Y-91541075D01*
X105426561Y-91541627D01*
X105447807Y-91545161D01*
X105449631Y-91545479D01*
X105451116Y-91545749D01*
X105451129Y-91545751D01*
X105487624Y-91552385D01*
X105486833Y-91556734D01*
X105486838Y-91556736D01*
X105487629Y-91552384D01*
X120713507Y-94319392D01*
X120713427Y-94319834D01*
X120713439Y-94319838D01*
X120713519Y-94319399D01*
X120746656Y-94325418D01*
X120758697Y-94328221D01*
X120891547Y-94366112D01*
X120914523Y-94375183D01*
X121031883Y-94435422D01*
X121052645Y-94448801D01*
X121128097Y-94508650D01*
X121155996Y-94530780D01*
X121173745Y-94547948D01*
X121259120Y-94648525D01*
X121273178Y-94668826D01*
X121337288Y-94784126D01*
X121347115Y-94806784D01*
X121387492Y-94932365D01*
X121392712Y-94956509D01*
X121407812Y-95087559D01*
X121408220Y-95112259D01*
X121396991Y-95249467D01*
X121395379Y-95261727D01*
X121389270Y-95295330D01*
X121384365Y-95294438D01*
X121384363Y-95294446D01*
X121389272Y-95295338D01*
X120698646Y-99095622D01*
X120698646Y-99095623D01*
X119501495Y-105683115D01*
X119491731Y-105736841D01*
X119491730Y-105736842D01*
X118793026Y-109581586D01*
X118792194Y-109581435D01*
X118792193Y-109581439D01*
X118793024Y-109581590D01*
X118787002Y-109614729D01*
X118784197Y-109626769D01*
X118746298Y-109759610D01*
X118737229Y-109782578D01*
X118676983Y-109899933D01*
X118663603Y-109920695D01*
X118581618Y-110024044D01*
X118564449Y-110041791D01*
X118463881Y-110127154D01*
X118443573Y-110141216D01*
X118328282Y-110205318D01*
X118305620Y-110215147D01*
X118180045Y-110255522D01*
X118155903Y-110260742D01*
X118099199Y-110267277D01*
X118024850Y-110275844D01*
X118000159Y-110276252D01*
X117862483Y-110264987D01*
X117850224Y-110263375D01*
X117849526Y-110263248D01*
X117842613Y-110261991D01*
X117842613Y-110261992D01*
X117817088Y-110257352D01*
X117817086Y-110257352D01*
X117817080Y-110257351D01*
X117817077Y-110257352D01*
X102591207Y-107490331D01*
X102591202Y-107490328D01*
X102551962Y-107483199D01*
X102551962Y-107483197D01*
X102551956Y-107483198D01*
X102529748Y-107479162D01*
X102529747Y-107479162D01*
X102530099Y-107477227D01*
X102529347Y-107476950D01*
X102529008Y-107479195D01*
X102498692Y-107474621D01*
X102468249Y-107470956D01*
X102468483Y-107469015D01*
X102467717Y-107469056D01*
X102467566Y-107470734D01*
X99808638Y-107231081D01*
X99807228Y-107230954D01*
X99807221Y-107230953D01*
X99746429Y-107225474D01*
X99746606Y-107223505D01*
X99745848Y-107223301D01*
X99745712Y-107225571D01*
X99716034Y-107223792D01*
X99716023Y-107223792D01*
X99715097Y-107223736D01*
X99684449Y-107222819D01*
X99684507Y-107220871D01*
X99683753Y-107220980D01*
X99683753Y-107222660D01*
X99661011Y-107222660D01*
X84112354Y-107222665D01*
X84099999Y-107222058D01*
X84066956Y-107218802D01*
X83962526Y-107208512D01*
X83938310Y-107203694D01*
X83812075Y-107165397D01*
X83789263Y-107155947D01*
X83672924Y-107093760D01*
X83652389Y-107080039D01*
X83550417Y-106996353D01*
X83532953Y-106978889D01*
X83476019Y-106909517D01*
X83449264Y-106876917D01*
X83435550Y-106856394D01*
X83373355Y-106740044D01*
X83363907Y-106717235D01*
X83347176Y-106662087D01*
X83325609Y-106591002D01*
X83320789Y-106566779D01*
X83317496Y-106533358D01*
X83307251Y-106429404D01*
X83306644Y-106417047D01*
X83306645Y-105955646D01*
X83306648Y-102721701D01*
X83306657Y-102721612D01*
X83306651Y-102721612D01*
X83306702Y-102636457D01*
X83282663Y-102467853D01*
X83235066Y-102304331D01*
X83188599Y-102201626D01*
X83166702Y-102153226D01*
X83166701Y-102153223D01*
X83164864Y-102149164D01*
X83073462Y-102005460D01*
X83018039Y-101940810D01*
X80643942Y-99168090D01*
X84747720Y-99168090D01*
X84768003Y-99374024D01*
X84769799Y-99379944D01*
X84769800Y-99379950D01*
X84780402Y-99414899D01*
X84828071Y-99572044D01*
X84925618Y-99754540D01*
X85056893Y-99914500D01*
X85216853Y-100045775D01*
X85399349Y-100143322D01*
X85405583Y-100145213D01*
X85591443Y-100201593D01*
X85591449Y-100201594D01*
X85597369Y-100203390D01*
X85670483Y-100210591D01*
X85748615Y-100218287D01*
X85748622Y-100218287D01*
X85751695Y-100218590D01*
X85854911Y-100218590D01*
X85857984Y-100218287D01*
X85857991Y-100218287D01*
X85936123Y-100210591D01*
X86009237Y-100203390D01*
X86015157Y-100201594D01*
X86015163Y-100201593D01*
X86188490Y-100149015D01*
X86225065Y-100143590D01*
X86272776Y-100143590D01*
X86272776Y-100145213D01*
X86335667Y-100160248D01*
X86384831Y-100211467D01*
X86398500Y-100281136D01*
X86372333Y-100347134D01*
X86358734Y-100361941D01*
X86200617Y-100508652D01*
X86197684Y-100512330D01*
X86197682Y-100512332D01*
X86039223Y-100711033D01*
X86039220Y-100711037D01*
X86036288Y-100714714D01*
X85904507Y-100942966D01*
X85808216Y-101188310D01*
X85807166Y-101192909D01*
X85807166Y-101192910D01*
X85758855Y-101404577D01*
X85749568Y-101445264D01*
X85749216Y-101449964D01*
X85749215Y-101449969D01*
X85733462Y-101660180D01*
X85729872Y-101708090D01*
X85730541Y-101717023D01*
X85747308Y-101940753D01*
X85749568Y-101970916D01*
X85750618Y-101975515D01*
X85750618Y-101975517D01*
X85795638Y-102172763D01*
X85808216Y-102227870D01*
X85904507Y-102473214D01*
X85938509Y-102532107D01*
X86001341Y-102640935D01*
X86036288Y-102701466D01*
X86039220Y-102705143D01*
X86039223Y-102705147D01*
X86197682Y-102903848D01*
X86200617Y-102907528D01*
X86393822Y-103086796D01*
X86611588Y-103235266D01*
X86615837Y-103237312D01*
X86615840Y-103237314D01*
X86737609Y-103295955D01*
X86849049Y-103349622D01*
X86853551Y-103351011D01*
X86853557Y-103351013D01*
X86968923Y-103386598D01*
X87100903Y-103427308D01*
X87105553Y-103428009D01*
X87105558Y-103428010D01*
X87216880Y-103444789D01*
X87361522Y-103466590D01*
X87584534Y-103466590D01*
X87652655Y-103486592D01*
X87699148Y-103540248D01*
X87709252Y-103610522D01*
X87679758Y-103675102D01*
X87666365Y-103688401D01*
X87640011Y-103710910D01*
X87562405Y-103777192D01*
X87397975Y-103969714D01*
X87265687Y-104185588D01*
X87263794Y-104190158D01*
X87263792Y-104190162D01*
X87179210Y-104394362D01*
X87168798Y-104419499D01*
X87165913Y-104431518D01*
X87111294Y-104659024D01*
X87109694Y-104665687D01*
X87089829Y-104918090D01*
X87109694Y-105170493D01*
X87110848Y-105175300D01*
X87110849Y-105175306D01*
X87131104Y-105259673D01*
X87168798Y-105416681D01*
X87170691Y-105421252D01*
X87170692Y-105421254D01*
X87260972Y-105639208D01*
X87265687Y-105650592D01*
X87397975Y-105866466D01*
X87562405Y-106058988D01*
X87754927Y-106223418D01*
X87970801Y-106355706D01*
X87975371Y-106357599D01*
X87975375Y-106357601D01*
X88200139Y-106450701D01*
X88204712Y-106452595D01*
X88257487Y-106465265D01*
X88446087Y-106510544D01*
X88446093Y-106510545D01*
X88450900Y-106511699D01*
X88703303Y-106531564D01*
X88955706Y-106511699D01*
X88960513Y-106510545D01*
X88960519Y-106510544D01*
X89149119Y-106465265D01*
X89201894Y-106452595D01*
X89206467Y-106450701D01*
X89431231Y-106357601D01*
X89431235Y-106357599D01*
X89435805Y-106355706D01*
X89651679Y-106223418D01*
X89844201Y-106058988D01*
X89847409Y-106055232D01*
X89850091Y-106052550D01*
X89912403Y-106018524D01*
X89983218Y-106023589D01*
X90034997Y-106059814D01*
X90157392Y-106203119D01*
X90162405Y-106208988D01*
X90166161Y-106212196D01*
X90179300Y-106223418D01*
X90354927Y-106373418D01*
X90570801Y-106505706D01*
X90575371Y-106507599D01*
X90575375Y-106507601D01*
X90718244Y-106566779D01*
X90804712Y-106602595D01*
X90889335Y-106622911D01*
X91046087Y-106660544D01*
X91046093Y-106660545D01*
X91050900Y-106661699D01*
X91303303Y-106681564D01*
X91555706Y-106661699D01*
X91560513Y-106660545D01*
X91560519Y-106660544D01*
X91717271Y-106622911D01*
X91801894Y-106602595D01*
X91888362Y-106566779D01*
X92031231Y-106507601D01*
X92031235Y-106507599D01*
X92035805Y-106505706D01*
X92251679Y-106373418D01*
X92427306Y-106223418D01*
X92440445Y-106212196D01*
X92444201Y-106208988D01*
X92608631Y-106016466D01*
X92740919Y-105800592D01*
X92747896Y-105783750D01*
X92797297Y-105664484D01*
X92841845Y-105609203D01*
X92909209Y-105586782D01*
X92979541Y-105605270D01*
X93106571Y-105683115D01*
X93106581Y-105683120D01*
X93110801Y-105685706D01*
X93115371Y-105687599D01*
X93115375Y-105687601D01*
X93234254Y-105736842D01*
X93344712Y-105782595D01*
X93419676Y-105800592D01*
X93586087Y-105840544D01*
X93586093Y-105840545D01*
X93590900Y-105841699D01*
X93843303Y-105861564D01*
X94095706Y-105841699D01*
X94100513Y-105840545D01*
X94100519Y-105840544D01*
X94266930Y-105800592D01*
X94341894Y-105782595D01*
X94452352Y-105736842D01*
X94571231Y-105687601D01*
X94571235Y-105687599D01*
X94575805Y-105685706D01*
X94791679Y-105553418D01*
X94984201Y-105388988D01*
X94985192Y-105390148D01*
X95041558Y-105359369D01*
X95116559Y-105366081D01*
X95186084Y-105394879D01*
X95204712Y-105402595D01*
X95263385Y-105416681D01*
X95446087Y-105460544D01*
X95446093Y-105460545D01*
X95450900Y-105461699D01*
X95703303Y-105481564D01*
X95955706Y-105461699D01*
X95960513Y-105460545D01*
X95960519Y-105460544D01*
X96143221Y-105416681D01*
X96201894Y-105402595D01*
X96206467Y-105400701D01*
X96233050Y-105389690D01*
X99846969Y-105389690D01*
X99847399Y-105394879D01*
X99864833Y-105605270D01*
X99865561Y-105614058D01*
X99866842Y-105619116D01*
X99866842Y-105619117D01*
X99913867Y-105804812D01*
X99920829Y-105832306D01*
X99935001Y-105864616D01*
X100007988Y-106031009D01*
X100011265Y-106038481D01*
X100014115Y-106042843D01*
X100014117Y-106042847D01*
X100055371Y-106105991D01*
X100134403Y-106226958D01*
X100137928Y-106230787D01*
X100137931Y-106230791D01*
X100234166Y-106335328D01*
X100286885Y-106392596D01*
X100291004Y-106395802D01*
X100439907Y-106511699D01*
X100464549Y-106530879D01*
X100662551Y-106638032D01*
X100875490Y-106711134D01*
X100880624Y-106711991D01*
X100880629Y-106711992D01*
X101092419Y-106747333D01*
X101092421Y-106747333D01*
X101097556Y-106748190D01*
X101322694Y-106748190D01*
X101327829Y-106747333D01*
X101327831Y-106747333D01*
X101539621Y-106711992D01*
X101539626Y-106711991D01*
X101544760Y-106711134D01*
X101757699Y-106638032D01*
X101955701Y-106530879D01*
X101980344Y-106511699D01*
X102129246Y-106395802D01*
X102133365Y-106392596D01*
X102186084Y-106335328D01*
X102282319Y-106230791D01*
X102282322Y-106230787D01*
X102285847Y-106226958D01*
X102363551Y-106108023D01*
X102417555Y-106061934D01*
X102445491Y-106053157D01*
X102558198Y-106031720D01*
X102558199Y-106031720D01*
X102561936Y-106031009D01*
X102812424Y-105951107D01*
X103051455Y-105841594D01*
X103054689Y-105839609D01*
X103054697Y-105839605D01*
X103272300Y-105706059D01*
X103272301Y-105706058D01*
X103275544Y-105704068D01*
X103301916Y-105683120D01*
X103478442Y-105542902D01*
X103478449Y-105542896D01*
X103481421Y-105540535D01*
X103524754Y-105496618D01*
X103663413Y-105356088D01*
X103666087Y-105353378D01*
X103826846Y-105145327D01*
X103961356Y-104919415D01*
X104067655Y-104678938D01*
X104069297Y-104673544D01*
X104143083Y-104431048D01*
X104144193Y-104427401D01*
X104155035Y-104365924D01*
X104160366Y-104335694D01*
X104160374Y-104335652D01*
X104166751Y-104299490D01*
X104488576Y-102474320D01*
X104756886Y-100952653D01*
X104758109Y-100946591D01*
X104830503Y-100628275D01*
X104832996Y-100617315D01*
X104836326Y-100605409D01*
X104840332Y-100593395D01*
X104923489Y-100343963D01*
X104942138Y-100288027D01*
X104946615Y-100276514D01*
X105083034Y-99971014D01*
X105088615Y-99960001D01*
X105254318Y-99669350D01*
X105260962Y-99658922D01*
X105454347Y-99385924D01*
X105461981Y-99376197D01*
X105681196Y-99123465D01*
X105689738Y-99114542D01*
X105932687Y-98884497D01*
X105942060Y-98876457D01*
X106206365Y-98671352D01*
X106216493Y-98664260D01*
X106499632Y-98486045D01*
X106510408Y-98479979D01*
X106609958Y-98430210D01*
X106809669Y-98330367D01*
X106820955Y-98325401D01*
X107133446Y-98205839D01*
X107145186Y-98201997D01*
X107391387Y-98134587D01*
X107467871Y-98113646D01*
X107479942Y-98110970D01*
X107559887Y-98097323D01*
X107809735Y-98054673D01*
X107821993Y-98053195D01*
X108019337Y-98039180D01*
X108155714Y-98029495D01*
X108168076Y-98029225D01*
X108407514Y-98035757D01*
X108502509Y-98038348D01*
X108514834Y-98039291D01*
X108596598Y-98049602D01*
X108850780Y-98081658D01*
X108856895Y-98082582D01*
X110828383Y-98430210D01*
X110891995Y-98461738D01*
X110928465Y-98522651D01*
X110926212Y-98593612D01*
X110885953Y-98652091D01*
X110859168Y-98668761D01*
X110836051Y-98679397D01*
X110832750Y-98681441D01*
X110832748Y-98681442D01*
X110596782Y-98827546D01*
X110560690Y-98849893D01*
X110557659Y-98852332D01*
X110332838Y-99033245D01*
X110308369Y-99052935D01*
X110082912Y-99285446D01*
X110080577Y-99288538D01*
X110075384Y-99295415D01*
X109887736Y-99543900D01*
X109885795Y-99547262D01*
X109885793Y-99547265D01*
X109858858Y-99593918D01*
X109725801Y-99824380D01*
X109717648Y-99843643D01*
X109601074Y-100119058D01*
X109601071Y-100119066D01*
X109599561Y-100122634D01*
X109510929Y-100434141D01*
X109510334Y-100437975D01*
X109510333Y-100437979D01*
X109494253Y-100541569D01*
X109461250Y-100754179D01*
X109461130Y-100758060D01*
X109461130Y-100758065D01*
X109451479Y-101071354D01*
X109451277Y-101077896D01*
X109481160Y-101400385D01*
X109539810Y-101668190D01*
X109550446Y-101716757D01*
X109549229Y-101717023D01*
X109548670Y-101782758D01*
X109509780Y-101842156D01*
X109444950Y-101871098D01*
X109374765Y-101860397D01*
X109329569Y-101824793D01*
X109304529Y-101793393D01*
X109232756Y-101703393D01*
X109182955Y-101640944D01*
X109182953Y-101640942D01*
X109180020Y-101637264D01*
X108986815Y-101457996D01*
X108780212Y-101317136D01*
X108772946Y-101312182D01*
X108772944Y-101312181D01*
X108769050Y-101309526D01*
X108615780Y-101235715D01*
X108535837Y-101197216D01*
X108535835Y-101197215D01*
X108531588Y-101195170D01*
X108279734Y-101117484D01*
X108275084Y-101116783D01*
X108275079Y-101116782D01*
X108163757Y-101100003D01*
X108019115Y-101078202D01*
X107793233Y-101078202D01*
X107725112Y-101058200D01*
X107678619Y-101004544D01*
X107668515Y-100934270D01*
X107698009Y-100869690D01*
X107711160Y-100856599D01*
X107737452Y-100834027D01*
X107788377Y-100790310D01*
X107792287Y-100785259D01*
X107905907Y-100638475D01*
X107905909Y-100638471D01*
X107909817Y-100633423D01*
X107997190Y-100455301D01*
X107998791Y-100449118D01*
X108045319Y-100269418D01*
X108045320Y-100269414D01*
X108046919Y-100263237D01*
X108047242Y-100256863D01*
X108047243Y-100256858D01*
X108054946Y-100104940D01*
X108056967Y-100065094D01*
X108053407Y-100041851D01*
X108027892Y-99875296D01*
X108027892Y-99875295D01*
X108026925Y-99868984D01*
X107958020Y-99682937D01*
X107853075Y-99514568D01*
X107716386Y-99370771D01*
X107711147Y-99367124D01*
X107711144Y-99367122D01*
X107558796Y-99261085D01*
X107553549Y-99257433D01*
X107371230Y-99179194D01*
X107364975Y-99177909D01*
X107364973Y-99177908D01*
X107305649Y-99165717D01*
X107238793Y-99151978D01*
X107204765Y-99139681D01*
X107079522Y-99072736D01*
X107073483Y-99069508D01*
X107073481Y-99069507D01*
X107068029Y-99066593D01*
X106979475Y-99039731D01*
X106875935Y-99008322D01*
X106875929Y-99008321D01*
X106870009Y-99006525D01*
X106796895Y-98999324D01*
X106718763Y-98991628D01*
X106718756Y-98991628D01*
X106715683Y-98991325D01*
X106612467Y-98991325D01*
X106609394Y-98991628D01*
X106609387Y-98991628D01*
X106531255Y-98999324D01*
X106458141Y-99006525D01*
X106452221Y-99008321D01*
X106452215Y-99008322D01*
X106309199Y-99051706D01*
X106260121Y-99066593D01*
X106077625Y-99164140D01*
X105917665Y-99295415D01*
X105786390Y-99455375D01*
X105688843Y-99637871D01*
X105676545Y-99678412D01*
X105630572Y-99829965D01*
X105630571Y-99829971D01*
X105628775Y-99835891D01*
X105608492Y-100041825D01*
X105628775Y-100247759D01*
X105630571Y-100253679D01*
X105630572Y-100253685D01*
X105673284Y-100394488D01*
X105688843Y-100445779D01*
X105786390Y-100628275D01*
X105917665Y-100788235D01*
X106077625Y-100919510D01*
X106260121Y-101017057D01*
X106286659Y-101025107D01*
X106452215Y-101075328D01*
X106452221Y-101075329D01*
X106458141Y-101077125D01*
X106531255Y-101084326D01*
X106609387Y-101092022D01*
X106609394Y-101092022D01*
X106612467Y-101092325D01*
X106715683Y-101092325D01*
X106718756Y-101092022D01*
X106718763Y-101092022D01*
X106823061Y-101081749D01*
X106870009Y-101077125D01*
X106870025Y-101077287D01*
X106916088Y-101077432D01*
X106954983Y-101085425D01*
X107017681Y-101118730D01*
X107052421Y-101180646D01*
X107048172Y-101251515D01*
X107000595Y-101312951D01*
X106787853Y-101457996D01*
X106594648Y-101637264D01*
X106591715Y-101640942D01*
X106591713Y-101640944D01*
X106433254Y-101839645D01*
X106433251Y-101839649D01*
X106430319Y-101843326D01*
X106427966Y-101847402D01*
X106427963Y-101847406D01*
X106377391Y-101935000D01*
X106298538Y-102071578D01*
X106296814Y-102075971D01*
X106206985Y-102304851D01*
X106202247Y-102316922D01*
X106201197Y-102321521D01*
X106201197Y-102321522D01*
X106165642Y-102477301D01*
X106143599Y-102573876D01*
X106143247Y-102578576D01*
X106143246Y-102578581D01*
X106125749Y-102812067D01*
X106123903Y-102836702D01*
X106124255Y-102841399D01*
X106142645Y-103086796D01*
X106143599Y-103099528D01*
X106144649Y-103104127D01*
X106144649Y-103104129D01*
X106187371Y-103291308D01*
X106202247Y-103356482D01*
X106203971Y-103360873D01*
X106203971Y-103360875D01*
X106214067Y-103386598D01*
X106298538Y-103601826D01*
X106352920Y-103696018D01*
X106413525Y-103800989D01*
X106430319Y-103830078D01*
X106433251Y-103833755D01*
X106433254Y-103833759D01*
X106591713Y-104032460D01*
X106594648Y-104036140D01*
X106787853Y-104215408D01*
X106791752Y-104218066D01*
X106964281Y-104335694D01*
X107005619Y-104363878D01*
X107009868Y-104365924D01*
X107009871Y-104365926D01*
X107137525Y-104427401D01*
X107243080Y-104478234D01*
X107247582Y-104479623D01*
X107247588Y-104479625D01*
X107391466Y-104524005D01*
X107494934Y-104555920D01*
X107612426Y-104573629D01*
X107670278Y-104582349D01*
X107734656Y-104612281D01*
X107772633Y-104672267D01*
X107772150Y-104743262D01*
X107733361Y-104802725D01*
X107717337Y-104814372D01*
X107573165Y-104902721D01*
X107380643Y-105067151D01*
X107216213Y-105259673D01*
X107083925Y-105475547D01*
X107082032Y-105480117D01*
X107082030Y-105480121D01*
X106988930Y-105704885D01*
X106987036Y-105709458D01*
X106985881Y-105714270D01*
X106948440Y-105870225D01*
X106927932Y-105955646D01*
X106908067Y-106208049D01*
X106927932Y-106460452D01*
X106929086Y-106465259D01*
X106929087Y-106465265D01*
X106966720Y-106622017D01*
X106987036Y-106706640D01*
X106988929Y-106711211D01*
X106988930Y-106711213D01*
X107073470Y-106915310D01*
X107083925Y-106940551D01*
X107216213Y-107156425D01*
X107380643Y-107348947D01*
X107573165Y-107513377D01*
X107789039Y-107645665D01*
X107793609Y-107647558D01*
X107793613Y-107647560D01*
X107914054Y-107697448D01*
X108022950Y-107742554D01*
X108107573Y-107762870D01*
X108264325Y-107800503D01*
X108264331Y-107800504D01*
X108269138Y-107801658D01*
X108521541Y-107821523D01*
X108773944Y-107801658D01*
X108778751Y-107800504D01*
X108778757Y-107800503D01*
X108935509Y-107762870D01*
X109020132Y-107742554D01*
X109129028Y-107697448D01*
X109249469Y-107647560D01*
X109249473Y-107647558D01*
X109254043Y-107645665D01*
X109458662Y-107520274D01*
X109527196Y-107501736D01*
X109594872Y-107523192D01*
X109631929Y-107561871D01*
X109750666Y-107755632D01*
X109915096Y-107948154D01*
X110107618Y-108112584D01*
X110323492Y-108244872D01*
X110328062Y-108246765D01*
X110328066Y-108246767D01*
X110552830Y-108339867D01*
X110557403Y-108341761D01*
X110642026Y-108362077D01*
X110798778Y-108399710D01*
X110798784Y-108399711D01*
X110803591Y-108400865D01*
X111055994Y-108420730D01*
X111308397Y-108400865D01*
X111313204Y-108399711D01*
X111313210Y-108399710D01*
X111469962Y-108362077D01*
X111554585Y-108341761D01*
X111559158Y-108339867D01*
X111783922Y-108246767D01*
X111783926Y-108246765D01*
X111788496Y-108244872D01*
X112004370Y-108112584D01*
X112196892Y-107948154D01*
X112361322Y-107755632D01*
X112422096Y-107656458D01*
X112474743Y-107608828D01*
X112544784Y-107597221D01*
X112611358Y-107626483D01*
X112611832Y-107626887D01*
X112747662Y-107742898D01*
X112747666Y-107742901D01*
X112751421Y-107746108D01*
X112873854Y-107821135D01*
X112959820Y-107873815D01*
X112967295Y-107878396D01*
X112971865Y-107880289D01*
X112971869Y-107880291D01*
X113196633Y-107973391D01*
X113201206Y-107975285D01*
X113285829Y-107995601D01*
X113442581Y-108033234D01*
X113442587Y-108033235D01*
X113447394Y-108034389D01*
X113699797Y-108054254D01*
X113952200Y-108034389D01*
X113957007Y-108033235D01*
X113957013Y-108033234D01*
X114113765Y-107995601D01*
X114198388Y-107975285D01*
X114202961Y-107973391D01*
X114427725Y-107880291D01*
X114427729Y-107880289D01*
X114432299Y-107878396D01*
X114436519Y-107875810D01*
X114436529Y-107875805D01*
X114624636Y-107760532D01*
X114693169Y-107741993D01*
X114756306Y-107760532D01*
X114860794Y-107824563D01*
X114860804Y-107824568D01*
X114865024Y-107827154D01*
X114869594Y-107829047D01*
X114869598Y-107829049D01*
X114988733Y-107878396D01*
X115098935Y-107924043D01*
X115183558Y-107944359D01*
X115340310Y-107981992D01*
X115340316Y-107981993D01*
X115345123Y-107983147D01*
X115597526Y-108003012D01*
X115849929Y-107983147D01*
X115854736Y-107981993D01*
X115854742Y-107981992D01*
X116011494Y-107944359D01*
X116096117Y-107924043D01*
X116206319Y-107878396D01*
X116325454Y-107829049D01*
X116325458Y-107829047D01*
X116330028Y-107827154D01*
X116545902Y-107694866D01*
X116738424Y-107530436D01*
X116902854Y-107337914D01*
X117035142Y-107122040D01*
X117037035Y-107117470D01*
X117037039Y-107117462D01*
X117047926Y-107091177D01*
X117092474Y-107035896D01*
X117098500Y-107031961D01*
X117185105Y-106978889D01*
X117293070Y-106912728D01*
X117485592Y-106748298D01*
X117650022Y-106555776D01*
X117782310Y-106339902D01*
X117827506Y-106230791D01*
X117877305Y-106110564D01*
X117877306Y-106110562D01*
X117879199Y-106105991D01*
X117914109Y-105960580D01*
X117937148Y-105864616D01*
X117937149Y-105864610D01*
X117938303Y-105859803D01*
X117958168Y-105607400D01*
X117938303Y-105354997D01*
X117926925Y-105307601D01*
X117891552Y-105160263D01*
X117879199Y-105108809D01*
X117869010Y-105084210D01*
X117784205Y-104879472D01*
X117784203Y-104879468D01*
X117782310Y-104874898D01*
X117650022Y-104659024D01*
X117485592Y-104466502D01*
X117293070Y-104302072D01*
X117077196Y-104169784D01*
X117072626Y-104167891D01*
X117072622Y-104167889D01*
X116847858Y-104074789D01*
X116847856Y-104074788D01*
X116843285Y-104072895D01*
X116747028Y-104049786D01*
X116601910Y-104014946D01*
X116601904Y-104014945D01*
X116597097Y-104013791D01*
X116344694Y-103993926D01*
X116092291Y-104013791D01*
X116087484Y-104014945D01*
X116087478Y-104014946D01*
X115942360Y-104049786D01*
X115846103Y-104072895D01*
X115841532Y-104074788D01*
X115841530Y-104074789D01*
X115616766Y-104167889D01*
X115616762Y-104167891D01*
X115612192Y-104169784D01*
X115396318Y-104302072D01*
X115203796Y-104466502D01*
X115039366Y-104659024D01*
X114907078Y-104874898D01*
X114905185Y-104879468D01*
X114905181Y-104879476D01*
X114894294Y-104905761D01*
X114849746Y-104961042D01*
X114843720Y-104964976D01*
X114672687Y-105069786D01*
X114604154Y-105088325D01*
X114541017Y-105069786D01*
X114436529Y-105005755D01*
X114436518Y-105005749D01*
X114432299Y-105003164D01*
X114427729Y-105001271D01*
X114427725Y-105001269D01*
X114202961Y-104908169D01*
X114202959Y-104908168D01*
X114198388Y-104906275D01*
X114113765Y-104885959D01*
X113957013Y-104848326D01*
X113957007Y-104848325D01*
X113952200Y-104847171D01*
X113699797Y-104827306D01*
X113447394Y-104847171D01*
X113442587Y-104848325D01*
X113442581Y-104848326D01*
X113285829Y-104885959D01*
X113201206Y-104906275D01*
X113196635Y-104908168D01*
X113196633Y-104908169D01*
X112971869Y-105001269D01*
X112971865Y-105001271D01*
X112967295Y-105003164D01*
X112751421Y-105135452D01*
X112558899Y-105299882D01*
X112394469Y-105492404D01*
X112335461Y-105588697D01*
X112333696Y-105591577D01*
X112281048Y-105639208D01*
X112211007Y-105650815D01*
X112144432Y-105621553D01*
X112133634Y-105612330D01*
X112018000Y-105513569D01*
X112008129Y-105505138D01*
X112008125Y-105505135D01*
X112004370Y-105501928D01*
X111788496Y-105369640D01*
X111783926Y-105367747D01*
X111783922Y-105367745D01*
X111559158Y-105274645D01*
X111559156Y-105274644D01*
X111554585Y-105272751D01*
X111469962Y-105252435D01*
X111313210Y-105214802D01*
X111313204Y-105214801D01*
X111308397Y-105213647D01*
X111055994Y-105193782D01*
X110803591Y-105213647D01*
X110798784Y-105214801D01*
X110798778Y-105214802D01*
X110642026Y-105252435D01*
X110557403Y-105272751D01*
X110552832Y-105274644D01*
X110552830Y-105274645D01*
X110328066Y-105367745D01*
X110328062Y-105367747D01*
X110323492Y-105369640D01*
X110172633Y-105462087D01*
X110118873Y-105495031D01*
X110050339Y-105513569D01*
X109982663Y-105492113D01*
X109945605Y-105453433D01*
X109923084Y-105416681D01*
X109826869Y-105259673D01*
X109662439Y-105067151D01*
X109469917Y-104902721D01*
X109254043Y-104770433D01*
X109249473Y-104768540D01*
X109249469Y-104768538D01*
X109024705Y-104675438D01*
X109024703Y-104675437D01*
X109020132Y-104673544D01*
X108775418Y-104614794D01*
X108775416Y-104614793D01*
X108773944Y-104614440D01*
X108774018Y-104614131D01*
X108712127Y-104584792D01*
X108674599Y-104524525D01*
X108675611Y-104453535D01*
X108714843Y-104394362D01*
X108741320Y-104377232D01*
X108764802Y-104365924D01*
X108764805Y-104365922D01*
X108769050Y-104363878D01*
X108772952Y-104361218D01*
X108915711Y-104263886D01*
X108986815Y-104215408D01*
X109180020Y-104036140D01*
X109182955Y-104032460D01*
X109341414Y-103833759D01*
X109341417Y-103833755D01*
X109344349Y-103830078D01*
X109361144Y-103800989D01*
X109421748Y-103696018D01*
X109476130Y-103601826D01*
X109560601Y-103386598D01*
X109570697Y-103360875D01*
X109570697Y-103360873D01*
X109572421Y-103356482D01*
X109587297Y-103291308D01*
X109630019Y-103104129D01*
X109630019Y-103104127D01*
X109631069Y-103099528D01*
X109632024Y-103086796D01*
X109650413Y-102841399D01*
X109650765Y-102836702D01*
X109648919Y-102812067D01*
X109631422Y-102578581D01*
X109631421Y-102578576D01*
X109631069Y-102573876D01*
X109621536Y-102532107D01*
X109603618Y-102453603D01*
X109607960Y-102382740D01*
X109649925Y-102325473D01*
X109716189Y-102299985D01*
X109785714Y-102314368D01*
X109831492Y-102355967D01*
X109981342Y-102582114D01*
X109983866Y-102585060D01*
X110180513Y-102814586D01*
X110192059Y-102828063D01*
X110194923Y-102830674D01*
X110194928Y-102830679D01*
X110220620Y-102854100D01*
X110431402Y-103046253D01*
X110695744Y-103233377D01*
X110699154Y-103235208D01*
X110699157Y-103235210D01*
X110977671Y-103384769D01*
X110977678Y-103384772D01*
X110981078Y-103386598D01*
X111283078Y-103503593D01*
X111330770Y-103515588D01*
X111593396Y-103581642D01*
X111593403Y-103581643D01*
X111597167Y-103582590D01*
X111918583Y-103622390D01*
X112161405Y-103622390D01*
X112174842Y-103621561D01*
X112399906Y-103607680D01*
X112399913Y-103607679D01*
X112403774Y-103607441D01*
X112722130Y-103547930D01*
X113030760Y-103449748D01*
X113082554Y-103425919D01*
X113321463Y-103316004D01*
X113321471Y-103316000D01*
X113324985Y-103314383D01*
X113328288Y-103312338D01*
X113597037Y-103145936D01*
X113597039Y-103145935D01*
X113600346Y-103143887D01*
X113634161Y-103116676D01*
X113849644Y-102943278D01*
X113849648Y-102943275D01*
X113852667Y-102940845D01*
X114078124Y-102708334D01*
X114082691Y-102702287D01*
X114119085Y-102654093D01*
X114273300Y-102449880D01*
X114435235Y-102169400D01*
X114474780Y-102075971D01*
X114537121Y-101928686D01*
X116104069Y-101928686D01*
X116105036Y-101934998D01*
X116105036Y-101935000D01*
X116133144Y-102118484D01*
X116134111Y-102124796D01*
X116203016Y-102310843D01*
X116307961Y-102479212D01*
X116444650Y-102623009D01*
X116449889Y-102626656D01*
X116449892Y-102626658D01*
X116592667Y-102726032D01*
X116607487Y-102736347D01*
X116789806Y-102814586D01*
X116796061Y-102815871D01*
X116796063Y-102815872D01*
X116830739Y-102822998D01*
X116922243Y-102841802D01*
X116956271Y-102854099D01*
X117046460Y-102902307D01*
X117087553Y-102924272D01*
X117087555Y-102924273D01*
X117093007Y-102927187D01*
X117144352Y-102942762D01*
X117285101Y-102985458D01*
X117285107Y-102985459D01*
X117291027Y-102987255D01*
X117364141Y-102994456D01*
X117442273Y-103002152D01*
X117442280Y-103002152D01*
X117445353Y-103002455D01*
X117548569Y-103002455D01*
X117551642Y-103002152D01*
X117551649Y-103002152D01*
X117629781Y-102994456D01*
X117702895Y-102987255D01*
X117708815Y-102985459D01*
X117708821Y-102985458D01*
X117858082Y-102940180D01*
X117900915Y-102927187D01*
X118083411Y-102829640D01*
X118243371Y-102698365D01*
X118374646Y-102538405D01*
X118472193Y-102355909D01*
X118520465Y-102196777D01*
X118530464Y-102163815D01*
X118530465Y-102163809D01*
X118532261Y-102157889D01*
X118552544Y-101951955D01*
X118532261Y-101746021D01*
X118530465Y-101740101D01*
X118530464Y-101740095D01*
X118487080Y-101597079D01*
X118472193Y-101548001D01*
X118374646Y-101365505D01*
X118243371Y-101205545D01*
X118083411Y-101074270D01*
X117900915Y-100976723D01*
X117821566Y-100952653D01*
X117708821Y-100918452D01*
X117708815Y-100918451D01*
X117702895Y-100916655D01*
X117629781Y-100909454D01*
X117551649Y-100901758D01*
X117551642Y-100901758D01*
X117548569Y-100901455D01*
X117445353Y-100901455D01*
X117442280Y-100901758D01*
X117442273Y-100901758D01*
X117350543Y-100910793D01*
X117291027Y-100916655D01*
X117291011Y-100916493D01*
X117244948Y-100916348D01*
X117203100Y-100907748D01*
X117188799Y-100904809D01*
X117188797Y-100904809D01*
X117182540Y-100903523D01*
X117033868Y-100903523D01*
X116885962Y-100918564D01*
X116696663Y-100977956D01*
X116523195Y-101074239D01*
X116372659Y-101203470D01*
X116368750Y-101208520D01*
X116368749Y-101208521D01*
X116255129Y-101355305D01*
X116255127Y-101355309D01*
X116251219Y-101360357D01*
X116163846Y-101538479D01*
X116162245Y-101544661D01*
X116162245Y-101544662D01*
X116116110Y-101722847D01*
X116114117Y-101730543D01*
X116113794Y-101736917D01*
X116113793Y-101736922D01*
X116109216Y-101827192D01*
X116104069Y-101928686D01*
X114537121Y-101928686D01*
X114559962Y-101874722D01*
X114559965Y-101874714D01*
X114561475Y-101871146D01*
X114650107Y-101559639D01*
X114652761Y-101542546D01*
X114699190Y-101243440D01*
X114699786Y-101239601D01*
X114699906Y-101235715D01*
X114709640Y-100919758D01*
X114709640Y-100919752D01*
X114709759Y-100915884D01*
X114679876Y-100593395D01*
X114636315Y-100394488D01*
X114611420Y-100280812D01*
X114611419Y-100280809D01*
X114610590Y-100277023D01*
X114584643Y-100203390D01*
X114504240Y-99975223D01*
X114504238Y-99975219D01*
X114502950Y-99971563D01*
X114499868Y-99965372D01*
X114360316Y-99685115D01*
X114360315Y-99685113D01*
X114358588Y-99681645D01*
X114185116Y-99419848D01*
X114181837Y-99414899D01*
X114181831Y-99414891D01*
X114179694Y-99411666D01*
X114103516Y-99322751D01*
X114014452Y-99218795D01*
X113985321Y-99154050D01*
X113995818Y-99083834D01*
X114042611Y-99030439D01*
X114110843Y-99010819D01*
X114132012Y-99012731D01*
X115540497Y-99261085D01*
X116190435Y-99375687D01*
X116190447Y-99375689D01*
X116199561Y-99377297D01*
X116237323Y-99383955D01*
X116237788Y-99383976D01*
X116238720Y-99384109D01*
X116306671Y-99396093D01*
X116306676Y-99396093D01*
X116311544Y-99396952D01*
X116316482Y-99397038D01*
X116316488Y-99397039D01*
X116533961Y-99400845D01*
X116533967Y-99400845D01*
X116538901Y-99400931D01*
X116543789Y-99400244D01*
X116543793Y-99400244D01*
X116759180Y-99369984D01*
X116759186Y-99369983D01*
X116764081Y-99369295D01*
X116981539Y-99302823D01*
X117099654Y-99245222D01*
X117181475Y-99205321D01*
X117181478Y-99205319D01*
X117185922Y-99203152D01*
X117372198Y-99072736D01*
X117420515Y-99026082D01*
X117481837Y-98993478D01*
X117512240Y-98987016D01*
X117573219Y-98974055D01*
X117573222Y-98974054D01*
X117579677Y-98972682D01*
X117613325Y-98957701D01*
X117748111Y-98897691D01*
X117748113Y-98897690D01*
X117754141Y-98895006D01*
X117779672Y-98876457D01*
X117854886Y-98821810D01*
X117908642Y-98782754D01*
X117921521Y-98768450D01*
X118032010Y-98645740D01*
X118032011Y-98645739D01*
X118036429Y-98640832D01*
X118124451Y-98488374D01*
X118128612Y-98481167D01*
X118128613Y-98481166D01*
X118131916Y-98475444D01*
X118190931Y-98293816D01*
X118199789Y-98209542D01*
X118210203Y-98110453D01*
X118210893Y-98103888D01*
X118208557Y-98081658D01*
X118191621Y-97920523D01*
X118191621Y-97920521D01*
X118190931Y-97913960D01*
X118131916Y-97732332D01*
X118036429Y-97566944D01*
X117939901Y-97459738D01*
X117913064Y-97429933D01*
X117913063Y-97429932D01*
X117908642Y-97425022D01*
X117754141Y-97312770D01*
X117748113Y-97310086D01*
X117748111Y-97310085D01*
X117585708Y-97237779D01*
X117585707Y-97237779D01*
X117579677Y-97235094D01*
X117470328Y-97211851D01*
X117399333Y-97196760D01*
X117399328Y-97196760D01*
X117392876Y-97195388D01*
X117201902Y-97195388D01*
X117195450Y-97196760D01*
X117195445Y-97196760D01*
X117124450Y-97211851D01*
X117015101Y-97235094D01*
X117009071Y-97237779D01*
X117009070Y-97237779D01*
X116846667Y-97310085D01*
X116846665Y-97310086D01*
X116840637Y-97312770D01*
X116686136Y-97425022D01*
X116681715Y-97429932D01*
X116681714Y-97429933D01*
X116654878Y-97459738D01*
X116558349Y-97566944D01*
X116462862Y-97732332D01*
X116403847Y-97913960D01*
X116386125Y-98082582D01*
X116385784Y-98085823D01*
X116358771Y-98151480D01*
X116300550Y-98192110D01*
X116238594Y-98196739D01*
X115491774Y-98065054D01*
X114778943Y-97939362D01*
X114715332Y-97907836D01*
X114678862Y-97846922D01*
X114676738Y-97793397D01*
X114686398Y-97738617D01*
X115191943Y-94871535D01*
X115191943Y-94871531D01*
X115195966Y-94848714D01*
X115192121Y-94835047D01*
X115191860Y-94829829D01*
X115190657Y-94822471D01*
X115189244Y-94817447D01*
X115188536Y-94803265D01*
X115181746Y-94790796D01*
X115180333Y-94785774D01*
X115177520Y-94778861D01*
X115175022Y-94774273D01*
X115171177Y-94760610D01*
X115161784Y-94749966D01*
X115159285Y-94745378D01*
X115155008Y-94739270D01*
X115151553Y-94735355D01*
X115144763Y-94722886D01*
X115133237Y-94714599D01*
X115129785Y-94710687D01*
X115124247Y-94705676D01*
X115120011Y-94702630D01*
X115110616Y-94691985D01*
X115097536Y-94686471D01*
X115093302Y-94683427D01*
X115086779Y-94679769D01*
X115081975Y-94677744D01*
X115070450Y-94669458D01*
X115056474Y-94666994D01*
X115056473Y-94666993D01*
X114980315Y-94653564D01*
X114980310Y-94653563D01*
X111457828Y-94032454D01*
X111457827Y-94032454D01*
X111435007Y-94028430D01*
X111421343Y-94032275D01*
X111416125Y-94032535D01*
X111408769Y-94033738D01*
X111403739Y-94035153D01*
X111389558Y-94035861D01*
X111377086Y-94042653D01*
X111372068Y-94044065D01*
X111365151Y-94046879D01*
X111360567Y-94049376D01*
X111346903Y-94053220D01*
X111336259Y-94062613D01*
X111331679Y-94065107D01*
X111325554Y-94069396D01*
X111321647Y-94072844D01*
X111309179Y-94079634D01*
X111300893Y-94091159D01*
X111296971Y-94094620D01*
X111291973Y-94100144D01*
X111288923Y-94104386D01*
X111278278Y-94113780D01*
X111272764Y-94126862D01*
X111269716Y-94131101D01*
X111266070Y-94137603D01*
X111264040Y-94142418D01*
X111255751Y-94153947D01*
X111239857Y-94244082D01*
X111239857Y-94244084D01*
X110741004Y-97073217D01*
X110736523Y-97098628D01*
X110704996Y-97162240D01*
X110644082Y-97198710D01*
X110590557Y-97200834D01*
X109647267Y-97034506D01*
X109583655Y-97002979D01*
X109547185Y-96942065D01*
X109549314Y-96871483D01*
X109556101Y-96850597D01*
X109582104Y-96770568D01*
X109588029Y-96714200D01*
X109601376Y-96587205D01*
X109601376Y-96587204D01*
X109602066Y-96580640D01*
X109582104Y-96390712D01*
X109523089Y-96209084D01*
X109427602Y-96043696D01*
X109305905Y-95908537D01*
X109304237Y-95906685D01*
X109304236Y-95906684D01*
X109299815Y-95901774D01*
X109191567Y-95823127D01*
X109150656Y-95793403D01*
X109150655Y-95793402D01*
X109145314Y-95789522D01*
X109139286Y-95786838D01*
X109139284Y-95786837D01*
X108976881Y-95714531D01*
X108976880Y-95714531D01*
X108970850Y-95711846D01*
X108897802Y-95696319D01*
X108886370Y-95693889D01*
X108823896Y-95660160D01*
X108789575Y-95598011D01*
X108794303Y-95527172D01*
X108810802Y-95498698D01*
X108810189Y-95498307D01*
X108832880Y-95462690D01*
X108895144Y-95364955D01*
X108917375Y-95294446D01*
X108940207Y-95222032D01*
X108940208Y-95222028D01*
X108942689Y-95214158D01*
X108949586Y-95056194D01*
X108915363Y-94901827D01*
X108842354Y-94761577D01*
X108735533Y-94645003D01*
X108602180Y-94560048D01*
X108489247Y-94524441D01*
X107820837Y-94406583D01*
X107816725Y-94406403D01*
X107816721Y-94406403D01*
X107710785Y-94401778D01*
X107710784Y-94401778D01*
X107702536Y-94401418D01*
X107694476Y-94403205D01*
X107694474Y-94403205D01*
X107608191Y-94422334D01*
X107548169Y-94435640D01*
X107407919Y-94508650D01*
X107401833Y-94514227D01*
X107401830Y-94514229D01*
X107351828Y-94560048D01*
X107291345Y-94615471D01*
X107286912Y-94622430D01*
X107286909Y-94622433D01*
X107257352Y-94668829D01*
X107206390Y-94748823D01*
X107203908Y-94756696D01*
X107161327Y-94891746D01*
X107161326Y-94891750D01*
X107158845Y-94899620D01*
X107156361Y-94956509D01*
X107152361Y-95048134D01*
X107151948Y-95057584D01*
X107186170Y-95211951D01*
X107259180Y-95352201D01*
X107264757Y-95358287D01*
X107264759Y-95358290D01*
X107287817Y-95383453D01*
X107366001Y-95468775D01*
X107372960Y-95473208D01*
X107372963Y-95473211D01*
X107412970Y-95498698D01*
X107499353Y-95553730D01*
X107612287Y-95589337D01*
X107801135Y-95622636D01*
X108040214Y-95664792D01*
X108103826Y-95696319D01*
X108140296Y-95757233D01*
X108138043Y-95828194D01*
X108092393Y-95890815D01*
X108077309Y-95901774D01*
X108072888Y-95906684D01*
X108072887Y-95906685D01*
X108071220Y-95908537D01*
X107949522Y-96043696D01*
X107854035Y-96209084D01*
X107795020Y-96390712D01*
X107775058Y-96580640D01*
X107789375Y-96716852D01*
X107792982Y-96751175D01*
X107780210Y-96821014D01*
X107731708Y-96872861D01*
X107678653Y-96889867D01*
X107627086Y-96894378D01*
X107627075Y-96894379D01*
X107624348Y-96894618D01*
X107525748Y-96912003D01*
X107222476Y-96965477D01*
X107222465Y-96965480D01*
X107219768Y-96965955D01*
X106822945Y-97072282D01*
X106436898Y-97212789D01*
X106434407Y-97213951D01*
X106434406Y-97213951D01*
X106067071Y-97385240D01*
X106067064Y-97385244D01*
X106064567Y-97386408D01*
X105942910Y-97456646D01*
X105711166Y-97590442D01*
X105711160Y-97590446D01*
X105708785Y-97591817D01*
X105372259Y-97827453D01*
X105057550Y-98091522D01*
X104767054Y-98382015D01*
X104765281Y-98384128D01*
X104504752Y-98694611D01*
X104504746Y-98694618D01*
X104502982Y-98696721D01*
X104267343Y-99033245D01*
X104265975Y-99035615D01*
X104265974Y-99035616D01*
X104064998Y-99383712D01*
X104061930Y-99389025D01*
X104030990Y-99455375D01*
X103889474Y-99758851D01*
X103889469Y-99758863D01*
X103888307Y-99761355D01*
X103747796Y-100147400D01*
X103641465Y-100544222D01*
X103640991Y-100546909D01*
X103640989Y-100546919D01*
X103627606Y-100622819D01*
X103612450Y-100708772D01*
X103612448Y-100708777D01*
X103612447Y-100708784D01*
X103612446Y-100708787D01*
X103016347Y-104089444D01*
X103013967Y-104100178D01*
X102972951Y-104253238D01*
X102965439Y-104273876D01*
X102900796Y-104412498D01*
X102889814Y-104431518D01*
X102858535Y-104476188D01*
X102802099Y-104556786D01*
X102802086Y-104556804D01*
X102787968Y-104573629D01*
X102679811Y-104681783D01*
X102662991Y-104695896D01*
X102575122Y-104757422D01*
X102507849Y-104780108D01*
X102438989Y-104762822D01*
X102397371Y-104723123D01*
X102379586Y-104695900D01*
X102285847Y-104552422D01*
X102282322Y-104548593D01*
X102282319Y-104548589D01*
X102166232Y-104422487D01*
X102133365Y-104386784D01*
X102067688Y-104335665D01*
X101959814Y-104251702D01*
X101959812Y-104251700D01*
X101955701Y-104248501D01*
X101921917Y-104230218D01*
X101871528Y-104180205D01*
X101856176Y-104110888D01*
X101880737Y-104044275D01*
X101921919Y-104008591D01*
X101950844Y-103992938D01*
X101959536Y-103987259D01*
X102128914Y-103855427D01*
X102136557Y-103848390D01*
X102281915Y-103690489D01*
X102288302Y-103682283D01*
X102405694Y-103502603D01*
X102410637Y-103493468D01*
X102496855Y-103296913D01*
X102500225Y-103287098D01*
X102542222Y-103121251D01*
X102541692Y-103107160D01*
X102533270Y-103103690D01*
X99891696Y-103103690D01*
X99878165Y-103107663D01*
X99876869Y-103116676D01*
X99920025Y-103287098D01*
X99923395Y-103296913D01*
X100009613Y-103493468D01*
X100014556Y-103502603D01*
X100131948Y-103682283D01*
X100138335Y-103690489D01*
X100283693Y-103848390D01*
X100291336Y-103855427D01*
X100460714Y-103987259D01*
X100469406Y-103992938D01*
X100498331Y-104008591D01*
X100548722Y-104058604D01*
X100564074Y-104127921D01*
X100539513Y-104194534D01*
X100498333Y-104230218D01*
X100464549Y-104248501D01*
X100460438Y-104251700D01*
X100460436Y-104251702D01*
X100352562Y-104335665D01*
X100286885Y-104386784D01*
X100254018Y-104422487D01*
X100137931Y-104548589D01*
X100137928Y-104548593D01*
X100134403Y-104552422D01*
X100131552Y-104556786D01*
X100022879Y-104723123D01*
X100011265Y-104740899D01*
X100009173Y-104745668D01*
X100009171Y-104745672D01*
X99954339Y-104870678D01*
X99920829Y-104947074D01*
X99919547Y-104952135D01*
X99919547Y-104952136D01*
X99907105Y-105001269D01*
X99865561Y-105165322D01*
X99865131Y-105170513D01*
X99865130Y-105170518D01*
X99849435Y-105359931D01*
X99846969Y-105389690D01*
X96233050Y-105389690D01*
X96431231Y-105307601D01*
X96431235Y-105307599D01*
X96435805Y-105305706D01*
X96651679Y-105173418D01*
X96844201Y-105008988D01*
X97008631Y-104816466D01*
X97140919Y-104600592D01*
X97143412Y-104594575D01*
X97235914Y-104371254D01*
X97235915Y-104371252D01*
X97237808Y-104366681D01*
X97238964Y-104361867D01*
X97238966Y-104361860D01*
X97252840Y-104304073D01*
X97293527Y-104237677D01*
X97440445Y-104112196D01*
X97444201Y-104108988D01*
X97451726Y-104100178D01*
X97525507Y-104013791D01*
X97608631Y-103916466D01*
X97740919Y-103700592D01*
X97751478Y-103675102D01*
X97835914Y-103471254D01*
X97835915Y-103471252D01*
X97837808Y-103466681D01*
X97874862Y-103312338D01*
X97895757Y-103225306D01*
X97895758Y-103225300D01*
X97896912Y-103220493D01*
X97916777Y-102968090D01*
X97896912Y-102715687D01*
X97894405Y-102705242D01*
X97858124Y-102554122D01*
X97837808Y-102469499D01*
X97835914Y-102464926D01*
X97742814Y-102240162D01*
X97742812Y-102240158D01*
X97740919Y-102235588D01*
X97608631Y-102019714D01*
X97444201Y-101827192D01*
X97251679Y-101662762D01*
X97035805Y-101530474D01*
X97031235Y-101528581D01*
X97031231Y-101528579D01*
X96806467Y-101435479D01*
X96806465Y-101435478D01*
X96801894Y-101433585D01*
X96671740Y-101402338D01*
X96560519Y-101375636D01*
X96560513Y-101375635D01*
X96555706Y-101374481D01*
X96303303Y-101354616D01*
X96050900Y-101374481D01*
X96046093Y-101375635D01*
X96046087Y-101375636D01*
X95934866Y-101402338D01*
X95804712Y-101433585D01*
X95800141Y-101435478D01*
X95800139Y-101435479D01*
X95575375Y-101528579D01*
X95575371Y-101528581D01*
X95570801Y-101530474D01*
X95354927Y-101662762D01*
X95162405Y-101827192D01*
X94997975Y-102019714D01*
X94865687Y-102235588D01*
X94863794Y-102240158D01*
X94863792Y-102240162D01*
X94770692Y-102464926D01*
X94768798Y-102469499D01*
X94767643Y-102474311D01*
X94767640Y-102474320D01*
X94753766Y-102532107D01*
X94713079Y-102598503D01*
X94562405Y-102727192D01*
X94561414Y-102726032D01*
X94505048Y-102756811D01*
X94430047Y-102750099D01*
X94346467Y-102715479D01*
X94346465Y-102715478D01*
X94341894Y-102713585D01*
X94257271Y-102693269D01*
X94100519Y-102655636D01*
X94100513Y-102655635D01*
X94095706Y-102654481D01*
X93843303Y-102634616D01*
X93590900Y-102654481D01*
X93586093Y-102655635D01*
X93586087Y-102655636D01*
X93429335Y-102693269D01*
X93344712Y-102713585D01*
X93340141Y-102715478D01*
X93340139Y-102715479D01*
X93115375Y-102808579D01*
X93115371Y-102808581D01*
X93110801Y-102810474D01*
X92894927Y-102942762D01*
X92702405Y-103107192D01*
X92537975Y-103299714D01*
X92405687Y-103515588D01*
X92403794Y-103520158D01*
X92403792Y-103520162D01*
X92349309Y-103651696D01*
X92304761Y-103706977D01*
X92237397Y-103729398D01*
X92167065Y-103710910D01*
X92040035Y-103633065D01*
X92040024Y-103633059D01*
X92035805Y-103630474D01*
X92031235Y-103628581D01*
X92031231Y-103628579D01*
X91806467Y-103535479D01*
X91806465Y-103535478D01*
X91801894Y-103533585D01*
X91709353Y-103511368D01*
X91560519Y-103475636D01*
X91560513Y-103475635D01*
X91555706Y-103474481D01*
X91303303Y-103454616D01*
X91050900Y-103474481D01*
X91046093Y-103475635D01*
X91046087Y-103475636D01*
X90897253Y-103511368D01*
X90804712Y-103533585D01*
X90800141Y-103535478D01*
X90800139Y-103535479D01*
X90575375Y-103628579D01*
X90575371Y-103628581D01*
X90570801Y-103630474D01*
X90354927Y-103762762D01*
X90162405Y-103927192D01*
X90159197Y-103930948D01*
X90156515Y-103933630D01*
X90094203Y-103967656D01*
X90023388Y-103962591D01*
X89971609Y-103926366D01*
X89847409Y-103780948D01*
X89844201Y-103777192D01*
X89651679Y-103612762D01*
X89435805Y-103480474D01*
X89431235Y-103478581D01*
X89431231Y-103478579D01*
X89206467Y-103385479D01*
X89206465Y-103385478D01*
X89201894Y-103383585D01*
X89089001Y-103356482D01*
X88960519Y-103325636D01*
X88960513Y-103325635D01*
X88955706Y-103324481D01*
X88703303Y-103304616D01*
X88698373Y-103305004D01*
X88698365Y-103305004D01*
X88686958Y-103305902D01*
X88617477Y-103291308D01*
X88566917Y-103241467D01*
X88551329Y-103172203D01*
X88575662Y-103105507D01*
X88593224Y-103087270D01*
X88592784Y-103086796D01*
X88683682Y-103002455D01*
X88785989Y-102907528D01*
X88788924Y-102903848D01*
X88947383Y-102705147D01*
X88947386Y-102705143D01*
X88950318Y-102701466D01*
X88985266Y-102640935D01*
X89048097Y-102532107D01*
X89082099Y-102473214D01*
X89178390Y-102227870D01*
X89190968Y-102172763D01*
X89235988Y-101975517D01*
X89235988Y-101975515D01*
X89237038Y-101970916D01*
X89239299Y-101940753D01*
X89256065Y-101717023D01*
X89256734Y-101708090D01*
X89253144Y-101660180D01*
X89237391Y-101449969D01*
X89237390Y-101449964D01*
X89237038Y-101445264D01*
X89227752Y-101404577D01*
X89179440Y-101192910D01*
X89179440Y-101192909D01*
X89178390Y-101188310D01*
X89114337Y-101025106D01*
X89108069Y-100954388D01*
X89141030Y-100891506D01*
X89202754Y-100856427D01*
X89273646Y-100860287D01*
X89327312Y-100897096D01*
X89395533Y-100976723D01*
X89414844Y-100999263D01*
X89417708Y-101001874D01*
X89417713Y-101001879D01*
X89516596Y-101092022D01*
X89654187Y-101217453D01*
X89918529Y-101404577D01*
X89921939Y-101406408D01*
X89921942Y-101406410D01*
X90200456Y-101555969D01*
X90200463Y-101555972D01*
X90203863Y-101557798D01*
X90362691Y-101619328D01*
X90488819Y-101668190D01*
X90505863Y-101674793D01*
X90591024Y-101696212D01*
X90816181Y-101752842D01*
X90816188Y-101752843D01*
X90819952Y-101753790D01*
X91141368Y-101793590D01*
X91384190Y-101793590D01*
X91397627Y-101792761D01*
X91622691Y-101778880D01*
X91622698Y-101778879D01*
X91626559Y-101778641D01*
X91944915Y-101719130D01*
X92253545Y-101620948D01*
X92378684Y-101563375D01*
X92544248Y-101487204D01*
X92544256Y-101487200D01*
X92547770Y-101485583D01*
X92592325Y-101457996D01*
X92819822Y-101317136D01*
X92819824Y-101317135D01*
X92823131Y-101315087D01*
X92944461Y-101217453D01*
X92955801Y-101208328D01*
X99851625Y-101208328D01*
X99858136Y-101268891D01*
X99909236Y-101405894D01*
X99914635Y-101413106D01*
X99914636Y-101413108D01*
X99929965Y-101433585D01*
X99996864Y-101522951D01*
X100113921Y-101610579D01*
X100185466Y-101637264D01*
X100229438Y-101653665D01*
X100286274Y-101696212D01*
X100311085Y-101762732D01*
X100295994Y-101832106D01*
X100278107Y-101857058D01*
X100138335Y-102008891D01*
X100131948Y-102017097D01*
X100014556Y-102196777D01*
X100009613Y-102205912D01*
X99923395Y-102402467D01*
X99920025Y-102412282D01*
X99878028Y-102578129D01*
X99878558Y-102592220D01*
X99886980Y-102595690D01*
X102528554Y-102595690D01*
X102542085Y-102591717D01*
X102543381Y-102582704D01*
X102500225Y-102412282D01*
X102496855Y-102402467D01*
X102410637Y-102205912D01*
X102405694Y-102196777D01*
X102288302Y-102017097D01*
X102281915Y-102008891D01*
X102142143Y-101857058D01*
X102110722Y-101793393D01*
X102118709Y-101722847D01*
X102163568Y-101667819D01*
X102190812Y-101653665D01*
X102234784Y-101637264D01*
X102306329Y-101610579D01*
X102423386Y-101522951D01*
X102490285Y-101433585D01*
X102505614Y-101413108D01*
X102505615Y-101413106D01*
X102511014Y-101405894D01*
X102562114Y-101268891D01*
X102568625Y-101208328D01*
X102568625Y-99411052D01*
X102567119Y-99397039D01*
X102562956Y-99358323D01*
X102562114Y-99350489D01*
X102511014Y-99213486D01*
X102486371Y-99180566D01*
X102439854Y-99118427D01*
X102423386Y-99096429D01*
X102342150Y-99035616D01*
X102313543Y-99014201D01*
X102313541Y-99014200D01*
X102306329Y-99008801D01*
X102169326Y-98957701D01*
X102132420Y-98953733D01*
X102112113Y-98951550D01*
X102112110Y-98951550D01*
X102108763Y-98951190D01*
X100311487Y-98951190D01*
X100308140Y-98951550D01*
X100308137Y-98951550D01*
X100287830Y-98953733D01*
X100250924Y-98957701D01*
X100113921Y-99008801D01*
X100106709Y-99014200D01*
X100106707Y-99014201D01*
X100078100Y-99035616D01*
X99996864Y-99096429D01*
X99980396Y-99118427D01*
X99933880Y-99180566D01*
X99909236Y-99213486D01*
X99858136Y-99350489D01*
X99857294Y-99358323D01*
X99853132Y-99397039D01*
X99851625Y-99411052D01*
X99851625Y-101208328D01*
X92955801Y-101208328D01*
X93072429Y-101114478D01*
X93072433Y-101114475D01*
X93075452Y-101112045D01*
X93300909Y-100879534D01*
X93496085Y-100621080D01*
X93658020Y-100340600D01*
X93699926Y-100241594D01*
X93782747Y-100045922D01*
X93782750Y-100045914D01*
X93784260Y-100042346D01*
X93872892Y-99730839D01*
X93922571Y-99410801D01*
X93922878Y-99400845D01*
X93928519Y-99217753D01*
X95404031Y-99217753D01*
X95404998Y-99224065D01*
X95404998Y-99224067D01*
X95423234Y-99343109D01*
X95434073Y-99413863D01*
X95502978Y-99599910D01*
X95607923Y-99768279D01*
X95744612Y-99912076D01*
X95749851Y-99915723D01*
X95749854Y-99915725D01*
X95856943Y-99990261D01*
X95907449Y-100025414D01*
X96089768Y-100103653D01*
X96096026Y-100104939D01*
X96096029Y-100104940D01*
X96182131Y-100122634D01*
X96284104Y-100143590D01*
X96381541Y-100143590D01*
X96418116Y-100149015D01*
X96591443Y-100201593D01*
X96591449Y-100201594D01*
X96597369Y-100203390D01*
X96670483Y-100210591D01*
X96748615Y-100218287D01*
X96748622Y-100218287D01*
X96751695Y-100218590D01*
X96854911Y-100218590D01*
X96857984Y-100218287D01*
X96857991Y-100218287D01*
X96936123Y-100210591D01*
X97009237Y-100203390D01*
X97015157Y-100201594D01*
X97015163Y-100201593D01*
X97201023Y-100145213D01*
X97207257Y-100143322D01*
X97389753Y-100045775D01*
X97549713Y-99914500D01*
X97680988Y-99754540D01*
X97778535Y-99572044D01*
X97826204Y-99414899D01*
X97836806Y-99379950D01*
X97836807Y-99379944D01*
X97838603Y-99374024D01*
X97858886Y-99168090D01*
X97838603Y-98962156D01*
X97836807Y-98956236D01*
X97836806Y-98956230D01*
X97793422Y-98813214D01*
X97778535Y-98764136D01*
X97680988Y-98581640D01*
X97549713Y-98421680D01*
X97389753Y-98290405D01*
X97207257Y-98192858D01*
X97158179Y-98177971D01*
X97015163Y-98134587D01*
X97015157Y-98134586D01*
X97009237Y-98132790D01*
X96936123Y-98125589D01*
X96857991Y-98117893D01*
X96857984Y-98117893D01*
X96854911Y-98117590D01*
X96751695Y-98117590D01*
X96748622Y-98117893D01*
X96748615Y-98117893D01*
X96670483Y-98125589D01*
X96597369Y-98132790D01*
X96591449Y-98134586D01*
X96591443Y-98134587D01*
X96418116Y-98187165D01*
X96381541Y-98192590D01*
X96333830Y-98192590D01*
X96185924Y-98207631D01*
X95996625Y-98267023D01*
X95823157Y-98363306D01*
X95672621Y-98492537D01*
X95668712Y-98497587D01*
X95668711Y-98497588D01*
X95555091Y-98644372D01*
X95555089Y-98644376D01*
X95551181Y-98649424D01*
X95463808Y-98827546D01*
X95462207Y-98833728D01*
X95462207Y-98833729D01*
X95416878Y-99008801D01*
X95414079Y-99019610D01*
X95413756Y-99025984D01*
X95413755Y-99025989D01*
X95410822Y-99083834D01*
X95404031Y-99217753D01*
X93928519Y-99217753D01*
X93932425Y-99090958D01*
X93932425Y-99090952D01*
X93932544Y-99087084D01*
X93902661Y-98764595D01*
X93866966Y-98601605D01*
X93834205Y-98452012D01*
X93834204Y-98452009D01*
X93833375Y-98448223D01*
X93832085Y-98444562D01*
X93727025Y-98146423D01*
X93727023Y-98146419D01*
X93725735Y-98142763D01*
X93713352Y-98117893D01*
X93583101Y-97856315D01*
X93583100Y-97856313D01*
X93581373Y-97852845D01*
X93488045Y-97711999D01*
X93404622Y-97586099D01*
X93404616Y-97586091D01*
X93402479Y-97582866D01*
X93267246Y-97425022D01*
X93194289Y-97339866D01*
X93194285Y-97339862D01*
X93191762Y-97336917D01*
X93188898Y-97334306D01*
X93188893Y-97334301D01*
X93000150Y-97162240D01*
X92952419Y-97118727D01*
X92688077Y-96931603D01*
X92684664Y-96929770D01*
X92406150Y-96780211D01*
X92406143Y-96780208D01*
X92402743Y-96778382D01*
X92100743Y-96661387D01*
X91924461Y-96617050D01*
X91790425Y-96583338D01*
X91790418Y-96583337D01*
X91786654Y-96582390D01*
X91465238Y-96542590D01*
X91222416Y-96542590D01*
X91208979Y-96543419D01*
X90983915Y-96557300D01*
X90983908Y-96557301D01*
X90980047Y-96557539D01*
X90661691Y-96617050D01*
X90353061Y-96715232D01*
X90349539Y-96716852D01*
X90349540Y-96716852D01*
X90062358Y-96848976D01*
X90062350Y-96848980D01*
X90058836Y-96850597D01*
X90055535Y-96852641D01*
X90055533Y-96852642D01*
X89894748Y-96952196D01*
X89783475Y-97021093D01*
X89780444Y-97023532D01*
X89543810Y-97213951D01*
X89531154Y-97224135D01*
X89305697Y-97456646D01*
X89110521Y-97715100D01*
X88948586Y-97995580D01*
X88947073Y-97999155D01*
X88823859Y-98290258D01*
X88823856Y-98290266D01*
X88822346Y-98293834D01*
X88733714Y-98605341D01*
X88733119Y-98609175D01*
X88733118Y-98609179D01*
X88723869Y-98668764D01*
X88684035Y-98925379D01*
X88683915Y-98929260D01*
X88683915Y-98929265D01*
X88674996Y-99218795D01*
X88674062Y-99249096D01*
X88703945Y-99571585D01*
X88704774Y-99575370D01*
X88770587Y-99875882D01*
X88773231Y-99887957D01*
X88774521Y-99891617D01*
X88774521Y-99891618D01*
X88869183Y-100160248D01*
X88880871Y-100193417D01*
X88882596Y-100196881D01*
X88882598Y-100196886D01*
X88946189Y-100324593D01*
X88958648Y-100394488D01*
X88931341Y-100460023D01*
X88872938Y-100500391D01*
X88801981Y-100502776D01*
X88747696Y-100473121D01*
X88596239Y-100332590D01*
X88592784Y-100329384D01*
X88464020Y-100241594D01*
X88378915Y-100183570D01*
X88378913Y-100183569D01*
X88375019Y-100180914D01*
X88217258Y-100104940D01*
X88141806Y-100068604D01*
X88141804Y-100068603D01*
X88137557Y-100066558D01*
X87885703Y-99988872D01*
X87881053Y-99988171D01*
X87881048Y-99988170D01*
X87747850Y-99968094D01*
X87625084Y-99949590D01*
X87361522Y-99949590D01*
X87171367Y-99978251D01*
X87105566Y-99988169D01*
X87105564Y-99988169D01*
X87103935Y-99988415D01*
X87103934Y-99988415D01*
X87100903Y-99988872D01*
X87100805Y-99988224D01*
X87033507Y-99984105D01*
X86976237Y-99942144D01*
X86950745Y-99875882D01*
X86965123Y-99806356D01*
X86976687Y-99788478D01*
X87051511Y-99691813D01*
X87051513Y-99691810D01*
X87055425Y-99686756D01*
X87142798Y-99508634D01*
X87157826Y-99450594D01*
X87190927Y-99322751D01*
X87190928Y-99322747D01*
X87192527Y-99316570D01*
X87192850Y-99310196D01*
X87192851Y-99310191D01*
X87199744Y-99174253D01*
X87202575Y-99118427D01*
X87197184Y-99083231D01*
X87173500Y-98928629D01*
X87173500Y-98928628D01*
X87172533Y-98922317D01*
X87103628Y-98736270D01*
X86998683Y-98567901D01*
X86861994Y-98424104D01*
X86856755Y-98420457D01*
X86856752Y-98420455D01*
X86704404Y-98314418D01*
X86699157Y-98310766D01*
X86516838Y-98232527D01*
X86510580Y-98231241D01*
X86510577Y-98231240D01*
X86419670Y-98212558D01*
X86322502Y-98192590D01*
X86225065Y-98192590D01*
X86188490Y-98187165D01*
X86015163Y-98134587D01*
X86015157Y-98134586D01*
X86009237Y-98132790D01*
X85936123Y-98125589D01*
X85857991Y-98117893D01*
X85857984Y-98117893D01*
X85854911Y-98117590D01*
X85751695Y-98117590D01*
X85748622Y-98117893D01*
X85748615Y-98117893D01*
X85670483Y-98125589D01*
X85597369Y-98132790D01*
X85591449Y-98134586D01*
X85591443Y-98134587D01*
X85448427Y-98177971D01*
X85399349Y-98192858D01*
X85216853Y-98290405D01*
X85056893Y-98421680D01*
X84925618Y-98581640D01*
X84828071Y-98764136D01*
X84813184Y-98813214D01*
X84769800Y-98956230D01*
X84769799Y-98956236D01*
X84768003Y-98962156D01*
X84747720Y-99168090D01*
X80643942Y-99168090D01*
X79778074Y-98156838D01*
X78889216Y-97118727D01*
X77863174Y-95920397D01*
X86326060Y-95920397D01*
X86346022Y-96110325D01*
X86405037Y-96291953D01*
X86500524Y-96457341D01*
X86504942Y-96462248D01*
X86504943Y-96462249D01*
X86591384Y-96558251D01*
X86628311Y-96599263D01*
X86782812Y-96711515D01*
X86788840Y-96714199D01*
X86788842Y-96714200D01*
X86932998Y-96778382D01*
X86957276Y-96789191D01*
X87050676Y-96809044D01*
X87137620Y-96827525D01*
X87137625Y-96827525D01*
X87144077Y-96828897D01*
X87335051Y-96828897D01*
X87341503Y-96827525D01*
X87341508Y-96827525D01*
X87428452Y-96809044D01*
X87521852Y-96789191D01*
X87546130Y-96778382D01*
X87690286Y-96714200D01*
X87690288Y-96714199D01*
X87696316Y-96711515D01*
X87850817Y-96599263D01*
X87887744Y-96558251D01*
X87974185Y-96462249D01*
X87974186Y-96462248D01*
X87978604Y-96457341D01*
X88074091Y-96291953D01*
X88133106Y-96110325D01*
X88153068Y-95920397D01*
X88142845Y-95823127D01*
X88136615Y-95763854D01*
X89302816Y-95763854D01*
X89308977Y-95776646D01*
X89310140Y-95781742D01*
X89312600Y-95788772D01*
X89314867Y-95793479D01*
X89318026Y-95807322D01*
X89326878Y-95818422D01*
X89329144Y-95823127D01*
X89333111Y-95829441D01*
X89336370Y-95833527D01*
X89342528Y-95846315D01*
X89353625Y-95855165D01*
X89356873Y-95859238D01*
X89362169Y-95864534D01*
X89366242Y-95867782D01*
X89375092Y-95878879D01*
X89387880Y-95885037D01*
X89391966Y-95888296D01*
X89398280Y-95892263D01*
X89402985Y-95894529D01*
X89414085Y-95903381D01*
X89427928Y-95906540D01*
X89432635Y-95908807D01*
X89439665Y-95911267D01*
X89444761Y-95912430D01*
X89457553Y-95918591D01*
X93149079Y-95918591D01*
X93161871Y-95912430D01*
X93166967Y-95911267D01*
X93173997Y-95908807D01*
X93178704Y-95906540D01*
X93192547Y-95903381D01*
X93203647Y-95894529D01*
X93208352Y-95892263D01*
X93214666Y-95888296D01*
X93218752Y-95885037D01*
X93231540Y-95878879D01*
X93240390Y-95867782D01*
X93244463Y-95864534D01*
X93249759Y-95859238D01*
X93253007Y-95855165D01*
X93264104Y-95846315D01*
X93270262Y-95833527D01*
X93273521Y-95829441D01*
X93277488Y-95823127D01*
X93279754Y-95818422D01*
X93288606Y-95807322D01*
X93291765Y-95793479D01*
X93294032Y-95788772D01*
X93296492Y-95781742D01*
X93297655Y-95776646D01*
X93303816Y-95763854D01*
X93303816Y-92572328D01*
X93297655Y-92559536D01*
X93296492Y-92554440D01*
X93294032Y-92547410D01*
X93291765Y-92542703D01*
X93288606Y-92528860D01*
X93279754Y-92517760D01*
X93277488Y-92513055D01*
X93273521Y-92506741D01*
X93270262Y-92502655D01*
X93264104Y-92489867D01*
X93253007Y-92481017D01*
X93249759Y-92476944D01*
X93244463Y-92471648D01*
X93240390Y-92468400D01*
X93231540Y-92457303D01*
X93218752Y-92451145D01*
X93214666Y-92447886D01*
X93208352Y-92443919D01*
X93203647Y-92441653D01*
X93192547Y-92432801D01*
X93178704Y-92429642D01*
X93173997Y-92427375D01*
X93166967Y-92424915D01*
X93161871Y-92423752D01*
X93149079Y-92417591D01*
X89457553Y-92417591D01*
X89444761Y-92423752D01*
X89439665Y-92424915D01*
X89432635Y-92427375D01*
X89427928Y-92429642D01*
X89414085Y-92432801D01*
X89402985Y-92441653D01*
X89398280Y-92443919D01*
X89391966Y-92447886D01*
X89387880Y-92451145D01*
X89375092Y-92457303D01*
X89366242Y-92468400D01*
X89362169Y-92471648D01*
X89356873Y-92476944D01*
X89353625Y-92481017D01*
X89342528Y-92489867D01*
X89336370Y-92502655D01*
X89333111Y-92506741D01*
X89329144Y-92513055D01*
X89326878Y-92517760D01*
X89318026Y-92528860D01*
X89314867Y-92542703D01*
X89312600Y-92547410D01*
X89310140Y-92554440D01*
X89308977Y-92559536D01*
X89302816Y-92572328D01*
X89302816Y-95763854D01*
X88136615Y-95763854D01*
X88133796Y-95737032D01*
X88133796Y-95737030D01*
X88133106Y-95730469D01*
X88074091Y-95548841D01*
X88061581Y-95527172D01*
X87981905Y-95389171D01*
X87978604Y-95383453D01*
X87961949Y-95364955D01*
X87855239Y-95246442D01*
X87855238Y-95246441D01*
X87850817Y-95241531D01*
X87696316Y-95129279D01*
X87690288Y-95126595D01*
X87690286Y-95126594D01*
X87527883Y-95054288D01*
X87527882Y-95054288D01*
X87521852Y-95051603D01*
X87428451Y-95031750D01*
X87341508Y-95013269D01*
X87341503Y-95013269D01*
X87335051Y-95011897D01*
X87144077Y-95011897D01*
X87137625Y-95013269D01*
X87137620Y-95013269D01*
X87050677Y-95031750D01*
X86957276Y-95051603D01*
X86951246Y-95054288D01*
X86951245Y-95054288D01*
X86788842Y-95126594D01*
X86788840Y-95126595D01*
X86782812Y-95129279D01*
X86628311Y-95241531D01*
X86623890Y-95246441D01*
X86623889Y-95246442D01*
X86517180Y-95364955D01*
X86500524Y-95383453D01*
X86497223Y-95389171D01*
X86417548Y-95527172D01*
X86405037Y-95548841D01*
X86346022Y-95730469D01*
X86345332Y-95737030D01*
X86345332Y-95737032D01*
X86336283Y-95823127D01*
X86326060Y-95920397D01*
X77863174Y-95920397D01*
X75387958Y-93029556D01*
X75387952Y-93029549D01*
X75387950Y-93029548D01*
X75387945Y-93029542D01*
X73676269Y-91030477D01*
X72203316Y-89310215D01*
X72203308Y-89310203D01*
X72203302Y-89310185D01*
X72184878Y-89288671D01*
X72177369Y-89279902D01*
X72177368Y-89279901D01*
X72177361Y-89279893D01*
X72177360Y-89279894D01*
X72177336Y-89279873D01*
X72162854Y-89262959D01*
X72162851Y-89262956D01*
X72162679Y-89262755D01*
X72162608Y-89262703D01*
X72162586Y-89262680D01*
X72117189Y-89209724D01*
X72117184Y-89209719D01*
X72113875Y-89205859D01*
X71964752Y-89080129D01*
X71960372Y-89077513D01*
X71960362Y-89077506D01*
X71842030Y-89006833D01*
X71793802Y-88954732D01*
X71781398Y-88884827D01*
X71808757Y-88819314D01*
X71871907Y-88777539D01*
X72436294Y-88615703D01*
X73084105Y-88429946D01*
X73096138Y-88427127D01*
X73121782Y-88422432D01*
X73217944Y-88404828D01*
X73242558Y-88402783D01*
X73306065Y-88403754D01*
X73360143Y-88404580D01*
X73384677Y-88407375D01*
X73483451Y-88428597D01*
X73499657Y-88432079D01*
X73523180Y-88439609D01*
X73623516Y-88482977D01*
X73678110Y-88528365D01*
X73699499Y-88596063D01*
X73698835Y-88611806D01*
X73693223Y-88665206D01*
X73684129Y-88751727D01*
X73704091Y-88941655D01*
X73763106Y-89123283D01*
X73858593Y-89288671D01*
X73863011Y-89293578D01*
X73863012Y-89293579D01*
X73916704Y-89353210D01*
X73986380Y-89430593D01*
X74053049Y-89479031D01*
X74133080Y-89537177D01*
X74140881Y-89542845D01*
X74146909Y-89545529D01*
X74146911Y-89545530D01*
X74309314Y-89617836D01*
X74315345Y-89620521D01*
X74408746Y-89640374D01*
X74495689Y-89658855D01*
X74495694Y-89658855D01*
X74502146Y-89660227D01*
X74693120Y-89660227D01*
X74699572Y-89658855D01*
X74699577Y-89658855D01*
X74786520Y-89640374D01*
X74879921Y-89620521D01*
X74885952Y-89617836D01*
X75048355Y-89545530D01*
X75048357Y-89545529D01*
X75054385Y-89542845D01*
X75062187Y-89537177D01*
X75142217Y-89479031D01*
X75208886Y-89430593D01*
X75278562Y-89353210D01*
X75332254Y-89293579D01*
X75332255Y-89293578D01*
X75336673Y-89288671D01*
X75432160Y-89123283D01*
X75491175Y-88941655D01*
X75511137Y-88751727D01*
X75502043Y-88665206D01*
X75491865Y-88568362D01*
X75491865Y-88568360D01*
X75491175Y-88561799D01*
X75432160Y-88380171D01*
X75420147Y-88359363D01*
X75339974Y-88220501D01*
X75336673Y-88214783D01*
X75230508Y-88096874D01*
X75213308Y-88077772D01*
X75213307Y-88077771D01*
X75208886Y-88072861D01*
X75054385Y-87960609D01*
X75048357Y-87957925D01*
X75048355Y-87957924D01*
X74885956Y-87885620D01*
X74879921Y-87882933D01*
X74873963Y-87881667D01*
X74814444Y-87840377D01*
X74769097Y-87783367D01*
X74666032Y-87683837D01*
X74584086Y-87604701D01*
X74584083Y-87604699D01*
X74581121Y-87601838D01*
X74563614Y-87588883D01*
X74374370Y-87448849D01*
X74371059Y-87446399D01*
X74367458Y-87444403D01*
X74367452Y-87444399D01*
X74270365Y-87390582D01*
X74220483Y-87340062D01*
X74205833Y-87270593D01*
X74231066Y-87204232D01*
X74249622Y-87184570D01*
X74305507Y-87136840D01*
X74305512Y-87136835D01*
X74309268Y-87133627D01*
X74473698Y-86941105D01*
X74605986Y-86725231D01*
X74621172Y-86688570D01*
X74700981Y-86495893D01*
X74700982Y-86495891D01*
X74702875Y-86491320D01*
X74724591Y-86400867D01*
X74760824Y-86249945D01*
X74760825Y-86249939D01*
X74761979Y-86245132D01*
X74768624Y-86160706D01*
X74793908Y-86094365D01*
X74851046Y-86052225D01*
X74923649Y-86048073D01*
X75126736Y-86096830D01*
X75126742Y-86096831D01*
X75131549Y-86097985D01*
X75383952Y-86117850D01*
X75636355Y-86097985D01*
X75641162Y-86096831D01*
X75641168Y-86096830D01*
X75797920Y-86059197D01*
X75882543Y-86038881D01*
X75893383Y-86034391D01*
X76111880Y-85943887D01*
X76111884Y-85943885D01*
X76116454Y-85941992D01*
X76332328Y-85809704D01*
X76524850Y-85645274D01*
X76689280Y-85452752D01*
X76691862Y-85448539D01*
X76691869Y-85448529D01*
X76790767Y-85287143D01*
X76843414Y-85239512D01*
X76908085Y-85227366D01*
X77062227Y-85239497D01*
X77067157Y-85239885D01*
X77319560Y-85220020D01*
X77324367Y-85218866D01*
X77324373Y-85218865D01*
X77481125Y-85181232D01*
X77565748Y-85160916D01*
X77639983Y-85130167D01*
X77795085Y-85065922D01*
X77795089Y-85065920D01*
X77799659Y-85064027D01*
X78015533Y-84931739D01*
X78208055Y-84767309D01*
X78372485Y-84574787D01*
X78504773Y-84358913D01*
X78512843Y-84339432D01*
X78599768Y-84129575D01*
X78599769Y-84129573D01*
X78601662Y-84125002D01*
X78632502Y-83996545D01*
X78659611Y-83883627D01*
X78659612Y-83883621D01*
X78660766Y-83878814D01*
X78678694Y-83651026D01*
X78680243Y-83631344D01*
X78680243Y-83631341D01*
X78680631Y-83626411D01*
X78680242Y-83621473D01*
X78680242Y-83616530D01*
X78681876Y-83616530D01*
X78695008Y-83554054D01*
X78701100Y-83544349D01*
X78701168Y-83544269D01*
X78833456Y-83328395D01*
X78836288Y-83321560D01*
X78928451Y-83099057D01*
X78928452Y-83099055D01*
X78930345Y-83094484D01*
X78956944Y-82983689D01*
X78988294Y-82853109D01*
X78988295Y-82853103D01*
X78989449Y-82848296D01*
X79009314Y-82595893D01*
X78989449Y-82343490D01*
X78987980Y-82337369D01*
X78943071Y-82150309D01*
X78930345Y-82097302D01*
X78903598Y-82032729D01*
X78835351Y-81867965D01*
X78835349Y-81867961D01*
X78833456Y-81863391D01*
X78701168Y-81647517D01*
X78536738Y-81454995D01*
X78344216Y-81290565D01*
X78128342Y-81158277D01*
X78123772Y-81156384D01*
X78123768Y-81156382D01*
X77899004Y-81063282D01*
X77899002Y-81063281D01*
X77894431Y-81061388D01*
X77794359Y-81037363D01*
X77653056Y-81003439D01*
X77653050Y-81003438D01*
X77648243Y-81002284D01*
X77395840Y-80982419D01*
X77143437Y-81002284D01*
X77138630Y-81003438D01*
X77138624Y-81003439D01*
X76997321Y-81037363D01*
X76897249Y-81061388D01*
X76892678Y-81063281D01*
X76892676Y-81063282D01*
X76667912Y-81156382D01*
X76667908Y-81156384D01*
X76663338Y-81158277D01*
X76447464Y-81290565D01*
X76254942Y-81454995D01*
X76090512Y-81647517D01*
X75958224Y-81863391D01*
X75956331Y-81867961D01*
X75956329Y-81867965D01*
X75888082Y-82032729D01*
X75861335Y-82097302D01*
X75848609Y-82150309D01*
X75803701Y-82337369D01*
X75802231Y-82343490D01*
X75795857Y-82424476D01*
X75783471Y-82581857D01*
X75782366Y-82595893D01*
X75782755Y-82600831D01*
X75782755Y-82605774D01*
X75781121Y-82605774D01*
X75767989Y-82668250D01*
X75761897Y-82677955D01*
X75761829Y-82678035D01*
X75761086Y-82679247D01*
X75761048Y-82679308D01*
X75660342Y-82843644D01*
X75607695Y-82891275D01*
X75543024Y-82903421D01*
X75388882Y-82891290D01*
X75383952Y-82890902D01*
X75131549Y-82910767D01*
X75126742Y-82911921D01*
X75126736Y-82911922D01*
X74981522Y-82946785D01*
X74885361Y-82969871D01*
X74880790Y-82971764D01*
X74880788Y-82971765D01*
X74656024Y-83064865D01*
X74656020Y-83064867D01*
X74651450Y-83066760D01*
X74435576Y-83199048D01*
X74243054Y-83363478D01*
X74078624Y-83556000D01*
X73946336Y-83771874D01*
X73944443Y-83776444D01*
X73944441Y-83776448D01*
X73876799Y-83939751D01*
X73849447Y-84005785D01*
X73831511Y-84080495D01*
X73798452Y-84218197D01*
X73790343Y-84251973D01*
X73789394Y-84264042D01*
X73783699Y-84336398D01*
X73758414Y-84402740D01*
X73701276Y-84444880D01*
X73628673Y-84449032D01*
X73425586Y-84400275D01*
X73425580Y-84400274D01*
X73420773Y-84399120D01*
X73168370Y-84379255D01*
X72915967Y-84399120D01*
X72911160Y-84400274D01*
X72911154Y-84400275D01*
X72754402Y-84437908D01*
X72669779Y-84458224D01*
X72665208Y-84460117D01*
X72665206Y-84460118D01*
X72440442Y-84553218D01*
X72440438Y-84553220D01*
X72435868Y-84555113D01*
X72219994Y-84687401D01*
X72027472Y-84851831D01*
X71863042Y-85044353D01*
X71754284Y-85221830D01*
X71701637Y-85269460D01*
X71631596Y-85281067D01*
X71576431Y-85259362D01*
X71576120Y-85259869D01*
X71573251Y-85258111D01*
X71573252Y-85258111D01*
X71571902Y-85257284D01*
X71571899Y-85257282D01*
X71364466Y-85130167D01*
X71360246Y-85127581D01*
X71355676Y-85125688D01*
X71355672Y-85125686D01*
X71130908Y-85032586D01*
X71130906Y-85032585D01*
X71126335Y-85030692D01*
X71035256Y-85008826D01*
X70884960Y-84972743D01*
X70884954Y-84972742D01*
X70880147Y-84971588D01*
X70627744Y-84951723D01*
X70375341Y-84971588D01*
X70370534Y-84972742D01*
X70370528Y-84972743D01*
X70150342Y-85025605D01*
X70079434Y-85022058D01*
X70021700Y-84980738D01*
X69995470Y-84914764D01*
X70009073Y-84845083D01*
X70022417Y-84824526D01*
X70027551Y-84818088D01*
X70036837Y-84806444D01*
X70053769Y-84777118D01*
X70116941Y-84667700D01*
X70168618Y-84578192D01*
X70246631Y-84379419D01*
X70263185Y-84337241D01*
X70263185Y-84337239D01*
X70264909Y-84332848D01*
X70311305Y-84129575D01*
X70322507Y-84080495D01*
X70322507Y-84080493D01*
X70323557Y-84075894D01*
X70325055Y-84055915D01*
X70342901Y-83817765D01*
X70343253Y-83813068D01*
X70330072Y-83637177D01*
X70323910Y-83554947D01*
X70323909Y-83554942D01*
X70323557Y-83550242D01*
X70321919Y-83543063D01*
X70265959Y-83297888D01*
X70265959Y-83297887D01*
X70264909Y-83293288D01*
X70168618Y-83047944D01*
X70078174Y-82891290D01*
X70039193Y-82823772D01*
X70039190Y-82823768D01*
X70036837Y-82819692D01*
X70033905Y-82816015D01*
X70033902Y-82816011D01*
X69955255Y-82717391D01*
X69928421Y-82651660D01*
X69941383Y-82581857D01*
X69990026Y-82530143D01*
X70058906Y-82512936D01*
X70126566Y-82535991D01*
X70154163Y-82555527D01*
X70154176Y-82555535D01*
X70157336Y-82557772D01*
X70160746Y-82559603D01*
X70160749Y-82559605D01*
X70439263Y-82709164D01*
X70439270Y-82709167D01*
X70442670Y-82710993D01*
X70601498Y-82772523D01*
X70733297Y-82823582D01*
X70744670Y-82827988D01*
X70806918Y-82843644D01*
X71054988Y-82906037D01*
X71054995Y-82906038D01*
X71058759Y-82906985D01*
X71380175Y-82946785D01*
X71622997Y-82946785D01*
X71636434Y-82945956D01*
X71861498Y-82932075D01*
X71861505Y-82932074D01*
X71865366Y-82931836D01*
X72183722Y-82872325D01*
X72492352Y-82774143D01*
X72614620Y-82717891D01*
X72783055Y-82640399D01*
X72783063Y-82640395D01*
X72786577Y-82638778D01*
X72789880Y-82636733D01*
X73058629Y-82470331D01*
X73058631Y-82470330D01*
X73061938Y-82468282D01*
X73213696Y-82346163D01*
X73311236Y-82267673D01*
X73311240Y-82267670D01*
X73314259Y-82265240D01*
X73539716Y-82032729D01*
X73734892Y-81774275D01*
X73738075Y-81768763D01*
X73801106Y-81659588D01*
X73896827Y-81493795D01*
X73940250Y-81391205D01*
X74021554Y-81199117D01*
X74021557Y-81199109D01*
X74023067Y-81195541D01*
X74111699Y-80884034D01*
X74113616Y-80871688D01*
X74154877Y-80605875D01*
X74161378Y-80563996D01*
X74161498Y-80560110D01*
X74171232Y-80244153D01*
X74171232Y-80244147D01*
X74171351Y-80240279D01*
X74141468Y-79917790D01*
X74114196Y-79793259D01*
X74073012Y-79605207D01*
X74073011Y-79605204D01*
X74072182Y-79601418D01*
X74064420Y-79579392D01*
X73965832Y-79299618D01*
X73965830Y-79299614D01*
X73964542Y-79295958D01*
X73954041Y-79274868D01*
X73821908Y-79009510D01*
X73821907Y-79009508D01*
X73820180Y-79006040D01*
X73796770Y-78970710D01*
X75446047Y-78970710D01*
X75447014Y-78977022D01*
X75447014Y-78977024D01*
X75473325Y-79148775D01*
X75476089Y-79166820D01*
X75544994Y-79352867D01*
X75649939Y-79521236D01*
X75786628Y-79665033D01*
X75791867Y-79668680D01*
X75791870Y-79668682D01*
X75931578Y-79765921D01*
X75949465Y-79778371D01*
X76131784Y-79856610D01*
X76138042Y-79857896D01*
X76138045Y-79857897D01*
X76221908Y-79875131D01*
X76326120Y-79896547D01*
X76474792Y-79896547D01*
X76622698Y-79881506D01*
X76628790Y-79879595D01*
X76628793Y-79879594D01*
X76697570Y-79858016D01*
X76747637Y-79852845D01*
X76761747Y-79854234D01*
X76777441Y-79855780D01*
X76880657Y-79855780D01*
X76883730Y-79855477D01*
X76883737Y-79855477D01*
X76961869Y-79847781D01*
X77034983Y-79840580D01*
X77040903Y-79838784D01*
X77040909Y-79838783D01*
X77190981Y-79793259D01*
X77233003Y-79780512D01*
X77415499Y-79682965D01*
X77575459Y-79551690D01*
X77706734Y-79391730D01*
X77804281Y-79209234D01*
X77837730Y-79098967D01*
X77862552Y-79017140D01*
X77862553Y-79017134D01*
X77864349Y-79011214D01*
X77884632Y-78805280D01*
X77864349Y-78599346D01*
X77862553Y-78593426D01*
X77862552Y-78593420D01*
X77815044Y-78436807D01*
X77804281Y-78401326D01*
X77706734Y-78218830D01*
X77575459Y-78058870D01*
X77415499Y-77927595D01*
X77233003Y-77830048D01*
X77133235Y-77799784D01*
X77040909Y-77771777D01*
X77040903Y-77771776D01*
X77034983Y-77769980D01*
X76961869Y-77762779D01*
X76883737Y-77755083D01*
X76883730Y-77755083D01*
X76880657Y-77754780D01*
X76777441Y-77754780D01*
X76774368Y-77755083D01*
X76774361Y-77755083D01*
X76696229Y-77762779D01*
X76623115Y-77769980D01*
X76617195Y-77771776D01*
X76617189Y-77771777D01*
X76524863Y-77799784D01*
X76425095Y-77830048D01*
X76242599Y-77927595D01*
X76237818Y-77931519D01*
X76237812Y-77931523D01*
X76205479Y-77958057D01*
X76163266Y-77980879D01*
X76038641Y-78019980D01*
X75865173Y-78116263D01*
X75860328Y-78120422D01*
X75860327Y-78120423D01*
X75837399Y-78140106D01*
X75714637Y-78245494D01*
X75710728Y-78250544D01*
X75710727Y-78250545D01*
X75597107Y-78397329D01*
X75597105Y-78397333D01*
X75593197Y-78402381D01*
X75505824Y-78580503D01*
X75504223Y-78586685D01*
X75504223Y-78586686D01*
X75461098Y-78753245D01*
X75456095Y-78772567D01*
X75455772Y-78778941D01*
X75455771Y-78778946D01*
X75451118Y-78870715D01*
X75446047Y-78970710D01*
X73796770Y-78970710D01*
X73687152Y-78805280D01*
X73643429Y-78739294D01*
X73643423Y-78739286D01*
X73641286Y-78736061D01*
X73633249Y-78726680D01*
X73433096Y-78493061D01*
X73433092Y-78493057D01*
X73430569Y-78490112D01*
X73427705Y-78487501D01*
X73427700Y-78487496D01*
X73221032Y-78299094D01*
X73191226Y-78271922D01*
X72926884Y-78084798D01*
X72923471Y-78082965D01*
X72644957Y-77933406D01*
X72644950Y-77933403D01*
X72641550Y-77931577D01*
X72397464Y-77837018D01*
X72343172Y-77815985D01*
X72343170Y-77815984D01*
X72339550Y-77814582D01*
X72235495Y-77788411D01*
X72029232Y-77736533D01*
X72029225Y-77736532D01*
X72025461Y-77735585D01*
X71704045Y-77695785D01*
X71461223Y-77695785D01*
X71447786Y-77696614D01*
X71222722Y-77710495D01*
X71222715Y-77710496D01*
X71218854Y-77710734D01*
X70900498Y-77770245D01*
X70591868Y-77868427D01*
X70588346Y-77870047D01*
X70588347Y-77870047D01*
X70301165Y-78002171D01*
X70301157Y-78002175D01*
X70297643Y-78003792D01*
X70294342Y-78005836D01*
X70294340Y-78005837D01*
X70067546Y-78146262D01*
X70022282Y-78174288D01*
X70019251Y-78176727D01*
X69773365Y-78374591D01*
X69769961Y-78377330D01*
X69544504Y-78609841D01*
X69349328Y-78868295D01*
X69347387Y-78871657D01*
X69347385Y-78871660D01*
X69311704Y-78933461D01*
X69187393Y-79148775D01*
X69173708Y-79181108D01*
X69062666Y-79443453D01*
X69062663Y-79443461D01*
X69061153Y-79447029D01*
X68972521Y-79758536D01*
X68971926Y-79762370D01*
X68971925Y-79762374D01*
X68951169Y-79896090D01*
X68922842Y-80078574D01*
X68922722Y-80082455D01*
X68922722Y-80082460D01*
X68913058Y-80396163D01*
X68912869Y-80402291D01*
X68942752Y-80724780D01*
X68943581Y-80728565D01*
X69000398Y-80988000D01*
X69012038Y-81041152D01*
X69013328Y-81044812D01*
X69013328Y-81044813D01*
X69102352Y-81297443D01*
X69119678Y-81346612D01*
X69121403Y-81350076D01*
X69121405Y-81350081D01*
X69262312Y-81633060D01*
X69264040Y-81636530D01*
X69325382Y-81729104D01*
X69440791Y-81903276D01*
X69440797Y-81903284D01*
X69442934Y-81906509D01*
X69445458Y-81909455D01*
X69592457Y-82081033D01*
X69621588Y-82145778D01*
X69611091Y-82215994D01*
X69564298Y-82269389D01*
X69496066Y-82289009D01*
X69442106Y-82276534D01*
X69224076Y-82171536D01*
X68972222Y-82093850D01*
X68967572Y-82093149D01*
X68967567Y-82093148D01*
X68830355Y-82072467D01*
X68711603Y-82054568D01*
X68448041Y-82054568D01*
X68329289Y-82072467D01*
X68192077Y-82093148D01*
X68192072Y-82093149D01*
X68187422Y-82093850D01*
X68107210Y-82118592D01*
X67940076Y-82170145D01*
X67940070Y-82170147D01*
X67935568Y-82171536D01*
X67900436Y-82188455D01*
X67725857Y-82272528D01*
X67655803Y-82284063D01*
X67590634Y-82255894D01*
X67551040Y-82196963D01*
X67549592Y-82125981D01*
X67558064Y-82103516D01*
X67562124Y-82095239D01*
X67578396Y-82062067D01*
X67580338Y-82054568D01*
X67626525Y-81876184D01*
X67626526Y-81876180D01*
X67628125Y-81870003D01*
X67628448Y-81863629D01*
X67628449Y-81863624D01*
X67637274Y-81689586D01*
X67638173Y-81671860D01*
X67636439Y-81660537D01*
X67609098Y-81482062D01*
X67609098Y-81482061D01*
X67608131Y-81475750D01*
X67539226Y-81289703D01*
X67434281Y-81121334D01*
X67297592Y-80977537D01*
X67292353Y-80973890D01*
X67292350Y-80973888D01*
X67140002Y-80867851D01*
X67134755Y-80864199D01*
X66952436Y-80785960D01*
X66946178Y-80784674D01*
X66946175Y-80784673D01*
X66828147Y-80760418D01*
X66758100Y-80746023D01*
X66609428Y-80746023D01*
X66461522Y-80761064D01*
X66455430Y-80762975D01*
X66455427Y-80762976D01*
X66386650Y-80784554D01*
X66336583Y-80789725D01*
X66322473Y-80788336D01*
X66306779Y-80786790D01*
X66203563Y-80786790D01*
X66200490Y-80787093D01*
X66200483Y-80787093D01*
X66122351Y-80794789D01*
X66049237Y-80801990D01*
X66043317Y-80803786D01*
X66043311Y-80803787D01*
X65926920Y-80839094D01*
X65851217Y-80862058D01*
X65668721Y-80959605D01*
X65508761Y-81090880D01*
X65422869Y-81195541D01*
X65382535Y-81244688D01*
X65323858Y-81284657D01*
X65252886Y-81286558D01*
X65192154Y-81249788D01*
X65164016Y-81199485D01*
X63931928Y-76902674D01*
X63932379Y-76831680D01*
X63971141Y-76772199D01*
X64035907Y-76743116D01*
X64053047Y-76741945D01*
X64091682Y-76741945D01*
X64098134Y-76740573D01*
X64098139Y-76740573D01*
X64221049Y-76714447D01*
X64271016Y-76703826D01*
X64341806Y-76709228D01*
X64398438Y-76752045D01*
X64422932Y-76818682D01*
X64422767Y-76825778D01*
X64423091Y-76825772D01*
X64423235Y-76834028D01*
X64422300Y-76842235D01*
X64445671Y-76998613D01*
X64448961Y-77006180D01*
X64448962Y-77006183D01*
X64466966Y-77047589D01*
X64508719Y-77143614D01*
X64607147Y-77267356D01*
X64613788Y-77272270D01*
X64613789Y-77272271D01*
X64702223Y-77337708D01*
X64734249Y-77361406D01*
X64881362Y-77419355D01*
X64977789Y-77430342D01*
X65030253Y-77436320D01*
X65030254Y-77436320D01*
X65038460Y-77437255D01*
X65084715Y-77430342D01*
X65151493Y-77420362D01*
X65151496Y-77420361D01*
X65155573Y-77419752D01*
X65159536Y-77418616D01*
X65159539Y-77418615D01*
X65804040Y-77233808D01*
X65804045Y-77233806D01*
X65808004Y-77232671D01*
X65824490Y-77225503D01*
X65909021Y-77188748D01*
X65909020Y-77188748D01*
X65916597Y-77185454D01*
X66040339Y-77087026D01*
X66046783Y-77078318D01*
X66129474Y-76966567D01*
X66129476Y-76966564D01*
X66134389Y-76959924D01*
X66192339Y-76812811D01*
X66204937Y-76702239D01*
X66209303Y-76663920D01*
X66209303Y-76663919D01*
X66210238Y-76655713D01*
X66186867Y-76499335D01*
X66183577Y-76491768D01*
X66183576Y-76491765D01*
X66135988Y-76382322D01*
X66123819Y-76354334D01*
X66025391Y-76230592D01*
X66006167Y-76216367D01*
X65904932Y-76141457D01*
X65904929Y-76141455D01*
X65898289Y-76136542D01*
X65890605Y-76133515D01*
X65890601Y-76133513D01*
X65758863Y-76081619D01*
X65758859Y-76081618D01*
X65751177Y-76078592D01*
X65664592Y-76068727D01*
X65602285Y-76061628D01*
X65594078Y-76060693D01*
X65566304Y-76064844D01*
X65481045Y-76077586D01*
X65481042Y-76077587D01*
X65476965Y-76078196D01*
X65473002Y-76079332D01*
X65472999Y-76079333D01*
X65037553Y-76204194D01*
X64966558Y-76203743D01*
X64907077Y-76164981D01*
X64877994Y-76100214D01*
X64882989Y-76044140D01*
X64889737Y-76023373D01*
X64897051Y-75953790D01*
X64909009Y-75840010D01*
X64909699Y-75833445D01*
X64902387Y-75763872D01*
X64890427Y-75650080D01*
X64890427Y-75650078D01*
X64889737Y-75643517D01*
X64830722Y-75461889D01*
X64825579Y-75452980D01*
X64782117Y-75377703D01*
X64735235Y-75296501D01*
X64728669Y-75289208D01*
X64611870Y-75159490D01*
X64611869Y-75159489D01*
X64607448Y-75154579D01*
X64508352Y-75082581D01*
X64458289Y-75046208D01*
X64458288Y-75046207D01*
X64452947Y-75042327D01*
X64446919Y-75039643D01*
X64446917Y-75039642D01*
X64284514Y-74967336D01*
X64284513Y-74967336D01*
X64278483Y-74964651D01*
X64166970Y-74940948D01*
X64098139Y-74926317D01*
X64098134Y-74926317D01*
X64091682Y-74924945D01*
X63900708Y-74924945D01*
X63894256Y-74926317D01*
X63894251Y-74926317D01*
X63825420Y-74940948D01*
X63713907Y-74964651D01*
X63707877Y-74967336D01*
X63707876Y-74967336D01*
X63545473Y-75039642D01*
X63545471Y-75039643D01*
X63539443Y-75042327D01*
X63534102Y-75046207D01*
X63534101Y-75046208D01*
X63484038Y-75082581D01*
X63384942Y-75154579D01*
X63380521Y-75159489D01*
X63380520Y-75159490D01*
X63263722Y-75289208D01*
X63257155Y-75296501D01*
X63210273Y-75377703D01*
X63165360Y-75455494D01*
X63126703Y-75496950D01*
X63063411Y-75539644D01*
X63063403Y-75539650D01*
X63059303Y-75542416D01*
X62995256Y-75602143D01*
X62945942Y-75648131D01*
X62909253Y-75682345D01*
X62782939Y-75844024D01*
X62747190Y-75908518D01*
X62691579Y-76008846D01*
X62683472Y-76023471D01*
X62613300Y-76216269D01*
X62612357Y-76221121D01*
X62612356Y-76221124D01*
X62588633Y-76343166D01*
X62574150Y-76417671D01*
X62573977Y-76422614D01*
X62573977Y-76422617D01*
X62571827Y-76484176D01*
X62566988Y-76622717D01*
X62567591Y-76627628D01*
X62567591Y-76627630D01*
X62569568Y-76643735D01*
X62591988Y-76826359D01*
X62595165Y-76837437D01*
X62598204Y-76848036D01*
X62598207Y-76848052D01*
X62598207Y-76848055D01*
X62598208Y-76848060D01*
X62598209Y-76848063D01*
X62598910Y-76850506D01*
X62622776Y-76933736D01*
X62641463Y-76998913D01*
X62641466Y-76998919D01*
X65337426Y-86400867D01*
X65356141Y-86466135D01*
X65355690Y-86537130D01*
X65316928Y-86596611D01*
X65309451Y-86599969D01*
X65355007Y-86605438D01*
X65409731Y-86650668D01*
X65422745Y-86675479D01*
X65534115Y-86961220D01*
X65535423Y-86963833D01*
X65688956Y-87270593D01*
X65701868Y-87296392D01*
X65899830Y-87614655D01*
X66126314Y-87913295D01*
X66379388Y-88189764D01*
X66381537Y-88191715D01*
X66381545Y-88191723D01*
X66515394Y-88313241D01*
X66656891Y-88441703D01*
X66659219Y-88443454D01*
X66659222Y-88443456D01*
X66744524Y-88507599D01*
X66956456Y-88666962D01*
X66958940Y-88668493D01*
X67273045Y-88862089D01*
X67273051Y-88862092D01*
X67275528Y-88863619D01*
X67611384Y-89029998D01*
X67961158Y-89164677D01*
X67963948Y-89165465D01*
X67963952Y-89165466D01*
X68319054Y-89265715D01*
X68319063Y-89265717D01*
X68321868Y-89266509D01*
X68583336Y-89314831D01*
X68646688Y-89346880D01*
X68682655Y-89408091D01*
X68679820Y-89479031D01*
X68639082Y-89537177D01*
X68594322Y-89560091D01*
X66795134Y-90062438D01*
X66795132Y-90062438D01*
X66782973Y-90065833D01*
X66764271Y-90071055D01*
X66764259Y-90071058D01*
X66762724Y-90071487D01*
X66757605Y-90072650D01*
X66755096Y-90073250D01*
X66755091Y-90073251D01*
X66755085Y-90073222D01*
X66750631Y-90074234D01*
X66672940Y-90087899D01*
X66614577Y-90098165D01*
X66589948Y-90100039D01*
X66524008Y-90098573D01*
X66458066Y-90097106D01*
X66433546Y-90094139D01*
X66306121Y-90065833D01*
X66243958Y-90031534D01*
X66213408Y-89981138D01*
X66098764Y-89621893D01*
X65641046Y-88187611D01*
X65185314Y-86759548D01*
X65183659Y-86688570D01*
X65220640Y-86627966D01*
X65231670Y-86622615D01*
X65181953Y-86615144D01*
X65128594Y-86568312D01*
X65114986Y-86539172D01*
X63716426Y-82156711D01*
X63715103Y-82152288D01*
X63695812Y-82083193D01*
X62907041Y-79258113D01*
X62907041Y-79258110D01*
X62392616Y-77415687D01*
X61847113Y-75461955D01*
X61844371Y-75449872D01*
X61820472Y-75313833D01*
X61818604Y-75289208D01*
X61818698Y-75285036D01*
X61821559Y-75157337D01*
X61824528Y-75132822D01*
X61826421Y-75124308D01*
X61850779Y-75014711D01*
X61853149Y-75004049D01*
X61860844Y-74980584D01*
X61914029Y-74859873D01*
X61926152Y-74838360D01*
X61972423Y-74772340D01*
X62001862Y-74730337D01*
X62017942Y-74711607D01*
X62113270Y-74620423D01*
X62132700Y-74605185D01*
X62211482Y-74555034D01*
X62243982Y-74534345D01*
X62247112Y-74532760D01*
X67793871Y-74532760D01*
X67800258Y-74555034D01*
X67800258Y-74555035D01*
X68648347Y-77512670D01*
X68648347Y-77512671D01*
X68673575Y-77600652D01*
X68683022Y-77611249D01*
X68685541Y-77615821D01*
X68689855Y-77621917D01*
X68693327Y-77625812D01*
X68700177Y-77638243D01*
X68711742Y-77646471D01*
X68715209Y-77650360D01*
X68720776Y-77655348D01*
X68725031Y-77658375D01*
X68734478Y-77668972D01*
X68747586Y-77674421D01*
X68751840Y-77677447D01*
X68758370Y-77681066D01*
X68763186Y-77683068D01*
X68774756Y-77691299D01*
X68788750Y-77693695D01*
X68793571Y-77695699D01*
X68800741Y-77697774D01*
X68805881Y-77698654D01*
X68818993Y-77704104D01*
X68833172Y-77703325D01*
X68838324Y-77704207D01*
X68845751Y-77704634D01*
X68850975Y-77704347D01*
X68864969Y-77706743D01*
X68887243Y-77700356D01*
X68887244Y-77700356D01*
X68887247Y-77700355D01*
X68887248Y-77700355D01*
X70197447Y-77324661D01*
X72209920Y-76747593D01*
X76764686Y-76747593D01*
X76765376Y-76754158D01*
X76782248Y-76914682D01*
X76784648Y-76937521D01*
X76843663Y-77119149D01*
X76846966Y-77124871D01*
X76846967Y-77124872D01*
X76861522Y-77150081D01*
X76939150Y-77284537D01*
X76943568Y-77289444D01*
X76943569Y-77289445D01*
X77060898Y-77419752D01*
X77066937Y-77426459D01*
X77221438Y-77538711D01*
X77227466Y-77541395D01*
X77227468Y-77541396D01*
X77389871Y-77613702D01*
X77395902Y-77616387D01*
X77489303Y-77636240D01*
X77576246Y-77654721D01*
X77576251Y-77654721D01*
X77582703Y-77656093D01*
X77773677Y-77656093D01*
X77780129Y-77654721D01*
X77780134Y-77654721D01*
X77867077Y-77636240D01*
X77960478Y-77616387D01*
X77966509Y-77613702D01*
X78128912Y-77541396D01*
X78128914Y-77541395D01*
X78134942Y-77538711D01*
X78289443Y-77426459D01*
X78295482Y-77419752D01*
X78412811Y-77289445D01*
X78412812Y-77289444D01*
X78417230Y-77284537D01*
X78453930Y-77220971D01*
X78505311Y-77171979D01*
X78528318Y-77162853D01*
X78529480Y-77162520D01*
X80463272Y-76608013D01*
X85901699Y-75048567D01*
X85936427Y-75043686D01*
X86068593Y-75043684D01*
X86071391Y-75043684D01*
X86111327Y-75043683D01*
X86111601Y-75043648D01*
X86112180Y-75043630D01*
X86157475Y-75043635D01*
X86162892Y-75042680D01*
X86162897Y-75042680D01*
X86321613Y-75014711D01*
X86321614Y-75014711D01*
X86327032Y-75013756D01*
X86418200Y-74980584D01*
X86483653Y-74956769D01*
X86483658Y-74956767D01*
X86488824Y-74954887D01*
X86564773Y-74911048D01*
X86633164Y-74871572D01*
X86633168Y-74871569D01*
X86637936Y-74868817D01*
X86769835Y-74758161D01*
X86880515Y-74626281D01*
X86883267Y-74621516D01*
X86963862Y-74481948D01*
X86963864Y-74481944D01*
X86966612Y-74477185D01*
X87025510Y-74315404D01*
X87055419Y-74145852D01*
X87055419Y-74139803D01*
X87055421Y-74139769D01*
X87055426Y-74139752D01*
X87055426Y-74054292D01*
X87055431Y-73982847D01*
X87055427Y-73982830D01*
X87055426Y-73982811D01*
X87055426Y-73919855D01*
X91334814Y-73919855D01*
X91340975Y-73932647D01*
X91342138Y-73937743D01*
X91344598Y-73944773D01*
X91346865Y-73949480D01*
X91350024Y-73963323D01*
X91358876Y-73974423D01*
X91361142Y-73979128D01*
X91365109Y-73985442D01*
X91368368Y-73989528D01*
X91374526Y-74002316D01*
X91385623Y-74011166D01*
X91388871Y-74015239D01*
X91394167Y-74020535D01*
X91398240Y-74023783D01*
X91407090Y-74034880D01*
X91419878Y-74041038D01*
X91423964Y-74044297D01*
X91430278Y-74048264D01*
X91434983Y-74050530D01*
X91446083Y-74059382D01*
X91459926Y-74062541D01*
X91464633Y-74064808D01*
X91471663Y-74067268D01*
X91476759Y-74068431D01*
X91489551Y-74074592D01*
X95181077Y-74074592D01*
X95193869Y-74068431D01*
X95198965Y-74067268D01*
X95205995Y-74064808D01*
X95210702Y-74062541D01*
X95224545Y-74059382D01*
X95235645Y-74050530D01*
X95240350Y-74048264D01*
X95246664Y-74044297D01*
X95250750Y-74041038D01*
X95263538Y-74034880D01*
X95272388Y-74023783D01*
X95276461Y-74020535D01*
X95281757Y-74015239D01*
X95285005Y-74011166D01*
X95296102Y-74002316D01*
X95302260Y-73989528D01*
X95305519Y-73985442D01*
X95309486Y-73979128D01*
X95311752Y-73974423D01*
X95320604Y-73963323D01*
X95323763Y-73949480D01*
X95326030Y-73944773D01*
X95328490Y-73937743D01*
X95329653Y-73932647D01*
X95335814Y-73919855D01*
X95335814Y-71629727D01*
X96638421Y-71629727D01*
X96639111Y-71636292D01*
X96657505Y-71811297D01*
X96658383Y-71819655D01*
X96717398Y-72001283D01*
X96720701Y-72007005D01*
X96720702Y-72007006D01*
X96735932Y-72033385D01*
X96812885Y-72166671D01*
X96817303Y-72171578D01*
X96817304Y-72171579D01*
X96936121Y-72303539D01*
X96940672Y-72308593D01*
X97095173Y-72420845D01*
X97101201Y-72423529D01*
X97101203Y-72423530D01*
X97239241Y-72484988D01*
X97269637Y-72498521D01*
X97355407Y-72516752D01*
X97449981Y-72536855D01*
X97449986Y-72536855D01*
X97456438Y-72538227D01*
X97647412Y-72538227D01*
X97653864Y-72536855D01*
X97653869Y-72536855D01*
X97748443Y-72516752D01*
X97834213Y-72498521D01*
X97864609Y-72484988D01*
X98002647Y-72423530D01*
X98002649Y-72423529D01*
X98008677Y-72420845D01*
X98163178Y-72308593D01*
X98167729Y-72303539D01*
X98286546Y-72171579D01*
X98286547Y-72171578D01*
X98290965Y-72166671D01*
X98367918Y-72033385D01*
X98383148Y-72007006D01*
X98383149Y-72007005D01*
X98386452Y-72001283D01*
X98445467Y-71819655D01*
X98446346Y-71811297D01*
X98464739Y-71636292D01*
X98465429Y-71629727D01*
X98459793Y-71576107D01*
X98446157Y-71446362D01*
X98446157Y-71446360D01*
X98445467Y-71439799D01*
X98386452Y-71258171D01*
X98375118Y-71238539D01*
X98304331Y-71115934D01*
X98290965Y-71092783D01*
X98184546Y-70974592D01*
X98167600Y-70955772D01*
X98167599Y-70955771D01*
X98163178Y-70950861D01*
X98008677Y-70838609D01*
X98002649Y-70835925D01*
X98002647Y-70835924D01*
X97840244Y-70763618D01*
X97840243Y-70763618D01*
X97834213Y-70760933D01*
X97718621Y-70736363D01*
X97653869Y-70722599D01*
X97653864Y-70722599D01*
X97647412Y-70721227D01*
X97456438Y-70721227D01*
X97449986Y-70722599D01*
X97449981Y-70722599D01*
X97385229Y-70736363D01*
X97269637Y-70760933D01*
X97263607Y-70763618D01*
X97263606Y-70763618D01*
X97101203Y-70835924D01*
X97101201Y-70835925D01*
X97095173Y-70838609D01*
X96940672Y-70950861D01*
X96936251Y-70955771D01*
X96936250Y-70955772D01*
X96919305Y-70974592D01*
X96812885Y-71092783D01*
X96799519Y-71115934D01*
X96728733Y-71238539D01*
X96717398Y-71258171D01*
X96658383Y-71439799D01*
X96657693Y-71446360D01*
X96657693Y-71446362D01*
X96644057Y-71576107D01*
X96638421Y-71629727D01*
X95335814Y-71629727D01*
X95335814Y-70728329D01*
X95329653Y-70715537D01*
X95328490Y-70710441D01*
X95326030Y-70703411D01*
X95323763Y-70698704D01*
X95320604Y-70684861D01*
X95311752Y-70673761D01*
X95309486Y-70669056D01*
X95305519Y-70662742D01*
X95302260Y-70658656D01*
X95296102Y-70645868D01*
X95285005Y-70637018D01*
X95281757Y-70632945D01*
X95276461Y-70627649D01*
X95272388Y-70624401D01*
X95263538Y-70613304D01*
X95250750Y-70607146D01*
X95246664Y-70603887D01*
X95240350Y-70599920D01*
X95235645Y-70597654D01*
X95224545Y-70588802D01*
X95210702Y-70585643D01*
X95205995Y-70583376D01*
X95198965Y-70580916D01*
X95193869Y-70579753D01*
X95181077Y-70573592D01*
X91489551Y-70573592D01*
X91476759Y-70579753D01*
X91471663Y-70580916D01*
X91464633Y-70583376D01*
X91459926Y-70585643D01*
X91446083Y-70588802D01*
X91434983Y-70597654D01*
X91430278Y-70599920D01*
X91423964Y-70603887D01*
X91419878Y-70607146D01*
X91407090Y-70613304D01*
X91398240Y-70624401D01*
X91394167Y-70627649D01*
X91388871Y-70632945D01*
X91385623Y-70637018D01*
X91374526Y-70645868D01*
X91368368Y-70658656D01*
X91365109Y-70662742D01*
X91361142Y-70669056D01*
X91358876Y-70673761D01*
X91350024Y-70684861D01*
X91346865Y-70698704D01*
X91344598Y-70703411D01*
X91342138Y-70710441D01*
X91340975Y-70715537D01*
X91334814Y-70728329D01*
X91334814Y-73919855D01*
X87055426Y-73919855D01*
X87055420Y-72306636D01*
X87055421Y-72306633D01*
X87055420Y-72236787D01*
X87056212Y-72222681D01*
X87070790Y-72093285D01*
X87077068Y-72065777D01*
X87117722Y-71949590D01*
X87129965Y-71924168D01*
X87195454Y-71819942D01*
X87213046Y-71797883D01*
X87231175Y-71779754D01*
X87293487Y-71745728D01*
X87364302Y-71750793D01*
X87371508Y-71753738D01*
X87401870Y-71767256D01*
X87418057Y-71774463D01*
X87472152Y-71820443D01*
X87492801Y-71888370D01*
X87483216Y-71937787D01*
X87454545Y-72007006D01*
X87450269Y-72017329D01*
X87429631Y-72174091D01*
X87450269Y-72330853D01*
X87510777Y-72476932D01*
X87607031Y-72602373D01*
X87732472Y-72698627D01*
X87878551Y-72759135D01*
X87886739Y-72760213D01*
X87989215Y-72773704D01*
X87995952Y-72774591D01*
X88674674Y-72774591D01*
X88681412Y-72773704D01*
X88783887Y-72760213D01*
X88792075Y-72759135D01*
X88938154Y-72698627D01*
X89063595Y-72602373D01*
X89159849Y-72476932D01*
X89220357Y-72330853D01*
X89240995Y-72174091D01*
X89220357Y-72017329D01*
X89159849Y-71871250D01*
X89063595Y-71745809D01*
X88938154Y-71649555D01*
X88792075Y-71589047D01*
X88783887Y-71587969D01*
X88678761Y-71574129D01*
X88678760Y-71574129D01*
X88674674Y-71573591D01*
X88621698Y-71573591D01*
X88553577Y-71553589D01*
X88507084Y-71499933D01*
X88496980Y-71429659D01*
X88512579Y-71384591D01*
X88563146Y-71297007D01*
X88563147Y-71297006D01*
X88566450Y-71291284D01*
X88625465Y-71109656D01*
X88626638Y-71098501D01*
X88644737Y-70926293D01*
X88645427Y-70919728D01*
X88629204Y-70765377D01*
X88626155Y-70736363D01*
X88626155Y-70736361D01*
X88625465Y-70729800D01*
X88566450Y-70548172D01*
X88470963Y-70382784D01*
X88391096Y-70294082D01*
X88347598Y-70245773D01*
X88347597Y-70245772D01*
X88343176Y-70240862D01*
X88241909Y-70167287D01*
X88194017Y-70132491D01*
X88194016Y-70132490D01*
X88188675Y-70128610D01*
X88182647Y-70125926D01*
X88182645Y-70125925D01*
X88020242Y-70053619D01*
X88020241Y-70053619D01*
X88014211Y-70050934D01*
X87917061Y-70030284D01*
X87833867Y-70012600D01*
X87833862Y-70012600D01*
X87827410Y-70011228D01*
X87636436Y-70011228D01*
X87629984Y-70012600D01*
X87629979Y-70012600D01*
X87546785Y-70030284D01*
X87449635Y-70050934D01*
X87443605Y-70053619D01*
X87443604Y-70053619D01*
X87281201Y-70125925D01*
X87281199Y-70125926D01*
X87275171Y-70128610D01*
X87269830Y-70132490D01*
X87269829Y-70132491D01*
X87221937Y-70167287D01*
X87120670Y-70240862D01*
X87116249Y-70245772D01*
X87116248Y-70245773D01*
X87086930Y-70278334D01*
X86992883Y-70382784D01*
X86989582Y-70388502D01*
X86989580Y-70388505D01*
X86976769Y-70410695D01*
X86925387Y-70459689D01*
X86915879Y-70464100D01*
X86870489Y-70482900D01*
X86649851Y-70610283D01*
X86646579Y-70612794D01*
X86646577Y-70612795D01*
X86620317Y-70632945D01*
X86447727Y-70765377D01*
X86267577Y-70945527D01*
X86112483Y-71147651D01*
X85985100Y-71368289D01*
X85983524Y-71372094D01*
X85983521Y-71372100D01*
X85948491Y-71456672D01*
X85887605Y-71603667D01*
X85886538Y-71607648D01*
X85886537Y-71607652D01*
X85831493Y-71813092D01*
X85821669Y-71849757D01*
X85812764Y-71917405D01*
X85789640Y-72093069D01*
X85788418Y-72102349D01*
X85788420Y-72200318D01*
X85788425Y-73618685D01*
X85788425Y-73665783D01*
X85768423Y-73733903D01*
X85714768Y-73780396D01*
X85686349Y-73788478D01*
X85686419Y-73788752D01*
X85678742Y-73790723D01*
X85670876Y-73791717D01*
X85663505Y-73794635D01*
X85663503Y-73794636D01*
X85631014Y-73807500D01*
X85619359Y-73811468D01*
X83208470Y-74502780D01*
X78180551Y-75944514D01*
X78109557Y-75944063D01*
X78094578Y-75938504D01*
X77960478Y-75878799D01*
X77867077Y-75858946D01*
X77780134Y-75840465D01*
X77780129Y-75840465D01*
X77773677Y-75839093D01*
X77582703Y-75839093D01*
X77576251Y-75840465D01*
X77576246Y-75840465D01*
X77489303Y-75858946D01*
X77395902Y-75878799D01*
X77389872Y-75881484D01*
X77389871Y-75881484D01*
X77227468Y-75953790D01*
X77227466Y-75953791D01*
X77221438Y-75956475D01*
X77066937Y-76068727D01*
X77062516Y-76073637D01*
X77062515Y-76073638D01*
X76959621Y-76187914D01*
X76939150Y-76210649D01*
X76898021Y-76281887D01*
X76860391Y-76347064D01*
X76843663Y-76376037D01*
X76784648Y-76557665D01*
X76783958Y-76564226D01*
X76783958Y-76564228D01*
X76775201Y-76647544D01*
X76764686Y-76747593D01*
X72209920Y-76747593D01*
X72325510Y-76714448D01*
X72325511Y-76714448D01*
X72413492Y-76689220D01*
X72424089Y-76679773D01*
X72428661Y-76677254D01*
X72434757Y-76672940D01*
X72438652Y-76669468D01*
X72451083Y-76662618D01*
X72459311Y-76651053D01*
X72463200Y-76647586D01*
X72468188Y-76642019D01*
X72471215Y-76637764D01*
X72481812Y-76628317D01*
X72487261Y-76615209D01*
X72490287Y-76610955D01*
X72493906Y-76604425D01*
X72495908Y-76599609D01*
X72504139Y-76588039D01*
X72506535Y-76574044D01*
X72508540Y-76569221D01*
X72510614Y-76562056D01*
X72511494Y-76556914D01*
X72516944Y-76543803D01*
X72516165Y-76529624D01*
X72517047Y-76524472D01*
X72517474Y-76517045D01*
X72517187Y-76511820D01*
X72519583Y-76497826D01*
X72499346Y-76427249D01*
X71701224Y-73643870D01*
X73221939Y-73643870D01*
X73222629Y-73650435D01*
X73239376Y-73809770D01*
X73241901Y-73833798D01*
X73300916Y-74015426D01*
X73304219Y-74021148D01*
X73304220Y-74021149D01*
X73329271Y-74064538D01*
X73396403Y-74180814D01*
X73400821Y-74185721D01*
X73400822Y-74185722D01*
X73509323Y-74306225D01*
X73524190Y-74322736D01*
X73576660Y-74360858D01*
X73666542Y-74426161D01*
X73678691Y-74434988D01*
X73684719Y-74437672D01*
X73684721Y-74437673D01*
X73847124Y-74509979D01*
X73853155Y-74512664D01*
X73923823Y-74527685D01*
X74033499Y-74550998D01*
X74033504Y-74550998D01*
X74039956Y-74552370D01*
X74230930Y-74552370D01*
X74237382Y-74550998D01*
X74237387Y-74550998D01*
X74347063Y-74527685D01*
X74417731Y-74512664D01*
X74423762Y-74509979D01*
X74586165Y-74437673D01*
X74586167Y-74437672D01*
X74592195Y-74434988D01*
X74604345Y-74426161D01*
X74694226Y-74360858D01*
X74746696Y-74322736D01*
X74761563Y-74306225D01*
X74870064Y-74185722D01*
X74870065Y-74185721D01*
X74874483Y-74180814D01*
X74941615Y-74064538D01*
X74966666Y-74021149D01*
X74966667Y-74021148D01*
X74969970Y-74015426D01*
X75028985Y-73833798D01*
X75031511Y-73809770D01*
X75048257Y-73650435D01*
X75048947Y-73643870D01*
X75028985Y-73453942D01*
X74969970Y-73272314D01*
X74944925Y-73228934D01*
X74913794Y-73175014D01*
X74874483Y-73106926D01*
X74828283Y-73055615D01*
X74751118Y-72969915D01*
X74751117Y-72969914D01*
X74746696Y-72965004D01*
X74628157Y-72878880D01*
X74597537Y-72856633D01*
X74597536Y-72856632D01*
X74592195Y-72852752D01*
X74586167Y-72850068D01*
X74586165Y-72850067D01*
X74423762Y-72777761D01*
X74423761Y-72777761D01*
X74417731Y-72775076D01*
X74324331Y-72755223D01*
X74237387Y-72736742D01*
X74237382Y-72736742D01*
X74230930Y-72735370D01*
X74039956Y-72735370D01*
X74033504Y-72736742D01*
X74033499Y-72736742D01*
X73946555Y-72755223D01*
X73853155Y-72775076D01*
X73847125Y-72777761D01*
X73847124Y-72777761D01*
X73684721Y-72850067D01*
X73684719Y-72850068D01*
X73678691Y-72852752D01*
X73673350Y-72856632D01*
X73673349Y-72856633D01*
X73642729Y-72878880D01*
X73524190Y-72965004D01*
X73519769Y-72969914D01*
X73519768Y-72969915D01*
X73442604Y-73055615D01*
X73396403Y-73106926D01*
X73357092Y-73175014D01*
X73325962Y-73228934D01*
X73300916Y-73272314D01*
X73241901Y-73453942D01*
X73221939Y-73643870D01*
X71701224Y-73643870D01*
X71662320Y-73508196D01*
X71639879Y-73429934D01*
X71630432Y-73419337D01*
X71627913Y-73414765D01*
X71623599Y-73408669D01*
X71620127Y-73404774D01*
X71613277Y-73392343D01*
X71601712Y-73384115D01*
X71598245Y-73380226D01*
X71592678Y-73375238D01*
X71588423Y-73372211D01*
X71578976Y-73361614D01*
X71565868Y-73356165D01*
X71561614Y-73353139D01*
X71555084Y-73349520D01*
X71550268Y-73347518D01*
X71538698Y-73339287D01*
X71524704Y-73336891D01*
X71519883Y-73334887D01*
X71512713Y-73332812D01*
X71507573Y-73331932D01*
X71494461Y-73326482D01*
X71480282Y-73327261D01*
X71475130Y-73326379D01*
X71467703Y-73325952D01*
X71462479Y-73326239D01*
X71448485Y-73323843D01*
X71426211Y-73330230D01*
X71426210Y-73330230D01*
X71426207Y-73330231D01*
X71426206Y-73330231D01*
X70540359Y-73584244D01*
X67987944Y-74316138D01*
X67987943Y-74316138D01*
X67899962Y-74341366D01*
X67889365Y-74350813D01*
X67884793Y-74353332D01*
X67878697Y-74357646D01*
X67874802Y-74361118D01*
X67862371Y-74367968D01*
X67854143Y-74379533D01*
X67850254Y-74383000D01*
X67845266Y-74388567D01*
X67842239Y-74392822D01*
X67831642Y-74402269D01*
X67826193Y-74415377D01*
X67823167Y-74419631D01*
X67819548Y-74426161D01*
X67817546Y-74430977D01*
X67809315Y-74442547D01*
X67806919Y-74456541D01*
X67804915Y-74461362D01*
X67802840Y-74468532D01*
X67801960Y-74473672D01*
X67796510Y-74486784D01*
X67797289Y-74500963D01*
X67796407Y-74506115D01*
X67795980Y-74513542D01*
X67796267Y-74518766D01*
X67793871Y-74532760D01*
X62247112Y-74532760D01*
X62266010Y-74523191D01*
X62395264Y-74472971D01*
X62406993Y-74469064D01*
X75119319Y-70919728D01*
X77358737Y-70294473D01*
X77361505Y-70293735D01*
X77392547Y-70285824D01*
X77398106Y-70284540D01*
X77428066Y-70278334D01*
X77433674Y-70277304D01*
X77465510Y-70272200D01*
X77468276Y-70271789D01*
X81078518Y-69777252D01*
X85026296Y-69236479D01*
X85026305Y-69236479D01*
X85026311Y-69236478D01*
X85026314Y-69236478D01*
X85064409Y-69231258D01*
X85067250Y-69230902D01*
X85099003Y-69227284D01*
X85104700Y-69226766D01*
X85135178Y-69224689D01*
X85140888Y-69224429D01*
X85171093Y-69223746D01*
X85173140Y-69223700D01*
X85175988Y-69223668D01*
X85184084Y-69223668D01*
X85214171Y-69223671D01*
X85214171Y-69228299D01*
X85214178Y-69228299D01*
X85214178Y-69223668D01*
X85214333Y-69223668D01*
X101661119Y-69223659D01*
X101662980Y-69223673D01*
G37*
%TD.AperFunction*%
%TD*%
M02*
