%TF.GenerationSoftware,KiCad,Pcbnew,(6.99.0-4085-g6c752680d7)*%
%TF.CreationDate,2022-11-14T16:54:02+08:00*%
%TF.ProjectId,flex_thumbs_right,666c6578-5f74-4687-956d-62735f726967,rev?*%
%TF.SameCoordinates,Original*%
%TF.FileFunction,Copper,L1,Top*%
%TF.FilePolarity,Positive*%
%FSLAX46Y46*%
G04 Gerber Fmt 4.6, Leading zero omitted, Abs format (unit mm)*
G04 Created by KiCad (PCBNEW (6.99.0-4085-g6c752680d7)) date 2022-11-14 16:54:02*
%MOMM*%
%LPD*%
G01*
G04 APERTURE LIST*
G04 Aperture macros list*
%AMRoundRect*
0 Rectangle with rounded corners*
0 $1 Rounding radius*
0 $2 $3 $4 $5 $6 $7 $8 $9 X,Y pos of 4 corners*
0 Add a 4 corners polygon primitive as box body*
4,1,4,$2,$3,$4,$5,$6,$7,$8,$9,$2,$3,0*
0 Add four circle primitives for the rounded corners*
1,1,$1+$1,$2,$3*
1,1,$1+$1,$4,$5*
1,1,$1+$1,$6,$7*
1,1,$1+$1,$8,$9*
0 Add four rect primitives between the rounded corners*
20,1,$1+$1,$2,$3,$4,$5,0*
20,1,$1+$1,$4,$5,$6,$7,0*
20,1,$1+$1,$6,$7,$8,$9,0*
20,1,$1+$1,$8,$9,$2,$3,0*%
%AMRotRect*
0 Rectangle, with rotation*
0 The origin of the aperture is its center*
0 $1 length*
0 $2 width*
0 $3 Rotation angle, in degrees counterclockwise*
0 Add horizontal line*
21,1,$1,$2,0,0,$3*%
G04 Aperture macros list end*
%TA.AperFunction,SMDPad,CuDef*%
%ADD10R,1.524000X1.524000*%
%TD*%
%TA.AperFunction,SMDPad,CuDef*%
%ADD11R,1.700000X1.000000*%
%TD*%
%TA.AperFunction,SMDPad,CuDef*%
%ADD12RotRect,1.524000X1.524000X265.000000*%
%TD*%
%TA.AperFunction,ComponentPad*%
%ADD13C,2.500000*%
%TD*%
%TA.AperFunction,ComponentPad*%
%ADD14C,2.200000*%
%TD*%
%TA.AperFunction,SMDPad,CuDef*%
%ADD15RoundRect,0.250000X-0.475000X0.337500X-0.475000X-0.337500X0.475000X-0.337500X0.475000X0.337500X0*%
%TD*%
%TA.AperFunction,SMDPad,CuDef*%
%ADD16RotRect,1.524000X1.524000X258.000000*%
%TD*%
%TA.AperFunction,SMDPad,CuDef*%
%ADD17RotRect,1.700000X1.000000X350.000000*%
%TD*%
%TA.AperFunction,SMDPad,CuDef*%
%ADD18RotRect,1.700000X1.000000X170.000000*%
%TD*%
%TA.AperFunction,ComponentPad*%
%ADD19R,1.700000X1.700000*%
%TD*%
%TA.AperFunction,ComponentPad*%
%ADD20O,1.700000X1.700000*%
%TD*%
%TA.AperFunction,SMDPad,CuDef*%
%ADD21RotRect,1.524000X1.524000X271.000000*%
%TD*%
%TA.AperFunction,SMDPad,CuDef*%
%ADD22RotRect,1.700000X1.000000X16.000000*%
%TD*%
%TA.AperFunction,SMDPad,CuDef*%
%ADD23RotRect,1.524000X1.524000X285.000000*%
%TD*%
%TA.AperFunction,ComponentPad*%
%ADD24RotRect,1.700000X1.700000X169.000000*%
%TD*%
%TA.AperFunction,ViaPad*%
%ADD25C,0.800000*%
%TD*%
%TA.AperFunction,ViaPad*%
%ADD26C,0.600000*%
%TD*%
%TA.AperFunction,Conductor*%
%ADD27C,0.250000*%
%TD*%
%TA.AperFunction,Conductor*%
%ADD28C,0.152400*%
%TD*%
%TA.AperFunction,Conductor*%
%ADD29C,1.000000*%
%TD*%
%TA.AperFunction,Conductor*%
%ADD30C,0.400000*%
%TD*%
G04 APERTURE END LIST*
D10*
%TO.P,D1,1,K*%
%TO.N,col6*%
X100571304Y-93946556D03*
%TO.P,D1,2,A*%
%TO.N,Net-(D1-A)*%
X100571304Y-97346556D03*
%TD*%
D11*
%TO.P,D4,1,DOUT*%
%TO.N,Net-(D4-DOUT)*%
X88553315Y-93468090D03*
%TO.P,D4,2,VSS*%
%TO.N,Gnd*%
X94053315Y-93468090D03*
%TO.P,D4,3,DIN*%
%TO.N,Net-(D2-DOUT)*%
X94053315Y-94868090D03*
%TO.P,D4,4,VDD*%
%TO.N,Vcc*%
X88553315Y-94868090D03*
%TD*%
%TO.P,D10,1,DOUT*%
%TO.N,Net-(D10-DOUT)*%
X96085313Y-73024091D03*
%TO.P,D10,2,VSS*%
%TO.N,Gnd*%
X90585313Y-73024091D03*
%TO.P,D10,3,DIN*%
%TO.N,Net-(D10-DIN)*%
X90585313Y-71624091D03*
%TO.P,D10,4,VDD*%
%TO.N,Vcc*%
X96085313Y-71624091D03*
%TD*%
D12*
%TO.P,D9,1,K*%
%TO.N,col3*%
X103897642Y-93982046D03*
%TO.P,D9,2,A*%
%TO.N,Net-(D9-A)*%
X103601313Y-97369107D03*
%TD*%
D13*
%TO.P,SW9,1,1*%
%TO.N,row1*%
X107887334Y-102836702D03*
D14*
X108521541Y-106208049D03*
X111055994Y-106807256D03*
%TO.P,SW9,2,2*%
%TO.N,Net-(D9-A)*%
X113699797Y-106440780D03*
X115597526Y-106389538D03*
X116344694Y-105607400D03*
%TD*%
D15*
%TO.P,C1,1*%
%TO.N,Vcc*%
X98748605Y-100579133D03*
%TO.P,C1,2*%
%TO.N,Gnd*%
X98748605Y-102654133D03*
%TD*%
D16*
%TO.P,D5,1,K*%
%TO.N,col2*%
X107153488Y-71607742D03*
%TO.P,D5,2,A*%
%TO.N,Net-(D5-A)*%
X106446589Y-74933444D03*
%TD*%
D13*
%TO.P,SW19,1,1*%
%TO.N,row1*%
X89525313Y-79864091D03*
D14*
X90735313Y-83074091D03*
X93335313Y-83224091D03*
%TO.P,SW19,2,2*%
%TO.N,Net-(D19-A)*%
X95875313Y-82404091D03*
X97735313Y-82024091D03*
X98335313Y-81124091D03*
%TD*%
D13*
%TO.P,SW14,1,1*%
%TO.N,row1*%
X68579822Y-83813068D03*
D14*
X70627744Y-86565197D03*
X73168370Y-85992729D03*
%TO.P,SW14,2,2*%
%TO.N,Net-(D14-A)*%
X75383952Y-84504376D03*
X77067157Y-83626411D03*
X77395840Y-82595893D03*
%TD*%
D17*
%TO.P,D12,1,DOUT*%
%TO.N,Net-(D12-DOUT)*%
X117008623Y-75395741D03*
%TO.P,D12,2,VSS*%
%TO.N,Gnd*%
X111592180Y-74440676D03*
%TO.P,D12,3,DIN*%
%TO.N,Net-(D10-DOUT)*%
X111835287Y-73061945D03*
%TO.P,D12,4,VDD*%
%TO.N,Vcc*%
X117251730Y-74017010D03*
%TD*%
D18*
%TO.P,D2,1,DOUT*%
%TO.N,Net-(D2-DOUT)*%
X110362088Y-94905951D03*
%TO.P,D2,2,VSS*%
%TO.N,Gnd*%
X115778531Y-95861016D03*
%TO.P,D2,3,DIN*%
%TO.N,Din*%
X115535424Y-97239747D03*
%TO.P,D2,4,VDD*%
%TO.N,Vcc*%
X110118981Y-96284682D03*
%TD*%
D19*
%TO.P,J1,1,Pin_1*%
%TO.N,col5*%
X103190504Y-71126487D03*
D20*
%TO.P,J1,2,Pin_2*%
%TO.N,col6*%
X103190504Y-73666487D03*
%TO.P,J1,3,Pin_3*%
%TO.N,col4*%
X103190504Y-76206487D03*
%TO.P,J1,4,Pin_4*%
%TO.N,row1*%
X103190504Y-78746487D03*
%TO.P,J1,5,Pin_5*%
%TO.N,col2*%
X103190504Y-81286487D03*
%TO.P,J1,6,Pin_6*%
%TO.N,col3*%
X103190504Y-83826487D03*
%TD*%
D13*
%TO.P,SW1,1,1*%
%TO.N,row1*%
X87493303Y-101708090D03*
D14*
X88703303Y-104918090D03*
X91303303Y-105068090D03*
%TO.P,SW1,2,2*%
%TO.N,Net-(D1-A)*%
X93843303Y-104248090D03*
X95703303Y-103868090D03*
X96303303Y-102968090D03*
%TD*%
D21*
%TO.P,D19,1,K*%
%TO.N,col5*%
X84220391Y-71251964D03*
%TO.P,D19,2,A*%
%TO.N,Net-(D19-A)*%
X84279729Y-74651447D03*
%TD*%
D22*
%TO.P,D7,1,DOUT*%
%TO.N,Net-(D10-DIN)*%
X72993142Y-75430172D03*
%TO.P,D7,2,VSS*%
%TO.N,Gnd*%
X67706202Y-76946178D03*
%TO.P,D7,3,DIN*%
%TO.N,Net-(D4-DOUT)*%
X67320310Y-75600412D03*
%TO.P,D7,4,VDD*%
%TO.N,Vcc*%
X72607250Y-74084406D03*
%TD*%
D13*
%TO.P,SW5,1,1*%
%TO.N,row1*%
X109360530Y-80992697D03*
D14*
X109994737Y-84364044D03*
X112529190Y-84963251D03*
%TO.P,SW5,2,2*%
%TO.N,Net-(D5-A)*%
X115172993Y-84596775D03*
X117070722Y-84545533D03*
X117817890Y-83763395D03*
%TD*%
D23*
%TO.P,D14,1,K*%
%TO.N,col4*%
X78630978Y-71696783D03*
%TO.P,D14,2,A*%
%TO.N,Net-(D14-A)*%
X79510963Y-74980931D03*
%TD*%
D19*
%TO.P,J2,1,Pin_1*%
%TO.N,Vcc*%
X101210124Y-100309689D03*
D20*
%TO.P,J2,2,Pin_2*%
%TO.N,Gnd*%
X101210124Y-102849689D03*
%TO.P,J2,3,Pin_3*%
%TO.N,Din*%
X101210124Y-105389689D03*
%TD*%
D24*
%TO.P,J3,1,Pin_1*%
%TO.N,Net-(D12-DOUT)*%
X119520923Y-77351807D03*
%TD*%
D25*
%TO.N,Vcc*%
X87239564Y-95920397D03*
X74135443Y-73643870D03*
X97551925Y-71629727D03*
X118608547Y-74258199D03*
X108688562Y-96580640D03*
%TO.N,Din*%
X117297389Y-98103888D03*
%TO.N,Gnd*%
X95749565Y-93480395D03*
X110140631Y-74714693D03*
D26*
X117319128Y-96137789D03*
D25*
X68159451Y-78561582D03*
X89311923Y-73409726D03*
%TO.N,Net-(D4-DOUT)*%
X74597633Y-88751727D03*
X63996195Y-75833445D03*
%TO.N,Net-(D10-DIN)*%
X77678190Y-76747593D03*
X87731923Y-70919728D03*
%TO.N,Net-(D10-DOUT)*%
X110153592Y-72107333D03*
X97951922Y-75039724D03*
%TD*%
D27*
%TO.N,col6*%
X81006674Y-85009541D02*
X84906682Y-84579545D01*
X81716668Y-95289545D02*
X81236678Y-95289547D01*
X99661676Y-84664532D02*
X100546673Y-83779545D01*
X81236678Y-95289547D02*
X75766680Y-89819540D01*
X93736719Y-84726793D02*
X99456757Y-84749421D01*
X84906682Y-84579545D02*
X85586676Y-84579545D01*
X90786678Y-84709549D02*
X93736719Y-84726793D01*
X75766672Y-87259543D02*
X76586679Y-86439542D01*
X100986674Y-83339545D02*
X100986675Y-75870323D01*
X100571301Y-93946547D02*
X100571308Y-92824171D01*
X99706679Y-91959537D02*
X85046674Y-91959550D01*
X75766680Y-89819540D02*
X75766672Y-87259543D01*
X85586676Y-84579545D02*
X90786678Y-84709549D01*
X100546673Y-83779545D02*
X100986674Y-83339545D01*
X76586679Y-86439542D02*
X81006674Y-85009541D01*
X99456757Y-84749407D02*
G75*
G03*
X99661676Y-84664532I43J289707D01*
G01*
X103190510Y-73666475D02*
G75*
G03*
X100986675Y-75870323I-10J-2203825D01*
G01*
X85046674Y-91959474D02*
G75*
G03*
X84196674Y-92809543I26J-850026D01*
G01*
X81716668Y-95289554D02*
G75*
G03*
X84196674Y-92809543I2J2480004D01*
G01*
X100571363Y-92824171D02*
G75*
G03*
X99706679Y-91959537I-864663J-29D01*
G01*
D28*
%TO.N,col2*%
X105631870Y-72673196D02*
X104243063Y-80549475D01*
X103190511Y-81286460D02*
G75*
G03*
X104243062Y-80549475I157789J894760D01*
G01*
X107153486Y-71607767D02*
G75*
G03*
X105631870Y-72673196I-228086J-1293533D01*
G01*
D27*
%TO.N,col3*%
X81276676Y-85489539D02*
X86846676Y-85149539D01*
X99486677Y-85199545D02*
X101947449Y-85069544D01*
X76276666Y-89629549D02*
X76276679Y-87479542D01*
X76276679Y-87479542D02*
X76966677Y-86789547D01*
X81386675Y-94739548D02*
X76276666Y-89629549D01*
X81836676Y-94759545D02*
X81406681Y-94759535D01*
X101425135Y-91509548D02*
X84486676Y-91509539D01*
X76966677Y-86789547D02*
X81276676Y-85489539D01*
X83726674Y-92269541D02*
X83726667Y-92869548D01*
X86846676Y-85149539D02*
X99486677Y-85199545D01*
X81836676Y-94759467D02*
G75*
G03*
X83726667Y-92869548I24J1889967D01*
G01*
X103897652Y-93982043D02*
G75*
G03*
X101425135Y-91509548I-2472552J-57D01*
G01*
X84486676Y-91509574D02*
G75*
G03*
X83726674Y-92269541I24J-760026D01*
G01*
X81386765Y-94739548D02*
G75*
G03*
X81406681Y-94759535I19935J-52D01*
G01*
X101947449Y-85069504D02*
G75*
G03*
X103190504Y-83826488I51J1243004D01*
G01*
D28*
%TO.N,col4*%
X104728257Y-70124619D02*
X104728251Y-74668740D01*
X78630977Y-71696772D02*
X81266092Y-71696775D01*
X83288254Y-69674614D02*
X104278251Y-69674627D01*
X104728273Y-70124619D02*
G75*
G03*
X104278251Y-69674627I-449973J19D01*
G01*
X103190509Y-76206551D02*
G75*
G03*
X104728251Y-74668740I-9J1537751D01*
G01*
X83288254Y-69674556D02*
G75*
G03*
X82808256Y-70154620I46J-480044D01*
G01*
X81266092Y-71696756D02*
G75*
G03*
X82808256Y-70154620I8J1542156D01*
G01*
%TO.N,col5*%
X84220396Y-71251963D02*
X84220394Y-71122478D01*
X85308260Y-70034618D02*
X102098637Y-70034624D01*
X103190576Y-71126488D02*
G75*
G03*
X102098637Y-70034624I-1091876J-12D01*
G01*
X85308260Y-70034594D02*
G75*
G03*
X84220394Y-71122478I40J-1087906D01*
G01*
D29*
%TO.N,row1*%
X88703308Y-104918088D02*
X91153309Y-104918086D01*
X89525316Y-79864090D02*
X89525318Y-81864088D01*
X68579820Y-83813066D02*
X68579811Y-84517278D01*
X90735312Y-83074086D02*
X93185313Y-83074088D01*
D27*
X73168364Y-89171237D02*
X73168366Y-85992726D01*
D28*
X103170499Y-107330962D02*
X102561663Y-107213446D01*
D29*
X108521536Y-106208042D02*
X110456781Y-106208053D01*
D27*
X73168369Y-85992733D02*
X73185637Y-86052965D01*
D28*
X99613066Y-106947394D02*
X98361813Y-106960304D01*
X102561663Y-107213446D02*
X100153543Y-106991913D01*
D27*
X87493313Y-101708085D02*
X85705221Y-101708090D01*
X74043329Y-86528382D02*
X88058952Y-82509465D01*
D29*
X109360519Y-80992698D02*
X109360520Y-83729837D01*
D28*
X106164021Y-107858790D02*
X103170499Y-107330962D01*
D27*
X85705221Y-101708090D02*
X73168364Y-89171237D01*
D28*
X98361813Y-106960304D02*
X90738427Y-106946318D01*
D29*
X109994735Y-84364048D02*
X111929982Y-84364057D01*
X70627738Y-86565190D02*
X72595897Y-86565201D01*
X87493312Y-101708087D02*
X87493317Y-103708086D01*
D28*
X100153543Y-106991913D02*
X99613066Y-106947394D01*
D29*
X107887325Y-102836696D02*
X107887321Y-105573836D01*
D28*
X90738427Y-106946318D02*
X90036862Y-106822607D01*
D30*
X73168367Y-85992726D02*
X73168366Y-85992726D01*
D29*
X72595897Y-86565166D02*
G75*
G03*
X73168366Y-85992726I3J572466D01*
G01*
X111056047Y-106807258D02*
G75*
G03*
X110456781Y-106208053I-599247J-42D01*
G01*
X68579810Y-84517278D02*
G75*
G03*
X70627738Y-86565190I2047890J-22D01*
G01*
X93335312Y-83224088D02*
G75*
G03*
X93185313Y-83074088I-150012J-12D01*
G01*
X109360452Y-83729837D02*
G75*
G03*
X109994735Y-84364048I634248J37D01*
G01*
D27*
X88058962Y-82509499D02*
G75*
G03*
X89525313Y-79864086I-589562J2055899D01*
G01*
D29*
X87493312Y-103708086D02*
G75*
G03*
X88703308Y-104918088I1209988J-14D01*
G01*
X107887258Y-105573836D02*
G75*
G03*
X108521536Y-106208042I634242J36D01*
G01*
D28*
X88703307Y-104918087D02*
G75*
G03*
X90036862Y-106822607I1618993J-285513D01*
G01*
X106164015Y-107858826D02*
G75*
G03*
X108521534Y-106208043I353385J2004126D01*
G01*
D29*
X112529243Y-84963256D02*
G75*
G03*
X111929982Y-84364057I-599243J-44D01*
G01*
X89525314Y-81864088D02*
G75*
G03*
X90735312Y-83074086I1209986J-12D01*
G01*
D27*
X73185629Y-86052967D02*
G75*
G03*
X74043329Y-86528382I666571J191167D01*
G01*
D29*
X91303314Y-105068089D02*
G75*
G03*
X91153309Y-104918086I-150014J-11D01*
G01*
%TO.N,Vcc*%
X72607249Y-74084403D02*
X74133911Y-73646641D01*
X96085314Y-71624092D02*
X97546291Y-71624089D01*
X88553315Y-94868091D02*
X88291872Y-94868090D01*
X117251728Y-74017008D02*
X118606993Y-74255980D01*
X110118977Y-96284680D02*
X109313954Y-96142733D01*
X98748604Y-100579126D02*
X101210125Y-100309690D01*
D30*
X110118977Y-96284680D02*
X109360973Y-96151018D01*
D29*
X109313949Y-96142761D02*
G75*
G03*
X108688562Y-96580640I-93749J-531639D01*
G01*
X88291872Y-94868064D02*
G75*
G03*
X87239564Y-95920397I28J-1052336D01*
G01*
X74133913Y-73646647D02*
G75*
G03*
X74135442Y-73643870I-613J2147D01*
G01*
X118608617Y-74258210D02*
G75*
G03*
X118606993Y-74255980I-1917J310D01*
G01*
X97551911Y-71629727D02*
G75*
G03*
X97546291Y-71624089I-5611J27D01*
G01*
D28*
%TO.N,Din*%
X116855266Y-97472468D02*
X115535416Y-97239743D01*
X117297330Y-98103878D02*
G75*
G03*
X116855266Y-97472468I-536730J94678D01*
G01*
D29*
%TO.N,Gnd*%
X90585313Y-73024093D02*
X89697559Y-73024091D01*
X94053322Y-93468094D02*
X95737263Y-93468088D01*
X98748601Y-102654125D02*
X101210115Y-102849703D01*
X111592179Y-74440672D02*
X110745247Y-74291339D01*
X67706202Y-76946175D02*
X68166014Y-78549740D01*
X115778519Y-95861012D02*
X117315027Y-96131941D01*
X68159460Y-78561614D02*
G75*
G03*
X68166014Y-78549740I-2660J9214D01*
G01*
D30*
X117319147Y-96137792D02*
G75*
G03*
X117315027Y-96131941I-4947J892D01*
G01*
D29*
X89697559Y-73024023D02*
G75*
G03*
X89311923Y-73409726I41J-385677D01*
G01*
X95749512Y-93480395D02*
G75*
G03*
X95737263Y-93468088I-12312J-5D01*
G01*
X110745247Y-74291338D02*
G75*
G03*
X110140631Y-74714693I-90647J-513962D01*
G01*
D28*
%TO.N,Net-(D1-A)*%
X95671327Y-97346548D02*
X100571294Y-97346550D01*
D29*
X93843308Y-104248092D02*
X95023310Y-104248082D01*
D28*
X94692336Y-103399063D02*
X94692341Y-98325541D01*
X93843308Y-104248136D02*
G75*
G03*
X94692336Y-103399063I-8J849036D01*
G01*
X95671327Y-97346541D02*
G75*
G03*
X94692341Y-98325541I-27J-978959D01*
G01*
D29*
X95023310Y-104248119D02*
G75*
G03*
X96303319Y-102968083I-10J1280019D01*
G01*
D28*
%TO.N,Net-(D2-DOUT)*%
X94053319Y-94868089D02*
X98311836Y-94868093D01*
X110362090Y-94905947D02*
X110378215Y-94814498D01*
X105472352Y-95058604D02*
X105472350Y-94568607D01*
X109581857Y-93677184D02*
X107316021Y-93277661D01*
X99112352Y-95668605D02*
X104862354Y-95668599D01*
X110378209Y-94814497D02*
G75*
G03*
X109581857Y-93677184I-966809J170497D01*
G01*
X98842307Y-95398600D02*
G75*
G03*
X98311836Y-94868093I-530507J0D01*
G01*
X98842395Y-95398600D02*
G75*
G03*
X99112352Y-95668605I270005J0D01*
G01*
X107316025Y-93277639D02*
G75*
G03*
X105472351Y-94568607I-276325J-1567361D01*
G01*
X104862354Y-95668652D02*
G75*
G03*
X105472352Y-95058604I-54J610052D01*
G01*
D27*
%TO.N,Net-(D4-DOUT)*%
X63996195Y-75833445D02*
X66464077Y-75125794D01*
X85644273Y-92734612D02*
X88294275Y-92734609D01*
X74666119Y-88789684D02*
X74954277Y-89794610D01*
X88553317Y-92993650D02*
X88553314Y-93468092D01*
X74954277Y-89794610D02*
X74954275Y-89824607D01*
X74597633Y-88751727D02*
X74666119Y-88789684D01*
X74954275Y-89824607D02*
X80974283Y-95844611D01*
X80974283Y-95844611D02*
X82534275Y-95844610D01*
X67320315Y-75600410D02*
G75*
G03*
X66464077Y-75125794I-665415J-190790D01*
G01*
X88553291Y-92993650D02*
G75*
G03*
X88294275Y-92734609I-258991J50D01*
G01*
X85644273Y-92734581D02*
G75*
G03*
X84654281Y-93724611I27J-990019D01*
G01*
X82534275Y-95844581D02*
G75*
G03*
X84654281Y-93724611I25J2119981D01*
G01*
D28*
%TO.N,Net-(D5-A)*%
X116505603Y-83738471D02*
X117257743Y-79472889D01*
X115140610Y-76449320D02*
X106466118Y-74919780D01*
D29*
X115172980Y-84596779D02*
X116984506Y-84596780D01*
D28*
X117257782Y-79472896D02*
G75*
G03*
X115140610Y-76449320I-2570382J453196D01*
G01*
D29*
X116984506Y-84596779D02*
G75*
G03*
X117817879Y-83763397I-6J833379D01*
G01*
D28*
X116505548Y-83738461D02*
G75*
G03*
X117070719Y-84545545I686152J-120939D01*
G01*
X106466131Y-74919706D02*
G75*
G03*
X106446591Y-74933453I-2931J-16594D01*
G01*
D27*
%TO.N,Net-(D10-DIN)*%
X87731923Y-70919728D02*
X89880947Y-70919726D01*
X76156830Y-77183835D02*
X77678190Y-76747593D01*
X90585374Y-71624091D02*
G75*
G03*
X89880947Y-70919726I-704374J-9D01*
G01*
X72993148Y-75430169D02*
G75*
G03*
X76156830Y-77183835I2458652J704969D01*
G01*
D28*
%TO.N,Net-(D9-A)*%
X115139421Y-105735299D02*
X115728124Y-102396600D01*
X104575955Y-96686654D02*
X103601315Y-97369109D01*
X113270003Y-98219655D02*
X104575955Y-96686654D01*
D29*
X113699791Y-106440784D02*
X115511307Y-106440773D01*
X115511307Y-106440786D02*
G75*
G03*
X116344686Y-105607398I-7J833386D01*
G01*
D28*
X115728096Y-102396595D02*
G75*
G03*
X113270003Y-98219656I-3678996J646695D01*
G01*
X115139464Y-105735307D02*
G75*
G03*
X115597517Y-106389538I556136J-98093D01*
G01*
D27*
%TO.N,Net-(D10-DOUT)*%
X110153592Y-72107333D02*
X111309589Y-72311168D01*
X96085316Y-73024092D02*
X96085311Y-73173113D01*
X96085276Y-73173113D02*
G75*
G03*
X97951922Y-75039724I1866624J13D01*
G01*
X111835241Y-73061935D02*
G75*
G03*
X111309589Y-72311169I-638241J112535D01*
G01*
D28*
%TO.N,Net-(D12-DOUT)*%
X117008621Y-75395736D02*
X118312216Y-75625594D01*
X119520925Y-77351808D02*
G75*
G03*
X118312216Y-75625594I-1467525J258708D01*
G01*
D29*
%TO.N,Net-(D14-A)*%
X75383953Y-84504380D02*
X75487353Y-84504376D01*
D27*
X80228948Y-77484826D02*
X79510968Y-74980931D01*
X77395830Y-82595860D02*
G75*
G03*
X80228948Y-77484826I-1138930J3972060D01*
G01*
D29*
X75487353Y-84504333D02*
G75*
G03*
X77395833Y-82595895I47J1908433D01*
G01*
%TO.N,Net-(D19-A)*%
X95875321Y-82404095D02*
X97055312Y-82404092D01*
D28*
X94328258Y-74314619D02*
X84616559Y-74314618D01*
X96958256Y-78664615D02*
X96958257Y-76944608D01*
X96968256Y-81257035D02*
X96968260Y-78674614D01*
X96958286Y-78664615D02*
G75*
G03*
X96968260Y-78674614I10014J15D01*
G01*
X84616559Y-74314634D02*
G75*
G03*
X84279734Y-74651455I41J-336866D01*
G01*
X96968213Y-81257035D02*
G75*
G03*
X97735317Y-82024087I767087J35D01*
G01*
X96958281Y-76944608D02*
G75*
G03*
X94328258Y-74314619I-2629981J8D01*
G01*
D29*
X97055312Y-82404115D02*
G75*
G03*
X98335315Y-81124087I-12J1280015D01*
G01*
%TD*%
%TA.AperFunction,Conductor*%
%TO.N,Gnd*%
G36*
X105366081Y-91534594D02*
G01*
X105366087Y-91534596D01*
X105366087Y-91534594D01*
X105376177Y-91535504D01*
X105378047Y-91535687D01*
X105394461Y-91537414D01*
X105399158Y-91537909D01*
X105402886Y-91538358D01*
X105422902Y-91541075D01*
X105426561Y-91541627D01*
X105447807Y-91545161D01*
X105449631Y-91545479D01*
X105451116Y-91545749D01*
X105451129Y-91545751D01*
X105487624Y-91552385D01*
X105486833Y-91556734D01*
X105486838Y-91556736D01*
X105487629Y-91552384D01*
X120713507Y-94319392D01*
X120713427Y-94319834D01*
X120713439Y-94319838D01*
X120713519Y-94319399D01*
X120746656Y-94325418D01*
X120758697Y-94328221D01*
X120891547Y-94366112D01*
X120914523Y-94375183D01*
X121031883Y-94435422D01*
X121052645Y-94448801D01*
X121128097Y-94508650D01*
X121155996Y-94530780D01*
X121173745Y-94547948D01*
X121259120Y-94648525D01*
X121273178Y-94668826D01*
X121337288Y-94784126D01*
X121347115Y-94806784D01*
X121387492Y-94932365D01*
X121392712Y-94956509D01*
X121407812Y-95087559D01*
X121408220Y-95112259D01*
X121396991Y-95249466D01*
X121395379Y-95261726D01*
X121389270Y-95295330D01*
X121384365Y-95294438D01*
X121384363Y-95294446D01*
X121389272Y-95295338D01*
X120698646Y-99095622D01*
X120698646Y-99095623D01*
X119500810Y-105686885D01*
X119491731Y-105736841D01*
X119491730Y-105736842D01*
X118793026Y-109581586D01*
X118792194Y-109581435D01*
X118792193Y-109581439D01*
X118793024Y-109581590D01*
X118787002Y-109614729D01*
X118784197Y-109626769D01*
X118746298Y-109759610D01*
X118737229Y-109782578D01*
X118676983Y-109899933D01*
X118663603Y-109920695D01*
X118581618Y-110024044D01*
X118564449Y-110041791D01*
X118463881Y-110127154D01*
X118443573Y-110141216D01*
X118328282Y-110205318D01*
X118305620Y-110215147D01*
X118180045Y-110255522D01*
X118155903Y-110260742D01*
X118099199Y-110267277D01*
X118024850Y-110275844D01*
X118000159Y-110276252D01*
X117862483Y-110264987D01*
X117850224Y-110263375D01*
X117849526Y-110263248D01*
X117842613Y-110261991D01*
X117842613Y-110261992D01*
X117817088Y-110257352D01*
X117817086Y-110257352D01*
X117817080Y-110257351D01*
X117817077Y-110257352D01*
X107741460Y-108426295D01*
X107678014Y-108394436D01*
X107641864Y-108333332D01*
X107644489Y-108262383D01*
X107685054Y-108204117D01*
X107703729Y-108191671D01*
X107896414Y-108086738D01*
X107896417Y-108086736D01*
X107899526Y-108085043D01*
X108140558Y-107916268D01*
X108230287Y-107837080D01*
X108294597Y-107807002D01*
X108323545Y-107805940D01*
X108521541Y-107821523D01*
X108773944Y-107801658D01*
X108778751Y-107800504D01*
X108778757Y-107800503D01*
X108935509Y-107762870D01*
X109020132Y-107742554D01*
X109129028Y-107697448D01*
X109249469Y-107647560D01*
X109249473Y-107647558D01*
X109254043Y-107645665D01*
X109458662Y-107520274D01*
X109527196Y-107501736D01*
X109594872Y-107523192D01*
X109631929Y-107561871D01*
X109750666Y-107755632D01*
X109915096Y-107948154D01*
X110107618Y-108112584D01*
X110323492Y-108244872D01*
X110328062Y-108246765D01*
X110328066Y-108246767D01*
X110552830Y-108339867D01*
X110557403Y-108341761D01*
X110591530Y-108349954D01*
X110798778Y-108399710D01*
X110798784Y-108399711D01*
X110803591Y-108400865D01*
X111055994Y-108420730D01*
X111308397Y-108400865D01*
X111313204Y-108399711D01*
X111313210Y-108399710D01*
X111520458Y-108349954D01*
X111554585Y-108341761D01*
X111559158Y-108339867D01*
X111783922Y-108246767D01*
X111783926Y-108246765D01*
X111788496Y-108244872D01*
X112004370Y-108112584D01*
X112196892Y-107948154D01*
X112361322Y-107755632D01*
X112422096Y-107656458D01*
X112474743Y-107608828D01*
X112544784Y-107597221D01*
X112611358Y-107626483D01*
X112611832Y-107626887D01*
X112747662Y-107742898D01*
X112747666Y-107742901D01*
X112751421Y-107746108D01*
X112849058Y-107805940D01*
X112959820Y-107873815D01*
X112967295Y-107878396D01*
X112971865Y-107880289D01*
X112971869Y-107880291D01*
X113196633Y-107973391D01*
X113201206Y-107975285D01*
X113285829Y-107995601D01*
X113442581Y-108033234D01*
X113442587Y-108033235D01*
X113447394Y-108034389D01*
X113699797Y-108054254D01*
X113952200Y-108034389D01*
X113957007Y-108033235D01*
X113957013Y-108033234D01*
X114113765Y-107995601D01*
X114198388Y-107975285D01*
X114202961Y-107973391D01*
X114427725Y-107880291D01*
X114427729Y-107880289D01*
X114432299Y-107878396D01*
X114436519Y-107875810D01*
X114436529Y-107875805D01*
X114624636Y-107760532D01*
X114693169Y-107741993D01*
X114756306Y-107760532D01*
X114860794Y-107824563D01*
X114860804Y-107824568D01*
X114865024Y-107827154D01*
X114869594Y-107829047D01*
X114869598Y-107829049D01*
X114988733Y-107878396D01*
X115098935Y-107924043D01*
X115183558Y-107944359D01*
X115340310Y-107981992D01*
X115340316Y-107981993D01*
X115345123Y-107983147D01*
X115597526Y-108003012D01*
X115849929Y-107983147D01*
X115854736Y-107981993D01*
X115854742Y-107981992D01*
X116011494Y-107944359D01*
X116096117Y-107924043D01*
X116206319Y-107878396D01*
X116325454Y-107829049D01*
X116325458Y-107829047D01*
X116330028Y-107827154D01*
X116545902Y-107694866D01*
X116738424Y-107530436D01*
X116902854Y-107337914D01*
X117035142Y-107122040D01*
X117037035Y-107117470D01*
X117037039Y-107117462D01*
X117047926Y-107091177D01*
X117092474Y-107035896D01*
X117098500Y-107031961D01*
X117185105Y-106978889D01*
X117293070Y-106912728D01*
X117476407Y-106756143D01*
X117481836Y-106751506D01*
X117485592Y-106748298D01*
X117650022Y-106555776D01*
X117782310Y-106339902D01*
X117814595Y-106261961D01*
X117877305Y-106110564D01*
X117877306Y-106110562D01*
X117879199Y-106105991D01*
X117916506Y-105950595D01*
X117937148Y-105864616D01*
X117937149Y-105864610D01*
X117938303Y-105859803D01*
X117958168Y-105607400D01*
X117938303Y-105354997D01*
X117929119Y-105316740D01*
X117891552Y-105160263D01*
X117879199Y-105108809D01*
X117867942Y-105081632D01*
X117784205Y-104879472D01*
X117784203Y-104879468D01*
X117782310Y-104874898D01*
X117650022Y-104659024D01*
X117485592Y-104466502D01*
X117293070Y-104302072D01*
X117077196Y-104169784D01*
X117072626Y-104167891D01*
X117072622Y-104167889D01*
X116847858Y-104074789D01*
X116847856Y-104074788D01*
X116843285Y-104072895D01*
X116758662Y-104052579D01*
X116601910Y-104014946D01*
X116601904Y-104014945D01*
X116597097Y-104013791D01*
X116344694Y-103993926D01*
X116198135Y-104005461D01*
X116128657Y-103990865D01*
X116078098Y-103941023D01*
X116062511Y-103871758D01*
X116064165Y-103857969D01*
X116265472Y-102716299D01*
X116296999Y-102652687D01*
X116357913Y-102616217D01*
X116428874Y-102618470D01*
X116461536Y-102634762D01*
X116607487Y-102736347D01*
X116789806Y-102814586D01*
X116796061Y-102815871D01*
X116796063Y-102815872D01*
X116830739Y-102822998D01*
X116922243Y-102841802D01*
X116956271Y-102854099D01*
X117046460Y-102902307D01*
X117087553Y-102924272D01*
X117087555Y-102924273D01*
X117093007Y-102927187D01*
X117144352Y-102942762D01*
X117285101Y-102985458D01*
X117285107Y-102985459D01*
X117291027Y-102987255D01*
X117364141Y-102994456D01*
X117442273Y-103002152D01*
X117442280Y-103002152D01*
X117445353Y-103002455D01*
X117548569Y-103002455D01*
X117551642Y-103002152D01*
X117551649Y-103002152D01*
X117629781Y-102994456D01*
X117702895Y-102987255D01*
X117708815Y-102985459D01*
X117708821Y-102985458D01*
X117858082Y-102940180D01*
X117900915Y-102927187D01*
X118083411Y-102829640D01*
X118243371Y-102698365D01*
X118374646Y-102538405D01*
X118472193Y-102355909D01*
X118501983Y-102257703D01*
X118530464Y-102163815D01*
X118530465Y-102163809D01*
X118532261Y-102157889D01*
X118552544Y-101951955D01*
X118532261Y-101746021D01*
X118530465Y-101740101D01*
X118530464Y-101740095D01*
X118483999Y-101586921D01*
X118472193Y-101548001D01*
X118374646Y-101365505D01*
X118243371Y-101205545D01*
X118083411Y-101074270D01*
X117900915Y-100976723D01*
X117827286Y-100954388D01*
X117708821Y-100918452D01*
X117708815Y-100918451D01*
X117702895Y-100916655D01*
X117629781Y-100909454D01*
X117551649Y-100901758D01*
X117551642Y-100901758D01*
X117548569Y-100901455D01*
X117445353Y-100901455D01*
X117442280Y-100901758D01*
X117442273Y-100901758D01*
X117350543Y-100910793D01*
X117291027Y-100916655D01*
X117291011Y-100916493D01*
X117244948Y-100916348D01*
X117203100Y-100907748D01*
X117188799Y-100904809D01*
X117188797Y-100904809D01*
X117182540Y-100903523D01*
X117033868Y-100903523D01*
X116885962Y-100918564D01*
X116696663Y-100977956D01*
X116523195Y-101074239D01*
X116517760Y-101078905D01*
X116511721Y-101084089D01*
X116447005Y-101113283D01*
X116376778Y-101102854D01*
X116323338Y-101056114D01*
X116305662Y-101010912D01*
X116266285Y-100793227D01*
X116220010Y-100624181D01*
X116166309Y-100428004D01*
X116166307Y-100427998D01*
X116165571Y-100425309D01*
X116136553Y-100347134D01*
X116033793Y-100070305D01*
X116032825Y-100067697D01*
X116031638Y-100065200D01*
X116031634Y-100065190D01*
X115870275Y-99725686D01*
X115870274Y-99725685D01*
X115869082Y-99723176D01*
X115851914Y-99694002D01*
X115734064Y-99493746D01*
X115675614Y-99394424D01*
X115658723Y-99370771D01*
X115513961Y-99168064D01*
X115453928Y-99084001D01*
X115452114Y-99081884D01*
X115452108Y-99081876D01*
X115207562Y-98796438D01*
X115207560Y-98796436D01*
X115205749Y-98794322D01*
X115188896Y-98777843D01*
X115124090Y-98714478D01*
X114933007Y-98527641D01*
X114930873Y-98525895D01*
X114930866Y-98525888D01*
X114729734Y-98361260D01*
X114689689Y-98302635D01*
X114687696Y-98231666D01*
X114724388Y-98170886D01*
X114788116Y-98139592D01*
X114831419Y-98139671D01*
X116245286Y-98388973D01*
X116272536Y-98390814D01*
X116298194Y-98392547D01*
X116298196Y-98392547D01*
X116306060Y-98393078D01*
X116320166Y-98390475D01*
X116390785Y-98397783D01*
X116446242Y-98442111D01*
X116458136Y-98463133D01*
X116460822Y-98469167D01*
X116462862Y-98475444D01*
X116466162Y-98481160D01*
X116466163Y-98481162D01*
X116475647Y-98497588D01*
X116558349Y-98640832D01*
X116562767Y-98645739D01*
X116562768Y-98645740D01*
X116674109Y-98769397D01*
X116686136Y-98782754D01*
X116840637Y-98895006D01*
X116846665Y-98897690D01*
X116846667Y-98897691D01*
X116981453Y-98957701D01*
X117015101Y-98972682D01*
X117108501Y-98992535D01*
X117195445Y-99011016D01*
X117195450Y-99011016D01*
X117201902Y-99012388D01*
X117392876Y-99012388D01*
X117399328Y-99011016D01*
X117399333Y-99011016D01*
X117486277Y-98992535D01*
X117579677Y-98972682D01*
X117613325Y-98957701D01*
X117748111Y-98897691D01*
X117748113Y-98897690D01*
X117754141Y-98895006D01*
X117908642Y-98782754D01*
X117920669Y-98769397D01*
X118032010Y-98645740D01*
X118032011Y-98645739D01*
X118036429Y-98640832D01*
X118122047Y-98492537D01*
X118128612Y-98481167D01*
X118128613Y-98481166D01*
X118131916Y-98475444D01*
X118190931Y-98293816D01*
X118191960Y-98284032D01*
X118210203Y-98110453D01*
X118210893Y-98103888D01*
X118197632Y-97977714D01*
X118191621Y-97920523D01*
X118191621Y-97920521D01*
X118190931Y-97913960D01*
X118131916Y-97732332D01*
X118036429Y-97566944D01*
X117949972Y-97470923D01*
X117913064Y-97429933D01*
X117913063Y-97429932D01*
X117908642Y-97425022D01*
X117754141Y-97312770D01*
X117748112Y-97310086D01*
X117748109Y-97310084D01*
X117616017Y-97251274D01*
X117570739Y-97217153D01*
X117566063Y-97211580D01*
X117562525Y-97207363D01*
X117411102Y-97080290D01*
X117239914Y-96981443D01*
X117054161Y-96913824D01*
X117054543Y-96912775D01*
X116998749Y-96878756D01*
X116967736Y-96814892D01*
X116976173Y-96744398D01*
X116983379Y-96730148D01*
X116999731Y-96702338D01*
X117005918Y-96687969D01*
X117019702Y-96640327D01*
X117021224Y-96633769D01*
X117109548Y-96132858D01*
X117108061Y-96119528D01*
X117093555Y-96115017D01*
X115650532Y-96115017D01*
X115582411Y-96095015D01*
X115535918Y-96041359D01*
X115524532Y-95989017D01*
X115524532Y-95588902D01*
X116032532Y-95588902D01*
X116037007Y-95604141D01*
X116038397Y-95605346D01*
X116046080Y-95607017D01*
X117184154Y-95607017D01*
X117199393Y-95602542D01*
X117203994Y-95597232D01*
X117210577Y-95559899D01*
X117211390Y-95553211D01*
X117214732Y-95503720D01*
X117213833Y-95488113D01*
X117190392Y-95361074D01*
X117184689Y-95344163D01*
X117126915Y-95229881D01*
X117116687Y-95215273D01*
X117029054Y-95121894D01*
X117015115Y-95110753D01*
X116903760Y-95045278D01*
X116889392Y-95039091D01*
X116841742Y-95025305D01*
X116835191Y-95023784D01*
X116050373Y-94885400D01*
X116037043Y-94886886D01*
X116032532Y-94901393D01*
X116032532Y-95588902D01*
X115524532Y-95588902D01*
X115524532Y-94810795D01*
X115520057Y-94795556D01*
X115514747Y-94790955D01*
X115182833Y-94732429D01*
X115131160Y-94710646D01*
X115120010Y-94702629D01*
X115110616Y-94691985D01*
X115097536Y-94686471D01*
X115093302Y-94683427D01*
X115086779Y-94679769D01*
X115081975Y-94677744D01*
X115070450Y-94669458D01*
X115056474Y-94666994D01*
X115056473Y-94666993D01*
X114980315Y-94653564D01*
X114980310Y-94653563D01*
X111457828Y-94032454D01*
X111457827Y-94032454D01*
X111435007Y-94028430D01*
X111421343Y-94032275D01*
X111416125Y-94032535D01*
X111408764Y-94033739D01*
X111403737Y-94035153D01*
X111389558Y-94035861D01*
X111377089Y-94042652D01*
X111364979Y-94046059D01*
X111308974Y-94048855D01*
X111025472Y-93998866D01*
X110886922Y-93974436D01*
X110823310Y-93942909D01*
X110800696Y-93915073D01*
X110767479Y-93859591D01*
X110697821Y-93743242D01*
X110682680Y-93724604D01*
X110559368Y-93572820D01*
X110556532Y-93569329D01*
X110391930Y-93417295D01*
X110207366Y-93290234D01*
X110203341Y-93288239D01*
X110010622Y-93192727D01*
X110010618Y-93192726D01*
X110006598Y-93190733D01*
X110002337Y-93189334D01*
X110002333Y-93189332D01*
X109900155Y-93155776D01*
X109793712Y-93120819D01*
X109789294Y-93120040D01*
X109789290Y-93120039D01*
X109683378Y-93101365D01*
X109680596Y-93100875D01*
X109680573Y-93100871D01*
X109581433Y-93083390D01*
X109382465Y-93048307D01*
X107487461Y-92714170D01*
X107487457Y-92714169D01*
X107487455Y-92714168D01*
X107426296Y-92703385D01*
X107417640Y-92701859D01*
X107417540Y-92701830D01*
X107417542Y-92701819D01*
X107417443Y-92701801D01*
X107417441Y-92701801D01*
X107291662Y-92679626D01*
X107287907Y-92678964D01*
X107284103Y-92678760D01*
X107284098Y-92678759D01*
X107028822Y-92665042D01*
X107028814Y-92665042D01*
X107025017Y-92664838D01*
X107021226Y-92665093D01*
X107021218Y-92665093D01*
X106766145Y-92682247D01*
X106766141Y-92682248D01*
X106762342Y-92682503D01*
X106503711Y-92731700D01*
X106252896Y-92811712D01*
X106249433Y-92813298D01*
X106249432Y-92813299D01*
X106106800Y-92878649D01*
X106013553Y-92921372D01*
X106010309Y-92923363D01*
X106010307Y-92923364D01*
X105792413Y-93057093D01*
X105792407Y-93057097D01*
X105789173Y-93059082D01*
X105777040Y-93068720D01*
X105586016Y-93220459D01*
X105586011Y-93220463D01*
X105583028Y-93222833D01*
X105449367Y-93358300D01*
X105387288Y-93392741D01*
X105316440Y-93388152D01*
X105259320Y-93345988D01*
X105234063Y-93279635D01*
X105233704Y-93272303D01*
X105232908Y-93232208D01*
X105232752Y-93224325D01*
X105193787Y-93083390D01*
X105116695Y-92959141D01*
X105007721Y-92861644D01*
X104986654Y-92851616D01*
X104882807Y-92802184D01*
X104882805Y-92802183D01*
X104875693Y-92798798D01*
X104831920Y-92790181D01*
X104819246Y-92787686D01*
X104819243Y-92787686D01*
X104815928Y-92787033D01*
X104345761Y-92745898D01*
X104279644Y-92720036D01*
X104241638Y-92671629D01*
X104197736Y-92573028D01*
X104196394Y-92570014D01*
X104033614Y-92288076D01*
X103842255Y-92024699D01*
X103624415Y-91782765D01*
X103621965Y-91780559D01*
X103621958Y-91780552D01*
X103405480Y-91585636D01*
X103368240Y-91525190D01*
X103369592Y-91454207D01*
X103409105Y-91395222D01*
X103474236Y-91366964D01*
X103501098Y-91366509D01*
X105366081Y-91534594D01*
G37*
%TD.AperFunction*%
%TA.AperFunction,Conductor*%
G36*
X102360082Y-96273303D02*
G01*
X102406575Y-96326958D01*
X102415589Y-96403637D01*
X102406300Y-96450823D01*
X102385094Y-96693206D01*
X102272160Y-97984061D01*
X102264997Y-98065930D01*
X102266205Y-98126830D01*
X102305170Y-98267765D01*
X102382262Y-98392014D01*
X102491236Y-98489511D01*
X102499371Y-98493383D01*
X102499372Y-98493384D01*
X102616150Y-98548971D01*
X102616152Y-98548972D01*
X102623264Y-98552357D01*
X102661588Y-98559901D01*
X102679711Y-98563469D01*
X102679714Y-98563469D01*
X102683029Y-98564122D01*
X102945624Y-98587096D01*
X104294773Y-98705131D01*
X104294777Y-98705131D01*
X104298136Y-98705425D01*
X104301516Y-98705358D01*
X104301518Y-98705358D01*
X104310851Y-98705173D01*
X104359036Y-98704217D01*
X104499971Y-98665252D01*
X104624220Y-98588160D01*
X104721717Y-98479186D01*
X104728657Y-98464607D01*
X104781177Y-98354272D01*
X104781178Y-98354270D01*
X104784563Y-98347158D01*
X104796328Y-98287393D01*
X104815408Y-98069312D01*
X104867760Y-97470923D01*
X104893624Y-97404805D01*
X104951127Y-97363166D01*
X105015161Y-97357819D01*
X107041398Y-97715100D01*
X110902802Y-98395972D01*
X110966413Y-98427498D01*
X111002883Y-98488412D01*
X111000630Y-98559373D01*
X110960371Y-98617851D01*
X110933585Y-98634523D01*
X110839581Y-98677772D01*
X110839569Y-98677779D01*
X110836051Y-98679397D01*
X110832750Y-98681441D01*
X110832748Y-98681442D01*
X110596782Y-98827546D01*
X110560690Y-98849893D01*
X110557659Y-98852332D01*
X110356504Y-99014201D01*
X110308369Y-99052935D01*
X110082912Y-99285446D01*
X110080577Y-99288538D01*
X110075384Y-99295415D01*
X109887736Y-99543900D01*
X109885795Y-99547262D01*
X109885793Y-99547265D01*
X109874904Y-99566126D01*
X109725801Y-99824380D01*
X109717648Y-99843643D01*
X109601074Y-100119058D01*
X109601071Y-100119066D01*
X109599561Y-100122634D01*
X109510929Y-100434141D01*
X109510334Y-100437975D01*
X109510333Y-100437979D01*
X109486796Y-100589609D01*
X109461250Y-100754179D01*
X109461130Y-100758060D01*
X109461130Y-100758065D01*
X109451479Y-101071354D01*
X109451277Y-101077896D01*
X109481160Y-101400385D01*
X109539810Y-101668190D01*
X109550446Y-101716757D01*
X109549229Y-101717023D01*
X109548670Y-101782758D01*
X109509780Y-101842156D01*
X109444950Y-101871098D01*
X109374765Y-101860397D01*
X109329569Y-101824793D01*
X109304529Y-101793393D01*
X109232756Y-101703393D01*
X109182955Y-101640944D01*
X109182953Y-101640942D01*
X109180020Y-101637264D01*
X108986815Y-101457996D01*
X108835185Y-101354616D01*
X108772946Y-101312182D01*
X108772944Y-101312181D01*
X108769050Y-101309526D01*
X108608913Y-101232408D01*
X108535837Y-101197216D01*
X108535835Y-101197215D01*
X108531588Y-101195170D01*
X108279734Y-101117484D01*
X108275084Y-101116783D01*
X108275079Y-101116782D01*
X108163757Y-101100003D01*
X108019115Y-101078202D01*
X107793233Y-101078202D01*
X107725112Y-101058200D01*
X107678619Y-101004544D01*
X107668515Y-100934270D01*
X107698009Y-100869690D01*
X107711160Y-100856599D01*
X107737452Y-100834027D01*
X107788377Y-100790310D01*
X107792287Y-100785259D01*
X107905907Y-100638475D01*
X107905909Y-100638471D01*
X107909817Y-100633423D01*
X107997190Y-100455301D01*
X107998791Y-100449118D01*
X108045319Y-100269418D01*
X108045320Y-100269414D01*
X108046919Y-100263237D01*
X108047242Y-100256863D01*
X108047243Y-100256858D01*
X108054946Y-100104940D01*
X108056967Y-100065094D01*
X108053403Y-100041825D01*
X108027892Y-99875296D01*
X108027892Y-99875295D01*
X108026925Y-99868984D01*
X107958020Y-99682937D01*
X107853075Y-99514568D01*
X107716386Y-99370771D01*
X107711147Y-99367124D01*
X107711144Y-99367122D01*
X107558796Y-99261085D01*
X107553549Y-99257433D01*
X107371230Y-99179194D01*
X107364975Y-99177909D01*
X107364973Y-99177908D01*
X107313464Y-99167323D01*
X107238793Y-99151978D01*
X107204765Y-99139681D01*
X107096621Y-99081876D01*
X107073483Y-99069508D01*
X107073481Y-99069507D01*
X107068029Y-99066593D01*
X106979475Y-99039731D01*
X106875935Y-99008322D01*
X106875929Y-99008321D01*
X106870009Y-99006525D01*
X106796895Y-98999324D01*
X106718763Y-98991628D01*
X106718756Y-98991628D01*
X106715683Y-98991325D01*
X106612467Y-98991325D01*
X106609394Y-98991628D01*
X106609387Y-98991628D01*
X106531255Y-98999324D01*
X106458141Y-99006525D01*
X106452221Y-99008321D01*
X106452215Y-99008322D01*
X106309199Y-99051706D01*
X106260121Y-99066593D01*
X106077625Y-99164140D01*
X105917665Y-99295415D01*
X105786390Y-99455375D01*
X105688843Y-99637871D01*
X105676738Y-99677775D01*
X105630572Y-99829965D01*
X105630571Y-99829971D01*
X105628775Y-99835891D01*
X105608492Y-100041825D01*
X105628775Y-100247759D01*
X105630571Y-100253679D01*
X105630572Y-100253685D01*
X105671799Y-100389592D01*
X105688843Y-100445779D01*
X105786390Y-100628275D01*
X105917665Y-100788235D01*
X106077625Y-100919510D01*
X106260121Y-101017057D01*
X106286659Y-101025107D01*
X106452215Y-101075328D01*
X106452221Y-101075329D01*
X106458141Y-101077125D01*
X106528847Y-101084089D01*
X106609387Y-101092022D01*
X106609394Y-101092022D01*
X106612467Y-101092325D01*
X106715683Y-101092325D01*
X106718756Y-101092022D01*
X106718763Y-101092022D01*
X106823061Y-101081749D01*
X106870009Y-101077125D01*
X106870025Y-101077287D01*
X106916088Y-101077432D01*
X106954983Y-101085425D01*
X107017681Y-101118730D01*
X107052421Y-101180646D01*
X107048172Y-101251515D01*
X107000595Y-101312951D01*
X106952057Y-101346044D01*
X106787853Y-101457996D01*
X106594648Y-101637264D01*
X106591715Y-101640942D01*
X106591713Y-101640944D01*
X106433254Y-101839645D01*
X106433251Y-101839649D01*
X106430319Y-101843326D01*
X106427966Y-101847402D01*
X106427963Y-101847406D01*
X106402685Y-101891189D01*
X106298538Y-102071578D01*
X106251927Y-102190339D01*
X106211743Y-102292728D01*
X106202247Y-102316922D01*
X106201197Y-102321521D01*
X106201197Y-102321522D01*
X106144965Y-102567893D01*
X106143599Y-102573876D01*
X106143247Y-102578576D01*
X106143246Y-102578581D01*
X106125749Y-102812067D01*
X106123903Y-102836702D01*
X106124255Y-102841399D01*
X106142645Y-103086796D01*
X106143599Y-103099528D01*
X106144649Y-103104127D01*
X106144649Y-103104129D01*
X106187371Y-103291308D01*
X106202247Y-103356482D01*
X106203971Y-103360873D01*
X106203971Y-103360875D01*
X106214067Y-103386598D01*
X106298538Y-103601826D01*
X106359247Y-103706977D01*
X106413525Y-103800989D01*
X106430319Y-103830078D01*
X106433251Y-103833755D01*
X106433254Y-103833759D01*
X106591713Y-104032460D01*
X106594648Y-104036140D01*
X106787853Y-104215408D01*
X106791752Y-104218066D01*
X106823801Y-104239917D01*
X106868818Y-104294817D01*
X106878823Y-104344022D01*
X106878821Y-105199549D01*
X106878821Y-105480383D01*
X106878819Y-105480417D01*
X106878815Y-105480442D01*
X106878815Y-105480517D01*
X106878821Y-105573603D01*
X106878790Y-105573893D01*
X106878758Y-105573893D01*
X106878765Y-105691384D01*
X106912220Y-105923973D01*
X106920039Y-105950598D01*
X106924757Y-105995986D01*
X106908067Y-106208049D01*
X106927932Y-106460452D01*
X106929086Y-106465259D01*
X106929087Y-106465265D01*
X106953966Y-106568892D01*
X106987036Y-106706640D01*
X106988929Y-106711211D01*
X106988930Y-106711213D01*
X107073470Y-106915310D01*
X107083925Y-106940551D01*
X107086511Y-106944771D01*
X107126405Y-107009872D01*
X107144943Y-107078406D01*
X107123487Y-107146082D01*
X107065152Y-107192939D01*
X106950673Y-107238034D01*
X106931765Y-107243815D01*
X106728935Y-107288782D01*
X106709356Y-107291534D01*
X106638194Y-107295887D01*
X106501981Y-107304218D01*
X106482223Y-107303873D01*
X106347794Y-107290929D01*
X106270945Y-107283529D01*
X106261143Y-107282195D01*
X106195639Y-107270645D01*
X106195636Y-107270645D01*
X103277675Y-106756140D01*
X103275711Y-106755777D01*
X102683595Y-106641489D01*
X102679682Y-106640669D01*
X102663062Y-106636906D01*
X102657405Y-106635625D01*
X102657403Y-106635625D01*
X102653385Y-106634715D01*
X102649284Y-106634338D01*
X102646247Y-106633856D01*
X102641935Y-106633243D01*
X102638894Y-106632860D01*
X102634849Y-106632080D01*
X102607914Y-106630468D01*
X102603941Y-106630166D01*
X102222213Y-106595050D01*
X102156212Y-106568892D01*
X102114830Y-106511203D01*
X102111207Y-106440299D01*
X102141056Y-106384242D01*
X102282319Y-106230791D01*
X102282322Y-106230787D01*
X102285847Y-106226958D01*
X102364879Y-106105991D01*
X102406133Y-106042847D01*
X102406135Y-106042843D01*
X102408985Y-106038481D01*
X102427625Y-105995987D01*
X102485249Y-105864616D01*
X102499421Y-105832306D01*
X102506384Y-105804812D01*
X102553408Y-105619117D01*
X102553408Y-105619116D01*
X102554689Y-105614058D01*
X102555418Y-105605270D01*
X102572851Y-105394879D01*
X102573281Y-105389690D01*
X102570815Y-105359931D01*
X102555120Y-105170518D01*
X102555119Y-105170513D01*
X102554689Y-105165322D01*
X102499421Y-104947074D01*
X102458824Y-104854521D01*
X102411079Y-104745672D01*
X102411077Y-104745668D01*
X102408985Y-104740899D01*
X102366218Y-104675438D01*
X102288698Y-104556786D01*
X102285847Y-104552422D01*
X102282322Y-104548593D01*
X102282319Y-104548589D01*
X102136897Y-104390621D01*
X102133365Y-104386784D01*
X102027099Y-104304073D01*
X101959814Y-104251702D01*
X101959812Y-104251700D01*
X101955701Y-104248501D01*
X101921917Y-104230218D01*
X101871528Y-104180205D01*
X101856176Y-104110888D01*
X101880737Y-104044275D01*
X101921919Y-104008591D01*
X101950844Y-103992938D01*
X101959536Y-103987259D01*
X102128914Y-103855427D01*
X102136557Y-103848390D01*
X102281915Y-103690489D01*
X102288302Y-103682283D01*
X102405694Y-103502603D01*
X102410637Y-103493468D01*
X102496855Y-103296913D01*
X102500225Y-103287098D01*
X102542222Y-103121251D01*
X102541692Y-103107160D01*
X102533270Y-103103690D01*
X99938125Y-103103690D01*
X99870004Y-103083688D01*
X99823511Y-103030032D01*
X99812125Y-102977690D01*
X99812125Y-102926248D01*
X99807650Y-102911009D01*
X99806260Y-102909804D01*
X99798577Y-102908133D01*
X99020720Y-102908133D01*
X99005481Y-102912608D01*
X99004276Y-102913998D01*
X99002605Y-102921681D01*
X99002605Y-103731518D01*
X99007080Y-103746757D01*
X99008470Y-103747962D01*
X99016153Y-103749633D01*
X99270908Y-103749633D01*
X99277298Y-103749308D01*
X99371093Y-103739725D01*
X99384451Y-103736866D01*
X99539170Y-103685597D01*
X99552372Y-103679441D01*
X99690697Y-103594121D01*
X99702137Y-103585075D01*
X99814327Y-103472885D01*
X99876639Y-103438859D01*
X99947454Y-103443924D01*
X100004290Y-103486471D01*
X100014237Y-103502014D01*
X100014553Y-103502599D01*
X100131948Y-103682283D01*
X100138335Y-103690489D01*
X100283693Y-103848390D01*
X100291336Y-103855427D01*
X100460714Y-103987259D01*
X100469406Y-103992938D01*
X100498331Y-104008591D01*
X100548722Y-104058604D01*
X100564074Y-104127921D01*
X100539513Y-104194534D01*
X100498333Y-104230218D01*
X100464549Y-104248501D01*
X100460438Y-104251700D01*
X100460436Y-104251702D01*
X100393151Y-104304073D01*
X100286885Y-104386784D01*
X100283353Y-104390621D01*
X100137931Y-104548589D01*
X100137928Y-104548593D01*
X100134403Y-104552422D01*
X100131552Y-104556786D01*
X100054033Y-104675438D01*
X100011265Y-104740899D01*
X100009173Y-104745668D01*
X100009171Y-104745672D01*
X99961426Y-104854521D01*
X99920829Y-104947074D01*
X99865561Y-105165322D01*
X99865131Y-105170513D01*
X99865130Y-105170518D01*
X99849435Y-105359931D01*
X99846969Y-105389690D01*
X99847399Y-105394879D01*
X99864833Y-105605270D01*
X99865561Y-105614058D01*
X99866842Y-105619116D01*
X99866842Y-105619117D01*
X99913867Y-105804812D01*
X99920829Y-105832306D01*
X99935001Y-105864616D01*
X99992626Y-105995987D01*
X100011265Y-106038481D01*
X100014115Y-106042843D01*
X100014117Y-106042847D01*
X100115530Y-106198071D01*
X100136043Y-106266039D01*
X100116554Y-106334308D01*
X100063249Y-106381203D01*
X99999704Y-106392561D01*
X99738346Y-106371033D01*
X99674649Y-106365787D01*
X99669845Y-106365298D01*
X99649777Y-106362866D01*
X99649455Y-106362827D01*
X99649454Y-106362827D01*
X99645353Y-106362330D01*
X99639926Y-106362386D01*
X99628291Y-106361968D01*
X99622873Y-106361522D01*
X99618768Y-106361722D01*
X99618764Y-106361722D01*
X99598210Y-106362724D01*
X99593376Y-106362866D01*
X99217788Y-106366741D01*
X98360069Y-106375590D01*
X98358646Y-106375597D01*
X95602795Y-106370541D01*
X92584036Y-106365003D01*
X92515952Y-106344876D01*
X92469558Y-106291135D01*
X92459583Y-106220843D01*
X92488456Y-106157172D01*
X92536279Y-106101179D01*
X92608631Y-106016466D01*
X92740919Y-105800592D01*
X92747896Y-105783750D01*
X92797297Y-105664484D01*
X92841845Y-105609203D01*
X92909209Y-105586782D01*
X92979541Y-105605270D01*
X93106571Y-105683115D01*
X93106581Y-105683120D01*
X93110801Y-105685706D01*
X93115371Y-105687599D01*
X93115375Y-105687601D01*
X93234254Y-105736842D01*
X93344712Y-105782595D01*
X93419676Y-105800592D01*
X93586087Y-105840544D01*
X93586093Y-105840545D01*
X93590900Y-105841699D01*
X93843303Y-105861564D01*
X94095706Y-105841699D01*
X94100513Y-105840545D01*
X94100519Y-105840544D01*
X94266930Y-105800592D01*
X94341894Y-105782595D01*
X94452352Y-105736842D01*
X94571231Y-105687601D01*
X94571235Y-105687599D01*
X94575805Y-105685706D01*
X94791679Y-105553418D01*
X94984201Y-105388988D01*
X94985192Y-105390148D01*
X95041558Y-105359369D01*
X95116559Y-105366081D01*
X95186084Y-105394879D01*
X95204712Y-105402595D01*
X95263385Y-105416681D01*
X95446087Y-105460544D01*
X95446093Y-105460545D01*
X95450900Y-105461699D01*
X95703303Y-105481564D01*
X95955706Y-105461699D01*
X95960513Y-105460545D01*
X95960519Y-105460544D01*
X96143221Y-105416681D01*
X96201894Y-105402595D01*
X96206467Y-105400701D01*
X96431231Y-105307601D01*
X96431235Y-105307599D01*
X96435805Y-105305706D01*
X96651679Y-105173418D01*
X96820618Y-105029130D01*
X96840445Y-105012196D01*
X96844201Y-105008988D01*
X97008631Y-104816466D01*
X97140919Y-104600592D01*
X97154209Y-104568509D01*
X97235914Y-104371254D01*
X97235915Y-104371252D01*
X97237808Y-104366681D01*
X97238964Y-104361867D01*
X97238966Y-104361860D01*
X97252840Y-104304073D01*
X97293527Y-104237677D01*
X97440445Y-104112196D01*
X97444201Y-104108988D01*
X97608631Y-103916466D01*
X97740234Y-103701710D01*
X97792881Y-103654080D01*
X97862922Y-103642473D01*
X97913812Y-103660304D01*
X97944840Y-103679442D01*
X97958040Y-103685597D01*
X98112759Y-103736866D01*
X98126117Y-103739725D01*
X98219912Y-103749308D01*
X98226302Y-103749633D01*
X98476490Y-103749633D01*
X98491729Y-103745158D01*
X98492934Y-103743768D01*
X98494605Y-103736085D01*
X98494605Y-102526133D01*
X98514607Y-102458012D01*
X98568263Y-102411519D01*
X98620605Y-102400133D01*
X99895605Y-102400133D01*
X99963726Y-102420135D01*
X100010219Y-102473791D01*
X100021605Y-102526133D01*
X100021605Y-102577575D01*
X100026080Y-102592814D01*
X100027470Y-102594019D01*
X100035153Y-102595690D01*
X102528554Y-102595690D01*
X102542085Y-102591717D01*
X102543381Y-102582704D01*
X102500225Y-102412282D01*
X102496855Y-102402467D01*
X102410637Y-102205912D01*
X102405694Y-102196777D01*
X102288302Y-102017097D01*
X102281915Y-102008891D01*
X102142143Y-101857058D01*
X102110722Y-101793393D01*
X102118709Y-101722847D01*
X102163568Y-101667819D01*
X102190812Y-101653665D01*
X102234784Y-101637264D01*
X102306329Y-101610579D01*
X102333796Y-101590018D01*
X102416175Y-101528349D01*
X102423386Y-101522951D01*
X102490285Y-101433585D01*
X102505614Y-101413108D01*
X102505615Y-101413106D01*
X102511014Y-101405894D01*
X102562114Y-101268891D01*
X102568625Y-101208328D01*
X102568625Y-99411052D01*
X102562114Y-99350489D01*
X102511014Y-99213486D01*
X102481645Y-99174253D01*
X102428784Y-99103640D01*
X102423386Y-99096429D01*
X102362035Y-99050502D01*
X102313543Y-99014201D01*
X102313541Y-99014200D01*
X102306329Y-99008801D01*
X102169326Y-98957701D01*
X102132420Y-98953733D01*
X102112113Y-98951550D01*
X102112110Y-98951550D01*
X102108763Y-98951190D01*
X100311487Y-98951190D01*
X100308140Y-98951550D01*
X100308137Y-98951550D01*
X100287830Y-98953733D01*
X100250924Y-98957701D01*
X100113921Y-99008801D01*
X100106709Y-99014200D01*
X100106707Y-99014201D01*
X100058215Y-99050502D01*
X99996864Y-99096429D01*
X99991466Y-99103640D01*
X99938606Y-99174253D01*
X99909236Y-99213486D01*
X99858136Y-99350489D01*
X99857294Y-99358323D01*
X99857156Y-99358906D01*
X99822025Y-99420602D01*
X99759116Y-99453510D01*
X99748243Y-99455183D01*
X99400546Y-99493241D01*
X99374030Y-99493337D01*
X99277335Y-99483458D01*
X99277327Y-99483458D01*
X99274150Y-99483133D01*
X98748687Y-99483133D01*
X98223061Y-99483134D01*
X98219884Y-99483459D01*
X98219875Y-99483459D01*
X98171138Y-99488438D01*
X98119179Y-99493746D01*
X97997653Y-99534015D01*
X97926700Y-99536455D01*
X97865690Y-99500147D01*
X97833995Y-99436618D01*
X97836951Y-99386290D01*
X97835598Y-99386021D01*
X97836805Y-99379950D01*
X97838603Y-99374024D01*
X97858886Y-99168090D01*
X97838603Y-98962156D01*
X97836807Y-98956236D01*
X97836806Y-98956230D01*
X97786767Y-98791274D01*
X97778535Y-98764136D01*
X97680988Y-98581640D01*
X97549713Y-98421680D01*
X97389753Y-98290405D01*
X97207257Y-98192858D01*
X97201338Y-98191063D01*
X97201332Y-98191060D01*
X97157693Y-98177822D01*
X97098312Y-98138907D01*
X97069396Y-98074065D01*
X97080127Y-98003884D01*
X97127097Y-97950646D01*
X97194268Y-97931248D01*
X99016659Y-97931249D01*
X99174805Y-97931249D01*
X99242926Y-97951251D01*
X99289419Y-98004907D01*
X99300805Y-98057249D01*
X99300805Y-98157195D01*
X99307316Y-98217758D01*
X99358416Y-98354761D01*
X99363815Y-98361973D01*
X99363816Y-98361975D01*
X99386303Y-98392014D01*
X99446044Y-98471818D01*
X99458526Y-98481162D01*
X99520615Y-98527641D01*
X99563101Y-98559446D01*
X99700104Y-98610546D01*
X99737010Y-98614514D01*
X99757317Y-98616697D01*
X99757320Y-98616697D01*
X99760667Y-98617057D01*
X101381943Y-98617057D01*
X101385290Y-98616697D01*
X101385293Y-98616697D01*
X101405600Y-98614514D01*
X101442506Y-98610546D01*
X101579509Y-98559446D01*
X101621996Y-98527641D01*
X101684084Y-98481162D01*
X101696566Y-98471818D01*
X101756307Y-98392014D01*
X101778794Y-98361975D01*
X101778795Y-98361973D01*
X101784194Y-98354761D01*
X101835294Y-98217758D01*
X101841805Y-98157195D01*
X101841805Y-96535919D01*
X101841251Y-96530760D01*
X101836136Y-96483190D01*
X101835294Y-96475356D01*
X101815891Y-96423335D01*
X101810826Y-96352519D01*
X101844851Y-96290207D01*
X101907163Y-96256182D01*
X101933947Y-96253302D01*
X102121453Y-96253301D01*
X102291963Y-96253301D01*
X102360082Y-96273303D01*
G37*
%TD.AperFunction*%
%TA.AperFunction,Conductor*%
G36*
X99440514Y-92613039D02*
G01*
X99487007Y-92666695D01*
X99497111Y-92736969D01*
X99467618Y-92801549D01*
X99459352Y-92809245D01*
X99459630Y-92809523D01*
X99453255Y-92815898D01*
X99446044Y-92821296D01*
X99440646Y-92828507D01*
X99369637Y-92923364D01*
X99358416Y-92938353D01*
X99307316Y-93075356D01*
X99300805Y-93135919D01*
X99300805Y-94502469D01*
X99280803Y-94570590D01*
X99227147Y-94617083D01*
X99156873Y-94627187D01*
X99093810Y-94598988D01*
X98974037Y-94498479D01*
X98953938Y-94481613D01*
X98892905Y-94446372D01*
X98789719Y-94386791D01*
X98789713Y-94386788D01*
X98784957Y-94384042D01*
X98724828Y-94362153D01*
X98606775Y-94319177D01*
X98606770Y-94319176D01*
X98601601Y-94317294D01*
X98596177Y-94316337D01*
X98596176Y-94316337D01*
X98414866Y-94284356D01*
X98414863Y-94284356D01*
X98409439Y-94283399D01*
X98350273Y-94283395D01*
X98350173Y-94283395D01*
X98350158Y-94283393D01*
X98311239Y-94283393D01*
X98240919Y-94283389D01*
X98240880Y-94283389D01*
X98240867Y-94283392D01*
X98240855Y-94283393D01*
X98240613Y-94283393D01*
X95509375Y-94283390D01*
X95441254Y-94263388D01*
X95394761Y-94209732D01*
X95384658Y-94139458D01*
X95391320Y-94113357D01*
X95402056Y-94084574D01*
X95405654Y-94069348D01*
X95410956Y-94020029D01*
X95411316Y-94013314D01*
X95411316Y-93740206D01*
X95406841Y-93724967D01*
X95405451Y-93723762D01*
X95397768Y-93722091D01*
X93925316Y-93722091D01*
X93857195Y-93702089D01*
X93810702Y-93648433D01*
X93799316Y-93596091D01*
X93799316Y-93340091D01*
X93819318Y-93271970D01*
X93872974Y-93225477D01*
X93925316Y-93214091D01*
X95393201Y-93214091D01*
X95408440Y-93209616D01*
X95409645Y-93208226D01*
X95411316Y-93200543D01*
X95411316Y-92922868D01*
X95410956Y-92916153D01*
X95405654Y-92866834D01*
X95402058Y-92851616D01*
X95369033Y-92763074D01*
X95363968Y-92692258D01*
X95397993Y-92629946D01*
X95460306Y-92595921D01*
X95487089Y-92593041D01*
X96360392Y-92593040D01*
X99372394Y-92593037D01*
X99440514Y-92613039D01*
G37*
%TD.AperFunction*%
%TA.AperFunction,Conductor*%
G36*
X78770551Y-70113590D02*
G01*
X78823896Y-70160439D01*
X78843443Y-70228692D01*
X78822988Y-70296678D01*
X78769023Y-70342812D01*
X78750057Y-70349559D01*
X77661757Y-70641168D01*
X77519133Y-70679384D01*
X77515990Y-70680599D01*
X77515981Y-70680602D01*
X77469669Y-70698506D01*
X77469666Y-70698508D01*
X77462319Y-70701348D01*
X77343210Y-70786166D01*
X77337636Y-70793254D01*
X77258393Y-70894018D01*
X77258392Y-70894021D01*
X77252821Y-70901104D01*
X77198476Y-71036852D01*
X77197619Y-71045822D01*
X77197619Y-71045824D01*
X77191293Y-71112075D01*
X77184576Y-71182413D01*
X77193962Y-71242597D01*
X77613579Y-72808630D01*
X77614794Y-72811773D01*
X77614797Y-72811782D01*
X77632701Y-72858094D01*
X77632703Y-72858097D01*
X77635543Y-72865444D01*
X77640112Y-72871860D01*
X77640113Y-72871862D01*
X77692051Y-72944798D01*
X77720361Y-72984553D01*
X77727449Y-72990127D01*
X77828213Y-73069370D01*
X77828216Y-73069371D01*
X77835299Y-73074942D01*
X77971047Y-73129287D01*
X77980017Y-73130144D01*
X77980019Y-73130144D01*
X78108761Y-73142438D01*
X78108764Y-73142438D01*
X78116608Y-73143187D01*
X78176792Y-73133801D01*
X79742825Y-72714184D01*
X79745968Y-72712969D01*
X79745977Y-72712966D01*
X79792289Y-72695062D01*
X79792292Y-72695060D01*
X79799639Y-72692220D01*
X79813417Y-72682409D01*
X79911405Y-72612631D01*
X79918748Y-72607402D01*
X79976209Y-72534335D01*
X80003565Y-72499550D01*
X80003566Y-72499547D01*
X80009137Y-72492464D01*
X80061909Y-72360645D01*
X80105796Y-72304838D01*
X80178883Y-72281474D01*
X81262823Y-72281475D01*
X81304412Y-72281475D01*
X81304506Y-72281462D01*
X81304698Y-72281456D01*
X81307961Y-72281456D01*
X81401368Y-72281457D01*
X81405490Y-72281457D01*
X81409574Y-72280919D01*
X81409579Y-72280919D01*
X81677813Y-72245607D01*
X81677814Y-72245607D01*
X81681907Y-72245068D01*
X81916243Y-72182279D01*
X81947227Y-72173977D01*
X81947228Y-72173977D01*
X81951209Y-72172910D01*
X81955017Y-72171333D01*
X81955022Y-72171331D01*
X82204978Y-72067799D01*
X82204984Y-72067796D01*
X82208789Y-72066220D01*
X82450239Y-71926821D01*
X82453957Y-71923968D01*
X82668156Y-71759611D01*
X82668161Y-71759606D01*
X82671429Y-71757099D01*
X82743695Y-71684834D01*
X82806008Y-71650809D01*
X82876823Y-71655875D01*
X82933659Y-71698422D01*
X82958771Y-71771731D01*
X82964154Y-72080105D01*
X82964233Y-72084653D01*
X82971800Y-72145093D01*
X82990177Y-72191855D01*
X83005307Y-72230352D01*
X83025283Y-72281183D01*
X83114941Y-72396693D01*
X83122249Y-72401967D01*
X83226202Y-72476992D01*
X83226205Y-72476993D01*
X83233509Y-72482265D01*
X83371383Y-72530966D01*
X83379233Y-72531672D01*
X83379235Y-72531672D01*
X83428687Y-72536117D01*
X83428694Y-72536117D01*
X83432051Y-72536419D01*
X83860781Y-72528936D01*
X85049717Y-72508183D01*
X85049723Y-72508183D01*
X85053080Y-72508124D01*
X85083322Y-72504338D01*
X85105701Y-72501536D01*
X85105702Y-72501536D01*
X85113520Y-72500557D01*
X85205554Y-72464388D01*
X85241224Y-72450370D01*
X85241226Y-72450369D01*
X85249610Y-72447074D01*
X85365120Y-72357416D01*
X85419928Y-72281475D01*
X85445419Y-72246155D01*
X85445420Y-72246152D01*
X85450692Y-72238848D01*
X85499393Y-72100974D01*
X85500104Y-72093069D01*
X85504544Y-72043670D01*
X85504544Y-72043663D01*
X85504846Y-72040306D01*
X85498927Y-71701179D01*
X85482281Y-70747517D01*
X85501091Y-70679057D01*
X85553927Y-70631635D01*
X85608262Y-70619318D01*
X86091335Y-70619318D01*
X86710056Y-70619319D01*
X86778177Y-70639321D01*
X86824670Y-70692977D01*
X86835366Y-70758488D01*
X86818419Y-70919728D01*
X86819109Y-70926293D01*
X86837105Y-71097511D01*
X86838381Y-71109656D01*
X86897396Y-71291284D01*
X86992883Y-71456672D01*
X86997301Y-71461579D01*
X86997302Y-71461580D01*
X87079821Y-71553227D01*
X87120670Y-71598594D01*
X87199510Y-71655875D01*
X87261881Y-71701190D01*
X87275171Y-71710846D01*
X87281197Y-71713529D01*
X87281204Y-71713533D01*
X87418055Y-71774462D01*
X87472151Y-71820442D01*
X87492801Y-71888369D01*
X87483216Y-71937787D01*
X87461514Y-71990182D01*
X87450269Y-72017329D01*
X87429631Y-72174091D01*
X87450269Y-72330853D01*
X87510777Y-72476932D01*
X87607031Y-72602373D01*
X87613577Y-72607396D01*
X87628904Y-72619157D01*
X87732472Y-72698627D01*
X87878551Y-72759135D01*
X87886739Y-72760213D01*
X87983647Y-72772971D01*
X87995952Y-72774591D01*
X88674674Y-72774591D01*
X88686980Y-72772971D01*
X88783887Y-72760213D01*
X88792075Y-72759135D01*
X88938154Y-72698627D01*
X89024610Y-72632287D01*
X89090830Y-72606687D01*
X89160379Y-72620952D01*
X89211175Y-72670553D01*
X89227314Y-72732250D01*
X89227314Y-72751977D01*
X89231789Y-72767216D01*
X89233179Y-72768421D01*
X89240862Y-72770092D01*
X90713314Y-72770092D01*
X90781435Y-72790094D01*
X90827928Y-72843750D01*
X90839314Y-72896092D01*
X90839314Y-73152092D01*
X90819312Y-73220213D01*
X90765656Y-73266706D01*
X90713314Y-73278092D01*
X89245429Y-73278092D01*
X89230190Y-73282567D01*
X89228985Y-73283957D01*
X89227314Y-73291640D01*
X89227314Y-73569315D01*
X89227674Y-73576035D01*
X89229224Y-73590452D01*
X89216618Y-73660320D01*
X89168238Y-73712282D01*
X89103947Y-73729919D01*
X85732775Y-73729918D01*
X85603023Y-73729918D01*
X85534902Y-73709916D01*
X85485754Y-73650004D01*
X85482087Y-73640673D01*
X85474839Y-73622230D01*
X85399734Y-73525469D01*
X85390707Y-73513839D01*
X85390706Y-73513838D01*
X85385181Y-73506720D01*
X85343382Y-73476553D01*
X85273920Y-73426421D01*
X85273917Y-73426420D01*
X85266613Y-73421148D01*
X85128739Y-73372447D01*
X85120889Y-73371741D01*
X85120887Y-73371741D01*
X85071435Y-73367296D01*
X85071428Y-73367296D01*
X85068071Y-73366994D01*
X84639340Y-73374477D01*
X83450405Y-73395230D01*
X83450399Y-73395230D01*
X83447042Y-73395289D01*
X83423216Y-73398272D01*
X83394421Y-73401877D01*
X83394420Y-73401877D01*
X83386602Y-73402856D01*
X83326640Y-73426421D01*
X83258898Y-73453043D01*
X83258896Y-73453044D01*
X83250512Y-73456339D01*
X83214910Y-73483973D01*
X83148812Y-73535278D01*
X83135002Y-73545997D01*
X83113323Y-73576035D01*
X83054703Y-73657258D01*
X83054702Y-73657261D01*
X83049430Y-73664565D01*
X83000729Y-73802439D01*
X83000023Y-73810289D01*
X83000023Y-73810291D01*
X82995623Y-73859250D01*
X82995276Y-73863107D01*
X83000625Y-74169558D01*
X83023183Y-75461889D01*
X83023571Y-75484136D01*
X83031138Y-75544576D01*
X83047589Y-75586436D01*
X83072268Y-75649232D01*
X83084621Y-75680666D01*
X83124624Y-75732203D01*
X83164594Y-75783698D01*
X83174279Y-75796176D01*
X83216078Y-75826343D01*
X83285540Y-75876475D01*
X83285543Y-75876476D01*
X83292847Y-75881748D01*
X83430721Y-75930449D01*
X83438571Y-75931155D01*
X83438573Y-75931155D01*
X83488025Y-75935600D01*
X83488032Y-75935600D01*
X83491389Y-75935902D01*
X83920120Y-75928419D01*
X85109055Y-75907666D01*
X85109061Y-75907666D01*
X85112418Y-75907607D01*
X85146204Y-75903377D01*
X85165039Y-75901019D01*
X85165040Y-75901019D01*
X85172858Y-75900040D01*
X85267533Y-75862833D01*
X85300562Y-75849853D01*
X85300564Y-75849852D01*
X85308948Y-75846557D01*
X85412058Y-75766524D01*
X85417339Y-75762425D01*
X85417340Y-75762424D01*
X85424458Y-75756899D01*
X85474341Y-75687782D01*
X85504757Y-75645638D01*
X85504758Y-75645635D01*
X85510030Y-75638331D01*
X85558731Y-75500457D01*
X85559644Y-75490302D01*
X85563882Y-75443153D01*
X85563882Y-75443146D01*
X85564184Y-75439789D01*
X85560460Y-75226418D01*
X85556988Y-75027517D01*
X85575798Y-74959057D01*
X85628634Y-74911635D01*
X85682969Y-74899318D01*
X86930308Y-74899318D01*
X91821264Y-74899319D01*
X91889385Y-74919321D01*
X91935878Y-74972977D01*
X91945981Y-75043251D01*
X91916488Y-75107831D01*
X91887594Y-75132446D01*
X91815485Y-75177094D01*
X91812454Y-75179533D01*
X91581493Y-75365387D01*
X91563164Y-75380136D01*
X91337707Y-75612647D01*
X91142531Y-75871101D01*
X91140590Y-75874463D01*
X91140588Y-75874466D01*
X91093240Y-75956475D01*
X90980596Y-76151581D01*
X90957985Y-76205001D01*
X90855869Y-76446259D01*
X90855866Y-76446267D01*
X90854356Y-76449835D01*
X90765724Y-76761342D01*
X90765129Y-76765176D01*
X90765128Y-76765180D01*
X90745400Y-76892271D01*
X90716045Y-77081380D01*
X90715925Y-77085261D01*
X90715925Y-77085266D01*
X90707287Y-77365674D01*
X90706072Y-77405097D01*
X90706429Y-77408949D01*
X90706429Y-77408950D01*
X90707596Y-77421548D01*
X90735955Y-77727586D01*
X90741911Y-77754780D01*
X90802597Y-78031883D01*
X90805241Y-78043958D01*
X90806531Y-78047618D01*
X90806531Y-78047619D01*
X90907768Y-78334907D01*
X90912881Y-78349418D01*
X90914606Y-78352882D01*
X90914608Y-78352887D01*
X90978199Y-78480594D01*
X90990658Y-78550489D01*
X90963351Y-78616024D01*
X90904948Y-78656392D01*
X90833991Y-78658777D01*
X90779706Y-78629122D01*
X90640506Y-78499964D01*
X90624794Y-78485385D01*
X90462738Y-78374897D01*
X90410925Y-78339571D01*
X90410923Y-78339570D01*
X90407029Y-78336915D01*
X90249268Y-78260941D01*
X90173816Y-78224605D01*
X90173814Y-78224604D01*
X90169567Y-78222559D01*
X89917713Y-78144873D01*
X89913063Y-78144172D01*
X89913058Y-78144171D01*
X89776264Y-78123553D01*
X89657094Y-78105591D01*
X89393532Y-78105591D01*
X89247791Y-78127558D01*
X89137576Y-78144170D01*
X89137574Y-78144170D01*
X89135945Y-78144416D01*
X89135944Y-78144416D01*
X89132913Y-78144873D01*
X89132815Y-78144225D01*
X89065517Y-78140106D01*
X89008247Y-78098145D01*
X88982755Y-78031883D01*
X88997133Y-77962357D01*
X89008697Y-77944479D01*
X89083521Y-77847814D01*
X89083523Y-77847811D01*
X89087435Y-77842757D01*
X89174808Y-77664635D01*
X89179715Y-77645685D01*
X89222937Y-77478752D01*
X89222938Y-77478748D01*
X89224537Y-77472571D01*
X89224860Y-77466197D01*
X89224861Y-77466192D01*
X89231114Y-77342878D01*
X89234585Y-77274428D01*
X89231364Y-77253398D01*
X89205510Y-77084630D01*
X89205510Y-77084629D01*
X89204543Y-77078318D01*
X89135638Y-76892271D01*
X89030693Y-76723902D01*
X88894004Y-76580105D01*
X88888765Y-76576458D01*
X88888762Y-76576456D01*
X88736414Y-76470419D01*
X88731167Y-76466767D01*
X88548848Y-76388528D01*
X88542590Y-76387242D01*
X88542587Y-76387241D01*
X88441108Y-76366387D01*
X88354512Y-76348591D01*
X88257075Y-76348591D01*
X88220500Y-76343166D01*
X88047173Y-76290588D01*
X88047167Y-76290587D01*
X88041247Y-76288791D01*
X87968133Y-76281590D01*
X87890001Y-76273894D01*
X87889994Y-76273894D01*
X87886921Y-76273591D01*
X87783705Y-76273591D01*
X87780632Y-76273894D01*
X87780625Y-76273894D01*
X87702493Y-76281590D01*
X87629379Y-76288791D01*
X87623459Y-76290587D01*
X87623453Y-76290588D01*
X87480437Y-76333972D01*
X87431359Y-76348859D01*
X87248863Y-76446406D01*
X87088903Y-76577681D01*
X86957628Y-76737641D01*
X86860081Y-76920137D01*
X86858286Y-76926055D01*
X86801810Y-77112231D01*
X86801809Y-77112237D01*
X86800013Y-77118157D01*
X86779730Y-77324091D01*
X86800013Y-77530025D01*
X86801809Y-77535945D01*
X86801810Y-77535951D01*
X86841493Y-77666768D01*
X86860081Y-77728045D01*
X86957628Y-77910541D01*
X87088903Y-78070501D01*
X87248863Y-78201776D01*
X87431359Y-78299323D01*
X87470767Y-78311277D01*
X87623453Y-78357594D01*
X87623459Y-78357595D01*
X87629379Y-78359391D01*
X87702493Y-78366592D01*
X87780625Y-78374288D01*
X87780632Y-78374288D01*
X87783705Y-78374591D01*
X87886921Y-78374591D01*
X87889994Y-78374288D01*
X87890001Y-78374288D01*
X87968133Y-78366592D01*
X88041247Y-78359391D01*
X88047167Y-78357595D01*
X88047173Y-78357594D01*
X88220500Y-78305016D01*
X88257075Y-78299591D01*
X88304786Y-78299591D01*
X88304786Y-78301214D01*
X88367677Y-78316249D01*
X88416841Y-78367468D01*
X88430510Y-78437137D01*
X88404343Y-78503135D01*
X88390744Y-78517942D01*
X88232627Y-78664653D01*
X88229694Y-78668331D01*
X88229692Y-78668333D01*
X88071233Y-78867034D01*
X88071230Y-78867038D01*
X88068298Y-78870715D01*
X87936517Y-79098967D01*
X87909887Y-79166820D01*
X87867481Y-79274868D01*
X87840226Y-79344311D01*
X87839176Y-79348910D01*
X87839176Y-79348911D01*
X87788234Y-79572105D01*
X87781578Y-79601265D01*
X87781226Y-79605965D01*
X87781225Y-79605970D01*
X87768579Y-79774719D01*
X87761882Y-79864091D01*
X87762234Y-79868788D01*
X87780157Y-80107950D01*
X87781578Y-80126917D01*
X87782628Y-80131516D01*
X87782628Y-80131518D01*
X87826879Y-80325395D01*
X87840226Y-80383871D01*
X87841950Y-80388262D01*
X87841950Y-80388264D01*
X87864369Y-80445387D01*
X87936517Y-80629215D01*
X87991974Y-80725270D01*
X88063370Y-80848931D01*
X88068298Y-80857467D01*
X88071230Y-80861144D01*
X88071233Y-80861148D01*
X88193829Y-81014878D01*
X88232627Y-81063529D01*
X88268528Y-81096840D01*
X88384544Y-81204487D01*
X88425832Y-81242797D01*
X88429718Y-81245447D01*
X88429720Y-81245448D01*
X88461796Y-81267317D01*
X88506812Y-81322218D01*
X88516817Y-81371422D01*
X88516818Y-81476724D01*
X88496817Y-81544845D01*
X88479347Y-81566383D01*
X88454325Y-81591090D01*
X88440667Y-81602774D01*
X88380102Y-81647517D01*
X88282423Y-81719678D01*
X88267238Y-81729302D01*
X88249979Y-81738585D01*
X88093961Y-81822499D01*
X88077565Y-81829861D01*
X87889024Y-81898827D01*
X87880480Y-81901611D01*
X87866920Y-81905500D01*
X78644392Y-84550018D01*
X78573397Y-84549567D01*
X78513916Y-84510805D01*
X78484833Y-84446039D01*
X78495383Y-84375830D01*
X78502085Y-84363333D01*
X78502187Y-84363134D01*
X78504773Y-84358913D01*
X78515570Y-84332848D01*
X78599768Y-84129575D01*
X78599769Y-84129573D01*
X78601662Y-84125002D01*
X78624343Y-84030529D01*
X78659611Y-83883627D01*
X78659612Y-83883621D01*
X78660766Y-83878814D01*
X78675067Y-83697113D01*
X78680243Y-83631344D01*
X78680243Y-83631341D01*
X78680631Y-83626411D01*
X78680242Y-83621473D01*
X78680242Y-83616530D01*
X78681876Y-83616530D01*
X78695008Y-83554054D01*
X78701100Y-83544349D01*
X78701168Y-83544269D01*
X78833456Y-83328395D01*
X78836370Y-83321362D01*
X78928451Y-83099057D01*
X78928452Y-83099055D01*
X78930345Y-83094484D01*
X78956944Y-82983689D01*
X78988294Y-82853109D01*
X78988295Y-82853103D01*
X78989449Y-82848296D01*
X79009314Y-82595893D01*
X79008805Y-82589421D01*
X79008926Y-82588845D01*
X79008926Y-82586006D01*
X79009522Y-82586006D01*
X79023402Y-82519941D01*
X79060357Y-82477600D01*
X79073183Y-82468282D01*
X79127910Y-82428521D01*
X79224154Y-82358597D01*
X79224158Y-82358594D01*
X79226371Y-82356986D01*
X79540442Y-82083972D01*
X79792948Y-81822497D01*
X79827610Y-81786604D01*
X79827611Y-81786603D01*
X79829523Y-81784623D01*
X79834575Y-81778385D01*
X79925950Y-81665546D01*
X80091413Y-81461218D01*
X80110220Y-81433336D01*
X80322574Y-81118513D01*
X80322577Y-81118507D01*
X80324121Y-81116219D01*
X80525874Y-80752250D01*
X80526993Y-80749737D01*
X80694018Y-80374596D01*
X80694020Y-80374590D01*
X80695137Y-80372082D01*
X80830621Y-79978609D01*
X80886972Y-79752600D01*
X80930630Y-79577502D01*
X80930632Y-79577492D01*
X80931297Y-79574825D01*
X80934219Y-79556380D01*
X80980327Y-79265263D01*
X80996397Y-79163802D01*
X81017278Y-78865194D01*
X81025234Y-78751419D01*
X81025234Y-78751414D01*
X81025426Y-78748670D01*
X81024607Y-78701722D01*
X81018212Y-78335331D01*
X81018212Y-78335328D01*
X81018164Y-78332588D01*
X80983820Y-78005837D01*
X80974950Y-77921441D01*
X80974950Y-77921439D01*
X80974664Y-77918721D01*
X80895259Y-77510221D01*
X80837907Y-77310209D01*
X80816705Y-77236268D01*
X80816704Y-77236266D01*
X80653815Y-76668202D01*
X80508568Y-76161664D01*
X80509019Y-76090669D01*
X80547781Y-76031188D01*
X80597078Y-76005227D01*
X80619544Y-75999208D01*
X80619559Y-75999203D01*
X80622810Y-75998332D01*
X80625953Y-75997117D01*
X80625962Y-75997114D01*
X80672274Y-75979210D01*
X80672277Y-75979208D01*
X80679624Y-75976368D01*
X80702110Y-75960356D01*
X80791390Y-75896779D01*
X80798733Y-75891550D01*
X80817900Y-75867178D01*
X80883550Y-75783698D01*
X80883551Y-75783695D01*
X80889122Y-75776612D01*
X80939417Y-75650980D01*
X80940117Y-75649232D01*
X80943467Y-75640864D01*
X80944520Y-75629835D01*
X80956618Y-75503150D01*
X80956618Y-75503147D01*
X80957367Y-75495303D01*
X80947981Y-75435119D01*
X80530809Y-73878210D01*
X80529237Y-73872344D01*
X80528364Y-73869086D01*
X80527149Y-73865943D01*
X80527146Y-73865934D01*
X80509242Y-73819622D01*
X80509240Y-73819619D01*
X80506400Y-73812272D01*
X80500590Y-73804112D01*
X80426811Y-73700506D01*
X80421582Y-73693163D01*
X80379819Y-73660320D01*
X80313730Y-73608346D01*
X80313727Y-73608345D01*
X80306644Y-73602774D01*
X80170896Y-73548429D01*
X80161926Y-73547572D01*
X80161924Y-73547572D01*
X80033182Y-73535278D01*
X80033179Y-73535278D01*
X80025335Y-73534529D01*
X79965151Y-73543915D01*
X78399118Y-73963532D01*
X78395975Y-73964747D01*
X78395966Y-73964750D01*
X78349654Y-73982654D01*
X78349651Y-73982656D01*
X78342304Y-73985496D01*
X78335888Y-73990065D01*
X78335886Y-73990066D01*
X78261842Y-74042793D01*
X78223195Y-74070314D01*
X78217621Y-74077402D01*
X78138378Y-74178166D01*
X78138377Y-74178169D01*
X78132806Y-74185252D01*
X78078461Y-74321000D01*
X78077604Y-74329970D01*
X78077604Y-74329972D01*
X78066142Y-74450009D01*
X78064561Y-74466561D01*
X78073947Y-74526745D01*
X78309273Y-75404995D01*
X78442814Y-75903377D01*
X78441124Y-75974353D01*
X78401330Y-76033149D01*
X78336066Y-76061097D01*
X78266052Y-76049324D01*
X78247046Y-76037924D01*
X78235660Y-76029651D01*
X78162322Y-75976368D01*
X78140284Y-75960356D01*
X78140283Y-75960355D01*
X78134942Y-75956475D01*
X78128914Y-75953791D01*
X78128912Y-75953790D01*
X77966509Y-75881484D01*
X77966508Y-75881484D01*
X77960478Y-75878799D01*
X77867077Y-75858946D01*
X77780134Y-75840465D01*
X77780129Y-75840465D01*
X77773677Y-75839093D01*
X77582703Y-75839093D01*
X77576251Y-75840465D01*
X77576246Y-75840465D01*
X77489303Y-75858946D01*
X77395902Y-75878799D01*
X77389872Y-75881484D01*
X77389871Y-75881484D01*
X77227468Y-75953790D01*
X77227466Y-75953791D01*
X77221438Y-75956475D01*
X77216097Y-75960355D01*
X77216096Y-75960356D01*
X77194058Y-75976368D01*
X77066937Y-76068727D01*
X77062516Y-76073637D01*
X77062515Y-76073638D01*
X76949895Y-76198716D01*
X76939150Y-76210649D01*
X76902636Y-76273894D01*
X76902451Y-76274214D01*
X76851069Y-76323207D01*
X76828063Y-76332332D01*
X76056152Y-76553674D01*
X76056148Y-76553674D01*
X76013165Y-76566000D01*
X76013164Y-76566000D01*
X75986174Y-76573739D01*
X75978181Y-76575751D01*
X75744302Y-76626534D01*
X75728001Y-76628970D01*
X75572529Y-76641890D01*
X75493625Y-76648447D01*
X75477148Y-76648735D01*
X75334907Y-76641903D01*
X75242227Y-76637452D01*
X75225851Y-76635586D01*
X75115392Y-76615612D01*
X74994417Y-76593736D01*
X74978432Y-76589751D01*
X74754432Y-76518049D01*
X74739098Y-76512008D01*
X74526386Y-76411686D01*
X74511971Y-76403696D01*
X74314166Y-76276463D01*
X74300918Y-76266660D01*
X74284547Y-76252801D01*
X74245478Y-76193520D01*
X74244661Y-76122528D01*
X74282355Y-76062364D01*
X74291075Y-76055299D01*
X74308982Y-76042071D01*
X74397351Y-75925573D01*
X74410288Y-75891550D01*
X74446117Y-75797318D01*
X74449319Y-75788897D01*
X74460677Y-75643116D01*
X74458726Y-75631892D01*
X74453555Y-75602160D01*
X74450242Y-75583104D01*
X74444326Y-75562470D01*
X74308358Y-75088297D01*
X74225834Y-74800501D01*
X74226285Y-74729507D01*
X74265047Y-74670026D01*
X74312223Y-74644653D01*
X74410540Y-74616461D01*
X74410672Y-74616436D01*
X74410670Y-74616430D01*
X74490815Y-74593520D01*
X74490820Y-74593518D01*
X74496120Y-74592003D01*
X74501079Y-74589587D01*
X74501086Y-74589584D01*
X74536926Y-74572121D01*
X74545682Y-74568259D01*
X74592155Y-74549835D01*
X74592156Y-74549835D01*
X74597911Y-74547553D01*
X74603105Y-74544196D01*
X74603109Y-74544194D01*
X74623909Y-74530750D01*
X74637108Y-74523305D01*
X74655907Y-74514145D01*
X74703419Y-74479589D01*
X74709131Y-74475671D01*
X74759550Y-74443085D01*
X74759554Y-74443082D01*
X74764754Y-74439721D01*
X74777897Y-74426974D01*
X74791511Y-74415519D01*
X74792261Y-74414974D01*
X74799655Y-74409596D01*
X74807619Y-74401327D01*
X74841861Y-74365769D01*
X74852568Y-74354651D01*
X74855591Y-74351617D01*
X74870195Y-74337453D01*
X74907355Y-74301411D01*
X74910872Y-74296318D01*
X74910887Y-74296300D01*
X74916464Y-74288836D01*
X74919121Y-74285543D01*
X74922951Y-74281565D01*
X74988353Y-74184127D01*
X74989263Y-74182791D01*
X75016712Y-74143038D01*
X75016714Y-74143034D01*
X75020233Y-74137938D01*
X75021820Y-74134267D01*
X75022011Y-74133982D01*
X75048521Y-74073933D01*
X75091561Y-73976439D01*
X75091561Y-73976438D01*
X75093796Y-73971376D01*
X75095111Y-73966007D01*
X75095939Y-73963576D01*
X75096563Y-73961364D01*
X75096594Y-73961266D01*
X75099050Y-73955585D01*
X75108512Y-73911544D01*
X75109319Y-73908029D01*
X75110444Y-73903441D01*
X75136102Y-73798738D01*
X75136956Y-73785591D01*
X75139436Y-73767770D01*
X75139477Y-73767411D01*
X75140777Y-73761360D01*
X75141419Y-73719331D01*
X75141669Y-73713088D01*
X75147272Y-73626880D01*
X75147272Y-73626876D01*
X75147630Y-73621366D01*
X75144360Y-73591895D01*
X75143606Y-73576077D01*
X75143685Y-73570916D01*
X75143810Y-73562726D01*
X75142086Y-73553305D01*
X75137789Y-73529837D01*
X75136498Y-73521043D01*
X75128636Y-73450193D01*
X75128027Y-73444704D01*
X75116972Y-73407038D01*
X75114399Y-73398272D01*
X75111359Y-73385478D01*
X75111267Y-73384977D01*
X75108034Y-73367316D01*
X75101329Y-73350401D01*
X75099653Y-73346174D01*
X75095902Y-73335280D01*
X75078288Y-73275364D01*
X75078282Y-73275350D01*
X75076642Y-73269770D01*
X75046369Y-73210280D01*
X75041537Y-73199579D01*
X75034823Y-73182641D01*
X75026504Y-73169769D01*
X75020036Y-73158531D01*
X74994520Y-73108391D01*
X74991876Y-73103195D01*
X74942338Y-73038775D01*
X74936433Y-73030407D01*
X74926991Y-73015798D01*
X74922686Y-73011360D01*
X74922684Y-73011357D01*
X74920825Y-73009441D01*
X74911385Y-72998521D01*
X74904931Y-72990127D01*
X74877944Y-72955032D01*
X74873612Y-72951152D01*
X74873606Y-72951145D01*
X74805838Y-72890441D01*
X74799460Y-72884311D01*
X74792992Y-72877642D01*
X74788681Y-72873197D01*
X74783585Y-72869678D01*
X74779415Y-72866148D01*
X74773627Y-72861587D01*
X74738728Y-72830326D01*
X74641345Y-72771198D01*
X74635164Y-72767194D01*
X74625208Y-72760319D01*
X74619619Y-72757903D01*
X74615751Y-72755657D01*
X74583949Y-72736349D01*
X74583947Y-72736348D01*
X74578968Y-72733325D01*
X74453901Y-72686124D01*
X74448580Y-72683972D01*
X74448540Y-72683959D01*
X74442855Y-72681502D01*
X74442848Y-72681499D01*
X74443020Y-72681100D01*
X74440606Y-72679465D01*
X74440064Y-72680902D01*
X74422618Y-72674318D01*
X74404104Y-72667331D01*
X74398374Y-72666312D01*
X74398372Y-72666311D01*
X74264741Y-72642536D01*
X74220091Y-72634592D01*
X74128673Y-72635390D01*
X74039017Y-72636172D01*
X74039015Y-72636172D01*
X74033195Y-72636223D01*
X74027488Y-72637342D01*
X74027483Y-72637342D01*
X73893593Y-72663582D01*
X73849782Y-72672168D01*
X73795040Y-72693926D01*
X73783088Y-72697995D01*
X73768645Y-72702117D01*
X73768640Y-72702119D01*
X73767290Y-72702504D01*
X73766862Y-72702717D01*
X73766252Y-72702923D01*
X72281642Y-73128627D01*
X72281608Y-73128640D01*
X72281570Y-73128652D01*
X71575967Y-73330981D01*
X71519981Y-73334056D01*
X71507572Y-73331932D01*
X71494461Y-73326482D01*
X71480282Y-73327261D01*
X71475130Y-73326379D01*
X71467703Y-73325952D01*
X71462479Y-73326239D01*
X71448485Y-73323843D01*
X71426211Y-73330230D01*
X71426210Y-73330230D01*
X71426207Y-73330231D01*
X71426206Y-73330231D01*
X70430059Y-73615872D01*
X67987944Y-74316138D01*
X67987943Y-74316138D01*
X67899962Y-74341366D01*
X67889365Y-74350813D01*
X67884793Y-74353332D01*
X67878702Y-74357642D01*
X67874804Y-74361117D01*
X67862371Y-74367968D01*
X67854142Y-74379534D01*
X67844744Y-74387912D01*
X67795633Y-74414974D01*
X67503030Y-74498877D01*
X67250077Y-74571410D01*
X67172257Y-74568693D01*
X67010266Y-74509735D01*
X67005406Y-74508790D01*
X67005401Y-74508789D01*
X66844356Y-74477488D01*
X66805419Y-74469920D01*
X66800473Y-74469747D01*
X66800470Y-74469747D01*
X66666312Y-74465065D01*
X66596865Y-74462641D01*
X66591947Y-74463245D01*
X66591946Y-74463245D01*
X66394656Y-74487474D01*
X66394651Y-74487475D01*
X66389741Y-74488078D01*
X66384981Y-74489443D01*
X66352084Y-74498877D01*
X66317882Y-74508685D01*
X64498556Y-75030366D01*
X64427562Y-75029915D01*
X64412583Y-75024356D01*
X64278483Y-74964651D01*
X64162656Y-74940031D01*
X64098139Y-74926317D01*
X64098134Y-74926317D01*
X64091682Y-74924945D01*
X63900708Y-74924945D01*
X63894256Y-74926317D01*
X63894251Y-74926317D01*
X63829734Y-74940031D01*
X63713907Y-74964651D01*
X63707877Y-74967336D01*
X63707876Y-74967336D01*
X63545473Y-75039642D01*
X63545471Y-75039643D01*
X63539443Y-75042327D01*
X63534102Y-75046207D01*
X63534101Y-75046208D01*
X63530814Y-75048596D01*
X63384942Y-75154579D01*
X63380521Y-75159489D01*
X63380520Y-75159490D01*
X63263722Y-75289208D01*
X63257155Y-75296501D01*
X63161668Y-75461889D01*
X63102653Y-75643517D01*
X63101963Y-75650078D01*
X63101963Y-75650080D01*
X63090314Y-75760917D01*
X63082691Y-75833445D01*
X63083381Y-75840010D01*
X63101711Y-76014406D01*
X63102653Y-76023373D01*
X63161668Y-76205001D01*
X63164971Y-76210723D01*
X63164972Y-76210724D01*
X63168230Y-76216367D01*
X63257155Y-76370389D01*
X63261573Y-76375296D01*
X63261574Y-76375297D01*
X63333277Y-76454931D01*
X63384942Y-76512311D01*
X63447366Y-76557665D01*
X63496846Y-76593614D01*
X63539443Y-76624563D01*
X63545471Y-76627247D01*
X63545473Y-76627248D01*
X63693454Y-76693133D01*
X63713907Y-76702239D01*
X63771346Y-76714448D01*
X63894251Y-76740573D01*
X63894256Y-76740573D01*
X63900708Y-76741945D01*
X64091682Y-76741945D01*
X64098134Y-76740573D01*
X64098139Y-76740573D01*
X64221049Y-76714447D01*
X64271016Y-76703826D01*
X64341806Y-76709228D01*
X64398438Y-76752045D01*
X64422932Y-76818682D01*
X64422767Y-76825778D01*
X64423091Y-76825772D01*
X64423235Y-76834028D01*
X64422300Y-76842235D01*
X64445671Y-76998613D01*
X64448961Y-77006180D01*
X64448962Y-77006183D01*
X64466966Y-77047589D01*
X64508719Y-77143614D01*
X64607147Y-77267356D01*
X64613788Y-77272270D01*
X64613789Y-77272271D01*
X64711375Y-77344480D01*
X64734249Y-77361406D01*
X64881362Y-77419355D01*
X64977789Y-77430342D01*
X65030253Y-77436320D01*
X65030254Y-77436320D01*
X65038460Y-77437255D01*
X65084715Y-77430342D01*
X65151493Y-77420362D01*
X65151496Y-77420361D01*
X65155573Y-77419752D01*
X65159536Y-77418616D01*
X65159539Y-77418615D01*
X65804040Y-77233808D01*
X65804045Y-77233806D01*
X65808004Y-77232671D01*
X65824490Y-77225503D01*
X65909021Y-77188748D01*
X65909020Y-77188748D01*
X65916597Y-77185454D01*
X66040339Y-77087026D01*
X66047358Y-77077541D01*
X66099907Y-77006524D01*
X66156505Y-76963662D01*
X66227292Y-76958204D01*
X66289792Y-76991882D01*
X66322312Y-77046741D01*
X66551090Y-77844583D01*
X66553298Y-77850969D01*
X66571980Y-77896893D01*
X66579637Y-77910541D01*
X66656396Y-78014449D01*
X66668926Y-78027139D01*
X66770955Y-78104532D01*
X66786554Y-78113179D01*
X66906254Y-78158692D01*
X66923658Y-78162594D01*
X67052451Y-78172628D01*
X67068077Y-78171890D01*
X67116951Y-78163392D01*
X67123502Y-78161888D01*
X67434790Y-78072627D01*
X67448205Y-78064125D01*
X67452203Y-78055517D01*
X67452203Y-76818179D01*
X67472205Y-76750058D01*
X67525861Y-76703565D01*
X67578203Y-76692179D01*
X67834203Y-76692179D01*
X67902324Y-76712181D01*
X67948817Y-76765837D01*
X67960203Y-76818179D01*
X67960203Y-77903853D01*
X67964176Y-77917384D01*
X67972178Y-77918534D01*
X68736351Y-77699411D01*
X68792339Y-77696336D01*
X68805882Y-77698654D01*
X68818993Y-77704104D01*
X68833172Y-77703325D01*
X68838324Y-77704207D01*
X68845751Y-77704634D01*
X68850975Y-77704347D01*
X68864969Y-77706743D01*
X68887243Y-77700356D01*
X68887244Y-77700356D01*
X68887247Y-77700355D01*
X68887248Y-77700355D01*
X70177942Y-77330254D01*
X72325510Y-76714448D01*
X72325511Y-76714448D01*
X72413492Y-76689220D01*
X72424089Y-76679773D01*
X72428661Y-76677254D01*
X72434752Y-76672944D01*
X72438650Y-76669469D01*
X72451083Y-76662618D01*
X72459312Y-76651052D01*
X72468710Y-76642674D01*
X72517820Y-76615612D01*
X72599233Y-76592267D01*
X72731283Y-76554402D01*
X72802277Y-76554852D01*
X72861759Y-76593614D01*
X72870461Y-76605048D01*
X72899661Y-76648340D01*
X73114669Y-76904580D01*
X73117038Y-76906867D01*
X73117041Y-76906871D01*
X73320677Y-77103522D01*
X73355283Y-77136941D01*
X73357880Y-77138970D01*
X73357888Y-77138977D01*
X73482412Y-77236266D01*
X73618868Y-77342878D01*
X73621654Y-77344619D01*
X73621657Y-77344621D01*
X73867347Y-77498146D01*
X73902535Y-77520134D01*
X73993939Y-77564715D01*
X74198804Y-77664635D01*
X74203177Y-77666768D01*
X74517500Y-77781172D01*
X74842059Y-77862093D01*
X75173300Y-77908644D01*
X75332129Y-77914190D01*
X75504287Y-77920201D01*
X75504294Y-77920201D01*
X75507591Y-77920316D01*
X75510877Y-77920086D01*
X75510887Y-77920086D01*
X75765818Y-77902257D01*
X75835168Y-77917458D01*
X75885291Y-77967739D01*
X75900273Y-78037137D01*
X75875357Y-78103618D01*
X75856681Y-78123553D01*
X75837399Y-78140106D01*
X75714637Y-78245494D01*
X75710728Y-78250544D01*
X75710727Y-78250545D01*
X75597107Y-78397329D01*
X75597105Y-78397333D01*
X75593197Y-78402381D01*
X75505824Y-78580503D01*
X75504223Y-78586685D01*
X75504223Y-78586686D01*
X75461098Y-78753245D01*
X75456095Y-78772567D01*
X75455772Y-78778941D01*
X75455771Y-78778946D01*
X75451118Y-78870715D01*
X75446047Y-78970710D01*
X75447014Y-78977022D01*
X75447014Y-78977024D01*
X75473325Y-79148775D01*
X75476089Y-79166820D01*
X75544994Y-79352867D01*
X75548376Y-79358293D01*
X75550400Y-79361540D01*
X75649939Y-79521236D01*
X75786628Y-79665033D01*
X75791867Y-79668680D01*
X75791870Y-79668682D01*
X75944218Y-79774719D01*
X75949465Y-79778371D01*
X76131784Y-79856610D01*
X76138042Y-79857896D01*
X76138045Y-79857897D01*
X76221908Y-79875131D01*
X76326120Y-79896547D01*
X76474792Y-79896547D01*
X76622698Y-79881506D01*
X76628790Y-79879595D01*
X76628793Y-79879594D01*
X76697570Y-79858016D01*
X76747637Y-79852845D01*
X76761747Y-79854234D01*
X76777441Y-79855780D01*
X76880657Y-79855780D01*
X76883730Y-79855477D01*
X76883737Y-79855477D01*
X76961869Y-79847781D01*
X77034983Y-79840580D01*
X77040903Y-79838784D01*
X77040909Y-79838783D01*
X77190981Y-79793259D01*
X77233003Y-79780512D01*
X77415499Y-79682965D01*
X77575459Y-79551690D01*
X77706734Y-79391730D01*
X77804281Y-79209234D01*
X77828036Y-79130923D01*
X77862552Y-79017140D01*
X77862553Y-79017134D01*
X77864349Y-79011214D01*
X77884632Y-78805280D01*
X77864349Y-78599346D01*
X77862553Y-78593426D01*
X77862552Y-78593420D01*
X77815044Y-78436807D01*
X77804281Y-78401326D01*
X77706734Y-78218830D01*
X77575459Y-78058870D01*
X77415499Y-77927595D01*
X77233003Y-77830048D01*
X77140465Y-77801977D01*
X77081085Y-77763063D01*
X77052169Y-77698222D01*
X77062899Y-77628041D01*
X77109868Y-77574802D01*
X77142311Y-77560284D01*
X77175829Y-77550673D01*
X77246824Y-77551124D01*
X77261807Y-77556685D01*
X77389867Y-77613701D01*
X77389875Y-77613704D01*
X77395902Y-77616387D01*
X77487341Y-77635823D01*
X77576246Y-77654721D01*
X77576251Y-77654721D01*
X77582703Y-77656093D01*
X77773677Y-77656093D01*
X77780129Y-77654721D01*
X77780134Y-77654721D01*
X77869039Y-77635823D01*
X77960478Y-77616387D01*
X77966511Y-77613701D01*
X78128912Y-77541396D01*
X78128914Y-77541395D01*
X78134942Y-77538711D01*
X78162916Y-77518387D01*
X78224137Y-77473907D01*
X78289443Y-77426459D01*
X78295482Y-77419752D01*
X78412811Y-77289445D01*
X78412812Y-77289444D01*
X78417230Y-77284537D01*
X78494858Y-77150081D01*
X78509413Y-77124872D01*
X78509414Y-77124871D01*
X78512717Y-77119149D01*
X78571732Y-76937521D01*
X78574133Y-76914682D01*
X78591004Y-76754158D01*
X78591694Y-76747593D01*
X78581845Y-76653882D01*
X78572422Y-76564228D01*
X78572422Y-76564226D01*
X78571732Y-76557665D01*
X78559252Y-76519256D01*
X78557224Y-76448289D01*
X78593887Y-76387491D01*
X78657599Y-76356165D01*
X78725912Y-76363345D01*
X78851032Y-76413435D01*
X78860002Y-76414292D01*
X78860004Y-76414292D01*
X78988746Y-76426586D01*
X78988749Y-76426586D01*
X78996593Y-76427335D01*
X79056777Y-76417949D01*
X79073624Y-76413435D01*
X79129611Y-76398434D01*
X79200587Y-76400124D01*
X79259383Y-76439919D01*
X79283340Y-76485411D01*
X79617681Y-77651394D01*
X79619138Y-77656475D01*
X79620695Y-77662457D01*
X79638953Y-77740376D01*
X79696905Y-77987700D01*
X79699132Y-77999862D01*
X79742690Y-78327947D01*
X79743714Y-78340270D01*
X79746728Y-78429357D01*
X79754580Y-78661452D01*
X79754904Y-78671044D01*
X79754715Y-78683403D01*
X79740155Y-78909315D01*
X79733429Y-79013683D01*
X79732029Y-79025969D01*
X79724401Y-79072488D01*
X79692333Y-79268046D01*
X79678473Y-79352564D01*
X79675876Y-79364651D01*
X79675343Y-79366651D01*
X79590563Y-79684437D01*
X79586793Y-79696213D01*
X79470552Y-80006081D01*
X79465646Y-80017431D01*
X79319589Y-80314419D01*
X79313596Y-80325233D01*
X79282974Y-80374596D01*
X79139128Y-80606480D01*
X79132102Y-80616655D01*
X78930913Y-80879442D01*
X78922924Y-80888879D01*
X78832499Y-80985635D01*
X78696944Y-81130680D01*
X78688068Y-81139288D01*
X78513310Y-81292883D01*
X78448939Y-81322830D01*
X78378596Y-81313221D01*
X78352132Y-81296479D01*
X78351981Y-81296687D01*
X78348743Y-81294334D01*
X78348304Y-81294057D01*
X78344216Y-81290565D01*
X78128342Y-81158277D01*
X78123772Y-81156384D01*
X78123768Y-81156382D01*
X77899004Y-81063282D01*
X77899002Y-81063281D01*
X77894431Y-81061388D01*
X77794359Y-81037363D01*
X77653056Y-81003439D01*
X77653050Y-81003438D01*
X77648243Y-81002284D01*
X77395840Y-80982419D01*
X77143437Y-81002284D01*
X77138630Y-81003438D01*
X77138624Y-81003439D01*
X76997321Y-81037363D01*
X76897249Y-81061388D01*
X76892678Y-81063281D01*
X76892676Y-81063282D01*
X76667912Y-81156382D01*
X76667908Y-81156384D01*
X76663338Y-81158277D01*
X76447464Y-81290565D01*
X76254942Y-81454995D01*
X76090512Y-81647517D01*
X75958224Y-81863391D01*
X75956331Y-81867961D01*
X75956329Y-81867965D01*
X75863229Y-82092729D01*
X75861335Y-82097302D01*
X75848609Y-82150309D01*
X75814449Y-82292600D01*
X75802231Y-82343490D01*
X75795915Y-82423740D01*
X75782921Y-82588845D01*
X75782366Y-82595893D01*
X75782755Y-82600831D01*
X75782755Y-82605774D01*
X75781121Y-82605774D01*
X75767989Y-82668250D01*
X75761897Y-82677955D01*
X75761829Y-82678035D01*
X75761086Y-82679247D01*
X75761048Y-82679308D01*
X75660342Y-82843644D01*
X75607695Y-82891275D01*
X75543024Y-82903421D01*
X75388882Y-82891290D01*
X75383952Y-82890902D01*
X75131549Y-82910767D01*
X75126742Y-82911921D01*
X75126736Y-82911922D01*
X74969984Y-82949555D01*
X74885361Y-82969871D01*
X74880790Y-82971764D01*
X74880788Y-82971765D01*
X74656024Y-83064865D01*
X74656020Y-83064867D01*
X74651450Y-83066760D01*
X74435576Y-83199048D01*
X74243054Y-83363478D01*
X74078624Y-83556000D01*
X73946336Y-83771874D01*
X73944443Y-83776444D01*
X73944441Y-83776448D01*
X73868039Y-83960900D01*
X73849447Y-84005785D01*
X73790343Y-84251973D01*
X73787816Y-84284088D01*
X73783699Y-84336398D01*
X73758414Y-84402740D01*
X73701276Y-84444880D01*
X73628673Y-84449032D01*
X73425586Y-84400275D01*
X73425580Y-84400274D01*
X73420773Y-84399120D01*
X73168370Y-84379255D01*
X72915967Y-84399120D01*
X72911160Y-84400274D01*
X72911154Y-84400275D01*
X72774379Y-84433112D01*
X72669779Y-84458224D01*
X72665208Y-84460117D01*
X72665206Y-84460118D01*
X72440442Y-84553218D01*
X72440438Y-84553220D01*
X72435868Y-84555113D01*
X72219994Y-84687401D01*
X72027472Y-84851831D01*
X71863042Y-85044353D01*
X71754284Y-85221830D01*
X71701637Y-85269460D01*
X71631596Y-85281067D01*
X71576431Y-85259362D01*
X71576120Y-85259869D01*
X71573251Y-85258111D01*
X71573252Y-85258111D01*
X71571902Y-85257284D01*
X71571899Y-85257282D01*
X71364466Y-85130167D01*
X71360246Y-85127581D01*
X71355676Y-85125688D01*
X71355672Y-85125686D01*
X71130908Y-85032586D01*
X71130906Y-85032585D01*
X71126335Y-85030692D01*
X71035256Y-85008826D01*
X70884960Y-84972743D01*
X70884954Y-84972742D01*
X70880147Y-84971588D01*
X70627744Y-84951723D01*
X70375341Y-84971588D01*
X70370534Y-84972742D01*
X70370528Y-84972743D01*
X70150342Y-85025605D01*
X70079434Y-85022058D01*
X70021700Y-84980738D01*
X69995470Y-84914764D01*
X70009073Y-84845083D01*
X70022417Y-84824526D01*
X70033902Y-84810124D01*
X70036837Y-84806444D01*
X70168618Y-84578192D01*
X70224408Y-84436043D01*
X70263185Y-84337241D01*
X70263185Y-84337239D01*
X70264909Y-84332848D01*
X70277117Y-84279361D01*
X70322507Y-84080495D01*
X70322507Y-84080493D01*
X70323557Y-84075894D01*
X70325055Y-84055915D01*
X70342901Y-83817765D01*
X70343253Y-83813068D01*
X70335894Y-83714866D01*
X70323910Y-83554947D01*
X70323909Y-83554942D01*
X70323557Y-83550242D01*
X70321919Y-83543063D01*
X70265959Y-83297888D01*
X70265959Y-83297887D01*
X70264909Y-83293288D01*
X70168618Y-83047944D01*
X70078174Y-82891290D01*
X70039193Y-82823772D01*
X70039190Y-82823768D01*
X70036837Y-82819692D01*
X70033905Y-82816015D01*
X70033902Y-82816011D01*
X69955255Y-82717391D01*
X69928421Y-82651660D01*
X69941383Y-82581857D01*
X69990026Y-82530143D01*
X70058906Y-82512936D01*
X70126566Y-82535991D01*
X70154163Y-82555527D01*
X70154176Y-82555535D01*
X70157336Y-82557772D01*
X70160746Y-82559603D01*
X70160749Y-82559605D01*
X70439263Y-82709164D01*
X70439270Y-82709167D01*
X70442670Y-82710993D01*
X70533517Y-82746187D01*
X70733297Y-82823582D01*
X70744670Y-82827988D01*
X70806918Y-82843644D01*
X71054988Y-82906037D01*
X71054995Y-82906038D01*
X71058759Y-82906985D01*
X71380175Y-82946785D01*
X71622997Y-82946785D01*
X71636434Y-82945956D01*
X71861498Y-82932075D01*
X71861505Y-82932074D01*
X71865366Y-82931836D01*
X72183722Y-82872325D01*
X72492352Y-82774143D01*
X72614620Y-82717891D01*
X72783055Y-82640399D01*
X72783063Y-82640395D01*
X72786577Y-82638778D01*
X72789880Y-82636733D01*
X73058629Y-82470331D01*
X73058631Y-82470330D01*
X73061938Y-82468282D01*
X73116376Y-82424476D01*
X73311236Y-82267673D01*
X73311240Y-82267670D01*
X73314259Y-82265240D01*
X73539716Y-82032729D01*
X73734892Y-81774275D01*
X73738075Y-81768763D01*
X73801106Y-81659588D01*
X73896827Y-81493795D01*
X73940250Y-81391205D01*
X74021554Y-81199117D01*
X74021557Y-81199109D01*
X74023067Y-81195541D01*
X74111699Y-80884034D01*
X74113616Y-80871688D01*
X74154877Y-80605875D01*
X74161378Y-80563996D01*
X74161498Y-80560110D01*
X74171232Y-80244153D01*
X74171232Y-80244147D01*
X74171351Y-80240279D01*
X74141468Y-79917790D01*
X74114196Y-79793259D01*
X74073012Y-79605207D01*
X74073011Y-79605204D01*
X74072182Y-79601418D01*
X74062811Y-79574825D01*
X73965832Y-79299618D01*
X73965830Y-79299614D01*
X73964542Y-79295958D01*
X73954041Y-79274868D01*
X73821908Y-79009510D01*
X73821907Y-79009508D01*
X73820180Y-79006040D01*
X73717721Y-78851413D01*
X73643429Y-78739294D01*
X73643423Y-78739286D01*
X73641286Y-78736061D01*
X73596176Y-78683408D01*
X73433096Y-78493061D01*
X73433092Y-78493057D01*
X73430569Y-78490112D01*
X73427705Y-78487501D01*
X73427700Y-78487496D01*
X73221032Y-78299094D01*
X73191226Y-78271922D01*
X72926884Y-78084798D01*
X72913156Y-78077426D01*
X72644957Y-77933406D01*
X72644950Y-77933403D01*
X72641550Y-77931577D01*
X72397464Y-77837018D01*
X72343172Y-77815985D01*
X72343170Y-77815984D01*
X72339550Y-77814582D01*
X72206713Y-77781172D01*
X72029232Y-77736533D01*
X72029225Y-77736532D01*
X72025461Y-77735585D01*
X71704045Y-77695785D01*
X71461223Y-77695785D01*
X71452290Y-77696336D01*
X71222722Y-77710495D01*
X71222715Y-77710496D01*
X71218854Y-77710734D01*
X70900498Y-77770245D01*
X70591868Y-77868427D01*
X70588346Y-77870047D01*
X70588347Y-77870047D01*
X70301165Y-78002171D01*
X70301157Y-78002175D01*
X70297643Y-78003792D01*
X70294342Y-78005836D01*
X70294340Y-78005837D01*
X70039880Y-78163392D01*
X70022282Y-78174288D01*
X70019251Y-78176727D01*
X69773365Y-78374591D01*
X69769961Y-78377330D01*
X69544504Y-78609841D01*
X69349328Y-78868295D01*
X69347387Y-78871657D01*
X69347385Y-78871660D01*
X69308246Y-78939451D01*
X69187393Y-79148775D01*
X69176358Y-79174847D01*
X69062666Y-79443453D01*
X69062663Y-79443461D01*
X69061153Y-79447029D01*
X68972521Y-79758536D01*
X68971926Y-79762370D01*
X68971925Y-79762374D01*
X68951169Y-79896090D01*
X68922842Y-80078574D01*
X68922722Y-80082455D01*
X68922722Y-80082460D01*
X68913058Y-80396163D01*
X68912869Y-80402291D01*
X68942752Y-80724780D01*
X68943581Y-80728565D01*
X69000398Y-80988000D01*
X69012038Y-81041152D01*
X69013328Y-81044812D01*
X69013328Y-81044813D01*
X69111298Y-81322830D01*
X69119678Y-81346612D01*
X69121403Y-81350076D01*
X69121405Y-81350081D01*
X69262312Y-81633060D01*
X69264040Y-81636530D01*
X69325382Y-81729104D01*
X69440791Y-81903276D01*
X69440797Y-81903284D01*
X69442934Y-81906509D01*
X69445458Y-81909455D01*
X69592457Y-82081033D01*
X69621588Y-82145778D01*
X69611091Y-82215994D01*
X69564298Y-82269389D01*
X69496066Y-82289009D01*
X69442106Y-82276534D01*
X69224076Y-82171536D01*
X68972222Y-82093850D01*
X68967572Y-82093149D01*
X68967567Y-82093148D01*
X68830355Y-82072467D01*
X68711603Y-82054568D01*
X68448041Y-82054568D01*
X68329289Y-82072467D01*
X68192077Y-82093148D01*
X68192072Y-82093149D01*
X68187422Y-82093850D01*
X68104616Y-82119392D01*
X67940076Y-82170145D01*
X67940070Y-82170147D01*
X67935568Y-82171536D01*
X67900436Y-82188455D01*
X67725857Y-82272528D01*
X67655803Y-82284063D01*
X67590634Y-82255894D01*
X67551040Y-82196963D01*
X67549592Y-82125981D01*
X67558064Y-82103516D01*
X67562124Y-82095239D01*
X67578396Y-82062067D01*
X67580338Y-82054568D01*
X67626525Y-81876184D01*
X67626526Y-81876180D01*
X67628125Y-81870003D01*
X67628448Y-81863629D01*
X67628449Y-81863624D01*
X67635476Y-81725035D01*
X67638173Y-81671860D01*
X67636439Y-81660537D01*
X67609098Y-81482062D01*
X67609098Y-81482061D01*
X67608131Y-81475750D01*
X67539226Y-81289703D01*
X67434281Y-81121334D01*
X67297592Y-80977537D01*
X67292353Y-80973890D01*
X67292350Y-80973888D01*
X67140002Y-80867851D01*
X67134755Y-80864199D01*
X66952436Y-80785960D01*
X66946178Y-80784674D01*
X66946175Y-80784673D01*
X66831290Y-80761064D01*
X66758100Y-80746023D01*
X66609428Y-80746023D01*
X66461522Y-80761064D01*
X66455430Y-80762975D01*
X66455427Y-80762976D01*
X66386650Y-80784554D01*
X66336583Y-80789725D01*
X66322473Y-80788336D01*
X66306779Y-80786790D01*
X66203563Y-80786790D01*
X66200490Y-80787093D01*
X66200483Y-80787093D01*
X66122351Y-80794789D01*
X66049237Y-80801990D01*
X66043317Y-80803786D01*
X66043311Y-80803787D01*
X65941761Y-80834592D01*
X65851217Y-80862058D01*
X65668721Y-80959605D01*
X65508761Y-81090880D01*
X65377486Y-81250840D01*
X65279939Y-81433336D01*
X65271546Y-81461005D01*
X65221668Y-81625430D01*
X65221667Y-81625436D01*
X65219871Y-81631356D01*
X65199588Y-81837290D01*
X65219871Y-82043224D01*
X65221667Y-82049144D01*
X65221668Y-82049150D01*
X65259069Y-82172444D01*
X65279939Y-82241244D01*
X65377486Y-82423740D01*
X65508761Y-82583700D01*
X65668721Y-82714975D01*
X65851217Y-82812522D01*
X65888304Y-82823772D01*
X66043311Y-82870793D01*
X66043317Y-82870794D01*
X66049237Y-82872590D01*
X66122351Y-82879791D01*
X66200483Y-82887487D01*
X66200490Y-82887487D01*
X66203563Y-82887790D01*
X66306779Y-82887790D01*
X66309852Y-82887487D01*
X66309859Y-82887487D01*
X66387991Y-82879791D01*
X66461105Y-82872590D01*
X66467025Y-82870794D01*
X66467031Y-82870793D01*
X66622038Y-82823772D01*
X66659125Y-82812522D01*
X66841621Y-82714975D01*
X66846405Y-82711049D01*
X66846408Y-82711047D01*
X66878741Y-82684513D01*
X66920954Y-82661691D01*
X66970357Y-82646191D01*
X67041341Y-82644884D01*
X67101764Y-82682161D01*
X67132442Y-82746187D01*
X67123634Y-82816635D01*
X67117198Y-82829407D01*
X66991026Y-83047944D01*
X66894735Y-83293288D01*
X66893685Y-83297887D01*
X66893685Y-83297888D01*
X66837726Y-83543063D01*
X66836087Y-83550242D01*
X66835735Y-83554942D01*
X66835734Y-83554947D01*
X66823750Y-83714866D01*
X66816391Y-83813068D01*
X66816743Y-83817765D01*
X66834590Y-84055915D01*
X66836087Y-84075894D01*
X66837137Y-84080493D01*
X66837137Y-84080495D01*
X66882527Y-84279361D01*
X66894735Y-84332848D01*
X66896459Y-84337239D01*
X66896459Y-84337241D01*
X66935236Y-84436043D01*
X66991026Y-84578192D01*
X67122807Y-84806444D01*
X67125739Y-84810121D01*
X67125742Y-84810125D01*
X67254505Y-84971588D01*
X67287136Y-85012506D01*
X67480341Y-85191774D01*
X67555306Y-85242884D01*
X67641106Y-85301382D01*
X67686123Y-85356282D01*
X67689961Y-85366552D01*
X67770394Y-85614104D01*
X67771732Y-85617109D01*
X67771735Y-85617117D01*
X67899354Y-85903756D01*
X67899359Y-85903766D01*
X67900697Y-85906771D01*
X68060878Y-86184214D01*
X68249183Y-86443393D01*
X68251390Y-86445844D01*
X68251394Y-86445849D01*
X68369237Y-86576725D01*
X68463549Y-86681468D01*
X68701626Y-86895832D01*
X68704299Y-86897774D01*
X68878705Y-87024485D01*
X68960807Y-87084135D01*
X69108899Y-87169634D01*
X69157892Y-87221015D01*
X69162308Y-87230535D01*
X69186699Y-87289420D01*
X69190128Y-87297699D01*
X69322416Y-87513573D01*
X69486846Y-87706095D01*
X69679368Y-87870525D01*
X69895242Y-88002813D01*
X69899812Y-88004706D01*
X69899816Y-88004708D01*
X70124580Y-88097808D01*
X70129153Y-88099702D01*
X70213776Y-88120018D01*
X70370528Y-88157651D01*
X70370534Y-88157652D01*
X70375341Y-88158806D01*
X70627744Y-88178671D01*
X70880147Y-88158806D01*
X70884954Y-88157652D01*
X70884960Y-88157651D01*
X71041712Y-88120018D01*
X71126335Y-88099702D01*
X71130908Y-88097808D01*
X71355672Y-88004708D01*
X71355676Y-88004706D01*
X71360246Y-88002813D01*
X71576120Y-87870525D01*
X71768642Y-87706095D01*
X71843997Y-87617866D01*
X71903448Y-87579057D01*
X71939807Y-87573697D01*
X72119467Y-87573698D01*
X72408866Y-87573700D01*
X72476986Y-87593702D01*
X72523479Y-87647358D01*
X72534865Y-87699700D01*
X72534864Y-88439733D01*
X72534864Y-89092470D01*
X72534337Y-89103653D01*
X72532662Y-89111146D01*
X72532911Y-89119072D01*
X72532911Y-89119073D01*
X72534802Y-89179224D01*
X72534864Y-89183183D01*
X72534864Y-89211093D01*
X72535361Y-89215027D01*
X72535361Y-89215028D01*
X72535369Y-89215093D01*
X72536302Y-89226930D01*
X72537691Y-89271127D01*
X72539902Y-89278737D01*
X72543342Y-89290579D01*
X72547350Y-89309931D01*
X72549890Y-89330034D01*
X72552807Y-89337401D01*
X72552807Y-89337402D01*
X72555790Y-89344936D01*
X72562269Y-89415636D01*
X72529496Y-89478616D01*
X72467876Y-89513880D01*
X72396973Y-89510231D01*
X72342929Y-89473269D01*
X72283663Y-89404052D01*
X72203316Y-89310215D01*
X72203308Y-89310203D01*
X72203302Y-89310185D01*
X72177361Y-89279893D01*
X72177360Y-89279894D01*
X72177336Y-89279873D01*
X72162854Y-89262959D01*
X72162851Y-89262956D01*
X72162679Y-89262755D01*
X72162608Y-89262703D01*
X72162586Y-89262680D01*
X72117189Y-89209724D01*
X72117184Y-89209719D01*
X72113875Y-89205859D01*
X72091503Y-89186996D01*
X71968655Y-89083420D01*
X71964752Y-89080129D01*
X71797292Y-88980115D01*
X71792539Y-88978237D01*
X71792537Y-88978236D01*
X71620643Y-88910318D01*
X71620637Y-88910316D01*
X71615886Y-88908439D01*
X71610894Y-88907353D01*
X71610890Y-88907352D01*
X71430283Y-88868068D01*
X71430280Y-88868068D01*
X71425289Y-88866982D01*
X71230501Y-88856829D01*
X71225423Y-88857390D01*
X71041693Y-88877687D01*
X71041689Y-88877688D01*
X71036627Y-88878247D01*
X71031721Y-88879613D01*
X71031718Y-88879614D01*
X70964475Y-88898343D01*
X70964178Y-88897278D01*
X70964113Y-88897298D01*
X70964406Y-88898346D01*
X70942689Y-88904409D01*
X70942676Y-88904413D01*
X70904262Y-88915133D01*
X70904250Y-88915142D01*
X66795134Y-90062438D01*
X66795132Y-90062438D01*
X66782973Y-90065833D01*
X66764271Y-90071055D01*
X66764259Y-90071058D01*
X66762724Y-90071487D01*
X66757605Y-90072650D01*
X66755096Y-90073250D01*
X66755091Y-90073251D01*
X66755085Y-90073222D01*
X66750631Y-90074234D01*
X66672940Y-90087899D01*
X66614577Y-90098165D01*
X66589948Y-90100039D01*
X66524008Y-90098573D01*
X66458066Y-90097106D01*
X66433546Y-90094139D01*
X66306121Y-90065833D01*
X66243958Y-90031534D01*
X66213408Y-89981138D01*
X66032942Y-89415636D01*
X63716426Y-82156711D01*
X63715103Y-82152288D01*
X63680859Y-82029637D01*
X62907041Y-79258113D01*
X62907041Y-79258110D01*
X62460399Y-77658452D01*
X61847113Y-75461955D01*
X61844371Y-75449872D01*
X61823026Y-75328372D01*
X61820472Y-75313831D01*
X61818604Y-75289208D01*
X61818698Y-75285036D01*
X61821559Y-75157337D01*
X61824528Y-75132822D01*
X61827242Y-75120614D01*
X61843779Y-75046208D01*
X61853149Y-75004049D01*
X61860844Y-74980584D01*
X61914029Y-74859873D01*
X61926152Y-74838360D01*
X61954462Y-74797967D01*
X62001862Y-74730337D01*
X62017942Y-74711607D01*
X62113270Y-74620423D01*
X62132700Y-74605185D01*
X62146073Y-74596672D01*
X62243982Y-74534345D01*
X62266010Y-74523191D01*
X62395264Y-74472971D01*
X62406993Y-74469064D01*
X75864770Y-70711595D01*
X77358737Y-70294473D01*
X77361505Y-70293735D01*
X77392547Y-70285824D01*
X77398106Y-70284540D01*
X77428066Y-70278334D01*
X77433674Y-70277304D01*
X77465510Y-70272200D01*
X77468276Y-70271789D01*
X78700346Y-70103018D01*
X78770551Y-70113590D01*
G37*
%TD.AperFunction*%
%TA.AperFunction,Conductor*%
G36*
X106133609Y-69615689D02*
G01*
X106848896Y-69678895D01*
X106850748Y-69679072D01*
X106871452Y-69681210D01*
X106875119Y-69681644D01*
X106894760Y-69684256D01*
X106898401Y-69684794D01*
X106918697Y-69688101D01*
X106920480Y-69688406D01*
X122051722Y-72383701D01*
X122055474Y-72384428D01*
X122311311Y-72438180D01*
X122319527Y-72440199D01*
X122373491Y-72455397D01*
X122396480Y-72464384D01*
X122514051Y-72524234D01*
X122534839Y-72537530D01*
X122638469Y-72619160D01*
X122656273Y-72636264D01*
X122741989Y-72736542D01*
X122756113Y-72756790D01*
X122817317Y-72865969D01*
X122820614Y-72871851D01*
X122830521Y-72894474D01*
X122871049Y-73019021D01*
X122871337Y-73019906D01*
X122876641Y-73044028D01*
X122892204Y-73175014D01*
X122892700Y-73199708D01*
X122881870Y-73338132D01*
X122880301Y-73350401D01*
X122197141Y-77185519D01*
X122197141Y-77185520D01*
X121013426Y-83830913D01*
X120322239Y-87711181D01*
X120319473Y-87723244D01*
X120312392Y-87748386D01*
X120285294Y-87844599D01*
X120282025Y-87856204D01*
X120273031Y-87879207D01*
X120213188Y-87996760D01*
X120199881Y-88017566D01*
X120118257Y-88121187D01*
X120101151Y-88138992D01*
X120000874Y-88224708D01*
X119980630Y-88238829D01*
X119865559Y-88303337D01*
X119842943Y-88313241D01*
X119717507Y-88354059D01*
X119693386Y-88359363D01*
X119562399Y-88374928D01*
X119537707Y-88375424D01*
X119480557Y-88370955D01*
X119399487Y-88364614D01*
X119387229Y-88363047D01*
X104080708Y-85636548D01*
X104080699Y-85636543D01*
X104080699Y-85636546D01*
X104079038Y-85636250D01*
X104056760Y-85632282D01*
X104057108Y-85630327D01*
X104056339Y-85630047D01*
X104056003Y-85632318D01*
X104026753Y-85627987D01*
X104025849Y-85627880D01*
X104025817Y-85627876D01*
X103997353Y-85624516D01*
X103997583Y-85622568D01*
X103996786Y-85622611D01*
X103996638Y-85624286D01*
X103991725Y-85623852D01*
X103991703Y-85623849D01*
X103982617Y-85623047D01*
X103982598Y-85623045D01*
X103974127Y-85622296D01*
X103974125Y-85622296D01*
X103967867Y-85621743D01*
X103915515Y-85617117D01*
X103144643Y-85549000D01*
X103078548Y-85523079D01*
X103036959Y-85465539D01*
X103033080Y-85394649D01*
X103068143Y-85332915D01*
X103079032Y-85323525D01*
X103107891Y-85301382D01*
X103187394Y-85240379D01*
X103205883Y-85221890D01*
X103268197Y-85187867D01*
X103294977Y-85184988D01*
X103303074Y-85184988D01*
X103308209Y-85184131D01*
X103308211Y-85184131D01*
X103520001Y-85148790D01*
X103520006Y-85148789D01*
X103525140Y-85147932D01*
X103738079Y-85074830D01*
X103755298Y-85065512D01*
X103931500Y-84970156D01*
X103936081Y-84967677D01*
X103956579Y-84951723D01*
X104109626Y-84832600D01*
X104113745Y-84829394D01*
X104161145Y-84777905D01*
X104262699Y-84667589D01*
X104262702Y-84667585D01*
X104266227Y-84663756D01*
X104324999Y-84573799D01*
X104386513Y-84479645D01*
X104386515Y-84479641D01*
X104389365Y-84475279D01*
X104396016Y-84460118D01*
X104450283Y-84336398D01*
X104479801Y-84269104D01*
X104482890Y-84256908D01*
X104533788Y-84055915D01*
X104533788Y-84055914D01*
X104535069Y-84050856D01*
X104535774Y-84042357D01*
X104553231Y-83831677D01*
X104553661Y-83826488D01*
X104549606Y-83777548D01*
X104535500Y-83607316D01*
X104535499Y-83607311D01*
X104535069Y-83602120D01*
X104528101Y-83574605D01*
X104481083Y-83388934D01*
X104481083Y-83388933D01*
X104479801Y-83383872D01*
X104440668Y-83294658D01*
X104391459Y-83182470D01*
X104391457Y-83182466D01*
X104389365Y-83177697D01*
X104383159Y-83168197D01*
X104284400Y-83017036D01*
X104266227Y-82989220D01*
X104262702Y-82985391D01*
X104262699Y-82985387D01*
X104136496Y-82848296D01*
X104113745Y-82823582D01*
X104102743Y-82815019D01*
X103940194Y-82688500D01*
X103940192Y-82688498D01*
X103936081Y-82685299D01*
X103902825Y-82667302D01*
X103852434Y-82617289D01*
X103837082Y-82547972D01*
X103861642Y-82481359D01*
X103902825Y-82445674D01*
X103931500Y-82430156D01*
X103936081Y-82427677D01*
X103941140Y-82423740D01*
X104109626Y-82292600D01*
X104113745Y-82289394D01*
X104170507Y-82227735D01*
X104262699Y-82127589D01*
X104262702Y-82127585D01*
X104266227Y-82123756D01*
X104311430Y-82054568D01*
X104386513Y-81939645D01*
X104386515Y-81939641D01*
X104389365Y-81935279D01*
X104391688Y-81929985D01*
X104456385Y-81782488D01*
X104479801Y-81729104D01*
X104486475Y-81702751D01*
X104533788Y-81515915D01*
X104533788Y-81515914D01*
X104535069Y-81510856D01*
X104535519Y-81505435D01*
X104552048Y-81305955D01*
X104573835Y-81244909D01*
X104636280Y-81154208D01*
X104636283Y-81154202D01*
X104638824Y-81150512D01*
X104733679Y-80959126D01*
X104800332Y-80756188D01*
X104802068Y-80746347D01*
X104812219Y-80688779D01*
X104812227Y-80688739D01*
X104822530Y-80630312D01*
X105247342Y-78221089D01*
X105606014Y-76186969D01*
X105637542Y-76123357D01*
X105698455Y-76086887D01*
X105756297Y-76085602D01*
X106972072Y-76344024D01*
X106972078Y-76344025D01*
X106975362Y-76344723D01*
X106978701Y-76345066D01*
X106978708Y-76345067D01*
X107028115Y-76350141D01*
X107028116Y-76350141D01*
X107035955Y-76350946D01*
X107180589Y-76329447D01*
X107313306Y-76268071D01*
X107423357Y-76171791D01*
X107428188Y-76164194D01*
X107428191Y-76164191D01*
X107495422Y-76058474D01*
X107501825Y-76048406D01*
X107512174Y-76016810D01*
X107519738Y-75993718D01*
X107519740Y-75993710D01*
X107520785Y-75990520D01*
X107522571Y-75982120D01*
X107555118Y-75828998D01*
X107588847Y-75766524D01*
X107650996Y-75732203D01*
X107700245Y-75731109D01*
X112370341Y-76554569D01*
X112433953Y-76586096D01*
X112470423Y-76647010D01*
X112468170Y-76717971D01*
X112427911Y-76776449D01*
X112401124Y-76793122D01*
X112312769Y-76833771D01*
X112312761Y-76833775D01*
X112309247Y-76835392D01*
X112305946Y-76837436D01*
X112305944Y-76837437D01*
X112045636Y-76998613D01*
X112033886Y-77005888D01*
X112030855Y-77008327D01*
X111785757Y-77205557D01*
X111781565Y-77208930D01*
X111556108Y-77441441D01*
X111553773Y-77444533D01*
X111548580Y-77451410D01*
X111360932Y-77699895D01*
X111358991Y-77703257D01*
X111358989Y-77703260D01*
X111342759Y-77731371D01*
X111198997Y-77980375D01*
X111188220Y-78005837D01*
X111074270Y-78275053D01*
X111074267Y-78275061D01*
X111072757Y-78278629D01*
X110984125Y-78590136D01*
X110983530Y-78593970D01*
X110983529Y-78593974D01*
X110955628Y-78773716D01*
X110934446Y-78910174D01*
X110934326Y-78914055D01*
X110934326Y-78914060D01*
X110924675Y-79227349D01*
X110924473Y-79233891D01*
X110954356Y-79556380D01*
X110988831Y-79713799D01*
X111023642Y-79872752D01*
X111022425Y-79873018D01*
X111021866Y-79938753D01*
X110982976Y-79998151D01*
X110918146Y-80027093D01*
X110847961Y-80016392D01*
X110802765Y-79980788D01*
X110801028Y-79978609D01*
X110682030Y-79829391D01*
X110656151Y-79796939D01*
X110656149Y-79796937D01*
X110653216Y-79793259D01*
X110460011Y-79613991D01*
X110253417Y-79473137D01*
X110246142Y-79468177D01*
X110246140Y-79468176D01*
X110242246Y-79465521D01*
X110121785Y-79407510D01*
X110009033Y-79353211D01*
X110009031Y-79353210D01*
X110004784Y-79351165D01*
X109752930Y-79273479D01*
X109748280Y-79272778D01*
X109748275Y-79272777D01*
X109636953Y-79255998D01*
X109492311Y-79234197D01*
X109266429Y-79234197D01*
X109198308Y-79214195D01*
X109151815Y-79160539D01*
X109141711Y-79090265D01*
X109171205Y-79025685D01*
X109184356Y-79012594D01*
X109210648Y-78990022D01*
X109261573Y-78946305D01*
X109265483Y-78941254D01*
X109379103Y-78794470D01*
X109379105Y-78794466D01*
X109383013Y-78789418D01*
X109470386Y-78611296D01*
X109472703Y-78602346D01*
X109518515Y-78425413D01*
X109518516Y-78425409D01*
X109520115Y-78419232D01*
X109520438Y-78412858D01*
X109520439Y-78412853D01*
X109526247Y-78298304D01*
X109530163Y-78221089D01*
X109527205Y-78201776D01*
X109501088Y-78031291D01*
X109501088Y-78031290D01*
X109500121Y-78024979D01*
X109431216Y-77838932D01*
X109326271Y-77670563D01*
X109189582Y-77526766D01*
X109184343Y-77523119D01*
X109184340Y-77523117D01*
X109031992Y-77417080D01*
X109026745Y-77413428D01*
X108844426Y-77335189D01*
X108838171Y-77333904D01*
X108838169Y-77333903D01*
X108803493Y-77326777D01*
X108711989Y-77307973D01*
X108677961Y-77295676D01*
X108566818Y-77236268D01*
X108546679Y-77225503D01*
X108546677Y-77225502D01*
X108541225Y-77222588D01*
X108452671Y-77195726D01*
X108349131Y-77164317D01*
X108349125Y-77164316D01*
X108343205Y-77162520D01*
X108270091Y-77155319D01*
X108191959Y-77147623D01*
X108191952Y-77147623D01*
X108188879Y-77147320D01*
X108085663Y-77147320D01*
X108082590Y-77147623D01*
X108082583Y-77147623D01*
X108004451Y-77155319D01*
X107931337Y-77162520D01*
X107925417Y-77164316D01*
X107925411Y-77164317D01*
X107782395Y-77207701D01*
X107733317Y-77222588D01*
X107550821Y-77320135D01*
X107390861Y-77451410D01*
X107259586Y-77611370D01*
X107162039Y-77793866D01*
X107149741Y-77834407D01*
X107103768Y-77985960D01*
X107103767Y-77985966D01*
X107101971Y-77991886D01*
X107081688Y-78197820D01*
X107101971Y-78403754D01*
X107103767Y-78409674D01*
X107103768Y-78409680D01*
X107139289Y-78526778D01*
X107162039Y-78601774D01*
X107259586Y-78784270D01*
X107390861Y-78944230D01*
X107550821Y-79075505D01*
X107733317Y-79173052D01*
X107769583Y-79184053D01*
X107925411Y-79231323D01*
X107925417Y-79231324D01*
X107931337Y-79233120D01*
X108004451Y-79240321D01*
X108082583Y-79248017D01*
X108082590Y-79248017D01*
X108085663Y-79248320D01*
X108188879Y-79248320D01*
X108191952Y-79248017D01*
X108191959Y-79248017D01*
X108296257Y-79237744D01*
X108343205Y-79233120D01*
X108343221Y-79233282D01*
X108389284Y-79233427D01*
X108428179Y-79241420D01*
X108490877Y-79274725D01*
X108525617Y-79336641D01*
X108521368Y-79407510D01*
X108473791Y-79468946D01*
X108397096Y-79521236D01*
X108261049Y-79613991D01*
X108067844Y-79793259D01*
X108064911Y-79796937D01*
X108064909Y-79796939D01*
X107906450Y-79995640D01*
X107906447Y-79995644D01*
X107903515Y-79999321D01*
X107901162Y-80003397D01*
X107901159Y-80003401D01*
X107881099Y-80038146D01*
X107771734Y-80227573D01*
X107675443Y-80472917D01*
X107674393Y-80477516D01*
X107674393Y-80477517D01*
X107626182Y-80688746D01*
X107616795Y-80729871D01*
X107616443Y-80734571D01*
X107616442Y-80734576D01*
X107598509Y-80973888D01*
X107597099Y-80992697D01*
X107597451Y-80997394D01*
X107616086Y-81246059D01*
X107616795Y-81255523D01*
X107617845Y-81260122D01*
X107617845Y-81260124D01*
X107673836Y-81505435D01*
X107675443Y-81512477D01*
X107677167Y-81516868D01*
X107677167Y-81516870D01*
X107708782Y-81597422D01*
X107771734Y-81757821D01*
X107800530Y-81807697D01*
X107871133Y-81929985D01*
X107903515Y-81986073D01*
X107906447Y-81989750D01*
X107906450Y-81989754D01*
X108050308Y-82170146D01*
X108067844Y-82192135D01*
X108261049Y-82371403D01*
X108293721Y-82393678D01*
X108296999Y-82395913D01*
X108342015Y-82450814D01*
X108352020Y-82500019D01*
X108352020Y-83636388D01*
X108352018Y-83636421D01*
X108352014Y-83636445D01*
X108352014Y-83636518D01*
X108352020Y-83729583D01*
X108351986Y-83729896D01*
X108351952Y-83729896D01*
X108351959Y-83847387D01*
X108385414Y-84079976D01*
X108393234Y-84106602D01*
X108397952Y-84151992D01*
X108381263Y-84364044D01*
X108401128Y-84616447D01*
X108402282Y-84621254D01*
X108402283Y-84621260D01*
X108439916Y-84778012D01*
X108460232Y-84862635D01*
X108462125Y-84867206D01*
X108462126Y-84867208D01*
X108546666Y-85071305D01*
X108557121Y-85096546D01*
X108689409Y-85312420D01*
X108853839Y-85504942D01*
X109046361Y-85669372D01*
X109262235Y-85801660D01*
X109266805Y-85803553D01*
X109266809Y-85803555D01*
X109387250Y-85853443D01*
X109496146Y-85898549D01*
X109580769Y-85918865D01*
X109737521Y-85956498D01*
X109737527Y-85956499D01*
X109742334Y-85957653D01*
X109994737Y-85977518D01*
X110247140Y-85957653D01*
X110251947Y-85956499D01*
X110251953Y-85956498D01*
X110408705Y-85918865D01*
X110493328Y-85898549D01*
X110602224Y-85853443D01*
X110722665Y-85803555D01*
X110722669Y-85803553D01*
X110727239Y-85801660D01*
X110931858Y-85676269D01*
X111000392Y-85657731D01*
X111068068Y-85679187D01*
X111105125Y-85717866D01*
X111223862Y-85911627D01*
X111388292Y-86104149D01*
X111580814Y-86268579D01*
X111796688Y-86400867D01*
X111801258Y-86402760D01*
X111801262Y-86402762D01*
X111905284Y-86445849D01*
X112030599Y-86497756D01*
X112115222Y-86518072D01*
X112271974Y-86555705D01*
X112271980Y-86555706D01*
X112276787Y-86556860D01*
X112529190Y-86576725D01*
X112781593Y-86556860D01*
X112786400Y-86555706D01*
X112786406Y-86555705D01*
X112943158Y-86518072D01*
X113027781Y-86497756D01*
X113153096Y-86445849D01*
X113257118Y-86402762D01*
X113257122Y-86402760D01*
X113261692Y-86400867D01*
X113477566Y-86268579D01*
X113670088Y-86104149D01*
X113834518Y-85911627D01*
X113895292Y-85812453D01*
X113947939Y-85764823D01*
X114017980Y-85753216D01*
X114084555Y-85782478D01*
X114220858Y-85898893D01*
X114220862Y-85898896D01*
X114224617Y-85902103D01*
X114440491Y-86034391D01*
X114445061Y-86036284D01*
X114445065Y-86036286D01*
X114669829Y-86129386D01*
X114674402Y-86131280D01*
X114759025Y-86151596D01*
X114915777Y-86189229D01*
X114915783Y-86189230D01*
X114920590Y-86190384D01*
X115172993Y-86210249D01*
X115425396Y-86190384D01*
X115430203Y-86189230D01*
X115430209Y-86189229D01*
X115586961Y-86151596D01*
X115671584Y-86131280D01*
X115676157Y-86129386D01*
X115900921Y-86036286D01*
X115900925Y-86036284D01*
X115905495Y-86034391D01*
X115909715Y-86031805D01*
X115909725Y-86031800D01*
X116097832Y-85916527D01*
X116166365Y-85897988D01*
X116229502Y-85916527D01*
X116333990Y-85980558D01*
X116334000Y-85980563D01*
X116338220Y-85983149D01*
X116342790Y-85985042D01*
X116342794Y-85985044D01*
X116567558Y-86078144D01*
X116572131Y-86080038D01*
X116656754Y-86100354D01*
X116813506Y-86137987D01*
X116813512Y-86137988D01*
X116818319Y-86139142D01*
X117070722Y-86159007D01*
X117323125Y-86139142D01*
X117327932Y-86137988D01*
X117327938Y-86137987D01*
X117484690Y-86100354D01*
X117569313Y-86080038D01*
X117573886Y-86078144D01*
X117798650Y-85985044D01*
X117798654Y-85985042D01*
X117803224Y-85983149D01*
X118019098Y-85850861D01*
X118211620Y-85686431D01*
X118376050Y-85493909D01*
X118508338Y-85278035D01*
X118510231Y-85273465D01*
X118510235Y-85273457D01*
X118521122Y-85247172D01*
X118565670Y-85191891D01*
X118571696Y-85187956D01*
X118665999Y-85130167D01*
X118766266Y-85068723D01*
X118958788Y-84904293D01*
X119123218Y-84711771D01*
X119255506Y-84495897D01*
X119261031Y-84482560D01*
X119350501Y-84266559D01*
X119350502Y-84266557D01*
X119352395Y-84261986D01*
X119389699Y-84106602D01*
X119410344Y-84020611D01*
X119410345Y-84020605D01*
X119411499Y-84015798D01*
X119431364Y-83763395D01*
X119411499Y-83510992D01*
X119405877Y-83487571D01*
X119368527Y-83332001D01*
X119352395Y-83264804D01*
X119312379Y-83168197D01*
X119257401Y-83035467D01*
X119257399Y-83035463D01*
X119255506Y-83030893D01*
X119123218Y-82815019D01*
X118958788Y-82622497D01*
X118766266Y-82458067D01*
X118550392Y-82325779D01*
X118545822Y-82323886D01*
X118545818Y-82323884D01*
X118321054Y-82230784D01*
X118321052Y-82230783D01*
X118316481Y-82228890D01*
X118231858Y-82208574D01*
X118075106Y-82170941D01*
X118075100Y-82170940D01*
X118070293Y-82169786D01*
X117817890Y-82149921D01*
X117565487Y-82169786D01*
X117560672Y-82170942D01*
X117554414Y-82172444D01*
X117483506Y-82168894D01*
X117425773Y-82127572D01*
X117399546Y-82061598D01*
X117400918Y-82028044D01*
X117402087Y-82021418D01*
X117499611Y-81468333D01*
X117624219Y-80761649D01*
X117655747Y-80698037D01*
X117716660Y-80661567D01*
X117787621Y-80663820D01*
X117839629Y-80696720D01*
X117913441Y-80774371D01*
X117913447Y-80774376D01*
X117917846Y-80779004D01*
X117923085Y-80782651D01*
X117923088Y-80782653D01*
X118053733Y-80873584D01*
X118080683Y-80892342D01*
X118263002Y-80970581D01*
X118269257Y-80971866D01*
X118269259Y-80971867D01*
X118279094Y-80973888D01*
X118395439Y-80997797D01*
X118429467Y-81010094D01*
X118475838Y-81034880D01*
X118560749Y-81080267D01*
X118560751Y-81080268D01*
X118566203Y-81083182D01*
X118619249Y-81099273D01*
X118758297Y-81141453D01*
X118758303Y-81141454D01*
X118764223Y-81143250D01*
X118837337Y-81150451D01*
X118915469Y-81158147D01*
X118915476Y-81158147D01*
X118918549Y-81158450D01*
X119021765Y-81158450D01*
X119024838Y-81158147D01*
X119024845Y-81158147D01*
X119102977Y-81150451D01*
X119176091Y-81143250D01*
X119182011Y-81141454D01*
X119182017Y-81141453D01*
X119329086Y-81096840D01*
X119374111Y-81083182D01*
X119556607Y-80985635D01*
X119716567Y-80854360D01*
X119847842Y-80694400D01*
X119945389Y-80511904D01*
X119964404Y-80449220D01*
X120003660Y-80319810D01*
X120003661Y-80319804D01*
X120005457Y-80313884D01*
X120025740Y-80107950D01*
X120005457Y-79902016D01*
X120003661Y-79896096D01*
X120003660Y-79896090D01*
X119957996Y-79745557D01*
X119945389Y-79703996D01*
X119847842Y-79521500D01*
X119716567Y-79361540D01*
X119556607Y-79230265D01*
X119374111Y-79132718D01*
X119319763Y-79116232D01*
X119182017Y-79074447D01*
X119182011Y-79074446D01*
X119176091Y-79072650D01*
X119102977Y-79065449D01*
X119024845Y-79057753D01*
X119024838Y-79057753D01*
X119021765Y-79057450D01*
X118918549Y-79057450D01*
X118915476Y-79057753D01*
X118915469Y-79057753D01*
X118823739Y-79066788D01*
X118764223Y-79072650D01*
X118764207Y-79072488D01*
X118718144Y-79072343D01*
X118676296Y-79063743D01*
X118661995Y-79060804D01*
X118661993Y-79060804D01*
X118655736Y-79059518D01*
X118507064Y-79059518D01*
X118359158Y-79074559D01*
X118169859Y-79133951D01*
X118164274Y-79137051D01*
X118072984Y-79187721D01*
X118003716Y-79203291D01*
X117937026Y-79178941D01*
X117894087Y-79122400D01*
X117885985Y-79076089D01*
X117886026Y-79075496D01*
X117874336Y-78740844D01*
X117827730Y-78409247D01*
X117826361Y-78403754D01*
X117768547Y-78171890D01*
X117746717Y-78084338D01*
X117682768Y-77908644D01*
X117633317Y-77772782D01*
X117633316Y-77772779D01*
X117632187Y-77769678D01*
X117599582Y-77702829D01*
X117486841Y-77471682D01*
X117486838Y-77471676D01*
X117485392Y-77468712D01*
X117307943Y-77184740D01*
X117168703Y-77006524D01*
X117103814Y-76923471D01*
X117103810Y-76923466D01*
X117101783Y-76920872D01*
X117099498Y-76918505D01*
X117099492Y-76918499D01*
X116952065Y-76765837D01*
X116869170Y-76679998D01*
X116799700Y-76621707D01*
X116760373Y-76562598D01*
X116759246Y-76491611D01*
X116796676Y-76431283D01*
X116860781Y-76400768D01*
X116902569Y-76401099D01*
X117718485Y-76544967D01*
X117745735Y-76546808D01*
X117771393Y-76548541D01*
X117771395Y-76548541D01*
X117779259Y-76549072D01*
X117787014Y-76547641D01*
X117787015Y-76547641D01*
X117914188Y-76524175D01*
X117923054Y-76522539D01*
X118053549Y-76456569D01*
X118084157Y-76427845D01*
X118147516Y-76395814D01*
X118218135Y-76403123D01*
X118273593Y-76447451D01*
X118296281Y-76514724D01*
X118294065Y-76543764D01*
X118024313Y-77931519D01*
X118015915Y-77974721D01*
X118015629Y-77978081D01*
X118015628Y-77978089D01*
X118013930Y-77998051D01*
X118010751Y-78035414D01*
X118012046Y-78043190D01*
X118012046Y-78043193D01*
X118022109Y-78103618D01*
X118034770Y-78179650D01*
X118038694Y-78187760D01*
X118038695Y-78187764D01*
X118092669Y-78299323D01*
X118098453Y-78311277D01*
X118153273Y-78371774D01*
X118190587Y-78412952D01*
X118190589Y-78412954D01*
X118196639Y-78419630D01*
X118204323Y-78424331D01*
X118204325Y-78424332D01*
X118314652Y-78491821D01*
X118314656Y-78491823D01*
X118321375Y-78495933D01*
X118328906Y-78498255D01*
X118376364Y-78512888D01*
X118376368Y-78512889D01*
X118379582Y-78513880D01*
X119219938Y-78677229D01*
X120140523Y-78856173D01*
X120140526Y-78856173D01*
X120143837Y-78856817D01*
X120147197Y-78857103D01*
X120147205Y-78857104D01*
X120172724Y-78859275D01*
X120204530Y-78861981D01*
X120212306Y-78860686D01*
X120212309Y-78860686D01*
X120339872Y-78839443D01*
X120339871Y-78839443D01*
X120348766Y-78837962D01*
X120356876Y-78834038D01*
X120356880Y-78834037D01*
X120472279Y-78778205D01*
X120472281Y-78778204D01*
X120480393Y-78774279D01*
X120550060Y-78711149D01*
X120582068Y-78682145D01*
X120582070Y-78682143D01*
X120588746Y-78676093D01*
X120597702Y-78661452D01*
X120660937Y-78558080D01*
X120660939Y-78558076D01*
X120665049Y-78551357D01*
X120669625Y-78536517D01*
X120682004Y-78496368D01*
X120682005Y-78496364D01*
X120682996Y-78493150D01*
X120893363Y-77410908D01*
X121025289Y-76732209D01*
X121025289Y-76732206D01*
X121025933Y-76728895D01*
X121026863Y-76717971D01*
X121029309Y-76689220D01*
X121031097Y-76668202D01*
X121029018Y-76655713D01*
X121008559Y-76532860D01*
X121007078Y-76523966D01*
X121003154Y-76515856D01*
X121003153Y-76515852D01*
X120947321Y-76400453D01*
X120947320Y-76400451D01*
X120943395Y-76392339D01*
X120861917Y-76302424D01*
X120851261Y-76290664D01*
X120851259Y-76290662D01*
X120845209Y-76283986D01*
X120837525Y-76279285D01*
X120837523Y-76279284D01*
X120727196Y-76211795D01*
X120727192Y-76211793D01*
X120720473Y-76207683D01*
X120674539Y-76193520D01*
X120665484Y-76190728D01*
X120665480Y-76190727D01*
X120662266Y-76189736D01*
X119892138Y-76040038D01*
X119829085Y-76007405D01*
X119812967Y-75988624D01*
X119802975Y-75974353D01*
X119675022Y-75791618D01*
X119667765Y-75783698D01*
X119494068Y-75594138D01*
X119494064Y-75594134D01*
X119491281Y-75591097D01*
X119388162Y-75504568D01*
X119286095Y-75418921D01*
X119286093Y-75418919D01*
X119282939Y-75416273D01*
X119144965Y-75328371D01*
X119098261Y-75274901D01*
X119087880Y-75204668D01*
X119117117Y-75139971D01*
X119153776Y-75110715D01*
X119162501Y-75106103D01*
X119167060Y-75102483D01*
X119167063Y-75102481D01*
X119186380Y-75087142D01*
X119187297Y-75088297D01*
X119188717Y-75086664D01*
X119188234Y-75086101D01*
X119192046Y-75082831D01*
X119192046Y-75082830D01*
X119193180Y-75081858D01*
X119196853Y-75078826D01*
X119304309Y-74993501D01*
X119304318Y-74993492D01*
X119308871Y-74989877D01*
X119316938Y-74980584D01*
X119330253Y-74965246D01*
X119334336Y-74960766D01*
X119339022Y-74956747D01*
X119350221Y-74942478D01*
X119354187Y-74937675D01*
X119427575Y-74853132D01*
X119431392Y-74848735D01*
X119449489Y-74817856D01*
X119455476Y-74809062D01*
X119457846Y-74805341D01*
X119461669Y-74800470D01*
X119472668Y-74778767D01*
X119476348Y-74772024D01*
X119513718Y-74708256D01*
X119525892Y-74687483D01*
X119540279Y-74647486D01*
X119546447Y-74633181D01*
X119551471Y-74623269D01*
X119558916Y-74596650D01*
X119561684Y-74587979D01*
X119589153Y-74511612D01*
X119590084Y-74505860D01*
X119590087Y-74505849D01*
X119596894Y-74463804D01*
X119599929Y-74450009D01*
X119603311Y-74437916D01*
X119603312Y-74437910D01*
X119604978Y-74431953D01*
X119606688Y-74409596D01*
X119607146Y-74403613D01*
X119608388Y-74393152D01*
X119617443Y-74337039D01*
X119617443Y-74337037D01*
X119618321Y-74331597D01*
X119617673Y-74288509D01*
X119617477Y-74275478D01*
X119617830Y-74263974D01*
X119619660Y-74240049D01*
X119619660Y-74240046D01*
X119620132Y-74233875D01*
X119617173Y-74209334D01*
X119616282Y-74196157D01*
X119616209Y-74191270D01*
X119615645Y-74153796D01*
X119611878Y-74134267D01*
X119605583Y-74101642D01*
X119602709Y-74086741D01*
X119601334Y-74077958D01*
X119597094Y-74042793D01*
X119596353Y-74036646D01*
X119590761Y-74019562D01*
X119586791Y-74004235D01*
X119584057Y-73990066D01*
X119581960Y-73979195D01*
X119552912Y-73903433D01*
X119550816Y-73897530D01*
X119545782Y-73882149D01*
X119541266Y-73868355D01*
X119536480Y-73853732D01*
X119536479Y-73853729D01*
X119534553Y-73847846D01*
X119529828Y-73839453D01*
X119521979Y-73822754D01*
X119518300Y-73813159D01*
X119468496Y-73730387D01*
X119466666Y-73727243D01*
X119440148Y-73680132D01*
X119440146Y-73680130D01*
X119437107Y-73674730D01*
X119433075Y-73670030D01*
X119432406Y-73669075D01*
X119429061Y-73664847D01*
X119426622Y-73660793D01*
X119337009Y-73558040D01*
X119336370Y-73557302D01*
X119335802Y-73556639D01*
X119307760Y-73523952D01*
X119302890Y-73520130D01*
X119302888Y-73520128D01*
X119248808Y-73477685D01*
X119247562Y-73476695D01*
X119171257Y-73415235D01*
X119166418Y-73412576D01*
X119158799Y-73407046D01*
X119151484Y-73401305D01*
X119081759Y-73365970D01*
X119078043Y-73364008D01*
X119067845Y-73358403D01*
X119040875Y-73343581D01*
X119020265Y-73332254D01*
X119020263Y-73332253D01*
X119015419Y-73329591D01*
X119010183Y-73327815D01*
X119010176Y-73327812D01*
X119007452Y-73326888D01*
X118990963Y-73319956D01*
X118979801Y-73314299D01*
X118979798Y-73314298D01*
X118974283Y-73311503D01*
X118938492Y-73301493D01*
X118907999Y-73292965D01*
X118901485Y-73290951D01*
X118847019Y-73272479D01*
X118772301Y-73261038D01*
X118769539Y-73260584D01*
X117850768Y-73098578D01*
X117378112Y-73015235D01*
X117378104Y-73015234D01*
X117378060Y-73015226D01*
X117378047Y-73015225D01*
X117378008Y-73015219D01*
X116655098Y-72887751D01*
X116603426Y-72865969D01*
X116593209Y-72858624D01*
X116583815Y-72847979D01*
X116570733Y-72842464D01*
X116566500Y-72839421D01*
X116559978Y-72835763D01*
X116555174Y-72833738D01*
X116543649Y-72825452D01*
X116529673Y-72822988D01*
X116529672Y-72822987D01*
X116453514Y-72809558D01*
X116453509Y-72809557D01*
X112931027Y-72188448D01*
X112931026Y-72188448D01*
X112908206Y-72184424D01*
X112894542Y-72188269D01*
X112889324Y-72188529D01*
X112881963Y-72189733D01*
X112876936Y-72191147D01*
X112862757Y-72191855D01*
X112850288Y-72198645D01*
X112838177Y-72202053D01*
X112782172Y-72204849D01*
X112192686Y-72100907D01*
X112129075Y-72069381D01*
X112123926Y-72064345D01*
X112123747Y-72064159D01*
X112086371Y-72025452D01*
X112052315Y-71990182D01*
X112052312Y-71990179D01*
X112048877Y-71986622D01*
X112044923Y-71983642D01*
X111891743Y-71868199D01*
X111891740Y-71868197D01*
X111887787Y-71865218D01*
X111883419Y-71862895D01*
X111883414Y-71862892D01*
X111775711Y-71805617D01*
X111709689Y-71770508D01*
X111705021Y-71768900D01*
X111705018Y-71768899D01*
X111525187Y-71706965D01*
X111518968Y-71704823D01*
X111498454Y-71701205D01*
X111498429Y-71701199D01*
X111498410Y-71701190D01*
X111419644Y-71687301D01*
X111419635Y-71687299D01*
X111371737Y-71678850D01*
X111343893Y-71673938D01*
X111343871Y-71673940D01*
X111343859Y-71673938D01*
X110961027Y-71606434D01*
X110897416Y-71574906D01*
X110889279Y-71566665D01*
X110764845Y-71428467D01*
X110610344Y-71316215D01*
X110604316Y-71313531D01*
X110604314Y-71313530D01*
X110441911Y-71241224D01*
X110441910Y-71241224D01*
X110435880Y-71238539D01*
X110342479Y-71218686D01*
X110255536Y-71200205D01*
X110255531Y-71200205D01*
X110249079Y-71198833D01*
X110058105Y-71198833D01*
X110051653Y-71200205D01*
X110051648Y-71200205D01*
X109964705Y-71218686D01*
X109871304Y-71238539D01*
X109865274Y-71241224D01*
X109865273Y-71241224D01*
X109702870Y-71313530D01*
X109702868Y-71313531D01*
X109696840Y-71316215D01*
X109542339Y-71428467D01*
X109537918Y-71433377D01*
X109537917Y-71433378D01*
X109432014Y-71550996D01*
X109414552Y-71570389D01*
X109393005Y-71607710D01*
X109323545Y-71728018D01*
X109319065Y-71735777D01*
X109260050Y-71917405D01*
X109259360Y-71923966D01*
X109259360Y-71923968D01*
X109248728Y-72025126D01*
X109240088Y-72107333D01*
X109240778Y-72113898D01*
X109254679Y-72246155D01*
X109260050Y-72297261D01*
X109262090Y-72303539D01*
X109291304Y-72393451D01*
X109293331Y-72464419D01*
X109256669Y-72525216D01*
X109192957Y-72556542D01*
X109183613Y-72557757D01*
X109175732Y-72557413D01*
X109021365Y-72591635D01*
X108881115Y-72664645D01*
X108875029Y-72670222D01*
X108875026Y-72670224D01*
X108777998Y-72759135D01*
X108764541Y-72771466D01*
X108760108Y-72778425D01*
X108760105Y-72778428D01*
X108731718Y-72822987D01*
X108679586Y-72904818D01*
X108663754Y-72955032D01*
X108634523Y-73047741D01*
X108634522Y-73047745D01*
X108632041Y-73055615D01*
X108625144Y-73213579D01*
X108626931Y-73221639D01*
X108626931Y-73221641D01*
X108642540Y-73292048D01*
X108659366Y-73367946D01*
X108732376Y-73508196D01*
X108737953Y-73514282D01*
X108737955Y-73514285D01*
X108819041Y-73602774D01*
X108839197Y-73624770D01*
X108846156Y-73629203D01*
X108846159Y-73629206D01*
X108914998Y-73673061D01*
X108972549Y-73709725D01*
X109085483Y-73745332D01*
X109753893Y-73863190D01*
X109758005Y-73863370D01*
X109758009Y-73863370D01*
X109863945Y-73867995D01*
X109863946Y-73867995D01*
X109872194Y-73868355D01*
X109880254Y-73866568D01*
X109880256Y-73866568D01*
X109966539Y-73847439D01*
X110026561Y-73834133D01*
X110037223Y-73828583D01*
X110094553Y-73798738D01*
X110123224Y-73783813D01*
X110192882Y-73770100D01*
X110258898Y-73796225D01*
X110300309Y-73853893D01*
X110305490Y-73917456D01*
X110261165Y-74168836D01*
X110262652Y-74182166D01*
X110277158Y-74186677D01*
X111720181Y-74186677D01*
X111788302Y-74206679D01*
X111834795Y-74260335D01*
X111846181Y-74312677D01*
X111846181Y-74568677D01*
X111826179Y-74636798D01*
X111772523Y-74683291D01*
X111720181Y-74694677D01*
X110186559Y-74694677D01*
X110171320Y-74699152D01*
X110166719Y-74704462D01*
X110160136Y-74741795D01*
X110159323Y-74748483D01*
X110155981Y-74797967D01*
X110157223Y-74819529D01*
X110141170Y-74888687D01*
X110090277Y-74938188D01*
X110020700Y-74952316D01*
X110009561Y-74950861D01*
X108113075Y-74616461D01*
X107952192Y-74588093D01*
X107888580Y-74556566D01*
X107852110Y-74495652D01*
X107850825Y-74437812D01*
X107857167Y-74407971D01*
X107857868Y-74404673D01*
X107859052Y-74393152D01*
X107863286Y-74351920D01*
X107863286Y-74351919D01*
X107864091Y-74344080D01*
X107842592Y-74199446D01*
X107781216Y-74066729D01*
X107684936Y-73956678D01*
X107677339Y-73951847D01*
X107677336Y-73951844D01*
X107590565Y-73896662D01*
X107561551Y-73878210D01*
X107530364Y-73867995D01*
X107506863Y-73860297D01*
X107506855Y-73860295D01*
X107503665Y-73859250D01*
X107500378Y-73858551D01*
X107500373Y-73858550D01*
X106189200Y-73579851D01*
X106126727Y-73546122D01*
X106092405Y-73483973D01*
X106091311Y-73434724D01*
X106094234Y-73418147D01*
X106196781Y-72836582D01*
X106228308Y-72772971D01*
X106289221Y-72736501D01*
X106347063Y-72735216D01*
X107678971Y-73018322D01*
X107678977Y-73018323D01*
X107682261Y-73019021D01*
X107685600Y-73019364D01*
X107685607Y-73019365D01*
X107735014Y-73024439D01*
X107735015Y-73024439D01*
X107742854Y-73025244D01*
X107887488Y-73003745D01*
X108020205Y-72942369D01*
X108130256Y-72846089D01*
X108135087Y-72838492D01*
X108135090Y-72838489D01*
X108187767Y-72755657D01*
X108208724Y-72722704D01*
X108217218Y-72696771D01*
X108226637Y-72668016D01*
X108226639Y-72668008D01*
X108227684Y-72664818D01*
X108228384Y-72661526D01*
X108564068Y-71082261D01*
X108564069Y-71082255D01*
X108564767Y-71078971D01*
X108565129Y-71075454D01*
X108570185Y-71026218D01*
X108570185Y-71026217D01*
X108570990Y-71018378D01*
X108549491Y-70873744D01*
X108488115Y-70741027D01*
X108391835Y-70630976D01*
X108384238Y-70626145D01*
X108384235Y-70626142D01*
X108275101Y-70556738D01*
X108268450Y-70552508D01*
X108243546Y-70544351D01*
X108213762Y-70534595D01*
X108213754Y-70534593D01*
X108210564Y-70533548D01*
X108207277Y-70532849D01*
X108207272Y-70532848D01*
X106628007Y-70197164D01*
X106628001Y-70197163D01*
X106624717Y-70196465D01*
X106621378Y-70196122D01*
X106621371Y-70196121D01*
X106571964Y-70191047D01*
X106571963Y-70191047D01*
X106564124Y-70190242D01*
X106419490Y-70211741D01*
X106286773Y-70273117D01*
X106176722Y-70369397D01*
X106171891Y-70376994D01*
X106171888Y-70376997D01*
X106119433Y-70459479D01*
X106098254Y-70492782D01*
X106095801Y-70500272D01*
X106084271Y-70535474D01*
X106079294Y-70550668D01*
X106078595Y-70553955D01*
X106078594Y-70553960D01*
X105933330Y-71237372D01*
X105899601Y-71299845D01*
X105882353Y-71314388D01*
X105738124Y-71415378D01*
X105738118Y-71415383D01*
X105734743Y-71417746D01*
X105731712Y-71420524D01*
X105731710Y-71420525D01*
X105554329Y-71583062D01*
X105554325Y-71583066D01*
X105551288Y-71585849D01*
X105548634Y-71589012D01*
X105548631Y-71589015D01*
X105535474Y-71604694D01*
X105476364Y-71644019D01*
X105405376Y-71645143D01*
X105345049Y-71607710D01*
X105314537Y-71543605D01*
X105312955Y-71523700D01*
X105312956Y-71450954D01*
X105312957Y-70124722D01*
X105312965Y-70124644D01*
X105312973Y-70124644D01*
X105312976Y-70034113D01*
X105310426Y-70019646D01*
X105282495Y-69861223D01*
X105282495Y-69861222D01*
X105281539Y-69855801D01*
X105230637Y-69715944D01*
X105226135Y-69645090D01*
X105260654Y-69583051D01*
X105323235Y-69549522D01*
X105360129Y-69547340D01*
X106133609Y-69615689D01*
G37*
%TD.AperFunction*%
%TD*%
M02*
