%TF.GenerationSoftware,KiCad,Pcbnew,(6.99.0-4085-g6c752680d7)*%
%TF.CreationDate,2022-11-14T16:54:02+08:00*%
%TF.ProjectId,flex_thumbs_right,666c6578-5f74-4687-956d-62735f726967,rev?*%
%TF.SameCoordinates,Original*%
%TF.FileFunction,Soldermask,Top*%
%TF.FilePolarity,Negative*%
%FSLAX46Y46*%
G04 Gerber Fmt 4.6, Leading zero omitted, Abs format (unit mm)*
G04 Created by KiCad (PCBNEW (6.99.0-4085-g6c752680d7)) date 2022-11-14 16:54:02*
%MOMM*%
%LPD*%
G01*
G04 APERTURE LIST*
G04 Aperture macros list*
%AMRoundRect*
0 Rectangle with rounded corners*
0 $1 Rounding radius*
0 $2 $3 $4 $5 $6 $7 $8 $9 X,Y pos of 4 corners*
0 Add a 4 corners polygon primitive as box body*
4,1,4,$2,$3,$4,$5,$6,$7,$8,$9,$2,$3,0*
0 Add four circle primitives for the rounded corners*
1,1,$1+$1,$2,$3*
1,1,$1+$1,$4,$5*
1,1,$1+$1,$6,$7*
1,1,$1+$1,$8,$9*
0 Add four rect primitives between the rounded corners*
20,1,$1+$1,$2,$3,$4,$5,0*
20,1,$1+$1,$4,$5,$6,$7,0*
20,1,$1+$1,$6,$7,$8,$9,0*
20,1,$1+$1,$8,$9,$2,$3,0*%
%AMHorizOval*
0 Thick line with rounded ends*
0 $1 width*
0 $2 $3 position (X,Y) of the first rounded end (center of the circle)*
0 $4 $5 position (X,Y) of the second rounded end (center of the circle)*
0 Add line between two ends*
20,1,$1,$2,$3,$4,$5,0*
0 Add two circle primitives to create the rounded ends*
1,1,$1,$2,$3*
1,1,$1,$4,$5*%
%AMRotRect*
0 Rectangle, with rotation*
0 The origin of the aperture is its center*
0 $1 length*
0 $2 width*
0 $3 Rotation angle, in degrees counterclockwise*
0 Add horizontal line*
21,1,$1,$2,0,0,$3*%
G04 Aperture macros list end*
%ADD10R,1.524000X1.524000*%
%ADD11R,1.700000X1.000000*%
%ADD12RotRect,1.524000X1.524000X265.000000*%
%ADD13C,1.900000*%
%ADD14C,1.750000*%
%ADD15HorizOval,1.000000X0.295442X-0.052094X-0.295442X0.052094X0*%
%ADD16C,5.050000*%
%ADD17C,2.500000*%
%ADD18C,2.200000*%
%ADD19RoundRect,0.250000X-0.475000X0.337500X-0.475000X-0.337500X0.475000X-0.337500X0.475000X0.337500X0*%
%ADD20RotRect,1.524000X1.524000X258.000000*%
%ADD21O,1.600000X1.000000*%
%ADD22HorizOval,1.000000X0.288379X0.082691X-0.288379X-0.082691X0*%
%ADD23RotRect,1.700000X1.000000X350.000000*%
%ADD24RotRect,1.700000X1.000000X170.000000*%
%ADD25R,1.700000X1.700000*%
%ADD26O,1.700000X1.700000*%
%ADD27RotRect,1.524000X1.524000X271.000000*%
%ADD28RotRect,1.700000X1.000000X16.000000*%
%ADD29RotRect,1.524000X1.524000X285.000000*%
%ADD30RotRect,1.700000X1.700000X169.000000*%
G04 APERTURE END LIST*
D10*
%TO.C,D1*%
X100571304Y-93946556D03*
X100571304Y-97346556D03*
%TD*%
D11*
%TO.C,D4*%
X88553315Y-93468090D03*
X94053315Y-93468090D03*
X94053315Y-94868090D03*
X88553315Y-94868090D03*
%TD*%
%TO.C,D10*%
X96085313Y-73024091D03*
X90585313Y-73024091D03*
X90585313Y-71624091D03*
X96085313Y-71624091D03*
%TD*%
D12*
%TO.C,D9*%
X103897642Y-93982046D03*
X103601313Y-97369107D03*
%TD*%
D13*
%TO.C,SW9*%
X106664075Y-100041825D03*
D14*
X107077695Y-100114757D03*
D15*
X108050766Y-95056888D03*
D16*
X112080518Y-100996890D03*
D14*
X117083341Y-101879023D03*
D13*
X117496961Y-101951955D03*
D17*
X107887334Y-102836702D03*
D18*
X108521541Y-106208049D03*
X111055994Y-106807256D03*
X113699797Y-106440780D03*
X115597526Y-106389538D03*
X116344694Y-105607400D03*
%TD*%
D19*
%TO.C,C1*%
X98748605Y-100579133D03*
X98748605Y-102654133D03*
%TD*%
D20*
%TO.C,D5*%
X107153488Y-71607742D03*
X106446589Y-74933444D03*
%TD*%
D13*
%TO.C,SW19*%
X87835313Y-77324091D03*
D14*
X88255313Y-77324091D03*
D21*
X88335312Y-72174090D03*
D16*
X93335313Y-77324091D03*
D14*
X98415313Y-77324091D03*
D13*
X98835313Y-77324091D03*
D17*
X89525313Y-79864091D03*
D18*
X90735313Y-83074091D03*
X93335313Y-83224091D03*
X95875313Y-82404091D03*
X97735313Y-82024091D03*
X98335313Y-81124091D03*
%TD*%
D13*
%TO.C,SW14*%
X66255171Y-81837290D03*
D14*
X66658901Y-81721523D03*
D22*
X65316268Y-76748973D03*
D16*
X71542110Y-80321285D03*
D14*
X76425319Y-78921047D03*
D13*
X76829049Y-78805280D03*
D17*
X68579822Y-83813068D03*
D18*
X70627744Y-86565197D03*
X73168370Y-85992729D03*
X75383952Y-84504376D03*
X77067157Y-83626411D03*
X77395840Y-82595893D03*
%TD*%
D23*
%TO.C,D12*%
X117008623Y-75395741D03*
X111592180Y-74440676D03*
X111835287Y-73061945D03*
X117251730Y-74017010D03*
%TD*%
D24*
%TO.C,D2*%
X110362088Y-94905951D03*
X115778531Y-95861016D03*
X115535424Y-97239747D03*
X110118981Y-96284682D03*
%TD*%
D25*
%TO.C,J1*%
X103190504Y-71126487D03*
D26*
X103190504Y-73666487D03*
X103190504Y-76206487D03*
X103190504Y-78746487D03*
X103190504Y-81286487D03*
X103190504Y-83826487D03*
%TD*%
D13*
%TO.C,SW1*%
X85803303Y-99168090D03*
D14*
X86223303Y-99168090D03*
D21*
X86303302Y-94018089D03*
D16*
X91303303Y-99168090D03*
D14*
X96383303Y-99168090D03*
D13*
X96803303Y-99168090D03*
D17*
X87493303Y-101708090D03*
D18*
X88703303Y-104918090D03*
X91303303Y-105068090D03*
X93843303Y-104248090D03*
X95703303Y-103868090D03*
X96303303Y-102968090D03*
%TD*%
D27*
%TO.C,D19*%
X84220391Y-71251964D03*
X84279729Y-74651447D03*
%TD*%
D28*
%TO.C,D7*%
X72993142Y-75430172D03*
X67706202Y-76946178D03*
X67320310Y-75600412D03*
X72607250Y-74084406D03*
%TD*%
D13*
%TO.C,SW5*%
X108137271Y-78197820D03*
D14*
X108550891Y-78270752D03*
D15*
X109523962Y-73212883D03*
D16*
X113553714Y-79152885D03*
D14*
X118556537Y-80035018D03*
D13*
X118970157Y-80107950D03*
D17*
X109360530Y-80992697D03*
D18*
X109994737Y-84364044D03*
X112529190Y-84963251D03*
X115172993Y-84596775D03*
X117070722Y-84545533D03*
X117817890Y-83763395D03*
%TD*%
D29*
%TO.C,D14*%
X78630978Y-71696783D03*
X79510963Y-74980931D03*
%TD*%
D25*
%TO.C,J2*%
X101210124Y-100309689D03*
D26*
X101210124Y-102849689D03*
X101210124Y-105389689D03*
%TD*%
D30*
%TO.C,J3*%
X119520923Y-77351807D03*
%TD*%
M02*
