M48
; DRILL file {KiCad (6.99.0-4085-g6c752680d7)} date Mon Nov 14 16:54:03 2022
; FORMAT={-:-/ absolute / inch / decimal}
; #@! TF.CreationDate,2022-11-14T16:54:03+08:00
; #@! TF.GenerationSoftware,Kicad,Pcbnew,(6.99.0-4085-g6c752680d7)
; #@! TF.FileFunction,Plated,1,4,PTH
FMAT,2
INCH
; #@! TA.AperFunction,Plated,PTH,ViaDrill
T1C0.0118
; #@! TA.AperFunction,Plated,PTH,ViaDrill
T2C0.0157
; #@! TA.AperFunction,Plated,PTH,ComponentDrill
T3C0.0394
; #@! TA.AperFunction,Plated,PTH,ComponentDrill
T4C0.0472
; #@! TA.AperFunction,Plated,PTH,ComponentDrill
T5C0.0591
%
G90
G05
T1
X4.6189Y-3.785
T2
X2.5195Y-2.9856
X2.6834Y-3.093
X2.9187Y-2.8994
X2.9369Y-3.4942
X3.0582Y-3.0216
X3.4346Y-3.7764
X3.454Y-2.7921
X3.5162Y-2.8901
X3.7697Y-3.6803
X3.8406Y-2.8201
X3.8564Y-2.9543
X4.2791Y-3.8024
X4.3362Y-2.9415
X4.3368Y-2.8389
X4.618Y-3.8624
X4.6696Y-2.9236
T3
X3.9847Y-3.9492
X3.9847Y-4.0492
X3.9847Y-4.1492
X4.0626Y-2.8003
X4.0626Y-2.9003
X4.0626Y-3.0003
X4.0626Y-3.1003
X4.0626Y-3.2003
X4.0626Y-3.3003
X4.7055Y-3.0453
T4
X2.7806Y-3.4081
X2.8806Y-3.3855
X3.0341Y-3.2924
X3.0471Y-3.2518
X3.4923Y-4.1306
X3.5723Y-3.2706
X3.5946Y-4.1365
X3.6746Y-3.2765
X3.7678Y-4.0893
X3.7915Y-4.0539
X3.8478Y-3.2293
X3.8715Y-3.1939
X4.2725Y-4.1814
X4.3305Y-3.3214
X4.3723Y-4.205
X4.4303Y-3.345
X4.5511Y-4.1886
X4.5805Y-4.1578
X4.6091Y-3.3286
X4.6385Y-3.2978
T5
X2.7Y-3.2997
X2.9679Y-3.3269
X3.4446Y-4.0043
X3.5246Y-3.1443
X3.6946Y-4.1043
X3.7746Y-3.2443
X4.2475Y-4.0487
X4.3055Y-3.1887
X4.4764Y-4.1906
X4.5344Y-3.3306
T0
M30
