%TF.GenerationSoftware,KiCad,Pcbnew,(6.99.0-4085-g6c752680d7)*%
%TF.CreationDate,2022-11-14T16:54:03+08:00*%
%TF.ProjectId,flex_thumbs_right,666c6578-5f74-4687-956d-62735f726967,rev?*%
%TF.SameCoordinates,Original*%
%TF.FileFunction,Copper,L2,Inr*%
%TF.FilePolarity,Positive*%
%FSLAX46Y46*%
G04 Gerber Fmt 4.6, Leading zero omitted, Abs format (unit mm)*
G04 Created by KiCad (PCBNEW (6.99.0-4085-g6c752680d7)) date 2022-11-14 16:54:03*
%MOMM*%
%LPD*%
G01*
G04 APERTURE LIST*
G04 Aperture macros list*
%AMRotRect*
0 Rectangle, with rotation*
0 The origin of the aperture is its center*
0 $1 length*
0 $2 width*
0 $3 Rotation angle, in degrees counterclockwise*
0 Add horizontal line*
21,1,$1,$2,0,0,$3*%
G04 Aperture macros list end*
%TA.AperFunction,ComponentPad*%
%ADD10C,2.500000*%
%TD*%
%TA.AperFunction,ComponentPad*%
%ADD11C,2.200000*%
%TD*%
%TA.AperFunction,ComponentPad*%
%ADD12R,1.700000X1.700000*%
%TD*%
%TA.AperFunction,ComponentPad*%
%ADD13O,1.700000X1.700000*%
%TD*%
%TA.AperFunction,ComponentPad*%
%ADD14RotRect,1.700000X1.700000X169.000000*%
%TD*%
%TA.AperFunction,ViaPad*%
%ADD15C,0.800000*%
%TD*%
%TA.AperFunction,ViaPad*%
%ADD16C,0.600000*%
%TD*%
G04 APERTURE END LIST*
D10*
%TO.N,row1*%
%TO.C,SW9*%
X107887334Y-102836702D03*
D11*
X108521541Y-106208049D03*
X111055994Y-106807256D03*
%TO.N,Net-(D9-A)*%
X113699797Y-106440780D03*
X115597526Y-106389538D03*
X116344694Y-105607400D03*
%TD*%
D10*
%TO.N,row1*%
%TO.C,SW19*%
X89525313Y-79864091D03*
D11*
X90735313Y-83074091D03*
X93335313Y-83224091D03*
%TO.N,Net-(D19-A)*%
X95875313Y-82404091D03*
X97735313Y-82024091D03*
X98335313Y-81124091D03*
%TD*%
D10*
%TO.N,row1*%
%TO.C,SW14*%
X68579822Y-83813068D03*
D11*
X70627744Y-86565197D03*
X73168370Y-85992729D03*
%TO.N,Net-(D14-A)*%
X75383952Y-84504376D03*
X77067157Y-83626411D03*
X77395840Y-82595893D03*
%TD*%
D12*
%TO.N,col5*%
%TO.C,J1*%
X103190504Y-71126487D03*
D13*
%TO.N,col6*%
X103190504Y-73666487D03*
%TO.N,col4*%
X103190504Y-76206487D03*
%TO.N,row1*%
X103190504Y-78746487D03*
%TO.N,col2*%
X103190504Y-81286487D03*
%TO.N,col3*%
X103190504Y-83826487D03*
%TD*%
D10*
%TO.N,row1*%
%TO.C,SW1*%
X87493303Y-101708090D03*
D11*
X88703303Y-104918090D03*
X91303303Y-105068090D03*
%TO.N,Net-(D1-A)*%
X93843303Y-104248090D03*
X95703303Y-103868090D03*
X96303303Y-102968090D03*
%TD*%
D10*
%TO.N,row1*%
%TO.C,SW5*%
X109360530Y-80992697D03*
D11*
X109994737Y-84364044D03*
X112529190Y-84963251D03*
%TO.N,Net-(D5-A)*%
X115172993Y-84596775D03*
X117070722Y-84545533D03*
X117817890Y-83763395D03*
%TD*%
D12*
%TO.N,Vcc*%
%TO.C,J2*%
X101210124Y-100309689D03*
D13*
%TO.N,Gnd*%
X101210124Y-102849689D03*
%TO.N,Din*%
X101210124Y-105389689D03*
%TD*%
D14*
%TO.N,Net-(D12-DOUT)*%
%TO.C,J3*%
X119520923Y-77351807D03*
%TD*%
D15*
%TO.N,Vcc*%
X87239564Y-95920397D03*
X74135443Y-73643870D03*
X97551925Y-71629727D03*
X118608547Y-74258199D03*
X108688562Y-96580640D03*
%TO.N,Din*%
X117297389Y-98103888D03*
%TO.N,Gnd*%
X95749565Y-93480395D03*
X110140631Y-74714693D03*
D16*
X117319128Y-96137789D03*
D15*
X68159451Y-78561582D03*
X89311923Y-73409726D03*
%TO.N,Net-(D4-DOUT)*%
X74597633Y-88751727D03*
X63996195Y-75833445D03*
%TO.N,Net-(D10-DIN)*%
X77678190Y-76747593D03*
X87731923Y-70919728D03*
%TO.N,Net-(D10-DOUT)*%
X110153592Y-72107333D03*
X97951922Y-75039724D03*
%TD*%
%TA.AperFunction,Conductor*%
%TO.N,Vcc*%
G36*
X101662980Y-69223673D02*
G01*
X101664252Y-69223692D01*
X101683650Y-69223979D01*
X101687349Y-69224088D01*
X101707121Y-69224962D01*
X101710782Y-69225177D01*
X101731181Y-69226682D01*
X101732914Y-69226823D01*
X101772026Y-69230288D01*
X101772031Y-69230288D01*
X101772099Y-69230294D01*
X101772122Y-69230287D01*
X106848896Y-69678895D01*
X106850748Y-69679072D01*
X106871452Y-69681210D01*
X106875119Y-69681644D01*
X106894760Y-69684256D01*
X106898401Y-69684794D01*
X106918697Y-69688101D01*
X106920480Y-69688406D01*
X110021940Y-70240862D01*
X122227238Y-72414966D01*
X122227238Y-72414965D01*
X122227259Y-72414969D01*
X122228466Y-72415184D01*
X122240528Y-72417949D01*
X122373493Y-72455398D01*
X122396484Y-72464386D01*
X122514051Y-72524234D01*
X122534839Y-72537530D01*
X122638469Y-72619160D01*
X122656273Y-72636264D01*
X122741989Y-72736542D01*
X122756113Y-72756790D01*
X122818385Y-72867874D01*
X122820614Y-72871851D01*
X122830521Y-72894474D01*
X122869197Y-73013331D01*
X122871337Y-73019906D01*
X122876641Y-73044028D01*
X122892204Y-73175014D01*
X122892700Y-73199708D01*
X122881870Y-73338132D01*
X122880301Y-73350401D01*
X122197141Y-77185519D01*
X122197141Y-77185520D01*
X121013426Y-83830913D01*
X120322239Y-87711181D01*
X120319473Y-87723244D01*
X120312472Y-87748102D01*
X120285294Y-87844599D01*
X120282025Y-87856204D01*
X120273031Y-87879207D01*
X120213188Y-87996760D01*
X120199881Y-88017566D01*
X120118257Y-88121187D01*
X120101151Y-88138992D01*
X120000874Y-88224708D01*
X119980630Y-88238829D01*
X119865559Y-88303337D01*
X119842943Y-88313241D01*
X119717507Y-88354059D01*
X119693386Y-88359363D01*
X119562399Y-88374928D01*
X119537707Y-88375424D01*
X119480557Y-88370955D01*
X119399487Y-88364614D01*
X119387229Y-88363047D01*
X104080708Y-85636548D01*
X104080699Y-85636543D01*
X104080699Y-85636546D01*
X104079038Y-85636250D01*
X104056760Y-85632282D01*
X104057108Y-85630327D01*
X104056339Y-85630047D01*
X104056003Y-85632318D01*
X104026753Y-85627987D01*
X104025849Y-85627880D01*
X104025817Y-85627876D01*
X103997353Y-85624516D01*
X103997583Y-85622568D01*
X103996786Y-85622611D01*
X103996638Y-85624286D01*
X103991725Y-85623852D01*
X103991703Y-85623849D01*
X103982617Y-85623047D01*
X103982598Y-85623045D01*
X103974127Y-85622296D01*
X103974125Y-85622296D01*
X103967867Y-85621743D01*
X101768119Y-85427364D01*
X101768014Y-85427355D01*
X101767794Y-85427330D01*
X101767794Y-85427332D01*
X101750904Y-85425833D01*
X101750899Y-85425833D01*
X101750205Y-85425771D01*
X101749970Y-85425757D01*
X101749562Y-85425724D01*
X101747820Y-85425570D01*
X101745235Y-85425342D01*
X101745411Y-85423353D01*
X101744665Y-85423153D01*
X101744530Y-85425436D01*
X101715867Y-85423747D01*
X101715861Y-85423747D01*
X101714949Y-85423693D01*
X101685354Y-85422827D01*
X101685412Y-85420848D01*
X101684649Y-85420958D01*
X101684649Y-85422666D01*
X101680019Y-85422666D01*
X101679798Y-85422664D01*
X101679648Y-85422660D01*
X101679198Y-85422660D01*
X101661990Y-85422666D01*
X101661947Y-85422666D01*
X85214173Y-85422669D01*
X85214173Y-85418810D01*
X85214153Y-85418813D01*
X85214154Y-85422661D01*
X85174292Y-85422669D01*
X85151720Y-85422669D01*
X85151693Y-85422675D01*
X85151690Y-85422675D01*
X85147047Y-85422676D01*
X85092651Y-85425146D01*
X85057840Y-85428308D01*
X85039820Y-85429944D01*
X85039811Y-85429945D01*
X85038424Y-85430071D01*
X85037028Y-85430262D01*
X85037016Y-85430263D01*
X85033796Y-85430703D01*
X85033541Y-85428833D01*
X85033505Y-85428841D01*
X85033760Y-85430700D01*
X85033758Y-85430700D01*
X85011166Y-85433795D01*
X85011118Y-85433787D01*
X85011120Y-85433801D01*
X84971934Y-85439154D01*
X84971316Y-85434629D01*
X84971279Y-85434631D01*
X84971901Y-85439173D01*
X81947584Y-85853443D01*
X81876354Y-85863200D01*
X81876332Y-85863200D01*
X81876332Y-85863201D01*
X81849318Y-85866898D01*
X81821970Y-85871919D01*
X81797071Y-85876490D01*
X81797056Y-85876493D01*
X81795684Y-85876745D01*
X81794312Y-85877062D01*
X81794303Y-85877064D01*
X81743954Y-85888702D01*
X81743938Y-85888706D01*
X81742554Y-85889026D01*
X81716794Y-85896231D01*
X81716739Y-85896246D01*
X77961018Y-86944864D01*
X77591305Y-87048090D01*
X77591009Y-87048250D01*
X77590576Y-87048398D01*
X77516232Y-87069222D01*
X77511494Y-87071449D01*
X77511489Y-87071451D01*
X77338917Y-87152569D01*
X77338913Y-87152571D01*
X77334146Y-87154812D01*
X77329816Y-87157817D01*
X77173172Y-87266516D01*
X77173166Y-87266521D01*
X77168847Y-87269518D01*
X77165081Y-87273198D01*
X77165080Y-87273199D01*
X77048848Y-87386781D01*
X77024947Y-87410137D01*
X76906461Y-87572748D01*
X76816695Y-87752813D01*
X76815163Y-87757851D01*
X76785253Y-87856204D01*
X76758155Y-87945308D01*
X76755530Y-87965707D01*
X76733227Y-88138997D01*
X76732472Y-88144861D01*
X76740364Y-88345905D01*
X76741444Y-88351063D01*
X76741445Y-88351068D01*
X76774232Y-88507599D01*
X76781611Y-88542831D01*
X76783533Y-88547733D01*
X76783535Y-88547739D01*
X76810186Y-88615703D01*
X76855062Y-88730144D01*
X76884496Y-88779144D01*
X76944848Y-88879614D01*
X76958666Y-88902618D01*
X76962073Y-88906604D01*
X77009287Y-88961844D01*
X77006613Y-88964129D01*
X77006684Y-88964185D01*
X77009328Y-88961921D01*
X81168320Y-93819252D01*
X81168325Y-93819267D01*
X81168353Y-93819300D01*
X81168356Y-93819304D01*
X81194235Y-93849518D01*
X81194261Y-93849564D01*
X81194268Y-93849558D01*
X81262278Y-93929024D01*
X81266509Y-93932508D01*
X81266514Y-93932512D01*
X81350035Y-94001270D01*
X81423781Y-94061981D01*
X81428544Y-94064676D01*
X81428545Y-94064677D01*
X81601079Y-94162311D01*
X81601082Y-94162312D01*
X81605842Y-94165006D01*
X81610997Y-94166836D01*
X81611001Y-94166838D01*
X81633574Y-94174852D01*
X81802976Y-94234996D01*
X82009244Y-94269843D01*
X82014723Y-94269808D01*
X82014727Y-94269808D01*
X82113837Y-94269169D01*
X82218430Y-94268495D01*
X82223817Y-94267513D01*
X82223821Y-94267513D01*
X82352883Y-94243994D01*
X82424231Y-94230993D01*
X82555480Y-94182481D01*
X82615305Y-94160369D01*
X82615309Y-94160367D01*
X82620447Y-94158468D01*
X82801165Y-94053104D01*
X82842597Y-94018090D01*
X85397621Y-94018090D01*
X85418259Y-94174852D01*
X85478767Y-94320931D01*
X85575021Y-94446372D01*
X85700462Y-94542626D01*
X85846541Y-94603134D01*
X85854729Y-94604212D01*
X85940251Y-94615471D01*
X85963942Y-94618590D01*
X86642664Y-94618590D01*
X86666356Y-94615471D01*
X86751877Y-94604212D01*
X86760065Y-94603134D01*
X86906144Y-94542626D01*
X87031585Y-94446372D01*
X87127839Y-94320931D01*
X87188347Y-94174852D01*
X87208985Y-94018090D01*
X87188347Y-93861328D01*
X87127839Y-93715249D01*
X87031585Y-93589808D01*
X86906144Y-93493554D01*
X86760065Y-93433046D01*
X86642664Y-93417590D01*
X85963942Y-93417590D01*
X85846541Y-93433046D01*
X85700462Y-93493554D01*
X85575021Y-93589808D01*
X85478767Y-93715249D01*
X85418259Y-93861328D01*
X85397621Y-94018090D01*
X82842597Y-94018090D01*
X82960941Y-93918077D01*
X82964450Y-93913872D01*
X83091447Y-93761666D01*
X83091450Y-93761662D01*
X83094960Y-93757455D01*
X83100751Y-93747378D01*
X83196455Y-93580826D01*
X83199184Y-93576077D01*
X83270472Y-93379409D01*
X83287205Y-93284189D01*
X83305727Y-93178789D01*
X83305727Y-93178785D01*
X83306678Y-93173375D01*
X83306655Y-93068780D01*
X83306661Y-93028898D01*
X83311285Y-93028899D01*
X83311286Y-93028883D01*
X83306655Y-93028883D01*
X83306647Y-91829363D01*
X83307254Y-91817010D01*
X83320796Y-91679549D01*
X83325615Y-91655324D01*
X83363910Y-91529092D01*
X83373362Y-91506274D01*
X83435545Y-91389937D01*
X83449267Y-91369401D01*
X83532944Y-91267438D01*
X83550409Y-91249972D01*
X83652383Y-91166281D01*
X83672918Y-91152559D01*
X83789247Y-91090374D01*
X83812065Y-91080922D01*
X83938295Y-91042623D01*
X83962519Y-91037803D01*
X84099823Y-91024271D01*
X84112181Y-91023663D01*
X99621339Y-91023669D01*
X99621304Y-91023669D01*
X99621304Y-91027528D01*
X99621316Y-91027526D01*
X99621316Y-91023674D01*
X99660273Y-91023669D01*
X99662130Y-91023683D01*
X99671015Y-91023815D01*
X99683239Y-91023997D01*
X99687020Y-91024110D01*
X99707157Y-91025015D01*
X99710928Y-91025241D01*
X99731678Y-91026798D01*
X99733485Y-91026947D01*
X99737331Y-91027293D01*
X99772645Y-91030477D01*
X99772648Y-91030476D01*
X105366081Y-91534594D01*
X105366087Y-91534596D01*
X105366087Y-91534594D01*
X105376177Y-91535504D01*
X105378047Y-91535687D01*
X105394461Y-91537414D01*
X105399158Y-91537909D01*
X105402886Y-91538358D01*
X105422902Y-91541075D01*
X105426561Y-91541627D01*
X105447807Y-91545161D01*
X105449631Y-91545479D01*
X105451116Y-91545749D01*
X105451129Y-91545751D01*
X105487624Y-91552385D01*
X105486833Y-91556734D01*
X105486838Y-91556736D01*
X105487629Y-91552384D01*
X120713507Y-94319392D01*
X120713427Y-94319834D01*
X120713439Y-94319838D01*
X120713519Y-94319399D01*
X120746656Y-94325418D01*
X120758697Y-94328221D01*
X120891547Y-94366112D01*
X120914523Y-94375183D01*
X121031883Y-94435422D01*
X121052645Y-94448801D01*
X121128097Y-94508650D01*
X121155996Y-94530780D01*
X121173745Y-94547948D01*
X121259120Y-94648525D01*
X121273178Y-94668826D01*
X121337288Y-94784126D01*
X121347115Y-94806784D01*
X121387492Y-94932365D01*
X121392712Y-94956509D01*
X121407812Y-95087559D01*
X121408220Y-95112259D01*
X121396991Y-95249467D01*
X121395379Y-95261727D01*
X121389270Y-95295330D01*
X121384365Y-95294438D01*
X121384363Y-95294446D01*
X121389272Y-95295338D01*
X120698646Y-99095622D01*
X120698646Y-99095623D01*
X119501495Y-105683115D01*
X119491731Y-105736841D01*
X119491730Y-105736842D01*
X118793026Y-109581586D01*
X118792194Y-109581435D01*
X118792193Y-109581439D01*
X118793024Y-109581590D01*
X118787002Y-109614729D01*
X118784197Y-109626769D01*
X118746298Y-109759610D01*
X118737229Y-109782578D01*
X118676983Y-109899933D01*
X118663603Y-109920695D01*
X118581618Y-110024044D01*
X118564449Y-110041791D01*
X118463881Y-110127154D01*
X118443573Y-110141216D01*
X118328282Y-110205318D01*
X118305620Y-110215147D01*
X118180045Y-110255522D01*
X118155903Y-110260742D01*
X118099199Y-110267277D01*
X118024850Y-110275844D01*
X118000159Y-110276252D01*
X117862483Y-110264987D01*
X117850224Y-110263375D01*
X117849526Y-110263248D01*
X117842613Y-110261991D01*
X117842613Y-110261992D01*
X117817088Y-110257352D01*
X117817086Y-110257352D01*
X117817080Y-110257351D01*
X117817077Y-110257352D01*
X102591207Y-107490331D01*
X102591202Y-107490328D01*
X102551962Y-107483199D01*
X102551962Y-107483197D01*
X102551956Y-107483198D01*
X102529748Y-107479162D01*
X102529747Y-107479162D01*
X102530099Y-107477227D01*
X102529347Y-107476950D01*
X102529008Y-107479195D01*
X102498692Y-107474621D01*
X102468249Y-107470956D01*
X102468483Y-107469015D01*
X102467717Y-107469056D01*
X102467566Y-107470734D01*
X99808638Y-107231081D01*
X99807228Y-107230954D01*
X99807221Y-107230953D01*
X99746429Y-107225474D01*
X99746606Y-107223505D01*
X99745848Y-107223301D01*
X99745712Y-107225571D01*
X99716034Y-107223792D01*
X99716023Y-107223792D01*
X99715097Y-107223736D01*
X99684449Y-107222819D01*
X99684507Y-107220871D01*
X99683753Y-107220980D01*
X99683753Y-107222660D01*
X99661011Y-107222660D01*
X84112354Y-107222665D01*
X84099999Y-107222058D01*
X84066956Y-107218802D01*
X83962526Y-107208512D01*
X83938310Y-107203694D01*
X83812075Y-107165397D01*
X83789263Y-107155947D01*
X83672924Y-107093760D01*
X83652389Y-107080039D01*
X83550417Y-106996353D01*
X83532953Y-106978889D01*
X83476019Y-106909517D01*
X83449264Y-106876917D01*
X83435550Y-106856394D01*
X83373355Y-106740044D01*
X83363907Y-106717235D01*
X83347176Y-106662087D01*
X83325609Y-106591002D01*
X83320789Y-106566779D01*
X83317496Y-106533358D01*
X83307251Y-106429404D01*
X83306644Y-106417047D01*
X83306645Y-105955646D01*
X83306648Y-102721701D01*
X83306657Y-102721612D01*
X83306651Y-102721612D01*
X83306702Y-102636457D01*
X83282663Y-102467853D01*
X83235066Y-102304331D01*
X83175541Y-102172763D01*
X83166702Y-102153226D01*
X83166701Y-102153223D01*
X83164864Y-102149164D01*
X83073462Y-102005460D01*
X83018039Y-101940810D01*
X80643942Y-99168090D01*
X84747720Y-99168090D01*
X84768003Y-99374024D01*
X84769799Y-99379944D01*
X84769800Y-99379950D01*
X84780402Y-99414899D01*
X84828071Y-99572044D01*
X84925618Y-99754540D01*
X85056893Y-99914500D01*
X85216853Y-100045775D01*
X85399349Y-100143322D01*
X85405583Y-100145213D01*
X85591443Y-100201593D01*
X85591449Y-100201594D01*
X85597369Y-100203390D01*
X85670483Y-100210591D01*
X85748615Y-100218287D01*
X85748622Y-100218287D01*
X85751695Y-100218590D01*
X85854911Y-100218590D01*
X85857984Y-100218287D01*
X85857991Y-100218287D01*
X85936123Y-100210591D01*
X86009237Y-100203390D01*
X86015157Y-100201594D01*
X86015163Y-100201593D01*
X86188490Y-100149015D01*
X86225065Y-100143590D01*
X86272776Y-100143590D01*
X86272776Y-100145213D01*
X86335667Y-100160248D01*
X86384831Y-100211467D01*
X86398500Y-100281136D01*
X86372333Y-100347134D01*
X86358734Y-100361941D01*
X86200617Y-100508652D01*
X86197684Y-100512330D01*
X86197682Y-100512332D01*
X86039223Y-100711033D01*
X86039220Y-100711037D01*
X86036288Y-100714714D01*
X85904507Y-100942966D01*
X85808216Y-101188310D01*
X85807166Y-101192909D01*
X85807166Y-101192910D01*
X85756963Y-101412866D01*
X85749568Y-101445264D01*
X85749216Y-101449964D01*
X85749215Y-101449969D01*
X85735180Y-101637264D01*
X85729872Y-101708090D01*
X85730541Y-101717023D01*
X85747308Y-101940753D01*
X85749568Y-101970916D01*
X85750618Y-101975515D01*
X85750618Y-101975517D01*
X85802060Y-102200899D01*
X85808216Y-102227870D01*
X85904507Y-102473214D01*
X85938509Y-102532107D01*
X86001341Y-102640935D01*
X86036288Y-102701466D01*
X86039220Y-102705143D01*
X86039223Y-102705147D01*
X86197682Y-102903848D01*
X86200617Y-102907528D01*
X86393822Y-103086796D01*
X86611588Y-103235266D01*
X86615837Y-103237312D01*
X86615840Y-103237314D01*
X86730032Y-103292306D01*
X86849049Y-103349622D01*
X86853551Y-103351011D01*
X86853557Y-103351013D01*
X86968923Y-103386598D01*
X87100903Y-103427308D01*
X87105553Y-103428009D01*
X87105558Y-103428010D01*
X87216880Y-103444789D01*
X87361522Y-103466590D01*
X87584534Y-103466590D01*
X87652655Y-103486592D01*
X87699148Y-103540248D01*
X87709252Y-103610522D01*
X87679758Y-103675102D01*
X87666365Y-103688401D01*
X87640011Y-103710910D01*
X87562405Y-103777192D01*
X87397975Y-103969714D01*
X87265687Y-104185588D01*
X87263794Y-104190158D01*
X87263792Y-104190162D01*
X87179210Y-104394362D01*
X87168798Y-104419499D01*
X87167643Y-104424311D01*
X87111294Y-104659024D01*
X87109694Y-104665687D01*
X87089829Y-104918090D01*
X87109694Y-105170493D01*
X87110848Y-105175300D01*
X87110849Y-105175306D01*
X87131104Y-105259673D01*
X87168798Y-105416681D01*
X87170691Y-105421252D01*
X87170692Y-105421254D01*
X87260972Y-105639208D01*
X87265687Y-105650592D01*
X87397975Y-105866466D01*
X87562405Y-106058988D01*
X87754927Y-106223418D01*
X87970801Y-106355706D01*
X87975371Y-106357599D01*
X87975375Y-106357601D01*
X88200139Y-106450701D01*
X88204712Y-106452595D01*
X88257487Y-106465265D01*
X88446087Y-106510544D01*
X88446093Y-106510545D01*
X88450900Y-106511699D01*
X88703303Y-106531564D01*
X88955706Y-106511699D01*
X88960513Y-106510545D01*
X88960519Y-106510544D01*
X89149119Y-106465265D01*
X89201894Y-106452595D01*
X89206467Y-106450701D01*
X89431231Y-106357601D01*
X89431235Y-106357599D01*
X89435805Y-106355706D01*
X89651679Y-106223418D01*
X89844201Y-106058988D01*
X89847409Y-106055232D01*
X89850091Y-106052550D01*
X89912403Y-106018524D01*
X89983218Y-106023589D01*
X90034997Y-106059814D01*
X90157392Y-106203119D01*
X90162405Y-106208988D01*
X90166161Y-106212196D01*
X90179300Y-106223418D01*
X90354927Y-106373418D01*
X90570801Y-106505706D01*
X90575371Y-106507599D01*
X90575375Y-106507601D01*
X90718244Y-106566779D01*
X90804712Y-106602595D01*
X90889335Y-106622911D01*
X91046087Y-106660544D01*
X91046093Y-106660545D01*
X91050900Y-106661699D01*
X91303303Y-106681564D01*
X91555706Y-106661699D01*
X91560513Y-106660545D01*
X91560519Y-106660544D01*
X91717271Y-106622911D01*
X91801894Y-106602595D01*
X91888362Y-106566779D01*
X92031231Y-106507601D01*
X92031235Y-106507599D01*
X92035805Y-106505706D01*
X92251679Y-106373418D01*
X92427306Y-106223418D01*
X92440445Y-106212196D01*
X92444201Y-106208988D01*
X92608631Y-106016466D01*
X92740919Y-105800592D01*
X92747896Y-105783750D01*
X92797297Y-105664484D01*
X92841845Y-105609203D01*
X92909209Y-105586782D01*
X92979541Y-105605270D01*
X93106571Y-105683115D01*
X93106581Y-105683120D01*
X93110801Y-105685706D01*
X93115371Y-105687599D01*
X93115375Y-105687601D01*
X93234254Y-105736842D01*
X93344712Y-105782595D01*
X93419676Y-105800592D01*
X93586087Y-105840544D01*
X93586093Y-105840545D01*
X93590900Y-105841699D01*
X93843303Y-105861564D01*
X94095706Y-105841699D01*
X94100513Y-105840545D01*
X94100519Y-105840544D01*
X94266930Y-105800592D01*
X94341894Y-105782595D01*
X94452352Y-105736842D01*
X94571231Y-105687601D01*
X94571235Y-105687599D01*
X94575805Y-105685706D01*
X94791679Y-105553418D01*
X94984201Y-105388988D01*
X94985192Y-105390148D01*
X95041558Y-105359369D01*
X95116559Y-105366081D01*
X95186084Y-105394879D01*
X95204712Y-105402595D01*
X95263385Y-105416681D01*
X95446087Y-105460544D01*
X95446093Y-105460545D01*
X95450900Y-105461699D01*
X95703303Y-105481564D01*
X95955706Y-105461699D01*
X95960513Y-105460545D01*
X95960519Y-105460544D01*
X96143221Y-105416681D01*
X96201894Y-105402595D01*
X96206467Y-105400701D01*
X96233050Y-105389690D01*
X99846969Y-105389690D01*
X99847399Y-105394879D01*
X99864833Y-105605270D01*
X99865561Y-105614058D01*
X99866842Y-105619116D01*
X99866842Y-105619117D01*
X99913867Y-105804812D01*
X99920829Y-105832306D01*
X99935001Y-105864616D01*
X100004733Y-106023589D01*
X100011265Y-106038481D01*
X100014115Y-106042843D01*
X100014117Y-106042847D01*
X100055371Y-106105991D01*
X100134403Y-106226958D01*
X100137928Y-106230787D01*
X100137931Y-106230791D01*
X100234166Y-106335328D01*
X100286885Y-106392596D01*
X100291004Y-106395802D01*
X100439907Y-106511699D01*
X100464549Y-106530879D01*
X100662551Y-106638032D01*
X100875490Y-106711134D01*
X100880624Y-106711991D01*
X100880629Y-106711992D01*
X101092419Y-106747333D01*
X101092421Y-106747333D01*
X101097556Y-106748190D01*
X101322694Y-106748190D01*
X101327829Y-106747333D01*
X101327831Y-106747333D01*
X101539621Y-106711992D01*
X101539626Y-106711991D01*
X101544760Y-106711134D01*
X101757699Y-106638032D01*
X101955701Y-106530879D01*
X101980344Y-106511699D01*
X102129246Y-106395802D01*
X102133365Y-106392596D01*
X102186084Y-106335328D01*
X102282319Y-106230791D01*
X102282322Y-106230787D01*
X102285847Y-106226958D01*
X102364879Y-106105991D01*
X102406133Y-106042847D01*
X102406135Y-106042843D01*
X102408985Y-106038481D01*
X102415518Y-106023589D01*
X102485249Y-105864616D01*
X102499421Y-105832306D01*
X102506384Y-105804812D01*
X102553408Y-105619117D01*
X102553408Y-105619116D01*
X102554689Y-105614058D01*
X102555418Y-105605270D01*
X102572851Y-105394879D01*
X102573281Y-105389690D01*
X102570815Y-105359931D01*
X102555120Y-105170518D01*
X102555119Y-105170513D01*
X102554689Y-105165322D01*
X102513145Y-105001269D01*
X102500703Y-104952136D01*
X102500703Y-104952135D01*
X102499421Y-104947074D01*
X102465911Y-104870678D01*
X102411079Y-104745672D01*
X102411077Y-104745668D01*
X102408985Y-104740899D01*
X102366218Y-104675438D01*
X102288698Y-104556786D01*
X102285847Y-104552422D01*
X102282322Y-104548593D01*
X102282319Y-104548589D01*
X102167911Y-104424311D01*
X102133365Y-104386784D01*
X102027099Y-104304073D01*
X101959814Y-104251702D01*
X101959812Y-104251700D01*
X101955701Y-104248501D01*
X101922445Y-104230504D01*
X101872054Y-104180491D01*
X101856702Y-104111174D01*
X101881262Y-104044561D01*
X101922445Y-104008876D01*
X101949354Y-103994314D01*
X101955701Y-103990879D01*
X101977480Y-103973928D01*
X102129246Y-103855802D01*
X102133365Y-103852596D01*
X102218441Y-103760180D01*
X102282319Y-103690791D01*
X102282322Y-103690787D01*
X102285847Y-103686958D01*
X102338796Y-103605913D01*
X102406133Y-103502847D01*
X102406135Y-103502843D01*
X102408985Y-103498481D01*
X102415750Y-103483060D01*
X102474280Y-103349622D01*
X102499421Y-103292306D01*
X102554689Y-103074058D01*
X102556808Y-103048492D01*
X102572851Y-102854879D01*
X102573281Y-102849690D01*
X102563889Y-102736347D01*
X102555120Y-102630518D01*
X102555119Y-102630513D01*
X102554689Y-102625322D01*
X102552931Y-102618380D01*
X102500703Y-102412136D01*
X102500703Y-102412135D01*
X102499421Y-102407074D01*
X102454354Y-102304331D01*
X102411079Y-102205672D01*
X102411077Y-102205668D01*
X102408985Y-102200899D01*
X102380886Y-102157889D01*
X102288698Y-102016786D01*
X102285847Y-102012422D01*
X102282322Y-102008593D01*
X102282319Y-102008589D01*
X102155792Y-101871146D01*
X102142283Y-101856472D01*
X102110863Y-101792808D01*
X102118850Y-101722262D01*
X102163708Y-101667233D01*
X102190952Y-101653079D01*
X102297647Y-101613284D01*
X102313301Y-101604736D01*
X102415818Y-101527992D01*
X102428427Y-101515383D01*
X102505171Y-101412866D01*
X102513720Y-101397210D01*
X102558866Y-101276168D01*
X102562463Y-101260947D01*
X102567765Y-101211628D01*
X102568125Y-101204913D01*
X102568125Y-100581805D01*
X102563650Y-100566566D01*
X102562260Y-100565361D01*
X102554577Y-100563690D01*
X99870240Y-100563690D01*
X99855001Y-100568165D01*
X99853796Y-100569555D01*
X99852125Y-100577238D01*
X99852125Y-101204913D01*
X99852485Y-101211628D01*
X99857787Y-101260947D01*
X99861384Y-101276168D01*
X99906530Y-101397210D01*
X99915079Y-101412866D01*
X99991823Y-101515383D01*
X100004432Y-101527992D01*
X100106949Y-101604736D01*
X100122603Y-101613284D01*
X100229298Y-101653079D01*
X100286133Y-101695626D01*
X100310944Y-101762146D01*
X100295852Y-101831521D01*
X100277968Y-101856471D01*
X100264458Y-101871146D01*
X100137931Y-102008589D01*
X100137928Y-102008593D01*
X100134403Y-102012422D01*
X100131552Y-102016786D01*
X100039365Y-102157889D01*
X100011265Y-102200899D01*
X100009173Y-102205668D01*
X100009171Y-102205672D01*
X99965896Y-102304331D01*
X99920829Y-102407074D01*
X99919547Y-102412135D01*
X99919547Y-102412136D01*
X99867319Y-102618380D01*
X99865561Y-102625322D01*
X99865131Y-102630513D01*
X99865130Y-102630518D01*
X99856361Y-102736347D01*
X99846969Y-102849690D01*
X99847399Y-102854879D01*
X99863443Y-103048492D01*
X99865561Y-103074058D01*
X99920829Y-103292306D01*
X99945970Y-103349622D01*
X100004501Y-103483060D01*
X100011265Y-103498481D01*
X100014115Y-103502843D01*
X100014117Y-103502847D01*
X100081454Y-103605913D01*
X100134403Y-103686958D01*
X100137928Y-103690787D01*
X100137931Y-103690791D01*
X100201809Y-103760180D01*
X100286885Y-103852596D01*
X100291004Y-103855802D01*
X100442771Y-103973928D01*
X100464549Y-103990879D01*
X100470897Y-103994314D01*
X100497805Y-104008876D01*
X100548196Y-104058889D01*
X100563548Y-104128206D01*
X100538988Y-104194819D01*
X100497806Y-104230503D01*
X100464549Y-104248501D01*
X100460438Y-104251700D01*
X100460436Y-104251702D01*
X100393151Y-104304073D01*
X100286885Y-104386784D01*
X100252339Y-104424311D01*
X100137931Y-104548589D01*
X100137928Y-104548593D01*
X100134403Y-104552422D01*
X100131552Y-104556786D01*
X100054033Y-104675438D01*
X100011265Y-104740899D01*
X100009173Y-104745668D01*
X100009171Y-104745672D01*
X99954339Y-104870678D01*
X99920829Y-104947074D01*
X99919547Y-104952135D01*
X99919547Y-104952136D01*
X99907105Y-105001269D01*
X99865561Y-105165322D01*
X99865131Y-105170513D01*
X99865130Y-105170518D01*
X99849435Y-105359931D01*
X99846969Y-105389690D01*
X96233050Y-105389690D01*
X96431231Y-105307601D01*
X96431235Y-105307599D01*
X96435805Y-105305706D01*
X96651679Y-105173418D01*
X96844201Y-105008988D01*
X97008631Y-104816466D01*
X97140919Y-104600592D01*
X97143412Y-104594575D01*
X97235914Y-104371254D01*
X97235915Y-104371252D01*
X97237808Y-104366681D01*
X97238964Y-104361867D01*
X97238966Y-104361860D01*
X97252840Y-104304073D01*
X97293527Y-104237677D01*
X97440445Y-104112196D01*
X97444201Y-104108988D01*
X97608631Y-103916466D01*
X97740919Y-103700592D01*
X97746567Y-103686958D01*
X97835914Y-103471254D01*
X97835915Y-103471252D01*
X97837808Y-103466681D01*
X97874862Y-103312338D01*
X97895757Y-103225306D01*
X97895758Y-103225300D01*
X97896912Y-103220493D01*
X97916777Y-102968090D01*
X97896912Y-102715687D01*
X97894405Y-102705242D01*
X97858124Y-102554122D01*
X97837808Y-102469499D01*
X97835914Y-102464926D01*
X97742814Y-102240162D01*
X97742812Y-102240158D01*
X97740919Y-102235588D01*
X97608631Y-102019714D01*
X97444201Y-101827192D01*
X97251679Y-101662762D01*
X97035805Y-101530474D01*
X97031235Y-101528581D01*
X97031231Y-101528579D01*
X96806467Y-101435479D01*
X96806465Y-101435478D01*
X96801894Y-101433585D01*
X96671740Y-101402338D01*
X96560519Y-101375636D01*
X96560513Y-101375635D01*
X96555706Y-101374481D01*
X96303303Y-101354616D01*
X96050900Y-101374481D01*
X96046093Y-101375635D01*
X96046087Y-101375636D01*
X95934866Y-101402338D01*
X95804712Y-101433585D01*
X95800141Y-101435478D01*
X95800139Y-101435479D01*
X95575375Y-101528579D01*
X95575371Y-101528581D01*
X95570801Y-101530474D01*
X95354927Y-101662762D01*
X95162405Y-101827192D01*
X94997975Y-102019714D01*
X94865687Y-102235588D01*
X94863794Y-102240158D01*
X94863792Y-102240162D01*
X94770692Y-102464926D01*
X94768798Y-102469499D01*
X94767643Y-102474311D01*
X94767640Y-102474320D01*
X94753766Y-102532107D01*
X94713079Y-102598503D01*
X94562405Y-102727192D01*
X94561414Y-102726032D01*
X94505048Y-102756811D01*
X94430047Y-102750099D01*
X94346467Y-102715479D01*
X94346465Y-102715478D01*
X94341894Y-102713585D01*
X94257271Y-102693269D01*
X94100519Y-102655636D01*
X94100513Y-102655635D01*
X94095706Y-102654481D01*
X93843303Y-102634616D01*
X93590900Y-102654481D01*
X93586093Y-102655635D01*
X93586087Y-102655636D01*
X93429335Y-102693269D01*
X93344712Y-102713585D01*
X93340141Y-102715478D01*
X93340139Y-102715479D01*
X93115375Y-102808579D01*
X93115371Y-102808581D01*
X93110801Y-102810474D01*
X92894927Y-102942762D01*
X92702405Y-103107192D01*
X92537975Y-103299714D01*
X92405687Y-103515588D01*
X92403794Y-103520158D01*
X92403792Y-103520162D01*
X92349309Y-103651696D01*
X92304761Y-103706977D01*
X92237397Y-103729398D01*
X92167065Y-103710910D01*
X92040035Y-103633065D01*
X92040024Y-103633059D01*
X92035805Y-103630474D01*
X92031235Y-103628581D01*
X92031231Y-103628579D01*
X91806467Y-103535479D01*
X91806465Y-103535478D01*
X91801894Y-103533585D01*
X91709353Y-103511368D01*
X91560519Y-103475636D01*
X91560513Y-103475635D01*
X91555706Y-103474481D01*
X91303303Y-103454616D01*
X91050900Y-103474481D01*
X91046093Y-103475635D01*
X91046087Y-103475636D01*
X90897253Y-103511368D01*
X90804712Y-103533585D01*
X90800141Y-103535478D01*
X90800139Y-103535479D01*
X90575375Y-103628579D01*
X90575371Y-103628581D01*
X90570801Y-103630474D01*
X90354927Y-103762762D01*
X90162405Y-103927192D01*
X90159197Y-103930948D01*
X90156515Y-103933630D01*
X90094203Y-103967656D01*
X90023388Y-103962591D01*
X89971609Y-103926366D01*
X89847409Y-103780948D01*
X89844201Y-103777192D01*
X89651679Y-103612762D01*
X89435805Y-103480474D01*
X89431235Y-103478581D01*
X89431231Y-103478579D01*
X89206467Y-103385479D01*
X89206465Y-103385478D01*
X89201894Y-103383585D01*
X89089001Y-103356482D01*
X88960519Y-103325636D01*
X88960513Y-103325635D01*
X88955706Y-103324481D01*
X88703303Y-103304616D01*
X88698373Y-103305004D01*
X88698365Y-103305004D01*
X88686958Y-103305902D01*
X88617477Y-103291308D01*
X88566917Y-103241467D01*
X88551329Y-103172203D01*
X88575662Y-103105507D01*
X88593224Y-103087270D01*
X88592784Y-103086796D01*
X88683682Y-103002455D01*
X88785989Y-102907528D01*
X88788924Y-102903848D01*
X88947383Y-102705147D01*
X88947386Y-102705143D01*
X88950318Y-102701466D01*
X88985266Y-102640935D01*
X89048097Y-102532107D01*
X89082099Y-102473214D01*
X89178390Y-102227870D01*
X89184546Y-102200899D01*
X89235988Y-101975517D01*
X89235988Y-101975515D01*
X89237038Y-101970916D01*
X89239299Y-101940753D01*
X89256065Y-101717023D01*
X89256734Y-101708090D01*
X89251426Y-101637264D01*
X89237391Y-101449969D01*
X89237390Y-101449964D01*
X89237038Y-101445264D01*
X89229644Y-101412866D01*
X89179440Y-101192910D01*
X89179440Y-101192909D01*
X89178390Y-101188310D01*
X89114337Y-101025106D01*
X89108069Y-100954388D01*
X89141030Y-100891506D01*
X89202754Y-100856427D01*
X89273646Y-100860287D01*
X89327312Y-100897096D01*
X89395533Y-100976723D01*
X89414844Y-100999263D01*
X89417708Y-101001874D01*
X89417713Y-101001879D01*
X89516596Y-101092022D01*
X89654187Y-101217453D01*
X89918529Y-101404577D01*
X89921939Y-101406408D01*
X89921942Y-101406410D01*
X90200456Y-101555969D01*
X90200463Y-101555972D01*
X90203863Y-101557798D01*
X90362691Y-101619328D01*
X90449813Y-101653079D01*
X90505863Y-101674793D01*
X90588694Y-101695626D01*
X90816181Y-101752842D01*
X90816188Y-101752843D01*
X90819952Y-101753790D01*
X91141368Y-101793590D01*
X91384190Y-101793590D01*
X91397627Y-101792761D01*
X91622691Y-101778880D01*
X91622698Y-101778879D01*
X91626559Y-101778641D01*
X91944915Y-101719130D01*
X92253545Y-101620948D01*
X92378684Y-101563375D01*
X92544248Y-101487204D01*
X92544256Y-101487200D01*
X92547770Y-101485583D01*
X92592325Y-101457996D01*
X92819822Y-101317136D01*
X92819824Y-101317135D01*
X92823131Y-101315087D01*
X92944461Y-101217453D01*
X93072429Y-101114478D01*
X93072433Y-101114475D01*
X93075452Y-101112045D01*
X93300909Y-100879534D01*
X93496085Y-100621080D01*
X93518761Y-100581805D01*
X93591797Y-100455301D01*
X93658020Y-100340600D01*
X93699926Y-100241594D01*
X93782747Y-100045922D01*
X93782750Y-100045914D01*
X93784260Y-100042346D01*
X93872892Y-99730839D01*
X93922571Y-99410801D01*
X93922691Y-99406915D01*
X93928519Y-99217753D01*
X95404031Y-99217753D01*
X95404998Y-99224065D01*
X95404998Y-99224067D01*
X95423250Y-99343212D01*
X95434073Y-99413863D01*
X95502978Y-99599910D01*
X95607923Y-99768279D01*
X95744612Y-99912076D01*
X95749851Y-99915723D01*
X95749854Y-99915725D01*
X95856943Y-99990261D01*
X95907449Y-100025414D01*
X96089768Y-100103653D01*
X96096026Y-100104939D01*
X96096029Y-100104940D01*
X96182131Y-100122634D01*
X96284104Y-100143590D01*
X96381541Y-100143590D01*
X96418116Y-100149015D01*
X96591443Y-100201593D01*
X96591449Y-100201594D01*
X96597369Y-100203390D01*
X96670483Y-100210591D01*
X96748615Y-100218287D01*
X96748622Y-100218287D01*
X96751695Y-100218590D01*
X96854911Y-100218590D01*
X96857984Y-100218287D01*
X96857991Y-100218287D01*
X96936123Y-100210591D01*
X97009237Y-100203390D01*
X97015157Y-100201594D01*
X97015163Y-100201593D01*
X97201023Y-100145213D01*
X97207257Y-100143322D01*
X97389753Y-100045775D01*
X97399745Y-100037575D01*
X99852125Y-100037575D01*
X99856600Y-100052814D01*
X99857990Y-100054019D01*
X99865673Y-100055690D01*
X100938010Y-100055690D01*
X100953249Y-100051215D01*
X100954454Y-100049825D01*
X100956125Y-100042142D01*
X100956125Y-100037575D01*
X101464125Y-100037575D01*
X101468600Y-100052814D01*
X101469990Y-100054019D01*
X101477673Y-100055690D01*
X102550010Y-100055690D01*
X102565249Y-100051215D01*
X102566454Y-100049825D01*
X102568125Y-100042142D01*
X102568125Y-100041825D01*
X105608492Y-100041825D01*
X105628775Y-100247759D01*
X105630571Y-100253679D01*
X105630572Y-100253685D01*
X105673284Y-100394488D01*
X105688843Y-100445779D01*
X105786390Y-100628275D01*
X105917665Y-100788235D01*
X106077625Y-100919510D01*
X106260121Y-101017057D01*
X106286659Y-101025107D01*
X106452215Y-101075328D01*
X106452221Y-101075329D01*
X106458141Y-101077125D01*
X106531255Y-101084326D01*
X106609387Y-101092022D01*
X106609394Y-101092022D01*
X106612467Y-101092325D01*
X106715683Y-101092325D01*
X106718756Y-101092022D01*
X106718763Y-101092022D01*
X106823061Y-101081749D01*
X106870009Y-101077125D01*
X106870025Y-101077287D01*
X106916088Y-101077432D01*
X106954983Y-101085425D01*
X107017681Y-101118730D01*
X107052421Y-101180646D01*
X107048172Y-101251515D01*
X107000595Y-101312951D01*
X106787853Y-101457996D01*
X106594648Y-101637264D01*
X106591715Y-101640942D01*
X106591713Y-101640944D01*
X106433254Y-101839645D01*
X106433251Y-101839649D01*
X106430319Y-101843326D01*
X106427966Y-101847402D01*
X106427963Y-101847406D01*
X106377391Y-101935000D01*
X106298538Y-102071578D01*
X106296814Y-102075971D01*
X106206985Y-102304851D01*
X106202247Y-102316922D01*
X106201197Y-102321521D01*
X106201197Y-102321522D01*
X106165642Y-102477301D01*
X106143599Y-102573876D01*
X106143247Y-102578576D01*
X106143246Y-102578581D01*
X106125749Y-102812067D01*
X106123903Y-102836702D01*
X106124255Y-102841399D01*
X106142645Y-103086796D01*
X106143599Y-103099528D01*
X106144649Y-103104127D01*
X106144649Y-103104129D01*
X106186444Y-103287244D01*
X106202247Y-103356482D01*
X106203971Y-103360873D01*
X106203971Y-103360875D01*
X106214067Y-103386598D01*
X106298538Y-103601826D01*
X106340844Y-103675102D01*
X106413525Y-103800989D01*
X106430319Y-103830078D01*
X106433251Y-103833755D01*
X106433254Y-103833759D01*
X106576516Y-104013403D01*
X106594648Y-104036140D01*
X106787853Y-104215408D01*
X107005619Y-104363878D01*
X107009868Y-104365924D01*
X107009871Y-104365926D01*
X107138728Y-104427981D01*
X107243080Y-104478234D01*
X107247582Y-104479623D01*
X107247588Y-104479625D01*
X107391466Y-104524005D01*
X107494934Y-104555920D01*
X107631548Y-104576511D01*
X107670278Y-104582349D01*
X107734656Y-104612281D01*
X107772633Y-104672267D01*
X107772150Y-104743262D01*
X107733361Y-104802725D01*
X107717337Y-104814372D01*
X107573165Y-104902721D01*
X107380643Y-105067151D01*
X107216213Y-105259673D01*
X107083925Y-105475547D01*
X107082032Y-105480117D01*
X107082030Y-105480121D01*
X106996874Y-105685706D01*
X106987036Y-105709458D01*
X106985881Y-105714270D01*
X106948440Y-105870225D01*
X106927932Y-105955646D01*
X106908067Y-106208049D01*
X106927932Y-106460452D01*
X106929086Y-106465259D01*
X106929087Y-106465265D01*
X106966720Y-106622017D01*
X106987036Y-106706640D01*
X106988929Y-106711211D01*
X106988930Y-106711213D01*
X107073470Y-106915310D01*
X107083925Y-106940551D01*
X107216213Y-107156425D01*
X107380643Y-107348947D01*
X107573165Y-107513377D01*
X107789039Y-107645665D01*
X107793609Y-107647558D01*
X107793613Y-107647560D01*
X107914054Y-107697448D01*
X108022950Y-107742554D01*
X108107573Y-107762870D01*
X108264325Y-107800503D01*
X108264331Y-107800504D01*
X108269138Y-107801658D01*
X108521541Y-107821523D01*
X108773944Y-107801658D01*
X108778751Y-107800504D01*
X108778757Y-107800503D01*
X108935509Y-107762870D01*
X109020132Y-107742554D01*
X109129028Y-107697448D01*
X109249469Y-107647560D01*
X109249473Y-107647558D01*
X109254043Y-107645665D01*
X109458662Y-107520274D01*
X109527196Y-107501736D01*
X109594872Y-107523192D01*
X109631929Y-107561871D01*
X109750666Y-107755632D01*
X109915096Y-107948154D01*
X110107618Y-108112584D01*
X110323492Y-108244872D01*
X110328062Y-108246765D01*
X110328066Y-108246767D01*
X110552830Y-108339867D01*
X110557403Y-108341761D01*
X110642026Y-108362077D01*
X110798778Y-108399710D01*
X110798784Y-108399711D01*
X110803591Y-108400865D01*
X111055994Y-108420730D01*
X111308397Y-108400865D01*
X111313204Y-108399711D01*
X111313210Y-108399710D01*
X111469962Y-108362077D01*
X111554585Y-108341761D01*
X111559158Y-108339867D01*
X111783922Y-108246767D01*
X111783926Y-108246765D01*
X111788496Y-108244872D01*
X112004370Y-108112584D01*
X112196892Y-107948154D01*
X112361322Y-107755632D01*
X112422096Y-107656458D01*
X112474743Y-107608828D01*
X112544784Y-107597221D01*
X112611358Y-107626483D01*
X112611832Y-107626887D01*
X112747662Y-107742898D01*
X112747666Y-107742901D01*
X112751421Y-107746108D01*
X112873854Y-107821135D01*
X112959820Y-107873815D01*
X112967295Y-107878396D01*
X112971865Y-107880289D01*
X112971869Y-107880291D01*
X113196633Y-107973391D01*
X113201206Y-107975285D01*
X113285829Y-107995601D01*
X113442581Y-108033234D01*
X113442587Y-108033235D01*
X113447394Y-108034389D01*
X113699797Y-108054254D01*
X113952200Y-108034389D01*
X113957007Y-108033235D01*
X113957013Y-108033234D01*
X114113765Y-107995601D01*
X114198388Y-107975285D01*
X114202961Y-107973391D01*
X114427725Y-107880291D01*
X114427729Y-107880289D01*
X114432299Y-107878396D01*
X114436519Y-107875810D01*
X114436529Y-107875805D01*
X114624636Y-107760532D01*
X114693169Y-107741993D01*
X114756306Y-107760532D01*
X114860794Y-107824563D01*
X114860804Y-107824568D01*
X114865024Y-107827154D01*
X114869594Y-107829047D01*
X114869598Y-107829049D01*
X114988733Y-107878396D01*
X115098935Y-107924043D01*
X115183558Y-107944359D01*
X115340310Y-107981992D01*
X115340316Y-107981993D01*
X115345123Y-107983147D01*
X115597526Y-108003012D01*
X115849929Y-107983147D01*
X115854736Y-107981993D01*
X115854742Y-107981992D01*
X116011494Y-107944359D01*
X116096117Y-107924043D01*
X116206319Y-107878396D01*
X116325454Y-107829049D01*
X116325458Y-107829047D01*
X116330028Y-107827154D01*
X116545902Y-107694866D01*
X116738424Y-107530436D01*
X116902854Y-107337914D01*
X117035142Y-107122040D01*
X117037035Y-107117470D01*
X117037039Y-107117462D01*
X117047926Y-107091177D01*
X117092474Y-107035896D01*
X117098500Y-107031961D01*
X117185105Y-106978889D01*
X117293070Y-106912728D01*
X117485592Y-106748298D01*
X117650022Y-106555776D01*
X117782310Y-106339902D01*
X117827506Y-106230791D01*
X117877305Y-106110564D01*
X117877306Y-106110562D01*
X117879199Y-106105991D01*
X117914109Y-105960580D01*
X117937148Y-105864616D01*
X117937149Y-105864610D01*
X117938303Y-105859803D01*
X117958168Y-105607400D01*
X117938303Y-105354997D01*
X117926925Y-105307601D01*
X117880354Y-105113621D01*
X117879199Y-105108809D01*
X117869010Y-105084210D01*
X117784205Y-104879472D01*
X117784203Y-104879468D01*
X117782310Y-104874898D01*
X117650022Y-104659024D01*
X117485592Y-104466502D01*
X117293070Y-104302072D01*
X117077196Y-104169784D01*
X117072626Y-104167891D01*
X117072622Y-104167889D01*
X116847858Y-104074789D01*
X116847856Y-104074788D01*
X116843285Y-104072895D01*
X116747028Y-104049786D01*
X116601910Y-104014946D01*
X116601904Y-104014945D01*
X116597097Y-104013791D01*
X116344694Y-103993926D01*
X116092291Y-104013791D01*
X116087484Y-104014945D01*
X116087478Y-104014946D01*
X115942360Y-104049786D01*
X115846103Y-104072895D01*
X115841532Y-104074788D01*
X115841530Y-104074789D01*
X115616766Y-104167889D01*
X115616762Y-104167891D01*
X115612192Y-104169784D01*
X115396318Y-104302072D01*
X115203796Y-104466502D01*
X115039366Y-104659024D01*
X114907078Y-104874898D01*
X114905185Y-104879468D01*
X114905181Y-104879476D01*
X114894294Y-104905761D01*
X114849746Y-104961042D01*
X114843720Y-104964976D01*
X114672687Y-105069786D01*
X114604154Y-105088325D01*
X114541017Y-105069786D01*
X114436529Y-105005755D01*
X114436518Y-105005749D01*
X114432299Y-105003164D01*
X114427729Y-105001271D01*
X114427725Y-105001269D01*
X114202961Y-104908169D01*
X114202959Y-104908168D01*
X114198388Y-104906275D01*
X114113765Y-104885959D01*
X113957013Y-104848326D01*
X113957007Y-104848325D01*
X113952200Y-104847171D01*
X113699797Y-104827306D01*
X113447394Y-104847171D01*
X113442587Y-104848325D01*
X113442581Y-104848326D01*
X113285829Y-104885959D01*
X113201206Y-104906275D01*
X113196635Y-104908168D01*
X113196633Y-104908169D01*
X112971869Y-105001269D01*
X112971865Y-105001271D01*
X112967295Y-105003164D01*
X112751421Y-105135452D01*
X112558899Y-105299882D01*
X112394469Y-105492404D01*
X112335461Y-105588697D01*
X112333696Y-105591577D01*
X112281048Y-105639208D01*
X112211007Y-105650815D01*
X112144432Y-105621553D01*
X112133634Y-105612330D01*
X112018000Y-105513569D01*
X112008129Y-105505138D01*
X112008125Y-105505135D01*
X112004370Y-105501928D01*
X111788496Y-105369640D01*
X111783926Y-105367747D01*
X111783922Y-105367745D01*
X111559158Y-105274645D01*
X111559156Y-105274644D01*
X111554585Y-105272751D01*
X111469962Y-105252435D01*
X111313210Y-105214802D01*
X111313204Y-105214801D01*
X111308397Y-105213647D01*
X111055994Y-105193782D01*
X110803591Y-105213647D01*
X110798784Y-105214801D01*
X110798778Y-105214802D01*
X110642026Y-105252435D01*
X110557403Y-105272751D01*
X110552832Y-105274644D01*
X110552830Y-105274645D01*
X110328066Y-105367745D01*
X110328062Y-105367747D01*
X110323492Y-105369640D01*
X110172633Y-105462087D01*
X110118873Y-105495031D01*
X110050339Y-105513569D01*
X109982663Y-105492113D01*
X109945605Y-105453433D01*
X109923084Y-105416681D01*
X109826869Y-105259673D01*
X109662439Y-105067151D01*
X109469917Y-104902721D01*
X109254043Y-104770433D01*
X109249473Y-104768540D01*
X109249469Y-104768538D01*
X109024705Y-104675438D01*
X109024703Y-104675437D01*
X109020132Y-104673544D01*
X108775418Y-104614794D01*
X108775416Y-104614793D01*
X108773944Y-104614440D01*
X108774018Y-104614131D01*
X108712127Y-104584792D01*
X108674599Y-104524525D01*
X108675611Y-104453535D01*
X108714843Y-104394362D01*
X108741320Y-104377232D01*
X108764802Y-104365924D01*
X108764805Y-104365922D01*
X108769050Y-104363878D01*
X108772952Y-104361218D01*
X108915155Y-104264265D01*
X108986815Y-104215408D01*
X109180020Y-104036140D01*
X109198152Y-104013403D01*
X109341414Y-103833759D01*
X109341417Y-103833755D01*
X109344349Y-103830078D01*
X109361144Y-103800989D01*
X109433824Y-103675102D01*
X109476130Y-103601826D01*
X109560601Y-103386598D01*
X109570697Y-103360875D01*
X109570697Y-103360873D01*
X109572421Y-103356482D01*
X109588224Y-103287244D01*
X109630019Y-103104129D01*
X109630019Y-103104127D01*
X109631069Y-103099528D01*
X109632024Y-103086796D01*
X109650413Y-102841399D01*
X109650765Y-102836702D01*
X109648919Y-102812067D01*
X109631422Y-102578581D01*
X109631421Y-102578576D01*
X109631069Y-102573876D01*
X109621536Y-102532107D01*
X109603618Y-102453603D01*
X109607960Y-102382740D01*
X109649925Y-102325473D01*
X109716189Y-102299985D01*
X109785714Y-102314368D01*
X109831492Y-102355967D01*
X109981342Y-102582114D01*
X109983866Y-102585060D01*
X110180513Y-102814586D01*
X110192059Y-102828063D01*
X110194923Y-102830674D01*
X110194928Y-102830679D01*
X110275191Y-102903848D01*
X110431402Y-103046253D01*
X110695744Y-103233377D01*
X110699154Y-103235208D01*
X110699157Y-103235210D01*
X110977671Y-103384769D01*
X110977678Y-103384772D01*
X110981078Y-103386598D01*
X111139906Y-103448128D01*
X111257562Y-103493708D01*
X111283078Y-103503593D01*
X111330770Y-103515588D01*
X111593396Y-103581642D01*
X111593403Y-103581643D01*
X111597167Y-103582590D01*
X111918583Y-103622390D01*
X112161405Y-103622390D01*
X112174842Y-103621561D01*
X112399906Y-103607680D01*
X112399913Y-103607679D01*
X112403774Y-103607441D01*
X112722130Y-103547930D01*
X113030760Y-103449748D01*
X113082554Y-103425919D01*
X113321463Y-103316004D01*
X113321471Y-103316000D01*
X113324985Y-103314383D01*
X113328288Y-103312338D01*
X113597037Y-103145936D01*
X113597039Y-103145935D01*
X113600346Y-103143887D01*
X113603377Y-103141448D01*
X113849644Y-102943278D01*
X113849648Y-102943275D01*
X113852667Y-102940845D01*
X114078124Y-102708334D01*
X114082691Y-102702287D01*
X114119085Y-102654093D01*
X114273300Y-102449880D01*
X114295092Y-102412136D01*
X114351538Y-102314368D01*
X114435235Y-102169400D01*
X114474780Y-102075971D01*
X114537121Y-101928686D01*
X116104069Y-101928686D01*
X116105036Y-101934998D01*
X116105036Y-101935000D01*
X116133144Y-102118484D01*
X116134111Y-102124796D01*
X116203016Y-102310843D01*
X116307961Y-102479212D01*
X116444650Y-102623009D01*
X116449889Y-102626656D01*
X116449892Y-102626658D01*
X116592667Y-102726032D01*
X116607487Y-102736347D01*
X116789806Y-102814586D01*
X116796061Y-102815871D01*
X116796063Y-102815872D01*
X116830739Y-102822998D01*
X116922243Y-102841802D01*
X116956271Y-102854099D01*
X117046460Y-102902307D01*
X117087553Y-102924272D01*
X117087555Y-102924273D01*
X117093007Y-102927187D01*
X117144352Y-102942762D01*
X117285101Y-102985458D01*
X117285107Y-102985459D01*
X117291027Y-102987255D01*
X117364141Y-102994456D01*
X117442273Y-103002152D01*
X117442280Y-103002152D01*
X117445353Y-103002455D01*
X117548569Y-103002455D01*
X117551642Y-103002152D01*
X117551649Y-103002152D01*
X117629781Y-102994456D01*
X117702895Y-102987255D01*
X117708815Y-102985459D01*
X117708821Y-102985458D01*
X117858082Y-102940180D01*
X117900915Y-102927187D01*
X118083411Y-102829640D01*
X118243371Y-102698365D01*
X118374646Y-102538405D01*
X118472193Y-102355909D01*
X118512428Y-102223270D01*
X118530464Y-102163815D01*
X118530465Y-102163809D01*
X118532261Y-102157889D01*
X118552544Y-101951955D01*
X118532261Y-101746021D01*
X118530465Y-101740101D01*
X118530464Y-101740095D01*
X118487080Y-101597079D01*
X118472193Y-101548001D01*
X118374646Y-101365505D01*
X118243371Y-101205545D01*
X118083411Y-101074270D01*
X117900915Y-100976723D01*
X117804114Y-100947359D01*
X117708821Y-100918452D01*
X117708815Y-100918451D01*
X117702895Y-100916655D01*
X117629781Y-100909454D01*
X117551649Y-100901758D01*
X117551642Y-100901758D01*
X117548569Y-100901455D01*
X117445353Y-100901455D01*
X117442280Y-100901758D01*
X117442273Y-100901758D01*
X117350543Y-100910793D01*
X117291027Y-100916655D01*
X117291011Y-100916493D01*
X117244948Y-100916348D01*
X117203100Y-100907748D01*
X117188799Y-100904809D01*
X117188797Y-100904809D01*
X117182540Y-100903523D01*
X117033868Y-100903523D01*
X116885962Y-100918564D01*
X116696663Y-100977956D01*
X116523195Y-101074239D01*
X116372659Y-101203470D01*
X116368750Y-101208520D01*
X116368749Y-101208521D01*
X116255129Y-101355305D01*
X116255127Y-101355309D01*
X116251219Y-101360357D01*
X116163846Y-101538479D01*
X116162245Y-101544661D01*
X116162245Y-101544662D01*
X116117618Y-101717023D01*
X116114117Y-101730543D01*
X116113794Y-101736917D01*
X116113793Y-101736922D01*
X116109216Y-101827192D01*
X116104069Y-101928686D01*
X114537121Y-101928686D01*
X114559962Y-101874722D01*
X114559965Y-101874714D01*
X114561475Y-101871146D01*
X114650107Y-101559639D01*
X114652761Y-101542546D01*
X114699190Y-101243440D01*
X114699786Y-101239601D01*
X114699906Y-101235715D01*
X114709640Y-100919758D01*
X114709640Y-100919752D01*
X114709759Y-100915884D01*
X114679876Y-100593395D01*
X114636315Y-100394488D01*
X114611420Y-100280812D01*
X114611419Y-100280809D01*
X114610590Y-100277023D01*
X114584643Y-100203390D01*
X114504240Y-99975223D01*
X114504238Y-99975219D01*
X114502950Y-99971563D01*
X114472157Y-99909721D01*
X114360316Y-99685115D01*
X114360315Y-99685113D01*
X114358588Y-99681645D01*
X114185116Y-99419848D01*
X114181837Y-99414899D01*
X114181831Y-99414891D01*
X114179694Y-99411666D01*
X114103516Y-99322751D01*
X113971504Y-99168666D01*
X113971500Y-99168662D01*
X113968977Y-99165717D01*
X113966113Y-99163106D01*
X113966108Y-99163101D01*
X113758733Y-98974054D01*
X113729634Y-98947527D01*
X113465292Y-98760403D01*
X113461879Y-98758570D01*
X113183365Y-98609011D01*
X113183358Y-98609008D01*
X113179958Y-98607182D01*
X112975336Y-98527911D01*
X112881580Y-98491590D01*
X112881578Y-98491589D01*
X112877958Y-98490187D01*
X112701676Y-98445850D01*
X112567640Y-98412138D01*
X112567633Y-98412137D01*
X112563869Y-98411190D01*
X112242453Y-98371390D01*
X111999631Y-98371390D01*
X111986194Y-98372219D01*
X111761130Y-98386100D01*
X111761123Y-98386101D01*
X111757262Y-98386339D01*
X111438906Y-98445850D01*
X111130276Y-98544032D01*
X111126754Y-98545652D01*
X111126755Y-98545652D01*
X110839573Y-98677776D01*
X110839565Y-98677780D01*
X110836051Y-98679397D01*
X110832750Y-98681441D01*
X110832748Y-98681442D01*
X110596782Y-98827546D01*
X110560690Y-98849893D01*
X110557659Y-98852332D01*
X110341855Y-99025989D01*
X110308369Y-99052935D01*
X110082912Y-99285446D01*
X110080577Y-99288538D01*
X110075384Y-99295415D01*
X109887736Y-99543900D01*
X109885795Y-99547262D01*
X109885793Y-99547265D01*
X109858858Y-99593918D01*
X109725801Y-99824380D01*
X109717648Y-99843643D01*
X109601074Y-100119058D01*
X109601071Y-100119066D01*
X109599561Y-100122634D01*
X109510929Y-100434141D01*
X109510334Y-100437975D01*
X109510333Y-100437979D01*
X109490819Y-100563690D01*
X109461250Y-100754179D01*
X109461130Y-100758060D01*
X109461130Y-100758065D01*
X109451479Y-101071354D01*
X109451277Y-101077896D01*
X109481160Y-101400385D01*
X109512757Y-101544662D01*
X109550446Y-101716757D01*
X109549229Y-101717023D01*
X109548670Y-101782758D01*
X109509780Y-101842156D01*
X109444950Y-101871098D01*
X109374765Y-101860397D01*
X109329569Y-101824793D01*
X109296048Y-101782758D01*
X109210705Y-101675742D01*
X109182955Y-101640944D01*
X109182953Y-101640942D01*
X109180020Y-101637264D01*
X108986815Y-101457996D01*
X108780212Y-101317136D01*
X108772946Y-101312182D01*
X108772944Y-101312181D01*
X108769050Y-101309526D01*
X108615780Y-101235715D01*
X108535837Y-101197216D01*
X108535835Y-101197215D01*
X108531588Y-101195170D01*
X108279734Y-101117484D01*
X108275084Y-101116783D01*
X108275079Y-101116782D01*
X108163757Y-101100003D01*
X108019115Y-101078202D01*
X107793233Y-101078202D01*
X107725112Y-101058200D01*
X107678619Y-101004544D01*
X107668515Y-100934270D01*
X107698009Y-100869690D01*
X107711160Y-100856599D01*
X107737452Y-100834027D01*
X107788377Y-100790310D01*
X107792287Y-100785259D01*
X107905907Y-100638475D01*
X107905909Y-100638471D01*
X107909817Y-100633423D01*
X107997190Y-100455301D01*
X107998791Y-100449118D01*
X108045319Y-100269418D01*
X108045320Y-100269414D01*
X108046919Y-100263237D01*
X108047242Y-100256863D01*
X108047243Y-100256858D01*
X108054946Y-100104940D01*
X108056967Y-100065094D01*
X108055527Y-100055690D01*
X108027892Y-99875296D01*
X108027892Y-99875295D01*
X108026925Y-99868984D01*
X107958020Y-99682937D01*
X107853075Y-99514568D01*
X107716386Y-99370771D01*
X107711147Y-99367124D01*
X107711144Y-99367122D01*
X107558796Y-99261085D01*
X107553549Y-99257433D01*
X107371230Y-99179194D01*
X107364975Y-99177909D01*
X107364973Y-99177908D01*
X107305649Y-99165717D01*
X107238793Y-99151978D01*
X107204765Y-99139681D01*
X107099156Y-99083231D01*
X107073483Y-99069508D01*
X107073481Y-99069507D01*
X107068029Y-99066593D01*
X106979475Y-99039731D01*
X106875935Y-99008322D01*
X106875929Y-99008321D01*
X106870009Y-99006525D01*
X106796895Y-98999324D01*
X106718763Y-98991628D01*
X106718756Y-98991628D01*
X106715683Y-98991325D01*
X106612467Y-98991325D01*
X106609394Y-98991628D01*
X106609387Y-98991628D01*
X106531255Y-98999324D01*
X106458141Y-99006525D01*
X106452221Y-99008321D01*
X106452215Y-99008322D01*
X106309199Y-99051706D01*
X106260121Y-99066593D01*
X106077625Y-99164140D01*
X105917665Y-99295415D01*
X105786390Y-99455375D01*
X105688843Y-99637871D01*
X105676545Y-99678412D01*
X105630572Y-99829965D01*
X105630571Y-99829971D01*
X105628775Y-99835891D01*
X105608492Y-100041825D01*
X102568125Y-100041825D01*
X102568125Y-99414467D01*
X102567765Y-99407752D01*
X102562463Y-99358433D01*
X102558866Y-99343212D01*
X102513720Y-99222170D01*
X102505171Y-99206514D01*
X102428427Y-99103997D01*
X102415818Y-99091388D01*
X102313301Y-99014644D01*
X102297645Y-99006095D01*
X102176603Y-98960949D01*
X102161382Y-98957352D01*
X102112063Y-98952050D01*
X102105348Y-98951690D01*
X101482240Y-98951690D01*
X101467001Y-98956165D01*
X101465796Y-98957555D01*
X101464125Y-98965238D01*
X101464125Y-100037575D01*
X100956125Y-100037575D01*
X100956125Y-98969805D01*
X100951650Y-98954566D01*
X100950260Y-98953361D01*
X100942577Y-98951690D01*
X100314902Y-98951690D01*
X100308187Y-98952050D01*
X100258868Y-98957352D01*
X100243647Y-98960949D01*
X100122605Y-99006095D01*
X100106949Y-99014644D01*
X100004432Y-99091388D01*
X99991823Y-99103997D01*
X99915079Y-99206514D01*
X99906530Y-99222170D01*
X99861384Y-99343212D01*
X99857787Y-99358433D01*
X99852485Y-99407752D01*
X99852125Y-99414467D01*
X99852125Y-100037575D01*
X97399745Y-100037575D01*
X97549713Y-99914500D01*
X97680988Y-99754540D01*
X97778535Y-99572044D01*
X97826204Y-99414899D01*
X97836806Y-99379950D01*
X97836807Y-99379944D01*
X97838603Y-99374024D01*
X97858886Y-99168090D01*
X97838603Y-98962156D01*
X97836807Y-98956236D01*
X97836806Y-98956230D01*
X97793422Y-98813214D01*
X97778535Y-98764136D01*
X97680988Y-98581640D01*
X97549713Y-98421680D01*
X97389753Y-98290405D01*
X97207257Y-98192858D01*
X97158179Y-98177971D01*
X97015163Y-98134587D01*
X97015157Y-98134586D01*
X97009237Y-98132790D01*
X96936123Y-98125589D01*
X96857991Y-98117893D01*
X96857984Y-98117893D01*
X96854911Y-98117590D01*
X96751695Y-98117590D01*
X96748622Y-98117893D01*
X96748615Y-98117893D01*
X96670483Y-98125589D01*
X96597369Y-98132790D01*
X96591449Y-98134586D01*
X96591443Y-98134587D01*
X96418116Y-98187165D01*
X96381541Y-98192590D01*
X96333830Y-98192590D01*
X96185924Y-98207631D01*
X95996625Y-98267023D01*
X95823157Y-98363306D01*
X95818312Y-98367465D01*
X95818311Y-98367466D01*
X95796605Y-98386100D01*
X95672621Y-98492537D01*
X95668712Y-98497587D01*
X95668711Y-98497588D01*
X95555091Y-98644372D01*
X95555089Y-98644376D01*
X95551181Y-98649424D01*
X95463808Y-98827546D01*
X95462207Y-98833728D01*
X95462207Y-98833729D01*
X95417002Y-99008322D01*
X95414079Y-99019610D01*
X95413756Y-99025984D01*
X95413755Y-99025989D01*
X95410657Y-99087084D01*
X95404031Y-99217753D01*
X93928519Y-99217753D01*
X93932425Y-99090958D01*
X93932425Y-99090952D01*
X93932544Y-99087084D01*
X93902661Y-98764595D01*
X93866966Y-98601605D01*
X93834205Y-98452012D01*
X93834204Y-98452009D01*
X93833375Y-98448223D01*
X93804917Y-98367466D01*
X93727025Y-98146423D01*
X93727023Y-98146419D01*
X93725735Y-98142763D01*
X93713352Y-98117893D01*
X93583101Y-97856315D01*
X93583100Y-97856313D01*
X93581373Y-97852845D01*
X93488045Y-97711999D01*
X93404622Y-97586099D01*
X93404616Y-97586091D01*
X93402479Y-97582866D01*
X93302288Y-97465923D01*
X93194289Y-97339866D01*
X93194285Y-97339862D01*
X93191762Y-97336917D01*
X93188898Y-97334306D01*
X93188893Y-97334301D01*
X93147960Y-97296986D01*
X110701547Y-97296986D01*
X110705392Y-97310650D01*
X110705652Y-97315868D01*
X110706855Y-97323224D01*
X110708270Y-97328254D01*
X110708978Y-97342435D01*
X110715770Y-97354907D01*
X110717182Y-97359925D01*
X110719996Y-97366842D01*
X110722493Y-97371426D01*
X110726337Y-97385090D01*
X110735730Y-97395734D01*
X110738224Y-97400314D01*
X110742513Y-97406439D01*
X110745961Y-97410346D01*
X110752751Y-97422814D01*
X110764276Y-97431100D01*
X110767737Y-97435022D01*
X110773261Y-97440020D01*
X110777503Y-97443070D01*
X110786897Y-97453715D01*
X110799979Y-97459229D01*
X110804218Y-97462277D01*
X110810720Y-97465923D01*
X110815535Y-97467953D01*
X110827064Y-97476242D01*
X110917199Y-97492136D01*
X110917204Y-97492137D01*
X114172115Y-98066066D01*
X114439686Y-98113246D01*
X114439687Y-98113246D01*
X114462507Y-98117270D01*
X114476171Y-98113425D01*
X114481389Y-98113165D01*
X114488745Y-98111962D01*
X114493775Y-98110547D01*
X114507956Y-98109839D01*
X114518884Y-98103888D01*
X116383885Y-98103888D01*
X116384575Y-98110453D01*
X116394990Y-98209542D01*
X116403847Y-98293816D01*
X116462862Y-98475444D01*
X116558349Y-98640832D01*
X116562767Y-98645739D01*
X116562768Y-98645740D01*
X116673257Y-98768450D01*
X116686136Y-98782754D01*
X116840637Y-98895006D01*
X116846665Y-98897690D01*
X116846667Y-98897691D01*
X116978003Y-98956165D01*
X117015101Y-98972682D01*
X117108501Y-98992535D01*
X117195445Y-99011016D01*
X117195450Y-99011016D01*
X117201902Y-99012388D01*
X117392876Y-99012388D01*
X117399328Y-99011016D01*
X117399333Y-99011016D01*
X117486277Y-98992535D01*
X117579677Y-98972682D01*
X117616775Y-98956165D01*
X117748111Y-98897691D01*
X117748113Y-98897690D01*
X117754141Y-98895006D01*
X117908642Y-98782754D01*
X117921521Y-98768450D01*
X118032010Y-98645740D01*
X118032011Y-98645739D01*
X118036429Y-98640832D01*
X118131916Y-98475444D01*
X118190931Y-98293816D01*
X118199789Y-98209542D01*
X118210203Y-98110453D01*
X118210893Y-98103888D01*
X118203329Y-98031920D01*
X118191621Y-97920523D01*
X118191621Y-97920521D01*
X118190931Y-97913960D01*
X118131916Y-97732332D01*
X118036429Y-97566944D01*
X117945470Y-97465923D01*
X117913064Y-97429933D01*
X117913063Y-97429932D01*
X117908642Y-97425022D01*
X117768530Y-97323224D01*
X117759483Y-97316651D01*
X117759482Y-97316650D01*
X117754141Y-97312770D01*
X117748113Y-97310086D01*
X117748111Y-97310085D01*
X117585708Y-97237779D01*
X117585707Y-97237779D01*
X117579677Y-97235094D01*
X117461902Y-97210060D01*
X117399332Y-97196760D01*
X117399329Y-97196760D01*
X117392876Y-97195388D01*
X117386273Y-97195388D01*
X117382028Y-97194942D01*
X117316371Y-97167931D01*
X117315858Y-97167196D01*
X117262636Y-97193498D01*
X117240897Y-97195388D01*
X117201902Y-97195388D01*
X117195450Y-97196760D01*
X117195445Y-97196760D01*
X117108502Y-97215241D01*
X117015101Y-97235094D01*
X117009071Y-97237779D01*
X117009070Y-97237779D01*
X116846667Y-97310085D01*
X116846665Y-97310086D01*
X116840637Y-97312770D01*
X116835296Y-97316650D01*
X116835295Y-97316651D01*
X116826248Y-97323224D01*
X116686136Y-97425022D01*
X116681715Y-97429932D01*
X116681714Y-97429933D01*
X116649309Y-97465923D01*
X116558349Y-97566944D01*
X116462862Y-97732332D01*
X116403847Y-97913960D01*
X116403157Y-97920521D01*
X116403157Y-97920523D01*
X116391449Y-98031920D01*
X116383885Y-98103888D01*
X114518884Y-98103888D01*
X114520428Y-98103047D01*
X114525446Y-98101635D01*
X114532363Y-98098821D01*
X114536947Y-98096324D01*
X114550611Y-98092480D01*
X114561255Y-98083087D01*
X114565835Y-98080593D01*
X114571960Y-98076304D01*
X114575867Y-98072856D01*
X114588335Y-98066066D01*
X114596621Y-98054541D01*
X114600543Y-98051080D01*
X114605541Y-98045556D01*
X114608591Y-98041314D01*
X114619236Y-98031920D01*
X114624750Y-98018838D01*
X114627798Y-98014599D01*
X114631443Y-98008099D01*
X114633473Y-98003283D01*
X114641763Y-97991753D01*
X114657656Y-97901618D01*
X114968668Y-96137789D01*
X116505512Y-96137789D01*
X116525911Y-96318836D01*
X116586085Y-96490804D01*
X116683017Y-96645070D01*
X116811847Y-96773900D01*
X116966113Y-96870832D01*
X117138081Y-96931006D01*
X117145108Y-96931798D01*
X117145109Y-96931798D01*
X117255004Y-96944180D01*
X117320457Y-96971684D01*
X117320572Y-96971851D01*
X117372526Y-96945688D01*
X117381088Y-96944424D01*
X117493148Y-96931798D01*
X117493150Y-96931798D01*
X117500175Y-96931006D01*
X117672143Y-96870832D01*
X117826409Y-96773900D01*
X117955239Y-96645070D01*
X118052171Y-96490804D01*
X118112345Y-96318836D01*
X118132744Y-96137789D01*
X118112345Y-95956742D01*
X118052171Y-95784774D01*
X118003425Y-95707195D01*
X117959006Y-95636503D01*
X117955239Y-95630508D01*
X117826409Y-95501678D01*
X117672143Y-95404746D01*
X117500175Y-95344572D01*
X117493148Y-95343780D01*
X117493147Y-95343780D01*
X117326157Y-95324965D01*
X117319128Y-95324173D01*
X117312099Y-95324965D01*
X117145109Y-95343780D01*
X117145108Y-95343780D01*
X117138081Y-95344572D01*
X116966113Y-95404746D01*
X116811847Y-95501678D01*
X116683017Y-95630508D01*
X116679250Y-95636503D01*
X116634831Y-95707195D01*
X116586085Y-95784774D01*
X116525911Y-95956742D01*
X116505512Y-96137789D01*
X114968668Y-96137789D01*
X115191943Y-94871535D01*
X115191943Y-94871531D01*
X115195966Y-94848714D01*
X115192121Y-94835047D01*
X115191860Y-94829829D01*
X115190657Y-94822471D01*
X115189244Y-94817447D01*
X115188536Y-94803265D01*
X115181746Y-94790796D01*
X115180333Y-94785774D01*
X115177520Y-94778861D01*
X115175022Y-94774273D01*
X115171177Y-94760610D01*
X115161784Y-94749966D01*
X115159285Y-94745378D01*
X115155008Y-94739270D01*
X115151553Y-94735355D01*
X115144763Y-94722886D01*
X115133237Y-94714599D01*
X115129785Y-94710687D01*
X115124247Y-94705676D01*
X115120011Y-94702630D01*
X115110616Y-94691985D01*
X115097536Y-94686471D01*
X115093302Y-94683427D01*
X115086779Y-94679769D01*
X115081975Y-94677744D01*
X115070450Y-94669458D01*
X115056474Y-94666994D01*
X115056473Y-94666993D01*
X114980315Y-94653564D01*
X114980310Y-94653563D01*
X111457828Y-94032454D01*
X111457827Y-94032454D01*
X111435007Y-94028430D01*
X111421343Y-94032275D01*
X111416125Y-94032535D01*
X111408769Y-94033738D01*
X111403739Y-94035153D01*
X111389558Y-94035861D01*
X111377086Y-94042653D01*
X111372068Y-94044065D01*
X111365151Y-94046879D01*
X111360567Y-94049376D01*
X111346903Y-94053220D01*
X111336259Y-94062613D01*
X111331679Y-94065107D01*
X111325554Y-94069396D01*
X111321647Y-94072844D01*
X111309179Y-94079634D01*
X111300893Y-94091159D01*
X111296971Y-94094620D01*
X111291973Y-94100144D01*
X111288923Y-94104386D01*
X111278278Y-94113780D01*
X111272764Y-94126862D01*
X111269716Y-94131101D01*
X111266070Y-94137603D01*
X111264040Y-94142418D01*
X111255751Y-94153947D01*
X111239857Y-94244082D01*
X111239857Y-94244084D01*
X110706324Y-97269893D01*
X110701547Y-97296986D01*
X93147960Y-97296986D01*
X93005587Y-97167196D01*
X92952419Y-97118727D01*
X92688077Y-96931603D01*
X92684664Y-96929770D01*
X92406150Y-96780211D01*
X92406143Y-96780208D01*
X92402743Y-96778382D01*
X92100743Y-96661387D01*
X91924461Y-96617050D01*
X91790425Y-96583338D01*
X91790418Y-96583337D01*
X91786654Y-96582390D01*
X91465238Y-96542590D01*
X91222416Y-96542590D01*
X91208979Y-96543419D01*
X90983915Y-96557300D01*
X90983908Y-96557301D01*
X90980047Y-96557539D01*
X90661691Y-96617050D01*
X90353061Y-96715232D01*
X90349539Y-96716852D01*
X90349540Y-96716852D01*
X90062358Y-96848976D01*
X90062350Y-96848980D01*
X90058836Y-96850597D01*
X90055535Y-96852641D01*
X90055533Y-96852642D01*
X89863004Y-96971851D01*
X89783475Y-97021093D01*
X89780444Y-97023532D01*
X89569227Y-97193498D01*
X89531154Y-97224135D01*
X89305697Y-97456646D01*
X89110521Y-97715100D01*
X88948586Y-97995580D01*
X88947073Y-97999155D01*
X88823859Y-98290258D01*
X88823856Y-98290266D01*
X88822346Y-98293834D01*
X88733714Y-98605341D01*
X88733119Y-98609175D01*
X88733118Y-98609179D01*
X88709911Y-98758681D01*
X88684035Y-98925379D01*
X88683915Y-98929260D01*
X88683915Y-98929265D01*
X88674892Y-99222170D01*
X88674062Y-99249096D01*
X88703945Y-99571585D01*
X88704774Y-99575370D01*
X88770587Y-99875882D01*
X88773231Y-99887957D01*
X88774521Y-99891617D01*
X88774521Y-99891618D01*
X88869183Y-100160248D01*
X88880871Y-100193417D01*
X88882596Y-100196881D01*
X88882598Y-100196886D01*
X88946189Y-100324593D01*
X88958648Y-100394488D01*
X88931341Y-100460023D01*
X88872938Y-100500391D01*
X88801981Y-100502776D01*
X88747696Y-100473121D01*
X88596239Y-100332590D01*
X88592784Y-100329384D01*
X88464020Y-100241594D01*
X88378915Y-100183570D01*
X88378913Y-100183569D01*
X88375019Y-100180914D01*
X88217258Y-100104940D01*
X88141806Y-100068604D01*
X88141804Y-100068603D01*
X88137557Y-100066558D01*
X87885703Y-99988872D01*
X87881053Y-99988171D01*
X87881048Y-99988170D01*
X87747850Y-99968094D01*
X87625084Y-99949590D01*
X87361522Y-99949590D01*
X87171367Y-99978251D01*
X87105566Y-99988169D01*
X87105564Y-99988169D01*
X87103935Y-99988415D01*
X87103934Y-99988415D01*
X87100903Y-99988872D01*
X87100805Y-99988224D01*
X87033507Y-99984105D01*
X86976237Y-99942144D01*
X86950745Y-99875882D01*
X86965123Y-99806356D01*
X86976687Y-99788478D01*
X87051511Y-99691813D01*
X87051513Y-99691810D01*
X87055425Y-99686756D01*
X87142798Y-99508634D01*
X87157826Y-99450594D01*
X87190927Y-99322751D01*
X87190928Y-99322747D01*
X87192527Y-99316570D01*
X87192850Y-99310196D01*
X87192851Y-99310191D01*
X87200027Y-99168666D01*
X87202575Y-99118427D01*
X87200365Y-99103997D01*
X87173500Y-98928629D01*
X87173500Y-98928628D01*
X87172533Y-98922317D01*
X87103628Y-98736270D01*
X86998683Y-98567901D01*
X86861994Y-98424104D01*
X86856755Y-98420457D01*
X86856752Y-98420455D01*
X86704404Y-98314418D01*
X86699157Y-98310766D01*
X86516838Y-98232527D01*
X86510580Y-98231241D01*
X86510577Y-98231240D01*
X86419670Y-98212558D01*
X86322502Y-98192590D01*
X86225065Y-98192590D01*
X86188490Y-98187165D01*
X86015163Y-98134587D01*
X86015157Y-98134586D01*
X86009237Y-98132790D01*
X85936123Y-98125589D01*
X85857991Y-98117893D01*
X85857984Y-98117893D01*
X85854911Y-98117590D01*
X85751695Y-98117590D01*
X85748622Y-98117893D01*
X85748615Y-98117893D01*
X85670483Y-98125589D01*
X85597369Y-98132790D01*
X85591449Y-98134586D01*
X85591443Y-98134587D01*
X85448427Y-98177971D01*
X85399349Y-98192858D01*
X85216853Y-98290405D01*
X85056893Y-98421680D01*
X84925618Y-98581640D01*
X84828071Y-98764136D01*
X84813184Y-98813214D01*
X84769800Y-98956230D01*
X84769799Y-98956236D01*
X84768003Y-98962156D01*
X84747720Y-99168090D01*
X80643942Y-99168090D01*
X79778074Y-98156838D01*
X78889216Y-97118727D01*
X77729137Y-95763854D01*
X89302816Y-95763854D01*
X89308977Y-95776646D01*
X89310140Y-95781742D01*
X89312600Y-95788772D01*
X89314867Y-95793479D01*
X89318026Y-95807322D01*
X89326878Y-95818422D01*
X89329144Y-95823127D01*
X89333111Y-95829441D01*
X89336370Y-95833527D01*
X89342528Y-95846315D01*
X89353625Y-95855165D01*
X89356873Y-95859238D01*
X89362169Y-95864534D01*
X89366242Y-95867782D01*
X89375092Y-95878879D01*
X89387880Y-95885037D01*
X89391966Y-95888296D01*
X89398280Y-95892263D01*
X89402985Y-95894529D01*
X89414085Y-95903381D01*
X89427928Y-95906540D01*
X89432635Y-95908807D01*
X89439665Y-95911267D01*
X89444761Y-95912430D01*
X89457553Y-95918591D01*
X93149079Y-95918591D01*
X93161871Y-95912430D01*
X93166967Y-95911267D01*
X93173997Y-95908807D01*
X93178704Y-95906540D01*
X93192547Y-95903381D01*
X93203647Y-95894529D01*
X93208352Y-95892263D01*
X93214666Y-95888296D01*
X93218752Y-95885037D01*
X93231540Y-95878879D01*
X93240390Y-95867782D01*
X93244463Y-95864534D01*
X93249759Y-95859238D01*
X93253007Y-95855165D01*
X93264104Y-95846315D01*
X93270262Y-95833527D01*
X93273521Y-95829441D01*
X93277488Y-95823127D01*
X93279754Y-95818422D01*
X93288606Y-95807322D01*
X93291765Y-95793479D01*
X93294032Y-95788772D01*
X93296492Y-95781742D01*
X93297655Y-95776646D01*
X93303816Y-95763854D01*
X93303816Y-95057584D01*
X107151948Y-95057584D01*
X107186170Y-95211951D01*
X107259180Y-95352201D01*
X107264757Y-95358287D01*
X107264759Y-95358290D01*
X107277248Y-95371919D01*
X107366001Y-95468775D01*
X107372960Y-95473208D01*
X107372963Y-95473211D01*
X107425509Y-95506686D01*
X107499353Y-95553730D01*
X107612287Y-95589337D01*
X108280697Y-95707195D01*
X108284809Y-95707375D01*
X108284813Y-95707375D01*
X108390749Y-95712000D01*
X108390750Y-95712000D01*
X108398998Y-95712360D01*
X108407058Y-95710573D01*
X108407060Y-95710573D01*
X108493343Y-95691444D01*
X108553365Y-95678138D01*
X108560692Y-95674324D01*
X108686288Y-95608942D01*
X108686290Y-95608941D01*
X108693614Y-95605128D01*
X108810189Y-95498307D01*
X108895144Y-95364955D01*
X108917375Y-95294446D01*
X108940207Y-95222032D01*
X108940208Y-95222028D01*
X108942689Y-95214158D01*
X108949586Y-95056194D01*
X108915363Y-94901827D01*
X108842354Y-94761577D01*
X108735533Y-94645003D01*
X108602180Y-94560048D01*
X108489247Y-94524441D01*
X107820837Y-94406583D01*
X107816725Y-94406403D01*
X107816721Y-94406403D01*
X107710785Y-94401778D01*
X107710784Y-94401778D01*
X107702536Y-94401418D01*
X107694476Y-94403205D01*
X107694474Y-94403205D01*
X107608191Y-94422334D01*
X107548169Y-94435640D01*
X107407919Y-94508650D01*
X107401833Y-94514227D01*
X107401830Y-94514229D01*
X107351828Y-94560048D01*
X107291345Y-94615471D01*
X107286912Y-94622430D01*
X107286909Y-94622433D01*
X107257352Y-94668829D01*
X107206390Y-94748823D01*
X107203908Y-94756696D01*
X107161327Y-94891746D01*
X107161326Y-94891750D01*
X107158845Y-94899620D01*
X107156361Y-94956509D01*
X107152361Y-95048134D01*
X107151948Y-95057584D01*
X93303816Y-95057584D01*
X93303816Y-93480395D01*
X94836061Y-93480395D01*
X94836751Y-93486960D01*
X94853717Y-93648378D01*
X94856023Y-93670323D01*
X94915038Y-93851951D01*
X94918341Y-93857673D01*
X94918342Y-93857674D01*
X94920452Y-93861328D01*
X95010525Y-94017339D01*
X95014943Y-94022246D01*
X95014944Y-94022247D01*
X95080109Y-94094620D01*
X95138312Y-94159261D01*
X95292813Y-94271513D01*
X95298841Y-94274197D01*
X95298843Y-94274198D01*
X95461246Y-94346504D01*
X95467277Y-94349189D01*
X95546893Y-94366112D01*
X95647621Y-94387523D01*
X95647626Y-94387523D01*
X95654078Y-94388895D01*
X95845052Y-94388895D01*
X95851504Y-94387523D01*
X95851509Y-94387523D01*
X95952237Y-94366112D01*
X96031853Y-94349189D01*
X96037884Y-94346504D01*
X96200287Y-94274198D01*
X96200289Y-94274197D01*
X96206317Y-94271513D01*
X96360818Y-94159261D01*
X96419021Y-94094620D01*
X96484186Y-94022247D01*
X96484187Y-94022246D01*
X96488605Y-94017339D01*
X96578678Y-93861328D01*
X96580788Y-93857674D01*
X96580789Y-93857673D01*
X96584092Y-93851951D01*
X96643107Y-93670323D01*
X96645414Y-93648378D01*
X96662379Y-93486960D01*
X96663069Y-93480395D01*
X96658425Y-93436206D01*
X96643797Y-93297030D01*
X96643797Y-93297028D01*
X96643107Y-93290467D01*
X96584092Y-93108839D01*
X96488605Y-92943451D01*
X96360818Y-92801529D01*
X96206317Y-92689277D01*
X96200289Y-92686593D01*
X96200287Y-92686592D01*
X96037884Y-92614286D01*
X96037883Y-92614286D01*
X96031853Y-92611601D01*
X95913890Y-92586527D01*
X95851509Y-92573267D01*
X95851504Y-92573267D01*
X95845052Y-92571895D01*
X95654078Y-92571895D01*
X95647626Y-92573267D01*
X95647621Y-92573267D01*
X95585240Y-92586527D01*
X95467277Y-92611601D01*
X95461247Y-92614286D01*
X95461246Y-92614286D01*
X95298843Y-92686592D01*
X95298841Y-92686593D01*
X95292813Y-92689277D01*
X95138312Y-92801529D01*
X95010525Y-92943451D01*
X94915038Y-93108839D01*
X94856023Y-93290467D01*
X94855333Y-93297028D01*
X94855333Y-93297030D01*
X94840705Y-93436206D01*
X94836061Y-93480395D01*
X93303816Y-93480395D01*
X93303816Y-92572328D01*
X93297655Y-92559536D01*
X93296492Y-92554440D01*
X93294032Y-92547410D01*
X93291765Y-92542703D01*
X93288606Y-92528860D01*
X93279754Y-92517760D01*
X93277488Y-92513055D01*
X93273521Y-92506741D01*
X93270262Y-92502655D01*
X93264104Y-92489867D01*
X93253007Y-92481017D01*
X93249759Y-92476944D01*
X93244463Y-92471648D01*
X93240390Y-92468400D01*
X93231540Y-92457303D01*
X93218752Y-92451145D01*
X93214666Y-92447886D01*
X93208352Y-92443919D01*
X93203647Y-92441653D01*
X93192547Y-92432801D01*
X93178704Y-92429642D01*
X93173997Y-92427375D01*
X93166967Y-92424915D01*
X93161871Y-92423752D01*
X93149079Y-92417591D01*
X89457553Y-92417591D01*
X89444761Y-92423752D01*
X89439665Y-92424915D01*
X89432635Y-92427375D01*
X89427928Y-92429642D01*
X89414085Y-92432801D01*
X89402985Y-92441653D01*
X89398280Y-92443919D01*
X89391966Y-92447886D01*
X89387880Y-92451145D01*
X89375092Y-92457303D01*
X89366242Y-92468400D01*
X89362169Y-92471648D01*
X89356873Y-92476944D01*
X89353625Y-92481017D01*
X89342528Y-92489867D01*
X89336370Y-92502655D01*
X89333111Y-92506741D01*
X89329144Y-92513055D01*
X89326878Y-92517760D01*
X89318026Y-92528860D01*
X89314867Y-92542703D01*
X89312600Y-92547410D01*
X89310140Y-92554440D01*
X89308977Y-92559536D01*
X89302816Y-92572328D01*
X89302816Y-95763854D01*
X77729137Y-95763854D01*
X75387958Y-93029556D01*
X75387952Y-93029549D01*
X75387950Y-93029548D01*
X75387945Y-93029542D01*
X73676269Y-91030477D01*
X72203316Y-89310215D01*
X72203308Y-89310203D01*
X72203302Y-89310185D01*
X72184878Y-89288671D01*
X72177369Y-89279902D01*
X72177368Y-89279901D01*
X72177361Y-89279893D01*
X72177360Y-89279894D01*
X72177336Y-89279873D01*
X72162854Y-89262959D01*
X72162851Y-89262956D01*
X72162679Y-89262755D01*
X72162608Y-89262703D01*
X72162586Y-89262680D01*
X72117189Y-89209724D01*
X72117184Y-89209719D01*
X72113875Y-89205859D01*
X71964752Y-89080129D01*
X71797292Y-88980115D01*
X71792539Y-88978237D01*
X71792537Y-88978236D01*
X71620643Y-88910318D01*
X71620637Y-88910316D01*
X71615886Y-88908439D01*
X71610894Y-88907353D01*
X71610890Y-88907352D01*
X71430283Y-88868068D01*
X71430280Y-88868068D01*
X71425289Y-88866982D01*
X71230501Y-88856829D01*
X71225423Y-88857390D01*
X71041693Y-88877687D01*
X71041689Y-88877688D01*
X71036627Y-88878247D01*
X71031721Y-88879613D01*
X71031718Y-88879614D01*
X70964475Y-88898343D01*
X70964178Y-88897278D01*
X70964113Y-88897298D01*
X70964406Y-88898346D01*
X70942689Y-88904409D01*
X70942676Y-88904413D01*
X70904262Y-88915133D01*
X70904250Y-88915142D01*
X66795134Y-90062438D01*
X66795132Y-90062438D01*
X66764271Y-90071055D01*
X66764259Y-90071058D01*
X66762724Y-90071487D01*
X66757605Y-90072650D01*
X66755096Y-90073250D01*
X66755091Y-90073251D01*
X66755085Y-90073222D01*
X66750631Y-90074234D01*
X66672940Y-90087899D01*
X66614577Y-90098165D01*
X66589948Y-90100039D01*
X66536412Y-90098848D01*
X66468753Y-90077336D01*
X66423465Y-90022659D01*
X66419624Y-90012555D01*
X66001326Y-88751727D01*
X73684129Y-88751727D01*
X73684819Y-88758292D01*
X73700486Y-88907352D01*
X73704091Y-88941655D01*
X73763106Y-89123283D01*
X73858593Y-89288671D01*
X73986380Y-89430593D01*
X74140881Y-89542845D01*
X74146909Y-89545529D01*
X74146911Y-89545530D01*
X74309314Y-89617836D01*
X74315345Y-89620521D01*
X74408746Y-89640374D01*
X74495689Y-89658855D01*
X74495694Y-89658855D01*
X74502146Y-89660227D01*
X74693120Y-89660227D01*
X74699572Y-89658855D01*
X74699577Y-89658855D01*
X74786520Y-89640374D01*
X74879921Y-89620521D01*
X74885952Y-89617836D01*
X75048355Y-89545530D01*
X75048357Y-89545529D01*
X75054385Y-89542845D01*
X75208886Y-89430593D01*
X75336673Y-89288671D01*
X75432160Y-89123283D01*
X75491175Y-88941655D01*
X75494781Y-88907352D01*
X75510447Y-88758292D01*
X75511137Y-88751727D01*
X75505515Y-88698237D01*
X75491865Y-88568362D01*
X75491865Y-88568360D01*
X75491175Y-88561799D01*
X75432160Y-88380171D01*
X75420147Y-88359363D01*
X75339974Y-88220501D01*
X75336673Y-88214783D01*
X75286621Y-88159194D01*
X75213308Y-88077772D01*
X75213307Y-88077771D01*
X75208886Y-88072861D01*
X75054385Y-87960609D01*
X75048357Y-87957925D01*
X75048355Y-87957924D01*
X74885952Y-87885618D01*
X74885951Y-87885618D01*
X74879921Y-87882933D01*
X74754172Y-87856204D01*
X74699577Y-87844599D01*
X74699572Y-87844599D01*
X74693120Y-87843227D01*
X74502146Y-87843227D01*
X74495694Y-87844599D01*
X74495689Y-87844599D01*
X74441094Y-87856204D01*
X74315345Y-87882933D01*
X74309315Y-87885618D01*
X74309314Y-87885618D01*
X74146911Y-87957924D01*
X74146909Y-87957925D01*
X74140881Y-87960609D01*
X73986380Y-88072861D01*
X73981959Y-88077771D01*
X73981958Y-88077772D01*
X73908646Y-88159194D01*
X73858593Y-88214783D01*
X73855292Y-88220501D01*
X73775120Y-88359363D01*
X73763106Y-88380171D01*
X73704091Y-88561799D01*
X73703401Y-88568360D01*
X73703401Y-88568362D01*
X73689751Y-88698237D01*
X73684129Y-88751727D01*
X66001326Y-88751727D01*
X63707359Y-81837290D01*
X65199588Y-81837290D01*
X65219871Y-82043224D01*
X65221667Y-82049144D01*
X65221668Y-82049150D01*
X65259414Y-82173580D01*
X65279939Y-82241244D01*
X65377486Y-82423740D01*
X65508761Y-82583700D01*
X65668721Y-82714975D01*
X65851217Y-82812522D01*
X65888304Y-82823772D01*
X66043311Y-82870793D01*
X66043317Y-82870794D01*
X66049237Y-82872590D01*
X66122351Y-82879791D01*
X66200483Y-82887487D01*
X66200490Y-82887487D01*
X66203563Y-82887790D01*
X66306779Y-82887790D01*
X66309852Y-82887487D01*
X66309859Y-82887487D01*
X66387991Y-82879791D01*
X66461105Y-82872590D01*
X66467025Y-82870794D01*
X66467031Y-82870793D01*
X66622038Y-82823772D01*
X66659125Y-82812522D01*
X66841621Y-82714975D01*
X66846405Y-82711049D01*
X66846408Y-82711047D01*
X66878741Y-82684513D01*
X66920954Y-82661691D01*
X66970357Y-82646191D01*
X67041341Y-82644884D01*
X67101764Y-82682161D01*
X67132442Y-82746187D01*
X67123634Y-82816635D01*
X67117198Y-82829407D01*
X66991026Y-83047944D01*
X66894735Y-83293288D01*
X66893685Y-83297887D01*
X66893685Y-83297888D01*
X66837726Y-83543063D01*
X66836087Y-83550242D01*
X66835735Y-83554942D01*
X66835734Y-83554947D01*
X66829572Y-83637177D01*
X66816391Y-83813068D01*
X66816743Y-83817765D01*
X66834590Y-84055915D01*
X66836087Y-84075894D01*
X66837137Y-84080493D01*
X66837137Y-84080495D01*
X66848339Y-84129575D01*
X66894735Y-84332848D01*
X66896459Y-84337239D01*
X66896459Y-84337241D01*
X66913013Y-84379419D01*
X66991026Y-84578192D01*
X67042639Y-84667589D01*
X67102065Y-84770517D01*
X67122807Y-84806444D01*
X67125739Y-84810121D01*
X67125742Y-84810125D01*
X67254505Y-84971588D01*
X67287136Y-85012506D01*
X67480341Y-85191774D01*
X67524424Y-85221829D01*
X67657297Y-85312420D01*
X67698107Y-85340244D01*
X67702356Y-85342290D01*
X67702359Y-85342292D01*
X67831216Y-85404347D01*
X67935568Y-85454600D01*
X67940070Y-85455989D01*
X67940076Y-85455991D01*
X68049344Y-85489695D01*
X68187422Y-85532286D01*
X68192072Y-85532987D01*
X68192077Y-85532988D01*
X68303399Y-85549767D01*
X68448041Y-85571568D01*
X68711603Y-85571568D01*
X68856245Y-85549767D01*
X68967567Y-85532988D01*
X68967572Y-85532987D01*
X68972222Y-85532286D01*
X69148921Y-85477782D01*
X69219911Y-85476816D01*
X69280154Y-85514384D01*
X69310522Y-85578558D01*
X69301375Y-85648963D01*
X69293493Y-85664019D01*
X69190128Y-85832695D01*
X69188235Y-85837265D01*
X69188233Y-85837269D01*
X69099196Y-86052225D01*
X69093239Y-86066606D01*
X69085128Y-86100393D01*
X69038818Y-86293288D01*
X69034135Y-86312794D01*
X69014270Y-86565197D01*
X69034135Y-86817600D01*
X69093239Y-87063788D01*
X69095132Y-87068359D01*
X69095133Y-87068361D01*
X69186304Y-87288466D01*
X69190128Y-87297699D01*
X69322416Y-87513573D01*
X69486846Y-87706095D01*
X69679368Y-87870525D01*
X69895242Y-88002813D01*
X69899812Y-88004706D01*
X69899816Y-88004708D01*
X70076209Y-88077772D01*
X70129153Y-88099702D01*
X70213776Y-88120018D01*
X70370528Y-88157651D01*
X70370534Y-88157652D01*
X70375341Y-88158806D01*
X70627744Y-88178671D01*
X70880147Y-88158806D01*
X70884954Y-88157652D01*
X70884960Y-88157651D01*
X71041712Y-88120018D01*
X71126335Y-88099702D01*
X71179279Y-88077772D01*
X71355672Y-88004708D01*
X71355676Y-88004706D01*
X71360246Y-88002813D01*
X71576120Y-87870525D01*
X71768642Y-87706095D01*
X71933072Y-87513573D01*
X72041830Y-87336096D01*
X72094477Y-87288466D01*
X72164518Y-87276859D01*
X72219683Y-87298564D01*
X72219994Y-87298057D01*
X72224212Y-87300642D01*
X72224215Y-87300644D01*
X72414941Y-87417521D01*
X72435868Y-87430345D01*
X72440438Y-87432238D01*
X72440442Y-87432240D01*
X72636798Y-87513573D01*
X72669779Y-87527234D01*
X72754402Y-87547550D01*
X72911154Y-87585183D01*
X72911160Y-87585184D01*
X72915967Y-87586338D01*
X73168370Y-87606203D01*
X73420773Y-87586338D01*
X73425580Y-87585184D01*
X73425586Y-87585183D01*
X73582338Y-87547550D01*
X73666961Y-87527234D01*
X73699942Y-87513573D01*
X73896298Y-87432240D01*
X73896302Y-87432238D01*
X73900872Y-87430345D01*
X74116746Y-87298057D01*
X74309268Y-87133627D01*
X74473698Y-86941105D01*
X74605986Y-86725231D01*
X74674317Y-86560267D01*
X74700981Y-86495893D01*
X74700982Y-86495891D01*
X74702875Y-86491320D01*
X74724591Y-86400867D01*
X74760824Y-86249945D01*
X74760825Y-86249939D01*
X74761979Y-86245132D01*
X74768624Y-86160706D01*
X74793908Y-86094365D01*
X74851046Y-86052225D01*
X74923649Y-86048073D01*
X75126736Y-86096830D01*
X75126742Y-86096831D01*
X75131549Y-86097985D01*
X75383952Y-86117850D01*
X75636355Y-86097985D01*
X75641162Y-86096831D01*
X75641168Y-86096830D01*
X75797920Y-86059197D01*
X75882543Y-86038881D01*
X75899626Y-86031805D01*
X76111880Y-85943887D01*
X76111884Y-85943885D01*
X76116454Y-85941992D01*
X76332328Y-85809704D01*
X76524850Y-85645274D01*
X76689280Y-85452752D01*
X76691862Y-85448539D01*
X76691869Y-85448529D01*
X76790767Y-85287143D01*
X76843414Y-85239512D01*
X76908085Y-85227366D01*
X77062227Y-85239497D01*
X77067157Y-85239885D01*
X77319560Y-85220020D01*
X77324367Y-85218866D01*
X77324373Y-85218865D01*
X77481125Y-85181232D01*
X77565748Y-85160916D01*
X77595023Y-85148790D01*
X77795085Y-85065922D01*
X77795089Y-85065920D01*
X77799659Y-85064027D01*
X78015533Y-84931739D01*
X78208055Y-84767309D01*
X78372485Y-84574787D01*
X78504773Y-84358913D01*
X78515570Y-84332848D01*
X78599768Y-84129575D01*
X78599769Y-84129573D01*
X78601662Y-84125002D01*
X78643191Y-83952019D01*
X78659611Y-83883627D01*
X78659612Y-83883621D01*
X78660766Y-83878814D01*
X78678694Y-83651026D01*
X78680243Y-83631344D01*
X78680243Y-83631341D01*
X78680631Y-83626411D01*
X78680242Y-83621473D01*
X78680242Y-83616530D01*
X78681876Y-83616530D01*
X78695008Y-83554054D01*
X78701100Y-83544349D01*
X78701168Y-83544269D01*
X78833456Y-83328395D01*
X78836288Y-83321560D01*
X78928451Y-83099057D01*
X78928452Y-83099055D01*
X78930345Y-83094484D01*
X78956944Y-82983689D01*
X78988294Y-82853109D01*
X78988295Y-82853103D01*
X78989449Y-82848296D01*
X79009314Y-82595893D01*
X78989449Y-82343490D01*
X78987980Y-82337369D01*
X78943071Y-82150309D01*
X78930345Y-82097302D01*
X78903598Y-82032729D01*
X78835351Y-81867965D01*
X78835349Y-81867961D01*
X78833456Y-81863391D01*
X78701168Y-81647517D01*
X78536738Y-81454995D01*
X78344216Y-81290565D01*
X78128342Y-81158277D01*
X78123772Y-81156384D01*
X78123768Y-81156382D01*
X77899004Y-81063282D01*
X77899002Y-81063281D01*
X77894431Y-81061388D01*
X77794359Y-81037363D01*
X77653056Y-81003439D01*
X77653050Y-81003438D01*
X77648243Y-81002284D01*
X77395840Y-80982419D01*
X77143437Y-81002284D01*
X77138630Y-81003438D01*
X77138624Y-81003439D01*
X76997321Y-81037363D01*
X76897249Y-81061388D01*
X76892678Y-81063281D01*
X76892676Y-81063282D01*
X76667912Y-81156382D01*
X76667908Y-81156384D01*
X76663338Y-81158277D01*
X76447464Y-81290565D01*
X76254942Y-81454995D01*
X76090512Y-81647517D01*
X75958224Y-81863391D01*
X75956331Y-81867961D01*
X75956329Y-81867965D01*
X75888082Y-82032729D01*
X75861335Y-82097302D01*
X75848609Y-82150309D01*
X75803701Y-82337369D01*
X75802231Y-82343490D01*
X75795915Y-82423740D01*
X75783326Y-82583700D01*
X75782366Y-82595893D01*
X75782755Y-82600831D01*
X75782755Y-82605774D01*
X75781121Y-82605774D01*
X75767989Y-82668250D01*
X75761897Y-82677955D01*
X75761829Y-82678035D01*
X75761086Y-82679247D01*
X75761048Y-82679308D01*
X75660342Y-82843644D01*
X75607695Y-82891275D01*
X75543024Y-82903421D01*
X75388882Y-82891290D01*
X75383952Y-82890902D01*
X75131549Y-82910767D01*
X75126742Y-82911921D01*
X75126736Y-82911922D01*
X74981522Y-82946785D01*
X74885361Y-82969871D01*
X74880790Y-82971764D01*
X74880788Y-82971765D01*
X74656024Y-83064865D01*
X74656020Y-83064867D01*
X74651450Y-83066760D01*
X74435576Y-83199048D01*
X74243054Y-83363478D01*
X74078624Y-83556000D01*
X73946336Y-83771874D01*
X73944443Y-83776444D01*
X73944441Y-83776448D01*
X73869823Y-83956593D01*
X73849447Y-84005785D01*
X73831511Y-84080495D01*
X73798452Y-84218197D01*
X73790343Y-84251973D01*
X73789394Y-84264042D01*
X73783699Y-84336398D01*
X73758414Y-84402740D01*
X73701276Y-84444880D01*
X73628673Y-84449032D01*
X73425586Y-84400275D01*
X73425580Y-84400274D01*
X73420773Y-84399120D01*
X73168370Y-84379255D01*
X72915967Y-84399120D01*
X72911160Y-84400274D01*
X72911154Y-84400275D01*
X72754402Y-84437908D01*
X72669779Y-84458224D01*
X72665208Y-84460117D01*
X72665206Y-84460118D01*
X72440442Y-84553218D01*
X72440438Y-84553220D01*
X72435868Y-84555113D01*
X72219994Y-84687401D01*
X72027472Y-84851831D01*
X71863042Y-85044353D01*
X71754284Y-85221830D01*
X71701637Y-85269460D01*
X71631596Y-85281067D01*
X71576431Y-85259362D01*
X71576120Y-85259869D01*
X71573251Y-85258111D01*
X71573252Y-85258111D01*
X71571902Y-85257284D01*
X71571899Y-85257282D01*
X71364466Y-85130167D01*
X71360246Y-85127581D01*
X71355676Y-85125688D01*
X71355672Y-85125686D01*
X71130908Y-85032586D01*
X71130906Y-85032585D01*
X71126335Y-85030692D01*
X71035256Y-85008826D01*
X70884960Y-84972743D01*
X70884954Y-84972742D01*
X70880147Y-84971588D01*
X70627744Y-84951723D01*
X70375341Y-84971588D01*
X70370534Y-84972742D01*
X70370528Y-84972743D01*
X70150342Y-85025605D01*
X70079434Y-85022058D01*
X70021700Y-84980738D01*
X69995470Y-84914764D01*
X70009073Y-84845083D01*
X70022417Y-84824526D01*
X70027551Y-84818088D01*
X70036837Y-84806444D01*
X70057580Y-84770517D01*
X70117005Y-84667589D01*
X70168618Y-84578192D01*
X70246631Y-84379419D01*
X70263185Y-84337241D01*
X70263185Y-84337239D01*
X70264909Y-84332848D01*
X70311305Y-84129575D01*
X70322507Y-84080495D01*
X70322507Y-84080493D01*
X70323557Y-84075894D01*
X70325055Y-84055915D01*
X70342901Y-83817765D01*
X70343253Y-83813068D01*
X70330072Y-83637177D01*
X70323910Y-83554947D01*
X70323909Y-83554942D01*
X70323557Y-83550242D01*
X70321919Y-83543063D01*
X70265959Y-83297888D01*
X70265959Y-83297887D01*
X70264909Y-83293288D01*
X70168618Y-83047944D01*
X70078174Y-82891290D01*
X70039193Y-82823772D01*
X70039190Y-82823768D01*
X70036837Y-82819692D01*
X70033905Y-82816015D01*
X70033902Y-82816011D01*
X69955255Y-82717391D01*
X69928421Y-82651660D01*
X69941383Y-82581857D01*
X69990026Y-82530143D01*
X70058906Y-82512936D01*
X70126566Y-82535991D01*
X70154163Y-82555527D01*
X70154176Y-82555535D01*
X70157336Y-82557772D01*
X70160746Y-82559603D01*
X70160749Y-82559605D01*
X70439263Y-82709164D01*
X70439270Y-82709167D01*
X70442670Y-82710993D01*
X70601498Y-82772523D01*
X70733297Y-82823582D01*
X70744670Y-82827988D01*
X70806918Y-82843644D01*
X71054988Y-82906037D01*
X71054995Y-82906038D01*
X71058759Y-82906985D01*
X71380175Y-82946785D01*
X71622997Y-82946785D01*
X71636434Y-82945956D01*
X71861498Y-82932075D01*
X71861505Y-82932074D01*
X71865366Y-82931836D01*
X72183722Y-82872325D01*
X72492352Y-82774143D01*
X72614620Y-82717891D01*
X72783055Y-82640399D01*
X72783063Y-82640395D01*
X72786577Y-82638778D01*
X72789880Y-82636733D01*
X73058629Y-82470331D01*
X73058631Y-82470330D01*
X73061938Y-82468282D01*
X73116376Y-82424476D01*
X73311236Y-82267673D01*
X73311240Y-82267670D01*
X73314259Y-82265240D01*
X73539716Y-82032729D01*
X73734892Y-81774275D01*
X73738075Y-81768763D01*
X73801106Y-81659588D01*
X73896827Y-81493795D01*
X73940250Y-81391205D01*
X74021554Y-81199117D01*
X74021557Y-81199109D01*
X74023067Y-81195541D01*
X74111699Y-80884034D01*
X74113616Y-80871688D01*
X74154877Y-80605875D01*
X74161378Y-80563996D01*
X74161498Y-80560110D01*
X74171232Y-80244153D01*
X74171232Y-80244147D01*
X74171351Y-80240279D01*
X74141468Y-79917790D01*
X74114196Y-79793259D01*
X74073012Y-79605207D01*
X74073011Y-79605204D01*
X74072182Y-79601418D01*
X74064420Y-79579392D01*
X73965832Y-79299618D01*
X73965830Y-79299614D01*
X73964542Y-79295958D01*
X73954041Y-79274868D01*
X73821908Y-79009510D01*
X73821907Y-79009508D01*
X73820180Y-79006040D01*
X73796770Y-78970710D01*
X75446047Y-78970710D01*
X75447014Y-78977022D01*
X75447014Y-78977024D01*
X75473325Y-79148775D01*
X75476089Y-79166820D01*
X75544994Y-79352867D01*
X75649939Y-79521236D01*
X75786628Y-79665033D01*
X75791867Y-79668680D01*
X75791870Y-79668682D01*
X75944218Y-79774719D01*
X75949465Y-79778371D01*
X76131784Y-79856610D01*
X76138042Y-79857896D01*
X76138045Y-79857897D01*
X76221908Y-79875131D01*
X76326120Y-79896547D01*
X76474792Y-79896547D01*
X76622698Y-79881506D01*
X76628790Y-79879595D01*
X76628793Y-79879594D01*
X76697570Y-79858016D01*
X76747637Y-79852845D01*
X76761747Y-79854234D01*
X76777441Y-79855780D01*
X76880657Y-79855780D01*
X76883730Y-79855477D01*
X76883737Y-79855477D01*
X76961869Y-79847781D01*
X77034983Y-79840580D01*
X77040903Y-79838784D01*
X77040909Y-79838783D01*
X77190981Y-79793259D01*
X77233003Y-79780512D01*
X77415499Y-79682965D01*
X77575459Y-79551690D01*
X77706734Y-79391730D01*
X77804281Y-79209234D01*
X77837864Y-79098526D01*
X77862552Y-79017140D01*
X77862553Y-79017134D01*
X77864349Y-79011214D01*
X77884632Y-78805280D01*
X77864349Y-78599346D01*
X77862553Y-78593426D01*
X77862552Y-78593420D01*
X77815044Y-78436807D01*
X77804281Y-78401326D01*
X77706734Y-78218830D01*
X77575459Y-78058870D01*
X77415499Y-77927595D01*
X77233003Y-77830048D01*
X77133235Y-77799784D01*
X77040909Y-77771777D01*
X77040903Y-77771776D01*
X77034983Y-77769980D01*
X76961869Y-77762779D01*
X76883737Y-77755083D01*
X76883730Y-77755083D01*
X76880657Y-77754780D01*
X76777441Y-77754780D01*
X76774368Y-77755083D01*
X76774361Y-77755083D01*
X76696229Y-77762779D01*
X76623115Y-77769980D01*
X76617195Y-77771776D01*
X76617189Y-77771777D01*
X76524863Y-77799784D01*
X76425095Y-77830048D01*
X76242599Y-77927595D01*
X76237818Y-77931519D01*
X76237812Y-77931523D01*
X76205479Y-77958057D01*
X76163266Y-77980879D01*
X76038641Y-78019980D01*
X75865173Y-78116263D01*
X75860328Y-78120422D01*
X75860327Y-78120423D01*
X75837399Y-78140106D01*
X75714637Y-78245494D01*
X75710728Y-78250544D01*
X75710727Y-78250545D01*
X75597107Y-78397329D01*
X75597105Y-78397333D01*
X75593197Y-78402381D01*
X75505824Y-78580503D01*
X75504223Y-78586685D01*
X75504223Y-78586686D01*
X75459922Y-78757788D01*
X75456095Y-78772567D01*
X75455772Y-78778941D01*
X75455771Y-78778946D01*
X75451118Y-78870715D01*
X75446047Y-78970710D01*
X73796770Y-78970710D01*
X73687152Y-78805280D01*
X73643429Y-78739294D01*
X73643423Y-78739286D01*
X73641286Y-78736061D01*
X73633249Y-78726680D01*
X73433096Y-78493061D01*
X73433092Y-78493057D01*
X73430569Y-78490112D01*
X73427705Y-78487501D01*
X73427700Y-78487496D01*
X73221032Y-78299094D01*
X73191226Y-78271922D01*
X72926884Y-78084798D01*
X72923471Y-78082965D01*
X72644957Y-77933406D01*
X72644950Y-77933403D01*
X72641550Y-77931577D01*
X72397464Y-77837018D01*
X72343172Y-77815985D01*
X72343170Y-77815984D01*
X72339550Y-77814582D01*
X72235495Y-77788411D01*
X72029232Y-77736533D01*
X72029225Y-77736532D01*
X72025461Y-77735585D01*
X71704045Y-77695785D01*
X71461223Y-77695785D01*
X71447786Y-77696614D01*
X71222722Y-77710495D01*
X71222715Y-77710496D01*
X71218854Y-77710734D01*
X70900498Y-77770245D01*
X70591868Y-77868427D01*
X70588346Y-77870047D01*
X70588347Y-77870047D01*
X70301165Y-78002171D01*
X70301157Y-78002175D01*
X70297643Y-78003792D01*
X70294342Y-78005836D01*
X70294340Y-78005837D01*
X70067546Y-78146262D01*
X70022282Y-78174288D01*
X70019251Y-78176727D01*
X69773365Y-78374591D01*
X69769961Y-78377330D01*
X69544504Y-78609841D01*
X69349328Y-78868295D01*
X69347387Y-78871657D01*
X69347385Y-78871660D01*
X69311891Y-78933138D01*
X69187393Y-79148775D01*
X69176358Y-79174847D01*
X69062666Y-79443453D01*
X69062663Y-79443461D01*
X69061153Y-79447029D01*
X68972521Y-79758536D01*
X68971926Y-79762370D01*
X68971925Y-79762374D01*
X68951169Y-79896090D01*
X68922842Y-80078574D01*
X68922722Y-80082455D01*
X68922722Y-80082460D01*
X68913058Y-80396163D01*
X68912869Y-80402291D01*
X68942752Y-80724780D01*
X68943581Y-80728565D01*
X69000398Y-80988000D01*
X69012038Y-81041152D01*
X69013328Y-81044812D01*
X69013328Y-81044813D01*
X69102352Y-81297443D01*
X69119678Y-81346612D01*
X69121403Y-81350076D01*
X69121405Y-81350081D01*
X69262312Y-81633060D01*
X69264040Y-81636530D01*
X69325382Y-81729104D01*
X69440791Y-81903276D01*
X69440797Y-81903284D01*
X69442934Y-81906509D01*
X69445458Y-81909455D01*
X69592457Y-82081033D01*
X69621588Y-82145778D01*
X69611091Y-82215994D01*
X69564298Y-82269389D01*
X69496066Y-82289009D01*
X69442106Y-82276534D01*
X69224076Y-82171536D01*
X68972222Y-82093850D01*
X68967572Y-82093149D01*
X68967567Y-82093148D01*
X68830355Y-82072467D01*
X68711603Y-82054568D01*
X68448041Y-82054568D01*
X68329289Y-82072467D01*
X68192077Y-82093148D01*
X68192072Y-82093149D01*
X68187422Y-82093850D01*
X68107210Y-82118592D01*
X67940076Y-82170145D01*
X67940070Y-82170147D01*
X67935568Y-82171536D01*
X67900436Y-82188455D01*
X67725857Y-82272528D01*
X67655803Y-82284063D01*
X67590634Y-82255894D01*
X67551040Y-82196963D01*
X67549592Y-82125981D01*
X67558064Y-82103516D01*
X67562124Y-82095239D01*
X67578396Y-82062067D01*
X67580338Y-82054568D01*
X67626525Y-81876184D01*
X67626526Y-81876180D01*
X67628125Y-81870003D01*
X67628448Y-81863629D01*
X67628449Y-81863624D01*
X67637274Y-81689586D01*
X67638173Y-81671860D01*
X67636439Y-81660537D01*
X67609098Y-81482062D01*
X67609098Y-81482061D01*
X67608131Y-81475750D01*
X67539226Y-81289703D01*
X67434281Y-81121334D01*
X67297592Y-80977537D01*
X67292353Y-80973890D01*
X67292350Y-80973888D01*
X67140002Y-80867851D01*
X67134755Y-80864199D01*
X66952436Y-80785960D01*
X66946178Y-80784674D01*
X66946175Y-80784673D01*
X66828147Y-80760418D01*
X66758100Y-80746023D01*
X66609428Y-80746023D01*
X66461522Y-80761064D01*
X66455430Y-80762975D01*
X66455427Y-80762976D01*
X66386650Y-80784554D01*
X66336583Y-80789725D01*
X66322473Y-80788336D01*
X66306779Y-80786790D01*
X66203563Y-80786790D01*
X66200490Y-80787093D01*
X66200483Y-80787093D01*
X66122351Y-80794789D01*
X66049237Y-80801990D01*
X66043317Y-80803786D01*
X66043311Y-80803787D01*
X65926920Y-80839094D01*
X65851217Y-80862058D01*
X65668721Y-80959605D01*
X65508761Y-81090880D01*
X65377486Y-81250840D01*
X65279939Y-81433336D01*
X65271546Y-81461005D01*
X65221668Y-81625430D01*
X65221667Y-81625436D01*
X65219871Y-81631356D01*
X65199588Y-81837290D01*
X63707359Y-81837290D01*
X63202078Y-80314281D01*
X63200309Y-80308489D01*
X62907041Y-79258113D01*
X62907041Y-79258110D01*
X62712563Y-78561582D01*
X67245947Y-78561582D01*
X67246637Y-78568147D01*
X67263976Y-78733115D01*
X67265909Y-78751510D01*
X67324924Y-78933138D01*
X67328227Y-78938860D01*
X67328228Y-78938861D01*
X67349621Y-78975915D01*
X67420411Y-79098526D01*
X67424829Y-79103433D01*
X67424830Y-79103434D01*
X67543776Y-79235537D01*
X67548198Y-79240448D01*
X67589532Y-79270479D01*
X67694682Y-79346875D01*
X67702699Y-79352700D01*
X67708727Y-79355384D01*
X67708729Y-79355385D01*
X67871132Y-79427691D01*
X67877163Y-79430376D01*
X67955509Y-79447029D01*
X68057507Y-79468710D01*
X68057512Y-79468710D01*
X68063964Y-79470082D01*
X68254938Y-79470082D01*
X68261390Y-79468710D01*
X68261395Y-79468710D01*
X68363393Y-79447029D01*
X68441739Y-79430376D01*
X68447770Y-79427691D01*
X68610173Y-79355385D01*
X68610175Y-79355384D01*
X68616203Y-79352700D01*
X68624221Y-79346875D01*
X68729370Y-79270479D01*
X68770704Y-79240448D01*
X68775126Y-79235537D01*
X68894072Y-79103434D01*
X68894073Y-79103433D01*
X68898491Y-79098526D01*
X68969281Y-78975915D01*
X68990674Y-78938861D01*
X68990675Y-78938860D01*
X68993978Y-78933138D01*
X69052993Y-78751510D01*
X69054927Y-78733115D01*
X69072265Y-78568147D01*
X69072955Y-78561582D01*
X69065415Y-78489841D01*
X69053683Y-78378217D01*
X69053683Y-78378215D01*
X69052993Y-78371654D01*
X68993978Y-78190026D01*
X68990462Y-78183935D01*
X68924970Y-78070501D01*
X68898491Y-78024638D01*
X68797642Y-77912633D01*
X68766925Y-77848626D01*
X68775690Y-77778173D01*
X68821153Y-77723642D01*
X68865557Y-77708802D01*
X68864967Y-77706743D01*
X68864969Y-77706743D01*
X68887243Y-77700356D01*
X68887244Y-77700356D01*
X68887247Y-77700355D01*
X68887248Y-77700355D01*
X70197447Y-77324661D01*
X72209920Y-76747593D01*
X76764686Y-76747593D01*
X76765376Y-76754158D01*
X76782248Y-76914682D01*
X76784648Y-76937521D01*
X76843663Y-77119149D01*
X76846966Y-77124871D01*
X76846967Y-77124872D01*
X76861522Y-77150081D01*
X76939150Y-77284537D01*
X76943568Y-77289444D01*
X76943569Y-77289445D01*
X77060898Y-77419752D01*
X77066937Y-77426459D01*
X77135796Y-77476488D01*
X77185599Y-77512672D01*
X77221438Y-77538711D01*
X77227466Y-77541395D01*
X77227468Y-77541396D01*
X77389871Y-77613702D01*
X77395902Y-77616387D01*
X77487487Y-77635854D01*
X77576246Y-77654721D01*
X77576251Y-77654721D01*
X77582703Y-77656093D01*
X77773677Y-77656093D01*
X77780129Y-77654721D01*
X77780134Y-77654721D01*
X77868893Y-77635854D01*
X77960478Y-77616387D01*
X77966509Y-77613702D01*
X78128912Y-77541396D01*
X78128914Y-77541395D01*
X78134942Y-77538711D01*
X78170782Y-77512672D01*
X78220584Y-77476488D01*
X78289443Y-77426459D01*
X78295482Y-77419752D01*
X78381616Y-77324091D01*
X86779730Y-77324091D01*
X86800013Y-77530025D01*
X86801809Y-77535945D01*
X86801810Y-77535951D01*
X86842162Y-77668972D01*
X86860081Y-77728045D01*
X86957628Y-77910541D01*
X87088903Y-78070501D01*
X87248863Y-78201776D01*
X87431359Y-78299323D01*
X87450127Y-78305016D01*
X87623453Y-78357594D01*
X87623459Y-78357595D01*
X87629379Y-78359391D01*
X87690145Y-78365376D01*
X87780625Y-78374288D01*
X87780632Y-78374288D01*
X87783705Y-78374591D01*
X87886921Y-78374591D01*
X87889994Y-78374288D01*
X87890001Y-78374288D01*
X87980481Y-78365376D01*
X88041247Y-78359391D01*
X88047167Y-78357595D01*
X88047173Y-78357594D01*
X88220500Y-78305016D01*
X88257075Y-78299591D01*
X88304786Y-78299591D01*
X88304786Y-78301214D01*
X88367677Y-78316249D01*
X88416841Y-78367468D01*
X88430510Y-78437137D01*
X88404343Y-78503135D01*
X88390744Y-78517942D01*
X88232627Y-78664653D01*
X88229694Y-78668331D01*
X88229692Y-78668333D01*
X88071233Y-78867034D01*
X88071230Y-78867038D01*
X88068298Y-78870715D01*
X87936517Y-79098967D01*
X87934793Y-79103360D01*
X87867481Y-79274868D01*
X87840226Y-79344311D01*
X87839176Y-79348910D01*
X87839176Y-79348911D01*
X87790865Y-79560578D01*
X87781578Y-79601265D01*
X87781226Y-79605965D01*
X87781225Y-79605970D01*
X87768579Y-79774719D01*
X87761882Y-79864091D01*
X87762234Y-79868788D01*
X87780157Y-80107950D01*
X87781578Y-80126917D01*
X87782628Y-80131516D01*
X87782628Y-80131518D01*
X87826063Y-80321820D01*
X87840226Y-80383871D01*
X87841950Y-80388262D01*
X87841950Y-80388264D01*
X87864369Y-80445387D01*
X87936517Y-80629215D01*
X87991974Y-80725270D01*
X88027668Y-80787093D01*
X88068298Y-80857467D01*
X88071230Y-80861144D01*
X88071233Y-80861148D01*
X88211760Y-81037363D01*
X88232627Y-81063529D01*
X88425832Y-81242797D01*
X88451246Y-81260124D01*
X88637535Y-81387133D01*
X88643598Y-81391267D01*
X88647847Y-81393313D01*
X88647850Y-81393315D01*
X88769268Y-81451787D01*
X88881059Y-81505623D01*
X88885561Y-81507012D01*
X88885567Y-81507014D01*
X89000914Y-81542593D01*
X89132913Y-81583309D01*
X89137563Y-81584010D01*
X89137568Y-81584011D01*
X89248890Y-81600790D01*
X89393532Y-81622591D01*
X89616544Y-81622591D01*
X89684665Y-81642593D01*
X89731158Y-81696249D01*
X89741262Y-81766523D01*
X89711768Y-81831103D01*
X89698375Y-81844402D01*
X89614333Y-81916181D01*
X89594415Y-81933193D01*
X89429985Y-82125715D01*
X89297697Y-82341589D01*
X89295804Y-82346159D01*
X89295802Y-82346163D01*
X89202702Y-82570927D01*
X89200808Y-82575500D01*
X89190295Y-82619289D01*
X89143067Y-82816011D01*
X89141704Y-82821688D01*
X89121839Y-83074091D01*
X89141704Y-83326494D01*
X89142858Y-83331301D01*
X89142859Y-83331307D01*
X89174165Y-83461707D01*
X89200808Y-83572682D01*
X89202701Y-83577253D01*
X89202702Y-83577255D01*
X89285211Y-83776448D01*
X89297697Y-83806593D01*
X89429985Y-84022467D01*
X89594415Y-84214989D01*
X89786937Y-84379419D01*
X90002811Y-84511707D01*
X90007381Y-84513600D01*
X90007385Y-84513602D01*
X90232149Y-84606702D01*
X90236722Y-84608596D01*
X90289472Y-84621260D01*
X90478097Y-84666545D01*
X90478103Y-84666546D01*
X90482910Y-84667700D01*
X90735313Y-84687565D01*
X90987716Y-84667700D01*
X90992523Y-84666546D01*
X90992529Y-84666545D01*
X91181154Y-84621260D01*
X91233904Y-84608596D01*
X91238477Y-84606702D01*
X91463241Y-84513602D01*
X91463245Y-84513600D01*
X91467815Y-84511707D01*
X91683689Y-84379419D01*
X91876211Y-84214989D01*
X91879419Y-84211233D01*
X91882101Y-84208551D01*
X91944413Y-84174525D01*
X92015228Y-84179590D01*
X92067007Y-84215815D01*
X92163035Y-84328248D01*
X92194415Y-84364989D01*
X92386937Y-84529419D01*
X92602811Y-84661707D01*
X92607381Y-84663600D01*
X92607385Y-84663602D01*
X92723676Y-84711771D01*
X92836722Y-84758596D01*
X92857370Y-84763553D01*
X93078097Y-84816545D01*
X93078103Y-84816546D01*
X93082910Y-84817700D01*
X93335313Y-84837565D01*
X93587716Y-84817700D01*
X93592523Y-84816546D01*
X93592529Y-84816545D01*
X93813256Y-84763553D01*
X93833904Y-84758596D01*
X93946950Y-84711771D01*
X94063241Y-84663602D01*
X94063245Y-84663600D01*
X94067815Y-84661707D01*
X94283689Y-84529419D01*
X94476211Y-84364989D01*
X94640641Y-84172467D01*
X94772929Y-83956593D01*
X94779906Y-83939751D01*
X94829307Y-83820485D01*
X94873855Y-83765204D01*
X94941219Y-83742783D01*
X95011551Y-83761271D01*
X95138581Y-83839116D01*
X95138591Y-83839121D01*
X95142811Y-83841707D01*
X95147381Y-83843600D01*
X95147385Y-83843602D01*
X95336339Y-83921869D01*
X95376722Y-83938596D01*
X95451686Y-83956593D01*
X95618097Y-83996545D01*
X95618103Y-83996546D01*
X95622910Y-83997700D01*
X95875313Y-84017565D01*
X96127716Y-83997700D01*
X96132523Y-83996546D01*
X96132529Y-83996545D01*
X96298940Y-83956593D01*
X96373904Y-83938596D01*
X96414287Y-83921869D01*
X96603241Y-83843602D01*
X96603245Y-83843600D01*
X96607815Y-83841707D01*
X96632650Y-83826488D01*
X101827349Y-83826488D01*
X101827779Y-83831677D01*
X101843589Y-84022467D01*
X101845941Y-84050856D01*
X101847222Y-84055914D01*
X101847222Y-84055915D01*
X101898121Y-84256908D01*
X101901209Y-84269104D01*
X101930727Y-84336398D01*
X101984995Y-84460118D01*
X101991645Y-84475279D01*
X101994495Y-84479641D01*
X101994497Y-84479645D01*
X102061551Y-84582279D01*
X102114783Y-84663756D01*
X102118308Y-84667585D01*
X102118311Y-84667589D01*
X102210111Y-84767309D01*
X102267265Y-84829394D01*
X102271384Y-84832600D01*
X102424432Y-84951723D01*
X102444929Y-84967677D01*
X102449510Y-84970156D01*
X102625713Y-85065512D01*
X102642931Y-85074830D01*
X102855870Y-85147932D01*
X102861004Y-85148789D01*
X102861009Y-85148790D01*
X103072799Y-85184131D01*
X103072801Y-85184131D01*
X103077936Y-85184988D01*
X103303074Y-85184988D01*
X103308209Y-85184131D01*
X103308211Y-85184131D01*
X103520001Y-85148790D01*
X103520006Y-85148789D01*
X103525140Y-85147932D01*
X103738079Y-85074830D01*
X103755298Y-85065512D01*
X103931500Y-84970156D01*
X103936081Y-84967677D01*
X103956579Y-84951723D01*
X104109626Y-84832600D01*
X104113745Y-84829394D01*
X104170899Y-84767309D01*
X104262699Y-84667589D01*
X104262702Y-84667585D01*
X104266227Y-84663756D01*
X104319459Y-84582279D01*
X104386513Y-84479645D01*
X104386515Y-84479641D01*
X104389365Y-84475279D01*
X104396016Y-84460118D01*
X104450283Y-84336398D01*
X104479801Y-84269104D01*
X104482890Y-84256908D01*
X104533788Y-84055915D01*
X104533788Y-84055914D01*
X104535069Y-84050856D01*
X104537422Y-84022467D01*
X104553231Y-83831677D01*
X104553661Y-83826488D01*
X104549606Y-83777548D01*
X104535500Y-83607316D01*
X104535499Y-83607311D01*
X104535069Y-83602120D01*
X104528772Y-83577255D01*
X104481083Y-83388934D01*
X104481083Y-83388933D01*
X104479801Y-83383872D01*
X104440668Y-83294658D01*
X104391459Y-83182470D01*
X104391457Y-83182466D01*
X104389365Y-83177697D01*
X104383159Y-83168197D01*
X104269078Y-82993584D01*
X104266227Y-82989220D01*
X104262702Y-82985391D01*
X104262699Y-82985387D01*
X104136496Y-82848296D01*
X104113745Y-82823582D01*
X104102743Y-82815019D01*
X103940194Y-82688500D01*
X103940192Y-82688498D01*
X103936081Y-82685299D01*
X103902825Y-82667302D01*
X103852434Y-82617289D01*
X103837082Y-82547972D01*
X103861642Y-82481359D01*
X103902825Y-82445674D01*
X103931500Y-82430156D01*
X103936081Y-82427677D01*
X103941140Y-82423740D01*
X104109626Y-82292600D01*
X104113745Y-82289394D01*
X104181315Y-82215994D01*
X104262699Y-82127589D01*
X104262702Y-82127585D01*
X104266227Y-82123756D01*
X104311430Y-82054568D01*
X104386513Y-81939645D01*
X104386515Y-81939641D01*
X104389365Y-81935279D01*
X104391688Y-81929985D01*
X104455467Y-81784580D01*
X104479801Y-81729104D01*
X104486475Y-81702751D01*
X104533788Y-81515915D01*
X104533788Y-81515914D01*
X104535069Y-81510856D01*
X104535673Y-81503577D01*
X104553231Y-81291677D01*
X104553661Y-81286488D01*
X104546125Y-81195541D01*
X104535500Y-81067316D01*
X104535499Y-81067311D01*
X104535069Y-81062120D01*
X104528800Y-81037363D01*
X104481083Y-80848934D01*
X104481083Y-80848933D01*
X104479801Y-80843872D01*
X104434702Y-80741055D01*
X104391459Y-80642470D01*
X104391457Y-80642466D01*
X104389365Y-80637697D01*
X104384541Y-80630312D01*
X104278839Y-80468524D01*
X104266227Y-80449220D01*
X104262702Y-80445391D01*
X104262699Y-80445387D01*
X104148946Y-80321820D01*
X104113745Y-80283582D01*
X104047430Y-80231966D01*
X103940194Y-80148500D01*
X103940192Y-80148498D01*
X103936081Y-80145299D01*
X103902825Y-80127302D01*
X103852434Y-80077289D01*
X103837082Y-80007972D01*
X103861642Y-79941359D01*
X103902825Y-79905674D01*
X103909585Y-79902016D01*
X103936081Y-79887677D01*
X103943180Y-79882152D01*
X104109626Y-79752600D01*
X104113745Y-79749394D01*
X104214875Y-79639539D01*
X104262699Y-79587589D01*
X104262702Y-79587585D01*
X104266227Y-79583756D01*
X104341430Y-79468649D01*
X104386513Y-79399645D01*
X104386515Y-79399641D01*
X104389365Y-79395279D01*
X104398939Y-79373454D01*
X104459935Y-79234394D01*
X104479801Y-79189104D01*
X104483929Y-79172805D01*
X104533788Y-78975915D01*
X104533788Y-78975914D01*
X104535069Y-78970856D01*
X104536759Y-78950468D01*
X104553231Y-78751677D01*
X104553661Y-78746488D01*
X104542594Y-78612933D01*
X104535500Y-78527316D01*
X104535499Y-78527311D01*
X104535069Y-78522120D01*
X104527710Y-78493061D01*
X104481083Y-78308934D01*
X104481083Y-78308933D01*
X104479801Y-78303872D01*
X104433283Y-78197820D01*
X107081688Y-78197820D01*
X107101971Y-78403754D01*
X107103767Y-78409674D01*
X107103768Y-78409680D01*
X107139453Y-78527316D01*
X107162039Y-78601774D01*
X107259586Y-78784270D01*
X107390861Y-78944230D01*
X107550821Y-79075505D01*
X107733317Y-79173052D01*
X107769547Y-79184042D01*
X107925411Y-79231323D01*
X107925417Y-79231324D01*
X107931337Y-79233120D01*
X108004451Y-79240321D01*
X108082583Y-79248017D01*
X108082590Y-79248017D01*
X108085663Y-79248320D01*
X108188879Y-79248320D01*
X108191952Y-79248017D01*
X108191959Y-79248017D01*
X108296257Y-79237744D01*
X108343205Y-79233120D01*
X108343221Y-79233282D01*
X108389284Y-79233427D01*
X108428179Y-79241420D01*
X108490877Y-79274725D01*
X108525617Y-79336641D01*
X108521368Y-79407510D01*
X108473791Y-79468946D01*
X108467644Y-79473137D01*
X108261049Y-79613991D01*
X108067844Y-79793259D01*
X108064911Y-79796937D01*
X108064909Y-79796939D01*
X107906450Y-79995640D01*
X107906447Y-79995644D01*
X107903515Y-79999321D01*
X107901162Y-80003397D01*
X107901159Y-80003401D01*
X107850587Y-80090995D01*
X107771734Y-80227573D01*
X107766747Y-80240279D01*
X107680181Y-80460846D01*
X107675443Y-80472917D01*
X107674393Y-80477516D01*
X107674393Y-80477517D01*
X107638830Y-80633331D01*
X107616795Y-80729871D01*
X107616443Y-80734571D01*
X107616442Y-80734576D01*
X107601002Y-80940611D01*
X107597099Y-80992697D01*
X107597451Y-80997394D01*
X107616086Y-81246059D01*
X107616795Y-81255523D01*
X107617845Y-81260122D01*
X107617845Y-81260124D01*
X107673412Y-81503577D01*
X107675443Y-81512477D01*
X107677167Y-81516868D01*
X107677167Y-81516870D01*
X107703243Y-81583309D01*
X107771734Y-81757821D01*
X107826119Y-81852019D01*
X107871133Y-81929985D01*
X107903515Y-81986073D01*
X107906447Y-81989750D01*
X107906450Y-81989754D01*
X108050308Y-82170146D01*
X108067844Y-82192135D01*
X108261049Y-82371403D01*
X108338893Y-82424476D01*
X108443341Y-82495687D01*
X108478815Y-82519873D01*
X108483064Y-82521919D01*
X108483067Y-82521921D01*
X108572530Y-82565004D01*
X108716276Y-82634229D01*
X108720778Y-82635618D01*
X108720784Y-82635620D01*
X108858293Y-82678035D01*
X108968130Y-82711915D01*
X109104744Y-82732506D01*
X109143474Y-82738344D01*
X109207852Y-82768276D01*
X109245829Y-82828262D01*
X109245346Y-82899257D01*
X109206557Y-82958720D01*
X109190533Y-82970367D01*
X109046361Y-83058716D01*
X108853839Y-83223146D01*
X108689409Y-83415668D01*
X108557121Y-83631542D01*
X108555228Y-83636112D01*
X108555226Y-83636116D01*
X108476372Y-83826488D01*
X108460232Y-83865453D01*
X108455869Y-83883627D01*
X108405749Y-84092395D01*
X108401128Y-84111641D01*
X108381263Y-84364044D01*
X108401128Y-84616447D01*
X108402282Y-84621254D01*
X108402283Y-84621260D01*
X108434800Y-84756702D01*
X108460232Y-84862635D01*
X108462125Y-84867206D01*
X108462126Y-84867208D01*
X108546666Y-85071305D01*
X108557121Y-85096546D01*
X108689409Y-85312420D01*
X108853839Y-85504942D01*
X109046361Y-85669372D01*
X109262235Y-85801660D01*
X109266805Y-85803553D01*
X109266809Y-85803555D01*
X109490586Y-85896246D01*
X109496146Y-85898549D01*
X109580769Y-85918865D01*
X109737521Y-85956498D01*
X109737527Y-85956499D01*
X109742334Y-85957653D01*
X109994737Y-85977518D01*
X110247140Y-85957653D01*
X110251947Y-85956499D01*
X110251953Y-85956498D01*
X110408705Y-85918865D01*
X110493328Y-85898549D01*
X110498888Y-85896246D01*
X110722665Y-85803555D01*
X110722669Y-85803553D01*
X110727239Y-85801660D01*
X110931858Y-85676269D01*
X111000392Y-85657731D01*
X111068068Y-85679187D01*
X111105125Y-85717866D01*
X111223862Y-85911627D01*
X111388292Y-86104149D01*
X111580814Y-86268579D01*
X111796688Y-86400867D01*
X111801258Y-86402760D01*
X111801262Y-86402762D01*
X112015061Y-86491320D01*
X112030599Y-86497756D01*
X112115222Y-86518072D01*
X112271974Y-86555705D01*
X112271980Y-86555706D01*
X112276787Y-86556860D01*
X112529190Y-86576725D01*
X112781593Y-86556860D01*
X112786400Y-86555706D01*
X112786406Y-86555705D01*
X112943158Y-86518072D01*
X113027781Y-86497756D01*
X113043319Y-86491320D01*
X113257118Y-86402762D01*
X113257122Y-86402760D01*
X113261692Y-86400867D01*
X113477566Y-86268579D01*
X113670088Y-86104149D01*
X113834518Y-85911627D01*
X113895292Y-85812453D01*
X113947939Y-85764823D01*
X114017980Y-85753216D01*
X114084555Y-85782478D01*
X114220858Y-85898893D01*
X114220862Y-85898896D01*
X114224617Y-85902103D01*
X114440491Y-86034391D01*
X114445061Y-86036284D01*
X114445065Y-86036286D01*
X114641042Y-86117462D01*
X114674402Y-86131280D01*
X114759025Y-86151596D01*
X114915777Y-86189229D01*
X114915783Y-86189230D01*
X114920590Y-86190384D01*
X115172993Y-86210249D01*
X115425396Y-86190384D01*
X115430203Y-86189230D01*
X115430209Y-86189229D01*
X115586961Y-86151596D01*
X115671584Y-86131280D01*
X115704944Y-86117462D01*
X115900921Y-86036286D01*
X115900925Y-86036284D01*
X115905495Y-86034391D01*
X115909715Y-86031805D01*
X115909725Y-86031800D01*
X116097832Y-85916527D01*
X116166365Y-85897988D01*
X116229502Y-85916527D01*
X116333990Y-85980558D01*
X116334000Y-85980563D01*
X116338220Y-85983149D01*
X116342790Y-85985042D01*
X116342794Y-85985044D01*
X116539703Y-86066606D01*
X116572131Y-86080038D01*
X116656754Y-86100354D01*
X116813506Y-86137987D01*
X116813512Y-86137988D01*
X116818319Y-86139142D01*
X117070722Y-86159007D01*
X117323125Y-86139142D01*
X117327932Y-86137988D01*
X117327938Y-86137987D01*
X117484690Y-86100354D01*
X117569313Y-86080038D01*
X117601741Y-86066606D01*
X117798650Y-85985044D01*
X117798654Y-85985042D01*
X117803224Y-85983149D01*
X118019098Y-85850861D01*
X118211620Y-85686431D01*
X118376050Y-85493909D01*
X118508338Y-85278035D01*
X118510231Y-85273465D01*
X118510235Y-85273457D01*
X118521122Y-85247172D01*
X118565670Y-85191891D01*
X118571696Y-85187956D01*
X118665999Y-85130167D01*
X118766266Y-85068723D01*
X118958788Y-84904293D01*
X119123218Y-84711771D01*
X119255506Y-84495897D01*
X119264047Y-84475279D01*
X119350501Y-84266559D01*
X119350502Y-84266557D01*
X119352395Y-84261986D01*
X119387305Y-84116575D01*
X119410344Y-84020611D01*
X119410345Y-84020605D01*
X119411499Y-84015798D01*
X119431364Y-83763395D01*
X119411499Y-83510992D01*
X119405877Y-83487571D01*
X119368361Y-83331307D01*
X119352395Y-83264804D01*
X119342206Y-83240205D01*
X119257401Y-83035467D01*
X119257399Y-83035463D01*
X119255506Y-83030893D01*
X119123218Y-82815019D01*
X118958788Y-82622497D01*
X118766266Y-82458067D01*
X118550392Y-82325779D01*
X118545822Y-82323886D01*
X118545818Y-82323884D01*
X118321054Y-82230784D01*
X118321052Y-82230783D01*
X118316481Y-82228890D01*
X118220249Y-82205787D01*
X118075106Y-82170941D01*
X118075100Y-82170940D01*
X118070293Y-82169786D01*
X117817890Y-82149921D01*
X117565487Y-82169786D01*
X117560680Y-82170940D01*
X117560674Y-82170941D01*
X117415531Y-82205787D01*
X117319299Y-82228890D01*
X117314728Y-82230783D01*
X117314726Y-82230784D01*
X117089962Y-82323884D01*
X117089958Y-82323886D01*
X117085388Y-82325779D01*
X116869514Y-82458067D01*
X116676992Y-82622497D01*
X116512562Y-82815019D01*
X116380274Y-83030893D01*
X116378381Y-83035463D01*
X116378377Y-83035471D01*
X116367490Y-83061756D01*
X116322942Y-83117037D01*
X116316916Y-83120971D01*
X116145883Y-83225781D01*
X116077350Y-83244320D01*
X116014213Y-83225781D01*
X115909725Y-83161750D01*
X115909714Y-83161744D01*
X115905495Y-83159159D01*
X115900925Y-83157266D01*
X115900921Y-83157264D01*
X115676157Y-83064164D01*
X115676155Y-83064163D01*
X115671584Y-83062270D01*
X115586961Y-83041954D01*
X115430209Y-83004321D01*
X115430203Y-83004320D01*
X115425396Y-83003166D01*
X115172993Y-82983301D01*
X114920590Y-83003166D01*
X114915783Y-83004320D01*
X114915777Y-83004321D01*
X114759025Y-83041954D01*
X114674402Y-83062270D01*
X114669831Y-83064163D01*
X114669829Y-83064164D01*
X114445065Y-83157264D01*
X114445061Y-83157266D01*
X114440491Y-83159159D01*
X114224617Y-83291447D01*
X114032095Y-83455877D01*
X113867665Y-83648399D01*
X113808657Y-83744692D01*
X113806892Y-83747572D01*
X113754244Y-83795203D01*
X113684203Y-83806810D01*
X113617628Y-83777548D01*
X113606830Y-83768325D01*
X113491196Y-83669564D01*
X113481325Y-83661133D01*
X113481321Y-83661130D01*
X113477566Y-83657923D01*
X113261692Y-83525635D01*
X113257122Y-83523742D01*
X113257118Y-83523740D01*
X113032354Y-83430640D01*
X113032352Y-83430639D01*
X113027781Y-83428746D01*
X112943158Y-83408430D01*
X112786406Y-83370797D01*
X112786400Y-83370796D01*
X112781593Y-83369642D01*
X112529190Y-83349777D01*
X112276787Y-83369642D01*
X112271980Y-83370796D01*
X112271974Y-83370797D01*
X112115222Y-83408430D01*
X112030599Y-83428746D01*
X112026028Y-83430639D01*
X112026026Y-83430640D01*
X111801262Y-83523740D01*
X111801258Y-83523742D01*
X111796688Y-83525635D01*
X111792468Y-83528221D01*
X111592069Y-83651026D01*
X111523535Y-83669564D01*
X111455859Y-83648108D01*
X111418801Y-83609428D01*
X111411223Y-83597061D01*
X111300065Y-83415668D01*
X111135635Y-83223146D01*
X110943113Y-83058716D01*
X110727239Y-82926428D01*
X110722669Y-82924535D01*
X110722665Y-82924533D01*
X110497901Y-82831433D01*
X110497899Y-82831432D01*
X110493328Y-82829539D01*
X110248614Y-82770789D01*
X110248612Y-82770788D01*
X110247140Y-82770435D01*
X110247214Y-82770126D01*
X110185323Y-82740787D01*
X110147795Y-82680520D01*
X110148807Y-82609530D01*
X110188039Y-82550357D01*
X110214516Y-82533227D01*
X110237998Y-82521919D01*
X110238001Y-82521917D01*
X110242246Y-82519873D01*
X110246148Y-82517213D01*
X110391249Y-82418284D01*
X110460011Y-82371403D01*
X110653216Y-82192135D01*
X110670752Y-82170146D01*
X110814610Y-81989754D01*
X110814613Y-81989750D01*
X110817545Y-81986073D01*
X110849928Y-81929985D01*
X110894941Y-81852019D01*
X110949326Y-81757821D01*
X111017817Y-81583309D01*
X111043893Y-81516870D01*
X111043893Y-81516868D01*
X111045617Y-81512477D01*
X111047648Y-81503577D01*
X111103215Y-81260124D01*
X111103215Y-81260122D01*
X111104265Y-81255523D01*
X111104975Y-81246059D01*
X111123609Y-80997394D01*
X111123961Y-80992697D01*
X111120058Y-80940611D01*
X111104618Y-80734576D01*
X111104617Y-80734571D01*
X111104265Y-80729871D01*
X111094733Y-80688108D01*
X111076814Y-80609598D01*
X111081156Y-80538735D01*
X111123121Y-80481468D01*
X111189385Y-80455980D01*
X111258910Y-80470363D01*
X111304688Y-80511962D01*
X111454538Y-80738109D01*
X111457062Y-80741055D01*
X111656542Y-80973888D01*
X111665255Y-80984058D01*
X111668119Y-80986669D01*
X111668124Y-80986674D01*
X111770790Y-81080266D01*
X111904598Y-81202248D01*
X112168940Y-81389372D01*
X112172350Y-81391203D01*
X112172353Y-81391205D01*
X112450867Y-81540764D01*
X112450874Y-81540767D01*
X112454274Y-81542593D01*
X112561187Y-81584011D01*
X112735993Y-81651731D01*
X112756274Y-81659588D01*
X112803990Y-81671589D01*
X113066592Y-81737637D01*
X113066599Y-81737638D01*
X113070363Y-81738585D01*
X113391779Y-81778385D01*
X113634601Y-81778385D01*
X113650960Y-81777376D01*
X113873102Y-81763675D01*
X113873109Y-81763674D01*
X113876970Y-81763436D01*
X114195326Y-81703925D01*
X114503956Y-81605743D01*
X114555737Y-81581920D01*
X114794659Y-81471999D01*
X114794667Y-81471995D01*
X114798181Y-81470378D01*
X114821863Y-81455715D01*
X115070233Y-81301931D01*
X115070235Y-81301930D01*
X115073542Y-81299882D01*
X115085120Y-81290565D01*
X115322840Y-81099273D01*
X115322844Y-81099270D01*
X115325863Y-81096840D01*
X115551320Y-80864329D01*
X115555887Y-80858282D01*
X115652858Y-80729871D01*
X115746496Y-80605875D01*
X115768459Y-80567835D01*
X115824734Y-80470363D01*
X115908431Y-80325395D01*
X115942818Y-80244153D01*
X116010317Y-80084681D01*
X117577265Y-80084681D01*
X117578232Y-80090993D01*
X117578232Y-80090995D01*
X117600511Y-80236426D01*
X117607307Y-80280791D01*
X117676212Y-80466838D01*
X117781157Y-80635207D01*
X117917846Y-80779004D01*
X117923085Y-80782651D01*
X117923088Y-80782653D01*
X118058097Y-80876622D01*
X118080683Y-80892342D01*
X118263002Y-80970581D01*
X118269257Y-80971866D01*
X118269259Y-80971867D01*
X118279094Y-80973888D01*
X118395439Y-80997797D01*
X118429467Y-81010094D01*
X118480483Y-81037363D01*
X118560749Y-81080267D01*
X118560751Y-81080268D01*
X118566203Y-81083182D01*
X118619249Y-81099273D01*
X118758297Y-81141453D01*
X118758303Y-81141454D01*
X118764223Y-81143250D01*
X118837337Y-81150451D01*
X118915469Y-81158147D01*
X118915476Y-81158147D01*
X118918549Y-81158450D01*
X119021765Y-81158450D01*
X119024838Y-81158147D01*
X119024845Y-81158147D01*
X119102977Y-81150451D01*
X119176091Y-81143250D01*
X119182011Y-81141454D01*
X119182017Y-81141453D01*
X119329086Y-81096840D01*
X119374111Y-81083182D01*
X119556607Y-80985635D01*
X119716567Y-80854360D01*
X119847842Y-80694400D01*
X119945389Y-80511904D01*
X119964404Y-80449220D01*
X120003660Y-80319810D01*
X120003661Y-80319804D01*
X120005457Y-80313884D01*
X120025740Y-80107950D01*
X120005457Y-79902016D01*
X120003661Y-79896096D01*
X120003660Y-79896090D01*
X119957996Y-79745557D01*
X119945389Y-79703996D01*
X119847842Y-79521500D01*
X119716567Y-79361540D01*
X119556607Y-79230265D01*
X119374111Y-79132718D01*
X119325033Y-79117831D01*
X119182017Y-79074447D01*
X119182011Y-79074446D01*
X119176091Y-79072650D01*
X119102977Y-79065449D01*
X119024845Y-79057753D01*
X119024838Y-79057753D01*
X119021765Y-79057450D01*
X118918549Y-79057450D01*
X118915476Y-79057753D01*
X118915469Y-79057753D01*
X118823739Y-79066788D01*
X118764223Y-79072650D01*
X118764207Y-79072488D01*
X118718144Y-79072343D01*
X118676296Y-79063743D01*
X118661995Y-79060804D01*
X118661993Y-79060804D01*
X118655736Y-79059518D01*
X118507064Y-79059518D01*
X118359158Y-79074559D01*
X118169859Y-79133951D01*
X117996391Y-79230234D01*
X117845855Y-79359465D01*
X117841946Y-79364515D01*
X117841945Y-79364516D01*
X117728325Y-79511300D01*
X117728323Y-79511304D01*
X117724415Y-79516352D01*
X117637042Y-79694474D01*
X117635441Y-79700656D01*
X117635441Y-79700657D01*
X117590814Y-79873018D01*
X117587313Y-79886538D01*
X117586990Y-79892912D01*
X117586989Y-79892917D01*
X117582221Y-79986949D01*
X117577265Y-80084681D01*
X116010317Y-80084681D01*
X116033158Y-80030717D01*
X116033161Y-80030709D01*
X116034671Y-80027141D01*
X116123303Y-79715634D01*
X116125957Y-79698541D01*
X116172386Y-79399435D01*
X116172982Y-79395596D01*
X116174095Y-79359465D01*
X116182836Y-79075753D01*
X116182836Y-79075747D01*
X116182955Y-79071879D01*
X116153072Y-78749390D01*
X116117377Y-78586400D01*
X116084616Y-78436807D01*
X116084615Y-78436804D01*
X116083786Y-78433018D01*
X116055549Y-78352887D01*
X115977436Y-78131218D01*
X115977434Y-78131214D01*
X115976146Y-78127558D01*
X115972594Y-78120423D01*
X115930264Y-78035414D01*
X118010751Y-78035414D01*
X118012046Y-78043190D01*
X118012046Y-78043193D01*
X118024214Y-78116263D01*
X118034770Y-78179650D01*
X118038694Y-78187760D01*
X118038695Y-78187764D01*
X118092669Y-78299323D01*
X118098453Y-78311277D01*
X118153165Y-78371654D01*
X118190587Y-78412952D01*
X118190589Y-78412954D01*
X118196639Y-78419630D01*
X118204323Y-78424331D01*
X118204325Y-78424332D01*
X118314652Y-78491821D01*
X118314656Y-78491823D01*
X118321375Y-78495933D01*
X118328906Y-78498255D01*
X118376364Y-78512888D01*
X118376368Y-78512889D01*
X118379582Y-78513880D01*
X119174553Y-78668407D01*
X120140523Y-78856173D01*
X120140526Y-78856173D01*
X120143837Y-78856817D01*
X120147197Y-78857103D01*
X120147205Y-78857104D01*
X120172724Y-78859275D01*
X120204530Y-78861981D01*
X120212306Y-78860686D01*
X120212309Y-78860686D01*
X120339872Y-78839443D01*
X120339871Y-78839443D01*
X120348766Y-78837962D01*
X120356876Y-78834038D01*
X120356880Y-78834037D01*
X120472279Y-78778205D01*
X120472281Y-78778204D01*
X120480393Y-78774279D01*
X120540890Y-78719459D01*
X120582068Y-78682145D01*
X120582070Y-78682143D01*
X120588746Y-78676093D01*
X120597702Y-78661452D01*
X120660937Y-78558080D01*
X120660939Y-78558076D01*
X120665049Y-78551357D01*
X120682996Y-78493150D01*
X120893363Y-77410908D01*
X121025289Y-76732209D01*
X121025289Y-76732206D01*
X121025933Y-76728895D01*
X121027163Y-76714447D01*
X121029656Y-76685137D01*
X121031097Y-76668202D01*
X121029018Y-76655713D01*
X121008559Y-76532860D01*
X121007078Y-76523966D01*
X121003154Y-76515856D01*
X121003153Y-76515852D01*
X120947321Y-76400453D01*
X120947320Y-76400451D01*
X120943395Y-76392339D01*
X120861917Y-76302424D01*
X120851261Y-76290664D01*
X120851259Y-76290662D01*
X120845209Y-76283986D01*
X120837525Y-76279285D01*
X120837523Y-76279284D01*
X120727196Y-76211795D01*
X120727192Y-76211793D01*
X120720473Y-76207683D01*
X120691391Y-76198716D01*
X120665484Y-76190728D01*
X120665480Y-76190727D01*
X120662266Y-76189736D01*
X119419797Y-75948224D01*
X118901325Y-75847443D01*
X118901322Y-75847443D01*
X118898011Y-75846799D01*
X118894651Y-75846513D01*
X118894643Y-75846512D01*
X118869124Y-75844341D01*
X118837318Y-75841635D01*
X118829542Y-75842930D01*
X118829539Y-75842930D01*
X118722983Y-75860675D01*
X118693082Y-75865654D01*
X118684972Y-75869578D01*
X118684968Y-75869579D01*
X118569569Y-75925411D01*
X118569567Y-75925412D01*
X118561455Y-75929337D01*
X118534470Y-75953790D01*
X118459780Y-76021471D01*
X118459778Y-76021473D01*
X118453102Y-76027523D01*
X118448401Y-76035207D01*
X118448400Y-76035209D01*
X118380911Y-76145536D01*
X118380909Y-76145540D01*
X118376799Y-76152259D01*
X118374477Y-76159790D01*
X118360079Y-76206488D01*
X118358852Y-76210466D01*
X118204636Y-77003839D01*
X118024313Y-77931519D01*
X118015915Y-77974721D01*
X118015629Y-77978081D01*
X118015628Y-77978089D01*
X118013930Y-77998051D01*
X118010751Y-78035414D01*
X115930264Y-78035414D01*
X115833512Y-77841110D01*
X115833511Y-77841108D01*
X115831784Y-77837640D01*
X115708561Y-77651677D01*
X115655033Y-77570894D01*
X115655027Y-77570886D01*
X115652890Y-77567661D01*
X115617853Y-77526766D01*
X115444700Y-77324661D01*
X115444696Y-77324657D01*
X115442173Y-77321712D01*
X115439309Y-77319101D01*
X115439304Y-77319096D01*
X115226250Y-77124872D01*
X115202830Y-77103522D01*
X114938488Y-76916398D01*
X114935075Y-76914565D01*
X114656561Y-76765006D01*
X114656554Y-76765003D01*
X114653154Y-76763177D01*
X114420225Y-76672940D01*
X114354776Y-76647585D01*
X114354774Y-76647584D01*
X114351154Y-76646182D01*
X114174872Y-76601845D01*
X114040836Y-76568133D01*
X114040829Y-76568132D01*
X114037065Y-76567185D01*
X113715649Y-76527385D01*
X113472827Y-76527385D01*
X113459390Y-76528214D01*
X113234326Y-76542095D01*
X113234319Y-76542096D01*
X113230458Y-76542334D01*
X112912102Y-76601845D01*
X112603472Y-76700027D01*
X112599950Y-76701647D01*
X112599951Y-76701647D01*
X112312769Y-76833771D01*
X112312761Y-76833775D01*
X112309247Y-76835392D01*
X112305946Y-76837436D01*
X112305944Y-76837437D01*
X112045636Y-76998613D01*
X112033886Y-77005888D01*
X112030855Y-77008327D01*
X111785757Y-77205557D01*
X111781565Y-77208930D01*
X111556108Y-77441441D01*
X111553773Y-77444533D01*
X111548580Y-77451410D01*
X111360932Y-77699895D01*
X111358991Y-77703257D01*
X111358989Y-77703260D01*
X111342759Y-77731371D01*
X111198997Y-77980375D01*
X111182337Y-78019736D01*
X111074270Y-78275053D01*
X111074267Y-78275061D01*
X111072757Y-78278629D01*
X110984125Y-78590136D01*
X110983530Y-78593970D01*
X110983529Y-78593974D01*
X110955628Y-78773716D01*
X110934446Y-78910174D01*
X110934326Y-78914055D01*
X110934326Y-78914060D01*
X110924675Y-79227349D01*
X110924473Y-79233891D01*
X110954356Y-79556380D01*
X110988831Y-79713799D01*
X111023642Y-79872752D01*
X111022425Y-79873018D01*
X111021866Y-79938753D01*
X110982976Y-79998151D01*
X110918146Y-80027093D01*
X110847961Y-80016392D01*
X110802765Y-79980788D01*
X110777887Y-79949591D01*
X110682030Y-79829391D01*
X110656151Y-79796939D01*
X110656149Y-79796937D01*
X110653216Y-79793259D01*
X110460011Y-79613991D01*
X110253417Y-79473137D01*
X110246142Y-79468177D01*
X110246140Y-79468176D01*
X110242246Y-79465521D01*
X110121785Y-79407510D01*
X110009033Y-79353211D01*
X110009031Y-79353210D01*
X110004784Y-79351165D01*
X109752930Y-79273479D01*
X109748280Y-79272778D01*
X109748275Y-79272777D01*
X109636953Y-79255998D01*
X109492311Y-79234197D01*
X109266429Y-79234197D01*
X109198308Y-79214195D01*
X109151815Y-79160539D01*
X109141711Y-79090265D01*
X109171205Y-79025685D01*
X109184356Y-79012594D01*
X109210648Y-78990022D01*
X109261573Y-78946305D01*
X109265483Y-78941254D01*
X109379103Y-78794470D01*
X109379105Y-78794466D01*
X109383013Y-78789418D01*
X109470386Y-78611296D01*
X109471987Y-78605113D01*
X109518515Y-78425413D01*
X109518516Y-78425409D01*
X109520115Y-78419232D01*
X109520438Y-78412858D01*
X109520439Y-78412853D01*
X109526247Y-78298304D01*
X109530163Y-78221089D01*
X109527205Y-78201776D01*
X109501088Y-78031291D01*
X109501088Y-78031290D01*
X109500121Y-78024979D01*
X109431216Y-77838932D01*
X109326271Y-77670563D01*
X109189582Y-77526766D01*
X109184343Y-77523119D01*
X109184340Y-77523117D01*
X109031992Y-77417080D01*
X109026745Y-77413428D01*
X108844426Y-77335189D01*
X108838171Y-77333904D01*
X108838169Y-77333903D01*
X108793195Y-77324661D01*
X108711989Y-77307973D01*
X108677961Y-77295676D01*
X108557015Y-77231028D01*
X108546679Y-77225503D01*
X108546677Y-77225502D01*
X108541225Y-77222588D01*
X108452671Y-77195726D01*
X108349131Y-77164317D01*
X108349125Y-77164316D01*
X108343205Y-77162520D01*
X108270091Y-77155319D01*
X108191959Y-77147623D01*
X108191952Y-77147623D01*
X108188879Y-77147320D01*
X108085663Y-77147320D01*
X108082590Y-77147623D01*
X108082583Y-77147623D01*
X108004451Y-77155319D01*
X107931337Y-77162520D01*
X107925417Y-77164316D01*
X107925411Y-77164317D01*
X107782395Y-77207701D01*
X107733317Y-77222588D01*
X107550821Y-77320135D01*
X107390861Y-77451410D01*
X107259586Y-77611370D01*
X107162039Y-77793866D01*
X107149741Y-77834407D01*
X107103768Y-77985960D01*
X107103767Y-77985966D01*
X107101971Y-77991886D01*
X107081688Y-78197820D01*
X104433283Y-78197820D01*
X104432621Y-78196311D01*
X104391459Y-78102470D01*
X104391457Y-78102466D01*
X104389365Y-78097697D01*
X104382401Y-78087037D01*
X104282028Y-77933406D01*
X104266227Y-77909220D01*
X104262702Y-77905391D01*
X104262699Y-77905387D01*
X104155013Y-77788411D01*
X104113745Y-77743582D01*
X104100792Y-77733500D01*
X103940194Y-77608500D01*
X103940192Y-77608498D01*
X103936081Y-77605299D01*
X103902825Y-77587302D01*
X103852434Y-77537289D01*
X103837082Y-77467972D01*
X103861642Y-77401359D01*
X103902825Y-77365674D01*
X103931500Y-77350156D01*
X103936081Y-77347677D01*
X103952126Y-77335189D01*
X104109626Y-77212600D01*
X104113745Y-77209394D01*
X104196822Y-77119149D01*
X104262699Y-77047589D01*
X104262702Y-77047585D01*
X104266227Y-77043756D01*
X104344173Y-76924451D01*
X104386513Y-76859645D01*
X104386515Y-76859641D01*
X104389365Y-76855279D01*
X104391504Y-76850404D01*
X104462205Y-76689220D01*
X104479801Y-76649104D01*
X104486999Y-76620682D01*
X104533788Y-76435915D01*
X104533788Y-76435914D01*
X104535069Y-76430856D01*
X104535877Y-76421112D01*
X104553231Y-76211677D01*
X104553661Y-76206488D01*
X104549791Y-76159790D01*
X104535500Y-75987316D01*
X104535499Y-75987311D01*
X104535069Y-75982120D01*
X104516778Y-75909890D01*
X104481083Y-75768934D01*
X104481083Y-75768933D01*
X104479801Y-75763872D01*
X104415935Y-75618271D01*
X104391459Y-75562470D01*
X104391457Y-75562466D01*
X104389365Y-75557697D01*
X104379105Y-75541992D01*
X104269078Y-75373584D01*
X104266227Y-75369220D01*
X104262702Y-75365391D01*
X104262699Y-75365387D01*
X104137744Y-75229652D01*
X104113745Y-75203582D01*
X104022834Y-75132822D01*
X103940194Y-75068500D01*
X103940192Y-75068498D01*
X103936081Y-75065299D01*
X103902825Y-75047302D01*
X103852434Y-74997289D01*
X103837082Y-74927972D01*
X103861642Y-74861359D01*
X103902825Y-74825674D01*
X103918137Y-74817388D01*
X103936081Y-74807677D01*
X103981482Y-74772340D01*
X104109626Y-74672600D01*
X104113745Y-74669394D01*
X104248336Y-74523191D01*
X104262699Y-74507589D01*
X104262702Y-74507585D01*
X104266227Y-74503756D01*
X104318553Y-74423665D01*
X104386513Y-74319645D01*
X104386515Y-74319641D01*
X104389365Y-74315279D01*
X104479801Y-74109104D01*
X104496213Y-74044297D01*
X104533788Y-73895915D01*
X104533788Y-73895914D01*
X104535069Y-73890856D01*
X104537146Y-73865799D01*
X104553231Y-73671677D01*
X104553661Y-73666488D01*
X104540949Y-73513077D01*
X104535500Y-73447316D01*
X104535499Y-73447311D01*
X104535069Y-73442120D01*
X104519062Y-73378909D01*
X104481083Y-73228934D01*
X104481083Y-73228933D01*
X104479801Y-73223872D01*
X104475286Y-73213579D01*
X108625144Y-73213579D01*
X108626931Y-73221639D01*
X108626931Y-73221641D01*
X108628548Y-73228934D01*
X108659366Y-73367946D01*
X108732376Y-73508196D01*
X108737953Y-73514282D01*
X108737955Y-73514285D01*
X108750444Y-73527914D01*
X108839197Y-73624770D01*
X108846156Y-73629203D01*
X108846159Y-73629206D01*
X108912826Y-73671677D01*
X108972549Y-73709725D01*
X109085483Y-73745332D01*
X109250660Y-73774457D01*
X109472928Y-73813649D01*
X109536540Y-73845176D01*
X109573010Y-73906090D01*
X109570757Y-73977051D01*
X109535360Y-74031370D01*
X109534723Y-74031944D01*
X109529378Y-74035827D01*
X109524957Y-74040737D01*
X109524956Y-74040738D01*
X109503527Y-74064538D01*
X109401591Y-74177749D01*
X109398290Y-74183467D01*
X109321279Y-74316854D01*
X109306104Y-74343137D01*
X109247089Y-74524765D01*
X109246399Y-74531326D01*
X109246399Y-74531328D01*
X109237936Y-74611847D01*
X109227127Y-74714693D01*
X109227817Y-74721258D01*
X109242017Y-74856359D01*
X109247089Y-74904621D01*
X109306104Y-75086249D01*
X109401591Y-75251637D01*
X109406009Y-75256544D01*
X109406010Y-75256545D01*
X109441987Y-75296501D01*
X109529378Y-75393559D01*
X109591922Y-75439000D01*
X109673719Y-75498429D01*
X109683879Y-75505811D01*
X109689907Y-75508495D01*
X109689909Y-75508496D01*
X109852312Y-75580802D01*
X109858343Y-75583487D01*
X109917278Y-75596014D01*
X110038687Y-75621821D01*
X110038692Y-75621821D01*
X110045144Y-75623193D01*
X110236118Y-75623193D01*
X110242570Y-75621821D01*
X110242575Y-75621821D01*
X110363984Y-75596014D01*
X110422919Y-75583487D01*
X110428950Y-75580802D01*
X110591353Y-75508496D01*
X110591355Y-75508495D01*
X110597383Y-75505811D01*
X110607544Y-75498429D01*
X110670098Y-75452980D01*
X112174746Y-75452980D01*
X112178591Y-75466644D01*
X112178851Y-75471862D01*
X112180054Y-75479218D01*
X112181469Y-75484248D01*
X112182177Y-75498429D01*
X112188969Y-75510901D01*
X112190381Y-75515919D01*
X112193195Y-75522836D01*
X112195692Y-75527420D01*
X112199536Y-75541084D01*
X112208929Y-75551728D01*
X112211423Y-75556308D01*
X112215712Y-75562433D01*
X112219160Y-75566340D01*
X112225950Y-75578808D01*
X112237475Y-75587094D01*
X112240936Y-75591016D01*
X112246460Y-75596014D01*
X112250702Y-75599064D01*
X112260096Y-75609709D01*
X112273178Y-75615223D01*
X112277417Y-75618271D01*
X112283919Y-75621917D01*
X112288734Y-75623947D01*
X112300263Y-75632236D01*
X112364238Y-75643517D01*
X112390398Y-75648130D01*
X112390403Y-75648131D01*
X115703377Y-76232298D01*
X115912885Y-76269240D01*
X115912886Y-76269240D01*
X115935706Y-76273264D01*
X115949370Y-76269419D01*
X115954588Y-76269159D01*
X115961944Y-76267956D01*
X115966974Y-76266541D01*
X115981155Y-76265833D01*
X115993627Y-76259041D01*
X115998645Y-76257629D01*
X116005562Y-76254815D01*
X116010146Y-76252318D01*
X116023810Y-76248474D01*
X116034454Y-76239081D01*
X116039034Y-76236587D01*
X116045159Y-76232298D01*
X116049066Y-76228850D01*
X116061534Y-76222060D01*
X116069820Y-76210535D01*
X116073742Y-76207074D01*
X116078740Y-76201550D01*
X116081790Y-76197308D01*
X116092435Y-76187914D01*
X116097949Y-76174832D01*
X116100997Y-76170593D01*
X116104642Y-76164093D01*
X116106672Y-76159277D01*
X116114962Y-76147747D01*
X116130855Y-76057612D01*
X116665142Y-73027529D01*
X116665142Y-73027525D01*
X116669165Y-73004708D01*
X116665320Y-72991041D01*
X116665059Y-72985823D01*
X116663856Y-72978465D01*
X116662443Y-72973441D01*
X116661735Y-72959259D01*
X116654945Y-72946790D01*
X116653532Y-72941768D01*
X116650719Y-72934855D01*
X116648221Y-72930267D01*
X116644376Y-72916604D01*
X116634983Y-72905960D01*
X116632484Y-72901372D01*
X116628207Y-72895264D01*
X116624752Y-72891349D01*
X116617962Y-72878880D01*
X116606436Y-72870593D01*
X116602984Y-72866681D01*
X116597446Y-72861670D01*
X116593210Y-72858624D01*
X116583815Y-72847979D01*
X116570735Y-72842465D01*
X116566501Y-72839421D01*
X116559978Y-72835763D01*
X116555174Y-72833738D01*
X116543649Y-72825452D01*
X116529673Y-72822988D01*
X116529672Y-72822987D01*
X116453514Y-72809558D01*
X116453509Y-72809557D01*
X112931027Y-72188448D01*
X112931026Y-72188448D01*
X112908206Y-72184424D01*
X112894542Y-72188269D01*
X112889324Y-72188529D01*
X112881968Y-72189732D01*
X112876938Y-72191147D01*
X112862757Y-72191855D01*
X112850285Y-72198647D01*
X112845267Y-72200059D01*
X112838350Y-72202873D01*
X112833766Y-72205370D01*
X112820102Y-72209214D01*
X112809458Y-72218607D01*
X112804878Y-72221101D01*
X112798753Y-72225390D01*
X112794846Y-72228838D01*
X112782378Y-72235628D01*
X112774092Y-72247153D01*
X112770170Y-72250614D01*
X112765172Y-72256138D01*
X112762122Y-72260380D01*
X112751477Y-72269774D01*
X112745963Y-72282856D01*
X112742915Y-72287095D01*
X112739269Y-72293597D01*
X112737239Y-72298412D01*
X112728950Y-72309941D01*
X112713056Y-72400076D01*
X112713056Y-72400078D01*
X112178770Y-75430159D01*
X112174746Y-75452980D01*
X110670098Y-75452980D01*
X110689340Y-75439000D01*
X110751884Y-75393559D01*
X110839275Y-75296501D01*
X110875252Y-75256545D01*
X110875253Y-75256544D01*
X110879671Y-75251637D01*
X110975158Y-75086249D01*
X111034173Y-74904621D01*
X111039246Y-74856359D01*
X111053445Y-74721258D01*
X111054135Y-74714693D01*
X111043326Y-74611847D01*
X111034863Y-74531328D01*
X111034863Y-74531326D01*
X111034173Y-74524765D01*
X110975158Y-74343137D01*
X110959984Y-74316854D01*
X110882972Y-74183467D01*
X110879671Y-74177749D01*
X110777736Y-74064538D01*
X110756306Y-74040738D01*
X110756305Y-74040737D01*
X110751884Y-74035827D01*
X110635926Y-73951578D01*
X110602725Y-73927456D01*
X110602724Y-73927455D01*
X110597383Y-73923575D01*
X110591355Y-73920891D01*
X110591353Y-73920890D01*
X110428950Y-73848584D01*
X110428949Y-73848584D01*
X110422919Y-73845899D01*
X110416464Y-73844527D01*
X110416455Y-73844524D01*
X110370181Y-73834688D01*
X110307708Y-73800960D01*
X110273387Y-73738810D01*
X110278115Y-73667971D01*
X110290112Y-73643742D01*
X110306076Y-73618685D01*
X110324106Y-73590384D01*
X110363904Y-73527914D01*
X110363906Y-73527911D01*
X110368340Y-73520950D01*
X110392734Y-73443581D01*
X110413403Y-73378027D01*
X110413404Y-73378023D01*
X110415885Y-73370153D01*
X110422782Y-73212189D01*
X110398608Y-73103149D01*
X110403391Y-73032314D01*
X110445712Y-72975309D01*
X110470373Y-72960770D01*
X110604311Y-72901138D01*
X110604318Y-72901134D01*
X110610344Y-72898451D01*
X110632057Y-72882676D01*
X110710818Y-72825452D01*
X110764845Y-72786199D01*
X110810251Y-72735771D01*
X110888213Y-72649185D01*
X110888214Y-72649184D01*
X110892632Y-72644277D01*
X110988119Y-72478889D01*
X111047134Y-72297261D01*
X111048203Y-72287095D01*
X111066406Y-72113898D01*
X111067096Y-72107333D01*
X111058456Y-72025126D01*
X111047824Y-71923968D01*
X111047824Y-71923966D01*
X111047134Y-71917405D01*
X110988119Y-71735777D01*
X110975277Y-71713533D01*
X110906081Y-71593683D01*
X110892632Y-71570389D01*
X110764845Y-71428467D01*
X110610344Y-71316215D01*
X110604316Y-71313531D01*
X110604314Y-71313530D01*
X110441911Y-71241224D01*
X110441910Y-71241224D01*
X110435880Y-71238539D01*
X110342479Y-71218686D01*
X110255536Y-71200205D01*
X110255531Y-71200205D01*
X110249079Y-71198833D01*
X110058105Y-71198833D01*
X110051653Y-71200205D01*
X110051648Y-71200205D01*
X109964705Y-71218686D01*
X109871304Y-71238539D01*
X109865274Y-71241224D01*
X109865273Y-71241224D01*
X109702870Y-71313530D01*
X109702868Y-71313531D01*
X109696840Y-71316215D01*
X109542339Y-71428467D01*
X109414552Y-71570389D01*
X109401103Y-71593683D01*
X109331908Y-71713533D01*
X109319065Y-71735777D01*
X109260050Y-71917405D01*
X109259360Y-71923966D01*
X109259360Y-71923968D01*
X109248728Y-72025126D01*
X109240088Y-72107333D01*
X109240778Y-72113898D01*
X109258982Y-72287095D01*
X109260050Y-72297261D01*
X109262090Y-72303539D01*
X109291304Y-72393451D01*
X109293331Y-72464419D01*
X109256669Y-72525216D01*
X109192957Y-72556542D01*
X109183613Y-72557757D01*
X109175732Y-72557413D01*
X109021365Y-72591635D01*
X108881115Y-72664645D01*
X108875029Y-72670222D01*
X108875026Y-72670224D01*
X108813092Y-72726977D01*
X108764541Y-72771466D01*
X108760108Y-72778425D01*
X108760105Y-72778428D01*
X108731718Y-72822987D01*
X108679586Y-72904818D01*
X108677104Y-72912691D01*
X108634523Y-73047741D01*
X108634522Y-73047745D01*
X108632041Y-73055615D01*
X108631681Y-73063865D01*
X108625557Y-73204129D01*
X108625144Y-73213579D01*
X104475286Y-73213579D01*
X104439484Y-73131957D01*
X104391459Y-73022470D01*
X104391457Y-73022466D01*
X104389365Y-73017697D01*
X104366309Y-72982406D01*
X104269078Y-72833584D01*
X104266227Y-72829220D01*
X104262702Y-72825391D01*
X104262699Y-72825387D01*
X104123030Y-72673668D01*
X104091609Y-72610003D01*
X104099596Y-72539457D01*
X104144454Y-72484428D01*
X104171696Y-72470275D01*
X104286709Y-72427377D01*
X104301543Y-72416273D01*
X104396555Y-72345147D01*
X104403766Y-72339749D01*
X104470492Y-72250614D01*
X104485994Y-72229906D01*
X104485995Y-72229904D01*
X104491394Y-72222692D01*
X104542494Y-72085689D01*
X104549005Y-72025126D01*
X104549005Y-70227850D01*
X104542494Y-70167287D01*
X104491394Y-70030284D01*
X104403766Y-69913227D01*
X104370429Y-69888271D01*
X104293923Y-69830999D01*
X104293921Y-69830998D01*
X104286709Y-69825599D01*
X104149706Y-69774499D01*
X104112800Y-69770531D01*
X104092493Y-69768348D01*
X104092490Y-69768348D01*
X104089143Y-69767988D01*
X102291867Y-69767988D01*
X102288520Y-69768348D01*
X102288517Y-69768348D01*
X102268210Y-69770531D01*
X102231304Y-69774499D01*
X102094301Y-69825599D01*
X102087089Y-69830998D01*
X102087087Y-69830999D01*
X102010581Y-69888271D01*
X101977244Y-69913227D01*
X101889616Y-70030284D01*
X101838516Y-70167287D01*
X101832005Y-70227850D01*
X101832005Y-72025126D01*
X101838516Y-72085689D01*
X101889616Y-72222692D01*
X101895015Y-72229904D01*
X101895016Y-72229906D01*
X101910518Y-72250614D01*
X101977244Y-72339749D01*
X101984455Y-72345147D01*
X102079468Y-72416273D01*
X102094301Y-72427377D01*
X102209313Y-72470275D01*
X102266147Y-72512821D01*
X102290958Y-72579341D01*
X102275866Y-72648715D01*
X102257980Y-72673668D01*
X102118311Y-72825387D01*
X102118308Y-72825391D01*
X102114783Y-72829220D01*
X102111932Y-72833584D01*
X102014702Y-72982406D01*
X101991645Y-73017697D01*
X101989553Y-73022466D01*
X101989551Y-73022470D01*
X101941526Y-73131957D01*
X101901209Y-73223872D01*
X101899927Y-73228933D01*
X101899927Y-73228934D01*
X101861948Y-73378909D01*
X101845941Y-73442120D01*
X101845511Y-73447311D01*
X101845510Y-73447316D01*
X101840061Y-73513077D01*
X101827349Y-73666488D01*
X101827779Y-73671677D01*
X101843865Y-73865799D01*
X101845941Y-73890856D01*
X101847222Y-73895914D01*
X101847222Y-73895915D01*
X101884798Y-74044297D01*
X101901209Y-74109104D01*
X101991645Y-74315279D01*
X101994495Y-74319641D01*
X101994497Y-74319645D01*
X102062457Y-74423665D01*
X102114783Y-74503756D01*
X102118308Y-74507585D01*
X102118311Y-74507589D01*
X102132674Y-74523191D01*
X102267265Y-74669394D01*
X102271384Y-74672600D01*
X102399529Y-74772340D01*
X102444929Y-74807677D01*
X102462874Y-74817388D01*
X102478185Y-74825674D01*
X102528576Y-74875687D01*
X102543928Y-74945004D01*
X102519368Y-75011617D01*
X102478186Y-75047301D01*
X102444929Y-75065299D01*
X102440818Y-75068498D01*
X102440816Y-75068500D01*
X102358176Y-75132822D01*
X102267265Y-75203582D01*
X102243266Y-75229652D01*
X102118311Y-75365387D01*
X102118308Y-75365391D01*
X102114783Y-75369220D01*
X102111932Y-75373584D01*
X102001906Y-75541992D01*
X101991645Y-75557697D01*
X101989553Y-75562466D01*
X101989551Y-75562470D01*
X101965075Y-75618271D01*
X101901209Y-75763872D01*
X101899927Y-75768933D01*
X101899927Y-75768934D01*
X101864232Y-75909890D01*
X101845941Y-75982120D01*
X101845511Y-75987311D01*
X101845510Y-75987316D01*
X101831219Y-76159790D01*
X101827349Y-76206488D01*
X101827779Y-76211677D01*
X101845134Y-76421112D01*
X101845941Y-76430856D01*
X101847222Y-76435914D01*
X101847222Y-76435915D01*
X101894012Y-76620682D01*
X101901209Y-76649104D01*
X101918805Y-76689220D01*
X101989507Y-76850404D01*
X101991645Y-76855279D01*
X101994495Y-76859641D01*
X101994497Y-76859645D01*
X102036837Y-76924451D01*
X102114783Y-77043756D01*
X102118308Y-77047585D01*
X102118311Y-77047589D01*
X102184188Y-77119149D01*
X102267265Y-77209394D01*
X102271384Y-77212600D01*
X102428885Y-77335189D01*
X102444929Y-77347677D01*
X102449510Y-77350156D01*
X102478185Y-77365674D01*
X102528576Y-77415687D01*
X102543928Y-77485004D01*
X102519368Y-77551617D01*
X102478186Y-77587301D01*
X102444929Y-77605299D01*
X102440818Y-77608498D01*
X102440816Y-77608500D01*
X102280218Y-77733500D01*
X102267265Y-77743582D01*
X102225997Y-77788411D01*
X102118311Y-77905387D01*
X102118308Y-77905391D01*
X102114783Y-77909220D01*
X102098982Y-77933406D01*
X101998610Y-78087037D01*
X101991645Y-78097697D01*
X101989553Y-78102466D01*
X101989551Y-78102470D01*
X101948389Y-78196311D01*
X101901209Y-78303872D01*
X101899927Y-78308933D01*
X101899927Y-78308934D01*
X101853300Y-78493061D01*
X101845941Y-78522120D01*
X101845511Y-78527311D01*
X101845510Y-78527316D01*
X101838416Y-78612933D01*
X101827349Y-78746488D01*
X101827779Y-78751677D01*
X101844252Y-78950468D01*
X101845941Y-78970856D01*
X101847222Y-78975914D01*
X101847222Y-78975915D01*
X101897082Y-79172805D01*
X101901209Y-79189104D01*
X101921075Y-79234394D01*
X101982072Y-79373454D01*
X101991645Y-79395279D01*
X101994495Y-79399641D01*
X101994497Y-79399645D01*
X102039580Y-79468649D01*
X102114783Y-79583756D01*
X102118308Y-79587585D01*
X102118311Y-79587589D01*
X102166135Y-79639539D01*
X102267265Y-79749394D01*
X102271384Y-79752600D01*
X102437831Y-79882152D01*
X102444929Y-79887677D01*
X102471426Y-79902016D01*
X102478185Y-79905674D01*
X102528576Y-79955687D01*
X102543928Y-80025004D01*
X102519368Y-80091617D01*
X102478186Y-80127301D01*
X102444929Y-80145299D01*
X102440818Y-80148498D01*
X102440816Y-80148500D01*
X102333580Y-80231966D01*
X102267265Y-80283582D01*
X102232064Y-80321820D01*
X102118311Y-80445387D01*
X102118308Y-80445391D01*
X102114783Y-80449220D01*
X102102171Y-80468524D01*
X101996470Y-80630312D01*
X101991645Y-80637697D01*
X101989553Y-80642466D01*
X101989551Y-80642470D01*
X101946308Y-80741055D01*
X101901209Y-80843872D01*
X101899927Y-80848933D01*
X101899927Y-80848934D01*
X101852210Y-81037363D01*
X101845941Y-81062120D01*
X101845511Y-81067311D01*
X101845510Y-81067316D01*
X101834885Y-81195541D01*
X101827349Y-81286488D01*
X101827779Y-81291677D01*
X101845338Y-81503577D01*
X101845941Y-81510856D01*
X101847222Y-81515914D01*
X101847222Y-81515915D01*
X101894536Y-81702751D01*
X101901209Y-81729104D01*
X101925543Y-81784580D01*
X101989323Y-81929985D01*
X101991645Y-81935279D01*
X101994495Y-81939641D01*
X101994497Y-81939645D01*
X102069580Y-82054568D01*
X102114783Y-82123756D01*
X102118308Y-82127585D01*
X102118311Y-82127589D01*
X102199695Y-82215994D01*
X102267265Y-82289394D01*
X102271384Y-82292600D01*
X102439871Y-82423740D01*
X102444929Y-82427677D01*
X102449510Y-82430156D01*
X102478185Y-82445674D01*
X102528576Y-82495687D01*
X102543928Y-82565004D01*
X102519368Y-82631617D01*
X102478186Y-82667301D01*
X102444929Y-82685299D01*
X102440818Y-82688498D01*
X102440816Y-82688500D01*
X102278267Y-82815019D01*
X102267265Y-82823582D01*
X102244514Y-82848296D01*
X102118311Y-82985387D01*
X102118308Y-82985391D01*
X102114783Y-82989220D01*
X102111932Y-82993584D01*
X101997852Y-83168197D01*
X101991645Y-83177697D01*
X101989553Y-83182466D01*
X101989551Y-83182470D01*
X101940342Y-83294658D01*
X101901209Y-83383872D01*
X101899927Y-83388933D01*
X101899927Y-83388934D01*
X101852238Y-83577255D01*
X101845941Y-83602120D01*
X101845511Y-83607311D01*
X101845510Y-83607316D01*
X101831404Y-83777548D01*
X101827349Y-83826488D01*
X96632650Y-83826488D01*
X96823689Y-83709419D01*
X97016211Y-83544989D01*
X97017202Y-83546149D01*
X97073568Y-83515370D01*
X97148569Y-83522082D01*
X97163390Y-83528221D01*
X97230455Y-83556000D01*
X97236722Y-83558596D01*
X97314443Y-83577255D01*
X97478097Y-83616545D01*
X97478103Y-83616546D01*
X97482910Y-83617700D01*
X97735313Y-83637565D01*
X97987716Y-83617700D01*
X97992523Y-83616546D01*
X97992529Y-83616545D01*
X98156183Y-83577255D01*
X98233904Y-83558596D01*
X98238477Y-83556702D01*
X98463241Y-83463602D01*
X98463245Y-83463600D01*
X98467815Y-83461707D01*
X98683689Y-83329419D01*
X98876211Y-83164989D01*
X99040641Y-82972467D01*
X99172929Y-82756593D01*
X99177240Y-82746187D01*
X99267924Y-82527255D01*
X99267925Y-82527253D01*
X99269818Y-82522682D01*
X99270974Y-82517868D01*
X99270976Y-82517861D01*
X99284850Y-82460074D01*
X99325537Y-82393678D01*
X99472455Y-82268197D01*
X99476211Y-82264989D01*
X99640641Y-82072467D01*
X99772929Y-81856593D01*
X99783478Y-81831127D01*
X99867924Y-81627255D01*
X99867925Y-81627253D01*
X99869818Y-81622682D01*
X99898412Y-81503577D01*
X99927767Y-81381307D01*
X99927768Y-81381301D01*
X99928922Y-81376494D01*
X99948787Y-81124091D01*
X99928922Y-80871688D01*
X99927311Y-80864974D01*
X99870973Y-80630312D01*
X99869818Y-80625500D01*
X99860295Y-80602510D01*
X99774824Y-80396163D01*
X99774822Y-80396159D01*
X99772929Y-80391589D01*
X99640641Y-80175715D01*
X99476211Y-79983193D01*
X99283689Y-79818763D01*
X99067815Y-79686475D01*
X99063245Y-79684582D01*
X99063241Y-79684580D01*
X98838477Y-79591480D01*
X98838475Y-79591479D01*
X98833904Y-79589586D01*
X98703750Y-79558339D01*
X98592529Y-79531637D01*
X98592523Y-79531636D01*
X98587716Y-79530482D01*
X98335313Y-79510617D01*
X98082910Y-79530482D01*
X98078103Y-79531636D01*
X98078097Y-79531637D01*
X97966876Y-79558339D01*
X97836722Y-79589586D01*
X97832151Y-79591479D01*
X97832149Y-79591480D01*
X97607385Y-79684580D01*
X97607381Y-79684582D01*
X97602811Y-79686475D01*
X97386937Y-79818763D01*
X97194415Y-79983193D01*
X97029985Y-80175715D01*
X96897697Y-80391589D01*
X96895804Y-80396159D01*
X96895802Y-80396163D01*
X96810331Y-80602510D01*
X96800808Y-80625500D01*
X96799653Y-80630312D01*
X96799650Y-80630321D01*
X96785776Y-80688108D01*
X96745089Y-80754504D01*
X96594415Y-80883193D01*
X96593424Y-80882033D01*
X96537058Y-80912812D01*
X96462057Y-80906100D01*
X96378477Y-80871480D01*
X96378475Y-80871479D01*
X96373904Y-80869586D01*
X96289281Y-80849270D01*
X96132529Y-80811637D01*
X96132523Y-80811636D01*
X96127716Y-80810482D01*
X95875313Y-80790617D01*
X95622910Y-80810482D01*
X95618103Y-80811636D01*
X95618097Y-80811637D01*
X95461345Y-80849270D01*
X95376722Y-80869586D01*
X95372151Y-80871479D01*
X95372149Y-80871480D01*
X95147385Y-80964580D01*
X95147381Y-80964582D01*
X95142811Y-80966475D01*
X94926937Y-81098763D01*
X94734415Y-81263193D01*
X94569985Y-81455715D01*
X94437697Y-81671589D01*
X94435804Y-81676159D01*
X94435802Y-81676163D01*
X94381319Y-81807697D01*
X94336771Y-81862978D01*
X94269407Y-81885399D01*
X94199075Y-81866911D01*
X94072045Y-81789066D01*
X94072034Y-81789060D01*
X94067815Y-81786475D01*
X94063245Y-81784582D01*
X94063241Y-81784580D01*
X93838477Y-81691480D01*
X93838475Y-81691479D01*
X93833904Y-81689586D01*
X93741363Y-81667369D01*
X93592529Y-81631637D01*
X93592523Y-81631636D01*
X93587716Y-81630482D01*
X93335313Y-81610617D01*
X93082910Y-81630482D01*
X93078103Y-81631636D01*
X93078097Y-81631637D01*
X92929263Y-81667369D01*
X92836722Y-81689586D01*
X92832151Y-81691479D01*
X92832149Y-81691480D01*
X92607385Y-81784580D01*
X92607381Y-81784582D01*
X92602811Y-81786475D01*
X92386937Y-81918763D01*
X92194415Y-82083193D01*
X92191207Y-82086949D01*
X92188525Y-82089631D01*
X92126213Y-82123657D01*
X92055398Y-82118592D01*
X92003619Y-82082367D01*
X91879419Y-81936949D01*
X91876211Y-81933193D01*
X91683689Y-81768763D01*
X91467815Y-81636475D01*
X91463245Y-81634582D01*
X91463241Y-81634580D01*
X91238477Y-81541480D01*
X91238475Y-81541479D01*
X91233904Y-81539586D01*
X91139284Y-81516870D01*
X90992529Y-81481637D01*
X90992523Y-81481636D01*
X90987716Y-81480482D01*
X90735313Y-81460617D01*
X90730383Y-81461005D01*
X90730375Y-81461005D01*
X90718968Y-81461903D01*
X90649487Y-81447309D01*
X90598927Y-81397468D01*
X90583339Y-81328204D01*
X90607672Y-81261508D01*
X90625234Y-81243271D01*
X90624794Y-81242797D01*
X90782098Y-81096840D01*
X90817999Y-81063529D01*
X90838866Y-81037363D01*
X90979393Y-80861148D01*
X90979396Y-80861144D01*
X90982328Y-80857467D01*
X91022959Y-80787093D01*
X91058652Y-80725270D01*
X91114109Y-80629215D01*
X91186257Y-80445387D01*
X91208676Y-80388264D01*
X91208676Y-80388262D01*
X91210400Y-80383871D01*
X91224563Y-80321820D01*
X91267998Y-80131518D01*
X91267998Y-80131516D01*
X91269048Y-80126917D01*
X91270470Y-80107950D01*
X91288392Y-79868788D01*
X91288744Y-79864091D01*
X91282047Y-79774719D01*
X91269401Y-79605970D01*
X91269400Y-79605965D01*
X91269048Y-79601265D01*
X91259762Y-79560578D01*
X91211450Y-79348911D01*
X91211450Y-79348910D01*
X91210400Y-79344311D01*
X91146347Y-79181107D01*
X91140079Y-79110389D01*
X91173040Y-79047507D01*
X91234764Y-79012428D01*
X91305656Y-79016288D01*
X91359322Y-79053097D01*
X91441295Y-79148775D01*
X91446854Y-79155264D01*
X91449718Y-79157875D01*
X91449723Y-79157880D01*
X91576530Y-79273479D01*
X91686197Y-79373454D01*
X91950539Y-79560578D01*
X91953949Y-79562409D01*
X91953952Y-79562411D01*
X92232466Y-79711970D01*
X92232473Y-79711973D01*
X92235873Y-79713799D01*
X92537873Y-79830794D01*
X92625547Y-79852845D01*
X92848191Y-79908843D01*
X92848198Y-79908844D01*
X92851962Y-79909791D01*
X93173378Y-79949591D01*
X93416200Y-79949591D01*
X93429637Y-79948762D01*
X93654701Y-79934881D01*
X93654708Y-79934880D01*
X93658569Y-79934642D01*
X93976925Y-79875131D01*
X94285555Y-79776949D01*
X94410707Y-79719370D01*
X94576258Y-79643205D01*
X94576266Y-79643201D01*
X94579780Y-79641584D01*
X94583083Y-79639539D01*
X94851832Y-79473137D01*
X94851834Y-79473136D01*
X94855141Y-79471088D01*
X94934150Y-79407510D01*
X95104439Y-79270479D01*
X95104443Y-79270476D01*
X95107462Y-79268046D01*
X95332919Y-79035535D01*
X95528095Y-78777081D01*
X95542859Y-78751510D01*
X95633812Y-78593974D01*
X95690030Y-78496601D01*
X95725436Y-78412952D01*
X95814757Y-78201923D01*
X95814760Y-78201915D01*
X95816270Y-78198347D01*
X95904902Y-77886840D01*
X95913997Y-77828253D01*
X95948990Y-77602820D01*
X95954581Y-77566802D01*
X95955364Y-77541396D01*
X95960529Y-77373754D01*
X97436041Y-77373754D01*
X97437008Y-77380066D01*
X97437008Y-77380068D01*
X97457321Y-77512670D01*
X97466083Y-77569864D01*
X97534988Y-77755911D01*
X97639933Y-77924280D01*
X97776622Y-78068077D01*
X97781861Y-78071724D01*
X97781864Y-78071726D01*
X97888953Y-78146262D01*
X97939459Y-78181415D01*
X98121778Y-78259654D01*
X98128036Y-78260940D01*
X98128039Y-78260941D01*
X98218946Y-78279622D01*
X98316114Y-78299591D01*
X98413551Y-78299591D01*
X98450126Y-78305016D01*
X98623453Y-78357594D01*
X98623459Y-78357595D01*
X98629379Y-78359391D01*
X98690145Y-78365376D01*
X98780625Y-78374288D01*
X98780632Y-78374288D01*
X98783705Y-78374591D01*
X98886921Y-78374591D01*
X98889994Y-78374288D01*
X98890001Y-78374288D01*
X98980481Y-78365376D01*
X99041247Y-78359391D01*
X99047167Y-78357595D01*
X99047173Y-78357594D01*
X99220499Y-78305016D01*
X99239267Y-78299323D01*
X99421763Y-78201776D01*
X99581723Y-78070501D01*
X99712998Y-77910541D01*
X99810545Y-77728045D01*
X99828464Y-77668972D01*
X99868816Y-77535951D01*
X99868817Y-77535945D01*
X99870613Y-77530025D01*
X99890896Y-77324091D01*
X99870613Y-77118157D01*
X99868817Y-77112237D01*
X99868816Y-77112231D01*
X99812340Y-76926055D01*
X99810545Y-76920137D01*
X99712998Y-76737641D01*
X99581723Y-76577681D01*
X99421763Y-76446406D01*
X99239267Y-76348859D01*
X99190189Y-76333972D01*
X99047173Y-76290588D01*
X99047167Y-76290587D01*
X99041247Y-76288791D01*
X98968133Y-76281590D01*
X98890001Y-76273894D01*
X98889994Y-76273894D01*
X98886921Y-76273591D01*
X98783705Y-76273591D01*
X98780632Y-76273894D01*
X98780625Y-76273894D01*
X98702493Y-76281590D01*
X98629379Y-76288791D01*
X98623459Y-76290587D01*
X98623453Y-76290588D01*
X98450126Y-76343166D01*
X98413551Y-76348591D01*
X98365840Y-76348591D01*
X98217934Y-76363632D01*
X98028635Y-76423024D01*
X97855167Y-76519307D01*
X97850322Y-76523466D01*
X97850321Y-76523467D01*
X97839380Y-76532860D01*
X97704631Y-76648538D01*
X97700722Y-76653588D01*
X97700721Y-76653589D01*
X97587101Y-76800373D01*
X97587099Y-76800377D01*
X97583191Y-76805425D01*
X97495818Y-76983547D01*
X97494217Y-76989729D01*
X97494217Y-76989730D01*
X97449479Y-77162520D01*
X97446089Y-77175611D01*
X97445766Y-77181985D01*
X97445765Y-77181990D01*
X97441398Y-77268114D01*
X97436041Y-77373754D01*
X95960529Y-77373754D01*
X95964435Y-77246959D01*
X95964435Y-77246953D01*
X95964554Y-77243085D01*
X95934671Y-76920596D01*
X95896783Y-76747593D01*
X95866215Y-76608013D01*
X95866214Y-76608010D01*
X95865385Y-76604224D01*
X95854650Y-76573759D01*
X95759035Y-76302424D01*
X95759033Y-76302420D01*
X95757745Y-76298764D01*
X95750387Y-76283986D01*
X95615111Y-76012316D01*
X95615110Y-76012314D01*
X95613383Y-76008846D01*
X95505817Y-75846512D01*
X95436632Y-75742100D01*
X95436626Y-75742092D01*
X95434489Y-75738867D01*
X95334210Y-75621821D01*
X95226299Y-75495867D01*
X95226295Y-75495863D01*
X95223772Y-75492918D01*
X95220908Y-75490307D01*
X95220903Y-75490302D01*
X94987295Y-75277341D01*
X94984429Y-75274728D01*
X94720087Y-75087604D01*
X94678550Y-75065299D01*
X94630923Y-75039724D01*
X97038418Y-75039724D01*
X97039108Y-75046289D01*
X97052641Y-75175045D01*
X97058380Y-75229652D01*
X97117395Y-75411280D01*
X97120698Y-75417002D01*
X97120699Y-75417003D01*
X97143200Y-75455975D01*
X97212882Y-75576668D01*
X97217300Y-75581575D01*
X97217301Y-75581576D01*
X97278982Y-75650080D01*
X97340669Y-75718590D01*
X97495170Y-75830842D01*
X97501198Y-75833526D01*
X97501200Y-75833527D01*
X97608914Y-75881484D01*
X97669634Y-75908518D01*
X97749109Y-75925411D01*
X97849978Y-75946852D01*
X97849983Y-75946852D01*
X97856435Y-75948224D01*
X98047409Y-75948224D01*
X98053861Y-75946852D01*
X98053866Y-75946852D01*
X98154735Y-75925411D01*
X98234210Y-75908518D01*
X98294930Y-75881484D01*
X98402644Y-75833527D01*
X98402646Y-75833526D01*
X98408674Y-75830842D01*
X98563175Y-75718590D01*
X98624862Y-75650080D01*
X98686543Y-75581576D01*
X98686544Y-75581575D01*
X98690962Y-75576668D01*
X98760644Y-75455975D01*
X98783145Y-75417003D01*
X98783146Y-75417002D01*
X98786449Y-75411280D01*
X98845464Y-75229652D01*
X98851204Y-75175045D01*
X98864736Y-75046289D01*
X98865426Y-75039724D01*
X98853507Y-74926317D01*
X98846154Y-74856359D01*
X98846154Y-74856357D01*
X98845464Y-74849796D01*
X98786449Y-74668168D01*
X98690962Y-74502780D01*
X98657292Y-74465385D01*
X98567597Y-74365769D01*
X98567596Y-74365768D01*
X98563175Y-74360858D01*
X98408674Y-74248606D01*
X98402646Y-74245922D01*
X98402644Y-74245921D01*
X98240241Y-74173615D01*
X98240240Y-74173615D01*
X98234210Y-74170930D01*
X98140810Y-74151077D01*
X98053866Y-74132596D01*
X98053861Y-74132596D01*
X98047409Y-74131224D01*
X97856435Y-74131224D01*
X97849983Y-74132596D01*
X97849978Y-74132596D01*
X97763034Y-74151077D01*
X97669634Y-74170930D01*
X97663604Y-74173615D01*
X97663603Y-74173615D01*
X97501200Y-74245921D01*
X97501198Y-74245922D01*
X97495170Y-74248606D01*
X97340669Y-74360858D01*
X97336248Y-74365768D01*
X97336247Y-74365769D01*
X97246553Y-74465385D01*
X97212882Y-74502780D01*
X97117395Y-74668168D01*
X97058380Y-74849796D01*
X97057690Y-74856357D01*
X97057690Y-74856359D01*
X97050337Y-74926317D01*
X97038418Y-75039724D01*
X94630923Y-75039724D01*
X94438160Y-74936212D01*
X94438153Y-74936209D01*
X94434753Y-74934383D01*
X94132753Y-74817388D01*
X93956471Y-74773051D01*
X93822435Y-74739339D01*
X93822428Y-74739338D01*
X93818664Y-74738391D01*
X93497248Y-74698591D01*
X93254426Y-74698591D01*
X93240989Y-74699420D01*
X93015925Y-74713301D01*
X93015918Y-74713302D01*
X93012057Y-74713540D01*
X92693701Y-74773051D01*
X92385071Y-74871233D01*
X92381549Y-74872853D01*
X92381550Y-74872853D01*
X92094368Y-75004977D01*
X92094360Y-75004981D01*
X92090846Y-75006598D01*
X92087545Y-75008642D01*
X92087543Y-75008643D01*
X91847394Y-75157337D01*
X91815485Y-75177094D01*
X91812454Y-75179533D01*
X91581493Y-75365387D01*
X91563164Y-75380136D01*
X91337707Y-75612647D01*
X91142531Y-75871101D01*
X91140590Y-75874463D01*
X91140588Y-75874466D01*
X91093240Y-75956475D01*
X90980596Y-76151581D01*
X90959552Y-76201299D01*
X90855869Y-76446259D01*
X90855866Y-76446267D01*
X90854356Y-76449835D01*
X90765724Y-76761342D01*
X90765129Y-76765176D01*
X90765128Y-76765180D01*
X90746242Y-76886845D01*
X90716045Y-77081380D01*
X90715925Y-77085261D01*
X90715925Y-77085266D01*
X90707038Y-77373754D01*
X90706072Y-77405097D01*
X90706429Y-77408949D01*
X90706429Y-77408950D01*
X90707596Y-77421548D01*
X90735955Y-77727586D01*
X90740846Y-77749919D01*
X90802597Y-78031883D01*
X90805241Y-78043958D01*
X90806531Y-78047618D01*
X90806531Y-78047619D01*
X90901795Y-78317957D01*
X90912881Y-78349418D01*
X90914606Y-78352882D01*
X90914608Y-78352887D01*
X90978199Y-78480594D01*
X90990658Y-78550489D01*
X90963351Y-78616024D01*
X90904948Y-78656392D01*
X90833991Y-78658777D01*
X90779706Y-78629122D01*
X90659883Y-78517943D01*
X90624794Y-78485385D01*
X90462738Y-78374897D01*
X90410925Y-78339571D01*
X90410923Y-78339570D01*
X90407029Y-78336915D01*
X90249268Y-78260941D01*
X90173816Y-78224605D01*
X90173814Y-78224604D01*
X90169567Y-78222559D01*
X89917713Y-78144873D01*
X89913063Y-78144172D01*
X89913058Y-78144171D01*
X89779820Y-78124089D01*
X89657094Y-78105591D01*
X89393532Y-78105591D01*
X89247791Y-78127558D01*
X89137576Y-78144170D01*
X89137574Y-78144170D01*
X89135945Y-78144416D01*
X89135944Y-78144416D01*
X89132913Y-78144873D01*
X89132815Y-78144225D01*
X89065517Y-78140106D01*
X89008247Y-78098145D01*
X88982755Y-78031883D01*
X88997133Y-77962357D01*
X89008697Y-77944479D01*
X89083521Y-77847814D01*
X89083523Y-77847811D01*
X89087435Y-77842757D01*
X89174808Y-77664635D01*
X89178163Y-77651677D01*
X89222937Y-77478752D01*
X89222938Y-77478748D01*
X89224537Y-77472571D01*
X89224860Y-77466197D01*
X89224861Y-77466192D01*
X89231754Y-77330254D01*
X89234585Y-77274428D01*
X89231364Y-77253398D01*
X89205510Y-77084630D01*
X89205510Y-77084629D01*
X89204543Y-77078318D01*
X89135638Y-76892271D01*
X89030693Y-76723902D01*
X88894004Y-76580105D01*
X88888765Y-76576458D01*
X88888762Y-76576456D01*
X88736414Y-76470419D01*
X88731167Y-76466767D01*
X88548848Y-76388528D01*
X88542590Y-76387242D01*
X88542587Y-76387241D01*
X88451680Y-76368559D01*
X88354512Y-76348591D01*
X88257075Y-76348591D01*
X88220500Y-76343166D01*
X88047173Y-76290588D01*
X88047167Y-76290587D01*
X88041247Y-76288791D01*
X87968133Y-76281590D01*
X87890001Y-76273894D01*
X87889994Y-76273894D01*
X87886921Y-76273591D01*
X87783705Y-76273591D01*
X87780632Y-76273894D01*
X87780625Y-76273894D01*
X87702493Y-76281590D01*
X87629379Y-76288791D01*
X87623459Y-76290587D01*
X87623453Y-76290588D01*
X87480437Y-76333972D01*
X87431359Y-76348859D01*
X87248863Y-76446406D01*
X87088903Y-76577681D01*
X86957628Y-76737641D01*
X86860081Y-76920137D01*
X86858286Y-76926055D01*
X86801810Y-77112231D01*
X86801809Y-77112237D01*
X86800013Y-77118157D01*
X86779730Y-77324091D01*
X78381616Y-77324091D01*
X78412811Y-77289445D01*
X78412812Y-77289444D01*
X78417230Y-77284537D01*
X78494858Y-77150081D01*
X78509413Y-77124872D01*
X78509414Y-77124871D01*
X78512717Y-77119149D01*
X78571732Y-76937521D01*
X78574133Y-76914682D01*
X78591004Y-76754158D01*
X78591694Y-76747593D01*
X78581179Y-76647544D01*
X78572422Y-76564228D01*
X78572422Y-76564226D01*
X78571732Y-76557665D01*
X78512717Y-76376037D01*
X78495990Y-76347064D01*
X78458359Y-76281887D01*
X78417230Y-76210649D01*
X78406486Y-76198716D01*
X78293865Y-76073638D01*
X78293864Y-76073637D01*
X78289443Y-76068727D01*
X78134942Y-75956475D01*
X78128914Y-75953791D01*
X78128912Y-75953790D01*
X77966509Y-75881484D01*
X77966508Y-75881484D01*
X77960478Y-75878799D01*
X77867077Y-75858946D01*
X77780134Y-75840465D01*
X77780129Y-75840465D01*
X77773677Y-75839093D01*
X77582703Y-75839093D01*
X77576251Y-75840465D01*
X77576246Y-75840465D01*
X77489303Y-75858946D01*
X77395902Y-75878799D01*
X77389872Y-75881484D01*
X77389871Y-75881484D01*
X77227468Y-75953790D01*
X77227466Y-75953791D01*
X77221438Y-75956475D01*
X77066937Y-76068727D01*
X77062516Y-76073637D01*
X77062515Y-76073638D01*
X76949895Y-76198716D01*
X76939150Y-76210649D01*
X76898021Y-76281887D01*
X76860391Y-76347064D01*
X76843663Y-76376037D01*
X76784648Y-76557665D01*
X76783958Y-76564226D01*
X76783958Y-76564228D01*
X76775201Y-76647544D01*
X76764686Y-76747593D01*
X72209920Y-76747593D01*
X72325510Y-76714448D01*
X72325511Y-76714448D01*
X72413492Y-76689220D01*
X72424089Y-76679773D01*
X72428661Y-76677254D01*
X72434757Y-76672940D01*
X72438652Y-76669468D01*
X72451083Y-76662618D01*
X72459311Y-76651053D01*
X72463200Y-76647586D01*
X72468188Y-76642019D01*
X72471215Y-76637764D01*
X72481812Y-76628317D01*
X72487261Y-76615209D01*
X72490287Y-76610955D01*
X72493906Y-76604425D01*
X72495908Y-76599609D01*
X72504139Y-76588039D01*
X72506535Y-76574044D01*
X72508540Y-76569221D01*
X72510614Y-76562056D01*
X72511494Y-76556914D01*
X72516944Y-76543803D01*
X72516165Y-76529624D01*
X72517047Y-76524472D01*
X72517474Y-76517045D01*
X72517187Y-76511820D01*
X72519583Y-76497826D01*
X72494355Y-76409845D01*
X71662320Y-73508196D01*
X71639879Y-73429934D01*
X71630432Y-73419337D01*
X71627913Y-73414765D01*
X71623599Y-73408669D01*
X71620127Y-73404774D01*
X71613277Y-73392343D01*
X71601712Y-73384115D01*
X71598245Y-73380226D01*
X71592678Y-73375238D01*
X71588423Y-73372211D01*
X71578976Y-73361614D01*
X71565868Y-73356165D01*
X71561614Y-73353139D01*
X71555084Y-73349520D01*
X71550268Y-73347518D01*
X71538698Y-73339287D01*
X71524704Y-73336891D01*
X71519883Y-73334887D01*
X71512713Y-73332812D01*
X71507573Y-73331932D01*
X71494461Y-73326482D01*
X71480282Y-73327261D01*
X71475130Y-73326379D01*
X71467703Y-73325952D01*
X71462479Y-73326239D01*
X71448485Y-73323843D01*
X71426211Y-73330230D01*
X71426210Y-73330230D01*
X71426207Y-73330231D01*
X71426206Y-73330231D01*
X70761091Y-73520950D01*
X67987944Y-74316138D01*
X67987943Y-74316138D01*
X67899962Y-74341366D01*
X67889365Y-74350813D01*
X67884793Y-74353332D01*
X67878697Y-74357646D01*
X67874802Y-74361118D01*
X67862371Y-74367968D01*
X67854143Y-74379533D01*
X67850254Y-74383000D01*
X67845266Y-74388567D01*
X67842239Y-74392822D01*
X67831642Y-74402269D01*
X67826193Y-74415377D01*
X67823167Y-74419631D01*
X67819548Y-74426161D01*
X67817546Y-74430977D01*
X67809315Y-74442547D01*
X67806919Y-74456541D01*
X67804915Y-74461362D01*
X67802840Y-74468532D01*
X67801960Y-74473672D01*
X67796510Y-74486784D01*
X67797289Y-74500963D01*
X67796407Y-74506115D01*
X67795980Y-74513542D01*
X67796267Y-74518766D01*
X67793871Y-74532760D01*
X67797785Y-74546409D01*
X67800258Y-74555034D01*
X67800258Y-74555035D01*
X68648347Y-77512670D01*
X68648347Y-77512672D01*
X68663311Y-77564859D01*
X68662860Y-77635854D01*
X68624098Y-77695335D01*
X68559331Y-77724417D01*
X68490943Y-77714695D01*
X68447770Y-77695473D01*
X68447769Y-77695473D01*
X68441739Y-77692788D01*
X68336276Y-77670371D01*
X68261395Y-77654454D01*
X68261390Y-77654454D01*
X68254938Y-77653082D01*
X68063964Y-77653082D01*
X68057512Y-77654454D01*
X68057507Y-77654454D01*
X67982626Y-77670371D01*
X67877163Y-77692788D01*
X67871133Y-77695473D01*
X67871132Y-77695473D01*
X67708729Y-77767779D01*
X67708727Y-77767780D01*
X67702699Y-77770464D01*
X67697358Y-77774344D01*
X67697357Y-77774345D01*
X67677997Y-77788411D01*
X67548198Y-77882716D01*
X67543777Y-77887626D01*
X67543776Y-77887627D01*
X67426327Y-78018068D01*
X67420411Y-78024638D01*
X67393932Y-78070501D01*
X67328441Y-78183935D01*
X67324924Y-78190026D01*
X67265909Y-78371654D01*
X67265219Y-78378215D01*
X67265219Y-78378217D01*
X67253487Y-78489841D01*
X67245947Y-78561582D01*
X62712563Y-78561582D01*
X62459283Y-77654454D01*
X61950837Y-75833445D01*
X63082691Y-75833445D01*
X63083381Y-75840010D01*
X63095340Y-75953790D01*
X63102653Y-76023373D01*
X63161668Y-76205001D01*
X63164971Y-76210723D01*
X63164972Y-76210724D01*
X63166734Y-76213775D01*
X63257155Y-76370389D01*
X63261573Y-76375296D01*
X63261574Y-76375297D01*
X63341665Y-76464247D01*
X63384942Y-76512311D01*
X63447366Y-76557665D01*
X63511726Y-76604425D01*
X63539443Y-76624563D01*
X63545471Y-76627247D01*
X63545473Y-76627248D01*
X63707876Y-76699554D01*
X63713907Y-76702239D01*
X63771346Y-76714448D01*
X63894251Y-76740573D01*
X63894256Y-76740573D01*
X63900708Y-76741945D01*
X64091682Y-76741945D01*
X64098134Y-76740573D01*
X64098139Y-76740573D01*
X64221049Y-76714447D01*
X64271016Y-76703826D01*
X64341806Y-76709228D01*
X64398438Y-76752045D01*
X64422932Y-76818682D01*
X64422767Y-76825778D01*
X64423091Y-76825772D01*
X64423235Y-76834028D01*
X64422300Y-76842235D01*
X64445671Y-76998613D01*
X64448961Y-77006180D01*
X64448962Y-77006183D01*
X64466966Y-77047589D01*
X64508719Y-77143614D01*
X64607147Y-77267356D01*
X64613788Y-77272270D01*
X64613789Y-77272271D01*
X64702223Y-77337708D01*
X64734249Y-77361406D01*
X64881362Y-77419355D01*
X64977789Y-77430342D01*
X65030253Y-77436320D01*
X65030254Y-77436320D01*
X65038460Y-77437255D01*
X65084715Y-77430342D01*
X65151493Y-77420362D01*
X65151496Y-77420361D01*
X65155573Y-77419752D01*
X65159536Y-77418616D01*
X65159539Y-77418615D01*
X65804040Y-77233808D01*
X65804045Y-77233806D01*
X65808004Y-77232671D01*
X65824490Y-77225503D01*
X65909021Y-77188748D01*
X65909020Y-77188748D01*
X65916597Y-77185454D01*
X66040339Y-77087026D01*
X66046783Y-77078318D01*
X66129474Y-76966567D01*
X66129476Y-76966564D01*
X66134389Y-76959924D01*
X66192339Y-76812811D01*
X66204937Y-76702239D01*
X66209303Y-76663920D01*
X66209303Y-76663919D01*
X66210238Y-76655713D01*
X66186867Y-76499335D01*
X66183577Y-76491768D01*
X66183576Y-76491765D01*
X66135988Y-76382322D01*
X66123819Y-76354334D01*
X66025391Y-76230592D01*
X66002664Y-76213775D01*
X65904932Y-76141457D01*
X65904929Y-76141455D01*
X65898289Y-76136542D01*
X65890605Y-76133515D01*
X65890601Y-76133513D01*
X65758863Y-76081619D01*
X65758859Y-76081618D01*
X65751177Y-76078592D01*
X65664592Y-76068727D01*
X65602285Y-76061628D01*
X65594078Y-76060693D01*
X65566304Y-76064844D01*
X65481045Y-76077586D01*
X65481042Y-76077587D01*
X65476965Y-76078196D01*
X65473002Y-76079332D01*
X65472999Y-76079333D01*
X65037553Y-76204194D01*
X64966558Y-76203743D01*
X64907077Y-76164981D01*
X64877994Y-76100214D01*
X64882989Y-76044140D01*
X64889737Y-76023373D01*
X64897051Y-75953790D01*
X64909009Y-75840010D01*
X64909699Y-75833445D01*
X64902387Y-75763872D01*
X64890427Y-75650080D01*
X64890427Y-75650078D01*
X64889737Y-75643517D01*
X64830722Y-75461889D01*
X64825579Y-75452980D01*
X64775006Y-75365387D01*
X64735235Y-75296501D01*
X64728669Y-75289208D01*
X64611870Y-75159490D01*
X64611869Y-75159489D01*
X64607448Y-75154579D01*
X64481153Y-75062820D01*
X64458289Y-75046208D01*
X64458288Y-75046207D01*
X64452947Y-75042327D01*
X64446919Y-75039643D01*
X64446917Y-75039642D01*
X64284514Y-74967336D01*
X64284513Y-74967336D01*
X64278483Y-74964651D01*
X64185083Y-74944798D01*
X64098139Y-74926317D01*
X64098134Y-74926317D01*
X64091682Y-74924945D01*
X63900708Y-74924945D01*
X63894256Y-74926317D01*
X63894251Y-74926317D01*
X63807307Y-74944798D01*
X63713907Y-74964651D01*
X63707877Y-74967336D01*
X63707876Y-74967336D01*
X63545473Y-75039642D01*
X63545471Y-75039643D01*
X63539443Y-75042327D01*
X63534102Y-75046207D01*
X63534101Y-75046208D01*
X63511237Y-75062820D01*
X63384942Y-75154579D01*
X63380521Y-75159489D01*
X63380520Y-75159490D01*
X63263722Y-75289208D01*
X63257155Y-75296501D01*
X63217384Y-75365387D01*
X63166812Y-75452980D01*
X63161668Y-75461889D01*
X63102653Y-75643517D01*
X63101963Y-75650078D01*
X63101963Y-75650080D01*
X63090003Y-75763872D01*
X63082691Y-75833445D01*
X61950837Y-75833445D01*
X61847113Y-75461955D01*
X61844371Y-75449872D01*
X61820472Y-75313833D01*
X61818604Y-75289208D01*
X61818698Y-75285036D01*
X61821559Y-75157337D01*
X61824528Y-75132822D01*
X61834081Y-75089843D01*
X61852582Y-75006598D01*
X61853149Y-75004049D01*
X61860844Y-74980584D01*
X61914029Y-74859873D01*
X61926152Y-74838360D01*
X61995552Y-74739339D01*
X62001862Y-74730337D01*
X62017942Y-74711607D01*
X62113270Y-74620423D01*
X62132700Y-74605185D01*
X62211482Y-74555034D01*
X62243982Y-74534345D01*
X62266010Y-74523191D01*
X62290844Y-74513542D01*
X62395264Y-74472971D01*
X62406993Y-74469064D01*
X75119319Y-70919728D01*
X86818419Y-70919728D01*
X86838381Y-71109656D01*
X86897396Y-71291284D01*
X86992883Y-71456672D01*
X87120670Y-71598594D01*
X87275171Y-71710846D01*
X87281197Y-71713529D01*
X87281204Y-71713533D01*
X87418055Y-71774462D01*
X87472151Y-71820442D01*
X87492801Y-71888369D01*
X87483216Y-71937787D01*
X87450269Y-72017329D01*
X87429631Y-72174091D01*
X87450269Y-72330853D01*
X87510777Y-72476932D01*
X87607031Y-72602373D01*
X87732472Y-72698627D01*
X87878551Y-72759135D01*
X87886739Y-72760213D01*
X87929861Y-72765890D01*
X87995952Y-72774591D01*
X88411335Y-72774591D01*
X88479456Y-72794593D01*
X88525949Y-72848249D01*
X88536053Y-72918523D01*
X88520454Y-72963591D01*
X88481127Y-73031707D01*
X88477396Y-73038170D01*
X88418381Y-73219798D01*
X88417691Y-73226359D01*
X88417691Y-73226361D01*
X88404366Y-73353139D01*
X88398419Y-73409726D01*
X88418381Y-73599654D01*
X88477396Y-73781282D01*
X88572883Y-73946670D01*
X88577301Y-73951577D01*
X88577302Y-73951578D01*
X88674369Y-74059382D01*
X88700670Y-74088592D01*
X88730319Y-74110133D01*
X88838604Y-74188807D01*
X88855171Y-74200844D01*
X88861199Y-74203528D01*
X88861201Y-74203529D01*
X89023604Y-74275835D01*
X89029635Y-74278520D01*
X89123036Y-74298373D01*
X89209979Y-74316854D01*
X89209984Y-74316854D01*
X89216436Y-74318226D01*
X89407410Y-74318226D01*
X89413862Y-74316854D01*
X89413867Y-74316854D01*
X89500810Y-74298373D01*
X89594211Y-74278520D01*
X89600242Y-74275835D01*
X89762645Y-74203529D01*
X89762647Y-74203528D01*
X89768675Y-74200844D01*
X89785243Y-74188807D01*
X89893527Y-74110133D01*
X89923176Y-74088592D01*
X89949477Y-74059382D01*
X90046544Y-73951578D01*
X90046545Y-73951577D01*
X90050963Y-73946670D01*
X90066445Y-73919855D01*
X91334814Y-73919855D01*
X91340975Y-73932647D01*
X91342138Y-73937743D01*
X91344598Y-73944773D01*
X91346865Y-73949480D01*
X91350024Y-73963323D01*
X91358876Y-73974423D01*
X91361142Y-73979128D01*
X91365109Y-73985442D01*
X91368368Y-73989528D01*
X91374526Y-74002316D01*
X91385623Y-74011166D01*
X91388871Y-74015239D01*
X91394167Y-74020535D01*
X91398240Y-74023783D01*
X91407090Y-74034880D01*
X91419878Y-74041038D01*
X91423964Y-74044297D01*
X91430278Y-74048264D01*
X91434983Y-74050530D01*
X91446083Y-74059382D01*
X91459926Y-74062541D01*
X91464633Y-74064808D01*
X91471663Y-74067268D01*
X91476759Y-74068431D01*
X91489551Y-74074592D01*
X95181077Y-74074592D01*
X95193869Y-74068431D01*
X95198965Y-74067268D01*
X95205995Y-74064808D01*
X95210702Y-74062541D01*
X95224545Y-74059382D01*
X95235645Y-74050530D01*
X95240350Y-74048264D01*
X95246664Y-74044297D01*
X95250750Y-74041038D01*
X95263538Y-74034880D01*
X95272388Y-74023783D01*
X95276461Y-74020535D01*
X95281757Y-74015239D01*
X95285005Y-74011166D01*
X95296102Y-74002316D01*
X95302260Y-73989528D01*
X95305519Y-73985442D01*
X95309486Y-73979128D01*
X95311752Y-73974423D01*
X95320604Y-73963323D01*
X95323763Y-73949480D01*
X95326030Y-73944773D01*
X95328490Y-73937743D01*
X95329653Y-73932647D01*
X95335814Y-73919855D01*
X95335814Y-70728329D01*
X95329653Y-70715537D01*
X95328490Y-70710441D01*
X95326030Y-70703411D01*
X95323763Y-70698704D01*
X95320604Y-70684861D01*
X95311752Y-70673761D01*
X95309486Y-70669056D01*
X95305519Y-70662742D01*
X95302260Y-70658656D01*
X95296102Y-70645868D01*
X95285005Y-70637018D01*
X95281757Y-70632945D01*
X95276461Y-70627649D01*
X95272388Y-70624401D01*
X95263538Y-70613304D01*
X95250750Y-70607146D01*
X95246664Y-70603887D01*
X95240350Y-70599920D01*
X95235645Y-70597654D01*
X95224545Y-70588802D01*
X95210702Y-70585643D01*
X95205995Y-70583376D01*
X95198965Y-70580916D01*
X95193869Y-70579753D01*
X95181077Y-70573592D01*
X91489551Y-70573592D01*
X91476759Y-70579753D01*
X91471663Y-70580916D01*
X91464633Y-70583376D01*
X91459926Y-70585643D01*
X91446083Y-70588802D01*
X91434983Y-70597654D01*
X91430278Y-70599920D01*
X91423964Y-70603887D01*
X91419878Y-70607146D01*
X91407090Y-70613304D01*
X91398240Y-70624401D01*
X91394167Y-70627649D01*
X91388871Y-70632945D01*
X91385623Y-70637018D01*
X91374526Y-70645868D01*
X91368368Y-70658656D01*
X91365109Y-70662742D01*
X91361142Y-70669056D01*
X91358876Y-70673761D01*
X91350024Y-70684861D01*
X91346865Y-70698704D01*
X91344598Y-70703411D01*
X91342138Y-70710441D01*
X91340975Y-70715537D01*
X91334814Y-70728329D01*
X91334814Y-73919855D01*
X90066445Y-73919855D01*
X90146450Y-73781282D01*
X90205465Y-73599654D01*
X90225427Y-73409726D01*
X90219480Y-73353139D01*
X90206155Y-73226361D01*
X90206155Y-73226359D01*
X90205465Y-73219798D01*
X90146450Y-73038170D01*
X90140307Y-73027529D01*
X90100891Y-72959259D01*
X90050963Y-72872782D01*
X90028874Y-72848249D01*
X89927598Y-72735771D01*
X89927597Y-72735770D01*
X89923176Y-72730860D01*
X89824080Y-72658862D01*
X89774017Y-72622489D01*
X89774016Y-72622488D01*
X89768675Y-72618608D01*
X89762647Y-72615924D01*
X89762645Y-72615923D01*
X89600242Y-72543617D01*
X89600241Y-72543617D01*
X89594211Y-72540932D01*
X89497301Y-72520333D01*
X89413867Y-72502598D01*
X89413862Y-72502598D01*
X89407410Y-72501226D01*
X89337796Y-72501226D01*
X89269675Y-72481224D01*
X89223182Y-72427568D01*
X89213078Y-72357294D01*
X89216089Y-72342615D01*
X89217195Y-72338486D01*
X89220357Y-72330853D01*
X89240995Y-72174091D01*
X89220357Y-72017329D01*
X89159849Y-71871250D01*
X89063595Y-71745809D01*
X88938154Y-71649555D01*
X88792075Y-71589047D01*
X88783887Y-71587969D01*
X88678761Y-71574129D01*
X88678760Y-71574129D01*
X88674674Y-71573591D01*
X88621698Y-71573591D01*
X88553577Y-71553589D01*
X88507084Y-71499933D01*
X88496980Y-71429659D01*
X88512579Y-71384591D01*
X88563146Y-71297007D01*
X88563147Y-71297006D01*
X88566450Y-71291284D01*
X88625465Y-71109656D01*
X88645427Y-70919728D01*
X88625465Y-70729800D01*
X88566450Y-70548172D01*
X88470963Y-70382784D01*
X88391096Y-70294082D01*
X88347598Y-70245773D01*
X88347597Y-70245772D01*
X88343176Y-70240862D01*
X88241909Y-70167287D01*
X88194017Y-70132491D01*
X88194016Y-70132490D01*
X88188675Y-70128610D01*
X88182647Y-70125926D01*
X88182645Y-70125925D01*
X88020242Y-70053619D01*
X88020241Y-70053619D01*
X88014211Y-70050934D01*
X87917061Y-70030284D01*
X87833867Y-70012600D01*
X87833862Y-70012600D01*
X87827410Y-70011228D01*
X87636436Y-70011228D01*
X87629984Y-70012600D01*
X87629979Y-70012600D01*
X87546785Y-70030284D01*
X87449635Y-70050934D01*
X87443605Y-70053619D01*
X87443604Y-70053619D01*
X87281201Y-70125925D01*
X87281199Y-70125926D01*
X87275171Y-70128610D01*
X87269830Y-70132490D01*
X87269829Y-70132491D01*
X87221937Y-70167287D01*
X87120670Y-70240862D01*
X87116249Y-70245772D01*
X87116248Y-70245773D01*
X87072751Y-70294082D01*
X86992883Y-70382784D01*
X86897396Y-70548172D01*
X86838381Y-70729800D01*
X86818419Y-70919728D01*
X75119319Y-70919728D01*
X77358737Y-70294473D01*
X77361505Y-70293735D01*
X77392547Y-70285824D01*
X77398106Y-70284540D01*
X77428066Y-70278334D01*
X77433674Y-70277304D01*
X77465510Y-70272200D01*
X77468276Y-70271789D01*
X81078518Y-69777252D01*
X85026296Y-69236479D01*
X85026305Y-69236479D01*
X85026311Y-69236478D01*
X85026314Y-69236478D01*
X85064409Y-69231258D01*
X85067250Y-69230902D01*
X85099003Y-69227284D01*
X85104700Y-69226766D01*
X85135178Y-69224689D01*
X85140888Y-69224429D01*
X85171093Y-69223746D01*
X85173140Y-69223700D01*
X85175988Y-69223668D01*
X85184084Y-69223668D01*
X85214171Y-69223671D01*
X85214171Y-69228299D01*
X85214178Y-69228299D01*
X85214178Y-69223668D01*
X85214333Y-69223668D01*
X101661119Y-69223659D01*
X101662980Y-69223673D01*
G37*
%TD.AperFunction*%
%TD*%
M02*
