M48
; DRILL file {KiCad (6.99.0-4085-g6c752680d7)} date Mon Nov 14 16:54:03 2022
; FORMAT={-:-/ absolute / inch / decimal}
; #@! TF.CreationDate,2022-11-14T16:54:03+08:00
; #@! TF.GenerationSoftware,Kicad,Pcbnew,(6.99.0-4085-g6c752680d7)
; #@! TF.FileFunction,NonPlated,1,4,NPTH
FMAT,2
INCH
; #@! TA.AperFunction,NonPlated,NPTH,ComponentDrill
T1C0.0394
; #@! TA.AperFunction,NonPlated,NPTH,ComponentDrill
T2C0.0689
; #@! TA.AperFunction,NonPlated,NPTH,ComponentDrill
T3C0.0748
; #@! TA.AperFunction,NonPlated,NPTH,ComponentDrill
T4C0.1988
%
G90
G05
T2
X2.6244Y-3.2174
X3.0089Y-3.1071
X3.3946Y-3.9043
X3.4746Y-3.0443
X3.7946Y-3.9043
X3.8746Y-3.0443
X4.2157Y-3.9415
X4.2737Y-3.0815
X4.6096Y-4.011
X4.6676Y-3.151
T3
X2.6085Y-3.2219
X3.0248Y-3.1026
X3.3781Y-3.9043
X3.4581Y-3.0443
X3.8112Y-3.9043
X3.8912Y-3.0443
X4.1994Y-3.9387
X4.2574Y-3.0787
X4.6259Y-4.0139
X4.6839Y-3.1539
T4
X2.8166Y-3.1623
X3.5946Y-3.9043
X3.6746Y-3.0443
X4.4126Y-3.9763
X4.4706Y-3.1163
T1
G00X2.5602Y-3.0249
M15
G01X2.5829Y-3.0184
M16
G05
G00X3.386Y-3.7015
M15
G01X3.4096Y-3.7015
M16
G05
G00X3.466Y-2.8415
M15
G01X3.4896Y-2.8415
M16
G05
G00X4.2423Y-3.7403
M15
G01X4.2656Y-3.7444
M16
G05
G00X4.3003Y-2.8803
M15
G01X4.3236Y-2.8844
M16
G05
T0
M30
