%TF.GenerationSoftware,KiCad,Pcbnew,(6.99.0-4085-g6c752680d7)*%
%TF.CreationDate,2022-11-14T18:26:04+08:00*%
%TF.ProjectId,Right Flex PCB,52696768-7420-4466-9c65-78205043422e,rev?*%
%TF.SameCoordinates,Original*%
%TF.FileFunction,Paste,Top*%
%TF.FilePolarity,Positive*%
%FSLAX46Y46*%
G04 Gerber Fmt 4.6, Leading zero omitted, Abs format (unit mm)*
G04 Created by KiCad (PCBNEW (6.99.0-4085-g6c752680d7)) date 2022-11-14 18:26:04*
%MOMM*%
%LPD*%
G01*
G04 APERTURE LIST*
G04 Aperture macros list*
%AMRoundRect*
0 Rectangle with rounded corners*
0 $1 Rounding radius*
0 $2 $3 $4 $5 $6 $7 $8 $9 X,Y pos of 4 corners*
0 Add a 4 corners polygon primitive as box body*
4,1,4,$2,$3,$4,$5,$6,$7,$8,$9,$2,$3,0*
0 Add four circle primitives for the rounded corners*
1,1,$1+$1,$2,$3*
1,1,$1+$1,$4,$5*
1,1,$1+$1,$6,$7*
1,1,$1+$1,$8,$9*
0 Add four rect primitives between the rounded corners*
20,1,$1+$1,$2,$3,$4,$5,0*
20,1,$1+$1,$4,$5,$6,$7,0*
20,1,$1+$1,$6,$7,$8,$9,0*
20,1,$1+$1,$8,$9,$2,$3,0*%
G04 Aperture macros list end*
%ADD10R,1.700000X1.000000*%
%ADD11R,1.800000X0.800000*%
%ADD12RoundRect,0.250000X-0.250000X-0.475000X0.250000X-0.475000X0.250000X0.475000X-0.250000X0.475000X0*%
%ADD13RoundRect,0.250000X0.250000X0.475000X-0.250000X0.475000X-0.250000X-0.475000X0.250000X-0.475000X0*%
%ADD14R,0.800000X1.800000*%
G04 APERTURE END LIST*
D10*
%TO.C,D55*%
X156959398Y-63206597D03*
X151459398Y-63206597D03*
X151459398Y-61806597D03*
X156959398Y-61806597D03*
%TD*%
%TO.C,D43*%
X111974399Y-36758599D03*
X106474399Y-36758599D03*
X106474399Y-35358599D03*
X111974399Y-35358599D03*
%TD*%
D11*
%TO.C,D13*%
X37875199Y-65814399D03*
X37875199Y-63914399D03*
X40475199Y-64864399D03*
%TD*%
%TO.C,D17*%
X148675199Y-102814399D03*
X148675199Y-100914399D03*
X151275199Y-101864399D03*
%TD*%
D10*
%TO.C,D18*%
X46475200Y-119884397D03*
X40975200Y-119884397D03*
X40975200Y-118484397D03*
X46475200Y-118484397D03*
%TD*%
D12*
%TO.C,C3*%
X158200000Y-54450000D03*
X160100000Y-54450000D03*
%TD*%
D11*
%TO.C,D1*%
X37625199Y-111964399D03*
X37625199Y-110064399D03*
X40225199Y-111014399D03*
%TD*%
D10*
%TO.C,D23*%
X90003399Y-84891599D03*
X84503399Y-84891599D03*
X84503399Y-83491599D03*
X90003399Y-83491599D03*
%TD*%
D13*
%TO.C,C1*%
X49975200Y-53064400D03*
X48075200Y-53064400D03*
%TD*%
D10*
%TO.C,D49*%
X135496399Y-86142799D03*
X129996399Y-86142799D03*
X129996399Y-84742799D03*
X135496399Y-84742799D03*
%TD*%
%TO.C,D7*%
X67991598Y-96896399D03*
X62491598Y-96896399D03*
X62491598Y-95496399D03*
X67991598Y-95496399D03*
%TD*%
%TO.C,D37*%
X111974399Y-105592599D03*
X106474399Y-105592599D03*
X106474399Y-104192599D03*
X111974399Y-104192599D03*
%TD*%
%TO.C,D35*%
X67991598Y-51023999D03*
X62491598Y-51023999D03*
X62491598Y-49623999D03*
X67991598Y-49623999D03*
%TD*%
%TO.C,D41*%
X111974399Y-59720199D03*
X106474399Y-59720199D03*
X106474399Y-58320199D03*
X111974399Y-58320199D03*
%TD*%
D11*
%TO.C,D11*%
X103449999Y-51749999D03*
X103449999Y-49849999D03*
X106049999Y-50799999D03*
%TD*%
D10*
%TO.C,D2*%
X40987199Y-49630600D03*
X46487199Y-49630600D03*
X46487199Y-51030600D03*
X40987199Y-51030600D03*
%TD*%
D11*
%TO.C,D9*%
X89775199Y-53714399D03*
X89775199Y-51814399D03*
X92375199Y-52764399D03*
%TD*%
D10*
%TO.C,D4*%
X46487199Y-96928400D03*
X40987199Y-96928400D03*
X40987199Y-95528400D03*
X46487199Y-95528400D03*
%TD*%
%TO.C,D25*%
X90003399Y-107853199D03*
X84503399Y-107853199D03*
X84503399Y-106453199D03*
X90003399Y-106453199D03*
%TD*%
D11*
%TO.C,D14*%
X126799999Y-56049999D03*
X126799999Y-54149999D03*
X129399999Y-55099999D03*
%TD*%
D12*
%TO.C,C6*%
X66150000Y-64850000D03*
X68050000Y-64850000D03*
%TD*%
D10*
%TO.C,D59*%
X156984798Y-109104397D03*
X151484798Y-109104397D03*
X151484798Y-107704397D03*
X156984798Y-107704397D03*
%TD*%
D14*
%TO.C,D32*%
X60725199Y-114264399D03*
X58825199Y-114264399D03*
X59775199Y-111664399D03*
%TD*%
D10*
%TO.C,D57*%
X156984798Y-86142797D03*
X151484798Y-86142797D03*
X151484798Y-84742797D03*
X156984798Y-84742797D03*
%TD*%
%TO.C,D39*%
X111974399Y-82681799D03*
X106474399Y-82681799D03*
X106474399Y-81281799D03*
X111974399Y-81281799D03*
%TD*%
%TO.C,D33*%
X67991598Y-73934799D03*
X62491598Y-73934799D03*
X62491598Y-72534799D03*
X67991598Y-72534799D03*
%TD*%
D12*
%TO.C,C4*%
X135650000Y-54450000D03*
X137550000Y-54450000D03*
%TD*%
D14*
%TO.C,D12*%
X102449999Y-96299999D03*
X104349999Y-96299999D03*
X103399999Y-98899999D03*
%TD*%
D12*
%TO.C,C5*%
X112900000Y-50050000D03*
X114800000Y-50050000D03*
%TD*%
D11*
%TO.C,D31*%
X59375199Y-65964399D03*
X59375199Y-64064399D03*
X61975199Y-65014399D03*
%TD*%
D10*
%TO.C,D45*%
X135470999Y-40270399D03*
X129970999Y-40270399D03*
X129970999Y-38870399D03*
X135470999Y-38870399D03*
%TD*%
D14*
%TO.C,D15*%
X127875199Y-81214399D03*
X125975199Y-81214399D03*
X126925199Y-78614399D03*
%TD*%
D12*
%TO.C,C2*%
X85050000Y-52700000D03*
X86950000Y-52700000D03*
%TD*%
D10*
%TO.C,D3*%
X46487199Y-73992200D03*
X40987199Y-73992200D03*
X40987199Y-72592200D03*
X46487199Y-72592200D03*
%TD*%
%TO.C,D51*%
X135475199Y-109134397D03*
X129975199Y-109134397D03*
X129975199Y-107734397D03*
X135475199Y-107734397D03*
%TD*%
D11*
%TO.C,D16*%
X148775199Y-56214399D03*
X148775199Y-54314399D03*
X151375199Y-55264399D03*
%TD*%
D10*
%TO.C,D19*%
X89975199Y-39034398D03*
X84475199Y-39034398D03*
X84475199Y-37634398D03*
X89975199Y-37634398D03*
%TD*%
%TO.C,D5*%
X67991598Y-119832599D03*
X62491598Y-119832599D03*
X62491598Y-118432599D03*
X67991598Y-118432599D03*
%TD*%
D14*
%TO.C,D10*%
X82725199Y-80664399D03*
X80825199Y-80664399D03*
X81775199Y-78064399D03*
%TD*%
D10*
%TO.C,D21*%
X90003399Y-61955399D03*
X84503399Y-61955399D03*
X84503399Y-60555399D03*
X90003399Y-60555399D03*
%TD*%
%TO.C,D47*%
X135470999Y-63206599D03*
X129970999Y-63206599D03*
X129970999Y-61806599D03*
X135470999Y-61806599D03*
%TD*%
%TO.C,D53*%
X156984798Y-40244997D03*
X151484798Y-40244997D03*
X151484798Y-38844997D03*
X156984798Y-38844997D03*
%TD*%
M02*
