%TF.GenerationSoftware,KiCad,Pcbnew,(6.99.0-4085-g6c752680d7)*%
%TF.CreationDate,2022-11-14T18:26:04+08:00*%
%TF.ProjectId,Right Flex PCB,52696768-7420-4466-9c65-78205043422e,rev?*%
%TF.SameCoordinates,Original*%
%TF.FileFunction,Soldermask,Bot*%
%TF.FilePolarity,Negative*%
%FSLAX46Y46*%
G04 Gerber Fmt 4.6, Leading zero omitted, Abs format (unit mm)*
G04 Created by KiCad (PCBNEW (6.99.0-4085-g6c752680d7)) date 2022-11-14 18:26:04*
%MOMM*%
%LPD*%
G01*
G04 APERTURE LIST*
%ADD10C,1.900000*%
%ADD11C,1.750000*%
%ADD12O,1.600000X1.000000*%
%ADD13C,1.550000*%
%ADD14C,5.050000*%
%ADD15C,1.250000*%
%ADD16R,1.700000X1.700000*%
%ADD17O,1.700000X1.700000*%
G04 APERTURE END LIST*
D10*
%TO.C,SW12*%
X81753400Y-112153200D03*
D11*
X82173400Y-112153200D03*
D12*
X82253399Y-107003199D03*
D13*
X83443400Y-114693200D03*
X84653400Y-117903200D03*
D14*
X87253400Y-112153200D03*
D15*
X87253400Y-118053200D03*
D13*
X89793400Y-117233200D03*
X91653400Y-116853200D03*
D15*
X92253400Y-115953200D03*
D11*
X92333400Y-112153200D03*
D10*
X92753400Y-112153200D03*
%TD*%
D16*
%TO.C,J3*%
X53695199Y-55364399D03*
D17*
X53695199Y-57904399D03*
X53695199Y-60444399D03*
%TD*%
D10*
%TO.C,SW7*%
X59741599Y-101196400D03*
D11*
X60161599Y-101196400D03*
D12*
X60241598Y-96046399D03*
D13*
X61431599Y-103736400D03*
X62641599Y-106946400D03*
D14*
X65241599Y-101196400D03*
D15*
X65241599Y-107096400D03*
D13*
X67781599Y-106276400D03*
X69641599Y-105896400D03*
D15*
X70241599Y-104996400D03*
D11*
X70321599Y-101196400D03*
D10*
X70741599Y-101196400D03*
%TD*%
%TO.C,SW16*%
X103724400Y-86981800D03*
D11*
X104144400Y-86981800D03*
D12*
X104224399Y-81831799D03*
D13*
X105414400Y-89521800D03*
X106624400Y-92731800D03*
D14*
X109224400Y-86981800D03*
D15*
X109224400Y-92881800D03*
D13*
X111764400Y-92061800D03*
X113624400Y-91681800D03*
D15*
X114224400Y-90781800D03*
D11*
X114304400Y-86981800D03*
D10*
X114724400Y-86981800D03*
%TD*%
%TO.C,SW21*%
X127246400Y-90442800D03*
D11*
X127666400Y-90442800D03*
D12*
X127746399Y-85292799D03*
D13*
X128936400Y-92982800D03*
X130146400Y-96192800D03*
D14*
X132746400Y-90442800D03*
D15*
X132746400Y-96342800D03*
D13*
X135286400Y-95522800D03*
X137146400Y-95142800D03*
D15*
X137746400Y-94242800D03*
D11*
X137826400Y-90442800D03*
D10*
X138246400Y-90442800D03*
%TD*%
%TO.C,SW11*%
X81753400Y-89191600D03*
D11*
X82173400Y-89191600D03*
D12*
X82253399Y-84041599D03*
D13*
X83443400Y-91731600D03*
X84653400Y-94941600D03*
D14*
X87253400Y-89191600D03*
D15*
X87253400Y-95091600D03*
D13*
X89793400Y-94271600D03*
X91653400Y-93891600D03*
D15*
X92253400Y-92991600D03*
D11*
X92333400Y-89191600D03*
D10*
X92753400Y-89191600D03*
%TD*%
%TO.C,SW19*%
X127221000Y-44570400D03*
D11*
X127641000Y-44570400D03*
D12*
X127720999Y-39420399D03*
D13*
X128911000Y-47110400D03*
X130121000Y-50320400D03*
D14*
X132721000Y-44570400D03*
D15*
X132721000Y-50470400D03*
D13*
X135261000Y-49650400D03*
X137121000Y-49270400D03*
D15*
X137721000Y-48370400D03*
D11*
X137801000Y-44570400D03*
D10*
X138221000Y-44570400D03*
%TD*%
D16*
%TO.C,J2*%
X120960799Y-66719198D03*
D17*
X120960799Y-69259198D03*
X120960799Y-71799198D03*
X120960799Y-74339198D03*
X120960799Y-76879198D03*
%TD*%
D16*
%TO.C,J4*%
X120960799Y-80536798D03*
D17*
X120960799Y-83076798D03*
X120960799Y-85616798D03*
X120960799Y-88156798D03*
X120960799Y-90696798D03*
X120960799Y-93236798D03*
%TD*%
D16*
%TO.C,J5*%
X143955199Y-112534399D03*
D17*
X143955199Y-115074399D03*
X143955199Y-117614399D03*
%TD*%
D10*
%TO.C,SW17*%
X103724400Y-109892600D03*
D11*
X104144400Y-109892600D03*
D12*
X104224399Y-104742599D03*
D13*
X105414400Y-112432600D03*
X106624400Y-115642600D03*
D14*
X109224400Y-109892600D03*
D15*
X109224400Y-115792600D03*
D13*
X111764400Y-114972600D03*
X113624400Y-114592600D03*
D15*
X114224400Y-113692600D03*
D11*
X114304400Y-109892600D03*
D10*
X114724400Y-109892600D03*
%TD*%
%TO.C,SW5*%
X59741599Y-55324000D03*
D11*
X60161599Y-55324000D03*
D12*
X60241598Y-50173999D03*
D13*
X61431599Y-57864000D03*
X62641599Y-61074000D03*
D14*
X65241599Y-55324000D03*
D15*
X65241599Y-61224000D03*
D13*
X67781599Y-60404000D03*
X69641599Y-60024000D03*
D15*
X70241599Y-59124000D03*
D11*
X70321599Y-55324000D03*
D10*
X70741599Y-55324000D03*
%TD*%
%TO.C,SW9*%
X81728000Y-43293800D03*
D11*
X82148000Y-43293800D03*
D12*
X82227999Y-38143799D03*
D13*
X83418000Y-45833800D03*
X84628000Y-49043800D03*
D14*
X87228000Y-43293800D03*
D15*
X87228000Y-49193800D03*
D13*
X89768000Y-48373800D03*
X91628000Y-47993800D03*
D15*
X92228000Y-47093800D03*
D11*
X92308000Y-43293800D03*
D10*
X92728000Y-43293800D03*
%TD*%
%TO.C,SW14*%
X103724400Y-41058600D03*
D11*
X104144400Y-41058600D03*
D12*
X104224399Y-35908599D03*
D13*
X105414400Y-43598600D03*
X106624400Y-46808600D03*
D14*
X109224400Y-41058600D03*
D15*
X109224400Y-46958600D03*
D13*
X111764400Y-46138600D03*
X113624400Y-45758600D03*
D15*
X114224400Y-44858600D03*
D11*
X114304400Y-41058600D03*
D10*
X114724400Y-41058600D03*
%TD*%
%TO.C,SW15*%
X103724400Y-64020200D03*
D11*
X104144400Y-64020200D03*
D12*
X104224399Y-58870199D03*
D13*
X105414400Y-66560200D03*
X106624400Y-69770200D03*
D14*
X109224400Y-64020200D03*
D15*
X109224400Y-69920200D03*
D13*
X111764400Y-69100200D03*
X113624400Y-68720200D03*
D15*
X114224400Y-67820200D03*
D11*
X114304400Y-64020200D03*
D10*
X114724400Y-64020200D03*
%TD*%
D16*
%TO.C,J1*%
X120885199Y-106904399D03*
D17*
X120885199Y-109444399D03*
X120885199Y-111984399D03*
X120885199Y-114524399D03*
X120885199Y-117064399D03*
X120885199Y-119604399D03*
%TD*%
D10*
%TO.C,SW1*%
X38237200Y-55330601D03*
D11*
X38657200Y-55330601D03*
D12*
X38737199Y-50180600D03*
D13*
X39927200Y-57870601D03*
X41137200Y-61080601D03*
D14*
X43737200Y-55330601D03*
D15*
X43737200Y-61230601D03*
D13*
X46277200Y-60410601D03*
X48137200Y-60030601D03*
D15*
X48737200Y-59130601D03*
D11*
X48817200Y-55330601D03*
D10*
X49237200Y-55330601D03*
%TD*%
%TO.C,SW24*%
X148709399Y-67506598D03*
D11*
X149129399Y-67506598D03*
D12*
X149209398Y-62356597D03*
D13*
X150399399Y-70046598D03*
X151609399Y-73256598D03*
D14*
X154209399Y-67506598D03*
D15*
X154209399Y-73406598D03*
D13*
X156749399Y-72586598D03*
X158609399Y-72206598D03*
D15*
X159209399Y-71306598D03*
D11*
X159289399Y-67506598D03*
D10*
X159709399Y-67506598D03*
%TD*%
%TO.C,SW8*%
X59741599Y-124132600D03*
D11*
X60161599Y-124132600D03*
D12*
X60241598Y-118982599D03*
D13*
X61431599Y-126672600D03*
X62641599Y-129882600D03*
D14*
X65241599Y-124132600D03*
D15*
X65241599Y-130032600D03*
D13*
X67781599Y-129212600D03*
X69641599Y-128832600D03*
D15*
X70241599Y-127932600D03*
D11*
X70321599Y-124132600D03*
D10*
X70741599Y-124132600D03*
%TD*%
%TO.C,SW10*%
X81753400Y-66255400D03*
D11*
X82173400Y-66255400D03*
D12*
X82253399Y-61105399D03*
D13*
X83443400Y-68795400D03*
X84653400Y-72005400D03*
D14*
X87253400Y-66255400D03*
D15*
X87253400Y-72155400D03*
D13*
X89793400Y-71335400D03*
X91653400Y-70955400D03*
D15*
X92253400Y-70055400D03*
D11*
X92333400Y-66255400D03*
D10*
X92753400Y-66255400D03*
%TD*%
%TO.C,SW25*%
X148734799Y-90442798D03*
D11*
X149154799Y-90442798D03*
D12*
X149234798Y-85292797D03*
D13*
X150424799Y-92982798D03*
X151634799Y-96192798D03*
D14*
X154234799Y-90442798D03*
D15*
X154234799Y-96342798D03*
D13*
X156774799Y-95522798D03*
X158634799Y-95142798D03*
D15*
X159234799Y-94242798D03*
D11*
X159314799Y-90442798D03*
D10*
X159734799Y-90442798D03*
%TD*%
%TO.C,SW26*%
X148734799Y-113404398D03*
D11*
X149154799Y-113404398D03*
D12*
X149234798Y-108254397D03*
D13*
X150424799Y-115944398D03*
X151634799Y-119154398D03*
D14*
X154234799Y-113404398D03*
D15*
X154234799Y-119304398D03*
D13*
X156774799Y-118484398D03*
X158634799Y-118104398D03*
D15*
X159234799Y-117204398D03*
D11*
X159314799Y-113404398D03*
D10*
X159734799Y-113404398D03*
%TD*%
%TO.C,SW20*%
X127221000Y-67506600D03*
D11*
X127641000Y-67506600D03*
D12*
X127720999Y-62356599D03*
D13*
X128911000Y-70046600D03*
X130121000Y-73256600D03*
D14*
X132721000Y-67506600D03*
D15*
X132721000Y-73406600D03*
D13*
X135261000Y-72586600D03*
X137121000Y-72206600D03*
D15*
X137721000Y-71306600D03*
D11*
X137801000Y-67506600D03*
D10*
X138221000Y-67506600D03*
%TD*%
%TO.C,SW2*%
X38237200Y-78292201D03*
D11*
X38657200Y-78292201D03*
D12*
X38737199Y-73142200D03*
D13*
X39927200Y-80832201D03*
X41137200Y-84042201D03*
D14*
X43737200Y-78292201D03*
D15*
X43737200Y-84192201D03*
D13*
X46277200Y-83372201D03*
X48137200Y-82992201D03*
D15*
X48737200Y-82092201D03*
D11*
X48817200Y-78292201D03*
D10*
X49237200Y-78292201D03*
%TD*%
%TO.C,SW22*%
X127246400Y-113404400D03*
D11*
X127666400Y-113404400D03*
D12*
X127746399Y-108254399D03*
D13*
X128936400Y-115944400D03*
X130146400Y-119154400D03*
D14*
X132746400Y-113404400D03*
D15*
X132746400Y-119304400D03*
D13*
X135286400Y-118484400D03*
X137146400Y-118104400D03*
D15*
X137746400Y-117204400D03*
D11*
X137826400Y-113404400D03*
D10*
X138246400Y-113404400D03*
%TD*%
%TO.C,SW23*%
X148734799Y-44544998D03*
D11*
X149154799Y-44544998D03*
D12*
X149234798Y-39394997D03*
D13*
X150424799Y-47084998D03*
X151634799Y-50294998D03*
D14*
X154234799Y-44544998D03*
D15*
X154234799Y-50444998D03*
D13*
X156774799Y-49624998D03*
X158634799Y-49244998D03*
D15*
X159234799Y-48344998D03*
D11*
X159314799Y-44544998D03*
D10*
X159734799Y-44544998D03*
%TD*%
%TO.C,SW6*%
X59741599Y-78234800D03*
D11*
X60161599Y-78234800D03*
D12*
X60241598Y-73084799D03*
D13*
X61431599Y-80774800D03*
X62641599Y-83984800D03*
D14*
X65241599Y-78234800D03*
D15*
X65241599Y-84134800D03*
D13*
X67781599Y-83314800D03*
X69641599Y-82934800D03*
D15*
X70241599Y-82034800D03*
D11*
X70321599Y-78234800D03*
D10*
X70741599Y-78234800D03*
%TD*%
%TO.C,SW3*%
X38237200Y-101228401D03*
D11*
X38657200Y-101228401D03*
D12*
X38737199Y-96078400D03*
D13*
X39927200Y-103768401D03*
X41137200Y-106978401D03*
D14*
X43737200Y-101228401D03*
D15*
X43737200Y-107128401D03*
D13*
X46277200Y-106308401D03*
X48137200Y-105928401D03*
D15*
X48737200Y-105028401D03*
D11*
X48817200Y-101228401D03*
D10*
X49237200Y-101228401D03*
%TD*%
%TO.C,SW4*%
X38237200Y-124190001D03*
D11*
X38657200Y-124190001D03*
D12*
X38737199Y-119040000D03*
D13*
X39927200Y-126730001D03*
X41137200Y-129940001D03*
D14*
X43737200Y-124190001D03*
D15*
X43737200Y-130090001D03*
D13*
X46277200Y-129270001D03*
X48137200Y-128890001D03*
D15*
X48737200Y-127990001D03*
D11*
X48817200Y-124190001D03*
D10*
X49237200Y-124190001D03*
%TD*%
M02*
