%TF.GenerationSoftware,KiCad,Pcbnew,(6.99.0-4085-g6c752680d7)*%
%TF.CreationDate,2022-11-14T18:26:04+08:00*%
%TF.ProjectId,Right Flex PCB,52696768-7420-4466-9c65-78205043422e,rev?*%
%TF.SameCoordinates,Original*%
%TF.FileFunction,Profile,NP*%
%FSLAX46Y46*%
G04 Gerber Fmt 4.6, Leading zero omitted, Abs format (unit mm)*
G04 Created by KiCad (PCBNEW (6.99.0-4085-g6c752680d7)) date 2022-11-14 18:26:04*
%MOMM*%
%LPD*%
G01*
G04 APERTURE LIST*
%TA.AperFunction,Profile*%
%ADD10C,0.050000*%
%TD*%
%TA.AperFunction,Profile*%
%ADD11C,0.200000*%
%TD*%
%TA.AperFunction,Profile*%
%ADD12C,0.120000*%
%TD*%
G04 APERTURE END LIST*
D10*
X150623012Y-37075780D02*
X157373000Y-37063999D01*
X129328008Y-37102071D02*
X136077996Y-37090290D01*
X105443000Y-33583999D02*
X112192988Y-33572218D01*
X83623012Y-35845780D02*
X90373000Y-35833999D01*
X61548008Y-47827792D02*
X68297996Y-47816011D01*
X39829975Y-47833999D02*
X46579963Y-47822218D01*
X156882988Y-122930206D02*
X150133000Y-122941987D01*
X128748009Y-122952071D02*
X135497997Y-122940290D01*
X111672988Y-119410206D02*
X104923000Y-119421987D01*
X39688007Y-133189890D02*
X46437995Y-133178109D01*
X61463000Y-133201987D02*
X68212988Y-133190206D01*
X83033000Y-121655780D02*
X89782988Y-121643999D01*
D11*
X116725201Y-34084399D02*
G75*
G03*
X116225200Y-33584399I-500001J-1D01*
G01*
X105443000Y-33583999D02*
X101425200Y-33584399D01*
X101425200Y-33584400D02*
G75*
G03*
X100925200Y-34084399I0J-500000D01*
G01*
X112192988Y-33572218D02*
X116225200Y-33584399D01*
X99425200Y-79859399D02*
X87725200Y-79859399D01*
X118975200Y-104059399D02*
X132225200Y-104059399D01*
X116725200Y-102059400D02*
G75*
G03*
X116225200Y-101559400I-500000J0D01*
G01*
X140225200Y-82609399D02*
X140225200Y-120434398D01*
D10*
X116725200Y-54534400D02*
X116725200Y-56534400D01*
D11*
X51225201Y-93359399D02*
G75*
G03*
X50725201Y-92859399I-500001J-1D01*
G01*
X90373000Y-35833999D02*
X94225200Y-35834399D01*
X72725202Y-116309398D02*
G75*
G03*
X72225200Y-115809398I-500002J-2D01*
G01*
X124425200Y-105559400D02*
X124425200Y-120434398D01*
X87725200Y-74659399D02*
G75*
G03*
X87725200Y-75659401I0J-500001D01*
G01*
D10*
X54735200Y-62284401D02*
X51825200Y-62284401D01*
D11*
X86736000Y-98609401D02*
G75*
G03*
X86736000Y-97609399I0J500001D01*
G01*
X72225201Y-133184401D02*
G75*
G03*
X72725201Y-132684399I-1J500001D01*
G01*
X118475201Y-103559399D02*
G75*
G03*
X118975200Y-104059399I499999J-1D01*
G01*
X124925200Y-105059400D02*
G75*
G03*
X124425200Y-105559400I0J-500000D01*
G01*
X111425200Y-86984400D02*
G75*
G03*
X111425200Y-86984400I-2200000J0D01*
G01*
X56925200Y-48334399D02*
X56925200Y-68784399D01*
X101425201Y-78609400D02*
X108725200Y-78609400D01*
X87725200Y-74659399D02*
X94225200Y-74659399D01*
X122903000Y-95344000D02*
G75*
G03*
X123403000Y-94843999I0J500000D01*
G01*
X94236482Y-121643982D02*
G75*
G03*
X94736482Y-121144000I18J499982D01*
G01*
X145925200Y-37584399D02*
X145925200Y-58034399D01*
D10*
X145925200Y-120434398D02*
X145935199Y-119824400D01*
D11*
X118475201Y-101059399D02*
G75*
G03*
X117975200Y-100559399I-500001J-1D01*
G01*
X140225201Y-37584399D02*
G75*
G03*
X139725200Y-37084399I-500001J-1D01*
G01*
X122471801Y-121514401D02*
G75*
G03*
X122971801Y-121014399I-1J500001D01*
G01*
X146425200Y-37084400D02*
G75*
G03*
X145925200Y-37584399I0J-500000D01*
G01*
X64725201Y-86659399D02*
X57425201Y-86659399D01*
X79425200Y-35834400D02*
G75*
G03*
X78925200Y-36334399I0J-500000D01*
G01*
X35925200Y-47834399D02*
X39829975Y-47833999D01*
X79425200Y-103809400D02*
X86713285Y-103809400D01*
X154225201Y-76409399D02*
G75*
G03*
X153725200Y-75909399I-500001J-1D01*
G01*
X154225201Y-81609399D02*
G75*
G03*
X153725200Y-81109399I-500001J-1D01*
G01*
X122675200Y-96859399D02*
G75*
G03*
X122175200Y-96359400I-500000J-1D01*
G01*
X95725200Y-75159399D02*
X95725200Y-73909399D01*
X116225200Y-101559399D02*
X109725200Y-101559400D01*
X65225201Y-87159399D02*
G75*
G03*
X64725201Y-86659399I-500001J-1D01*
G01*
X99425200Y-79859400D02*
G75*
G03*
X99925200Y-79359399I0J500000D01*
G01*
X100925200Y-34084399D02*
X100925200Y-54534399D01*
X72225201Y-133184399D02*
X68212988Y-133190206D01*
D10*
X145935200Y-104054401D02*
X145925200Y-82609400D01*
X94736482Y-121144000D02*
X94736482Y-119144000D01*
D11*
X61463000Y-133201987D02*
X57425200Y-133184399D01*
D10*
X109725199Y-95359399D02*
X116225200Y-95359400D01*
D11*
X89425200Y-43334399D02*
G75*
G03*
X89425200Y-43334399I-2200000J0D01*
G01*
X65225201Y-92359400D02*
G75*
G03*
X64725202Y-91859399I-500001J0D01*
G01*
X73225200Y-110609399D02*
G75*
G03*
X73725199Y-110109399I0J499999D01*
G01*
X139725200Y-75909400D02*
G75*
G03*
X140225200Y-75409399I0J500000D01*
G01*
X140225200Y-60034399D02*
X140225200Y-75409399D01*
D10*
X140225200Y-58034400D02*
X140225200Y-60034399D01*
D11*
X78925200Y-36334399D02*
X78925200Y-56784400D01*
X72225200Y-109609400D02*
G75*
G03*
X72725200Y-109109399I0J500000D01*
G01*
X145335201Y-110554457D02*
G75*
G03*
X145935201Y-109904400I-15201J615957D01*
G01*
X78925200Y-58784400D02*
X78925201Y-97109400D01*
D10*
X123403000Y-94843999D02*
X123413000Y-64793598D01*
X51225201Y-48334400D02*
X51225201Y-53014400D01*
D11*
X79425200Y-97609399D02*
X86736000Y-97609399D01*
X132225200Y-99859399D02*
X123175200Y-99859399D01*
D10*
X56925200Y-68784399D02*
X56925200Y-70784400D01*
D11*
X45925201Y-124184398D02*
G75*
G03*
X45925201Y-124184398I-2200000J0D01*
G01*
D10*
X78925200Y-121143999D02*
X78925200Y-119143999D01*
D11*
X124425202Y-122434398D02*
G75*
G03*
X124925200Y-122934398I499998J-2D01*
G01*
X94725201Y-81359399D02*
X94736482Y-119144000D01*
X86713285Y-102809399D02*
X78425200Y-102809400D01*
D10*
X122989800Y-105769598D02*
X122971801Y-121014399D01*
D11*
X44225200Y-91859402D02*
G75*
G03*
X44225200Y-92859398I0J-499998D01*
G01*
X134925200Y-113434398D02*
G75*
G03*
X134925200Y-113434398I-2200000J0D01*
G01*
D10*
X100925200Y-118893999D02*
X100925200Y-116893999D01*
D11*
X72725201Y-68784399D02*
X72725201Y-48334399D01*
X133225200Y-81109401D02*
G75*
G03*
X133225200Y-82109399I0J-499999D01*
G01*
X57425201Y-47834400D02*
G75*
G03*
X56925200Y-48334398I-1J-500000D01*
G01*
X146425200Y-82109400D02*
G75*
G03*
X145925200Y-82609400I0J-500000D01*
G01*
X50725201Y-133184401D02*
G75*
G03*
X51225201Y-132684398I-1J500001D01*
G01*
X72725200Y-109109399D02*
X72725201Y-70784400D01*
X124425199Y-98359399D02*
X124425200Y-60034400D01*
X124925200Y-105059400D02*
X132225200Y-105059400D01*
D10*
X35425200Y-132684399D02*
X35425200Y-131184399D01*
D11*
X35425200Y-70784400D02*
X35425200Y-131184399D01*
X116725200Y-54534400D02*
X116725200Y-34084399D01*
X132225200Y-105059400D02*
G75*
G03*
X132725200Y-104559400I0J500000D01*
G01*
X116690600Y-104733600D02*
G75*
G03*
X117190600Y-105233600I500000J0D01*
G01*
X35425201Y-132684399D02*
G75*
G03*
X35925200Y-133184399I499999J-1D01*
G01*
X55235199Y-54014402D02*
G75*
G03*
X54735200Y-53514401I-499999J2D01*
G01*
X68297996Y-47816011D02*
X72225201Y-47834399D01*
X45925200Y-55334400D02*
G75*
G03*
X45925200Y-55334400I-2200000J0D01*
G01*
D10*
X145925200Y-122434398D02*
X145925200Y-120434398D01*
X116690600Y-104733600D02*
X116725200Y-102059400D01*
X51725202Y-53514401D02*
X54735200Y-53514401D01*
D11*
X100925201Y-71909399D02*
G75*
G03*
X101425200Y-72409399I499999J-1D01*
G01*
X86736000Y-98609399D02*
X74225201Y-98609399D01*
X124425199Y-37584399D02*
X124425200Y-58034400D01*
D10*
X122489800Y-105269598D02*
X117190600Y-105233600D01*
X94725200Y-56784400D02*
X94725200Y-58784400D01*
D11*
X111425200Y-109934399D02*
G75*
G03*
X111425200Y-109934399I-2200000J0D01*
G01*
X51225201Y-70784399D02*
X51225200Y-68784399D01*
X67425201Y-78284400D02*
G75*
G03*
X67425201Y-78284400I-2200000J0D01*
G01*
X94725201Y-36334399D02*
G75*
G03*
X94225200Y-35834399I-500001J-1D01*
G01*
X67435199Y-101234400D02*
G75*
G03*
X67435199Y-101234400I-2199999J0D01*
G01*
X156425200Y-44584400D02*
G75*
G03*
X156425200Y-44584400I-2200000J0D01*
G01*
X57425200Y-92859400D02*
G75*
G03*
X56925200Y-93359400I0J-500000D01*
G01*
X141925201Y-118824398D02*
G75*
G03*
X142425200Y-119324399I499999J-2D01*
G01*
X117975200Y-100559399D02*
X109725200Y-100559400D01*
D10*
X100925200Y-54534399D02*
X100925200Y-56534399D01*
D11*
X139725200Y-122934400D02*
G75*
G03*
X140225200Y-122434398I0J500000D01*
G01*
X156425198Y-67534400D02*
G75*
G03*
X156425198Y-67534400I-2199999J0D01*
G01*
X156882988Y-122930206D02*
X161225200Y-122934398D01*
X64725201Y-87659399D02*
X44225201Y-87659400D01*
X57425200Y-92859400D02*
X64725201Y-92859400D01*
X39688007Y-133189890D02*
X35925200Y-133184399D01*
X77425201Y-114809401D02*
G75*
G03*
X77925201Y-114309398I-1J500001D01*
G01*
X51225200Y-68784399D02*
X51225200Y-62934400D01*
X89425200Y-89234399D02*
G75*
G03*
X89425200Y-89234399I-2200000J0D01*
G01*
X117763000Y-64783999D02*
X117753000Y-79793999D01*
X99925200Y-78109399D02*
X99925200Y-79359399D01*
X111425200Y-41084399D02*
G75*
G03*
X111425200Y-41084399I-2200000J0D01*
G01*
X87725200Y-79859401D02*
G75*
G03*
X87725200Y-80859399I0J-499999D01*
G01*
D10*
X161725200Y-120434398D02*
X161725200Y-60034400D01*
D11*
X44225200Y-86659400D02*
G75*
G03*
X44225200Y-87659400I0J-500000D01*
G01*
D10*
X35425200Y-68784399D02*
X35425200Y-70784400D01*
D11*
X64725201Y-91859399D02*
X44225200Y-91859399D01*
X108725201Y-73409400D02*
G75*
G03*
X109225200Y-72909400I-1J500000D01*
G01*
D10*
X142425200Y-110554399D02*
X145335200Y-110554399D01*
X72725201Y-132684399D02*
X72725201Y-131184399D01*
D11*
X109225200Y-72909399D02*
G75*
G03*
X108725201Y-72409400I-500000J-1D01*
G01*
X95225200Y-75659400D02*
G75*
G03*
X95725200Y-75159399I0J500000D01*
G01*
X153725200Y-82109400D02*
G75*
G03*
X154225200Y-81609400I0J500000D01*
G01*
X45922200Y-101240402D02*
G75*
G03*
X45922200Y-101240402I-2200000J0D01*
G01*
X51825199Y-62284343D02*
G75*
G03*
X51225199Y-62934400I15201J-615957D01*
G01*
X57425201Y-47834399D02*
X61548008Y-47827792D01*
D10*
X72725201Y-68784399D02*
X72725201Y-70784400D01*
D11*
X94236482Y-121644000D02*
X89782988Y-121643999D01*
X140225201Y-82609399D02*
G75*
G03*
X139725200Y-82109399I-500001J-1D01*
G01*
X79425200Y-35834399D02*
X83623012Y-35845780D01*
X132725201Y-104559399D02*
G75*
G03*
X132225200Y-104059399I-500001J-1D01*
G01*
X161725201Y-37584399D02*
G75*
G03*
X161225200Y-37084399I-500001J-1D01*
G01*
X116725200Y-79793999D02*
X117753000Y-79793999D01*
X94725200Y-56784400D02*
X94725200Y-36334399D01*
X108725200Y-72409399D02*
X101425200Y-72409399D01*
X67425200Y-124184399D02*
G75*
G03*
X67425200Y-124184399I-2200000J0D01*
G01*
X100925201Y-79109400D02*
X100925200Y-116893999D01*
X139725200Y-82109399D02*
X133225200Y-82109399D01*
X78925201Y-121143999D02*
G75*
G03*
X79425200Y-121643999I499999J-1D01*
G01*
X89425200Y-66284399D02*
G75*
G03*
X89425200Y-66284399I-2200000J0D01*
G01*
X133225200Y-75909401D02*
G75*
G03*
X133225200Y-76909399I0J-499999D01*
G01*
X94225201Y-80859399D02*
X87725200Y-80859399D01*
X51225201Y-93359399D02*
X51225201Y-131184398D01*
X51225201Y-48334400D02*
G75*
G03*
X50725200Y-47834399I-500001J0D01*
G01*
D10*
X145935200Y-104054401D02*
X145935200Y-109904400D01*
D11*
X118475200Y-101059400D02*
X118475200Y-103559399D01*
X44225200Y-86659400D02*
X50725201Y-86659400D01*
D10*
X124425200Y-122434398D02*
X124425200Y-120434398D01*
D11*
X153725200Y-76909400D02*
G75*
G03*
X154225200Y-76409400I0J500000D01*
G01*
X64725201Y-92859401D02*
G75*
G03*
X65225201Y-92359400I-1J500001D01*
G01*
X128748009Y-122952071D02*
X124925200Y-122934398D01*
X161225200Y-122934400D02*
G75*
G03*
X161725200Y-122434398I0J500000D01*
G01*
X150133000Y-122941987D02*
X146425200Y-122934398D01*
X54735200Y-62284401D02*
G75*
G03*
X55235201Y-61784400I0J500001D01*
G01*
X134925200Y-67534399D02*
G75*
G03*
X134925200Y-67534399I-2200000J0D01*
G01*
X129328008Y-37102071D02*
X124925200Y-37084399D01*
X145925199Y-75409399D02*
X145925200Y-60034400D01*
X51225201Y-86159400D02*
X51225201Y-70784399D01*
D10*
X55235201Y-54014402D02*
X55235201Y-61784400D01*
D11*
X124925200Y-37084400D02*
G75*
G03*
X124425200Y-37584399I0J-500000D01*
G01*
X45922200Y-78290402D02*
G75*
G03*
X45922200Y-78290402I-2200000J0D01*
G01*
X124425201Y-98359399D02*
G75*
G03*
X124925199Y-98859399I499999J-1D01*
G01*
X142425200Y-110554399D02*
G75*
G03*
X141925199Y-111054400I0J-500001D01*
G01*
X83033000Y-121655780D02*
X79425200Y-121643999D01*
D10*
X116741400Y-119910798D02*
X116734600Y-120989600D01*
D11*
X78925200Y-119143999D02*
X78925200Y-104309400D01*
X65725200Y-109609398D02*
X72225200Y-109609399D01*
X132225200Y-98859399D02*
X124925199Y-98859399D01*
X116241400Y-119410798D02*
X111672988Y-119410206D01*
X77425201Y-114809398D02*
X65725201Y-114809398D01*
D10*
X145435198Y-119324399D02*
X142425200Y-119324399D01*
X161725200Y-60034400D02*
X161725200Y-58034400D01*
D11*
X86713285Y-103809402D02*
G75*
G03*
X86713285Y-102809398I15J500002D01*
G01*
X145925201Y-75409399D02*
G75*
G03*
X146425199Y-75909399I499999J-1D01*
G01*
D10*
X124425200Y-60034400D02*
X124425200Y-58034400D01*
D11*
X64725201Y-87659400D02*
G75*
G03*
X65225200Y-87159400I-1J500000D01*
G01*
X108725200Y-77609399D02*
X100425200Y-77609399D01*
X50725201Y-86659401D02*
G75*
G03*
X51225201Y-86159400I-1J500001D01*
G01*
X78425200Y-102809401D02*
G75*
G03*
X77925201Y-103309399I0J-499999D01*
G01*
X78925202Y-97109399D02*
G75*
G03*
X79425200Y-97609398I499998J-1D01*
G01*
X101425201Y-78609401D02*
G75*
G03*
X100925201Y-79109400I-1J-499999D01*
G01*
X46579963Y-47822218D02*
X50725200Y-47834400D01*
X100925201Y-118893999D02*
G75*
G03*
X101425200Y-119393999I499999J-1D01*
G01*
X109725200Y-100559400D02*
G75*
G03*
X109725200Y-101559400I0J-500000D01*
G01*
X56925200Y-93359400D02*
X56925200Y-131184399D01*
D10*
X140225200Y-122434398D02*
X140225200Y-120434398D01*
D11*
X122175200Y-96359399D02*
X109725199Y-96359400D01*
X72725200Y-116309398D02*
X72725201Y-131184399D01*
X123413002Y-64793598D02*
G75*
G03*
X122913000Y-64293598I-500002J-2D01*
G01*
X134925200Y-44584400D02*
G75*
G03*
X134925200Y-44584400I-2200000J0D01*
G01*
X35425200Y-48334400D02*
X35425200Y-68784399D01*
X145925202Y-122434398D02*
G75*
G03*
X146425200Y-122934398I499998J-2D01*
G01*
X65725200Y-109609402D02*
G75*
G03*
X65725200Y-110609398I0J-499998D01*
G01*
X116725200Y-56534400D02*
X116725200Y-79793999D01*
D10*
X141925199Y-118824398D02*
X141925199Y-111054400D01*
D11*
X150623012Y-37075780D02*
X146425200Y-37084399D01*
X134925200Y-90484399D02*
G75*
G03*
X134925200Y-90484399I-2200000J0D01*
G01*
X122675200Y-99359399D02*
X122675199Y-96859399D01*
X116741402Y-119910798D02*
G75*
G03*
X116241400Y-119410798I-500002J-2D01*
G01*
X65725201Y-114809402D02*
G75*
G03*
X65725201Y-115809398I-1J-499998D01*
G01*
X50725201Y-92859399D02*
X44225200Y-92859399D01*
X87725200Y-75659400D02*
X95225200Y-75659399D01*
X135497997Y-122940290D02*
X139725200Y-122934398D01*
X108725200Y-78609401D02*
G75*
G03*
X109225201Y-78109401I0J500001D01*
G01*
D10*
X51225201Y-132684398D02*
X51225201Y-131184398D01*
D11*
X89425200Y-112184399D02*
G75*
G03*
X89425200Y-112184399I-2200000J0D01*
G01*
D10*
X122471801Y-121514399D02*
X117234600Y-121489600D01*
D11*
X111425200Y-64034399D02*
G75*
G03*
X111425200Y-64034399I-2200000J0D01*
G01*
X79425200Y-103809400D02*
G75*
G03*
X78925200Y-104309400I0J-500000D01*
G01*
X72725201Y-48334399D02*
G75*
G03*
X72225201Y-47834399I-500001J-1D01*
G01*
X132725201Y-99359399D02*
G75*
G03*
X132225200Y-98859399I-500001J-1D01*
G01*
X122913000Y-64293598D02*
X118263000Y-64283999D01*
X161725200Y-58034400D02*
X161725200Y-37584399D01*
X104923000Y-119421987D02*
X101425200Y-119393999D01*
X100425200Y-77609401D02*
G75*
G03*
X99925201Y-78109401I0J-499999D01*
G01*
D10*
X145925200Y-60034400D02*
X145925200Y-58034399D01*
D11*
X56925201Y-86159399D02*
G75*
G03*
X57425201Y-86659399I499999J-1D01*
G01*
X72225200Y-115809398D02*
X65725201Y-115809398D01*
X122989802Y-105769598D02*
G75*
G03*
X122489800Y-105269598I-500002J-2D01*
G01*
X109725199Y-95359399D02*
G75*
G03*
X109725201Y-96359401I1J-500001D01*
G01*
X136077996Y-37090290D02*
X139725200Y-37084399D01*
X56925200Y-70784400D02*
X56925201Y-86159399D01*
D10*
X78925200Y-58784400D02*
X78925200Y-56784400D01*
D11*
X51225199Y-53014400D02*
G75*
G03*
X51725202Y-53514401I500001J0D01*
G01*
X35925200Y-47834399D02*
G75*
G03*
X35425199Y-48334400I0J-500001D01*
G01*
X94725201Y-81359399D02*
G75*
G03*
X94225201Y-80859399I-500001J-1D01*
G01*
X146425200Y-82109400D02*
X153725200Y-82109400D01*
X156425200Y-90484399D02*
G75*
G03*
X156425200Y-90484399I-2200000J0D01*
G01*
D10*
X161725200Y-122434398D02*
X161725200Y-120434398D01*
D11*
X109225200Y-78109399D02*
G75*
G03*
X108725201Y-77609400I-500000J-1D01*
G01*
X56925201Y-132684399D02*
G75*
G03*
X57425200Y-133184399I499999J-1D01*
G01*
X50725201Y-133184398D02*
X46437995Y-133178109D01*
X65725200Y-110609399D02*
X73225200Y-110609398D01*
X153725200Y-81109399D02*
X133225200Y-81109399D01*
X161225200Y-37084399D02*
X157373000Y-37063999D01*
X77925201Y-103309400D02*
X77925201Y-114309398D01*
X156425200Y-113434398D02*
G75*
G03*
X156425200Y-113434398I-2200000J0D01*
G01*
X153725200Y-75909399D02*
X146425199Y-75909399D01*
X132225200Y-99859400D02*
G75*
G03*
X132725200Y-99359399I0J500000D01*
G01*
X140225200Y-58034400D02*
X140225200Y-37584399D01*
X100925200Y-71909399D02*
X100925200Y-56534399D01*
X145935201Y-119824400D02*
G75*
G03*
X145435198Y-119324399I-500001J0D01*
G01*
D10*
X56925200Y-132684399D02*
X56925200Y-131184399D01*
D11*
X94725200Y-74159399D02*
X94725200Y-58784400D01*
X108725200Y-73409399D02*
X96225200Y-73409399D01*
X116734600Y-120989600D02*
G75*
G03*
X117234600Y-121489600I500000J0D01*
G01*
X133225200Y-75909399D02*
X139725200Y-75909399D01*
X96225200Y-73409400D02*
G75*
G03*
X95725200Y-73909399I0J-500000D01*
G01*
X74225201Y-98609401D02*
G75*
G03*
X73725201Y-99109399I-1J-499999D01*
G01*
X122675202Y-99359399D02*
G75*
G03*
X123175199Y-99859398I499998J-1D01*
G01*
X153725200Y-76909400D02*
X133225200Y-76909399D01*
X67425201Y-55334399D02*
G75*
G03*
X67425201Y-55334399I-2200000J0D01*
G01*
X116225200Y-95359400D02*
X122903000Y-95343999D01*
X118263000Y-64284000D02*
G75*
G03*
X117763000Y-64783999I0J-500000D01*
G01*
X94225200Y-74659400D02*
G75*
G03*
X94725200Y-74159399I0J500000D01*
G01*
X73725201Y-99109399D02*
X73725200Y-110109398D01*
D12*
%TO.C,D55*%
X152409399Y-60956598D02*
X152409399Y-64056598D01*
X152409399Y-64056598D02*
X156009399Y-64056598D01*
X156009399Y-60956598D02*
X152409399Y-60956598D01*
X156009399Y-64056598D02*
X156009399Y-60956598D01*
%TO.C,D43*%
X107424400Y-34508600D02*
X107424400Y-37608600D01*
X107424400Y-37608600D02*
X111024400Y-37608600D01*
X111024400Y-34508600D02*
X107424400Y-34508600D01*
X111024400Y-37608600D02*
X111024400Y-34508600D01*
%TO.C,D18*%
X41925201Y-117634398D02*
X41925201Y-120734398D01*
X41925201Y-120734398D02*
X45525201Y-120734398D01*
X45525201Y-117634398D02*
X41925201Y-117634398D01*
X45525201Y-120734398D02*
X45525201Y-117634398D01*
%TO.C,D23*%
X85453400Y-82641600D02*
X85453400Y-85741600D01*
X85453400Y-85741600D02*
X89053400Y-85741600D01*
X89053400Y-82641600D02*
X85453400Y-82641600D01*
X89053400Y-85741600D02*
X89053400Y-82641600D01*
%TO.C,D49*%
X130946400Y-83892800D02*
X130946400Y-86992800D01*
X130946400Y-86992800D02*
X134546400Y-86992800D01*
X134546400Y-83892800D02*
X130946400Y-83892800D01*
X134546400Y-86992800D02*
X134546400Y-83892800D01*
%TO.C,D7*%
X63441599Y-94646400D02*
X63441599Y-97746400D01*
X63441599Y-97746400D02*
X67041599Y-97746400D01*
X67041599Y-94646400D02*
X63441599Y-94646400D01*
X67041599Y-97746400D02*
X67041599Y-94646400D01*
%TO.C,D37*%
X107424400Y-103342600D02*
X107424400Y-106442600D01*
X107424400Y-106442600D02*
X111024400Y-106442600D01*
X111024400Y-103342600D02*
X107424400Y-103342600D01*
X111024400Y-106442600D02*
X111024400Y-103342600D01*
%TO.C,D35*%
X63441599Y-48774000D02*
X63441599Y-51874000D01*
X63441599Y-51874000D02*
X67041599Y-51874000D01*
X67041599Y-48774000D02*
X63441599Y-48774000D01*
X67041599Y-51874000D02*
X67041599Y-48774000D01*
%TO.C,D41*%
X107424400Y-57470200D02*
X107424400Y-60570200D01*
X107424400Y-60570200D02*
X111024400Y-60570200D01*
X111024400Y-57470200D02*
X107424400Y-57470200D01*
X111024400Y-60570200D02*
X111024400Y-57470200D01*
%TO.C,D2*%
X45537200Y-51880601D02*
X45537200Y-48780601D01*
X45537200Y-48780601D02*
X41937200Y-48780601D01*
X41937200Y-51880601D02*
X45537200Y-51880601D01*
X41937200Y-48780601D02*
X41937200Y-51880601D01*
%TO.C,D4*%
X41937200Y-94678401D02*
X41937200Y-97778401D01*
X41937200Y-97778401D02*
X45537200Y-97778401D01*
X45537200Y-94678401D02*
X41937200Y-94678401D01*
X45537200Y-97778401D02*
X45537200Y-94678401D01*
%TO.C,D25*%
X85453400Y-105603200D02*
X85453400Y-108703200D01*
X85453400Y-108703200D02*
X89053400Y-108703200D01*
X89053400Y-105603200D02*
X85453400Y-105603200D01*
X89053400Y-108703200D02*
X89053400Y-105603200D01*
%TO.C,D59*%
X152434799Y-106854398D02*
X152434799Y-109954398D01*
X152434799Y-109954398D02*
X156034799Y-109954398D01*
X156034799Y-106854398D02*
X152434799Y-106854398D01*
X156034799Y-109954398D02*
X156034799Y-106854398D01*
%TO.C,D57*%
X152434799Y-83892798D02*
X152434799Y-86992798D01*
X152434799Y-86992798D02*
X156034799Y-86992798D01*
X156034799Y-83892798D02*
X152434799Y-83892798D01*
X156034799Y-86992798D02*
X156034799Y-83892798D01*
%TO.C,D39*%
X107424400Y-80431800D02*
X107424400Y-83531800D01*
X107424400Y-83531800D02*
X111024400Y-83531800D01*
X111024400Y-80431800D02*
X107424400Y-80431800D01*
X111024400Y-83531800D02*
X111024400Y-80431800D01*
%TO.C,D33*%
X63441599Y-71684800D02*
X63441599Y-74784800D01*
X63441599Y-74784800D02*
X67041599Y-74784800D01*
X67041599Y-71684800D02*
X63441599Y-71684800D01*
X67041599Y-74784800D02*
X67041599Y-71684800D01*
%TO.C,D45*%
X130921000Y-38020400D02*
X130921000Y-41120400D01*
X130921000Y-41120400D02*
X134521000Y-41120400D01*
X134521000Y-38020400D02*
X130921000Y-38020400D01*
X134521000Y-41120400D02*
X134521000Y-38020400D01*
%TO.C,D3*%
X41937200Y-71742201D02*
X41937200Y-74842201D01*
X41937200Y-74842201D02*
X45537200Y-74842201D01*
X45537200Y-71742201D02*
X41937200Y-71742201D01*
X45537200Y-74842201D02*
X45537200Y-71742201D01*
%TO.C,D51*%
X130925200Y-106884398D02*
X130925200Y-109984398D01*
X130925200Y-109984398D02*
X134525200Y-109984398D01*
X134525200Y-106884398D02*
X130925200Y-106884398D01*
X134525200Y-109984398D02*
X134525200Y-106884398D01*
%TO.C,D19*%
X85425200Y-36784399D02*
X85425200Y-39884399D01*
X85425200Y-39884399D02*
X89025200Y-39884399D01*
X89025200Y-36784399D02*
X85425200Y-36784399D01*
X89025200Y-39884399D02*
X89025200Y-36784399D01*
%TO.C,D5*%
X63441599Y-117582600D02*
X63441599Y-120682600D01*
X63441599Y-120682600D02*
X67041599Y-120682600D01*
X67041599Y-117582600D02*
X63441599Y-117582600D01*
X67041599Y-120682600D02*
X67041599Y-117582600D01*
%TO.C,D21*%
X85453400Y-59705400D02*
X85453400Y-62805400D01*
X85453400Y-62805400D02*
X89053400Y-62805400D01*
X89053400Y-59705400D02*
X85453400Y-59705400D01*
X89053400Y-62805400D02*
X89053400Y-59705400D01*
%TO.C,D47*%
X130921000Y-60956600D02*
X130921000Y-64056600D01*
X130921000Y-64056600D02*
X134521000Y-64056600D01*
X134521000Y-60956600D02*
X130921000Y-60956600D01*
X134521000Y-64056600D02*
X134521000Y-60956600D01*
%TO.C,D53*%
X152434799Y-37994998D02*
X152434799Y-41094998D01*
X152434799Y-41094998D02*
X156034799Y-41094998D01*
X156034799Y-37994998D02*
X152434799Y-37994998D01*
X156034799Y-41094998D02*
X156034799Y-37994998D01*
%TD*%
M02*
