M48
; DRILL file {KiCad (6.99.0-4085-g6c752680d7)} date Mon Nov 14 18:26:04 2022
; FORMAT={-:-/ absolute / inch / decimal}
; #@! TF.CreationDate,2022-11-14T18:26:04+08:00
; #@! TF.GenerationSoftware,Kicad,Pcbnew,(6.99.0-4085-g6c752680d7)
; #@! TF.FileFunction,NonPlated,1,4,NPTH
FMAT,2
INCH
; #@! TA.AperFunction,NonPlated,NPTH,ComponentDrill
T1C0.0394
; #@! TA.AperFunction,NonPlated,NPTH,ComponentDrill
T2C0.0689
; #@! TA.AperFunction,NonPlated,NPTH,ComponentDrill
T3C0.0748
; #@! TA.AperFunction,NonPlated,NPTH,ComponentDrill
T4C0.1988
%
G90
G05
T2
X1.5219Y-2.1784
X1.5219Y-3.0824
X1.5219Y-3.9854
X1.5219Y-4.8894
X1.9219Y-2.1784
X1.9219Y-3.0824
X1.9219Y-3.9854
X1.9219Y-4.8894
X2.3686Y-2.1781
X2.3686Y-3.0801
X2.3686Y-3.9841
X2.3686Y-4.8871
X2.7686Y-2.1781
X2.7686Y-3.0801
X2.7686Y-3.9841
X2.7686Y-4.8871
X3.2342Y-1.7045
X3.2352Y-2.6085
X3.2352Y-3.5115
X3.2352Y-4.4155
X3.6342Y-1.7045
X3.6352Y-2.6085
X3.6352Y-3.5115
X3.6352Y-4.4155
X4.1002Y-1.6165
X4.1002Y-2.5205
X4.1002Y-3.4245
X4.1002Y-4.3265
X4.5002Y-1.6165
X4.5002Y-2.5205
X4.5002Y-3.4245
X4.5002Y-4.3265
X5.0252Y-1.7547
X5.0252Y-2.6577
X5.0262Y-3.5607
X5.0262Y-4.4647
X5.4252Y-1.7547
X5.4252Y-2.6577
X5.4262Y-3.5607
X5.4262Y-4.4647
X5.8712Y-2.6577
X5.8722Y-1.7537
X5.8722Y-3.5607
X5.8722Y-4.4647
X6.2712Y-2.6577
X6.2722Y-1.7537
X6.2722Y-3.5607
X6.2722Y-4.4647
T3
X1.5054Y-2.1784
X1.5054Y-3.0824
X1.5054Y-3.9854
X1.5054Y-4.8894
X1.9385Y-2.1784
X1.9385Y-3.0824
X1.9385Y-3.9854
X1.9385Y-4.8894
X2.352Y-2.1781
X2.352Y-3.0801
X2.352Y-3.9841
X2.352Y-4.8871
X2.7851Y-2.1781
X2.7851Y-3.0801
X2.7851Y-3.9841
X2.7851Y-4.8871
X3.2176Y-1.7045
X3.2186Y-2.6085
X3.2186Y-3.5115
X3.2186Y-4.4155
X3.6507Y-1.7045
X3.6517Y-2.6085
X3.6517Y-3.5115
X3.6517Y-4.4155
X4.0836Y-1.6165
X4.0836Y-2.5205
X4.0836Y-3.4245
X4.0836Y-4.3265
X4.5167Y-1.6165
X4.5167Y-2.5205
X4.5167Y-3.4245
X4.5167Y-4.3265
X5.0087Y-1.7547
X5.0087Y-2.6577
X5.0097Y-3.5607
X5.0097Y-4.4647
X5.4418Y-1.7547
X5.4418Y-2.6577
X5.4428Y-3.5607
X5.4428Y-4.4647
X5.8547Y-2.6577
X5.8557Y-1.7537
X5.8557Y-3.5607
X5.8557Y-4.4647
X6.2878Y-2.6577
X6.2888Y-1.7537
X6.2888Y-3.5607
X6.2888Y-4.4647
T4
X1.7219Y-2.1784
X1.7219Y-3.0824
X1.7219Y-3.9854
X1.7219Y-4.8894
X2.5686Y-2.1781
X2.5686Y-3.0801
X2.5686Y-3.9841
X2.5686Y-4.8871
X3.4342Y-1.7045
X3.4352Y-2.6085
X3.4352Y-3.5115
X3.4352Y-4.4155
X4.3002Y-1.6165
X4.3002Y-2.5205
X4.3002Y-3.4245
X4.3002Y-4.3265
X5.2252Y-1.7547
X5.2252Y-2.6577
X5.2262Y-3.5607
X5.2262Y-4.4647
X6.0712Y-2.6577
X6.0722Y-1.7537
X6.0722Y-3.5607
X6.0722Y-4.4647
T1
G00X1.5133Y-1.9756
M15
G01X1.5369Y-1.9756
M16
G05
G00X1.5133Y-2.8796
M15
G01X1.5369Y-2.8796
M16
G05
G00X1.5133Y-3.7826
M15
G01X1.5369Y-3.7826
M16
G05
G00X1.5133Y-4.6866
M15
G01X1.5369Y-4.6866
M16
G05
G00X2.3599Y-1.9754
M15
G01X2.3835Y-1.9754
M16
G05
G00X2.3599Y-2.8774
M15
G01X2.3835Y-2.8774
M16
G05
G00X2.3599Y-3.7814
M15
G01X2.3835Y-3.7814
M16
G05
G00X2.3599Y-4.6844
M15
G01X2.3835Y-4.6844
M16
G05
G00X3.2255Y-1.5017
M15
G01X3.2491Y-1.5017
M16
G05
G00X3.2265Y-2.4057
M15
G01X3.2501Y-2.4057
M16
G05
G00X3.2265Y-3.3087
M15
G01X3.2501Y-3.3087
M16
G05
G00X3.2265Y-4.2127
M15
G01X3.2501Y-4.2127
M16
G05
G00X4.0915Y-1.4137
M15
G01X4.1151Y-1.4137
M16
G05
G00X4.0915Y-2.3177
M15
G01X4.1151Y-2.3177
M16
G05
G00X4.0915Y-3.2217
M15
G01X4.1151Y-3.2217
M16
G05
G00X4.0915Y-4.1237
M15
G01X4.1151Y-4.1237
M16
G05
G00X5.0166Y-1.552
M15
G01X5.0402Y-1.552
M16
G05
G00X5.0166Y-2.455
M15
G01X5.0402Y-2.455
M16
G05
G00X5.0176Y-3.358
M15
G01X5.0412Y-3.358
M16
G05
G00X5.0176Y-4.262
M15
G01X5.0412Y-4.262
M16
G05
G00X5.8626Y-2.455
M15
G01X5.8862Y-2.455
M16
G05
G00X5.8636Y-1.551
M15
G01X5.8872Y-1.551
M16
G05
G00X5.8636Y-3.358
M15
G01X5.8872Y-3.358
M16
G05
G00X5.8636Y-4.262
M15
G01X5.8872Y-4.262
M16
G05
T0
M30
