%TF.GenerationSoftware,KiCad,Pcbnew,(6.99.0-4085-g6c752680d7)*%
%TF.CreationDate,2022-11-14T18:26:04+08:00*%
%TF.ProjectId,Right Flex PCB,52696768-7420-4466-9c65-78205043422e,rev?*%
%TF.SameCoordinates,Original*%
%TF.FileFunction,Legend,Bot*%
%TF.FilePolarity,Positive*%
%FSLAX46Y46*%
G04 Gerber Fmt 4.6, Leading zero omitted, Abs format (unit mm)*
G04 Created by KiCad (PCBNEW (6.99.0-4085-g6c752680d7)) date 2022-11-14 18:26:04*
%MOMM*%
%LPD*%
G01*
G04 APERTURE LIST*
%ADD10C,0.120000*%
%ADD11C,1.900000*%
%ADD12C,1.750000*%
%ADD13O,1.600000X1.000000*%
%ADD14C,1.550000*%
%ADD15C,5.050000*%
%ADD16C,1.250000*%
%ADD17R,1.700000X1.700000*%
%ADD18O,1.700000X1.700000*%
G04 APERTURE END LIST*
D10*
X160030931Y-56935095D02*
X154205931Y-56935094D01*
X40575042Y-114394905D02*
X40575042Y-115414016D01*
X41371120Y-113614016D02*
X47196120Y-113614016D01*
X154221120Y-54364016D02*
X160046120Y-54364016D01*
X160030931Y-56935036D02*
G75*
G03*
X160827008Y-56154205I-4031J800336D01*
G01*
X47180931Y-116185036D02*
G75*
G03*
X47977008Y-115404205I-4031J800336D01*
G01*
X47180931Y-116185095D02*
X41355931Y-116185094D01*
X160827009Y-56154205D02*
X160827009Y-55135094D01*
X160826974Y-55135095D02*
G75*
G03*
X160046120Y-54364017I-800374J-29605D01*
G01*
X153425042Y-55144905D02*
X153425042Y-56164016D01*
X41371120Y-113614015D02*
G75*
G03*
X40575042Y-114394905I4080J-800385D01*
G01*
X153425018Y-56164017D02*
G75*
G03*
X154205931Y-56935093I800382J29617D01*
G01*
X154221120Y-54364015D02*
G75*
G03*
X153425042Y-55144905I4080J-800385D01*
G01*
X47976974Y-114385095D02*
G75*
G03*
X47196120Y-113614017I-800374J-29605D01*
G01*
X40575018Y-115414017D02*
G75*
G03*
X41355931Y-116185093I800382J29617D01*
G01*
X47977009Y-115404205D02*
X47977009Y-114385094D01*
%TO.C,D13*%
X38275200Y-63414400D02*
X40075200Y-63414400D01*
X38275200Y-64414400D02*
X38275200Y-65314400D01*
X38275200Y-66314400D02*
X40075200Y-66314400D01*
X40075200Y-64364400D02*
X40075200Y-63414400D01*
X40075200Y-65364400D02*
X40075200Y-66314400D01*
%TO.C,D17*%
X149075200Y-100414400D02*
X150875200Y-100414400D01*
X149075200Y-101414400D02*
X149075200Y-102314400D01*
X149075200Y-103314400D02*
X150875200Y-103314400D01*
X150875200Y-101364400D02*
X150875200Y-100414400D01*
X150875200Y-102364400D02*
X150875200Y-103314400D01*
%TO.C,SW12*%
X79653400Y-104553200D02*
X94853400Y-104553200D01*
X79653400Y-119753200D02*
X79653400Y-104553200D01*
X80153400Y-105053200D02*
X94353400Y-105053200D01*
X80153400Y-119253200D02*
X80153400Y-105053200D01*
X94353400Y-105053200D02*
X94353400Y-119253200D01*
X94353400Y-119253200D02*
X80153400Y-119253200D01*
X94853400Y-104553200D02*
X94853400Y-119753200D01*
X94853400Y-119753200D02*
X79653400Y-119753200D01*
%TO.C,D1*%
X38025200Y-109564400D02*
X39825200Y-109564400D01*
X38025200Y-110564400D02*
X38025200Y-111464400D01*
X38025200Y-112464400D02*
X39825200Y-112464400D01*
X39825200Y-110514400D02*
X39825200Y-109564400D01*
X39825200Y-111514400D02*
X39825200Y-112464400D01*
%TO.C,SW7*%
X57641599Y-93596400D02*
X72841599Y-93596400D01*
X57641599Y-108796400D02*
X57641599Y-93596400D01*
X58141599Y-94096400D02*
X72341599Y-94096400D01*
X58141599Y-108296400D02*
X58141599Y-94096400D01*
X72341599Y-94096400D02*
X72341599Y-108296400D01*
X72341599Y-108296400D02*
X58141599Y-108296400D01*
X72841599Y-93596400D02*
X72841599Y-108796400D01*
X72841599Y-108796400D02*
X57641599Y-108796400D01*
%TO.C,SW16*%
X101624400Y-79381800D02*
X116824400Y-79381800D01*
X101624400Y-94581800D02*
X101624400Y-79381800D01*
X102124400Y-79881800D02*
X116324400Y-79881800D01*
X102124400Y-94081800D02*
X102124400Y-79881800D01*
X116324400Y-79881800D02*
X116324400Y-94081800D01*
X116324400Y-94081800D02*
X102124400Y-94081800D01*
X116824400Y-79381800D02*
X116824400Y-94581800D01*
X116824400Y-94581800D02*
X101624400Y-94581800D01*
%TO.C,SW21*%
X125146400Y-82842800D02*
X140346400Y-82842800D01*
X125146400Y-98042800D02*
X125146400Y-82842800D01*
X125646400Y-83342800D02*
X139846400Y-83342800D01*
X125646400Y-97542800D02*
X125646400Y-83342800D01*
X139846400Y-83342800D02*
X139846400Y-97542800D01*
X139846400Y-97542800D02*
X125646400Y-97542800D01*
X140346400Y-82842800D02*
X140346400Y-98042800D01*
X140346400Y-98042800D02*
X125146400Y-98042800D01*
%TO.C,SW11*%
X79653400Y-81591600D02*
X94853400Y-81591600D01*
X79653400Y-96791600D02*
X79653400Y-81591600D01*
X80153400Y-82091600D02*
X94353400Y-82091600D01*
X80153400Y-96291600D02*
X80153400Y-82091600D01*
X94353400Y-82091600D02*
X94353400Y-96291600D01*
X94353400Y-96291600D02*
X80153400Y-96291600D01*
X94853400Y-81591600D02*
X94853400Y-96791600D01*
X94853400Y-96791600D02*
X79653400Y-96791600D01*
%TO.C,SW19*%
X125121000Y-36970400D02*
X140321000Y-36970400D01*
X125121000Y-52170400D02*
X125121000Y-36970400D01*
X125621000Y-37470400D02*
X139821000Y-37470400D01*
X125621000Y-51670400D02*
X125621000Y-37470400D01*
X139821000Y-37470400D02*
X139821000Y-51670400D01*
X139821000Y-51670400D02*
X125621000Y-51670400D01*
X140321000Y-36970400D02*
X140321000Y-52170400D01*
X140321000Y-52170400D02*
X125121000Y-52170400D01*
%TO.C,D11*%
X103850000Y-49350000D02*
X105650000Y-49350000D01*
X103850000Y-50350000D02*
X103850000Y-51250000D01*
X103850000Y-52250000D02*
X105650000Y-52250000D01*
X105650000Y-50300000D02*
X105650000Y-49350000D01*
X105650000Y-51300000D02*
X105650000Y-52250000D01*
%TO.C,D9*%
X90175200Y-51314400D02*
X91975200Y-51314400D01*
X90175200Y-52314400D02*
X90175200Y-53214400D01*
X90175200Y-54214400D02*
X91975200Y-54214400D01*
X91975200Y-52264400D02*
X91975200Y-51314400D01*
X91975200Y-53264400D02*
X91975200Y-54214400D01*
%TO.C,D14*%
X127200000Y-53650000D02*
X129000000Y-53650000D01*
X127200000Y-54650000D02*
X127200000Y-55550000D01*
X127200000Y-56550000D02*
X129000000Y-56550000D01*
X129000000Y-54600000D02*
X129000000Y-53650000D01*
X129000000Y-55600000D02*
X129000000Y-56550000D01*
%TO.C,SW17*%
X101624400Y-102292600D02*
X116824400Y-102292600D01*
X101624400Y-117492600D02*
X101624400Y-102292600D01*
X102124400Y-102792600D02*
X116324400Y-102792600D01*
X102124400Y-116992600D02*
X102124400Y-102792600D01*
X116324400Y-102792600D02*
X116324400Y-116992600D01*
X116324400Y-116992600D02*
X102124400Y-116992600D01*
X116824400Y-102292600D02*
X116824400Y-117492600D01*
X116824400Y-117492600D02*
X101624400Y-117492600D01*
%TO.C,D32*%
X58325200Y-113864400D02*
X58325200Y-112064400D01*
X59325200Y-113864400D02*
X60225200Y-113864400D01*
X61225200Y-113864400D02*
X61225200Y-112064400D01*
X59275200Y-112064400D02*
X58325200Y-112064400D01*
X60275200Y-112064400D02*
X61225200Y-112064400D01*
%TO.C,SW5*%
X57641599Y-47724000D02*
X72841599Y-47724000D01*
X57641599Y-62924000D02*
X57641599Y-47724000D01*
X58141599Y-48224000D02*
X72341599Y-48224000D01*
X58141599Y-62424000D02*
X58141599Y-48224000D01*
X72341599Y-48224000D02*
X72341599Y-62424000D01*
X72341599Y-62424000D02*
X58141599Y-62424000D01*
X72841599Y-47724000D02*
X72841599Y-62924000D01*
X72841599Y-62924000D02*
X57641599Y-62924000D01*
%TO.C,SW9*%
X79628000Y-35693800D02*
X94828000Y-35693800D01*
X79628000Y-50893800D02*
X79628000Y-35693800D01*
X80128000Y-36193800D02*
X94328000Y-36193800D01*
X80128000Y-50393800D02*
X80128000Y-36193800D01*
X94328000Y-36193800D02*
X94328000Y-50393800D01*
X94328000Y-50393800D02*
X80128000Y-50393800D01*
X94828000Y-35693800D02*
X94828000Y-50893800D01*
X94828000Y-50893800D02*
X79628000Y-50893800D01*
%TO.C,SW14*%
X101624400Y-33458600D02*
X116824400Y-33458600D01*
X101624400Y-48658600D02*
X101624400Y-33458600D01*
X102124400Y-33958600D02*
X116324400Y-33958600D01*
X102124400Y-48158600D02*
X102124400Y-33958600D01*
X116324400Y-33958600D02*
X116324400Y-48158600D01*
X116324400Y-48158600D02*
X102124400Y-48158600D01*
X116824400Y-33458600D02*
X116824400Y-48658600D01*
X116824400Y-48658600D02*
X101624400Y-48658600D01*
%TO.C,SW15*%
X101624400Y-56420200D02*
X116824400Y-56420200D01*
X101624400Y-71620200D02*
X101624400Y-56420200D01*
X102124400Y-56920200D02*
X116324400Y-56920200D01*
X102124400Y-71120200D02*
X102124400Y-56920200D01*
X116324400Y-56920200D02*
X116324400Y-71120200D01*
X116324400Y-71120200D02*
X102124400Y-71120200D01*
X116824400Y-56420200D02*
X116824400Y-71620200D01*
X116824400Y-71620200D02*
X101624400Y-71620200D01*
%TO.C,SW1*%
X36137200Y-47730601D02*
X51337200Y-47730601D01*
X36137200Y-62930601D02*
X36137200Y-47730601D01*
X36637200Y-48230601D02*
X50837200Y-48230601D01*
X36637200Y-62430601D02*
X36637200Y-48230601D01*
X50837200Y-48230601D02*
X50837200Y-62430601D01*
X50837200Y-62430601D02*
X36637200Y-62430601D01*
X51337200Y-47730601D02*
X51337200Y-62930601D01*
X51337200Y-62930601D02*
X36137200Y-62930601D01*
%TO.C,D12*%
X104850000Y-96700000D02*
X104850000Y-98500000D01*
X103850000Y-96700000D02*
X102950000Y-96700000D01*
X101950000Y-96700000D02*
X101950000Y-98500000D01*
X103900000Y-98500000D02*
X104850000Y-98500000D01*
X102900000Y-98500000D02*
X101950000Y-98500000D01*
%TO.C,SW24*%
X146609399Y-59906598D02*
X161809399Y-59906598D01*
X146609399Y-75106598D02*
X146609399Y-59906598D01*
X147109399Y-60406598D02*
X161309399Y-60406598D01*
X147109399Y-74606598D02*
X147109399Y-60406598D01*
X161309399Y-60406598D02*
X161309399Y-74606598D01*
X161309399Y-74606598D02*
X147109399Y-74606598D01*
X161809399Y-59906598D02*
X161809399Y-75106598D01*
X161809399Y-75106598D02*
X146609399Y-75106598D01*
%TO.C,D31*%
X59775200Y-63564400D02*
X61575200Y-63564400D01*
X59775200Y-64564400D02*
X59775200Y-65464400D01*
X59775200Y-66464400D02*
X61575200Y-66464400D01*
X61575200Y-64514400D02*
X61575200Y-63564400D01*
X61575200Y-65514400D02*
X61575200Y-66464400D01*
%TO.C,SW8*%
X57641599Y-116532600D02*
X72841599Y-116532600D01*
X57641599Y-131732600D02*
X57641599Y-116532600D01*
X58141599Y-117032600D02*
X72341599Y-117032600D01*
X58141599Y-131232600D02*
X58141599Y-117032600D01*
X72341599Y-117032600D02*
X72341599Y-131232600D01*
X72341599Y-131232600D02*
X58141599Y-131232600D01*
X72841599Y-116532600D02*
X72841599Y-131732600D01*
X72841599Y-131732600D02*
X57641599Y-131732600D01*
%TO.C,SW10*%
X79653400Y-58655400D02*
X94853400Y-58655400D01*
X79653400Y-73855400D02*
X79653400Y-58655400D01*
X80153400Y-59155400D02*
X94353400Y-59155400D01*
X80153400Y-73355400D02*
X80153400Y-59155400D01*
X94353400Y-59155400D02*
X94353400Y-73355400D01*
X94353400Y-73355400D02*
X80153400Y-73355400D01*
X94853400Y-58655400D02*
X94853400Y-73855400D01*
X94853400Y-73855400D02*
X79653400Y-73855400D01*
%TO.C,SW25*%
X146634799Y-82842798D02*
X161834799Y-82842798D01*
X146634799Y-98042798D02*
X146634799Y-82842798D01*
X147134799Y-83342798D02*
X161334799Y-83342798D01*
X147134799Y-97542798D02*
X147134799Y-83342798D01*
X161334799Y-83342798D02*
X161334799Y-97542798D01*
X161334799Y-97542798D02*
X147134799Y-97542798D01*
X161834799Y-82842798D02*
X161834799Y-98042798D01*
X161834799Y-98042798D02*
X146634799Y-98042798D01*
%TO.C,D15*%
X125475200Y-80814400D02*
X125475200Y-79014400D01*
X126475200Y-80814400D02*
X127375200Y-80814400D01*
X128375200Y-80814400D02*
X128375200Y-79014400D01*
X126425200Y-79014400D02*
X125475200Y-79014400D01*
X127425200Y-79014400D02*
X128375200Y-79014400D01*
%TO.C,SW26*%
X146634799Y-105804398D02*
X161834799Y-105804398D01*
X146634799Y-121004398D02*
X146634799Y-105804398D01*
X147134799Y-106304398D02*
X161334799Y-106304398D01*
X147134799Y-120504398D02*
X147134799Y-106304398D01*
X161334799Y-106304398D02*
X161334799Y-120504398D01*
X161334799Y-120504398D02*
X147134799Y-120504398D01*
X161834799Y-105804398D02*
X161834799Y-121004398D01*
X161834799Y-121004398D02*
X146634799Y-121004398D01*
%TO.C,SW20*%
X125121000Y-59906600D02*
X140321000Y-59906600D01*
X125121000Y-75106600D02*
X125121000Y-59906600D01*
X125621000Y-60406600D02*
X139821000Y-60406600D01*
X125621000Y-74606600D02*
X125621000Y-60406600D01*
X139821000Y-60406600D02*
X139821000Y-74606600D01*
X139821000Y-74606600D02*
X125621000Y-74606600D01*
X140321000Y-59906600D02*
X140321000Y-75106600D01*
X140321000Y-75106600D02*
X125121000Y-75106600D01*
%TO.C,SW2*%
X36137200Y-70692201D02*
X51337200Y-70692201D01*
X36137200Y-85892201D02*
X36137200Y-70692201D01*
X36637200Y-71192201D02*
X50837200Y-71192201D01*
X36637200Y-85392201D02*
X36637200Y-71192201D01*
X50837200Y-71192201D02*
X50837200Y-85392201D01*
X50837200Y-85392201D02*
X36637200Y-85392201D01*
X51337200Y-70692201D02*
X51337200Y-85892201D01*
X51337200Y-85892201D02*
X36137200Y-85892201D01*
%TO.C,SW22*%
X125146400Y-105804400D02*
X140346400Y-105804400D01*
X125146400Y-121004400D02*
X125146400Y-105804400D01*
X125646400Y-106304400D02*
X139846400Y-106304400D01*
X125646400Y-120504400D02*
X125646400Y-106304400D01*
X139846400Y-106304400D02*
X139846400Y-120504400D01*
X139846400Y-120504400D02*
X125646400Y-120504400D01*
X140346400Y-105804400D02*
X140346400Y-121004400D01*
X140346400Y-121004400D02*
X125146400Y-121004400D01*
%TO.C,SW23*%
X146634799Y-36944998D02*
X161834799Y-36944998D01*
X146634799Y-52144998D02*
X146634799Y-36944998D01*
X147134799Y-37444998D02*
X161334799Y-37444998D01*
X147134799Y-51644998D02*
X147134799Y-37444998D01*
X161334799Y-37444998D02*
X161334799Y-51644998D01*
X161334799Y-51644998D02*
X147134799Y-51644998D01*
X161834799Y-36944998D02*
X161834799Y-52144998D01*
X161834799Y-52144998D02*
X146634799Y-52144998D01*
%TO.C,D16*%
X149175200Y-53814400D02*
X150975200Y-53814400D01*
X149175200Y-54814400D02*
X149175200Y-55714400D01*
X149175200Y-56714400D02*
X150975200Y-56714400D01*
X150975200Y-54764400D02*
X150975200Y-53814400D01*
X150975200Y-55764400D02*
X150975200Y-56714400D01*
%TO.C,SW6*%
X57641599Y-70634800D02*
X72841599Y-70634800D01*
X57641599Y-85834800D02*
X57641599Y-70634800D01*
X58141599Y-71134800D02*
X72341599Y-71134800D01*
X58141599Y-85334800D02*
X58141599Y-71134800D01*
X72341599Y-71134800D02*
X72341599Y-85334800D01*
X72341599Y-85334800D02*
X58141599Y-85334800D01*
X72841599Y-70634800D02*
X72841599Y-85834800D01*
X72841599Y-85834800D02*
X57641599Y-85834800D01*
%TO.C,D10*%
X80325200Y-80264400D02*
X80325200Y-78464400D01*
X81325200Y-80264400D02*
X82225200Y-80264400D01*
X83225200Y-80264400D02*
X83225200Y-78464400D01*
X81275200Y-78464400D02*
X80325200Y-78464400D01*
X82275200Y-78464400D02*
X83225200Y-78464400D01*
%TO.C,SW3*%
X36137200Y-93628401D02*
X51337200Y-93628401D01*
X36137200Y-108828401D02*
X36137200Y-93628401D01*
X36637200Y-94128401D02*
X50837200Y-94128401D01*
X36637200Y-108328401D02*
X36637200Y-94128401D01*
X50837200Y-94128401D02*
X50837200Y-108328401D01*
X50837200Y-108328401D02*
X36637200Y-108328401D01*
X51337200Y-93628401D02*
X51337200Y-108828401D01*
X51337200Y-108828401D02*
X36137200Y-108828401D01*
%TO.C,SW4*%
X36137200Y-116590001D02*
X51337200Y-116590001D01*
X36137200Y-131790001D02*
X36137200Y-116590001D01*
X36637200Y-117090001D02*
X50837200Y-117090001D01*
X36637200Y-131290001D02*
X36637200Y-117090001D01*
X50837200Y-117090001D02*
X50837200Y-131290001D01*
X50837200Y-131290001D02*
X36637200Y-131290001D01*
X51337200Y-116590001D02*
X51337200Y-131790001D01*
X51337200Y-131790001D02*
X36137200Y-131790001D01*
%TD*%
%LPC*%
D11*
%TO.C,SW12*%
X81753400Y-112153200D03*
D12*
X82173400Y-112153200D03*
D13*
X82253399Y-107003199D03*
D14*
X83443400Y-114693200D03*
X84653400Y-117903200D03*
D15*
X87253400Y-112153200D03*
D16*
X87253400Y-118053200D03*
D14*
X89793400Y-117233200D03*
X91653400Y-116853200D03*
D16*
X92253400Y-115953200D03*
D12*
X92333400Y-112153200D03*
D11*
X92753400Y-112153200D03*
%TD*%
D17*
%TO.C,J3*%
X53695199Y-55364399D03*
D18*
X53695199Y-57904399D03*
X53695199Y-60444399D03*
%TD*%
D11*
%TO.C,SW7*%
X59741599Y-101196400D03*
D12*
X60161599Y-101196400D03*
D13*
X60241598Y-96046399D03*
D14*
X61431599Y-103736400D03*
X62641599Y-106946400D03*
D15*
X65241599Y-101196400D03*
D16*
X65241599Y-107096400D03*
D14*
X67781599Y-106276400D03*
X69641599Y-105896400D03*
D16*
X70241599Y-104996400D03*
D12*
X70321599Y-101196400D03*
D11*
X70741599Y-101196400D03*
%TD*%
%TO.C,SW16*%
X103724400Y-86981800D03*
D12*
X104144400Y-86981800D03*
D13*
X104224399Y-81831799D03*
D14*
X105414400Y-89521800D03*
X106624400Y-92731800D03*
D15*
X109224400Y-86981800D03*
D16*
X109224400Y-92881800D03*
D14*
X111764400Y-92061800D03*
X113624400Y-91681800D03*
D16*
X114224400Y-90781800D03*
D12*
X114304400Y-86981800D03*
D11*
X114724400Y-86981800D03*
%TD*%
%TO.C,SW21*%
X127246400Y-90442800D03*
D12*
X127666400Y-90442800D03*
D13*
X127746399Y-85292799D03*
D14*
X128936400Y-92982800D03*
X130146400Y-96192800D03*
D15*
X132746400Y-90442800D03*
D16*
X132746400Y-96342800D03*
D14*
X135286400Y-95522800D03*
X137146400Y-95142800D03*
D16*
X137746400Y-94242800D03*
D12*
X137826400Y-90442800D03*
D11*
X138246400Y-90442800D03*
%TD*%
%TO.C,SW11*%
X81753400Y-89191600D03*
D12*
X82173400Y-89191600D03*
D13*
X82253399Y-84041599D03*
D14*
X83443400Y-91731600D03*
X84653400Y-94941600D03*
D15*
X87253400Y-89191600D03*
D16*
X87253400Y-95091600D03*
D14*
X89793400Y-94271600D03*
X91653400Y-93891600D03*
D16*
X92253400Y-92991600D03*
D12*
X92333400Y-89191600D03*
D11*
X92753400Y-89191600D03*
%TD*%
%TO.C,SW19*%
X127221000Y-44570400D03*
D12*
X127641000Y-44570400D03*
D13*
X127720999Y-39420399D03*
D14*
X128911000Y-47110400D03*
X130121000Y-50320400D03*
D15*
X132721000Y-44570400D03*
D16*
X132721000Y-50470400D03*
D14*
X135261000Y-49650400D03*
X137121000Y-49270400D03*
D16*
X137721000Y-48370400D03*
D12*
X137801000Y-44570400D03*
D11*
X138221000Y-44570400D03*
%TD*%
D17*
%TO.C,J2*%
X120960799Y-66719198D03*
D18*
X120960799Y-69259198D03*
X120960799Y-71799198D03*
X120960799Y-74339198D03*
X120960799Y-76879198D03*
%TD*%
D17*
%TO.C,J4*%
X120960799Y-80536798D03*
D18*
X120960799Y-83076798D03*
X120960799Y-85616798D03*
X120960799Y-88156798D03*
X120960799Y-90696798D03*
X120960799Y-93236798D03*
%TD*%
D17*
%TO.C,J5*%
X143955199Y-112534399D03*
D18*
X143955199Y-115074399D03*
X143955199Y-117614399D03*
%TD*%
D11*
%TO.C,SW17*%
X103724400Y-109892600D03*
D12*
X104144400Y-109892600D03*
D13*
X104224399Y-104742599D03*
D14*
X105414400Y-112432600D03*
X106624400Y-115642600D03*
D15*
X109224400Y-109892600D03*
D16*
X109224400Y-115792600D03*
D14*
X111764400Y-114972600D03*
X113624400Y-114592600D03*
D16*
X114224400Y-113692600D03*
D12*
X114304400Y-109892600D03*
D11*
X114724400Y-109892600D03*
%TD*%
%TO.C,SW5*%
X59741599Y-55324000D03*
D12*
X60161599Y-55324000D03*
D13*
X60241598Y-50173999D03*
D14*
X61431599Y-57864000D03*
X62641599Y-61074000D03*
D15*
X65241599Y-55324000D03*
D16*
X65241599Y-61224000D03*
D14*
X67781599Y-60404000D03*
X69641599Y-60024000D03*
D16*
X70241599Y-59124000D03*
D12*
X70321599Y-55324000D03*
D11*
X70741599Y-55324000D03*
%TD*%
%TO.C,SW9*%
X81728000Y-43293800D03*
D12*
X82148000Y-43293800D03*
D13*
X82227999Y-38143799D03*
D14*
X83418000Y-45833800D03*
X84628000Y-49043800D03*
D15*
X87228000Y-43293800D03*
D16*
X87228000Y-49193800D03*
D14*
X89768000Y-48373800D03*
X91628000Y-47993800D03*
D16*
X92228000Y-47093800D03*
D12*
X92308000Y-43293800D03*
D11*
X92728000Y-43293800D03*
%TD*%
%TO.C,SW14*%
X103724400Y-41058600D03*
D12*
X104144400Y-41058600D03*
D13*
X104224399Y-35908599D03*
D14*
X105414400Y-43598600D03*
X106624400Y-46808600D03*
D15*
X109224400Y-41058600D03*
D16*
X109224400Y-46958600D03*
D14*
X111764400Y-46138600D03*
X113624400Y-45758600D03*
D16*
X114224400Y-44858600D03*
D12*
X114304400Y-41058600D03*
D11*
X114724400Y-41058600D03*
%TD*%
%TO.C,SW15*%
X103724400Y-64020200D03*
D12*
X104144400Y-64020200D03*
D13*
X104224399Y-58870199D03*
D14*
X105414400Y-66560200D03*
X106624400Y-69770200D03*
D15*
X109224400Y-64020200D03*
D16*
X109224400Y-69920200D03*
D14*
X111764400Y-69100200D03*
X113624400Y-68720200D03*
D16*
X114224400Y-67820200D03*
D12*
X114304400Y-64020200D03*
D11*
X114724400Y-64020200D03*
%TD*%
D17*
%TO.C,J1*%
X120885199Y-106904399D03*
D18*
X120885199Y-109444399D03*
X120885199Y-111984399D03*
X120885199Y-114524399D03*
X120885199Y-117064399D03*
X120885199Y-119604399D03*
%TD*%
D11*
%TO.C,SW1*%
X38237200Y-55330601D03*
D12*
X38657200Y-55330601D03*
D13*
X38737199Y-50180600D03*
D14*
X39927200Y-57870601D03*
X41137200Y-61080601D03*
D15*
X43737200Y-55330601D03*
D16*
X43737200Y-61230601D03*
D14*
X46277200Y-60410601D03*
X48137200Y-60030601D03*
D16*
X48737200Y-59130601D03*
D12*
X48817200Y-55330601D03*
D11*
X49237200Y-55330601D03*
%TD*%
%TO.C,SW24*%
X148709399Y-67506598D03*
D12*
X149129399Y-67506598D03*
D13*
X149209398Y-62356597D03*
D14*
X150399399Y-70046598D03*
X151609399Y-73256598D03*
D15*
X154209399Y-67506598D03*
D16*
X154209399Y-73406598D03*
D14*
X156749399Y-72586598D03*
X158609399Y-72206598D03*
D16*
X159209399Y-71306598D03*
D12*
X159289399Y-67506598D03*
D11*
X159709399Y-67506598D03*
%TD*%
%TO.C,SW8*%
X59741599Y-124132600D03*
D12*
X60161599Y-124132600D03*
D13*
X60241598Y-118982599D03*
D14*
X61431599Y-126672600D03*
X62641599Y-129882600D03*
D15*
X65241599Y-124132600D03*
D16*
X65241599Y-130032600D03*
D14*
X67781599Y-129212600D03*
X69641599Y-128832600D03*
D16*
X70241599Y-127932600D03*
D12*
X70321599Y-124132600D03*
D11*
X70741599Y-124132600D03*
%TD*%
%TO.C,SW10*%
X81753400Y-66255400D03*
D12*
X82173400Y-66255400D03*
D13*
X82253399Y-61105399D03*
D14*
X83443400Y-68795400D03*
X84653400Y-72005400D03*
D15*
X87253400Y-66255400D03*
D16*
X87253400Y-72155400D03*
D14*
X89793400Y-71335400D03*
X91653400Y-70955400D03*
D16*
X92253400Y-70055400D03*
D12*
X92333400Y-66255400D03*
D11*
X92753400Y-66255400D03*
%TD*%
%TO.C,SW25*%
X148734799Y-90442798D03*
D12*
X149154799Y-90442798D03*
D13*
X149234798Y-85292797D03*
D14*
X150424799Y-92982798D03*
X151634799Y-96192798D03*
D15*
X154234799Y-90442798D03*
D16*
X154234799Y-96342798D03*
D14*
X156774799Y-95522798D03*
X158634799Y-95142798D03*
D16*
X159234799Y-94242798D03*
D12*
X159314799Y-90442798D03*
D11*
X159734799Y-90442798D03*
%TD*%
%TO.C,SW26*%
X148734799Y-113404398D03*
D12*
X149154799Y-113404398D03*
D13*
X149234798Y-108254397D03*
D14*
X150424799Y-115944398D03*
X151634799Y-119154398D03*
D15*
X154234799Y-113404398D03*
D16*
X154234799Y-119304398D03*
D14*
X156774799Y-118484398D03*
X158634799Y-118104398D03*
D16*
X159234799Y-117204398D03*
D12*
X159314799Y-113404398D03*
D11*
X159734799Y-113404398D03*
%TD*%
%TO.C,SW20*%
X127221000Y-67506600D03*
D12*
X127641000Y-67506600D03*
D13*
X127720999Y-62356599D03*
D14*
X128911000Y-70046600D03*
X130121000Y-73256600D03*
D15*
X132721000Y-67506600D03*
D16*
X132721000Y-73406600D03*
D14*
X135261000Y-72586600D03*
X137121000Y-72206600D03*
D16*
X137721000Y-71306600D03*
D12*
X137801000Y-67506600D03*
D11*
X138221000Y-67506600D03*
%TD*%
%TO.C,SW2*%
X38237200Y-78292201D03*
D12*
X38657200Y-78292201D03*
D13*
X38737199Y-73142200D03*
D14*
X39927200Y-80832201D03*
X41137200Y-84042201D03*
D15*
X43737200Y-78292201D03*
D16*
X43737200Y-84192201D03*
D14*
X46277200Y-83372201D03*
X48137200Y-82992201D03*
D16*
X48737200Y-82092201D03*
D12*
X48817200Y-78292201D03*
D11*
X49237200Y-78292201D03*
%TD*%
%TO.C,SW22*%
X127246400Y-113404400D03*
D12*
X127666400Y-113404400D03*
D13*
X127746399Y-108254399D03*
D14*
X128936400Y-115944400D03*
X130146400Y-119154400D03*
D15*
X132746400Y-113404400D03*
D16*
X132746400Y-119304400D03*
D14*
X135286400Y-118484400D03*
X137146400Y-118104400D03*
D16*
X137746400Y-117204400D03*
D12*
X137826400Y-113404400D03*
D11*
X138246400Y-113404400D03*
%TD*%
%TO.C,SW23*%
X148734799Y-44544998D03*
D12*
X149154799Y-44544998D03*
D13*
X149234798Y-39394997D03*
D14*
X150424799Y-47084998D03*
X151634799Y-50294998D03*
D15*
X154234799Y-44544998D03*
D16*
X154234799Y-50444998D03*
D14*
X156774799Y-49624998D03*
X158634799Y-49244998D03*
D16*
X159234799Y-48344998D03*
D12*
X159314799Y-44544998D03*
D11*
X159734799Y-44544998D03*
%TD*%
%TO.C,SW6*%
X59741599Y-78234800D03*
D12*
X60161599Y-78234800D03*
D13*
X60241598Y-73084799D03*
D14*
X61431599Y-80774800D03*
X62641599Y-83984800D03*
D15*
X65241599Y-78234800D03*
D16*
X65241599Y-84134800D03*
D14*
X67781599Y-83314800D03*
X69641599Y-82934800D03*
D16*
X70241599Y-82034800D03*
D12*
X70321599Y-78234800D03*
D11*
X70741599Y-78234800D03*
%TD*%
%TO.C,SW3*%
X38237200Y-101228401D03*
D12*
X38657200Y-101228401D03*
D13*
X38737199Y-96078400D03*
D14*
X39927200Y-103768401D03*
X41137200Y-106978401D03*
D15*
X43737200Y-101228401D03*
D16*
X43737200Y-107128401D03*
D14*
X46277200Y-106308401D03*
X48137200Y-105928401D03*
D16*
X48737200Y-105028401D03*
D12*
X48817200Y-101228401D03*
D11*
X49237200Y-101228401D03*
%TD*%
%TO.C,SW4*%
X38237200Y-124190001D03*
D12*
X38657200Y-124190001D03*
D13*
X38737199Y-119040000D03*
D14*
X39927200Y-126730001D03*
X41137200Y-129940001D03*
D15*
X43737200Y-124190001D03*
D16*
X43737200Y-130090001D03*
D14*
X46277200Y-129270001D03*
X48137200Y-128890001D03*
D16*
X48737200Y-127990001D03*
D12*
X48817200Y-124190001D03*
D11*
X49237200Y-124190001D03*
%TD*%
M02*
