M48
; DRILL file {KiCad (6.99.0-4085-g6c752680d7)} date Mon Nov 14 18:26:04 2022
; FORMAT={-:-/ absolute / inch / decimal}
; #@! TF.CreationDate,2022-11-14T18:26:04+08:00
; #@! TF.GenerationSoftware,Kicad,Pcbnew,(6.99.0-4085-g6c752680d7)
; #@! TF.FileFunction,Plated,1,4,PTH
FMAT,2
INCH
; #@! TA.AperFunction,Plated,PTH,ViaDrill
T1C0.0118
; #@! TA.AperFunction,Plated,PTH,ComponentDrill
T2C0.0394
; #@! TA.AperFunction,Plated,PTH,ComponentDrill
T3C0.0472
; #@! TA.AperFunction,Plated,PTH,ComponentDrill
T4C0.0591
%
G90
G05
T1
X1.4616Y-4.5738
X1.5031Y-4.7823
X1.5679Y-2.9386
X1.5679Y-3.8402
X1.6132Y-2.0478
X1.6132Y-4.7525
X1.7283Y-3.5394
X1.8297Y-2.8175
X1.8297Y-3.725
X1.8297Y-4.6285
X1.8632Y-2.0891
X1.8829Y-1.9533
X1.938Y-2.0458
X1.9486Y-3.3756
X1.9675Y-2.0419
X1.9951Y-2.0458
X2.2854Y-3.7461
X2.2894Y-3.9488
X2.3189Y-2.4724
X2.3258Y-4.7746
X2.3405Y-4.3292
X2.372Y-3.7323
X2.3848Y-1.9252
X2.3927Y-4.56
X2.4154Y-2.0335
X2.4528Y-4.3524
X2.4606Y-2.9459
X2.4606Y-3.8563
X2.4606Y-4.7559
X2.4902Y-4.3524
X2.5138Y-4.3996
X2.6043Y-2.6024
X2.6083Y-3.4272
X2.6083Y-3.5984
X2.6457Y-3.4291
X2.6476Y-3.6004
X2.6752Y-3.7185
X2.6768Y-2.8212
X2.6772Y-1.9213
X2.6811Y-2.6024
X2.7205Y-4.2618
X2.7264Y-4.6634
X2.7579Y-3.5138
X2.7894Y-3.5984
X2.8031Y-2.5
X2.8091Y-3.5295
X3.1496Y-3.0453
X3.1614Y-3.0827
X3.1929Y-3.2874
X3.2087Y-2.4902
X3.2205Y-2.9587
X3.2402Y-2.9051
X3.2657Y-1.4626
X3.2776Y-1.5689
X3.2795Y-2.4685
X3.2874Y-2.0984
X3.3031Y-3.0472
X3.3051Y-3.0827
X3.3071Y-3.1732
X3.3268Y-3.2441
X3.3268Y-3.376
X3.3268Y-4.2874
X3.3346Y-2.3327
X3.3425Y-3.0955
X3.3484Y-2.0177
X3.3642Y-3.1575
X3.374Y-3.0748
X3.3976Y-3.2185
X3.4075Y-3.0571
X3.4252Y-2.0197
X3.5413Y-4.1516
X3.5433Y-1.4429
X3.5433Y-2.3406
X3.5984Y-3.2874
X3.6083Y-4.1496
X3.6378Y-3.9705
X3.6398Y-4.0984
X3.6506Y-3.4035
X3.6614Y-3.3248
X3.6634Y-4.002
X3.6713Y-3.8051
X3.69Y-3.3718
X3.8858Y-3.0787
X3.9862Y-3.0354
X3.9931Y-2.128
X4.0078Y-3.9134
X4.0276Y-3.6949
X4.0571Y-3.5138
X4.0571Y-4.1594
X4.0591Y-3.6811
X4.0689Y-2.2303
X4.128Y-4.0512
X4.1398Y-3.9488
X4.1831Y-3.9941
X4.187Y-4.1979
X4.1909Y-1.4823
X4.1909Y-2.3849
X4.1929Y-3.2953
X4.1969Y-2.99
X4.2126Y-3.9154
X4.2372Y-3.8046
X4.2382Y-2.8248
X4.2697Y-3.1299
X4.2835Y-2.9646
X4.2913Y-3.9193
X4.3563Y-3.1063
X4.4075Y-1.3543
X4.4075Y-2.2579
X4.4094Y-3.1673
X4.4094Y-4.065
X4.437Y-3.0276
X4.4488Y-2.0197
X4.4646Y-3.252
X4.4764Y-1.4469
X4.4823Y-2.815
X4.5177Y-2.0217
X4.5276Y-4.0748
X4.5374Y-4.3839
X4.5709Y-2.8976
X4.6239Y-3.2383
X4.811Y-3.1161
X4.813Y-3.2343
X4.9449Y-3.2677
X4.9547Y-3.0039
X4.9764Y-2.2677
X4.9766Y-2.3508
X4.9961Y-2.0925
X4.9961Y-2.9429
X4.9961Y-3.0157
X5.0039Y-3.4469
X5.0433Y-1.502
X5.0709Y-3.3917
X5.086Y-3.0804
X5.1142Y-1.628
X5.1161Y-2.5354
X5.1161Y-4.3386
X5.1181Y-3.2982
X5.1673Y-3.2185
X5.187Y-4.1673
X5.2008Y-3.2008
X5.3056Y-3.9331
X5.3071Y-4.0276
X5.3317Y-1.4946
X5.3327Y-2.3917
X5.3366Y-4.2028
X5.3386Y-3.3021
X5.3386Y-3.4409
X5.3406Y-2.0925
X5.4134Y-4.2795
X5.4154Y-2.0906
X5.437Y-3.4626
X5.439Y-2.4902
X5.4685Y-3.935
X5.4715Y-3.2854
X5.7835Y-1.5059
X5.9606Y-1.624
X5.9626Y-2.5295
X5.9626Y-4.3366
X5.9646Y-3.4252
X5.9862Y-3.2864
X6.0118Y-2.3465
X6.0768Y-3.2648
X6.1791Y-2.3937
X6.1791Y-4.1988
X6.1811Y-1.4921
X6.2303Y-2.0886
X6.2323Y-3.3091
X6.2362Y-2.4882
X6.2402Y-1.5846
X6.2402Y-3.3898
X6.2421Y-3.1526
X6.2421Y-4.1575
X6.2579Y-3.0157
X6.2579Y-3.0807
X6.2992Y-4.2992
X6.3051Y-2.0886
X6.3066Y-3.217
X6.3346Y-3.0374
T2
X2.114Y-2.1797
X2.114Y-2.2797
X2.114Y-2.3797
X4.7593Y-4.2088
X4.7593Y-4.3088
X4.7593Y-4.4088
X4.7593Y-4.5088
X4.7593Y-4.6088
X4.7593Y-4.7088
X4.7622Y-2.6267
X4.7622Y-2.7267
X4.7622Y-2.8267
X4.7622Y-2.9267
X4.7622Y-3.0267
X4.7622Y-3.1707
X4.7622Y-3.2707
X4.7622Y-3.3707
X4.7622Y-3.4707
X4.7622Y-3.5707
X4.7622Y-3.6707
X5.6675Y-4.4305
X5.6675Y-4.5305
X5.6675Y-4.6305
T3
X1.6196Y-2.4047
X1.6196Y-3.3087
X1.6196Y-4.2117
X1.6196Y-5.1157
X1.7219Y-2.4107
X1.7219Y-3.3147
X1.7219Y-4.2177
X1.7219Y-5.1217
X1.8952Y-2.3634
X1.8952Y-3.2674
X1.8952Y-4.1704
X1.8952Y-5.0744
X1.9188Y-2.328
X1.9188Y-3.232
X1.9188Y-4.135
X1.9188Y-5.039
X2.4662Y-2.4045
X2.4662Y-3.3065
X2.4662Y-4.2105
X2.4662Y-5.1135
X2.5686Y-2.4104
X2.5686Y-3.3124
X2.5686Y-4.2164
X2.5686Y-5.1194
X2.7418Y-2.3631
X2.7418Y-3.2651
X2.7418Y-4.1691
X2.7418Y-5.0721
X2.7654Y-2.3277
X2.7654Y-3.2297
X2.7654Y-4.1337
X2.7654Y-5.0367
X3.3318Y-1.9309
X3.3328Y-2.8349
X3.3328Y-3.7379
X3.3328Y-4.6419
X3.4342Y-1.9368
X3.4352Y-2.8408
X3.4352Y-3.7438
X3.4352Y-4.6478
X3.6074Y-1.8895
X3.6084Y-2.7935
X3.6084Y-3.6965
X3.6084Y-4.6005
X3.631Y-1.8541
X3.632Y-2.7581
X3.632Y-3.6611
X3.632Y-4.5651
X4.1978Y-1.8429
X4.1978Y-2.7469
X4.1978Y-3.6509
X4.1978Y-4.5529
X4.3002Y-1.8488
X4.3002Y-2.7528
X4.3002Y-3.6568
X4.3002Y-4.5588
X4.4734Y-1.8015
X4.4734Y-2.7055
X4.4734Y-3.6095
X4.4734Y-4.5115
X4.497Y-1.7661
X4.497Y-2.6701
X4.497Y-3.5741
X4.497Y-4.4761
X5.1229Y-1.9811
X5.1229Y-2.8841
X5.1239Y-3.7871
X5.1239Y-4.6911
X5.2252Y-1.987
X5.2252Y-2.89
X5.2262Y-3.793
X5.2262Y-4.697
X5.3985Y-1.9398
X5.3985Y-2.8428
X5.3995Y-3.7458
X5.3995Y-4.6498
X5.4221Y-1.9043
X5.4221Y-2.8073
X5.4231Y-3.7103
X5.4231Y-4.6143
X5.9689Y-2.8841
X5.9699Y-1.9801
X5.9699Y-3.7871
X5.9699Y-4.6911
X6.0712Y-2.89
X6.0722Y-1.986
X6.0722Y-3.793
X6.0722Y-4.697
X6.2445Y-2.8428
X6.2455Y-1.9388
X6.2455Y-3.7458
X6.2455Y-4.6498
X6.2681Y-2.8073
X6.2691Y-1.9033
X6.2691Y-3.7103
X6.2691Y-4.6143
T4
X1.5719Y-2.2784
X1.5719Y-3.1824
X1.5719Y-4.0854
X1.5719Y-4.9894
X1.8219Y-2.3784
X1.8219Y-3.2824
X1.8219Y-4.1854
X1.8219Y-5.0894
X2.4186Y-2.2781
X2.4186Y-3.1801
X2.4186Y-4.0841
X2.4186Y-4.9871
X2.6686Y-2.3781
X2.6686Y-3.2801
X2.6686Y-4.1841
X2.6686Y-5.0871
X3.2842Y-1.8045
X3.2852Y-2.7085
X3.2852Y-3.6115
X3.2852Y-4.5155
X3.5342Y-1.9045
X3.5352Y-2.8085
X3.5352Y-3.7115
X3.5352Y-4.6155
X4.1502Y-1.7165
X4.1502Y-2.6205
X4.1502Y-3.5245
X4.1502Y-4.4265
X4.4002Y-1.8165
X4.4002Y-2.7205
X4.4002Y-3.6245
X4.4002Y-4.5265
X5.0752Y-1.8547
X5.0752Y-2.7577
X5.0762Y-3.6607
X5.0762Y-4.5647
X5.3252Y-1.9547
X5.3252Y-2.8577
X5.3262Y-3.7607
X5.3262Y-4.6647
X5.9212Y-2.7577
X5.9222Y-1.8537
X5.9222Y-3.6607
X5.9222Y-4.5647
X6.1712Y-2.8577
X6.1722Y-1.9537
X6.1722Y-3.7607
X6.1722Y-4.6647
T0
M30
