%TF.GenerationSoftware,KiCad,Pcbnew,(6.99.0-4085-g6c752680d7)*%
%TF.CreationDate,2022-11-14T17:23:02+08:00*%
%TF.ProjectId,Left Flex PCB,4c656674-2046-46c6-9578-205043422e6b,rev?*%
%TF.SameCoordinates,Original*%
%TF.FileFunction,Profile,NP*%
%FSLAX46Y46*%
G04 Gerber Fmt 4.6, Leading zero omitted, Abs format (unit mm)*
G04 Created by KiCad (PCBNEW (6.99.0-4085-g6c752680d7)) date 2022-11-14 17:23:02*
%MOMM*%
%LPD*%
G01*
G04 APERTURE LIST*
%TA.AperFunction,Profile*%
%ADD10C,0.050000*%
%TD*%
%TA.AperFunction,Profile*%
%ADD11C,0.200000*%
%TD*%
%TA.AperFunction,Profile*%
%ADD12C,0.120000*%
%TD*%
G04 APERTURE END LIST*
D10*
X51117606Y-122930206D02*
X57867594Y-122941987D01*
X72502597Y-122940290D02*
X79252585Y-122952071D01*
X96327606Y-119410206D02*
X103077594Y-119421987D01*
X118217606Y-121643999D02*
X124967594Y-121655780D01*
X146537594Y-133201987D02*
X139787606Y-133190206D01*
X168312587Y-133189890D02*
X161562599Y-133178109D01*
X168170619Y-47833999D02*
X161420631Y-47822218D01*
X146452586Y-47827792D02*
X139702598Y-47816011D01*
X124377582Y-35845780D02*
X117627594Y-35833999D01*
X95807606Y-33572218D02*
X102557594Y-33583999D01*
X78672586Y-37102071D02*
X71922598Y-37090290D01*
X57377582Y-37075780D02*
X50627594Y-37063999D01*
D11*
X107075401Y-34084399D02*
G75*
G03*
X106575394Y-33584399I-500001J-1D01*
G01*
X106575394Y-33584399D02*
X102557594Y-33583999D01*
X91775394Y-33584394D02*
G75*
G03*
X91275394Y-34084399I6J-500006D01*
G01*
X91775394Y-33584399D02*
X95807606Y-33572218D01*
X120275394Y-79859399D02*
X108575394Y-79859399D01*
X75775394Y-104059399D02*
X89025394Y-104059399D01*
X91775394Y-101559394D02*
G75*
G03*
X91275394Y-102059400I6J-500006D01*
G01*
X67775394Y-120434398D02*
X67775394Y-82609399D01*
D10*
X91275394Y-56534400D02*
X91275394Y-54534400D01*
D11*
X157275393Y-92859393D02*
G75*
G03*
X156775393Y-93359399I7J-500007D01*
G01*
X113775394Y-35834399D02*
X117627594Y-35833999D01*
X135775394Y-115809394D02*
G75*
G03*
X135275394Y-116309398I6J-500006D01*
G01*
X83575394Y-120434398D02*
X83575394Y-105559400D01*
X120275394Y-75659401D02*
G75*
G03*
X120275394Y-74659399I6J500001D01*
G01*
D10*
X156175394Y-62284401D02*
X153265394Y-62284401D01*
D11*
X121264594Y-97609401D02*
G75*
G03*
X121264594Y-98609399I6J-499999D01*
G01*
X135275401Y-132684399D02*
G75*
G03*
X135775393Y-133184399I499999J-1D01*
G01*
X89025394Y-104059394D02*
G75*
G03*
X89525394Y-103559399I6J499994D01*
G01*
X83575400Y-105559400D02*
G75*
G03*
X83075394Y-105059400I-500000J0D01*
G01*
X100975394Y-86984400D02*
G75*
G03*
X100975394Y-86984400I-2200000J0D01*
G01*
X151075394Y-68784399D02*
X151075394Y-48334399D01*
X99275394Y-78609400D02*
X106575393Y-78609400D01*
X113775394Y-74659399D02*
X120275394Y-74659399D01*
X84597601Y-94843999D02*
G75*
G03*
X85097594Y-95343999I499999J-1D01*
G01*
X113264100Y-121144000D02*
G75*
G03*
X113764112Y-121644000I500000J0D01*
G01*
X62075394Y-58034399D02*
X62075394Y-37584399D01*
D10*
X62065395Y-119824400D02*
X62075394Y-120434398D01*
D11*
X90025394Y-100559394D02*
G75*
G03*
X89525394Y-101059399I6J-500006D01*
G01*
X68275394Y-37084394D02*
G75*
G03*
X67775394Y-37584399I6J-500006D01*
G01*
X85028801Y-121014399D02*
G75*
G03*
X85528793Y-121514399I499999J-1D01*
G01*
X62075401Y-37584399D02*
G75*
G03*
X61575394Y-37084399I-500001J-1D01*
G01*
X150575393Y-86659399D02*
X143275393Y-86659399D01*
X129075401Y-36334399D02*
G75*
G03*
X128575394Y-35834399I-500001J-1D01*
G01*
X168170619Y-47833999D02*
X172075394Y-47834399D01*
X121287309Y-103809400D02*
X128575394Y-103809400D01*
X54275394Y-75909394D02*
G75*
G03*
X53775394Y-76409399I6J-500006D01*
G01*
X54275394Y-81109394D02*
G75*
G03*
X53775394Y-81609399I6J-500006D01*
G01*
X85825394Y-96359395D02*
G75*
G03*
X85325395Y-96859399I6J-500005D01*
G01*
X112275394Y-73909399D02*
X112275394Y-75159399D01*
X98275394Y-101559400D02*
X91775394Y-101559399D01*
X143275393Y-86659393D02*
G75*
G03*
X142775393Y-87159399I7J-500007D01*
G01*
X108075401Y-79359399D02*
G75*
G03*
X108575394Y-79859399I499999J-1D01*
G01*
X107075394Y-54534399D02*
X107075394Y-34084399D01*
X139787606Y-133190206D02*
X135775393Y-133184399D01*
D10*
X62075394Y-82609400D02*
X62065394Y-104054401D01*
X113264112Y-119144000D02*
X113264112Y-121144000D01*
D11*
X150575394Y-133184399D02*
X146537594Y-133201987D01*
D10*
X91775394Y-95359400D02*
X98275395Y-95359399D01*
D11*
X122975394Y-43334399D02*
G75*
G03*
X122975394Y-43334399I-2200000J0D01*
G01*
X143275392Y-91859393D02*
G75*
G03*
X142775393Y-92359400I8J-500007D01*
G01*
X134275402Y-110109399D02*
G75*
G03*
X134775394Y-110609398I499998J-1D01*
G01*
X67775401Y-75409399D02*
G75*
G03*
X68275394Y-75909399I499999J-1D01*
G01*
X67775394Y-75409399D02*
X67775394Y-60034399D01*
D10*
X67775394Y-60034399D02*
X67775394Y-58034400D01*
D11*
X129075394Y-56784400D02*
X129075394Y-36334399D01*
X135275401Y-109109399D02*
G75*
G03*
X135775394Y-109609399I499999J-1D01*
G01*
X62065352Y-109904398D02*
G75*
G03*
X62665394Y-110554399I615248J-34002D01*
G01*
X129075393Y-97109400D02*
X129075394Y-58784400D01*
D10*
X84587594Y-64793598D02*
X84597594Y-94843999D01*
X156775393Y-53014400D02*
X156775393Y-48334400D01*
D11*
X121264594Y-97609399D02*
X128575394Y-97609399D01*
X84825394Y-99859399D02*
X75775394Y-99859399D01*
D10*
X151075394Y-70784400D02*
X151075394Y-68784399D01*
D11*
X166475393Y-124184398D02*
G75*
G03*
X166475393Y-124184398I-2200000J0D01*
G01*
D10*
X129075394Y-119143999D02*
X129075394Y-121143999D01*
D11*
X83075394Y-122934394D02*
G75*
G03*
X83575394Y-122434398I6J499994D01*
G01*
X113264112Y-119144000D02*
X113275393Y-81359399D01*
X129575394Y-102809400D02*
X121287309Y-102809399D01*
D10*
X85028793Y-121014399D02*
X85010794Y-105769598D01*
D11*
X163775394Y-92859400D02*
G75*
G03*
X163775394Y-91859400I6J500000D01*
G01*
X77475394Y-113434398D02*
G75*
G03*
X77475394Y-113434398I-2200000J0D01*
G01*
D10*
X107075394Y-116893999D02*
X107075394Y-118893999D01*
D11*
X135275393Y-48334399D02*
X135275393Y-68784399D01*
X74775394Y-82109401D02*
G75*
G03*
X74775394Y-81109399I6J500001D01*
G01*
X151075401Y-48334398D02*
G75*
G03*
X150575393Y-47834399I-500001J-2D01*
G01*
X62075400Y-82609400D02*
G75*
G03*
X61575394Y-82109400I-500000J0D01*
G01*
X156775402Y-132684398D02*
G75*
G03*
X157275393Y-133184398I499998J-2D01*
G01*
X135275393Y-70784400D02*
X135275394Y-109109399D01*
X83575394Y-60034400D02*
X83575395Y-98359399D01*
X75775394Y-105059400D02*
X83075394Y-105059400D01*
D10*
X172575394Y-131184399D02*
X172575394Y-132684399D01*
D11*
X172575394Y-131184399D02*
X172575394Y-70784400D01*
X91275394Y-34084399D02*
X91275394Y-54534400D01*
X75275400Y-104559400D02*
G75*
G03*
X75775394Y-105059400I500000J0D01*
G01*
X90809994Y-105233594D02*
G75*
G03*
X91309994Y-104733600I6J499994D01*
G01*
X172075394Y-133184394D02*
G75*
G03*
X172575394Y-132684399I6J499994D01*
G01*
X153265394Y-53514393D02*
G75*
G03*
X152765393Y-54014402I6J-500007D01*
G01*
X135775393Y-47834399D02*
X139702598Y-47816011D01*
X166475394Y-55334400D02*
G75*
G03*
X166475394Y-55334400I-2200000J0D01*
G01*
D10*
X62075394Y-120434398D02*
X62075394Y-122434398D01*
X91275394Y-102059400D02*
X91309994Y-104733600D01*
X153265394Y-53514401D02*
X156275392Y-53514401D01*
D11*
X106575394Y-72409394D02*
G75*
G03*
X107075394Y-71909399I6J499994D01*
G01*
X133775393Y-98609399D02*
X121264594Y-98609399D01*
X83575394Y-58034400D02*
X83575395Y-37584399D01*
D10*
X90809994Y-105233600D02*
X85510794Y-105269598D01*
X113275394Y-58784400D02*
X113275394Y-56784400D01*
D11*
X100975394Y-109934399D02*
G75*
G03*
X100975394Y-109934399I-2200000J0D01*
G01*
X156775394Y-68784399D02*
X156775393Y-70784399D01*
X144975393Y-78284400D02*
G75*
G03*
X144975393Y-78284400I-2200000J0D01*
G01*
X113775394Y-35834394D02*
G75*
G03*
X113275394Y-36334399I6J-500006D01*
G01*
X144965393Y-101234400D02*
G75*
G03*
X144965393Y-101234400I-2199999J0D01*
G01*
X55975394Y-44584400D02*
G75*
G03*
X55975394Y-44584400I-2200000J0D01*
G01*
X151075400Y-93359400D02*
G75*
G03*
X150575394Y-92859400I-500000J0D01*
G01*
X65575394Y-119324395D02*
G75*
G03*
X66075395Y-118824398I6J499995D01*
G01*
X98275394Y-100559400D02*
X90025394Y-100559399D01*
D10*
X107075394Y-56534399D02*
X107075394Y-54534399D01*
D11*
X67775402Y-122434398D02*
G75*
G03*
X68275394Y-122934398I499998J-2D01*
G01*
X55975394Y-67534400D02*
G75*
G03*
X55975394Y-67534400I-2199999J0D01*
G01*
X46775394Y-122934398D02*
X51117606Y-122930206D01*
X163775393Y-87659400D02*
X143275393Y-87659399D01*
X143275393Y-92859400D02*
X150575394Y-92859400D01*
X172075394Y-133184399D02*
X168312587Y-133189890D01*
X130075402Y-114309398D02*
G75*
G03*
X130575393Y-114809398I499998J-2D01*
G01*
X156775394Y-62934400D02*
X156775394Y-68784399D01*
X122975394Y-89234399D02*
G75*
G03*
X122975394Y-89234399I-2200000J0D01*
G01*
X90247594Y-79793999D02*
X90237594Y-64783999D01*
X108075394Y-79359399D02*
X108075394Y-78109399D01*
X100975394Y-41084399D02*
G75*
G03*
X100975394Y-41084399I-2200000J0D01*
G01*
X120275394Y-80859401D02*
G75*
G03*
X120275394Y-79859399I6J500001D01*
G01*
D10*
X46275394Y-60034400D02*
X46275394Y-120434398D01*
D11*
X163775394Y-87659400D02*
G75*
G03*
X163775394Y-86659400I6J500000D01*
G01*
D10*
X172575394Y-70784400D02*
X172575394Y-68784399D01*
D11*
X163775394Y-91859399D02*
X143275393Y-91859399D01*
X98775401Y-72909400D02*
G75*
G03*
X99275393Y-73409399I499999J0D01*
G01*
D10*
X62665394Y-110554399D02*
X65575394Y-110554399D01*
X135275393Y-131184399D02*
X135275393Y-132684399D01*
D11*
X99275393Y-72409394D02*
G75*
G03*
X98775394Y-72909399I7J-500006D01*
G01*
X112275401Y-75159399D02*
G75*
G03*
X112775394Y-75659399I499999J-1D01*
G01*
X53775400Y-81609400D02*
G75*
G03*
X54275394Y-82109400I500000J0D01*
G01*
X166478394Y-101240402D02*
G75*
G03*
X166478394Y-101240402I-2200000J0D01*
G01*
X156775448Y-62934403D02*
G75*
G03*
X156175394Y-62284400I-615248J34003D01*
G01*
X146452586Y-47827792D02*
X150575393Y-47834399D01*
D10*
X135275393Y-70784400D02*
X135275393Y-68784399D01*
D11*
X118217606Y-121643999D02*
X113764112Y-121644000D01*
X68275394Y-82109394D02*
G75*
G03*
X67775394Y-82609399I6J-500006D01*
G01*
X124377582Y-35845780D02*
X128575394Y-35834399D01*
X75775394Y-104059394D02*
G75*
G03*
X75275394Y-104559399I6J-500006D01*
G01*
X46775394Y-37084394D02*
G75*
G03*
X46275394Y-37584399I6J-500006D01*
G01*
X90247594Y-79793999D02*
X91275394Y-79793999D01*
X113275394Y-36334399D02*
X113275394Y-56784400D01*
X106575394Y-72409399D02*
X99275394Y-72409399D01*
X144975394Y-124184399D02*
G75*
G03*
X144975394Y-124184399I-2200000J0D01*
G01*
X107075394Y-116893999D02*
X107075393Y-79109400D01*
X74775394Y-82109399D02*
X68275394Y-82109399D01*
X128575394Y-121643994D02*
G75*
G03*
X129075394Y-121143999I6J499994D01*
G01*
X122975394Y-66284399D02*
G75*
G03*
X122975394Y-66284399I-2200000J0D01*
G01*
X74775394Y-76909401D02*
G75*
G03*
X74775394Y-75909399I6J500001D01*
G01*
X120275394Y-80859399D02*
X113775393Y-80859399D01*
X156775393Y-131184398D02*
X156775393Y-93359399D01*
X157275394Y-47834393D02*
G75*
G03*
X156775393Y-48334400I6J-500007D01*
G01*
D10*
X62065394Y-109904400D02*
X62065394Y-104054401D01*
D11*
X89525394Y-103559399D02*
X89525394Y-101059400D01*
X157275393Y-86659400D02*
X163775394Y-86659400D01*
D10*
X83575394Y-120434398D02*
X83575394Y-122434398D01*
D11*
X53775400Y-76409400D02*
G75*
G03*
X54275394Y-76909400I500000J0D01*
G01*
X142775400Y-92359400D02*
G75*
G03*
X143275393Y-92859400I500000J0D01*
G01*
X83075394Y-122934398D02*
X79252585Y-122952071D01*
X46275402Y-122434398D02*
G75*
G03*
X46775394Y-122934398I499998J-2D01*
G01*
X61575394Y-122934398D02*
X57867594Y-122941987D01*
X152765399Y-61784400D02*
G75*
G03*
X153265394Y-62284401I500001J0D01*
G01*
X77475394Y-67534399D02*
G75*
G03*
X77475394Y-67534399I-2200000J0D01*
G01*
X83075394Y-37084399D02*
X78672586Y-37102071D01*
X62075394Y-60034400D02*
X62075395Y-75409399D01*
X156775393Y-70784399D02*
X156775393Y-86159400D01*
D10*
X152765393Y-61784400D02*
X152765393Y-54014402D01*
D11*
X83575401Y-37584399D02*
G75*
G03*
X83075394Y-37084399I-500001J-1D01*
G01*
X166478394Y-78290402D02*
G75*
G03*
X166478394Y-78290402I-2200000J0D01*
G01*
X83075395Y-98859395D02*
G75*
G03*
X83575395Y-98359399I5J499995D01*
G01*
X66075401Y-111054400D02*
G75*
G03*
X65575394Y-110554399I-500001J0D01*
G01*
X128575394Y-121643999D02*
X124967594Y-121655780D01*
D10*
X91265994Y-120989600D02*
X91259194Y-119910798D01*
D11*
X129075394Y-104309400D02*
X129075394Y-119143999D01*
X135775394Y-109609399D02*
X142275394Y-109609398D01*
X83075395Y-98859399D02*
X75775394Y-98859399D01*
X96327606Y-119410206D02*
X91759194Y-119410798D01*
X142275393Y-114809398D02*
X130575393Y-114809398D01*
D10*
X65575394Y-119324399D02*
X62565396Y-119324399D01*
X46275394Y-58034400D02*
X46275394Y-60034400D01*
D11*
X121287309Y-102809400D02*
G75*
G03*
X121287309Y-103809400I-9J-500000D01*
G01*
X61575395Y-75909395D02*
G75*
G03*
X62075395Y-75409399I5J499995D01*
G01*
D10*
X83575394Y-58034400D02*
X83575394Y-60034400D01*
D11*
X142775401Y-87159400D02*
G75*
G03*
X143275393Y-87659399I499999J0D01*
G01*
X107575394Y-77609399D02*
X99275394Y-77609399D01*
X156775400Y-86159400D02*
G75*
G03*
X157275393Y-86659400I500000J0D01*
G01*
X130075400Y-103309399D02*
G75*
G03*
X129575394Y-102809400I-500000J-1D01*
G01*
X128575394Y-97609393D02*
G75*
G03*
X129075393Y-97109399I6J499993D01*
G01*
X107075400Y-79109400D02*
G75*
G03*
X106575393Y-78609400I-500000J0D01*
G01*
X157275394Y-47834400D02*
X161420631Y-47822218D01*
X106575394Y-119393994D02*
G75*
G03*
X107075394Y-118893999I6J499994D01*
G01*
X98275394Y-101559400D02*
G75*
G03*
X98275394Y-100559400I6J500000D01*
G01*
X151075394Y-131184399D02*
X151075394Y-93359400D01*
D10*
X67775394Y-120434398D02*
X67775394Y-122434398D01*
D11*
X98275395Y-96359400D02*
X85825394Y-96359399D01*
X135275393Y-131184399D02*
X135275394Y-116309398D01*
X85087594Y-64293594D02*
G75*
G03*
X84587594Y-64793598I6J-500006D01*
G01*
X77475394Y-44584400D02*
G75*
G03*
X77475394Y-44584400I-2200000J0D01*
G01*
X172575394Y-68784399D02*
X172575394Y-48334400D01*
X61575394Y-122934394D02*
G75*
G03*
X62075394Y-122434398I6J499994D01*
G01*
X142275394Y-110609402D02*
G75*
G03*
X142275394Y-109609398I6J500002D01*
G01*
X91275394Y-79793999D02*
X91275394Y-56534400D01*
D10*
X66075395Y-111054400D02*
X66075395Y-118824398D01*
D11*
X61575394Y-37084399D02*
X57377582Y-37075780D01*
X77475394Y-90484399D02*
G75*
G03*
X77475394Y-90484399I-2200000J0D01*
G01*
X85325395Y-96859399D02*
X85325394Y-99359399D01*
X91759194Y-119410794D02*
G75*
G03*
X91259194Y-119910798I6J-500006D01*
G01*
X142275393Y-115809402D02*
G75*
G03*
X142275393Y-114809398I7J500002D01*
G01*
X163775394Y-92859399D02*
X157275393Y-92859399D01*
X112775394Y-75659399D02*
X120275394Y-75659400D01*
X68275394Y-122934398D02*
X72502597Y-122940290D01*
X98775400Y-78109401D02*
G75*
G03*
X99275394Y-78609400I500000J1D01*
G01*
D10*
X156775393Y-131184398D02*
X156775393Y-132684398D01*
D11*
X122975394Y-112184399D02*
G75*
G03*
X122975394Y-112184399I-2200000J0D01*
G01*
D10*
X90765994Y-121489600D02*
X85528793Y-121514399D01*
D11*
X100975394Y-64034399D02*
G75*
G03*
X100975394Y-64034399I-2200000J0D01*
G01*
X129075400Y-104309400D02*
G75*
G03*
X128575394Y-103809400I-500000J0D01*
G01*
X135775393Y-47834393D02*
G75*
G03*
X135275393Y-48334399I7J-500007D01*
G01*
X75775394Y-98859394D02*
G75*
G03*
X75275394Y-99359399I6J-500006D01*
G01*
X89737594Y-64283999D02*
X85087594Y-64293598D01*
X46275394Y-37584399D02*
X46275394Y-58034400D01*
X106575394Y-119393999D02*
X103077594Y-119421987D01*
X108075400Y-78109401D02*
G75*
G03*
X107575394Y-77609400I-500000J1D01*
G01*
D10*
X62075394Y-58034399D02*
X62075394Y-60034400D01*
D11*
X150575393Y-86659393D02*
G75*
G03*
X151075393Y-86159399I7J499993D01*
G01*
X142275393Y-115809398D02*
X135775394Y-115809398D01*
X85510794Y-105269594D02*
G75*
G03*
X85010794Y-105769598I6J-500006D01*
G01*
X98275393Y-96359401D02*
G75*
G03*
X98275395Y-95359399I7J500001D01*
G01*
X68275394Y-37084399D02*
X71922598Y-37090290D01*
X151075393Y-86159399D02*
X151075394Y-70784400D01*
D10*
X129075394Y-56784400D02*
X129075394Y-58784400D01*
D11*
X156275392Y-53514393D02*
G75*
G03*
X156775393Y-53014400I8J499993D01*
G01*
X172575401Y-48334400D02*
G75*
G03*
X172075394Y-47834399I-500001J0D01*
G01*
X113775393Y-80859393D02*
G75*
G03*
X113275393Y-81359399I7J-500007D01*
G01*
X54275394Y-82109400D02*
X61575394Y-82109400D01*
X55975394Y-90484399D02*
G75*
G03*
X55975394Y-90484399I-2200000J0D01*
G01*
D10*
X46275394Y-120434398D02*
X46275394Y-122434398D01*
D11*
X99275393Y-77609394D02*
G75*
G03*
X98775394Y-78109399I7J-500006D01*
G01*
X150575394Y-133184394D02*
G75*
G03*
X151075394Y-132684399I6J499994D01*
G01*
X161562599Y-133178109D02*
X157275393Y-133184398D01*
X134775394Y-110609398D02*
X142275394Y-110609399D01*
X74775394Y-81109399D02*
X54275394Y-81109399D01*
X50627594Y-37063999D02*
X46775394Y-37084399D01*
X130075393Y-114309398D02*
X130075393Y-103309400D01*
X55975394Y-113434398D02*
G75*
G03*
X55975394Y-113434398I-2200000J0D01*
G01*
X61575395Y-75909399D02*
X54275394Y-75909399D01*
X75275401Y-99359399D02*
G75*
G03*
X75775394Y-99859399I499999J-1D01*
G01*
X67775394Y-37584399D02*
X67775394Y-58034400D01*
X107075394Y-56534399D02*
X107075394Y-71909399D01*
X62565396Y-119324395D02*
G75*
G03*
X62065395Y-119824400I4J-500005D01*
G01*
D10*
X151075394Y-131184399D02*
X151075394Y-132684399D01*
D11*
X113275394Y-58784400D02*
X113275394Y-74159399D01*
X111775394Y-73409399D02*
X99275394Y-73409399D01*
X90765994Y-121489594D02*
G75*
G03*
X91265994Y-120989600I6J499994D01*
G01*
X68275394Y-75909399D02*
X74775394Y-75909399D01*
X112275401Y-73909399D02*
G75*
G03*
X111775394Y-73409399I-500001J-1D01*
G01*
X134275401Y-99109399D02*
G75*
G03*
X133775393Y-98609399I-500001J-1D01*
G01*
X84825395Y-99859394D02*
G75*
G03*
X85325394Y-99359399I5J499994D01*
G01*
X74775394Y-76909399D02*
X54275394Y-76909400D01*
X144975393Y-55334399D02*
G75*
G03*
X144975393Y-55334399I-2200000J0D01*
G01*
X85097594Y-95343999D02*
X91775394Y-95359400D01*
X90237601Y-64783999D02*
G75*
G03*
X89737594Y-64283999I-500001J-1D01*
G01*
X113275401Y-74159399D02*
G75*
G03*
X113775394Y-74659399I499999J-1D01*
G01*
X134275394Y-110109398D02*
X134275393Y-99109399D01*
D12*
%TO.C,D55*%
X51991195Y-60956598D02*
X51991195Y-64056598D01*
X51991195Y-64056598D02*
X55591195Y-64056598D01*
X55591195Y-60956598D02*
X51991195Y-60956598D01*
X55591195Y-64056598D02*
X55591195Y-60956598D01*
%TO.C,D43*%
X96976194Y-34508600D02*
X96976194Y-37608600D01*
X96976194Y-37608600D02*
X100576194Y-37608600D01*
X100576194Y-34508600D02*
X96976194Y-34508600D01*
X100576194Y-37608600D02*
X100576194Y-34508600D01*
%TO.C,D18*%
X162475393Y-117634398D02*
X162475393Y-120734398D01*
X162475393Y-120734398D02*
X166075393Y-120734398D01*
X166075393Y-117634398D02*
X162475393Y-117634398D01*
X166075393Y-120734398D02*
X166075393Y-117634398D01*
%TO.C,D23*%
X118947194Y-82641600D02*
X118947194Y-85741600D01*
X118947194Y-85741600D02*
X122547194Y-85741600D01*
X122547194Y-82641600D02*
X118947194Y-82641600D01*
X122547194Y-85741600D02*
X122547194Y-82641600D01*
%TO.C,D49*%
X73454194Y-83892800D02*
X73454194Y-86992800D01*
X73454194Y-86992800D02*
X77054194Y-86992800D01*
X77054194Y-83892800D02*
X73454194Y-83892800D01*
X77054194Y-86992800D02*
X77054194Y-83892800D01*
%TO.C,D7*%
X140958995Y-94646400D02*
X140958995Y-97746400D01*
X140958995Y-97746400D02*
X144558995Y-97746400D01*
X144558995Y-94646400D02*
X140958995Y-94646400D01*
X144558995Y-97746400D02*
X144558995Y-94646400D01*
%TO.C,D37*%
X96976194Y-103342600D02*
X96976194Y-106442600D01*
X96976194Y-106442600D02*
X100576194Y-106442600D01*
X100576194Y-103342600D02*
X96976194Y-103342600D01*
X100576194Y-106442600D02*
X100576194Y-103342600D01*
%TO.C,D35*%
X140958995Y-48774000D02*
X140958995Y-51874000D01*
X140958995Y-51874000D02*
X144558995Y-51874000D01*
X144558995Y-48774000D02*
X140958995Y-48774000D01*
X144558995Y-51874000D02*
X144558995Y-48774000D01*
%TO.C,D41*%
X96976194Y-57470200D02*
X96976194Y-60570200D01*
X96976194Y-60570200D02*
X100576194Y-60570200D01*
X100576194Y-57470200D02*
X96976194Y-57470200D01*
X100576194Y-60570200D02*
X100576194Y-57470200D01*
%TO.C,D2*%
X162463394Y-48780601D02*
X162463394Y-51880601D01*
X162463394Y-51880601D02*
X166063394Y-51880601D01*
X166063394Y-48780601D02*
X162463394Y-48780601D01*
X166063394Y-51880601D02*
X166063394Y-48780601D01*
%TO.C,D4*%
X162463394Y-94678401D02*
X162463394Y-97778401D01*
X162463394Y-97778401D02*
X166063394Y-97778401D01*
X166063394Y-94678401D02*
X162463394Y-94678401D01*
X166063394Y-97778401D02*
X166063394Y-94678401D01*
%TO.C,D25*%
X118947194Y-105603200D02*
X118947194Y-108703200D01*
X118947194Y-108703200D02*
X122547194Y-108703200D01*
X122547194Y-105603200D02*
X118947194Y-105603200D01*
X122547194Y-108703200D02*
X122547194Y-105603200D01*
%TO.C,D59*%
X51965795Y-106854398D02*
X51965795Y-109954398D01*
X51965795Y-109954398D02*
X55565795Y-109954398D01*
X55565795Y-106854398D02*
X51965795Y-106854398D01*
X55565795Y-109954398D02*
X55565795Y-106854398D01*
%TO.C,D57*%
X51965795Y-83892798D02*
X51965795Y-86992798D01*
X51965795Y-86992798D02*
X55565795Y-86992798D01*
X55565795Y-83892798D02*
X51965795Y-83892798D01*
X55565795Y-86992798D02*
X55565795Y-83892798D01*
%TO.C,D39*%
X96976194Y-80431800D02*
X96976194Y-83531800D01*
X96976194Y-83531800D02*
X100576194Y-83531800D01*
X100576194Y-80431800D02*
X96976194Y-80431800D01*
X100576194Y-83531800D02*
X100576194Y-80431800D01*
%TO.C,D33*%
X140958995Y-71684800D02*
X140958995Y-74784800D01*
X140958995Y-74784800D02*
X144558995Y-74784800D01*
X144558995Y-71684800D02*
X140958995Y-71684800D01*
X144558995Y-74784800D02*
X144558995Y-71684800D01*
%TO.C,D45*%
X73479594Y-38020400D02*
X73479594Y-41120400D01*
X73479594Y-41120400D02*
X77079594Y-41120400D01*
X77079594Y-38020400D02*
X73479594Y-38020400D01*
X77079594Y-41120400D02*
X77079594Y-38020400D01*
%TO.C,D3*%
X162463394Y-71742201D02*
X162463394Y-74842201D01*
X162463394Y-74842201D02*
X166063394Y-74842201D01*
X166063394Y-71742201D02*
X162463394Y-71742201D01*
X166063394Y-74842201D02*
X166063394Y-71742201D01*
%TO.C,D51*%
X73475394Y-106884398D02*
X73475394Y-109984398D01*
X73475394Y-109984398D02*
X77075394Y-109984398D01*
X77075394Y-106884398D02*
X73475394Y-106884398D01*
X77075394Y-109984398D02*
X77075394Y-106884398D01*
%TO.C,D19*%
X118975394Y-36784399D02*
X118975394Y-39884399D01*
X118975394Y-39884399D02*
X122575394Y-39884399D01*
X122575394Y-36784399D02*
X118975394Y-36784399D01*
X122575394Y-39884399D02*
X122575394Y-36784399D01*
%TO.C,D5*%
X140958995Y-117582600D02*
X140958995Y-120682600D01*
X140958995Y-120682600D02*
X144558995Y-120682600D01*
X144558995Y-117582600D02*
X140958995Y-117582600D01*
X144558995Y-120682600D02*
X144558995Y-117582600D01*
%TO.C,D21*%
X118947194Y-59705400D02*
X118947194Y-62805400D01*
X118947194Y-62805400D02*
X122547194Y-62805400D01*
X122547194Y-59705400D02*
X118947194Y-59705400D01*
X122547194Y-62805400D02*
X122547194Y-59705400D01*
%TO.C,D47*%
X73479594Y-60956600D02*
X73479594Y-64056600D01*
X73479594Y-64056600D02*
X77079594Y-64056600D01*
X77079594Y-60956600D02*
X73479594Y-60956600D01*
X77079594Y-64056600D02*
X77079594Y-60956600D01*
%TO.C,D53*%
X51965795Y-37994998D02*
X51965795Y-41094998D01*
X51965795Y-41094998D02*
X55565795Y-41094998D01*
X55565795Y-37994998D02*
X51965795Y-37994998D01*
X55565795Y-41094998D02*
X55565795Y-37994998D01*
%TD*%
M02*
