%TF.GenerationSoftware,KiCad,Pcbnew,(6.99.0-4085-g6c752680d7)*%
%TF.CreationDate,2022-11-14T17:23:02+08:00*%
%TF.ProjectId,Left Flex PCB,4c656674-2046-46c6-9578-205043422e6b,rev?*%
%TF.SameCoordinates,Original*%
%TF.FileFunction,Soldermask,Bot*%
%TF.FilePolarity,Negative*%
%FSLAX46Y46*%
G04 Gerber Fmt 4.6, Leading zero omitted, Abs format (unit mm)*
G04 Created by KiCad (PCBNEW (6.99.0-4085-g6c752680d7)) date 2022-11-14 17:23:02*
%MOMM*%
%LPD*%
G01*
G04 APERTURE LIST*
%ADD10C,1.900000*%
%ADD11C,1.750000*%
%ADD12O,1.600000X1.000000*%
%ADD13C,1.550000*%
%ADD14C,5.050000*%
%ADD15C,1.250000*%
%ADD16R,1.700000X1.700000*%
%ADD17O,1.700000X1.700000*%
G04 APERTURE END LIST*
D10*
%TO.C,SW23*%
X48265795Y-44544998D03*
D11*
X48685795Y-44544998D03*
D12*
X48765794Y-39394997D03*
D13*
X49955795Y-47084998D03*
X51165795Y-50294998D03*
D14*
X53765795Y-44544998D03*
D15*
X53765795Y-50444998D03*
D13*
X56305795Y-49624998D03*
X58165795Y-49244998D03*
D15*
X58765795Y-48344998D03*
D11*
X58845795Y-44544998D03*
D10*
X59265795Y-44544998D03*
%TD*%
%TO.C,SW12*%
X115247194Y-112153200D03*
D11*
X115667194Y-112153200D03*
D12*
X115747193Y-107003199D03*
D13*
X116937194Y-114693200D03*
X118147194Y-117903200D03*
D14*
X120747194Y-112153200D03*
D15*
X120747194Y-118053200D03*
D13*
X123287194Y-117233200D03*
X125147194Y-116853200D03*
D15*
X125747194Y-115953200D03*
D11*
X125827194Y-112153200D03*
D10*
X126247194Y-112153200D03*
%TD*%
%TO.C,SW7*%
X137258995Y-101196400D03*
D11*
X137678995Y-101196400D03*
D12*
X137758994Y-96046399D03*
D13*
X138948995Y-103736400D03*
X140158995Y-106946400D03*
D14*
X142758995Y-101196400D03*
D15*
X142758995Y-107096400D03*
D13*
X145298995Y-106276400D03*
X147158995Y-105896400D03*
D15*
X147758995Y-104996400D03*
D11*
X147838995Y-101196400D03*
D10*
X148258995Y-101196400D03*
%TD*%
%TO.C,SW16*%
X93276194Y-86981800D03*
D11*
X93696194Y-86981800D03*
D12*
X93776193Y-81831799D03*
D13*
X94966194Y-89521800D03*
X96176194Y-92731800D03*
D14*
X98776194Y-86981800D03*
D15*
X98776194Y-92881800D03*
D13*
X101316194Y-92061800D03*
X103176194Y-91681800D03*
D15*
X103776194Y-90781800D03*
D11*
X103856194Y-86981800D03*
D10*
X104276194Y-86981800D03*
%TD*%
%TO.C,SW21*%
X69754194Y-90442800D03*
D11*
X70174194Y-90442800D03*
D12*
X70254193Y-85292799D03*
D13*
X71444194Y-92982800D03*
X72654194Y-96192800D03*
D14*
X75254194Y-90442800D03*
D15*
X75254194Y-96342800D03*
D13*
X77794194Y-95522800D03*
X79654194Y-95142800D03*
D15*
X80254194Y-94242800D03*
D11*
X80334194Y-90442800D03*
D10*
X80754194Y-90442800D03*
%TD*%
%TO.C,SW11*%
X115247194Y-89191600D03*
D11*
X115667194Y-89191600D03*
D12*
X115747193Y-84041599D03*
D13*
X116937194Y-91731600D03*
X118147194Y-94941600D03*
D14*
X120747194Y-89191600D03*
D15*
X120747194Y-95091600D03*
D13*
X123287194Y-94271600D03*
X125147194Y-93891600D03*
D15*
X125747194Y-92991600D03*
D11*
X125827194Y-89191600D03*
D10*
X126247194Y-89191600D03*
%TD*%
%TO.C,SW19*%
X69779594Y-44570400D03*
D11*
X70199594Y-44570400D03*
D12*
X70279593Y-39420399D03*
D13*
X71469594Y-47110400D03*
X72679594Y-50320400D03*
D14*
X75279594Y-44570400D03*
D15*
X75279594Y-50470400D03*
D13*
X77819594Y-49650400D03*
X79679594Y-49270400D03*
D15*
X80279594Y-48370400D03*
D11*
X80359594Y-44570400D03*
D10*
X80779594Y-44570400D03*
%TD*%
%TO.C,SW17*%
X93276194Y-109892600D03*
D11*
X93696194Y-109892600D03*
D12*
X93776193Y-104742599D03*
D13*
X94966194Y-112432600D03*
X96176194Y-115642600D03*
D14*
X98776194Y-109892600D03*
D15*
X98776194Y-115792600D03*
D13*
X101316194Y-114972600D03*
X103176194Y-114592600D03*
D15*
X103776194Y-113692600D03*
D11*
X103856194Y-109892600D03*
D10*
X104276194Y-109892600D03*
%TD*%
%TO.C,SW5*%
X137258995Y-55324000D03*
D11*
X137678995Y-55324000D03*
D12*
X137758994Y-50173999D03*
D13*
X138948995Y-57864000D03*
X140158995Y-61074000D03*
D14*
X142758995Y-55324000D03*
D15*
X142758995Y-61224000D03*
D13*
X145298995Y-60404000D03*
X147158995Y-60024000D03*
D15*
X147758995Y-59124000D03*
D11*
X147838995Y-55324000D03*
D10*
X148258995Y-55324000D03*
%TD*%
%TO.C,SW9*%
X115272594Y-43293800D03*
D11*
X115692594Y-43293800D03*
D12*
X115772593Y-38143799D03*
D13*
X116962594Y-45833800D03*
X118172594Y-49043800D03*
D14*
X120772594Y-43293800D03*
D15*
X120772594Y-49193800D03*
D13*
X123312594Y-48373800D03*
X125172594Y-47993800D03*
D15*
X125772594Y-47093800D03*
D11*
X125852594Y-43293800D03*
D10*
X126272594Y-43293800D03*
%TD*%
%TO.C,SW14*%
X104276194Y-41058600D03*
D11*
X103856194Y-41058600D03*
D15*
X103776194Y-44858600D03*
D13*
X103176194Y-45758600D03*
X101316194Y-46138600D03*
D15*
X98776194Y-46958600D03*
D14*
X98776194Y-41058600D03*
D13*
X96176194Y-46808600D03*
X94966194Y-43598600D03*
D12*
X93776193Y-35908599D03*
D11*
X93696194Y-41058600D03*
D10*
X93276194Y-41058600D03*
%TD*%
%TO.C,SW15*%
X93276194Y-64020200D03*
D11*
X93696194Y-64020200D03*
D12*
X93776193Y-58870199D03*
D13*
X94966194Y-66560200D03*
X96176194Y-69770200D03*
D14*
X98776194Y-64020200D03*
D15*
X98776194Y-69920200D03*
D13*
X101316194Y-69100200D03*
X103176194Y-68720200D03*
D15*
X103776194Y-67820200D03*
D11*
X103856194Y-64020200D03*
D10*
X104276194Y-64020200D03*
%TD*%
%TO.C,SW1*%
X158763394Y-55330601D03*
D11*
X159183394Y-55330601D03*
D12*
X159263393Y-50180600D03*
D13*
X160453394Y-57870601D03*
X161663394Y-61080601D03*
D14*
X164263394Y-55330601D03*
D15*
X164263394Y-61230601D03*
D13*
X166803394Y-60410601D03*
X168663394Y-60030601D03*
D15*
X169263394Y-59130601D03*
D11*
X169343394Y-55330601D03*
D10*
X169763394Y-55330601D03*
%TD*%
%TO.C,SW24*%
X48291195Y-67506598D03*
D11*
X48711195Y-67506598D03*
D12*
X48791194Y-62356597D03*
D13*
X49981195Y-70046598D03*
X51191195Y-73256598D03*
D14*
X53791195Y-67506598D03*
D15*
X53791195Y-73406598D03*
D13*
X56331195Y-72586598D03*
X58191195Y-72206598D03*
D15*
X58791195Y-71306598D03*
D11*
X58871195Y-67506598D03*
D10*
X59291195Y-67506598D03*
%TD*%
%TO.C,SW8*%
X137258995Y-124132600D03*
D11*
X137678995Y-124132600D03*
D12*
X137758994Y-118982599D03*
D13*
X138948995Y-126672600D03*
X140158995Y-129882600D03*
D14*
X142758995Y-124132600D03*
D15*
X142758995Y-130032600D03*
D13*
X145298995Y-129212600D03*
X147158995Y-128832600D03*
D15*
X147758995Y-127932600D03*
D11*
X147838995Y-124132600D03*
D10*
X148258995Y-124132600D03*
%TD*%
%TO.C,SW10*%
X115247194Y-66255400D03*
D11*
X115667194Y-66255400D03*
D12*
X115747193Y-61105399D03*
D13*
X116937194Y-68795400D03*
X118147194Y-72005400D03*
D14*
X120747194Y-66255400D03*
D15*
X120747194Y-72155400D03*
D13*
X123287194Y-71335400D03*
X125147194Y-70955400D03*
D15*
X125747194Y-70055400D03*
D11*
X125827194Y-66255400D03*
D10*
X126247194Y-66255400D03*
%TD*%
%TO.C,SW25*%
X48265795Y-90442798D03*
D11*
X48685795Y-90442798D03*
D12*
X48765794Y-85292797D03*
D13*
X49955795Y-92982798D03*
X51165795Y-96192798D03*
D14*
X53765795Y-90442798D03*
D15*
X53765795Y-96342798D03*
D13*
X56305795Y-95522798D03*
X58165795Y-95142798D03*
D15*
X58765795Y-94242798D03*
D11*
X58845795Y-90442798D03*
D10*
X59265795Y-90442798D03*
%TD*%
%TO.C,SW26*%
X48265795Y-113404398D03*
D11*
X48685795Y-113404398D03*
D12*
X48765794Y-108254397D03*
D13*
X49955795Y-115944398D03*
X51165795Y-119154398D03*
D14*
X53765795Y-113404398D03*
D15*
X53765795Y-119304398D03*
D13*
X56305795Y-118484398D03*
X58165795Y-118104398D03*
D15*
X58765795Y-117204398D03*
D11*
X58845795Y-113404398D03*
D10*
X59265795Y-113404398D03*
%TD*%
%TO.C,SW20*%
X69779594Y-67506600D03*
D11*
X70199594Y-67506600D03*
D12*
X70279593Y-62356599D03*
D13*
X71469594Y-70046600D03*
X72679594Y-73256600D03*
D14*
X75279594Y-67506600D03*
D15*
X75279594Y-73406600D03*
D13*
X77819594Y-72586600D03*
X79679594Y-72206600D03*
D15*
X80279594Y-71306600D03*
D11*
X80359594Y-67506600D03*
D10*
X80779594Y-67506600D03*
%TD*%
%TO.C,SW2*%
X158763394Y-78292201D03*
D11*
X159183394Y-78292201D03*
D12*
X159263393Y-73142200D03*
D13*
X160453394Y-80832201D03*
X161663394Y-84042201D03*
D14*
X164263394Y-78292201D03*
D15*
X164263394Y-84192201D03*
D13*
X166803394Y-83372201D03*
X168663394Y-82992201D03*
D15*
X169263394Y-82092201D03*
D11*
X169343394Y-78292201D03*
D10*
X169763394Y-78292201D03*
%TD*%
%TO.C,SW22*%
X69754194Y-113404400D03*
D11*
X70174194Y-113404400D03*
D12*
X70254193Y-108254399D03*
D13*
X71444194Y-115944400D03*
X72654194Y-119154400D03*
D14*
X75254194Y-113404400D03*
D15*
X75254194Y-119304400D03*
D13*
X77794194Y-118484400D03*
X79654194Y-118104400D03*
D15*
X80254194Y-117204400D03*
D11*
X80334194Y-113404400D03*
D10*
X80754194Y-113404400D03*
%TD*%
%TO.C,SW6*%
X137258995Y-78234800D03*
D11*
X137678995Y-78234800D03*
D12*
X137758994Y-73084799D03*
D13*
X138948995Y-80774800D03*
X140158995Y-83984800D03*
D14*
X142758995Y-78234800D03*
D15*
X142758995Y-84134800D03*
D13*
X145298995Y-83314800D03*
X147158995Y-82934800D03*
D15*
X147758995Y-82034800D03*
D11*
X147838995Y-78234800D03*
D10*
X148258995Y-78234800D03*
%TD*%
%TO.C,SW3*%
X158763394Y-101228401D03*
D11*
X159183394Y-101228401D03*
D12*
X159263393Y-96078400D03*
D13*
X160453394Y-103768401D03*
X161663394Y-106978401D03*
D14*
X164263394Y-101228401D03*
D15*
X164263394Y-107128401D03*
D13*
X166803394Y-106308401D03*
X168663394Y-105928401D03*
D15*
X169263394Y-105028401D03*
D11*
X169343394Y-101228401D03*
D10*
X169763394Y-101228401D03*
%TD*%
%TO.C,SW4*%
X158763394Y-124190001D03*
D11*
X159183394Y-124190001D03*
D12*
X159263393Y-119040000D03*
D13*
X160453394Y-126730001D03*
X161663394Y-129940001D03*
D14*
X164263394Y-124190001D03*
D15*
X164263394Y-130090001D03*
D13*
X166803394Y-129270001D03*
X168663394Y-128890001D03*
D15*
X169263394Y-127990001D03*
D11*
X169343394Y-124190001D03*
D10*
X169763394Y-124190001D03*
%TD*%
D16*
%TO.C,J3*%
X154305393Y-55364399D03*
D17*
X154305393Y-57904399D03*
X154305393Y-60444399D03*
%TD*%
D16*
%TO.C,J2*%
X87039793Y-66719198D03*
D17*
X87039793Y-69259198D03*
X87039793Y-71799198D03*
X87039793Y-74339198D03*
X87039793Y-76879198D03*
%TD*%
D16*
%TO.C,J4*%
X87039793Y-80536798D03*
D17*
X87039793Y-83076798D03*
X87039793Y-85616798D03*
X87039793Y-88156798D03*
X87039793Y-90696798D03*
X87039793Y-93236798D03*
%TD*%
D16*
%TO.C,J5*%
X64045393Y-112534399D03*
D17*
X64045393Y-115074399D03*
X64045393Y-117614399D03*
%TD*%
D16*
%TO.C,J1*%
X87115393Y-106904399D03*
D17*
X87115393Y-109444399D03*
X87115393Y-111984399D03*
X87115393Y-114524399D03*
X87115393Y-117064399D03*
X87115393Y-119604399D03*
%TD*%
M02*
