M48
; DRILL file {KiCad (6.99.0-4085-g6c752680d7)} date Mon Nov 14 17:23:02 2022
; FORMAT={-:-/ absolute / inch / decimal}
; #@! TF.CreationDate,2022-11-14T17:23:02+08:00
; #@! TF.GenerationSoftware,Kicad,Pcbnew,(6.99.0-4085-g6c752680d7)
; #@! TF.FileFunction,Plated,1,4,PTH
FMAT,2
INCH
; #@! TA.AperFunction,Plated,PTH,ViaDrill
T1C0.0118
; #@! TA.AperFunction,Plated,PTH,ComponentDrill
T2C0.0394
; #@! TA.AperFunction,Plated,PTH,ComponentDrill
T3C0.0472
; #@! TA.AperFunction,Plated,PTH,ComponentDrill
T4C0.0591
%
G90
G05
T1
X1.8583Y-2.8386
X1.8858Y-2.189
X1.9606Y-2.189
X1.9606Y-2.4921
X2.0Y-3.2835
X2.0079Y-1.622
X2.0079Y-3.4252
X2.0079Y-4.3307
X2.0787Y-3.2126
X2.2244Y-2.3937
X2.2244Y-3.3031
X2.2244Y-4.2047
X2.2835Y-1.5276
X2.2835Y-4.2953
X2.3937Y-2.9114
X2.7067Y-3.8524
X2.7402Y-1.5079
X2.7756Y-2.1969
X2.8325Y-4.0159
X2.8504Y-2.1929
X2.8504Y-3.4134
X2.8543Y-3.2992
X2.8543Y-4.3346
X2.8555Y-1.6232
X2.8583Y-2.5236
X2.8878Y-4.0315
X2.8917Y-3.9921
X2.8937Y-3.9567
X2.9235Y-3.894
X2.9252Y-4.0571
X3.0118Y-3.0
X3.0394Y-3.1654
X3.0709Y-3.3031
X3.0748Y-2.3898
X3.0748Y-3.1142
X3.1102Y-3.0315
X3.122Y-4.2402
X3.126Y-1.5276
X3.1732Y-3.8346
X3.1919Y-3.0951
X3.2254Y-3.3307
X3.252Y-2.815
X3.252Y-2.9134
X3.5827Y-3.3563
X3.5984Y-3.2677
X3.622Y-2.9035
X3.6457Y-2.9862
X3.6614Y-2.2677
X3.6732Y-2.0118
X3.6742Y-3.062
X3.6801Y-2.8927
X3.6809Y-4.0598
X3.7136Y-2.8593
X3.7402Y-2.0197
X3.7795Y-2.3898
X3.7795Y-3.2835
X3.7795Y-4.1929
X3.7835Y-1.4882
X3.7874Y-4.0709
X3.8012Y-3.0236
X3.8445Y-3.0177
X3.9606Y-3.7835
X3.9685Y-3.0088
X3.9862Y-3.8366
X3.9902Y-3.7362
X3.9961Y-1.3622
X3.9961Y-2.2638
X3.9961Y-3.1693
X3.9961Y-3.9817
X4.0177Y-3.9154
X4.0236Y-3.7126
X4.0394Y-3.7677
X4.0433Y-3.4882
X4.0433Y-4.1024
X4.0512Y-4.1575
X4.063Y-3.2559
X4.1181Y-3.7146
X4.1299Y-3.6654
X4.1339Y-2.7953
X4.1339Y-3.4783
X4.1378Y-3.187
X4.1476Y-3.9803
X4.1575Y-4.0453
X4.1575Y-3.1651
X4.1959Y-3.9941
X4.315Y-3.0591
X4.3858Y-2.9409
X4.5157Y-1.4567
X4.5492Y-3.0591
X4.563Y-3.0906
X4.5673Y-3.9925
X4.6024Y-3.2756
X4.6404Y-3.8609
X4.6457Y-1.5787
X4.6457Y-2.4803
X4.6457Y-3.378
X4.6457Y-4.2835
X4.6496Y-2.3307
X4.6614Y-3.9764
X4.6654Y-3.9016
X4.7126Y-3.2221
X4.7244Y-3.0591
X4.7677Y-2.1299
X4.7689Y-3.0984
X4.8355Y-3.2253
X4.8425Y-2.126
X4.8583Y-3.4252
X4.8583Y-4.1535
X4.862Y-1.4465
X4.8622Y-2.3465
X4.8622Y-3.0669
X4.8622Y-3.2559
X4.8746Y-3.0401
X4.8858Y-3.1191
X4.9291Y-2.4409
X4.9321Y-3.1758
X4.9764Y-2.2244
X5.0069Y-3.1758
X5.033Y-3.2662
X5.0472Y-3.0748
X5.0512Y-3.0276
X5.3558Y-3.3912
X5.3666Y-3.53
X5.3858Y-2.9173
X5.3898Y-2.8307
X5.3945Y-3.426
X5.4016Y-3.6575
X5.4055Y-3.7323
X5.4173Y-3.5709
X5.5098Y-2.6043
X5.5118Y-2.0472
X5.5118Y-2.9449
X5.5118Y-3.8455
X5.5118Y-4.7598
X5.5354Y-4.4724
X5.5846Y-2.6004
X5.5866Y-3.5787
X5.5945Y-4.5945
X5.6496Y-4.4055
X5.6545Y-4.3346
X5.6811Y-4.4291
X5.7224Y-4.5118
X5.7283Y-1.9213
X5.7283Y-2.8189
X5.7283Y-3.7283
X5.7283Y-4.6299
X5.7756Y-4.3031
X5.7795Y-3.3858
X5.7907Y-4.4911
X5.873Y-4.4986
X5.8819Y-4.6457
X5.8898Y-4.7047
X5.8937Y-4.0157
X6.2087Y-4.7323
X6.248Y-2.0492
X6.25Y-1.9193
X6.2677Y-4.4449
X6.3287Y-2.0984
X6.3543Y-4.6024
X6.3583Y-2.0512
X6.3583Y-2.9528
X6.3583Y-3.8583
X6.3583Y-4.7677
X6.4094Y-3.6969
X6.4685Y-3.5866
X6.5118Y-3.4134
X6.5748Y-2.8189
X6.5748Y-3.7165
X6.5748Y-4.626
X6.6063Y-3.5384
X6.624Y-1.9528
X6.6654Y-3.5945
X6.7275Y-3.4378
X6.7275Y-3.5354
X6.7638Y-3.4016
X6.7717Y-3.5354
T2
X2.5215Y-4.4305
X2.5215Y-4.5305
X2.5215Y-4.6305
X3.4268Y-2.6267
X3.4268Y-2.7267
X3.4268Y-2.8267
X3.4268Y-2.9267
X3.4268Y-3.0267
X3.4268Y-3.1707
X3.4268Y-3.2707
X3.4268Y-3.3707
X3.4268Y-3.4707
X3.4268Y-3.5707
X3.4268Y-3.6707
X3.4297Y-4.2088
X3.4297Y-4.3088
X3.4297Y-4.4088
X3.4297Y-4.5088
X3.4297Y-4.6088
X3.4297Y-4.7088
X6.075Y-2.1797
X6.075Y-2.2797
X6.075Y-2.3797
T3
X2.0144Y-1.9801
X2.0144Y-3.7871
X2.0144Y-4.6911
X2.0154Y-2.8841
X2.1168Y-1.986
X2.1168Y-3.793
X2.1168Y-4.697
X2.1178Y-2.89
X2.29Y-1.9388
X2.29Y-3.7458
X2.29Y-4.6498
X2.291Y-2.8428
X2.3136Y-1.9033
X2.3136Y-3.7103
X2.3136Y-4.6143
X2.3146Y-2.8073
X2.8604Y-3.7871
X2.8604Y-4.6911
X2.8614Y-1.9811
X2.8614Y-2.8841
X2.9628Y-3.793
X2.9628Y-4.697
X2.9638Y-1.987
X2.9638Y-2.89
X3.136Y-3.7458
X3.136Y-4.6498
X3.137Y-1.9398
X3.137Y-2.8428
X3.1596Y-3.7103
X3.1596Y-4.6143
X3.1606Y-1.9043
X3.1606Y-2.8073
X3.7865Y-1.8429
X3.7865Y-2.7469
X3.7865Y-3.6509
X3.7865Y-4.5529
X3.8888Y-1.8488
X3.8888Y-2.7528
X3.8888Y-3.6568
X3.8888Y-4.5588
X4.0621Y-1.8015
X4.0621Y-2.7055
X4.0621Y-3.6095
X4.0621Y-4.5115
X4.0857Y-1.7661
X4.0857Y-2.6701
X4.0857Y-3.5741
X4.0857Y-4.4761
X4.6515Y-2.8349
X4.6515Y-3.7379
X4.6515Y-4.6419
X4.6525Y-1.9309
X4.7538Y-2.8408
X4.7538Y-3.7438
X4.7538Y-4.6478
X4.7548Y-1.9368
X4.9271Y-2.7935
X4.9271Y-3.6965
X4.9271Y-4.6005
X4.9281Y-1.8895
X4.9507Y-2.7581
X4.9507Y-3.6611
X4.9507Y-4.5651
X4.9517Y-1.8541
X5.5181Y-2.4045
X5.5181Y-3.3065
X5.5181Y-4.2105
X5.5181Y-5.1135
X5.6204Y-2.4104
X5.6204Y-3.3124
X5.6204Y-4.2164
X5.6204Y-5.1194
X5.7937Y-2.3631
X5.7937Y-3.2651
X5.7937Y-4.1691
X5.7937Y-5.0721
X5.8173Y-2.3277
X5.8173Y-3.2297
X5.8173Y-4.1337
X5.8173Y-5.0367
X6.3647Y-2.4047
X6.3647Y-3.3087
X6.3647Y-4.2117
X6.3647Y-5.1157
X6.4671Y-2.4107
X6.4671Y-3.3147
X6.4671Y-4.2177
X6.4671Y-5.1217
X6.6403Y-2.3634
X6.6403Y-3.2674
X6.6403Y-4.1704
X6.6403Y-5.0744
X6.6639Y-2.328
X6.6639Y-3.232
X6.6639Y-4.135
X6.6639Y-5.039
T4
X1.9668Y-1.8537
X1.9668Y-3.6607
X1.9668Y-4.5647
X1.9678Y-2.7577
X2.2168Y-1.9537
X2.2168Y-3.7607
X2.2168Y-4.6647
X2.2178Y-2.8577
X2.8128Y-3.6607
X2.8128Y-4.5647
X2.8138Y-1.8547
X2.8138Y-2.7577
X3.0628Y-3.7607
X3.0628Y-4.6647
X3.0638Y-1.9547
X3.0638Y-2.8577
X3.7388Y-1.7165
X3.7388Y-2.6205
X3.7388Y-3.5245
X3.7388Y-4.4265
X3.9888Y-1.8165
X3.9888Y-2.7205
X3.9888Y-3.6245
X3.9888Y-4.5265
X4.6038Y-2.7085
X4.6038Y-3.6115
X4.6038Y-4.5155
X4.6048Y-1.8045
X4.8538Y-2.8085
X4.8538Y-3.7115
X4.8538Y-4.6155
X4.8548Y-1.9045
X5.4704Y-2.2781
X5.4704Y-3.1801
X5.4704Y-4.0841
X5.4704Y-4.9871
X5.7204Y-2.3781
X5.7204Y-3.2801
X5.7204Y-4.1841
X5.7204Y-5.0871
X6.3171Y-2.2784
X6.3171Y-3.1824
X6.3171Y-4.0854
X6.3171Y-4.9894
X6.5671Y-2.3784
X6.5671Y-3.2824
X6.5671Y-4.1854
X6.5671Y-5.0894
T0
M30
