M48
; DRILL file {KiCad (6.99.0-4085-g6c752680d7)} date Mon Nov 14 17:23:02 2022
; FORMAT={-:-/ absolute / inch / decimal}
; #@! TF.CreationDate,2022-11-14T17:23:02+08:00
; #@! TF.GenerationSoftware,Kicad,Pcbnew,(6.99.0-4085-g6c752680d7)
; #@! TF.FileFunction,NonPlated,1,4,NPTH
FMAT,2
INCH
; #@! TA.AperFunction,NonPlated,NPTH,ComponentDrill
T1C0.0394
; #@! TA.AperFunction,NonPlated,NPTH,ComponentDrill
T2C0.0689
; #@! TA.AperFunction,NonPlated,NPTH,ComponentDrill
T3C0.0748
; #@! TA.AperFunction,NonPlated,NPTH,ComponentDrill
T4C0.1988
%
G90
G05
T2
X1.9168Y-1.7537
X1.9168Y-3.5607
X1.9168Y-4.4647
X1.9178Y-2.6577
X2.3168Y-1.7537
X2.3168Y-3.5607
X2.3168Y-4.4647
X2.3178Y-2.6577
X2.7628Y-3.5607
X2.7628Y-4.4647
X2.7638Y-1.7547
X2.7638Y-2.6577
X3.1628Y-3.5607
X3.1628Y-4.4647
X3.1638Y-1.7547
X3.1638Y-2.6577
X3.6888Y-1.6165
X3.6888Y-2.5205
X3.6888Y-3.4245
X3.6888Y-4.3265
X4.0888Y-1.6165
X4.0888Y-2.5205
X4.0888Y-3.4245
X4.0888Y-4.3265
X4.5538Y-2.6085
X4.5538Y-3.5115
X4.5538Y-4.4155
X4.5548Y-1.7045
X4.9538Y-2.6085
X4.9538Y-3.5115
X4.9538Y-4.4155
X4.9548Y-1.7045
X5.4204Y-2.1781
X5.4204Y-3.0801
X5.4204Y-3.9841
X5.4204Y-4.8871
X5.8204Y-2.1781
X5.8204Y-3.0801
X5.8204Y-3.9841
X5.8204Y-4.8871
X6.2671Y-2.1784
X6.2671Y-3.0824
X6.2671Y-3.9854
X6.2671Y-4.8894
X6.6671Y-2.1784
X6.6671Y-3.0824
X6.6671Y-3.9854
X6.6671Y-4.8894
T3
X1.9002Y-1.7537
X1.9002Y-3.5607
X1.9002Y-4.4647
X1.9012Y-2.6577
X2.3333Y-1.7537
X2.3333Y-3.5607
X2.3333Y-4.4647
X2.3343Y-2.6577
X2.7462Y-3.5607
X2.7462Y-4.4647
X2.7472Y-1.7547
X2.7472Y-2.6577
X3.1793Y-3.5607
X3.1793Y-4.4647
X3.1803Y-1.7547
X3.1803Y-2.6577
X3.6723Y-1.6165
X3.6723Y-2.5205
X3.6723Y-3.4245
X3.6723Y-4.3265
X4.1054Y-1.6165
X4.1054Y-2.5205
X4.1054Y-3.4245
X4.1054Y-4.3265
X4.5373Y-2.6085
X4.5373Y-3.5115
X4.5373Y-4.4155
X4.5383Y-1.7045
X4.9704Y-2.6085
X4.9704Y-3.5115
X4.9704Y-4.4155
X4.9714Y-1.7045
X5.4039Y-2.1781
X5.4039Y-3.0801
X5.4039Y-3.9841
X5.4039Y-4.8871
X5.837Y-2.1781
X5.837Y-3.0801
X5.837Y-3.9841
X5.837Y-4.8871
X6.2505Y-2.1784
X6.2505Y-3.0824
X6.2505Y-3.9854
X6.2505Y-4.8894
X6.6836Y-2.1784
X6.6836Y-3.0824
X6.6836Y-3.9854
X6.6836Y-4.8894
T4
X2.1168Y-1.7537
X2.1168Y-3.5607
X2.1168Y-4.4647
X2.1178Y-2.6577
X2.9628Y-3.5607
X2.9628Y-4.4647
X2.9638Y-1.7547
X2.9638Y-2.6577
X3.8888Y-1.6165
X3.8888Y-2.5205
X3.8888Y-3.4245
X3.8888Y-4.3265
X4.7538Y-2.6085
X4.7538Y-3.5115
X4.7538Y-4.4155
X4.7548Y-1.7045
X5.6204Y-2.1781
X5.6204Y-3.0801
X5.6204Y-3.9841
X5.6204Y-4.8871
X6.4671Y-2.1784
X6.4671Y-3.0824
X6.4671Y-3.9854
X6.4671Y-4.8894
T1
G00X1.9081Y-1.551
M15
G01X1.9317Y-1.551
M16
G05
G00X1.9081Y-3.358
M15
G01X1.9317Y-3.358
M16
G05
G00X1.9081Y-4.262
M15
G01X1.9317Y-4.262
M16
G05
G00X1.9091Y-2.455
M15
G01X1.9327Y-2.455
M16
G05
G00X2.7541Y-3.358
M15
G01X2.7777Y-3.358
M16
G05
G00X2.7541Y-4.262
M15
G01X2.7777Y-4.262
M16
G05
G00X2.7551Y-1.552
M15
G01X2.7787Y-1.552
M16
G05
G00X2.7551Y-2.455
M15
G01X2.7787Y-2.455
M16
G05
G00X3.6802Y-1.4137
M15
G01X3.7038Y-1.4137
M16
G05
G00X3.6802Y-2.3177
M15
G01X3.7038Y-2.3177
M16
G05
G00X3.6802Y-3.2217
M15
G01X3.7038Y-3.2217
M16
G05
G00X3.6802Y-4.1237
M15
G01X3.7038Y-4.1237
M16
G05
G00X4.5452Y-2.4057
M15
G01X4.5688Y-2.4057
M16
G05
G00X4.5452Y-3.3087
M15
G01X4.5688Y-3.3087
M16
G05
G00X4.5452Y-4.2127
M15
G01X4.5688Y-4.2127
M16
G05
G00X4.5462Y-1.5017
M15
G01X4.5698Y-1.5017
M16
G05
G00X5.4118Y-1.9754
M15
G01X5.4354Y-1.9754
M16
G05
G00X5.4118Y-2.8774
M15
G01X5.4354Y-2.8774
M16
G05
G00X5.4118Y-3.7814
M15
G01X5.4354Y-3.7814
M16
G05
G00X5.4118Y-4.6844
M15
G01X5.4354Y-4.6844
M16
G05
G00X6.2584Y-1.9756
M15
G01X6.282Y-1.9756
M16
G05
G00X6.2584Y-2.8796
M15
G01X6.282Y-2.8796
M16
G05
G00X6.2584Y-3.7826
M15
G01X6.282Y-3.7826
M16
G05
G00X6.2584Y-4.6866
M15
G01X6.282Y-4.6866
M16
G05
T0
M30
