0
SECTION
2
HEADER
9
$INSUNITS
70
4
9
$ACADVER
1
AC1014
9
$HANDSEED
5
FFFF
0
ENDSEC
0
SECTION
2
TABLES
0
TABLE
2
VPORT
5
8
100
AcDbSymbolTable
0
ENDTAB
0
TABLE
2
LTYPE
5
5
100
AcDbSymbolTable
0
LTYPE
5
14
100
AcDbSymbolTableRecord
100
AcDbLinetypeTableRecord
2
BYBLOCK
70
0
0
LTYPE
5
15
100
AcDbSymbolTableRecord
100
AcDbLinetypeTableRecord
2
BYLAYER
70
0
0
ENDTAB
0
TABLE
2
LAYER
5
2
100
AcDbSymbolTable
70
2
0
LAYER
5
50
100
AcDbSymbolTableRecord
100
AcDbLayerTableRecord
2
0
70
0
6
CONTINUOUS
0
ENDTAB
0
TABLE
2
STYLE
5
3
100
AcDbSymbolTable
70
1
0
STYLE
5
11
100
AcDbSymbolTableRecord
100
AcDbTextStyleTableRecord
2
STANDARD
70
0
0
ENDTAB
0
TABLE
2
VIEW
5
6
100
AcDbSymbolTable
70
0
0
ENDTAB
0
TABLE
2
UCS
5
7
100
AcDbSymbolTable
70
0
0
ENDTAB
0
TABLE
2
APPID
5
9
100
AcDbSymbolTable
70
2
0
APPID
5
12
100
AcDbSymbolTableRecord
100
AcDbRegAppTableRecord
2
ACAD
70
0
0
ENDTAB
0
TABLE
2
DIMSTYLE
5
A
100
AcDbSymbolTable
70
1
0
ENDTAB
0
TABLE
2
BLOCK_RECORD
5
1
100
AcDbSymbolTable
70
1
0
BLOCK_RECORD
5
1F
100
AcDbSymbolTableRecord
100
AcDbBlockTableRecord
2
*MODEL_SPACE
0
BLOCK_RECORD
5
1B
100
AcDbSymbolTableRecord
100
AcDbBlockTableRecord
2
*PAPER_SPACE
0
ENDTAB
0
ENDSEC
0
SECTION
2
BLOCKS
0
BLOCK
5
20
100
AcDbEntity
100
AcDbBlockBegin
2
*MODEL_SPACE
0
ENDBLK
5
21
100
AcDbEntity
100
AcDbBlockEnd
0
BLOCK
5
1C
100
AcDbEntity
100
AcDbBlockBegin
2
*PAPER_SPACE
0
ENDBLK
5
1D
100
AcDbEntity
100
AcDbBlockEnd
0
ENDSEC
0
SECTION
2
ENTITIES
0
LWPOLYLINE
5
100
100
AcDbEntity
8
0
100
AcDbPolyline
90
6
70
1
43
0.0
10
20.827783256151015
20
-19.150798227955001
10
21.171814615179368
20
-19.045617286116116
10
34.463418613570134
20
-14.978276244358819
10
41.778383676117194
20
-15.850748453917598
10
46.301547888757582
20
-30.645351962666215
10
26.21914801353384
20
-36.785157761843692
0
LINE
5
101
100
AcDbEntity
8
0
100
AcDbLine
10
20.905726112633364
20
-17.506094492980495
30
-8.8817841970012523e-15
11
18.940287999089559
21
-18.107534853769057
31
-8.9511731360403246e-15
0
LINE
5
102
100
AcDbEntity
8
0
100
AcDbLine
10
18.940287999089559
20
-18.107534853769057
30
-8.9511731360403246e-15
11
25.223248436673376
21
-38.658172452872357
31
-8.3266726846886741e-15
0
LINE
5
103
100
AcDbEntity
8
0
100
AcDbLine
10
25.223248436673376
20
-38.658172452872357
30
-8.3266726846886741e-15
11
48.174562579786226
21
-31.64125153952666
31
-1.8873791418627661e-14
0
LINE
5
104
100
AcDbEntity
8
0
100
AcDbLine
10
48.174562579786226
20
-31.64125153952666
30
-1.8873791418627661e-14
11
42.76882948855966
21
-13.959895303261751
31
-1.8318679906315083e-14
0
LINE
5
105
100
AcDbEntity
8
0
100
AcDbLine
10
42.76882948855966
20
-13.959895303261751
30
-1.8318679906315083e-14
11
39.309339403409432
21
-12.83184865223423
31
-1.762479051592436e-14
0
LINE
5
106
100
AcDbEntity
8
0
100
AcDbLine
10
39.309339403409432
20
-12.83184865223423
30
-1.762479051592436e-14
11
27.75091839194635
21
-14.441332421619666
31
-9.4368957093138306e-15
0
LINE
5
107
100
AcDbEntity
8
0
100
AcDbLine
10
27.75091839194635
20
-14.441332421619666
30
-9.4368957093138306e-15
11
20.95776631962562
21
-17.600355847411905
31
-1.7763568394002505e-14
0
SPLINE
5
108
100
AcDbEntity
8
0
100
AcDbSpline
70
0
71
3
72
8
73
4
74
0
42
0.000000001
43
0.0000000001
44
0.0000000001
40
-0.48700003496922867
40
-0.48700003496922867
40
-0.48700003496922867
40
-0.48700003496922867
40
-0.48235599694018144
40
-0.48235599694018144
40
-0.48235599694018144
40
-0.48235599694018144
10
20.957766319625616
20
-17.600355847411894
30
-8.8817841970012523e-15
10
20.94048151689908
20
-17.568890205042187
30
-8.8817841970012523e-15
10
20.92313225830214
20
-17.537465669632653
30
-1.7763568394002505e-14
10
20.905726112633364
20
-17.506094492980495
30
-8.8817841970012523e-15
0
LWPOLYLINE
5
109
100
AcDbEntity
8
0
100
AcDbPolyline
90
8
70
1
43
0.0
10
41.778383676117166
20
-15.850748453917589
10
34.463418613570113
20
-14.978276244358815
10
39.11598858219957
20
-30.182341249711165
10
25.8243845838089
20
-34.249682291468609
10
21.171814615179343
20
-19.045617286116091
10
20.82778325615099
20
-19.150798227954983
10
26.219148013533804
20
-36.785157761843649
10
46.301547888757554
20
-30.645351962666201
0
CIRCLE
5
110
100
AcDbEntity
8
0
100
AcDbCircle
10
43.000000640749931
20
-28.000000417232513
30
0
40
1.5000000000000009
210
0
220
0
230
1
0
CIRCLE
5
111
100
AcDbEntity
8
0
100
AcDbCircle
10
43.000000640749931
20
-28.000000417232513
30
0
40
2.25
210
0
220
0
230
1
0
CIRCLE
5
112
100
AcDbEntity
8
0
100
AcDbCircle
10
40.07628359352254
20
-18.436952857602165
30
-1.7763568394002505e-14
40
1.5000000000000004
210
1.251085313992396e-17
220
1.4894383474519237e-16
230
1
0
LWPOLYLINE
5
113
100
AcDbEntity
8
0
100
AcDbPolyline
90
6
70
1
43
0.0
10
20.827783256151015
20
-19.150798227954994
10
21.171814615179368
20
-19.045617286116109
10
34.46341861357012
20
-14.978276244358813
10
41.778383676117187
20
-15.850748453917593
10
46.301547888757568
20
-30.645351962666211
10
26.219148013533825
20
-36.785157761843664
0
LINE
5
114
100
AcDbEntity
8
0
100
AcDbLine
10
20.905726112633364
20
-17.506094492980488
30
1.7763568394002505e-14
11
18.940287999089559
21
-18.107534853769053
31
1.7694179454963432e-14
0
LINE
5
115
100
AcDbEntity
8
0
100
AcDbLine
10
18.940287999089559
20
-18.107534853769053
30
1.7694179454963432e-14
11
25.223248436673366
21
-38.658172452872336
31
9.4368957093138306e-15
0
LINE
5
116
100
AcDbEntity
8
0
100
AcDbLine
10
25.223248436673366
20
-38.658172452872336
30
9.4368957093138306e-15
11
48.174562579786226
21
-31.641251539526646
31
7.7715611723760958e-15
0
LINE
5
117
100
AcDbEntity
8
0
100
AcDbLine
10
48.174562579786226
20
-31.641251539526646
30
7.7715611723760958e-15
11
42.768829488559639
21
-13.959895303261742
31
-2.7755575615628914e-16
0
LINE
5
118
100
AcDbEntity
8
0
100
AcDbLine
10
42.768829488559639
20
-13.959895303261742
30
-2.7755575615628914e-16
11
39.309339403409425
21
-12.831848652234221
31
8.8817841970012523e-15
0
LINE
5
119
100
AcDbEntity
8
0
100
AcDbLine
10
39.309339403409425
20
-12.831848652234221
30
8.8817841970012523e-15
11
27.750918391946342
21
-14.441332421619656
31
1.7208456881689926e-14
0
LINE
5
120
100
AcDbEntity
8
0
100
AcDbLine
10
27.750918391946342
20
-14.441332421619656
30
1.7208456881689926e-14
11
20.957766319625613
21
-17.60035584741189
31
9.4368957093138306e-15
0
SPLINE
5
121
100
AcDbEntity
8
0
100
AcDbSpline
70
0
71
3
72
8
73
4
74
0
42
0.000000001
43
0.0000000001
44
0.0000000001
40
-0.48700003496922867
40
-0.48700003496922867
40
-0.48700003496922867
40
-0.48700003496922867
40
-0.48235599694018144
40
-0.48235599694018144
40
-0.48235599694018144
40
-0.48235599694018144
10
20.957766319625609
20
-17.600355847411883
30
0
10
20.940481516899073
20
-17.568890205042173
30
0
10
20.923132258302132
20
-17.537465669632635
30
8.8817841970012523e-15
10
20.905726112633364
20
-17.506094492980488
30
1.7763568394002505e-14
0
ENDSEC
0
SECTION
2
OBJECTS
0
DICTIONARY
5
C
100
AcDbDictionary
3
ACAD_GROUP
350
D
3
ACAD_MLINESTYLE
350
17
0
DICTIONARY
5
D
100
AcDbDictionary
0
DICTIONARY
5
1A
330
C
100
AcDbDictionary
0
DICTIONARY
5
17
100
AcDbDictionary
0
ENDSEC
0
EOF
