%TF.GenerationSoftware,KiCad,Pcbnew,(6.99.0-4085-g6c752680d7)*%
%TF.CreationDate,2022-11-10T11:06:54+08:00*%
%TF.ProjectId,Rev2.4,52657632-2e34-42e6-9b69-6361645f7063,rev?*%
%TF.SameCoordinates,Original*%
%TF.FileFunction,Profile,NP*%
%FSLAX46Y46*%
G04 Gerber Fmt 4.6, Leading zero omitted, Abs format (unit mm)*
G04 Created by KiCad (PCBNEW (6.99.0-4085-g6c752680d7)) date 2022-11-10 11:06:54*
%MOMM*%
%LPD*%
G01*
G04 APERTURE LIST*
%TA.AperFunction,Profile*%
%ADD10C,0.100000*%
%TD*%
%ADD11C,0.100000*%
%TA.AperFunction,Profile*%
%ADD12C,0.050000*%
%TD*%
%TA.AperFunction,Profile*%
%ADD13C,0.120000*%
%TD*%
G04 APERTURE END LIST*
D10*
X227205000Y-44872354D02*
X222255002Y-44872352D01*
D11*
X177179001Y-197670150D02*
X177107406Y-197758986D01*
X177034398Y-197846277D01*
X176960018Y-197932015D01*
X176884307Y-198016189D01*
X176807304Y-198098791D01*
X176729050Y-198179813D01*
X176649586Y-198259245D01*
X176568953Y-198337078D01*
X176487189Y-198413303D01*
X176404337Y-198487913D01*
X176320437Y-198560896D01*
X176235528Y-198632246D01*
X176149652Y-198701953D01*
X176062849Y-198770007D01*
X175975159Y-198836401D01*
X175886623Y-198901125D01*
X175797282Y-198964170D01*
X175707175Y-199025527D01*
X175616344Y-199085188D01*
X175524828Y-199143144D01*
X175432668Y-199199385D01*
X175339906Y-199253904D01*
X175246580Y-199306690D01*
X175152732Y-199357735D01*
X175058402Y-199407030D01*
X174963630Y-199454566D01*
X174868458Y-199500335D01*
X174772925Y-199544327D01*
X174677072Y-199586534D01*
X174580939Y-199626946D01*
X174484568Y-199665555D01*
X174387998Y-199702352D01*
D12*
X107052683Y-150174595D02*
X107052690Y-151249373D01*
D11*
X49220999Y-148486054D02*
X49220115Y-148650767D01*
X49219933Y-148817290D01*
X49220780Y-148985708D01*
X49222982Y-149156105D01*
X49226865Y-149328565D01*
X49232757Y-149503174D01*
X49240984Y-149680016D01*
X49251872Y-149859175D01*
X49265749Y-150040737D01*
X49282941Y-150224786D01*
X49303774Y-150411407D01*
X49328576Y-150600684D01*
X49357672Y-150792702D01*
X49391390Y-150987545D01*
X49410084Y-151086053D01*
X49430056Y-151185299D01*
X49451347Y-151285294D01*
X49473998Y-151386049D01*
D12*
X116852696Y-169624601D02*
G75*
G03*
X117052701Y-169424614I-196J200201D01*
G01*
D11*
X371204997Y-145100432D02*
X371205829Y-145279372D01*
X371208192Y-145462542D01*
X371211883Y-145649967D01*
X371216701Y-145841675D01*
X371222443Y-146037693D01*
X371228908Y-146238047D01*
X371232348Y-146339859D01*
X371235894Y-146442765D01*
X371239519Y-146546769D01*
X371243199Y-146651874D01*
X371246908Y-146758084D01*
X371250621Y-146865401D01*
X371254313Y-146973829D01*
X371257958Y-147083372D01*
X371261532Y-147194033D01*
X371265009Y-147305815D01*
X371268364Y-147418722D01*
X371271571Y-147532756D01*
X371274606Y-147647922D01*
X371277443Y-147764223D01*
X371280057Y-147881662D01*
X371282423Y-148000243D01*
X371284515Y-148119968D01*
X371286309Y-148240842D01*
X371287778Y-148362867D01*
X371288899Y-148486048D01*
X367607596Y-155401050D02*
X367476895Y-155444036D01*
X367346008Y-155483548D01*
X367214977Y-155519681D01*
X367083846Y-155552533D01*
X366952659Y-155582201D01*
X366821457Y-155608780D01*
X366690286Y-155632369D01*
X366559187Y-155653063D01*
X366428203Y-155670960D01*
X366297380Y-155686157D01*
X366166758Y-155698750D01*
X366036382Y-155708837D01*
X365906295Y-155716513D01*
X365776539Y-155721876D01*
X365647159Y-155725023D01*
X365518198Y-155726051D01*
X89623998Y-57154853D02*
X89725346Y-57027552D01*
X89824685Y-56897317D01*
X89922078Y-56764242D01*
X90017588Y-56628421D01*
X90111281Y-56489946D01*
X90203220Y-56348912D01*
X90293469Y-56205411D01*
X90382093Y-56059537D01*
X90469155Y-55911383D01*
X90554719Y-55761044D01*
X90638850Y-55608611D01*
X90721612Y-55454179D01*
X90803069Y-55297841D01*
X90883285Y-55139691D01*
X90962323Y-54979822D01*
X91040249Y-54818327D01*
X91117126Y-54655300D01*
X91193018Y-54490833D01*
X91267989Y-54325022D01*
X91342104Y-54157959D01*
X91415427Y-53989737D01*
X91488021Y-53820450D01*
X91559950Y-53650191D01*
X91631280Y-53479054D01*
X91702073Y-53307132D01*
X91772395Y-53134518D01*
X91842308Y-52961307D01*
X91911878Y-52787591D01*
X91981168Y-52613464D01*
X92050242Y-52439019D01*
X92119164Y-52264350D01*
X92188000Y-52089550D01*
D12*
X303172827Y-152149363D02*
X303172842Y-169424603D01*
D11*
X58652999Y-59306751D02*
X58476363Y-59308270D01*
X58300300Y-59312814D01*
X58124853Y-59320358D01*
X57950067Y-59330877D01*
X57775986Y-59344347D01*
X57602655Y-59360744D01*
X57430119Y-59380045D01*
X57258421Y-59402224D01*
X57087606Y-59427257D01*
X56917719Y-59455121D01*
X56748805Y-59485791D01*
X56580907Y-59519243D01*
X56414071Y-59555453D01*
X56248340Y-59594397D01*
X56083760Y-59636050D01*
X55920375Y-59680388D01*
X55758228Y-59727387D01*
X55597366Y-59777023D01*
X55437831Y-59829271D01*
X55279670Y-59884109D01*
X55122925Y-59941510D01*
X54967643Y-60001451D01*
X54813866Y-60063909D01*
X54661641Y-60128858D01*
X54511010Y-60196274D01*
X54362020Y-60266134D01*
X54214713Y-60338413D01*
X54069135Y-60413087D01*
X53925330Y-60490132D01*
X53783343Y-60569523D01*
X53643219Y-60651237D01*
X53505001Y-60735249D01*
D12*
X118052676Y-150174622D02*
G75*
G03*
X117852710Y-149974624I-199776J222D01*
G01*
D10*
X321205001Y-44872353D02*
X307205000Y-44872351D01*
X140917002Y-179593952D02*
X136827999Y-167726053D01*
D12*
X107052690Y-151249373D02*
X107052688Y-152149370D01*
D11*
X332813202Y-58741451D02*
X332673775Y-58670061D01*
X332537091Y-58594649D01*
X332403104Y-58515284D01*
X332271766Y-58432034D01*
X332143032Y-58344967D01*
X332016854Y-58254152D01*
X331893188Y-58159657D01*
X331771985Y-58061549D01*
X331653200Y-57959898D01*
X331536786Y-57854771D01*
X331422697Y-57746237D01*
X331310887Y-57634364D01*
X331201309Y-57519221D01*
X331093916Y-57400875D01*
X330988662Y-57279395D01*
X330885502Y-57154849D01*
D12*
X303372847Y-169624603D02*
X311972835Y-169624602D01*
X107052688Y-152149370D02*
X108052688Y-152149369D01*
D10*
X238147400Y-191122852D02*
X243330699Y-197670155D01*
D11*
X370340202Y-64382652D02*
X370392146Y-64491421D01*
X370442561Y-64601334D01*
X370491440Y-64712358D01*
X370538773Y-64824462D01*
X370584555Y-64937612D01*
X370628775Y-65051777D01*
X370671428Y-65166925D01*
X370712504Y-65283024D01*
X370751996Y-65400041D01*
X370789896Y-65517945D01*
X370826196Y-65636703D01*
X370860889Y-65756284D01*
X370893966Y-65876654D01*
X370925420Y-65997783D01*
X370955242Y-66119638D01*
X370983425Y-66242187D01*
X371009961Y-66365398D01*
X371034843Y-66489238D01*
X371058061Y-66613676D01*
X371079609Y-66738680D01*
X371099478Y-66864217D01*
X371117661Y-66990255D01*
X371134149Y-67116763D01*
X371148935Y-67243707D01*
X371162012Y-67371057D01*
X371173370Y-67498780D01*
X371183003Y-67626843D01*
X371190902Y-67755216D01*
X371197059Y-67883865D01*
X371201467Y-68012758D01*
X371204118Y-68141864D01*
X371205004Y-68271151D01*
X243330699Y-197670155D02*
X243402348Y-197758991D01*
X243475408Y-197846282D01*
X243549837Y-197932019D01*
X243625595Y-198016193D01*
X243702641Y-198098795D01*
X243780936Y-198179816D01*
X243860439Y-198259247D01*
X243941109Y-198337080D01*
X244022906Y-198413305D01*
X244105789Y-198487914D01*
X244189719Y-198560898D01*
X244274655Y-198632247D01*
X244360556Y-198701954D01*
X244447383Y-198770008D01*
X244535094Y-198836402D01*
X244623649Y-198901125D01*
X244713008Y-198964170D01*
X244803131Y-199025528D01*
X244893977Y-199085188D01*
X244985505Y-199143144D01*
X245077676Y-199199385D01*
X245170449Y-199253903D01*
X245263783Y-199306689D01*
X245357639Y-199357734D01*
X245451975Y-199407029D01*
X245546751Y-199454565D01*
X245641928Y-199500334D01*
X245737464Y-199544326D01*
X245833319Y-199586533D01*
X245929453Y-199626945D01*
X246025826Y-199665554D01*
X246122397Y-199702351D01*
D10*
X119304999Y-44872352D02*
X187305000Y-44872350D01*
D11*
X49304998Y-145100428D02*
X49304164Y-145279368D01*
X49301799Y-145462538D01*
X49298103Y-145649964D01*
X49293280Y-145841673D01*
X49287530Y-146037691D01*
X49281057Y-146238046D01*
X49277612Y-146339858D01*
X49274062Y-146442765D01*
X49270433Y-146546769D01*
X49266748Y-146651874D01*
X49263035Y-146758084D01*
X49259317Y-146865401D01*
X49255621Y-146973830D01*
X49251971Y-147083373D01*
X49248393Y-147194034D01*
X49244912Y-147305817D01*
X49241553Y-147418724D01*
X49238342Y-147532759D01*
X49235304Y-147647925D01*
X49232464Y-147764227D01*
X49229847Y-147881666D01*
X49227479Y-148000247D01*
X49225385Y-148119973D01*
X49223590Y-148240847D01*
X49222119Y-148362873D01*
X49220999Y-148486054D01*
D12*
X108252708Y-169624609D02*
X116852696Y-169624608D01*
D10*
X208255048Y-54872348D02*
G75*
G03*
X198254998Y-44872352I-10000048J-52D01*
G01*
D12*
X313172882Y-150174616D02*
G75*
G03*
X312972849Y-149974618I-199782J216D01*
G01*
D11*
X52902001Y-155401051D02*
X53032787Y-155444037D01*
X53163743Y-155483548D01*
X53294828Y-155519682D01*
X53426000Y-155552533D01*
X53557220Y-155582201D01*
X53688445Y-155608780D01*
X53819636Y-155632369D01*
X53950750Y-155653064D01*
X54081747Y-155670961D01*
X54212586Y-155686158D01*
X54343225Y-155698751D01*
X54473625Y-155708837D01*
X54603743Y-155716514D01*
X54733539Y-155721877D01*
X54862971Y-155725024D01*
X54992000Y-155726052D01*
D10*
X301205000Y-40471748D02*
X301204998Y-44872350D01*
X251910302Y-199292449D02*
X274158299Y-187229951D01*
D11*
X371036499Y-151386050D02*
X371002780Y-151526689D01*
X370965748Y-151669388D01*
X370925115Y-151813929D01*
X370880596Y-151960096D01*
X370831905Y-152107673D01*
X370778755Y-152256441D01*
X370720860Y-152406186D01*
X370657935Y-152556690D01*
X370589694Y-152707736D01*
X370515849Y-152859108D01*
X370436115Y-153010589D01*
X370350206Y-153161963D01*
X370257837Y-153313012D01*
X370158720Y-153463521D01*
X370052569Y-153613272D01*
X369939100Y-153762050D01*
X141196999Y-180366952D02*
X141160481Y-180270712D01*
X141124421Y-180174366D01*
X141088806Y-180077913D01*
X141053624Y-179981350D01*
X141018865Y-179884675D01*
X140984515Y-179787885D01*
X140950565Y-179690978D01*
X140917002Y-179593952D01*
X170224001Y-199928850D02*
X170120354Y-199901850D01*
X170016816Y-199873097D01*
X169913424Y-199842600D01*
X169810218Y-199810371D01*
X169707233Y-199776421D01*
X169604510Y-199740760D01*
X169502085Y-199703399D01*
X169399998Y-199664350D01*
X169298285Y-199623622D01*
X169196986Y-199581227D01*
X169096138Y-199537175D01*
X168995779Y-199491478D01*
X168895947Y-199444146D01*
X168796681Y-199395191D01*
X168698018Y-199344622D01*
X168599998Y-199292451D01*
D10*
X214954397Y-161826450D02*
X224934197Y-174432551D01*
X168599998Y-199292451D02*
X146351999Y-187229951D01*
X208255001Y-154067653D02*
X208255000Y-54872348D01*
X190825999Y-180432553D02*
X229684200Y-180432548D01*
D11*
X335437997Y-59306752D02*
X335251327Y-59304576D01*
X335067766Y-59297845D01*
X334887294Y-59286588D01*
X334709892Y-59270833D01*
X334535538Y-59250609D01*
X334364214Y-59225945D01*
X334195899Y-59196870D01*
X334030574Y-59163412D01*
X333868218Y-59125601D01*
X333708811Y-59083465D01*
X333552335Y-59037034D01*
X333398768Y-58986336D01*
X333248091Y-58931399D01*
X333100285Y-58872254D01*
X332955328Y-58808928D01*
X332813202Y-58741451D01*
D10*
X187304999Y-40471751D02*
X119304997Y-40471749D01*
D12*
X311972835Y-169624640D02*
G75*
G03*
X312172840Y-169424608I-235J200240D01*
G01*
D10*
X224934197Y-174432551D02*
X195575800Y-174432551D01*
X290357968Y-167726099D02*
G75*
G03*
X327264517Y-155726211I17401632J9234349D01*
G01*
D11*
X328321498Y-52089551D02*
X328252643Y-51914742D01*
X328183698Y-51740065D01*
X328114599Y-51565614D01*
X328045283Y-51391481D01*
X327975686Y-51217760D01*
X327905743Y-51044545D01*
X327835392Y-50871928D01*
X327764569Y-50700004D01*
X327693210Y-50528865D01*
X327621251Y-50358605D01*
X327548629Y-50189317D01*
X327475279Y-50021094D01*
X327401139Y-49854031D01*
X327326144Y-49688219D01*
X327250231Y-49523753D01*
X327173336Y-49360726D01*
X327095396Y-49199231D01*
X327016346Y-49039362D01*
X326936123Y-48881211D01*
X326854664Y-48724873D01*
X326771904Y-48570440D01*
X326687780Y-48418007D01*
X326602228Y-48267666D01*
X326515185Y-48119510D01*
X326426586Y-47973633D01*
X326336369Y-47830129D01*
X326244469Y-47689091D01*
X326150822Y-47550611D01*
X326055366Y-47414784D01*
X325958036Y-47281703D01*
X325858768Y-47151460D01*
X325757500Y-47024151D01*
D10*
X205555660Y-161826379D02*
G75*
G03*
X208255001Y-154067653I-9800660J7758679D01*
G01*
X193304999Y-44872352D02*
X193305000Y-40471753D01*
X233204999Y-44872348D02*
X233204998Y-40471754D01*
D12*
X303172897Y-169424626D02*
G75*
G03*
X303372847Y-169624603I200303J326D01*
G01*
X108052688Y-152149369D02*
X108052703Y-169424609D01*
D10*
X99305001Y-44872349D02*
X113304997Y-44872349D01*
D12*
X302172829Y-151249367D02*
X302172827Y-152149364D01*
X302172822Y-150174589D02*
X302172829Y-151249367D01*
D10*
X327264500Y-155726051D02*
X365518198Y-155726051D01*
D11*
X50571001Y-153762049D02*
X50680838Y-153895417D01*
X50797118Y-154025974D01*
X50919482Y-154153437D01*
X51047576Y-154277525D01*
X51181042Y-154397958D01*
X51319526Y-154514454D01*
X51462672Y-154626732D01*
X51610123Y-154734511D01*
X51761522Y-154837510D01*
X51916516Y-154935448D01*
X52074746Y-155028044D01*
X52235858Y-155115017D01*
X52399496Y-155196084D01*
X52565303Y-155270967D01*
X52732923Y-155339383D01*
X52902001Y-155401051D01*
X87696999Y-58741449D02*
X87836424Y-58670060D01*
X87973105Y-58594649D01*
X88107089Y-58515285D01*
X88238419Y-58432036D01*
X88367143Y-58344969D01*
X88493304Y-58254154D01*
X88616949Y-58159659D01*
X88738123Y-58061552D01*
X88856871Y-57959900D01*
X88973238Y-57854774D01*
X89087271Y-57746240D01*
X89199014Y-57634367D01*
X89308512Y-57519224D01*
X89415812Y-57400878D01*
X89520959Y-57279398D01*
X89623998Y-57154853D01*
D10*
X283682300Y-167726049D02*
X290357936Y-167726050D01*
X279593299Y-179593950D02*
X283682300Y-167726049D01*
X198254998Y-44872352D02*
X193304999Y-44872352D01*
D11*
X49473998Y-151386049D02*
X49507631Y-151526688D01*
X49544596Y-151669387D01*
X49585176Y-151813929D01*
X49629656Y-151960096D01*
X49678318Y-152107672D01*
X49731449Y-152256440D01*
X49789331Y-152406185D01*
X49852250Y-152556688D01*
X49920489Y-152707734D01*
X49994332Y-152859106D01*
X50074064Y-153010587D01*
X50159969Y-153161961D01*
X50252330Y-153313010D01*
X50351434Y-153463519D01*
X50457562Y-153613271D01*
X50571001Y-153762049D01*
D10*
X229684200Y-180432548D02*
X233397398Y-185122849D01*
X238147400Y-191122852D02*
X182363001Y-191122848D01*
D11*
X277098801Y-184617154D02*
X277192279Y-184488729D01*
X277283728Y-184359925D01*
X277373192Y-184230752D01*
X277460719Y-184101218D01*
X277546355Y-183971333D01*
X277630145Y-183841107D01*
X277712137Y-183710550D01*
X277792376Y-183579671D01*
X277870909Y-183448479D01*
X277947783Y-183316985D01*
X278023043Y-183185198D01*
X278096736Y-183053127D01*
X278168908Y-182920783D01*
X278239605Y-182788174D01*
X278308874Y-182655310D01*
X278376761Y-182522201D01*
X278443313Y-182388857D01*
X278508575Y-182255286D01*
X278572594Y-182121500D01*
X278635416Y-181987506D01*
X278697088Y-181853316D01*
X278757656Y-181718937D01*
X278817166Y-181584381D01*
X278875665Y-181449657D01*
X278933198Y-181314774D01*
X278989813Y-181179741D01*
X279045555Y-181044569D01*
X279100471Y-180909267D01*
X279154607Y-180773845D01*
X279208009Y-180638312D01*
X279260724Y-180502677D01*
X279312798Y-180366952D01*
D12*
X313172836Y-152149365D02*
X313172835Y-151349363D01*
D10*
X195575800Y-174432551D02*
X205555599Y-161826452D01*
D12*
X312972849Y-149974618D02*
X302372846Y-149974598D01*
X108052691Y-169424632D02*
G75*
G03*
X108252708Y-169624609I200309J332D01*
G01*
D10*
X233204998Y-40471754D02*
X301205000Y-40471748D01*
D12*
X117052697Y-152149373D02*
X118052697Y-152149371D01*
D10*
X227204997Y-40471754D02*
X227205000Y-44872354D01*
D11*
X367004998Y-60735249D02*
X367135215Y-60817408D01*
X367264077Y-60901553D01*
X367391552Y-60987690D01*
X367517608Y-61075826D01*
X367642211Y-61165967D01*
X367765331Y-61258121D01*
X367886934Y-61352295D01*
X368006990Y-61448494D01*
X368125465Y-61546726D01*
X368242327Y-61646998D01*
X368357545Y-61749316D01*
X368471086Y-61853687D01*
X368582917Y-61960118D01*
X368693008Y-62068615D01*
X368801325Y-62179186D01*
X368907836Y-62291837D01*
X369012509Y-62406574D01*
X369115313Y-62523405D01*
X369216214Y-62642337D01*
X369315182Y-62763375D01*
X369412182Y-62886528D01*
X369507184Y-63011801D01*
X369600155Y-63139201D01*
X369691064Y-63268736D01*
X369779877Y-63400411D01*
X369866562Y-63534234D01*
X369951089Y-63670212D01*
X370033423Y-63808350D01*
X370113534Y-63948657D01*
X370191389Y-64091138D01*
X370266955Y-64235801D01*
X370340202Y-64382652D01*
D12*
X117852710Y-149974624D02*
X107252707Y-149974604D01*
D10*
X301204998Y-44872350D02*
X233204999Y-44872348D01*
D11*
X174387998Y-199702352D02*
X174262363Y-199747727D01*
X174136339Y-199790698D01*
X174009937Y-199831259D01*
X173883166Y-199869403D01*
X173756036Y-199905123D01*
X173628557Y-199938412D01*
X173500739Y-199969264D01*
X173372592Y-199997673D01*
X173244125Y-200023630D01*
X173115349Y-200047130D01*
X172986274Y-200068166D01*
X172856909Y-200086731D01*
X172727264Y-200102819D01*
X172597349Y-200116422D01*
X172467174Y-200127535D01*
X172336749Y-200136150D01*
X172206083Y-200142260D01*
X172075188Y-200145860D01*
X171944072Y-200146942D01*
X171812745Y-200145500D01*
X171681218Y-200141526D01*
X171549500Y-200135015D01*
X171417601Y-200125959D01*
X171285531Y-200114352D01*
X171153299Y-200100188D01*
X171020917Y-200083458D01*
X170888393Y-200064157D01*
X170755738Y-200042279D01*
X170622961Y-200017815D01*
X170490073Y-199990760D01*
X170357083Y-199961107D01*
X170224001Y-199928850D01*
X369939100Y-153762050D02*
X369829228Y-153895418D01*
X369712926Y-154025975D01*
X369590546Y-154153438D01*
X369462443Y-154277527D01*
X369328970Y-154397960D01*
X369190481Y-154514456D01*
X369047331Y-154626734D01*
X368899873Y-154734513D01*
X368748461Y-154837512D01*
X368593449Y-154935450D01*
X368435191Y-155028046D01*
X368274040Y-155115018D01*
X368110352Y-155196085D01*
X367944479Y-155270967D01*
X367776775Y-155339382D01*
X367607596Y-155401050D01*
X246122397Y-199702351D02*
X246248030Y-199747726D01*
X246374049Y-199790697D01*
X246500444Y-199831258D01*
X246627205Y-199869402D01*
X246754322Y-199905122D01*
X246881788Y-199938411D01*
X247009590Y-199969263D01*
X247137721Y-199997672D01*
X247266171Y-200023629D01*
X247394929Y-200047129D01*
X247523987Y-200068165D01*
X247653335Y-200086731D01*
X247782964Y-200102818D01*
X247912863Y-200116422D01*
X248043024Y-200127535D01*
X248173437Y-200136150D01*
X248304091Y-200142261D01*
X248434979Y-200145861D01*
X248566090Y-200146943D01*
X248697414Y-200145501D01*
X248828942Y-200141528D01*
X248960665Y-200135017D01*
X249092574Y-200125961D01*
X249224657Y-200114354D01*
X249356906Y-200100190D01*
X249489312Y-200083460D01*
X249621865Y-200064160D01*
X249754555Y-200042281D01*
X249887372Y-200017818D01*
X250020308Y-199990763D01*
X250153353Y-199961110D01*
X250286497Y-199928853D01*
D12*
X313172835Y-151349363D02*
X313172837Y-150174616D01*
D10*
X187113001Y-185122850D02*
X190825999Y-180432553D01*
X361857400Y-59306751D02*
X335437997Y-59306752D01*
X307204999Y-36471751D02*
X113304996Y-35471751D01*
D11*
X143411000Y-184617149D02*
X143317529Y-184488724D01*
X143226086Y-184359921D01*
X143136626Y-184230747D01*
X143049101Y-184101214D01*
X142963466Y-183971329D01*
X142879674Y-183841104D01*
X142797680Y-183710547D01*
X142717437Y-183579668D01*
X142638899Y-183448476D01*
X142562020Y-183316982D01*
X142486753Y-183185195D01*
X142413054Y-183053125D01*
X142340875Y-182920780D01*
X142270170Y-182788171D01*
X142200893Y-182655308D01*
X142132999Y-182522199D01*
X142066441Y-182388855D01*
X142001172Y-182255284D01*
X141937147Y-182121498D01*
X141874319Y-181987505D01*
X141812643Y-181853314D01*
X141752072Y-181718936D01*
X141692560Y-181584380D01*
X141634061Y-181449656D01*
X141576529Y-181314773D01*
X141519918Y-181179740D01*
X141464181Y-181044568D01*
X141409272Y-180909267D01*
X141355146Y-180773844D01*
X141301756Y-180638311D01*
X141249055Y-180502677D01*
X141196999Y-180366952D01*
X94753000Y-47024152D02*
X94856038Y-46899605D01*
X94961184Y-46778125D01*
X95068484Y-46659779D01*
X95177982Y-46544636D01*
X95289725Y-46432763D01*
X95403757Y-46324229D01*
X95520125Y-46219103D01*
X95638873Y-46117451D01*
X95760046Y-46019344D01*
X95883691Y-45924849D01*
X96009853Y-45834033D01*
X96138577Y-45746967D01*
X96269908Y-45663717D01*
X96403892Y-45584352D01*
X96540574Y-45508940D01*
X96680000Y-45437551D01*
D10*
X307205000Y-44872351D02*
X307204999Y-36471751D01*
D11*
X92188000Y-52089550D02*
X92256925Y-51914741D01*
X92325932Y-51740064D01*
X92395086Y-51565612D01*
X92464450Y-51391479D01*
X92534088Y-51217759D01*
X92604066Y-51044543D01*
X92674447Y-50871927D01*
X92745295Y-50700002D01*
X92816675Y-50528863D01*
X92888651Y-50358603D01*
X92961287Y-50189315D01*
X93034648Y-50021093D01*
X93108798Y-49854029D01*
X93183801Y-49688217D01*
X93259721Y-49523751D01*
X93336623Y-49360724D01*
X93414571Y-49199230D01*
X93493629Y-49039360D01*
X93573861Y-48881210D01*
X93655332Y-48724872D01*
X93738106Y-48570440D01*
X93822248Y-48418006D01*
X93907821Y-48267665D01*
X93994889Y-48119510D01*
X94083518Y-47973633D01*
X94173771Y-47830129D01*
X94265713Y-47689091D01*
X94359407Y-47550611D01*
X94454919Y-47414784D01*
X94552312Y-47281703D01*
X94651651Y-47151461D01*
X94753000Y-47024152D01*
X323829801Y-45437551D02*
X323687690Y-45370089D01*
X323542748Y-45306776D01*
X323394953Y-45247639D01*
X323244286Y-45192708D01*
X323090727Y-45142014D01*
X322934256Y-45095584D01*
X322774853Y-45053449D01*
X322612498Y-45015638D01*
X322447172Y-44982181D01*
X322278853Y-44953107D01*
X322107523Y-44928445D01*
X321933162Y-44908225D01*
X321755748Y-44892476D01*
X321575264Y-44881228D01*
X321391688Y-44874511D01*
X321205001Y-44872353D01*
D10*
X93245096Y-155726051D02*
X54992000Y-155726052D01*
X233397398Y-185122849D02*
X187113001Y-185122850D01*
X182363001Y-191122848D02*
X177179001Y-197670150D01*
X93245097Y-155726113D02*
G75*
G03*
X130151648Y-167726069I19504903J-2765637D01*
G01*
X136827999Y-167726053D02*
X130151646Y-167726048D01*
D12*
X302372846Y-149974622D02*
G75*
G03*
X302172822Y-150174589I-446J-199578D01*
G01*
D11*
X53505001Y-60735249D02*
X53374793Y-60817408D01*
X53245941Y-60901553D01*
X53118478Y-60987690D01*
X52992435Y-61075826D01*
X52867845Y-61165968D01*
X52744739Y-61258123D01*
X52623149Y-61352296D01*
X52503108Y-61448496D01*
X52384648Y-61546728D01*
X52267800Y-61647000D01*
X52152597Y-61749318D01*
X52039070Y-61853689D01*
X51927253Y-61960120D01*
X51817176Y-62068617D01*
X51708872Y-62179187D01*
X51602373Y-62291838D01*
X51497711Y-62406576D01*
X51394917Y-62523407D01*
X51294025Y-62642338D01*
X51195066Y-62763376D01*
X51098072Y-62886529D01*
X51003075Y-63011802D01*
X50910108Y-63139202D01*
X50819201Y-63268736D01*
X50730388Y-63400412D01*
X50643700Y-63534234D01*
X50559170Y-63670212D01*
X50476829Y-63808350D01*
X50396709Y-63948656D01*
X50318843Y-64091137D01*
X50243262Y-64235800D01*
X50170000Y-64382651D01*
X96680000Y-45437551D02*
X96822210Y-45370090D01*
X96967232Y-45306776D01*
X97115086Y-45247639D01*
X97265796Y-45192709D01*
X97419382Y-45142014D01*
X97575868Y-45095584D01*
X97735274Y-45053449D01*
X97897624Y-45015639D01*
X98062938Y-44982181D01*
X98231239Y-44953106D01*
X98402549Y-44928444D01*
X98576890Y-44908224D01*
X98754283Y-44892474D01*
X98934752Y-44881226D01*
X99118317Y-44874507D01*
X99305001Y-44872349D01*
X50170000Y-64382651D02*
X50118072Y-64491420D01*
X50067670Y-64601333D01*
X50018802Y-64712358D01*
X49971476Y-64824461D01*
X49925699Y-64937612D01*
X49881481Y-65051777D01*
X49838828Y-65166925D01*
X49797749Y-65283024D01*
X49758252Y-65400041D01*
X49720346Y-65517945D01*
X49684037Y-65636704D01*
X49649335Y-65756284D01*
X49616247Y-65876655D01*
X49584781Y-65997784D01*
X49554945Y-66119639D01*
X49526749Y-66242188D01*
X49500198Y-66365399D01*
X49475302Y-66489239D01*
X49452069Y-66613677D01*
X49430506Y-66738681D01*
X49410622Y-66864218D01*
X49392425Y-66990256D01*
X49375922Y-67116764D01*
X49361123Y-67243708D01*
X49348034Y-67371058D01*
X49336665Y-67498781D01*
X49327022Y-67626844D01*
X49319115Y-67755216D01*
X49312951Y-67883865D01*
X49308538Y-68012759D01*
X49305884Y-68141864D01*
X49304998Y-68271151D01*
X85071998Y-59306753D02*
X85258681Y-59304577D01*
X85442246Y-59297846D01*
X85622714Y-59286589D01*
X85800107Y-59270834D01*
X85974448Y-59250609D01*
X86145757Y-59225945D01*
X86314058Y-59196870D01*
X86479372Y-59163412D01*
X86641722Y-59125601D01*
X86801128Y-59083465D01*
X86957614Y-59037034D01*
X87111200Y-58986335D01*
X87261910Y-58931398D01*
X87409765Y-58872253D01*
X87554787Y-58808926D01*
X87696999Y-58741449D01*
D10*
X187305000Y-44872350D02*
X187304999Y-40471751D01*
X58652999Y-59306751D02*
X85071998Y-59306753D01*
D12*
X117052701Y-169424614D02*
X117052697Y-152149373D01*
D11*
X250286497Y-199928853D02*
X250390090Y-199901853D01*
X250493582Y-199873099D01*
X250596934Y-199842603D01*
X250700108Y-199810374D01*
X250803064Y-199776423D01*
X250905766Y-199740762D01*
X251008174Y-199703402D01*
X251110250Y-199664352D01*
X251211955Y-199623624D01*
X251313252Y-199581228D01*
X251414102Y-199537176D01*
X251514466Y-199491479D01*
X251614307Y-199444146D01*
X251713585Y-199395190D01*
X251812263Y-199344620D01*
X251910302Y-199292449D01*
X371288899Y-148486048D02*
X371289866Y-148650762D01*
X371290112Y-148817287D01*
X371289315Y-148985705D01*
X371287149Y-149156103D01*
X371283292Y-149328564D01*
X371277418Y-149503173D01*
X371269203Y-149680016D01*
X371258325Y-149859176D01*
X371244458Y-150040738D01*
X371227278Y-150224787D01*
X371206463Y-150411408D01*
X371181687Y-150600685D01*
X371152626Y-150792703D01*
X371118957Y-150987547D01*
X371100294Y-151086055D01*
X371080356Y-151185301D01*
X371059105Y-151285295D01*
X371036499Y-151386050D01*
D12*
X107252707Y-149974583D02*
G75*
G03*
X107052683Y-150174595I-407J-199617D01*
G01*
X118052697Y-152149371D02*
X118052696Y-151349369D01*
D11*
X330885502Y-57154849D02*
X330784232Y-57027548D01*
X330684964Y-56897314D01*
X330587634Y-56764240D01*
X330492177Y-56628419D01*
X330398530Y-56489944D01*
X330306630Y-56348910D01*
X330216412Y-56205409D01*
X330127813Y-56059536D01*
X330040770Y-55911382D01*
X329955218Y-55761043D01*
X329871094Y-55608610D01*
X329788334Y-55454178D01*
X329706874Y-55297841D01*
X329626651Y-55139691D01*
X329547601Y-54979821D01*
X329469661Y-54818326D01*
X329392766Y-54655299D01*
X329316853Y-54490833D01*
X329241858Y-54325022D01*
X329167718Y-54157958D01*
X329094368Y-53989737D01*
X329021746Y-53820449D01*
X328949787Y-53650191D01*
X328878428Y-53479054D01*
X328807604Y-53307132D01*
X328737253Y-53134519D01*
X328667311Y-52961307D01*
X328597713Y-52787591D01*
X328528397Y-52613464D01*
X328459298Y-52439020D01*
X328390353Y-52264350D01*
X328321498Y-52089551D01*
D10*
X212255028Y-154067648D02*
G75*
G03*
X214954425Y-161826438I12499972J-52D01*
G01*
D11*
X146351999Y-187229951D02*
X146237779Y-187166816D01*
X146124995Y-187102038D01*
X146013648Y-187035660D01*
X145903737Y-186967728D01*
X145795263Y-186898287D01*
X145688227Y-186827382D01*
X145582628Y-186755056D01*
X145478468Y-186681357D01*
X145375746Y-186606328D01*
X145274462Y-186530014D01*
X145174618Y-186452461D01*
X145076214Y-186373714D01*
X144979249Y-186293816D01*
X144883725Y-186212814D01*
X144789642Y-186130753D01*
X144696999Y-186047676D01*
X144605798Y-185963630D01*
X144516039Y-185878659D01*
X144427722Y-185792809D01*
X144340847Y-185706123D01*
X144255416Y-185618648D01*
X144171427Y-185530428D01*
X144088882Y-185441508D01*
X144007781Y-185351932D01*
X143928124Y-185261747D01*
X143849912Y-185170997D01*
X143773145Y-185079727D01*
X143697824Y-184987982D01*
X143623948Y-184895806D01*
X143551519Y-184803245D01*
X143480536Y-184710345D01*
X143411000Y-184617149D01*
D12*
X312172836Y-152149367D02*
X313172836Y-152149365D01*
D11*
X325757500Y-47024151D02*
X325654337Y-46899604D01*
X325549083Y-46778124D01*
X325441689Y-46659778D01*
X325332110Y-46544634D01*
X325220299Y-46432762D01*
X325106210Y-46324228D01*
X324989797Y-46219101D01*
X324871012Y-46117450D01*
X324749809Y-46019343D01*
X324626143Y-45924848D01*
X324499966Y-45834032D01*
X324371233Y-45746966D01*
X324239896Y-45663716D01*
X324105909Y-45584352D01*
X323969226Y-45508940D01*
X323829801Y-45437551D01*
D10*
X222255002Y-44872349D02*
G75*
G03*
X212254999Y-54872349I-2J-10000001D01*
G01*
D12*
X118052696Y-151349369D02*
X118052698Y-150174622D01*
D10*
X113304996Y-35471751D02*
X113304997Y-44872349D01*
D11*
X274158299Y-187229951D02*
X274272474Y-187166817D01*
X274385217Y-187102039D01*
X274496528Y-187035661D01*
X274606407Y-186967729D01*
X274714853Y-186898288D01*
X274821864Y-186827382D01*
X274927441Y-186755057D01*
X275031582Y-186681358D01*
X275134288Y-186606328D01*
X275235557Y-186530015D01*
X275335390Y-186452461D01*
X275433784Y-186373713D01*
X275530740Y-186293816D01*
X275626258Y-186212814D01*
X275720335Y-186130752D01*
X275812973Y-186047676D01*
X275904170Y-185963629D01*
X275993925Y-185878658D01*
X276082238Y-185792808D01*
X276169109Y-185706122D01*
X276254536Y-185618647D01*
X276338519Y-185530427D01*
X276421058Y-185441507D01*
X276502152Y-185351932D01*
X276581800Y-185261747D01*
X276660001Y-185170997D01*
X276736756Y-185079727D01*
X276812062Y-184987983D01*
X276885921Y-184895808D01*
X276958330Y-184803248D01*
X277029291Y-184710348D01*
X277098801Y-184617154D01*
D10*
X193305000Y-40471753D02*
X227204997Y-40471754D01*
D12*
X312172840Y-169424608D02*
X312172836Y-152149367D01*
D10*
X119304997Y-40471749D02*
X119304999Y-44872352D01*
X371204997Y-145100432D02*
X371205004Y-68271151D01*
D11*
X279312798Y-180366952D02*
X279349272Y-180270712D01*
X279385342Y-180174367D01*
X279421010Y-180077914D01*
X279456273Y-179981351D01*
X279491134Y-179884675D01*
X279525592Y-179787885D01*
X279559646Y-179690977D01*
X279593299Y-179593950D01*
X361857400Y-59306751D02*
X362033971Y-59308270D01*
X362209973Y-59312814D01*
X362385363Y-59320357D01*
X362560096Y-59330876D01*
X362734127Y-59344347D01*
X362907411Y-59360744D01*
X363079904Y-59380044D01*
X363251562Y-59402223D01*
X363422341Y-59427257D01*
X363592194Y-59455121D01*
X363761079Y-59485791D01*
X363928950Y-59519243D01*
X364095763Y-59555453D01*
X364261474Y-59594397D01*
X364426038Y-59636050D01*
X364589410Y-59680388D01*
X364751546Y-59727387D01*
X364912402Y-59777023D01*
X365071933Y-59829272D01*
X365230094Y-59884109D01*
X365386841Y-59941510D01*
X365542129Y-60001452D01*
X365695915Y-60063909D01*
X365848152Y-60128858D01*
X365998798Y-60196275D01*
X366147807Y-60266134D01*
X366295134Y-60338413D01*
X366440736Y-60413087D01*
X366584568Y-60490132D01*
X366726585Y-60569523D01*
X366866743Y-60651237D01*
X367004998Y-60735249D01*
D10*
X49304998Y-145100428D02*
X49304998Y-68271151D01*
D12*
X302172827Y-152149364D02*
X303172827Y-152149363D01*
D10*
X212254999Y-54872349D02*
X212254998Y-154067648D01*
D13*
%TO.C,D37*%
X185185613Y-176852558D02*
X187560351Y-178845200D01*
X187560351Y-178845200D02*
X189874387Y-176087440D01*
X187499649Y-174094798D02*
X185185613Y-176852558D01*
X189874387Y-176087440D02*
X187499649Y-174094798D01*
%TO.C,D17*%
X333978405Y-150424002D02*
X333978405Y-147324002D01*
X333978405Y-147324002D02*
X330378405Y-147324002D01*
X330378405Y-150424002D02*
X333978405Y-150424002D01*
X330378405Y-147324002D02*
X330378405Y-150424002D01*
%TO.C,D18*%
X323557476Y-166172699D02*
X320872798Y-164622699D01*
X320872798Y-164622699D02*
X319072798Y-167740391D01*
X321757476Y-169290391D02*
X323557476Y-166172699D01*
X319072798Y-167740391D02*
X321757476Y-169290391D01*
%TO.C,D23*%
X242999650Y-191845197D02*
X245374388Y-189852555D01*
X245374388Y-189852555D02*
X243060352Y-187094795D01*
X240685614Y-189087437D02*
X242999650Y-191845197D01*
X243060352Y-187094795D02*
X240685614Y-189087437D01*
%TO.C,D14*%
X364779998Y-105670003D02*
X361679998Y-105670003D01*
X361679998Y-105670003D02*
X361679998Y-109270003D01*
X364779998Y-109270003D02*
X364779998Y-105670003D01*
X361679998Y-109270003D02*
X364779998Y-109270003D01*
%TO.C,D15*%
X364779998Y-130670003D02*
X361679998Y-130670003D01*
X361679998Y-130670003D02*
X361679998Y-134270003D01*
X364779998Y-134270003D02*
X364779998Y-130670003D01*
X361679998Y-134270003D02*
X364779998Y-134270003D01*
%TO.C,D16*%
X353978405Y-150424002D02*
X353978405Y-147324002D01*
X353978405Y-147324002D02*
X350378405Y-147324002D01*
X350378405Y-150424002D02*
X353978405Y-150424002D01*
X350378405Y-147324002D02*
X350378405Y-150424002D01*
%TO.C,D36*%
X175185613Y-189852558D02*
X177560351Y-191845200D01*
X177560351Y-191845200D02*
X179874387Y-189087440D01*
X177499649Y-187094798D02*
X175185613Y-189852558D01*
X179874387Y-189087440D02*
X177499649Y-187094798D01*
%TO.C,D26*%
X58880006Y-105670002D02*
X55780006Y-105670002D01*
X55780006Y-105670002D02*
X55780006Y-109270002D01*
X58880006Y-109270002D02*
X58880006Y-105670002D01*
X55780006Y-109270002D02*
X58880006Y-109270002D01*
%TO.C,D21*%
X272407661Y-181533846D02*
X275092339Y-179983846D01*
X275092339Y-179983846D02*
X273292339Y-176866154D01*
X270607661Y-178416154D02*
X272407661Y-181533846D01*
X273292339Y-176866154D02*
X270607661Y-178416154D01*
%TO.C,D38*%
X195185613Y-164852558D02*
X197560351Y-166845200D01*
X197560351Y-166845200D02*
X199874387Y-164087440D01*
X197499649Y-162094798D02*
X195185613Y-164852558D01*
X199874387Y-164087440D02*
X197499649Y-162094798D01*
%TO.C,D33*%
X123892875Y-167541981D02*
X126432246Y-169320068D01*
X126432246Y-169320068D02*
X128497121Y-166371121D01*
X125957750Y-164593034D02*
X123892875Y-167541981D01*
X128497121Y-166371121D02*
X125957750Y-164593034D01*
%TO.C,D20*%
X294284788Y-169331749D02*
X296659526Y-167339107D01*
X296659526Y-167339107D02*
X294345490Y-164581347D01*
X291970752Y-166573989D02*
X294284788Y-169331749D01*
X294345490Y-164581347D02*
X291970752Y-166573989D01*
%TO.C,D28*%
X66582004Y-147324000D02*
X66582004Y-150424000D01*
X66582004Y-150424000D02*
X70182004Y-150424000D01*
X70182004Y-147324000D02*
X66582004Y-147324000D01*
X70182004Y-150424000D02*
X70182004Y-147324000D01*
%TO.C,D13*%
X364779998Y-80670003D02*
X361679998Y-80670003D01*
X361679998Y-80670003D02*
X361679998Y-84270003D01*
X364779998Y-84270003D02*
X364779998Y-80670003D01*
X361679998Y-84270003D02*
X364779998Y-84270003D01*
%TO.C,D31*%
X99432248Y-164593037D02*
X96892877Y-166371124D01*
X96892877Y-166371124D02*
X98957752Y-169320071D01*
X101497123Y-167541984D02*
X99432248Y-164593037D01*
X98957752Y-169320071D02*
X101497123Y-167541984D01*
%TO.C,D19*%
X309730000Y-173845000D02*
X309730000Y-170745000D01*
X309730000Y-170745000D02*
X306130000Y-170745000D01*
X306130000Y-173845000D02*
X309730000Y-173845000D01*
X306130000Y-170745000D02*
X306130000Y-173845000D01*
%TO.C,D29*%
X86582004Y-147324000D02*
X86582004Y-150424000D01*
X86582004Y-150424000D02*
X90182004Y-150424000D01*
X90182004Y-147324000D02*
X86582004Y-147324000D01*
X90182004Y-150424000D02*
X90182004Y-147324000D01*
%TO.C,D27*%
X58880006Y-130670002D02*
X55780006Y-130670002D01*
X55780006Y-130670002D02*
X55780006Y-134270002D01*
X58880006Y-134270002D02*
X58880006Y-130670002D01*
X55780006Y-134270002D02*
X58880006Y-134270002D01*
%TO.C,D24*%
X232999650Y-178845197D02*
X235374388Y-176852555D01*
X235374388Y-176852555D02*
X233060352Y-174094795D01*
X230685614Y-176087437D02*
X232999650Y-178845197D01*
X233060352Y-174094795D02*
X230685614Y-176087437D01*
%TO.C,D6*%
X58880006Y-80670002D02*
X55780006Y-80670002D01*
X55780006Y-80670002D02*
X55780006Y-84270002D01*
X58880006Y-84270002D02*
X58880006Y-80670002D01*
X55780006Y-84270002D02*
X58880006Y-84270002D01*
%TO.C,D35*%
X164121154Y-189829413D02*
X162571154Y-192514091D01*
X162571154Y-192514091D02*
X165688846Y-194314091D01*
X167238846Y-191629413D02*
X164121154Y-189829413D01*
X165688846Y-194314091D02*
X167238846Y-191629413D01*
%TO.C,D32*%
X111009861Y-171745006D02*
X111009861Y-174845006D01*
X111009861Y-174845006D02*
X114609861Y-174845006D01*
X114609861Y-171745006D02*
X111009861Y-171745006D01*
X114609861Y-174845006D02*
X114609861Y-171745006D01*
%TO.C,D22*%
X257783846Y-192692339D02*
X256233846Y-190007661D01*
X256233846Y-190007661D02*
X253116154Y-191807661D01*
X254666154Y-194492339D02*
X257783846Y-192692339D01*
X253116154Y-191807661D02*
X254666154Y-194492339D01*
%TO.C,D34*%
X145202877Y-179657182D02*
X147742248Y-181435269D01*
X147742248Y-181435269D02*
X149807123Y-178486322D01*
X147267752Y-176708235D02*
X145202877Y-179657182D01*
X149807123Y-178486322D02*
X147267752Y-176708235D01*
%TO.C,D25*%
X222999650Y-166845197D02*
X225374388Y-164852555D01*
X225374388Y-164852555D02*
X223060352Y-162094795D01*
X220685614Y-164087437D02*
X222999650Y-166845197D01*
X223060352Y-162094795D02*
X220685614Y-164087437D01*
%TD*%
M02*
