M48
; DRILL file {KiCad (6.99.0-4085-g6c752680d7)} date Thu Nov 10 11:06:54 2022
; FORMAT={-:-/ absolute / inch / decimal}
; #@! TF.CreationDate,2022-11-10T11:06:54+08:00
; #@! TF.GenerationSoftware,Kicad,Pcbnew,(6.99.0-4085-g6c752680d7)
; #@! TF.FileFunction,NonPlated,1,4,NPTH
FMAT,2
INCH
; #@! TA.AperFunction,NonPlated,NPTH,ComponentDrill
T1C0.0256
; #@! TA.AperFunction,NonPlated,NPTH,ComponentDrill
T2C0.0295
; #@! TA.AperFunction,NonPlated,NPTH,ComponentDrill
T3C0.0315
; #@! TA.AperFunction,NonPlated,NPTH,ComponentDrill
T4C0.0433
; #@! TA.AperFunction,NonPlated,NPTH,ComponentDrill
T5C0.0454
; #@! TA.AperFunction,NonPlated,NPTH,ComponentDrill
T6C0.0630
%
G90
G05
T1
X5.9228Y-2.0165
X6.1504Y-2.0165
X6.7102Y-2.0165
X6.9378Y-2.0165
X9.6187Y-2.0166
X9.8463Y-2.0166
X10.4061Y-2.0166
X10.6337Y-2.0166
T2
X5.4461Y-1.8226
X5.4461Y-1.9309
X11.1104Y-1.8227
X11.1104Y-1.931
T3
X4.4803Y-1.7638
X4.5295Y-1.7638
X4.5787Y-1.7638
X4.628Y-1.7638
X4.6772Y-1.7638
X7.227Y-7.4822
X7.2552Y-7.4419
X7.2835Y-7.4016
X7.3117Y-7.3613
X7.3399Y-7.3209
X7.3937Y-1.7638
X7.4429Y-1.7638
X7.4921Y-1.7638
X7.5413Y-1.7638
X7.5538Y-7.0649
X7.582Y-7.0246
X7.5906Y-1.7638
X7.6102Y-6.9843
X7.6385Y-6.9439
X7.6667Y-6.9036
X8.8766Y-6.8997
X8.9048Y-6.94
X8.9331Y-6.9803
X8.9567Y-1.7638
X8.9613Y-7.0206
X8.9895Y-7.0609
X9.0059Y-1.7638
X9.0551Y-1.7638
X9.1043Y-1.7638
X9.1535Y-1.7638
X9.2113Y-7.3209
X9.2395Y-7.3613
X9.2677Y-7.4016
X9.2959Y-7.4419
X9.3242Y-7.4822
X11.874Y-1.7677
X11.9232Y-1.7677
X11.9724Y-1.7677
X12.0217Y-1.7677
X12.0709Y-1.7677
T4
X5.9392Y-7.3215
X6.0713Y-7.3917
X10.4842Y-7.3917
X10.6163Y-7.3215
T5
X2.1419Y-5.5628
X4.0002Y-2.0264
X6.7561Y-7.3463
X9.823Y-7.302
X12.5553Y-2.0392
X14.1183Y-5.5776
T6
X3.0835Y-2.7862
X3.0839Y-2.55
X13.4733Y-2.7862
X13.4736Y-2.55
T0
M30
