%TF.GenerationSoftware,KiCad,Pcbnew,(6.99.0-4085-g6c752680d7)*%
%TF.CreationDate,2022-11-10T11:06:54+08:00*%
%TF.ProjectId,Rev2.4,52657632-2e34-42e6-9b69-6361645f7063,rev?*%
%TF.SameCoordinates,Original*%
%TF.FileFunction,Other,Comment*%
%FSLAX46Y46*%
G04 Gerber Fmt 4.6, Leading zero omitted, Abs format (unit mm)*
G04 Created by KiCad (PCBNEW (6.99.0-4085-g6c752680d7)) date 2022-11-10 11:06:54*
%MOMM*%
%LPD*%
G01*
G04 APERTURE LIST*
%ADD10C,0.150000*%
%ADD11C,0.500000*%
%ADD12C,0.400000*%
G04 APERTURE END LIST*
D10*
X323971906Y-167746428D02*
X324733811Y-167746428D01*
X325733810Y-168127380D02*
X325162382Y-168127380D01*
X325448096Y-168127380D02*
X325448096Y-167127380D01*
X325448096Y-167127380D02*
X325352858Y-167270238D01*
X325352858Y-167270238D02*
X325257620Y-167365476D01*
X325257620Y-167365476D02*
X325162382Y-167413095D01*
X326162382Y-168032142D02*
X326210001Y-168079761D01*
X326210001Y-168079761D02*
X326162382Y-168127380D01*
X326162382Y-168127380D02*
X326114763Y-168079761D01*
X326114763Y-168079761D02*
X326162382Y-168032142D01*
X326162382Y-168032142D02*
X326162382Y-168127380D01*
X327114762Y-167127380D02*
X326638572Y-167127380D01*
X326638572Y-167127380D02*
X326590953Y-167603571D01*
X326590953Y-167603571D02*
X326638572Y-167555952D01*
X326638572Y-167555952D02*
X326733810Y-167508333D01*
X326733810Y-167508333D02*
X326971905Y-167508333D01*
X326971905Y-167508333D02*
X327067143Y-167555952D01*
X327067143Y-167555952D02*
X327114762Y-167603571D01*
X327114762Y-167603571D02*
X327162381Y-167698809D01*
X327162381Y-167698809D02*
X327162381Y-167936904D01*
X327162381Y-167936904D02*
X327114762Y-168032142D01*
X327114762Y-168032142D02*
X327067143Y-168079761D01*
X327067143Y-168079761D02*
X326971905Y-168127380D01*
X326971905Y-168127380D02*
X326733810Y-168127380D01*
X326733810Y-168127380D02*
X326638572Y-168079761D01*
X326638572Y-168079761D02*
X326590953Y-168032142D01*
X327638572Y-168079761D02*
X327638572Y-168127380D01*
X327638572Y-168127380D02*
X327590953Y-168222619D01*
X327590953Y-168222619D02*
X327543334Y-168270238D01*
X328810000Y-167555952D02*
X328714762Y-167508333D01*
X328714762Y-167508333D02*
X328667143Y-167460714D01*
X328667143Y-167460714D02*
X328619524Y-167365476D01*
X328619524Y-167365476D02*
X328619524Y-167317857D01*
X328619524Y-167317857D02*
X328667143Y-167222619D01*
X328667143Y-167222619D02*
X328714762Y-167175000D01*
X328714762Y-167175000D02*
X328810000Y-167127380D01*
X328810000Y-167127380D02*
X329000476Y-167127380D01*
X329000476Y-167127380D02*
X329095714Y-167175000D01*
X329095714Y-167175000D02*
X329143333Y-167222619D01*
X329143333Y-167222619D02*
X329190952Y-167317857D01*
X329190952Y-167317857D02*
X329190952Y-167365476D01*
X329190952Y-167365476D02*
X329143333Y-167460714D01*
X329143333Y-167460714D02*
X329095714Y-167508333D01*
X329095714Y-167508333D02*
X329000476Y-167555952D01*
X329000476Y-167555952D02*
X328810000Y-167555952D01*
X328810000Y-167555952D02*
X328714762Y-167603571D01*
X328714762Y-167603571D02*
X328667143Y-167651190D01*
X328667143Y-167651190D02*
X328619524Y-167746428D01*
X328619524Y-167746428D02*
X328619524Y-167936904D01*
X328619524Y-167936904D02*
X328667143Y-168032142D01*
X328667143Y-168032142D02*
X328714762Y-168079761D01*
X328714762Y-168079761D02*
X328810000Y-168127380D01*
X328810000Y-168127380D02*
X329000476Y-168127380D01*
X329000476Y-168127380D02*
X329095714Y-168079761D01*
X329095714Y-168079761D02*
X329143333Y-168032142D01*
X329143333Y-168032142D02*
X329190952Y-167936904D01*
X329190952Y-167936904D02*
X329190952Y-167746428D01*
X329190952Y-167746428D02*
X329143333Y-167651190D01*
X329143333Y-167651190D02*
X329095714Y-167603571D01*
X329095714Y-167603571D02*
X329000476Y-167555952D01*
X329619524Y-168032142D02*
X329667143Y-168079761D01*
X329667143Y-168079761D02*
X329619524Y-168127380D01*
X329619524Y-168127380D02*
X329571905Y-168079761D01*
X329571905Y-168079761D02*
X329619524Y-168032142D01*
X329619524Y-168032142D02*
X329619524Y-168127380D01*
X330143333Y-168079761D02*
X330143333Y-168127380D01*
X330143333Y-168127380D02*
X330095714Y-168222619D01*
X330095714Y-168222619D02*
X330048095Y-168270238D01*
X331048094Y-167127380D02*
X330571904Y-167127380D01*
X330571904Y-167127380D02*
X330524285Y-167603571D01*
X330524285Y-167603571D02*
X330571904Y-167555952D01*
X330571904Y-167555952D02*
X330667142Y-167508333D01*
X330667142Y-167508333D02*
X330905237Y-167508333D01*
X330905237Y-167508333D02*
X331000475Y-167555952D01*
X331000475Y-167555952D02*
X331048094Y-167603571D01*
X331048094Y-167603571D02*
X331095713Y-167698809D01*
X331095713Y-167698809D02*
X331095713Y-167936904D01*
X331095713Y-167936904D02*
X331048094Y-168032142D01*
X331048094Y-168032142D02*
X331000475Y-168079761D01*
X331000475Y-168079761D02*
X330905237Y-168127380D01*
X330905237Y-168127380D02*
X330667142Y-168127380D01*
X330667142Y-168127380D02*
X330571904Y-168079761D01*
X330571904Y-168079761D02*
X330524285Y-168032142D01*
X289442857Y-42800714D02*
X289442857Y-43467380D01*
X289204762Y-42419761D02*
X288966667Y-43134047D01*
X288966667Y-43134047D02*
X289585714Y-43134047D01*
X290442857Y-42467380D02*
X289966667Y-42467380D01*
X289966667Y-42467380D02*
X289919048Y-42943571D01*
X289919048Y-42943571D02*
X289966667Y-42895952D01*
X289966667Y-42895952D02*
X290061905Y-42848333D01*
X290061905Y-42848333D02*
X290300000Y-42848333D01*
X290300000Y-42848333D02*
X290395238Y-42895952D01*
X290395238Y-42895952D02*
X290442857Y-42943571D01*
X290442857Y-42943571D02*
X290490476Y-43038809D01*
X290490476Y-43038809D02*
X290490476Y-43276904D01*
X290490476Y-43276904D02*
X290442857Y-43372142D01*
X290442857Y-43372142D02*
X290395238Y-43419761D01*
X290395238Y-43419761D02*
X290300000Y-43467380D01*
X290300000Y-43467380D02*
X290061905Y-43467380D01*
X290061905Y-43467380D02*
X289966667Y-43419761D01*
X289966667Y-43419761D02*
X289919048Y-43372142D01*
X290966667Y-43419761D02*
X290966667Y-43467380D01*
X290966667Y-43467380D02*
X290919048Y-43562619D01*
X290919048Y-43562619D02*
X290871429Y-43610238D01*
X291995238Y-43086428D02*
X292757143Y-43086428D01*
X293233333Y-43372142D02*
X293280952Y-43419761D01*
X293280952Y-43419761D02*
X293233333Y-43467380D01*
X293233333Y-43467380D02*
X293185714Y-43419761D01*
X293185714Y-43419761D02*
X293233333Y-43372142D01*
X293233333Y-43372142D02*
X293233333Y-43467380D01*
X293852380Y-42895952D02*
X293757142Y-42848333D01*
X293757142Y-42848333D02*
X293709523Y-42800714D01*
X293709523Y-42800714D02*
X293661904Y-42705476D01*
X293661904Y-42705476D02*
X293661904Y-42657857D01*
X293661904Y-42657857D02*
X293709523Y-42562619D01*
X293709523Y-42562619D02*
X293757142Y-42515000D01*
X293757142Y-42515000D02*
X293852380Y-42467380D01*
X293852380Y-42467380D02*
X294042856Y-42467380D01*
X294042856Y-42467380D02*
X294138094Y-42515000D01*
X294138094Y-42515000D02*
X294185713Y-42562619D01*
X294185713Y-42562619D02*
X294233332Y-42657857D01*
X294233332Y-42657857D02*
X294233332Y-42705476D01*
X294233332Y-42705476D02*
X294185713Y-42800714D01*
X294185713Y-42800714D02*
X294138094Y-42848333D01*
X294138094Y-42848333D02*
X294042856Y-42895952D01*
X294042856Y-42895952D02*
X293852380Y-42895952D01*
X293852380Y-42895952D02*
X293757142Y-42943571D01*
X293757142Y-42943571D02*
X293709523Y-42991190D01*
X293709523Y-42991190D02*
X293661904Y-43086428D01*
X293661904Y-43086428D02*
X293661904Y-43276904D01*
X293661904Y-43276904D02*
X293709523Y-43372142D01*
X293709523Y-43372142D02*
X293757142Y-43419761D01*
X293757142Y-43419761D02*
X293852380Y-43467380D01*
X293852380Y-43467380D02*
X294042856Y-43467380D01*
X294042856Y-43467380D02*
X294138094Y-43419761D01*
X294138094Y-43419761D02*
X294185713Y-43372142D01*
X294185713Y-43372142D02*
X294233332Y-43276904D01*
X294233332Y-43276904D02*
X294233332Y-43086428D01*
X294233332Y-43086428D02*
X294185713Y-42991190D01*
X294185713Y-42991190D02*
X294138094Y-42943571D01*
X294138094Y-42943571D02*
X294042856Y-42895952D01*
X213584286Y-122087380D02*
X213108096Y-122087380D01*
X213108096Y-122087380D02*
X213060477Y-122563571D01*
X213060477Y-122563571D02*
X213108096Y-122515952D01*
X213108096Y-122515952D02*
X213203334Y-122468333D01*
X213203334Y-122468333D02*
X213441429Y-122468333D01*
X213441429Y-122468333D02*
X213536667Y-122515952D01*
X213536667Y-122515952D02*
X213584286Y-122563571D01*
X213584286Y-122563571D02*
X213631905Y-122658809D01*
X213631905Y-122658809D02*
X213631905Y-122896904D01*
X213631905Y-122896904D02*
X213584286Y-122992142D01*
X213584286Y-122992142D02*
X213536667Y-123039761D01*
X213536667Y-123039761D02*
X213441429Y-123087380D01*
X213441429Y-123087380D02*
X213203334Y-123087380D01*
X213203334Y-123087380D02*
X213108096Y-123039761D01*
X213108096Y-123039761D02*
X213060477Y-122992142D01*
X214060477Y-122992142D02*
X214108096Y-123039761D01*
X214108096Y-123039761D02*
X214060477Y-123087380D01*
X214060477Y-123087380D02*
X214012858Y-123039761D01*
X214012858Y-123039761D02*
X214060477Y-122992142D01*
X214060477Y-122992142D02*
X214060477Y-123087380D01*
X215012857Y-122087380D02*
X214536667Y-122087380D01*
X214536667Y-122087380D02*
X214489048Y-122563571D01*
X214489048Y-122563571D02*
X214536667Y-122515952D01*
X214536667Y-122515952D02*
X214631905Y-122468333D01*
X214631905Y-122468333D02*
X214870000Y-122468333D01*
X214870000Y-122468333D02*
X214965238Y-122515952D01*
X214965238Y-122515952D02*
X215012857Y-122563571D01*
X215012857Y-122563571D02*
X215060476Y-122658809D01*
X215060476Y-122658809D02*
X215060476Y-122896904D01*
X215060476Y-122896904D02*
X215012857Y-122992142D01*
X215012857Y-122992142D02*
X214965238Y-123039761D01*
X214965238Y-123039761D02*
X214870000Y-123087380D01*
X214870000Y-123087380D02*
X214631905Y-123087380D01*
X214631905Y-123087380D02*
X214536667Y-123039761D01*
X214536667Y-123039761D02*
X214489048Y-122992142D01*
X215536667Y-123039761D02*
X215536667Y-123087380D01*
X215536667Y-123087380D02*
X215489048Y-123182619D01*
X215489048Y-123182619D02*
X215441429Y-123230238D01*
X216565238Y-122706428D02*
X217327143Y-122706428D01*
X218327142Y-123087380D02*
X217755714Y-123087380D01*
X218041428Y-123087380D02*
X218041428Y-122087380D01*
X218041428Y-122087380D02*
X217946190Y-122230238D01*
X217946190Y-122230238D02*
X217850952Y-122325476D01*
X217850952Y-122325476D02*
X217755714Y-122373095D01*
X219184285Y-122420714D02*
X219184285Y-123087380D01*
X218946190Y-122039761D02*
X218708095Y-122754047D01*
X218708095Y-122754047D02*
X219327142Y-122754047D01*
X214525238Y-146737380D02*
X213953810Y-146737380D01*
X214239524Y-146737380D02*
X214239524Y-145737380D01*
X214239524Y-145737380D02*
X214144286Y-145880238D01*
X214144286Y-145880238D02*
X214049048Y-145975476D01*
X214049048Y-145975476D02*
X213953810Y-146023095D01*
X214858572Y-145737380D02*
X215477619Y-145737380D01*
X215477619Y-145737380D02*
X215144286Y-146118333D01*
X215144286Y-146118333D02*
X215287143Y-146118333D01*
X215287143Y-146118333D02*
X215382381Y-146165952D01*
X215382381Y-146165952D02*
X215430000Y-146213571D01*
X215430000Y-146213571D02*
X215477619Y-146308809D01*
X215477619Y-146308809D02*
X215477619Y-146546904D01*
X215477619Y-146546904D02*
X215430000Y-146642142D01*
X215430000Y-146642142D02*
X215382381Y-146689761D01*
X215382381Y-146689761D02*
X215287143Y-146737380D01*
X215287143Y-146737380D02*
X215001429Y-146737380D01*
X215001429Y-146737380D02*
X214906191Y-146689761D01*
X214906191Y-146689761D02*
X214858572Y-146642142D01*
X215953810Y-146689761D02*
X215953810Y-146737380D01*
X215953810Y-146737380D02*
X215906191Y-146832619D01*
X215906191Y-146832619D02*
X215858572Y-146880238D01*
X217410952Y-146070714D02*
X217410952Y-146737380D01*
X217172857Y-145689761D02*
X216934762Y-146404047D01*
X216934762Y-146404047D02*
X217553809Y-146404047D01*
X325890761Y-141383378D02*
X325557428Y-140907188D01*
X325319333Y-141383378D02*
X325319333Y-140383378D01*
X325319333Y-140383378D02*
X325700285Y-140383378D01*
X325700285Y-140383378D02*
X325795523Y-140430998D01*
X325795523Y-140430998D02*
X325843142Y-140478617D01*
X325843142Y-140478617D02*
X325890761Y-140573855D01*
X325890761Y-140573855D02*
X325890761Y-140716712D01*
X325890761Y-140716712D02*
X325843142Y-140811950D01*
X325843142Y-140811950D02*
X325795523Y-140859569D01*
X325795523Y-140859569D02*
X325700285Y-140907188D01*
X325700285Y-140907188D02*
X325319333Y-140907188D01*
X326319333Y-141383378D02*
X326319333Y-140383378D01*
X327319332Y-140430998D02*
X327224094Y-140383378D01*
X327224094Y-140383378D02*
X327081237Y-140383378D01*
X327081237Y-140383378D02*
X326938380Y-140430998D01*
X326938380Y-140430998D02*
X326843142Y-140526236D01*
X326843142Y-140526236D02*
X326795523Y-140621474D01*
X326795523Y-140621474D02*
X326747904Y-140811950D01*
X326747904Y-140811950D02*
X326747904Y-140954807D01*
X326747904Y-140954807D02*
X326795523Y-141145283D01*
X326795523Y-141145283D02*
X326843142Y-141240521D01*
X326843142Y-141240521D02*
X326938380Y-141335759D01*
X326938380Y-141335759D02*
X327081237Y-141383378D01*
X327081237Y-141383378D02*
X327176475Y-141383378D01*
X327176475Y-141383378D02*
X327319332Y-141335759D01*
X327319332Y-141335759D02*
X327366951Y-141288140D01*
X327366951Y-141288140D02*
X327366951Y-140954807D01*
X327366951Y-140954807D02*
X327176475Y-140954807D01*
X327795523Y-141383378D02*
X327795523Y-140383378D01*
X327795523Y-140859569D02*
X328366951Y-140859569D01*
X328366951Y-141383378D02*
X328366951Y-140383378D01*
X328700285Y-140383378D02*
X329271713Y-140383378D01*
X328985999Y-141383378D02*
X328985999Y-140383378D01*
X78366906Y-162958180D02*
X79128811Y-162958180D01*
X80128810Y-163339132D02*
X79557382Y-163339132D01*
X79843096Y-163339132D02*
X79843096Y-162339132D01*
X79843096Y-162339132D02*
X79747858Y-162481990D01*
X79747858Y-162481990D02*
X79652620Y-162577228D01*
X79652620Y-162577228D02*
X79557382Y-162624847D01*
X80557382Y-163243894D02*
X80605001Y-163291513D01*
X80605001Y-163291513D02*
X80557382Y-163339132D01*
X80557382Y-163339132D02*
X80509763Y-163291513D01*
X80509763Y-163291513D02*
X80557382Y-163243894D01*
X80557382Y-163243894D02*
X80557382Y-163339132D01*
X81509762Y-162339132D02*
X81033572Y-162339132D01*
X81033572Y-162339132D02*
X80985953Y-162815323D01*
X80985953Y-162815323D02*
X81033572Y-162767704D01*
X81033572Y-162767704D02*
X81128810Y-162720085D01*
X81128810Y-162720085D02*
X81366905Y-162720085D01*
X81366905Y-162720085D02*
X81462143Y-162767704D01*
X81462143Y-162767704D02*
X81509762Y-162815323D01*
X81509762Y-162815323D02*
X81557381Y-162910561D01*
X81557381Y-162910561D02*
X81557381Y-163148656D01*
X81557381Y-163148656D02*
X81509762Y-163243894D01*
X81509762Y-163243894D02*
X81462143Y-163291513D01*
X81462143Y-163291513D02*
X81366905Y-163339132D01*
X81366905Y-163339132D02*
X81128810Y-163339132D01*
X81128810Y-163339132D02*
X81033572Y-163291513D01*
X81033572Y-163291513D02*
X80985953Y-163243894D01*
X82033572Y-163291513D02*
X82033572Y-163339132D01*
X82033572Y-163339132D02*
X81985953Y-163434371D01*
X81985953Y-163434371D02*
X81938334Y-163481990D01*
X83205000Y-162767704D02*
X83109762Y-162720085D01*
X83109762Y-162720085D02*
X83062143Y-162672466D01*
X83062143Y-162672466D02*
X83014524Y-162577228D01*
X83014524Y-162577228D02*
X83014524Y-162529609D01*
X83014524Y-162529609D02*
X83062143Y-162434371D01*
X83062143Y-162434371D02*
X83109762Y-162386752D01*
X83109762Y-162386752D02*
X83205000Y-162339132D01*
X83205000Y-162339132D02*
X83395476Y-162339132D01*
X83395476Y-162339132D02*
X83490714Y-162386752D01*
X83490714Y-162386752D02*
X83538333Y-162434371D01*
X83538333Y-162434371D02*
X83585952Y-162529609D01*
X83585952Y-162529609D02*
X83585952Y-162577228D01*
X83585952Y-162577228D02*
X83538333Y-162672466D01*
X83538333Y-162672466D02*
X83490714Y-162720085D01*
X83490714Y-162720085D02*
X83395476Y-162767704D01*
X83395476Y-162767704D02*
X83205000Y-162767704D01*
X83205000Y-162767704D02*
X83109762Y-162815323D01*
X83109762Y-162815323D02*
X83062143Y-162862942D01*
X83062143Y-162862942D02*
X83014524Y-162958180D01*
X83014524Y-162958180D02*
X83014524Y-163148656D01*
X83014524Y-163148656D02*
X83062143Y-163243894D01*
X83062143Y-163243894D02*
X83109762Y-163291513D01*
X83109762Y-163291513D02*
X83205000Y-163339132D01*
X83205000Y-163339132D02*
X83395476Y-163339132D01*
X83395476Y-163339132D02*
X83490714Y-163291513D01*
X83490714Y-163291513D02*
X83538333Y-163243894D01*
X83538333Y-163243894D02*
X83585952Y-163148656D01*
X83585952Y-163148656D02*
X83585952Y-162958180D01*
X83585952Y-162958180D02*
X83538333Y-162862942D01*
X83538333Y-162862942D02*
X83490714Y-162815323D01*
X83490714Y-162815323D02*
X83395476Y-162767704D01*
X84014524Y-163243894D02*
X84062143Y-163291513D01*
X84062143Y-163291513D02*
X84014524Y-163339132D01*
X84014524Y-163339132D02*
X83966905Y-163291513D01*
X83966905Y-163291513D02*
X84014524Y-163243894D01*
X84014524Y-163243894D02*
X84014524Y-163339132D01*
X84538333Y-163291513D02*
X84538333Y-163339132D01*
X84538333Y-163339132D02*
X84490714Y-163434371D01*
X84490714Y-163434371D02*
X84443095Y-163481990D01*
X85443094Y-162339132D02*
X84966904Y-162339132D01*
X84966904Y-162339132D02*
X84919285Y-162815323D01*
X84919285Y-162815323D02*
X84966904Y-162767704D01*
X84966904Y-162767704D02*
X85062142Y-162720085D01*
X85062142Y-162720085D02*
X85300237Y-162720085D01*
X85300237Y-162720085D02*
X85395475Y-162767704D01*
X85395475Y-162767704D02*
X85443094Y-162815323D01*
X85443094Y-162815323D02*
X85490713Y-162910561D01*
X85490713Y-162910561D02*
X85490713Y-163148656D01*
X85490713Y-163148656D02*
X85443094Y-163243894D01*
X85443094Y-163243894D02*
X85395475Y-163291513D01*
X85395475Y-163291513D02*
X85300237Y-163339132D01*
X85300237Y-163339132D02*
X85062142Y-163339132D01*
X85062142Y-163339132D02*
X84966904Y-163291513D01*
X84966904Y-163291513D02*
X84919285Y-163243894D01*
X355969523Y-153427380D02*
X355398095Y-153427380D01*
X355683809Y-153427380D02*
X355683809Y-152427380D01*
X355683809Y-152427380D02*
X355588571Y-152570238D01*
X355588571Y-152570238D02*
X355493333Y-152665476D01*
X355493333Y-152665476D02*
X355398095Y-152713095D01*
X356350476Y-152522619D02*
X356398095Y-152475000D01*
X356398095Y-152475000D02*
X356493333Y-152427380D01*
X356493333Y-152427380D02*
X356731428Y-152427380D01*
X356731428Y-152427380D02*
X356826666Y-152475000D01*
X356826666Y-152475000D02*
X356874285Y-152522619D01*
X356874285Y-152522619D02*
X356921904Y-152617857D01*
X356921904Y-152617857D02*
X356921904Y-152713095D01*
X356921904Y-152713095D02*
X356874285Y-152855952D01*
X356874285Y-152855952D02*
X356302857Y-153427380D01*
X356302857Y-153427380D02*
X356921904Y-153427380D01*
X307448095Y-175872619D02*
X307495714Y-175825000D01*
X307495714Y-175825000D02*
X307590952Y-175777380D01*
X307590952Y-175777380D02*
X307829047Y-175777380D01*
X307829047Y-175777380D02*
X307924285Y-175825000D01*
X307924285Y-175825000D02*
X307971904Y-175872619D01*
X307971904Y-175872619D02*
X308019523Y-175967857D01*
X308019523Y-175967857D02*
X308019523Y-176063095D01*
X308019523Y-176063095D02*
X307971904Y-176205952D01*
X307971904Y-176205952D02*
X307400476Y-176777380D01*
X307400476Y-176777380D02*
X308019523Y-176777380D01*
X308876666Y-175777380D02*
X308686190Y-175777380D01*
X308686190Y-175777380D02*
X308590952Y-175825000D01*
X308590952Y-175825000D02*
X308543333Y-175872619D01*
X308543333Y-175872619D02*
X308448095Y-176015476D01*
X308448095Y-176015476D02*
X308400476Y-176205952D01*
X308400476Y-176205952D02*
X308400476Y-176586904D01*
X308400476Y-176586904D02*
X308448095Y-176682142D01*
X308448095Y-176682142D02*
X308495714Y-176729761D01*
X308495714Y-176729761D02*
X308590952Y-176777380D01*
X308590952Y-176777380D02*
X308781428Y-176777380D01*
X308781428Y-176777380D02*
X308876666Y-176729761D01*
X308876666Y-176729761D02*
X308924285Y-176682142D01*
X308924285Y-176682142D02*
X308971904Y-176586904D01*
X308971904Y-176586904D02*
X308971904Y-176348809D01*
X308971904Y-176348809D02*
X308924285Y-176253571D01*
X308924285Y-176253571D02*
X308876666Y-176205952D01*
X308876666Y-176205952D02*
X308781428Y-176158333D01*
X308781428Y-176158333D02*
X308590952Y-176158333D01*
X308590952Y-176158333D02*
X308495714Y-176205952D01*
X308495714Y-176205952D02*
X308448095Y-176253571D01*
X308448095Y-176253571D02*
X308400476Y-176348809D01*
%TO.C,J27*%
X260456641Y-155347623D02*
X260504260Y-155395242D01*
X260504260Y-155395242D02*
X260551879Y-155538099D01*
X260551879Y-155538099D02*
X260551879Y-155633337D01*
X260551879Y-155633337D02*
X260504260Y-155776194D01*
X260504260Y-155776194D02*
X260409022Y-155871432D01*
X260409022Y-155871432D02*
X260313784Y-155919051D01*
X260313784Y-155919051D02*
X260123308Y-155966670D01*
X260123308Y-155966670D02*
X259980451Y-155966670D01*
X259980451Y-155966670D02*
X259789975Y-155919051D01*
X259789975Y-155919051D02*
X259694737Y-155871432D01*
X259694737Y-155871432D02*
X259599499Y-155776194D01*
X259599499Y-155776194D02*
X259551879Y-155633337D01*
X259551879Y-155633337D02*
X259551879Y-155538099D01*
X259551879Y-155538099D02*
X259599499Y-155395242D01*
X259599499Y-155395242D02*
X259647118Y-155347623D01*
X259885213Y-154490480D02*
X260551879Y-154490480D01*
X259504260Y-154728575D02*
X260218546Y-154966670D01*
X260218546Y-154966670D02*
X260218546Y-154347623D01*
X259551879Y-154061908D02*
X259551879Y-153395242D01*
X259551879Y-153395242D02*
X260551879Y-153823813D01*
X260551879Y-152966670D02*
X260551879Y-152776194D01*
X260551879Y-152776194D02*
X260504260Y-152680956D01*
X260504260Y-152680956D02*
X260456641Y-152633337D01*
X260456641Y-152633337D02*
X260313784Y-152538099D01*
X260313784Y-152538099D02*
X260123308Y-152490480D01*
X260123308Y-152490480D02*
X259742356Y-152490480D01*
X259742356Y-152490480D02*
X259647118Y-152538099D01*
X259647118Y-152538099D02*
X259599499Y-152585718D01*
X259599499Y-152585718D02*
X259551879Y-152680956D01*
X259551879Y-152680956D02*
X259551879Y-152871432D01*
X259551879Y-152871432D02*
X259599499Y-152966670D01*
X259599499Y-152966670D02*
X259647118Y-153014289D01*
X259647118Y-153014289D02*
X259742356Y-153061908D01*
X259742356Y-153061908D02*
X259980451Y-153061908D01*
X259980451Y-153061908D02*
X260075689Y-153014289D01*
X260075689Y-153014289D02*
X260123308Y-152966670D01*
X260123308Y-152966670D02*
X260170927Y-152871432D01*
X260170927Y-152871432D02*
X260170927Y-152680956D01*
X260170927Y-152680956D02*
X260123308Y-152585718D01*
X260123308Y-152585718D02*
X260075689Y-152538099D01*
X260075689Y-152538099D02*
X259980451Y-152490480D01*
X259551879Y-152157146D02*
X259551879Y-151490480D01*
X259551879Y-151490480D02*
X260551879Y-151919051D01*
X259551879Y-150633337D02*
X259551879Y-151109527D01*
X259551879Y-151109527D02*
X260028070Y-151157146D01*
X260028070Y-151157146D02*
X259980451Y-151109527D01*
X259980451Y-151109527D02*
X259932832Y-151014289D01*
X259932832Y-151014289D02*
X259932832Y-150776194D01*
X259932832Y-150776194D02*
X259980451Y-150680956D01*
X259980451Y-150680956D02*
X260028070Y-150633337D01*
X260028070Y-150633337D02*
X260123308Y-150585718D01*
X260123308Y-150585718D02*
X260361403Y-150585718D01*
X260361403Y-150585718D02*
X260456641Y-150633337D01*
X260456641Y-150633337D02*
X260504260Y-150680956D01*
X260504260Y-150680956D02*
X260551879Y-150776194D01*
X260551879Y-150776194D02*
X260551879Y-151014289D01*
X260551879Y-151014289D02*
X260504260Y-151109527D01*
X260504260Y-151109527D02*
X260456641Y-151157146D01*
X259551879Y-149966670D02*
X259551879Y-149871432D01*
X259551879Y-149871432D02*
X259599499Y-149776194D01*
X259599499Y-149776194D02*
X259647118Y-149728575D01*
X259647118Y-149728575D02*
X259742356Y-149680956D01*
X259742356Y-149680956D02*
X259932832Y-149633337D01*
X259932832Y-149633337D02*
X260170927Y-149633337D01*
X260170927Y-149633337D02*
X260361403Y-149680956D01*
X260361403Y-149680956D02*
X260456641Y-149728575D01*
X260456641Y-149728575D02*
X260504260Y-149776194D01*
X260504260Y-149776194D02*
X260551879Y-149871432D01*
X260551879Y-149871432D02*
X260551879Y-149966670D01*
X260551879Y-149966670D02*
X260504260Y-150061908D01*
X260504260Y-150061908D02*
X260456641Y-150109527D01*
X260456641Y-150109527D02*
X260361403Y-150157146D01*
X260361403Y-150157146D02*
X260170927Y-150204765D01*
X260170927Y-150204765D02*
X259932832Y-150204765D01*
X259932832Y-150204765D02*
X259742356Y-150157146D01*
X259742356Y-150157146D02*
X259647118Y-150109527D01*
X259647118Y-150109527D02*
X259599499Y-150061908D01*
X259599499Y-150061908D02*
X259551879Y-149966670D01*
%TO.C,J15*%
X160512145Y-155345819D02*
X160559764Y-155393438D01*
X160559764Y-155393438D02*
X160607383Y-155536295D01*
X160607383Y-155536295D02*
X160607383Y-155631533D01*
X160607383Y-155631533D02*
X160559764Y-155774390D01*
X160559764Y-155774390D02*
X160464526Y-155869628D01*
X160464526Y-155869628D02*
X160369288Y-155917247D01*
X160369288Y-155917247D02*
X160178812Y-155964866D01*
X160178812Y-155964866D02*
X160035955Y-155964866D01*
X160035955Y-155964866D02*
X159845479Y-155917247D01*
X159845479Y-155917247D02*
X159750241Y-155869628D01*
X159750241Y-155869628D02*
X159655003Y-155774390D01*
X159655003Y-155774390D02*
X159607383Y-155631533D01*
X159607383Y-155631533D02*
X159607383Y-155536295D01*
X159607383Y-155536295D02*
X159655003Y-155393438D01*
X159655003Y-155393438D02*
X159702622Y-155345819D01*
X159940717Y-154488676D02*
X160607383Y-154488676D01*
X159559764Y-154726771D02*
X160274050Y-154964866D01*
X160274050Y-154964866D02*
X160274050Y-154345819D01*
X159607383Y-154060104D02*
X159607383Y-153393438D01*
X159607383Y-153393438D02*
X160607383Y-153822009D01*
X160607383Y-152964866D02*
X160607383Y-152774390D01*
X160607383Y-152774390D02*
X160559764Y-152679152D01*
X160559764Y-152679152D02*
X160512145Y-152631533D01*
X160512145Y-152631533D02*
X160369288Y-152536295D01*
X160369288Y-152536295D02*
X160178812Y-152488676D01*
X160178812Y-152488676D02*
X159797860Y-152488676D01*
X159797860Y-152488676D02*
X159702622Y-152536295D01*
X159702622Y-152536295D02*
X159655003Y-152583914D01*
X159655003Y-152583914D02*
X159607383Y-152679152D01*
X159607383Y-152679152D02*
X159607383Y-152869628D01*
X159607383Y-152869628D02*
X159655003Y-152964866D01*
X159655003Y-152964866D02*
X159702622Y-153012485D01*
X159702622Y-153012485D02*
X159797860Y-153060104D01*
X159797860Y-153060104D02*
X160035955Y-153060104D01*
X160035955Y-153060104D02*
X160131193Y-153012485D01*
X160131193Y-153012485D02*
X160178812Y-152964866D01*
X160178812Y-152964866D02*
X160226431Y-152869628D01*
X160226431Y-152869628D02*
X160226431Y-152679152D01*
X160226431Y-152679152D02*
X160178812Y-152583914D01*
X160178812Y-152583914D02*
X160131193Y-152536295D01*
X160131193Y-152536295D02*
X160035955Y-152488676D01*
X159607383Y-152155342D02*
X159607383Y-151488676D01*
X159607383Y-151488676D02*
X160607383Y-151917247D01*
X159607383Y-150631533D02*
X159607383Y-151107723D01*
X159607383Y-151107723D02*
X160083574Y-151155342D01*
X160083574Y-151155342D02*
X160035955Y-151107723D01*
X160035955Y-151107723D02*
X159988336Y-151012485D01*
X159988336Y-151012485D02*
X159988336Y-150774390D01*
X159988336Y-150774390D02*
X160035955Y-150679152D01*
X160035955Y-150679152D02*
X160083574Y-150631533D01*
X160083574Y-150631533D02*
X160178812Y-150583914D01*
X160178812Y-150583914D02*
X160416907Y-150583914D01*
X160416907Y-150583914D02*
X160512145Y-150631533D01*
X160512145Y-150631533D02*
X160559764Y-150679152D01*
X160559764Y-150679152D02*
X160607383Y-150774390D01*
X160607383Y-150774390D02*
X160607383Y-151012485D01*
X160607383Y-151012485D02*
X160559764Y-151107723D01*
X160559764Y-151107723D02*
X160512145Y-151155342D01*
X159607383Y-149964866D02*
X159607383Y-149869628D01*
X159607383Y-149869628D02*
X159655003Y-149774390D01*
X159655003Y-149774390D02*
X159702622Y-149726771D01*
X159702622Y-149726771D02*
X159797860Y-149679152D01*
X159797860Y-149679152D02*
X159988336Y-149631533D01*
X159988336Y-149631533D02*
X160226431Y-149631533D01*
X160226431Y-149631533D02*
X160416907Y-149679152D01*
X160416907Y-149679152D02*
X160512145Y-149726771D01*
X160512145Y-149726771D02*
X160559764Y-149774390D01*
X160559764Y-149774390D02*
X160607383Y-149869628D01*
X160607383Y-149869628D02*
X160607383Y-149964866D01*
X160607383Y-149964866D02*
X160559764Y-150060104D01*
X160559764Y-150060104D02*
X160512145Y-150107723D01*
X160512145Y-150107723D02*
X160416907Y-150155342D01*
X160416907Y-150155342D02*
X160226431Y-150202961D01*
X160226431Y-150202961D02*
X159988336Y-150202961D01*
X159988336Y-150202961D02*
X159797860Y-150155342D01*
X159797860Y-150155342D02*
X159702622Y-150107723D01*
X159702622Y-150107723D02*
X159655003Y-150060104D01*
X159655003Y-150060104D02*
X159607383Y-149964866D01*
%TO.C,S1*%
X148909574Y-181502052D02*
X149379045Y-180619105D01*
X149414115Y-181770322D02*
X149303978Y-181064578D01*
X149883587Y-180887374D02*
X149110776Y-181123646D01*
X150255018Y-182217438D02*
X149750476Y-181949168D01*
X150002747Y-182083303D02*
X150472218Y-181200355D01*
X150472218Y-181200355D02*
X150321061Y-181281779D01*
X150321061Y-181281779D02*
X150192259Y-181321158D01*
X150192259Y-181321158D02*
X150085813Y-181318491D01*
X150812270Y-182082279D02*
X151484992Y-182439971D01*
X152189093Y-183245804D02*
X151684552Y-182977534D01*
X151936822Y-183111669D02*
X152406294Y-182228721D01*
X152406294Y-182228721D02*
X152255136Y-182310145D01*
X152255136Y-182310145D02*
X152126334Y-182349524D01*
X152126334Y-182349524D02*
X152019888Y-182346857D01*
X153457422Y-182787616D02*
X153036971Y-182564058D01*
X153036971Y-182564058D02*
X152771368Y-182962154D01*
X152771368Y-182962154D02*
X152835769Y-182942464D01*
X152835769Y-182942464D02*
X152942215Y-182945131D01*
X152942215Y-182945131D02*
X153152440Y-183056910D01*
X153152440Y-183056910D02*
X153214175Y-183143666D01*
X153214175Y-183143666D02*
X153233864Y-183208067D01*
X153233864Y-183208067D02*
X153231198Y-183314513D01*
X153231198Y-183314513D02*
X153119419Y-183524739D01*
X153119419Y-183524739D02*
X153032662Y-183586474D01*
X153032662Y-183586474D02*
X152968261Y-183606163D01*
X152968261Y-183606163D02*
X152861815Y-183603496D01*
X152861815Y-183603496D02*
X152651589Y-183491717D01*
X152651589Y-183491717D02*
X152589855Y-183404961D01*
X152589855Y-183404961D02*
X152570166Y-183340560D01*
X154046054Y-183100597D02*
X154130144Y-183145309D01*
X154130144Y-183145309D02*
X154191879Y-183232065D01*
X154191879Y-183232065D02*
X154211568Y-183296466D01*
X154211568Y-183296466D02*
X154208901Y-183402912D01*
X154208901Y-183402912D02*
X154161523Y-183593449D01*
X154161523Y-183593449D02*
X154049744Y-183803674D01*
X154049744Y-183803674D02*
X153918276Y-183949499D01*
X153918276Y-183949499D02*
X153831519Y-184011234D01*
X153831519Y-184011234D02*
X153767119Y-184030923D01*
X153767119Y-184030923D02*
X153660673Y-184028256D01*
X153660673Y-184028256D02*
X153576582Y-183983545D01*
X153576582Y-183983545D02*
X153514848Y-183896788D01*
X153514848Y-183896788D02*
X153495158Y-183832387D01*
X153495158Y-183832387D02*
X153497825Y-183725941D01*
X153497825Y-183725941D02*
X153545203Y-183535405D01*
X153545203Y-183535405D02*
X153656982Y-183325179D01*
X153656982Y-183325179D02*
X153788450Y-183179355D01*
X153788450Y-183179355D02*
X153875207Y-183117620D01*
X153875207Y-183117620D02*
X153939608Y-183097931D01*
X153939608Y-183097931D02*
X154046054Y-183100597D01*
X154643709Y-183903763D02*
X154581975Y-183817007D01*
X154581975Y-183817007D02*
X154562285Y-183752606D01*
X154562285Y-183752606D02*
X154564952Y-183646160D01*
X154564952Y-183646160D02*
X154587308Y-183604115D01*
X154587308Y-183604115D02*
X154674064Y-183542380D01*
X154674064Y-183542380D02*
X154738465Y-183522691D01*
X154738465Y-183522691D02*
X154844911Y-183525357D01*
X154844911Y-183525357D02*
X155013092Y-183614780D01*
X155013092Y-183614780D02*
X155074826Y-183701537D01*
X155074826Y-183701537D02*
X155094515Y-183765938D01*
X155094515Y-183765938D02*
X155091849Y-183872384D01*
X155091849Y-183872384D02*
X155069493Y-183914429D01*
X155069493Y-183914429D02*
X154982737Y-183976164D01*
X154982737Y-183976164D02*
X154918336Y-183995853D01*
X154918336Y-183995853D02*
X154811890Y-183993186D01*
X154811890Y-183993186D02*
X154643709Y-183903763D01*
X154643709Y-183903763D02*
X154537263Y-183901097D01*
X154537263Y-183901097D02*
X154472862Y-183920786D01*
X154472862Y-183920786D02*
X154386105Y-183982521D01*
X154386105Y-183982521D02*
X154296682Y-184150701D01*
X154296682Y-184150701D02*
X154294016Y-184257147D01*
X154294016Y-184257147D02*
X154313705Y-184321548D01*
X154313705Y-184321548D02*
X154375440Y-184408305D01*
X154375440Y-184408305D02*
X154543620Y-184497728D01*
X154543620Y-184497728D02*
X154650066Y-184500394D01*
X154650066Y-184500394D02*
X154714467Y-184480705D01*
X154714467Y-184480705D02*
X154801224Y-184418971D01*
X154801224Y-184418971D02*
X154890647Y-184250790D01*
X154890647Y-184250790D02*
X154893313Y-184144344D01*
X154893313Y-184144344D02*
X154873624Y-184079943D01*
X154873624Y-184079943D02*
X154811890Y-183993186D01*
X155070517Y-184723952D02*
X155174297Y-184833065D01*
X155174297Y-184833065D02*
X155384523Y-184944844D01*
X155384523Y-184944844D02*
X155490969Y-184947510D01*
X155490969Y-184947510D02*
X155555370Y-184927821D01*
X155555370Y-184927821D02*
X155642126Y-184866086D01*
X155642126Y-184866086D02*
X155686838Y-184781996D01*
X155686838Y-184781996D02*
X155689504Y-184675550D01*
X155689504Y-184675550D02*
X155669815Y-184611149D01*
X155669815Y-184611149D02*
X155608081Y-184524393D01*
X155608081Y-184524393D02*
X155462256Y-184392924D01*
X155462256Y-184392924D02*
X155400521Y-184306168D01*
X155400521Y-184306168D02*
X155380832Y-184241767D01*
X155380832Y-184241767D02*
X155383498Y-184135321D01*
X155383498Y-184135321D02*
X155428210Y-184051230D01*
X155428210Y-184051230D02*
X155514967Y-183989496D01*
X155514967Y-183989496D02*
X155579368Y-183969807D01*
X155579368Y-183969807D02*
X155685814Y-183972473D01*
X155685814Y-183972473D02*
X155896039Y-184084252D01*
X155896039Y-184084252D02*
X155999819Y-184193364D01*
X156023199Y-184960843D02*
X156443650Y-185184400D01*
X155804974Y-185168402D02*
X156568761Y-184441945D01*
X156568761Y-184441945D02*
X156393606Y-185481383D01*
X156866768Y-185301512D02*
X157539490Y-185659205D01*
X158418747Y-185425599D02*
X158502837Y-185470311D01*
X158502837Y-185470311D02*
X158564571Y-185557068D01*
X158564571Y-185557068D02*
X158584261Y-185621468D01*
X158584261Y-185621468D02*
X158581594Y-185727914D01*
X158581594Y-185727914D02*
X158534216Y-185918451D01*
X158534216Y-185918451D02*
X158422437Y-186128676D01*
X158422437Y-186128676D02*
X158290969Y-186274501D01*
X158290969Y-186274501D02*
X158204212Y-186336236D01*
X158204212Y-186336236D02*
X158139811Y-186355925D01*
X158139811Y-186355925D02*
X158033365Y-186353258D01*
X158033365Y-186353258D02*
X157949275Y-186308547D01*
X157949275Y-186308547D02*
X157887541Y-186221790D01*
X157887541Y-186221790D02*
X157867851Y-186157389D01*
X157867851Y-186157389D02*
X157870518Y-186050943D01*
X157870518Y-186050943D02*
X157917896Y-185860407D01*
X157917896Y-185860407D02*
X158029675Y-185650181D01*
X158029675Y-185650181D02*
X158161143Y-185504357D01*
X158161143Y-185504357D02*
X158247900Y-185442622D01*
X158247900Y-185442622D02*
X158312301Y-185422933D01*
X158312301Y-185422933D02*
X158418747Y-185425599D01*
X159007378Y-185738580D02*
X159553965Y-186029206D01*
X159553965Y-186029206D02*
X159080803Y-186209076D01*
X159080803Y-186209076D02*
X159206938Y-186276143D01*
X159206938Y-186276143D02*
X159268673Y-186362900D01*
X159268673Y-186362900D02*
X159288362Y-186427301D01*
X159288362Y-186427301D02*
X159285696Y-186533747D01*
X159285696Y-186533747D02*
X159173917Y-186743973D01*
X159173917Y-186743973D02*
X159087160Y-186805707D01*
X159087160Y-186805707D02*
X159022759Y-186825396D01*
X159022759Y-186825396D02*
X158916313Y-186822730D01*
X158916313Y-186822730D02*
X158664042Y-186688595D01*
X158664042Y-186688595D02*
X158602308Y-186601839D01*
X158602308Y-186601839D02*
X158582618Y-186537438D01*
%TO.C,S2*%
X261511397Y-186866324D02*
X261041926Y-185983376D01*
X262015939Y-186598054D02*
X261369263Y-186294715D01*
X261546467Y-185715107D02*
X261310195Y-186487918D01*
X262856841Y-186150939D02*
X262352300Y-186419208D01*
X262604571Y-186285073D02*
X262135099Y-185402126D01*
X262135099Y-185402126D02*
X262118076Y-185572973D01*
X262118076Y-185572973D02*
X262078698Y-185701775D01*
X262078698Y-185701775D02*
X262016963Y-185788531D01*
X263056401Y-185613376D02*
X263729123Y-185255683D01*
X264790917Y-185122573D02*
X264286375Y-185390842D01*
X264538646Y-185256707D02*
X264069175Y-184373760D01*
X264069175Y-184373760D02*
X264052152Y-184544607D01*
X264052152Y-184544607D02*
X264012773Y-184673408D01*
X264012773Y-184673408D02*
X263951039Y-184760165D01*
X265120303Y-183814865D02*
X264699852Y-184038423D01*
X264699852Y-184038423D02*
X264881364Y-184481230D01*
X264881364Y-184481230D02*
X264901054Y-184416829D01*
X264901054Y-184416829D02*
X264962788Y-184330072D01*
X264962788Y-184330072D02*
X265173014Y-184218293D01*
X265173014Y-184218293D02*
X265279460Y-184215627D01*
X265279460Y-184215627D02*
X265343861Y-184235316D01*
X265343861Y-184235316D02*
X265430617Y-184297051D01*
X265430617Y-184297051D02*
X265542396Y-184507276D01*
X265542396Y-184507276D02*
X265545063Y-184613722D01*
X265545063Y-184613722D02*
X265525373Y-184678123D01*
X265525373Y-184678123D02*
X265463639Y-184764880D01*
X265463639Y-184764880D02*
X265253413Y-184876659D01*
X265253413Y-184876659D02*
X265146967Y-184879325D01*
X265146967Y-184879325D02*
X265082566Y-184859636D01*
X265708935Y-183501884D02*
X265793025Y-183457172D01*
X265793025Y-183457172D02*
X265899471Y-183454506D01*
X265899471Y-183454506D02*
X265963872Y-183474195D01*
X265963872Y-183474195D02*
X266050628Y-183535930D01*
X266050628Y-183535930D02*
X266182097Y-183681754D01*
X266182097Y-183681754D02*
X266293876Y-183891980D01*
X266293876Y-183891980D02*
X266341254Y-184082516D01*
X266341254Y-184082516D02*
X266343920Y-184188962D01*
X266343920Y-184188962D02*
X266324231Y-184253363D01*
X266324231Y-184253363D02*
X266262496Y-184340120D01*
X266262496Y-184340120D02*
X266178406Y-184384831D01*
X266178406Y-184384831D02*
X266071960Y-184387498D01*
X266071960Y-184387498D02*
X266007559Y-184367809D01*
X266007559Y-184367809D02*
X265920802Y-184306074D01*
X265920802Y-184306074D02*
X265789334Y-184160249D01*
X265789334Y-184160249D02*
X265677555Y-183950024D01*
X265677555Y-183950024D02*
X265630177Y-183759487D01*
X265630177Y-183759487D02*
X265627511Y-183653041D01*
X265627511Y-183653041D02*
X265647200Y-183588641D01*
X265647200Y-183588641D02*
X265708935Y-183501884D01*
X266708994Y-183455530D02*
X266602548Y-183458196D01*
X266602548Y-183458196D02*
X266538147Y-183438507D01*
X266538147Y-183438507D02*
X266451390Y-183376773D01*
X266451390Y-183376773D02*
X266429035Y-183334727D01*
X266429035Y-183334727D02*
X266426368Y-183228281D01*
X266426368Y-183228281D02*
X266446057Y-183163881D01*
X266446057Y-183163881D02*
X266507792Y-183077124D01*
X266507792Y-183077124D02*
X266675972Y-182987701D01*
X266675972Y-182987701D02*
X266782418Y-182985034D01*
X266782418Y-182985034D02*
X266846819Y-183004724D01*
X266846819Y-183004724D02*
X266933576Y-183066458D01*
X266933576Y-183066458D02*
X266955932Y-183108503D01*
X266955932Y-183108503D02*
X266958598Y-183214949D01*
X266958598Y-183214949D02*
X266938909Y-183279350D01*
X266938909Y-183279350D02*
X266877174Y-183366107D01*
X266877174Y-183366107D02*
X266708994Y-183455530D01*
X266708994Y-183455530D02*
X266647260Y-183542287D01*
X266647260Y-183542287D02*
X266627570Y-183606688D01*
X266627570Y-183606688D02*
X266630237Y-183713134D01*
X266630237Y-183713134D02*
X266719660Y-183881314D01*
X266719660Y-183881314D02*
X266806417Y-183943049D01*
X266806417Y-183943049D02*
X266870817Y-183962738D01*
X266870817Y-183962738D02*
X266977263Y-183960071D01*
X266977263Y-183960071D02*
X267145444Y-183870648D01*
X267145444Y-183870648D02*
X267207178Y-183783892D01*
X267207178Y-183783892D02*
X267226868Y-183719491D01*
X267226868Y-183719491D02*
X267224201Y-183613045D01*
X267224201Y-183613045D02*
X267134778Y-183444864D01*
X267134778Y-183444864D02*
X267048021Y-183383130D01*
X267048021Y-183383130D02*
X266983621Y-183363440D01*
X266983621Y-183363440D02*
X266877174Y-183366107D01*
X267627630Y-183560334D02*
X267776121Y-183535311D01*
X267776121Y-183535311D02*
X267986346Y-183423532D01*
X267986346Y-183423532D02*
X268048081Y-183336776D01*
X268048081Y-183336776D02*
X268067770Y-183272375D01*
X268067770Y-183272375D02*
X268065104Y-183165929D01*
X268065104Y-183165929D02*
X268020392Y-183081839D01*
X268020392Y-183081839D02*
X267933636Y-183020104D01*
X267933636Y-183020104D02*
X267869235Y-183000415D01*
X267869235Y-183000415D02*
X267762789Y-183003081D01*
X267762789Y-183003081D02*
X267572252Y-183050459D01*
X267572252Y-183050459D02*
X267465806Y-183053126D01*
X267465806Y-183053126D02*
X267401405Y-183033436D01*
X267401405Y-183033436D02*
X267314649Y-182971702D01*
X267314649Y-182971702D02*
X267269937Y-182887612D01*
X267269937Y-182887612D02*
X267267271Y-182781166D01*
X267267271Y-182781166D02*
X267286960Y-182716765D01*
X267286960Y-182716765D02*
X267348694Y-182630008D01*
X267348694Y-182630008D02*
X267558920Y-182518229D01*
X267558920Y-182518229D02*
X267707411Y-182493207D01*
X268356753Y-182902992D02*
X268777204Y-182679434D01*
X268406798Y-183199975D02*
X268231642Y-182160536D01*
X268231642Y-182160536D02*
X268995429Y-182886994D01*
X269110899Y-182394142D02*
X269783621Y-182036449D01*
X270081627Y-181176882D02*
X270165718Y-181132170D01*
X270165718Y-181132170D02*
X270272164Y-181129504D01*
X270272164Y-181129504D02*
X270336565Y-181149193D01*
X270336565Y-181149193D02*
X270423321Y-181210928D01*
X270423321Y-181210928D02*
X270554790Y-181356752D01*
X270554790Y-181356752D02*
X270666569Y-181566978D01*
X270666569Y-181566978D02*
X270713947Y-181757514D01*
X270713947Y-181757514D02*
X270716613Y-181863960D01*
X270716613Y-181863960D02*
X270696924Y-181928361D01*
X270696924Y-181928361D02*
X270635189Y-182015118D01*
X270635189Y-182015118D02*
X270551099Y-182059829D01*
X270551099Y-182059829D02*
X270444653Y-182062496D01*
X270444653Y-182062496D02*
X270380252Y-182042807D01*
X270380252Y-182042807D02*
X270293495Y-181981072D01*
X270293495Y-181981072D02*
X270162027Y-181835247D01*
X270162027Y-181835247D02*
X270050248Y-181625022D01*
X270050248Y-181625022D02*
X270002870Y-181434485D01*
X270002870Y-181434485D02*
X270000204Y-181328039D01*
X270000204Y-181328039D02*
X270019893Y-181263639D01*
X270019893Y-181263639D02*
X270081627Y-181176882D01*
X270670259Y-180863901D02*
X271216846Y-180573275D01*
X271216846Y-180573275D02*
X271101376Y-181066127D01*
X271101376Y-181066127D02*
X271227512Y-180999060D01*
X271227512Y-180999060D02*
X271333958Y-180996393D01*
X271333958Y-180996393D02*
X271398359Y-181016083D01*
X271398359Y-181016083D02*
X271485115Y-181077817D01*
X271485115Y-181077817D02*
X271596894Y-181288043D01*
X271596894Y-181288043D02*
X271599561Y-181394489D01*
X271599561Y-181394489D02*
X271579871Y-181458890D01*
X271579871Y-181458890D02*
X271518137Y-181545646D01*
X271518137Y-181545646D02*
X271265866Y-181679781D01*
X271265866Y-181679781D02*
X271159420Y-181682447D01*
X271159420Y-181682447D02*
X271095019Y-181662758D01*
D11*
%TO.C,J23*%
X342479998Y-64770003D02*
G75*
G03*
X342479998Y-64770003I-250000J0D01*
G01*
X342471998Y-70770003D02*
G75*
G03*
X342471998Y-70770003I-250000J0D01*
G01*
G36*
X344829998Y-62370003D02*
G01*
X339629998Y-62370003D01*
X339629998Y-59970003D01*
X344829998Y-59970003D01*
X344829998Y-62370003D01*
G37*
D10*
%TO.C,DRILL11*%
X367378405Y-148874002D02*
G75*
G03*
X367378405Y-148874002I-3200000J0D01*
G01*
%TO.C,DRILL1*%
X130894998Y-158456551D02*
G75*
G03*
X130894998Y-158456551I-3200000J0D01*
G01*
%TO.C,DRILL3*%
X296015139Y-158456548D02*
G75*
G03*
X296015139Y-158456548I-3200000J0D01*
G01*
D11*
%TO.C,J22*%
X78580006Y-64770002D02*
G75*
G03*
X78580006Y-64770002I-250000J0D01*
G01*
X78572006Y-70770002D02*
G75*
G03*
X78572006Y-70770002I-250000J0D01*
G01*
G36*
X80930006Y-62370002D02*
G01*
X75730006Y-62370002D01*
X75730006Y-59970002D01*
X80930006Y-59970002D01*
X80930006Y-62370002D01*
G37*
D12*
%TO.C,J35*%
X238688000Y-71991752D02*
G75*
G03*
X238688000Y-71991752I-200000J0D01*
G01*
D10*
%TO.C,DRILL12*%
X366429998Y-67470003D02*
G75*
G03*
X366429998Y-67470003I-3200000J0D01*
G01*
%TO.C,DRILL13*%
X310430003Y-51470001D02*
G75*
G03*
X310430003Y-51470001I-3200000J0D01*
G01*
D12*
%TO.C,J36*%
X180247003Y-85950000D02*
G75*
G03*
X180247003Y-85950000I-200000J0D01*
G01*
D10*
%TO.C,DRILL14*%
X230430006Y-51470000D02*
G75*
G03*
X230430006Y-51470000I-3200000J0D01*
G01*
%TO.C,DRILL4*%
X326015137Y-158456545D02*
G75*
G03*
X326015137Y-158456545I-3200000J0D01*
G01*
%TO.C,DRILL15*%
X223230001Y-131469996D02*
G75*
G03*
X223230001Y-131469996I-3200000J0D01*
G01*
%TO.C,DRILL10*%
X146720003Y-166926301D02*
G75*
G03*
X146720003Y-166926301I-3200000J0D01*
G01*
%TO.C,DRILL5*%
X59582004Y-148874000D02*
G75*
G03*
X59582004Y-148874000I-3200000J0D01*
G01*
%TO.C,DRILL2*%
X100895000Y-158456554D02*
G75*
G03*
X100895000Y-158456554I-3200000J0D01*
G01*
%TO.C,DRILL8*%
X196530003Y-51470000D02*
G75*
G03*
X196530003Y-51470000I-3200000J0D01*
G01*
%TO.C,DRILL9*%
X203730000Y-131469999D02*
G75*
G03*
X203730000Y-131469999I-3200000J0D01*
G01*
%TO.C,DRILL16*%
X280239703Y-166926300D02*
G75*
G03*
X280239703Y-166926300I-3200000J0D01*
G01*
%TO.C,DRILL6*%
X60530006Y-67470002D02*
G75*
G03*
X60530006Y-67470002I-3200000J0D01*
G01*
%TO.C,DRILL7*%
X116530003Y-51470001D02*
G75*
G03*
X116530003Y-51470001I-3200000J0D01*
G01*
%TD*%
M02*
