%TF.GenerationSoftware,KiCad,Pcbnew,(6.99.0-4085-g6c752680d7)*%
%TF.CreationDate,2022-11-10T11:06:54+08:00*%
%TF.ProjectId,Rev2.4,52657632-2e34-42e6-9b69-6361645f7063,rev?*%
%TF.SameCoordinates,Original*%
%TF.FileFunction,Paste,Top*%
%TF.FilePolarity,Positive*%
%FSLAX46Y46*%
G04 Gerber Fmt 4.6, Leading zero omitted, Abs format (unit mm)*
G04 Created by KiCad (PCBNEW (6.99.0-4085-g6c752680d7)) date 2022-11-10 11:06:54*
%MOMM*%
%LPD*%
G01*
G04 APERTURE LIST*
G04 Aperture macros list*
%AMRoundRect*
0 Rectangle with rounded corners*
0 $1 Rounding radius*
0 $2 $3 $4 $5 $6 $7 $8 $9 X,Y pos of 4 corners*
0 Add a 4 corners polygon primitive as box body*
4,1,4,$2,$3,$4,$5,$6,$7,$8,$9,$2,$3,0*
0 Add four circle primitives for the rounded corners*
1,1,$1+$1,$2,$3*
1,1,$1+$1,$4,$5*
1,1,$1+$1,$6,$7*
1,1,$1+$1,$8,$9*
0 Add four rect primitives between the rounded corners*
20,1,$1+$1,$2,$3,$4,$5,0*
20,1,$1+$1,$4,$5,$6,$7,0*
20,1,$1+$1,$6,$7,$8,$9,0*
20,1,$1+$1,$8,$9,$2,$3,0*%
%AMRotRect*
0 Rectangle, with rotation*
0 The origin of the aperture is its center*
0 $1 length*
0 $2 width*
0 $3 Rotation angle, in degrees counterclockwise*
0 Add horizontal line*
21,1,$1,$2,0,0,$3*%
G04 Aperture macros list end*
%ADD10RoundRect,0.140000X-0.140000X-0.170000X0.140000X-0.170000X0.140000X0.170000X-0.140000X0.170000X0*%
%ADD11R,2.400000X1.500000*%
%ADD12RotRect,1.700000X1.000000X50.000000*%
%ADD13RoundRect,0.140000X0.206244X0.077224X-0.036244X0.217224X-0.206244X-0.077224X0.036244X-0.217224X0*%
%ADD14RoundRect,0.250000X0.250000X-0.325000X0.250000X0.325000X-0.250000X0.325000X-0.250000X-0.325000X0*%
%ADD15RoundRect,0.250000X0.450000X-0.325000X0.450000X0.325000X-0.450000X0.325000X-0.450000X-0.325000X0*%
%ADD16RoundRect,0.140000X-0.040237X0.216520X-0.220218X0.002028X0.040237X-0.216520X0.220218X-0.002028X0*%
%ADD17RoundRect,0.160000X-0.160000X0.197500X-0.160000X-0.197500X0.160000X-0.197500X0.160000X0.197500X0*%
%ADD18RoundRect,0.140000X-0.170000X0.140000X-0.170000X-0.140000X0.170000X-0.140000X0.170000X0.140000X0*%
%ADD19RoundRect,0.135000X-0.185000X0.135000X-0.185000X-0.135000X0.185000X-0.135000X0.185000X0.135000X0*%
%ADD20R,0.800000X4.000000*%
%ADD21R,0.400000X1.600000*%
%ADD22RoundRect,0.135000X0.185000X-0.135000X0.185000X0.135000X-0.185000X0.135000X-0.185000X-0.135000X0*%
%ADD23R,0.300000X0.300000*%
%ADD24C,0.165000*%
%ADD25RoundRect,0.250000X-0.400000X-0.625000X0.400000X-0.625000X0.400000X0.625000X-0.400000X0.625000X0*%
%ADD26RoundRect,0.250000X1.500000X-0.250000X1.500000X0.250000X-1.500000X0.250000X-1.500000X-0.250000X0*%
%ADD27RoundRect,0.250001X1.449999X-0.499999X1.449999X0.499999X-1.449999X0.499999X-1.449999X-0.499999X0*%
%ADD28RoundRect,0.135000X-0.135000X-0.185000X0.135000X-0.185000X0.135000X0.185000X-0.135000X0.185000X0*%
%ADD29RoundRect,0.140000X0.170000X-0.140000X0.170000X0.140000X-0.170000X0.140000X-0.170000X-0.140000X0*%
%ADD30RoundRect,0.250000X-0.325000X-0.450000X0.325000X-0.450000X0.325000X0.450000X-0.325000X0.450000X0*%
%ADD31R,1.500000X2.000000*%
%ADD32R,3.800000X2.000000*%
%ADD33R,1.700000X1.000000*%
%ADD34R,1.100000X1.100000*%
%ADD35RoundRect,0.147500X-0.172500X0.147500X-0.172500X-0.147500X0.172500X-0.147500X0.172500X0.147500X0*%
%ADD36RoundRect,0.140000X0.140000X0.170000X-0.140000X0.170000X-0.140000X-0.170000X0.140000X-0.170000X0*%
%ADD37RotRect,1.700000X1.000000X240.000000*%
%ADD38RotRect,1.700000X1.000000X130.000000*%
%ADD39R,0.340000X0.700000*%
%ADD40RoundRect,0.135000X0.135000X0.185000X-0.135000X0.185000X-0.135000X-0.185000X0.135000X-0.185000X0*%
%ADD41RoundRect,0.160000X0.197500X0.160000X-0.197500X0.160000X-0.197500X-0.160000X0.197500X-0.160000X0*%
%ADD42RoundRect,0.140000X-0.036244X-0.217224X0.206244X-0.077224X0.036244X0.217224X-0.206244X0.077224X0*%
%ADD43RoundRect,0.150000X-0.512500X-0.150000X0.512500X-0.150000X0.512500X0.150000X-0.512500X0.150000X0*%
%ADD44RoundRect,0.250000X0.325000X0.450000X-0.325000X0.450000X-0.325000X-0.450000X0.325000X-0.450000X0*%
%ADD45RoundRect,0.140000X0.058955X-0.212189X0.219557X0.017173X-0.058955X0.212189X-0.219557X-0.017173X0*%
%ADD46RoundRect,0.250000X-0.538219X-0.135814X-0.040290X-0.553626X0.538219X0.135814X0.040290X0.553626X0*%
%ADD47R,5.000000X0.900000*%
%ADD48R,2.500000X1.500000*%
%ADD49RoundRect,0.250000X-0.625000X0.375000X-0.625000X-0.375000X0.625000X-0.375000X0.625000X0.375000X0*%
%ADD50RoundRect,0.225000X0.250000X-0.225000X0.250000X0.225000X-0.250000X0.225000X-0.250000X-0.225000X0*%
%ADD51RoundRect,0.250000X-0.450000X0.325000X-0.450000X-0.325000X0.450000X-0.325000X0.450000X0.325000X0*%
%ADD52RoundRect,0.150000X-0.650000X-0.150000X0.650000X-0.150000X0.650000X0.150000X-0.650000X0.150000X0*%
%ADD53R,1.000000X1.700000*%
%ADD54R,1.550000X1.000000*%
%ADD55R,0.400000X1.500000*%
%ADD56R,0.570000X2.450000*%
%ADD57R,0.300000X2.450000*%
%ADD58R,2.100000X2.600000*%
%ADD59R,2.200000X2.600000*%
%ADD60R,0.700000X1.000000*%
%ADD61R,0.700000X0.600000*%
%ADD62RoundRect,0.250000X-1.500000X0.250000X-1.500000X-0.250000X1.500000X-0.250000X1.500000X0.250000X0*%
%ADD63RoundRect,0.250001X-1.449999X0.499999X-1.449999X-0.499999X1.449999X-0.499999X1.449999X0.499999X0*%
%ADD64RoundRect,0.140000X0.017173X0.219557X-0.212189X0.058955X-0.017173X-0.219557X0.212189X-0.058955X0*%
%ADD65RoundRect,0.160000X-0.197500X-0.160000X0.197500X-0.160000X0.197500X0.160000X-0.197500X0.160000X0*%
%ADD66RoundRect,0.225000X-0.250000X0.225000X-0.250000X-0.225000X0.250000X-0.225000X0.250000X0.225000X0*%
%ADD67RoundRect,0.237500X-0.300000X-0.237500X0.300000X-0.237500X0.300000X0.237500X-0.300000X0.237500X0*%
%ADD68RoundRect,0.140000X-0.220218X-0.002028X-0.040237X-0.216520X0.220218X0.002028X0.040237X0.216520X0*%
%ADD69R,1.400000X1.300000*%
%ADD70RoundRect,0.150000X0.587500X0.150000X-0.587500X0.150000X-0.587500X-0.150000X0.587500X-0.150000X0*%
%ADD71RotRect,1.700000X1.000000X120.000000*%
%ADD72RoundRect,0.140000X-0.058955X0.212189X-0.219557X-0.017173X0.058955X-0.212189X0.219557X0.017173X0*%
%ADD73RoundRect,0.218750X-0.218750X-0.256250X0.218750X-0.256250X0.218750X0.256250X-0.218750X0.256250X0*%
%ADD74R,1.250000X0.280000*%
%ADD75R,2.000000X1.800000*%
%ADD76RoundRect,0.250000X-0.292217X-0.292217X0.292217X-0.292217X0.292217X0.292217X-0.292217X0.292217X0*%
%ADD77RoundRect,0.050000X-0.387500X-0.050000X0.387500X-0.050000X0.387500X0.050000X-0.387500X0.050000X0*%
%ADD78RoundRect,0.050000X-0.050000X-0.387500X0.050000X-0.387500X0.050000X0.387500X-0.050000X0.387500X0*%
%ADD79R,2.200000X0.600000*%
%ADD80RoundRect,0.237500X0.237500X-0.300000X0.237500X0.300000X-0.237500X0.300000X-0.237500X-0.300000X0*%
%ADD81RoundRect,0.150000X0.512500X0.150000X-0.512500X0.150000X-0.512500X-0.150000X0.512500X-0.150000X0*%
%ADD82RotRect,1.700000X1.000000X55.000000*%
%ADD83RoundRect,0.250000X0.088388X-0.548008X0.548008X-0.088388X-0.088388X0.548008X-0.548008X0.088388X0*%
%ADD84RotRect,1.300000X1.000000X62.000000*%
%ADD85RotRect,3.000000X0.900000X62.000000*%
%ADD86RotRect,1.300000X0.800000X197.000000*%
%ADD87RotRect,1.300000X0.800000X287.000000*%
%ADD88RotRect,1.700000X1.000000X305.000000*%
%ADD89RoundRect,0.147500X0.172500X-0.147500X0.172500X0.147500X-0.172500X0.147500X-0.172500X-0.147500X0*%
%ADD90RoundRect,0.160000X0.160000X-0.197500X0.160000X0.197500X-0.160000X0.197500X-0.160000X-0.197500X0*%
%ADD91RotRect,1.700000X1.000000X330.000000*%
%ADD92RotRect,1.700000X1.000000X210.000000*%
%ADD93RotRect,1.300000X1.000000X118.000000*%
%ADD94RotRect,3.000000X0.900000X118.000000*%
%ADD95RotRect,1.300000X0.800000X253.000000*%
%ADD96RotRect,1.300000X0.800000X343.000000*%
%ADD97RoundRect,0.250000X-0.088388X0.548008X-0.548008X0.088388X0.088388X-0.548008X0.548008X-0.088388X0*%
G04 APERTURE END LIST*
D10*
%TO.C,C34*%
X143775003Y-61745000D03*
X144735003Y-61745000D03*
%TD*%
D11*
%TO.C,J23*%
X345529997Y-64170002D03*
X338929997Y-64170002D03*
X345529997Y-70770002D03*
X338929997Y-70770002D03*
X345529997Y-67370002D03*
X338929997Y-67370002D03*
%TD*%
D12*
%TO.C,D37*%
X186298564Y-179026572D03*
X185226102Y-178126669D03*
X188761434Y-173913424D03*
X189833896Y-174813327D03*
%TD*%
D13*
%TO.C,C86*%
X169290692Y-191415000D03*
X168459308Y-190935000D03*
%TD*%
D14*
%TO.C,Y1*%
X151480003Y-88445000D03*
X151480003Y-86695000D03*
X150080003Y-86695000D03*
X150080003Y-88445000D03*
%TD*%
D15*
%TO.C,FB14*%
X150520003Y-167951301D03*
X150520003Y-165901301D03*
%TD*%
D10*
%TO.C,C29*%
X133710003Y-67900000D03*
X134670003Y-67900000D03*
%TD*%
D16*
%TO.C,C88*%
X187933538Y-172032299D03*
X187316462Y-172767701D03*
%TD*%
D17*
%TO.C,R32*%
X170000000Y-136077500D03*
X170000000Y-137272500D03*
%TD*%
D18*
%TO.C,C47*%
X268305000Y-84929252D03*
X268305000Y-85889252D03*
%TD*%
D19*
%TO.C,R4*%
X154730003Y-72022500D03*
X154730003Y-73042500D03*
%TD*%
D20*
%TO.C,U16*%
X295004999Y-47172751D03*
X289404999Y-47172751D03*
D21*
X293702999Y-49170751D03*
X292702999Y-49170751D03*
X291702999Y-49170751D03*
X290702999Y-49170751D03*
%TD*%
D22*
%TO.C,R12*%
X159250000Y-63400000D03*
X159250000Y-62380000D03*
%TD*%
D17*
%TO.C,R30*%
X168000000Y-136077500D03*
X168000000Y-137272500D03*
%TD*%
D23*
%TO.C,IC1*%
X258624999Y-107969999D03*
X258624999Y-108469999D03*
X258624999Y-108969999D03*
X259124999Y-107969999D03*
X259124999Y-108469999D03*
X259124999Y-108969999D03*
X259624999Y-107969999D03*
X259624999Y-108469999D03*
X259624999Y-108969999D03*
D24*
X259625000Y-108470000D03*
%TD*%
D19*
%TO.C,R55*%
X259830003Y-60585000D03*
X259830003Y-61605000D03*
%TD*%
D25*
%TO.C,R16*%
X159455000Y-82271752D03*
X162555000Y-82271752D03*
%TD*%
D18*
%TO.C,C57*%
X284610003Y-70790000D03*
X284610003Y-71750000D03*
%TD*%
D22*
%TO.C,R5*%
X152925000Y-88110000D03*
X152925000Y-87090000D03*
%TD*%
D26*
%TO.C,J37*%
X229740000Y-64470000D03*
X229740000Y-62470000D03*
X229740000Y-60470000D03*
D27*
X235490000Y-66820000D03*
X235490000Y-58120000D03*
%TD*%
D28*
%TO.C,R7*%
X103689234Y-160969299D03*
X104709234Y-160969299D03*
%TD*%
D29*
%TO.C,C46*%
X271605003Y-72995000D03*
X271605003Y-72035000D03*
%TD*%
D30*
%TO.C,FB11*%
X120305003Y-51470001D03*
X122355003Y-51470001D03*
%TD*%
D31*
%TO.C,U19*%
X288980001Y-56520599D03*
X286680001Y-56520599D03*
D32*
X286680001Y-62820599D03*
D31*
X284380001Y-56520599D03*
%TD*%
D33*
%TO.C,D17*%
X334928404Y-148174001D03*
X334928404Y-149574001D03*
X329428404Y-149574001D03*
X329428404Y-148174001D03*
%TD*%
D29*
%TO.C,C65*%
X365929998Y-135700003D03*
X365929998Y-134740003D03*
%TD*%
D34*
%TO.C,D45*%
X333399999Y-67399999D03*
X336199999Y-67399999D03*
%TD*%
D35*
%TO.C,R50*%
X269400000Y-56815000D03*
X269400000Y-57785000D03*
%TD*%
D19*
%TO.C,R3*%
X153700000Y-72040000D03*
X153700000Y-73060000D03*
%TD*%
D30*
%TO.C,FB10*%
X64305006Y-67470002D03*
X66355006Y-67470002D03*
%TD*%
D36*
%TO.C,C55*%
X286330000Y-65650000D03*
X285370000Y-65650000D03*
%TD*%
D37*
%TO.C,D18*%
X322083918Y-164224974D03*
X323296354Y-164924974D03*
X320546354Y-169688114D03*
X319333918Y-168988114D03*
%TD*%
D11*
%TO.C,J22*%
X81630005Y-64170001D03*
X75030005Y-64170001D03*
X81630005Y-70770001D03*
X75030005Y-70770001D03*
X81630005Y-67370001D03*
X75030005Y-67370001D03*
%TD*%
D10*
%TO.C,C27*%
X161420000Y-106200000D03*
X162380000Y-106200000D03*
%TD*%
D38*
%TO.C,D23*%
X245333897Y-191126666D03*
X244261435Y-192026569D03*
X240726103Y-187813324D03*
X241798565Y-186913421D03*
%TD*%
D39*
%TO.C,Q5*%
X257130002Y-65394999D03*
X257630002Y-65394999D03*
X258130002Y-65394999D03*
X258130002Y-63894999D03*
X257630002Y-63894999D03*
X257130002Y-63894999D03*
%TD*%
D40*
%TO.C,R8*%
X260265003Y-67620000D03*
X259245003Y-67620000D03*
%TD*%
D17*
%TO.C,R56*%
X254952781Y-136308212D03*
X254952781Y-137503212D03*
%TD*%
D41*
%TO.C,R14*%
X135072496Y-74700001D03*
X133877496Y-74700001D03*
%TD*%
D42*
%TO.C,C72*%
X268218616Y-178580000D03*
X269050000Y-178100000D03*
%TD*%
D43*
%TO.C,U18*%
X279612503Y-58900000D03*
X279612503Y-59850000D03*
X279612503Y-60800000D03*
X281887503Y-60800000D03*
X281887503Y-58900000D03*
%TD*%
D34*
%TO.C,D42*%
X253899999Y-184999999D03*
X256699999Y-184999999D03*
%TD*%
D44*
%TO.C,FB17*%
X300225000Y-52025000D03*
X298175000Y-52025000D03*
%TD*%
D26*
%TO.C,J41*%
X230110000Y-158000000D03*
X230110000Y-156000000D03*
X230110000Y-154000000D03*
X230110000Y-152000000D03*
X230110000Y-150000000D03*
X230110000Y-148000000D03*
D27*
X235860000Y-160350000D03*
X235860000Y-145650000D03*
%TD*%
D29*
%TO.C,C77*%
X60030006Y-85700002D03*
X60030006Y-84740002D03*
%TD*%
D45*
%TO.C,C84*%
X125374683Y-163618193D03*
X125925317Y-162831807D03*
%TD*%
D36*
%TO.C,C16*%
X148372503Y-79970000D03*
X147412503Y-79970000D03*
%TD*%
D46*
%TO.C,FB13*%
X199744804Y-138811142D03*
X201315196Y-140128856D03*
%TD*%
D47*
%TO.C,J35*%
X237331999Y-71981751D03*
X237331999Y-73981751D03*
X237331999Y-75981751D03*
X237331999Y-77981751D03*
X237331999Y-79981751D03*
X237331999Y-81981751D03*
X237331999Y-83981751D03*
X237331999Y-85981751D03*
D48*
X235077999Y-88681751D03*
X235077999Y-69261751D03*
%TD*%
D49*
%TO.C,F1*%
X159625000Y-57250000D03*
X159625000Y-60050000D03*
%TD*%
D39*
%TO.C,Q2*%
X143680002Y-58044999D03*
X144180002Y-58044999D03*
X144680002Y-58044999D03*
X144680002Y-56544999D03*
X144180002Y-56544999D03*
X143680002Y-56544999D03*
%TD*%
D50*
%TO.C,C25*%
X132050002Y-149900001D03*
X132050002Y-148350001D03*
%TD*%
D51*
%TO.C,FB8*%
X315595000Y-160900000D03*
X315595000Y-162950000D03*
%TD*%
D52*
%TO.C,U1*%
X141875000Y-69145000D03*
X141875000Y-70415000D03*
X141875000Y-71685000D03*
X141875000Y-72955000D03*
X149075000Y-72955000D03*
X149075000Y-71685000D03*
X149075000Y-70415000D03*
X149075000Y-69145000D03*
%TD*%
D10*
%TO.C,C4*%
X149700003Y-89795000D03*
X150660003Y-89795000D03*
%TD*%
D28*
%TO.C,R46*%
X264568499Y-150800000D03*
X265588499Y-150800000D03*
%TD*%
%TO.C,R22*%
X143495003Y-54345000D03*
X144515003Y-54345000D03*
%TD*%
D53*
%TO.C,D14*%
X362529997Y-104720002D03*
X363929997Y-104720002D03*
X363929997Y-110220002D03*
X362529997Y-110220002D03*
%TD*%
D30*
%TO.C,FB5*%
X137680000Y-158456551D03*
X139730000Y-158456551D03*
%TD*%
D54*
%TO.C,K2*%
X279579999Y-46821751D03*
X284829999Y-46821751D03*
X279579999Y-48521751D03*
X284829999Y-48521751D03*
%TD*%
D55*
%TO.C,U17*%
X285910002Y-74059999D03*
X286560002Y-74059999D03*
X287210002Y-74059999D03*
X287210002Y-71399999D03*
X285910002Y-71399999D03*
%TD*%
D18*
%TO.C,C23*%
X154430003Y-84927500D03*
X154430003Y-85887500D03*
%TD*%
D56*
%TO.C,J24*%
X250429999Y-53166751D03*
X249654999Y-53166751D03*
D57*
X248454999Y-53166751D03*
X247454999Y-53166751D03*
X246954999Y-53166751D03*
X245954999Y-53166751D03*
D56*
X243979999Y-53166751D03*
X244754999Y-53166751D03*
D57*
X245454999Y-53166751D03*
X246454999Y-53166751D03*
X247954999Y-53166751D03*
X248954999Y-53166751D03*
%TD*%
D58*
%TO.C,BZ1*%
X160240002Y-129923199D03*
D59*
X160240002Y-143173199D03*
%TD*%
D28*
%TO.C,R28*%
X143745003Y-60745000D03*
X144765003Y-60745000D03*
%TD*%
D26*
%TO.C,J40*%
X222655001Y-122471750D03*
X222655001Y-120471750D03*
X222655001Y-118471750D03*
X222655001Y-116471750D03*
X222655001Y-114471750D03*
X222655001Y-112471750D03*
D27*
X228405001Y-124821750D03*
X228405001Y-110121750D03*
%TD*%
D53*
%TO.C,D15*%
X362529997Y-129720002D03*
X363929997Y-129720002D03*
X363929997Y-135220002D03*
X362529997Y-135220002D03*
%TD*%
D28*
%TO.C,R17*%
X163227500Y-54011250D03*
X164247500Y-54011250D03*
%TD*%
D15*
%TO.C,FB1*%
X166005000Y-52096752D03*
X166005000Y-50046752D03*
%TD*%
D10*
%TO.C,C32*%
X161415000Y-110750000D03*
X162375000Y-110750000D03*
%TD*%
D43*
%TO.C,U11*%
X165937500Y-58750000D03*
X165937500Y-59700000D03*
X165937500Y-60650000D03*
X168212500Y-60650000D03*
X168212500Y-58750000D03*
%TD*%
D25*
%TO.C,R42*%
X274420003Y-84690000D03*
X277520003Y-84690000D03*
%TD*%
D10*
%TO.C,C12*%
X158287503Y-79970000D03*
X159247503Y-79970000D03*
%TD*%
D60*
%TO.C,D10*%
X268204999Y-58777971D03*
D61*
X268204999Y-57077971D03*
X266204999Y-57077971D03*
X266204999Y-58977971D03*
%TD*%
D17*
%TO.C,R58*%
X249952779Y-136288213D03*
X249952779Y-137483213D03*
%TD*%
D40*
%TO.C,R1*%
X146415003Y-67645000D03*
X145395003Y-67645000D03*
%TD*%
D44*
%TO.C,FB20*%
X270725000Y-168975000D03*
X268675000Y-168975000D03*
%TD*%
D62*
%TO.C,J42*%
X190350000Y-147825000D03*
X190350000Y-149825000D03*
X190350000Y-151825000D03*
X190350000Y-153825000D03*
X190350000Y-155825000D03*
X190350000Y-157825000D03*
D63*
X184600000Y-145475000D03*
X184600000Y-160175000D03*
%TD*%
D18*
%TO.C,C13*%
X156750000Y-72065000D03*
X156750000Y-73025000D03*
%TD*%
D19*
%TO.C,R38*%
X270500000Y-66280000D03*
X270500000Y-67300000D03*
%TD*%
D64*
%TO.C,C82*%
X103668193Y-167224683D03*
X102881807Y-167775317D03*
%TD*%
D65*
%TO.C,R13*%
X131377504Y-74699999D03*
X132572504Y-74699999D03*
%TD*%
D66*
%TO.C,C49*%
X330264098Y-143940998D03*
X330264098Y-145490998D03*
%TD*%
D67*
%TO.C,C54*%
X262815996Y-147900002D03*
X264540996Y-147900002D03*
%TD*%
D33*
%TO.C,D16*%
X354928404Y-148174001D03*
X354928404Y-149574001D03*
X349428404Y-149574001D03*
X349428404Y-148174001D03*
%TD*%
D51*
%TO.C,FB3*%
X240030000Y-52315000D03*
X240030000Y-54365000D03*
%TD*%
D29*
%TO.C,C26*%
X269605003Y-73025000D03*
X269605003Y-72065000D03*
%TD*%
%TO.C,C20*%
X157750000Y-73030000D03*
X157750000Y-72070000D03*
%TD*%
D10*
%TO.C,C51*%
X259235000Y-106150000D03*
X260195000Y-106150000D03*
%TD*%
%TO.C,C37*%
X143780003Y-62770000D03*
X144740003Y-62770000D03*
%TD*%
D66*
%TO.C,C24*%
X137850000Y-148300000D03*
X137850000Y-149850000D03*
%TD*%
D36*
%TO.C,C81*%
X91612004Y-146174000D03*
X90652004Y-146174000D03*
%TD*%
D31*
%TO.C,U6*%
X171379999Y-64721751D03*
X169079999Y-64721751D03*
D32*
X169079999Y-71021751D03*
D31*
X166779999Y-64721751D03*
%TD*%
D40*
%TO.C,R9*%
X258315003Y-67620000D03*
X257295003Y-67620000D03*
%TD*%
D34*
%TO.C,D39*%
X155549999Y-178099999D03*
X155549999Y-180899999D03*
%TD*%
D22*
%TO.C,R35*%
X266755003Y-88255000D03*
X266755003Y-87235000D03*
%TD*%
D12*
%TO.C,D36*%
X176298564Y-192026572D03*
X175226102Y-191126669D03*
X178761434Y-186913424D03*
X179833896Y-187813327D03*
%TD*%
D68*
%TO.C,C76*%
X226791462Y-172232299D03*
X227408538Y-172967701D03*
%TD*%
D10*
%TO.C,C14*%
X120419234Y-156519299D03*
X121379234Y-156519299D03*
%TD*%
D69*
%TO.C,D9*%
X271120002Y-57099999D03*
X271120002Y-59999999D03*
%TD*%
D19*
%TO.C,R10*%
X267600000Y-72040000D03*
X267600000Y-73060000D03*
%TD*%
D29*
%TO.C,C62*%
X250952780Y-137555714D03*
X250952780Y-136595714D03*
%TD*%
D70*
%TO.C,Q6*%
X277627503Y-60800000D03*
X277627503Y-58900000D03*
X275752503Y-59850000D03*
%TD*%
D53*
%TO.C,D26*%
X56630005Y-104720001D03*
X58030005Y-104720001D03*
X58030005Y-110220001D03*
X56630005Y-110220001D03*
%TD*%
D71*
%TO.C,D21*%
X274831217Y-181231569D03*
X273618781Y-181931569D03*
X270868781Y-177168429D03*
X272081217Y-176468429D03*
%TD*%
D30*
%TO.C,FB9*%
X56425000Y-142300000D03*
X58475000Y-142300000D03*
%TD*%
D72*
%TO.C,C85*%
X147825317Y-173906807D03*
X147274683Y-174693193D03*
%TD*%
D29*
%TO.C,C38*%
X169000000Y-137355000D03*
X169000000Y-136395000D03*
%TD*%
D36*
%TO.C,C52*%
X282585000Y-56971752D03*
X281625000Y-56971752D03*
%TD*%
D34*
%TO.C,D5*%
X157899999Y-178124999D03*
X157899999Y-180924999D03*
%TD*%
D40*
%TO.C,R49*%
X258515003Y-55270000D03*
X257495003Y-55270000D03*
%TD*%
D73*
%TO.C,D8*%
X283762500Y-51545600D03*
X285337500Y-51545600D03*
%TD*%
D47*
%TO.C,J36*%
X181203002Y-85959999D03*
X181203002Y-83959999D03*
X181203002Y-81959999D03*
X181203002Y-79959999D03*
X181203002Y-77959999D03*
X181203002Y-75959999D03*
X181203002Y-73959999D03*
X181203002Y-71959999D03*
D48*
X183457002Y-69259999D03*
X183457002Y-88679999D03*
%TD*%
D25*
%TO.C,R43*%
X274430003Y-82360000D03*
X277530003Y-82360000D03*
%TD*%
D60*
%TO.C,D7*%
X248204999Y-58777971D03*
D61*
X248204999Y-57077971D03*
X246204999Y-57077971D03*
X246204999Y-58977971D03*
%TD*%
D60*
%TO.C,D1*%
X174330002Y-58776219D03*
D61*
X174330002Y-57076219D03*
X172330002Y-57076219D03*
X172330002Y-58976219D03*
%TD*%
D35*
%TO.C,R24*%
X155500000Y-56815000D03*
X155500000Y-57785000D03*
%TD*%
D74*
%TO.C,J27*%
X261546498Y-150050003D03*
X261546498Y-150550003D03*
X261546498Y-151050003D03*
X261546498Y-151550003D03*
X261546498Y-152050003D03*
X261546498Y-152550003D03*
X261546498Y-153050003D03*
X261546498Y-153550003D03*
X261546498Y-154050003D03*
X261546498Y-154550003D03*
X261546498Y-155050003D03*
X261546498Y-155550003D03*
D75*
X258822498Y-157350003D03*
X258822498Y-148250003D03*
%TD*%
D39*
%TO.C,Q1*%
X257680002Y-57944999D03*
X258180002Y-57944999D03*
X258680002Y-57944999D03*
X258680002Y-56444999D03*
X258180002Y-56444999D03*
X257680002Y-56444999D03*
%TD*%
D10*
%TO.C,C58*%
X257800003Y-61670000D03*
X258760003Y-61670000D03*
%TD*%
D70*
%TO.C,Q4*%
X163687500Y-60650000D03*
X163687500Y-58750000D03*
X161812500Y-59700000D03*
%TD*%
D10*
%TO.C,C1*%
X148275003Y-67645000D03*
X149235003Y-67645000D03*
%TD*%
D36*
%TO.C,C11*%
X148360003Y-75995000D03*
X147400003Y-75995000D03*
%TD*%
D76*
%TO.C,U2*%
X152692503Y-78332500D03*
X152692503Y-79607500D03*
X153967503Y-78332500D03*
X153967503Y-79607500D03*
D77*
X149892503Y-76370000D03*
X149892503Y-76770000D03*
X149892503Y-77170000D03*
X149892503Y-77570000D03*
X149892503Y-77970000D03*
X149892503Y-78370000D03*
X149892503Y-78770000D03*
X149892503Y-79170000D03*
X149892503Y-79570000D03*
X149892503Y-79970000D03*
X149892503Y-80370000D03*
X149892503Y-80770000D03*
X149892503Y-81170000D03*
X149892503Y-81570000D03*
D78*
X150730003Y-82407500D03*
X151130003Y-82407500D03*
X151530003Y-82407500D03*
X151930003Y-82407500D03*
X152330003Y-82407500D03*
X152730003Y-82407500D03*
X153130003Y-82407500D03*
X153530003Y-82407500D03*
X153930003Y-82407500D03*
X154330003Y-82407500D03*
X154730003Y-82407500D03*
X155130003Y-82407500D03*
X155530003Y-82407500D03*
X155930003Y-82407500D03*
D77*
X156767503Y-81570000D03*
X156767503Y-81170000D03*
X156767503Y-80770000D03*
X156767503Y-80370000D03*
X156767503Y-79970000D03*
X156767503Y-79570000D03*
X156767503Y-79170000D03*
X156767503Y-78770000D03*
X156767503Y-78370000D03*
X156767503Y-77970000D03*
X156767503Y-77570000D03*
X156767503Y-77170000D03*
X156767503Y-76770000D03*
X156767503Y-76370000D03*
D78*
X155930003Y-75532500D03*
X155530003Y-75532500D03*
X155130003Y-75532500D03*
X154730003Y-75532500D03*
X154330003Y-75532500D03*
X153930003Y-75532500D03*
X153530003Y-75532500D03*
X153130003Y-75532500D03*
X152730003Y-75532500D03*
X152330003Y-75532500D03*
X151930003Y-75532500D03*
X151530003Y-75532500D03*
X151130003Y-75532500D03*
X150730003Y-75532500D03*
%TD*%
D28*
%TO.C,R34*%
X143445003Y-66595000D03*
X144465003Y-66595000D03*
%TD*%
D12*
%TO.C,D38*%
X196298564Y-167026572D03*
X195226102Y-166126669D03*
X198761434Y-161913424D03*
X199833896Y-162813327D03*
%TD*%
D10*
%TO.C,C15*%
X263600003Y-89870000D03*
X264560003Y-89870000D03*
%TD*%
D18*
%TO.C,C40*%
X267330003Y-84940000D03*
X267330003Y-85900000D03*
%TD*%
D22*
%TO.C,R39*%
X271530002Y-67299998D03*
X271530002Y-66279998D03*
%TD*%
D29*
%TO.C,C10*%
X155750000Y-73025000D03*
X155750000Y-72065000D03*
%TD*%
D52*
%TO.C,U8*%
X255500000Y-69295000D03*
X255500000Y-70565000D03*
X255500000Y-71835000D03*
X255500000Y-73105000D03*
X262700000Y-73105000D03*
X262700000Y-71835000D03*
X262700000Y-70565000D03*
X262700000Y-69295000D03*
%TD*%
D74*
%TO.C,J15*%
X161602002Y-150048199D03*
X161602002Y-150548199D03*
X161602002Y-151048199D03*
X161602002Y-151548199D03*
X161602002Y-152048199D03*
X161602002Y-152548199D03*
X161602002Y-153048199D03*
X161602002Y-153548199D03*
X161602002Y-154048199D03*
X161602002Y-154548199D03*
X161602002Y-155048199D03*
X161602002Y-155548199D03*
D75*
X158878002Y-157348199D03*
X158878002Y-148248199D03*
%TD*%
D51*
%TO.C,FB7*%
X300355000Y-167885000D03*
X300355000Y-169935000D03*
%TD*%
D26*
%TO.C,J38*%
X230155001Y-140471750D03*
X230155001Y-138471750D03*
X230155001Y-136471750D03*
X230155001Y-134471750D03*
X230155001Y-132471750D03*
X230155001Y-130471750D03*
D27*
X235905001Y-142821750D03*
X235905001Y-128121750D03*
%TD*%
D34*
%TO.C,D11*%
X253924999Y-180199999D03*
X256724999Y-180199999D03*
%TD*%
D10*
%TO.C,C71*%
X287720000Y-165800000D03*
X288680000Y-165800000D03*
%TD*%
D30*
%TO.C,FB15*%
X364175000Y-141600000D03*
X366225000Y-141600000D03*
%TD*%
D10*
%TO.C,C56*%
X259175000Y-110770000D03*
X260135000Y-110770000D03*
%TD*%
D79*
%TO.C,U14*%
X241534999Y-67394999D03*
X241534999Y-68664999D03*
X241534999Y-69934999D03*
X241534999Y-71204999D03*
X248164999Y-71204999D03*
X248164999Y-69934999D03*
X248164999Y-68664999D03*
X248164999Y-67394999D03*
%TD*%
D56*
%TO.C,J30*%
X270429999Y-53166751D03*
X269654999Y-53166751D03*
D57*
X268454999Y-53166751D03*
X267454999Y-53166751D03*
X266954999Y-53166751D03*
X265954999Y-53166751D03*
D56*
X263979999Y-53166751D03*
X264754999Y-53166751D03*
D57*
X265454999Y-53166751D03*
X266454999Y-53166751D03*
X267954999Y-53166751D03*
X268954999Y-53166751D03*
%TD*%
D10*
%TO.C,C31*%
X170700000Y-72821752D03*
X171660000Y-72821752D03*
%TD*%
D80*
%TO.C,C30*%
X163605000Y-149371752D03*
X163605000Y-147646752D03*
%TD*%
D18*
%TO.C,C19*%
X153450000Y-84945000D03*
X153450000Y-85905000D03*
%TD*%
D81*
%TO.C,U13*%
X328500000Y-145450000D03*
X328500000Y-144500000D03*
X328500000Y-143550000D03*
X326225000Y-143550000D03*
X326225000Y-145450000D03*
%TD*%
D82*
%TO.C,D33*%
X125191068Y-169610722D03*
X124044255Y-168807715D03*
X127198926Y-164302378D03*
X128345739Y-165105385D03*
%TD*%
D38*
%TO.C,D20*%
X296619035Y-168613218D03*
X295546573Y-169513121D03*
X292011241Y-165299876D03*
X293083703Y-164399973D03*
%TD*%
D55*
%TO.C,U10*%
X159754999Y-69296751D03*
X160404999Y-69296751D03*
X161054999Y-69296751D03*
X161054999Y-66636751D03*
X159754999Y-66636751D03*
%TD*%
D23*
%TO.C,IC2*%
X160910002Y-107968199D03*
X160910002Y-108468199D03*
X160910002Y-108968199D03*
X161410002Y-107968199D03*
X161410002Y-108468199D03*
X161410002Y-108968199D03*
X161910002Y-107968199D03*
X161910002Y-108468199D03*
X161910002Y-108968199D03*
D24*
X161910003Y-108468200D03*
%TD*%
D10*
%TO.C,C61*%
X257800003Y-62695000D03*
X258760003Y-62695000D03*
%TD*%
D19*
%TO.C,R19*%
X268605000Y-72024252D03*
X268605000Y-73044252D03*
%TD*%
D28*
%TO.C,R60*%
X257295003Y-66595000D03*
X258315003Y-66595000D03*
%TD*%
D29*
%TO.C,C64*%
X365929998Y-110700003D03*
X365929998Y-109740003D03*
%TD*%
D10*
%TO.C,C42*%
X314880003Y-156520000D03*
X315840003Y-156520000D03*
%TD*%
D29*
%TO.C,C63*%
X365929998Y-85700003D03*
X365929998Y-84740003D03*
%TD*%
D83*
%TO.C,FB6*%
X95625216Y-145049784D03*
X97074784Y-143600216D03*
%TD*%
D73*
%TO.C,D2*%
X162650000Y-52611250D03*
X164225000Y-52611250D03*
%TD*%
D84*
%TO.C,S1*%
X156096868Y-186544083D03*
X150799182Y-183727254D03*
D85*
X156917145Y-188622459D03*
X148617438Y-184209426D03*
D86*
X154791218Y-190448091D03*
D87*
X148292724Y-186992780D03*
D84*
X154330973Y-185605140D03*
X152565078Y-184666197D03*
%TD*%
D29*
%TO.C,C22*%
X151680003Y-72555000D03*
X151680003Y-71595000D03*
%TD*%
D60*
%TO.C,D4*%
X154330002Y-58776219D03*
D61*
X154330002Y-57076219D03*
X152330002Y-57076219D03*
X152330002Y-58976219D03*
%TD*%
D39*
%TO.C,Q3*%
X143280002Y-65419999D03*
X143780002Y-65419999D03*
X144280002Y-65419999D03*
X144280002Y-63919999D03*
X143780002Y-63919999D03*
X143280002Y-63919999D03*
%TD*%
D34*
%TO.C,D30*%
X194099999Y-145024999D03*
X194099999Y-147824999D03*
%TD*%
D33*
%TO.C,D28*%
X65632003Y-149573999D03*
X65632003Y-148173999D03*
X71132003Y-148173999D03*
X71132003Y-149573999D03*
%TD*%
D28*
%TO.C,R48*%
X257495003Y-54270000D03*
X258515003Y-54270000D03*
%TD*%
D53*
%TO.C,D13*%
X362529997Y-79720002D03*
X363929997Y-79720002D03*
X363929997Y-85220002D03*
X362529997Y-85220002D03*
%TD*%
D18*
%TO.C,C41*%
X270605003Y-72040000D03*
X270605003Y-73000000D03*
%TD*%
D65*
%TO.C,R40*%
X245052500Y-72800000D03*
X246247500Y-72800000D03*
%TD*%
D17*
%TO.C,R57*%
X252942779Y-136300713D03*
X252942779Y-137495713D03*
%TD*%
D19*
%TO.C,R29*%
X145780003Y-60760000D03*
X145780003Y-61780000D03*
%TD*%
D10*
%TO.C,C6*%
X262075003Y-67670000D03*
X263035003Y-67670000D03*
%TD*%
D28*
%TO.C,R54*%
X257795003Y-60645000D03*
X258815003Y-60645000D03*
%TD*%
D10*
%TO.C,C53*%
X247205003Y-66198248D03*
X248165003Y-66198248D03*
%TD*%
D68*
%TO.C,C74*%
X237791462Y-185882299D03*
X238408538Y-186617701D03*
%TD*%
D88*
%TO.C,D31*%
X97044257Y-165105388D03*
X98191070Y-164302381D03*
X101345741Y-168807718D03*
X100198928Y-169610725D03*
%TD*%
D56*
%TO.C,J8*%
X176555002Y-53164999D03*
X175780002Y-53164999D03*
D57*
X174580002Y-53164999D03*
X173580002Y-53164999D03*
X173080002Y-53164999D03*
X172080002Y-53164999D03*
D56*
X170105002Y-53164999D03*
X170880002Y-53164999D03*
D57*
X171580002Y-53164999D03*
X172580002Y-53164999D03*
X174080002Y-53164999D03*
X175080002Y-53164999D03*
%TD*%
D10*
%TO.C,C68*%
X316020000Y-168650000D03*
X316980000Y-168650000D03*
%TD*%
D44*
%TO.C,FB12*%
X186355003Y-51470000D03*
X184305003Y-51470000D03*
%TD*%
D33*
%TO.C,D19*%
X310679999Y-171594999D03*
X310679999Y-172994999D03*
X305179999Y-172994999D03*
X305179999Y-171594999D03*
%TD*%
D29*
%TO.C,C59*%
X253942781Y-137565714D03*
X253942781Y-136605714D03*
%TD*%
D49*
%TO.C,F2*%
X273500003Y-57220000D03*
X273500003Y-60020000D03*
%TD*%
D10*
%TO.C,C3*%
X150425003Y-85345000D03*
X151385003Y-85345000D03*
%TD*%
D34*
%TO.C,D43*%
X88199999Y-67199999D03*
X85399999Y-67199999D03*
%TD*%
D89*
%TO.C,R51*%
X265000000Y-57785000D03*
X265000000Y-56815000D03*
%TD*%
D33*
%TO.C,D29*%
X85632003Y-149573999D03*
X85632003Y-148173999D03*
X91132003Y-148173999D03*
X91132003Y-149573999D03*
%TD*%
D25*
%TO.C,R15*%
X159455000Y-84571752D03*
X162555000Y-84571752D03*
%TD*%
D36*
%TO.C,C80*%
X71612004Y-146174000D03*
X70652004Y-146174000D03*
%TD*%
D16*
%TO.C,C89*%
X197958538Y-159982299D03*
X197341462Y-160717701D03*
%TD*%
D22*
%TO.C,R26*%
X142130003Y-64755000D03*
X142130003Y-63735000D03*
%TD*%
D29*
%TO.C,C33*%
X158449997Y-66608504D03*
X158449997Y-65648504D03*
%TD*%
D51*
%TO.C,FB4*%
X274230003Y-51495000D03*
X274230003Y-53545000D03*
%TD*%
D26*
%TO.C,J39*%
X222690000Y-104900000D03*
X222690000Y-102900000D03*
X222690000Y-100900000D03*
X222690000Y-98900000D03*
X222690000Y-96900000D03*
X222690000Y-94900000D03*
D27*
X228440000Y-107250000D03*
X228440000Y-92550000D03*
%TD*%
D53*
%TO.C,D27*%
X56630005Y-129720001D03*
X58030005Y-129720001D03*
X58030005Y-135220001D03*
X56630005Y-135220001D03*
%TD*%
D34*
%TO.C,D46*%
X333399999Y-70799999D03*
X336199999Y-70799999D03*
%TD*%
D51*
%TO.C,FB2*%
X160455003Y-51770000D03*
X160455003Y-53820000D03*
%TD*%
D50*
%TO.C,C50*%
X324464098Y-145500998D03*
X324464098Y-143950998D03*
%TD*%
D62*
%TO.C,J33*%
X197850000Y-95000000D03*
X197850000Y-97000000D03*
X197850000Y-99000000D03*
X197850000Y-101000000D03*
X197850000Y-103000000D03*
X197850000Y-105000000D03*
D63*
X192100000Y-92650000D03*
X192100000Y-107350000D03*
%TD*%
D14*
%TO.C,Y2*%
X265380003Y-88520000D03*
X265380003Y-86770000D03*
X263980003Y-86770000D03*
X263980003Y-88520000D03*
%TD*%
D40*
%TO.C,R53*%
X258815003Y-59620000D03*
X257795003Y-59620000D03*
%TD*%
D90*
%TO.C,R59*%
X251932780Y-137493214D03*
X251932780Y-136298214D03*
%TD*%
D22*
%TO.C,R37*%
X300180003Y-162000000D03*
X300180003Y-160980000D03*
%TD*%
D29*
%TO.C,C78*%
X60030006Y-110700002D03*
X60030006Y-109740002D03*
%TD*%
D40*
%TO.C,R23*%
X144515003Y-55370000D03*
X143495003Y-55370000D03*
%TD*%
D38*
%TO.C,D24*%
X235333897Y-178126666D03*
X234261435Y-179026569D03*
X230726103Y-174813324D03*
X231798565Y-173913421D03*
%TD*%
D29*
%TO.C,C48*%
X265580003Y-72500000D03*
X265580003Y-71540000D03*
%TD*%
D76*
%TO.C,U9*%
X266567500Y-78334252D03*
X266567500Y-79609252D03*
X267842500Y-78334252D03*
X267842500Y-79609252D03*
D77*
X263767500Y-76371752D03*
X263767500Y-76771752D03*
X263767500Y-77171752D03*
X263767500Y-77571752D03*
X263767500Y-77971752D03*
X263767500Y-78371752D03*
X263767500Y-78771752D03*
X263767500Y-79171752D03*
X263767500Y-79571752D03*
X263767500Y-79971752D03*
X263767500Y-80371752D03*
X263767500Y-80771752D03*
X263767500Y-81171752D03*
X263767500Y-81571752D03*
D78*
X264605000Y-82409252D03*
X265005000Y-82409252D03*
X265405000Y-82409252D03*
X265805000Y-82409252D03*
X266205000Y-82409252D03*
X266605000Y-82409252D03*
X267005000Y-82409252D03*
X267405000Y-82409252D03*
X267805000Y-82409252D03*
X268205000Y-82409252D03*
X268605000Y-82409252D03*
X269005000Y-82409252D03*
X269405000Y-82409252D03*
X269805000Y-82409252D03*
D77*
X270642500Y-81571752D03*
X270642500Y-81171752D03*
X270642500Y-80771752D03*
X270642500Y-80371752D03*
X270642500Y-79971752D03*
X270642500Y-79571752D03*
X270642500Y-79171752D03*
X270642500Y-78771752D03*
X270642500Y-78371752D03*
X270642500Y-77971752D03*
X270642500Y-77571752D03*
X270642500Y-77171752D03*
X270642500Y-76771752D03*
X270642500Y-76371752D03*
D78*
X269805000Y-75534252D03*
X269405000Y-75534252D03*
X269005000Y-75534252D03*
X268605000Y-75534252D03*
X268205000Y-75534252D03*
X267805000Y-75534252D03*
X267405000Y-75534252D03*
X267005000Y-75534252D03*
X266605000Y-75534252D03*
X266205000Y-75534252D03*
X265805000Y-75534252D03*
X265405000Y-75534252D03*
X265005000Y-75534252D03*
X264605000Y-75534252D03*
%TD*%
D10*
%TO.C,C44*%
X273200003Y-80120000D03*
X274160003Y-80120000D03*
%TD*%
D28*
%TO.C,R20*%
X164195000Y-150771752D03*
X165215000Y-150771752D03*
%TD*%
D16*
%TO.C,C87*%
X177983538Y-184907299D03*
X177366462Y-185642701D03*
%TD*%
D29*
%TO.C,C79*%
X60030006Y-135700002D03*
X60030006Y-134740002D03*
%TD*%
D28*
%TO.C,R44*%
X283440000Y-52870600D03*
X284460000Y-52870600D03*
%TD*%
D54*
%TO.C,K1*%
X135705002Y-46819999D03*
X140955002Y-46819999D03*
X135705002Y-48519999D03*
X140955002Y-48519999D03*
%TD*%
D29*
%TO.C,C39*%
X266580003Y-72500000D03*
X266580003Y-71540000D03*
%TD*%
D53*
%TO.C,D6*%
X56630005Y-79720001D03*
X58030005Y-79720001D03*
X58030005Y-85220001D03*
X56630005Y-85220001D03*
%TD*%
D29*
%TO.C,C35*%
X166000000Y-137355000D03*
X166000000Y-136395000D03*
%TD*%
D44*
%TO.C,FB16*%
X356254998Y-67470003D03*
X354204998Y-67470003D03*
%TD*%
D17*
%TO.C,R31*%
X167000000Y-136077500D03*
X167000000Y-137272500D03*
%TD*%
D65*
%TO.C,R21*%
X137852503Y-78710000D03*
X139047503Y-78710000D03*
%TD*%
D10*
%TO.C,C70*%
X290620000Y-50900000D03*
X291580000Y-50900000D03*
%TD*%
D40*
%TO.C,R27*%
X144775003Y-59695000D03*
X143755003Y-59695000D03*
%TD*%
D68*
%TO.C,C75*%
X217282924Y-160164598D03*
X217900000Y-160900000D03*
%TD*%
D34*
%TO.C,D44*%
X88199999Y-70799999D03*
X85399999Y-70799999D03*
%TD*%
D42*
%TO.C,C73*%
X250384308Y-195990000D03*
X251215692Y-195510000D03*
%TD*%
D18*
%TO.C,C2*%
X158030003Y-75090000D03*
X158030003Y-76050000D03*
%TD*%
D80*
%TO.C,C21*%
X219830003Y-70272500D03*
X219830003Y-68547500D03*
%TD*%
D40*
%TO.C,R18*%
X165215000Y-151771752D03*
X164195000Y-151771752D03*
%TD*%
D18*
%TO.C,C17*%
X271855003Y-75165000D03*
X271855003Y-76125000D03*
%TD*%
D10*
%TO.C,C60*%
X126745000Y-50871752D03*
X127705000Y-50871752D03*
%TD*%
D22*
%TO.C,R52*%
X255955003Y-64730000D03*
X255955003Y-63710000D03*
%TD*%
D19*
%TO.C,R36*%
X300310003Y-154610000D03*
X300310003Y-155630000D03*
%TD*%
D91*
%TO.C,D35*%
X162173429Y-191302969D03*
X162873429Y-190090533D03*
X167636569Y-192840533D03*
X166936569Y-194052969D03*
%TD*%
D36*
%TO.C,C28*%
X166155000Y-62921752D03*
X165195000Y-62921752D03*
%TD*%
D58*
%TO.C,BZ2*%
X260274999Y-129924999D03*
D59*
X260274999Y-143174999D03*
%TD*%
D34*
%TO.C,D12*%
X226359999Y-145249999D03*
X226359999Y-148049999D03*
%TD*%
D89*
%TO.C,R25*%
X151200000Y-57770000D03*
X151200000Y-56800000D03*
%TD*%
D62*
%TO.C,J3*%
X188880003Y-60470000D03*
X188880003Y-62470000D03*
X188880003Y-64470000D03*
D63*
X183130003Y-58120000D03*
X183130003Y-66820000D03*
%TD*%
D33*
%TO.C,D32*%
X110059860Y-173995005D03*
X110059860Y-172595005D03*
X115559860Y-172595005D03*
X115559860Y-173995005D03*
%TD*%
D41*
%TO.C,R41*%
X248997500Y-72800000D03*
X247802500Y-72800000D03*
%TD*%
D92*
%TO.C,D22*%
X257481569Y-190268781D03*
X258181569Y-191481217D03*
X253418429Y-194231217D03*
X252718429Y-193018781D03*
%TD*%
D40*
%TO.C,R2*%
X144465003Y-67645000D03*
X143445003Y-67645000D03*
%TD*%
D62*
%TO.C,J34*%
X190380000Y-130469999D03*
X190380000Y-132469999D03*
X190380000Y-134469999D03*
X190380000Y-136469999D03*
X190380000Y-138469999D03*
X190380000Y-140469999D03*
D63*
X184630000Y-128119999D03*
X184630000Y-142819999D03*
%TD*%
D56*
%TO.C,J19*%
X156555002Y-53164999D03*
X155780002Y-53164999D03*
D57*
X154580002Y-53164999D03*
X153580002Y-53164999D03*
X153080002Y-53164999D03*
X152080002Y-53164999D03*
D56*
X150105002Y-53164999D03*
X150880002Y-53164999D03*
D57*
X151580002Y-53164999D03*
X152580002Y-53164999D03*
X154080002Y-53164999D03*
X155080002Y-53164999D03*
%TD*%
D29*
%TO.C,C18*%
X152675000Y-72555000D03*
X152675000Y-71595000D03*
%TD*%
D69*
%TO.C,D3*%
X157249999Y-57124999D03*
X157249999Y-60024999D03*
%TD*%
D79*
%TO.C,U5*%
X128015002Y-69064999D03*
X128015002Y-70334999D03*
X128015002Y-71604999D03*
X128015002Y-72874999D03*
X134645002Y-72874999D03*
X134645002Y-71604999D03*
X134645002Y-70334999D03*
X134645002Y-69064999D03*
%TD*%
D67*
%TO.C,C5*%
X200700000Y-87750000D03*
X202425000Y-87750000D03*
%TD*%
D34*
%TO.C,D40*%
X153174999Y-178099999D03*
X153174999Y-180899999D03*
%TD*%
D10*
%TO.C,C69*%
X301570000Y-172850000D03*
X302530000Y-172850000D03*
%TD*%
D40*
%TO.C,R45*%
X265588500Y-151900000D03*
X264568500Y-151900000D03*
%TD*%
D93*
%TO.C,S2*%
X269710515Y-183727255D03*
X264412829Y-186544084D03*
D94*
X271892259Y-184209427D03*
X263592552Y-188622460D03*
D95*
X272216973Y-186992781D03*
D96*
X265718479Y-190448092D03*
D93*
X267944619Y-184666198D03*
X266178724Y-185605141D03*
%TD*%
D10*
%TO.C,C66*%
X348948405Y-151574002D03*
X349908405Y-151574002D03*
%TD*%
%TO.C,C67*%
X328948405Y-151574002D03*
X329908405Y-151574002D03*
%TD*%
D19*
%TO.C,R11*%
X160250001Y-62379999D03*
X160250001Y-63399999D03*
%TD*%
D30*
%TO.C,FB18*%
X234205006Y-51470000D03*
X236255006Y-51470000D03*
%TD*%
D81*
%TO.C,U4*%
X136087502Y-149825000D03*
X136087502Y-148875000D03*
X136087502Y-147925000D03*
X133812502Y-147925000D03*
X133812502Y-149825000D03*
%TD*%
D19*
%TO.C,R6*%
X104800000Y-154605000D03*
X104800000Y-155625000D03*
%TD*%
D82*
%TO.C,D34*%
X146501070Y-181725923D03*
X145354257Y-180922916D03*
X148508928Y-176417579D03*
X149655741Y-177220586D03*
%TD*%
D65*
%TO.C,R47*%
X251582503Y-78600000D03*
X252777503Y-78600000D03*
%TD*%
D38*
%TO.C,D25*%
X225333897Y-166126666D03*
X224261435Y-167026569D03*
X220726103Y-162813324D03*
X221798565Y-161913421D03*
%TD*%
D36*
%TO.C,C45*%
X261247500Y-79971752D03*
X260287500Y-79971752D03*
%TD*%
D34*
%TO.C,D41*%
X253899999Y-182599999D03*
X256699999Y-182599999D03*
%TD*%
D97*
%TO.C,FB19*%
X220949784Y-138325216D03*
X219500216Y-139774784D03*
%TD*%
D36*
%TO.C,C43*%
X261600000Y-75750000D03*
X260640000Y-75750000D03*
%TD*%
D20*
%TO.C,U7*%
X131130002Y-47170999D03*
X125530002Y-47170999D03*
D21*
X129828002Y-49168999D03*
X128828002Y-49168999D03*
X127828002Y-49168999D03*
X126828002Y-49168999D03*
%TD*%
D36*
%TO.C,C83*%
X119805000Y-171175000D03*
X118845000Y-171175000D03*
%TD*%
D90*
%TO.C,R33*%
X171000000Y-137272500D03*
X171000000Y-136077500D03*
%TD*%
D10*
%TO.C,C9*%
X264225003Y-85395000D03*
X265185003Y-85395000D03*
%TD*%
D62*
%TO.C,J32*%
X197880000Y-112469999D03*
X197880000Y-114469999D03*
X197880000Y-116469999D03*
X197880000Y-118469999D03*
X197880000Y-120469999D03*
X197880000Y-122469999D03*
D63*
X192130000Y-110119999D03*
X192130000Y-124819999D03*
%TD*%
M02*
