M48
; DRILL file {KiCad (6.99.0-4085-g6c752680d7)} date Thu Nov 10 11:06:54 2022
; FORMAT={-:-/ absolute / inch / decimal}
; #@! TF.CreationDate,2022-11-10T11:06:54+08:00
; #@! TF.GenerationSoftware,Kicad,Pcbnew,(6.99.0-4085-g6c752680d7)
; #@! TF.FileFunction,Plated,1,4,PTH
FMAT,2
INCH
; #@! TA.AperFunction,Plated,PTH,ViaDrill
T1C0.0118
; #@! TA.AperFunction,Plated,PTH,ComponentDrill
T2C0.0138
; #@! TA.AperFunction,Plated,PTH,ViaDrill
T3C0.0157
; #@! TA.AperFunction,Plated,PTH,ComponentDrill
T4C0.0197
; #@! TA.AperFunction,Plated,PTH,ComponentDrill
T5C0.0236
; #@! TA.AperFunction,Plated,PTH,ComponentDrill
T6C0.0276
; #@! TA.AperFunction,Plated,PTH,ComponentDrill
T7C0.0300
; #@! TA.AperFunction,Plated,PTH,ComponentDrill
T8C0.0394
; #@! TA.AperFunction,Plated,PTH,ComponentDrill
T9C0.0400
; #@! TA.AperFunction,Plated,PTH,ComponentDrill
T10C0.1260
%
G90
G05
T1
X2.189Y-4.122
X2.1919Y-3.1407
X2.1949Y-5.1063
X2.3061Y-5.6447
X2.3642Y-3.3041
X2.3652Y-3.0364
X2.3878Y-3.374
X2.3878Y-4.3583
X2.5856Y-5.9242
X2.6132Y-2.6132
X2.8189Y-5.7303
X2.874Y-2.9528
X3.0661Y-3.548
X3.0661Y-3.598
X3.0661Y-3.648
X3.0661Y-3.698
X3.0661Y-3.748
X3.0661Y-3.798
X3.0661Y-3.8512
X3.0661Y-3.9012
X3.0661Y-3.9512
X3.0661Y-4.0012
X3.0661Y-4.0512
X3.0661Y-4.1012
X3.0673Y-4.1476
X3.0673Y-4.1976
X3.0673Y-4.2476
X3.0673Y-4.2976
X3.0673Y-4.3476
X3.0673Y-4.3976
X3.0673Y-4.4429
X3.0673Y-4.4929
X3.0673Y-4.5429
X3.0673Y-4.5929
X3.0673Y-4.6429
X3.0673Y-4.6929
X3.1161Y-3.548
X3.1161Y-3.598
X3.1161Y-3.648
X3.1161Y-3.698
X3.1161Y-3.748
X3.1161Y-3.798
X3.1161Y-3.8512
X3.1161Y-3.9012
X3.1161Y-3.9512
X3.1161Y-4.0012
X3.1161Y-4.0512
X3.1161Y-4.1012
X3.1173Y-4.1476
X3.1173Y-4.1976
X3.1173Y-4.2476
X3.1173Y-4.2976
X3.1173Y-4.3476
X3.1173Y-4.3976
X3.1173Y-4.4429
X3.1173Y-4.4929
X3.1173Y-4.5429
X3.1173Y-4.5929
X3.1173Y-4.6429
X3.1173Y-4.6929
X3.1661Y-3.548
X3.1661Y-3.598
X3.1661Y-3.648
X3.1661Y-3.698
X3.1661Y-3.748
X3.1661Y-3.798
X3.1661Y-3.8512
X3.1661Y-3.9012
X3.1661Y-3.9512
X3.1661Y-4.0012
X3.1661Y-4.0512
X3.1661Y-4.1012
X3.1673Y-4.1476
X3.1673Y-4.1976
X3.1673Y-4.2476
X3.1673Y-4.2976
X3.1673Y-4.3476
X3.1673Y-4.3976
X3.1673Y-4.4429
X3.1673Y-4.4929
X3.1673Y-4.5429
X3.1673Y-4.5929
X3.1673Y-4.6429
X3.1673Y-4.6929
X3.2161Y-3.548
X3.2161Y-3.598
X3.2161Y-3.648
X3.2161Y-3.698
X3.2161Y-3.748
X3.2161Y-3.798
X3.2161Y-3.8512
X3.2161Y-3.9012
X3.2161Y-3.9512
X3.2161Y-4.0012
X3.2161Y-4.0512
X3.2161Y-4.1012
X3.2173Y-4.1476
X3.2173Y-4.1976
X3.2173Y-4.2476
X3.2173Y-4.2976
X3.2173Y-4.3476
X3.2173Y-4.3976
X3.2173Y-4.4429
X3.2173Y-4.4929
X3.2173Y-4.5429
X3.2173Y-4.5929
X3.2173Y-4.6429
X3.2173Y-4.6929
X3.2661Y-3.548
X3.2661Y-3.598
X3.2661Y-3.648
X3.2661Y-3.698
X3.2661Y-3.748
X3.2661Y-3.798
X3.2661Y-3.8512
X3.2661Y-3.9012
X3.2661Y-3.9512
X3.2661Y-4.0012
X3.2661Y-4.0512
X3.2661Y-4.1012
X3.2673Y-4.1476
X3.2673Y-4.1976
X3.2673Y-4.2476
X3.2673Y-4.2976
X3.2673Y-4.3476
X3.2673Y-4.3976
X3.2673Y-4.4429
X3.2673Y-4.4929
X3.2673Y-4.5429
X3.2673Y-4.5929
X3.2673Y-4.6429
X3.2673Y-4.6929
X3.3161Y-3.548
X3.3161Y-3.598
X3.3161Y-3.648
X3.3161Y-3.698
X3.3161Y-3.748
X3.3161Y-3.798
X3.3161Y-3.8512
X3.3161Y-3.9012
X3.3161Y-3.9512
X3.3161Y-4.0012
X3.3161Y-4.0512
X3.3161Y-4.1012
X3.3173Y-4.1476
X3.3173Y-4.1976
X3.3173Y-4.2476
X3.3173Y-4.2976
X3.3173Y-4.3476
X3.3173Y-4.3976
X3.3173Y-4.4429
X3.3173Y-4.4929
X3.3173Y-4.5429
X3.3173Y-4.5929
X3.3173Y-4.6429
X3.3173Y-4.6929
X3.3661Y-3.548
X3.3661Y-3.598
X3.3661Y-3.648
X3.3661Y-3.698
X3.3661Y-3.748
X3.3661Y-3.798
X3.3661Y-3.8512
X3.3661Y-3.9012
X3.3661Y-3.9512
X3.3661Y-4.0012
X3.3661Y-4.0512
X3.3661Y-4.1012
X3.3673Y-4.1476
X3.3673Y-4.1976
X3.3673Y-4.2476
X3.3673Y-4.2976
X3.3673Y-4.3476
X3.3673Y-4.3976
X3.3673Y-4.4429
X3.3673Y-4.4929
X3.3673Y-4.5429
X3.3673Y-4.5929
X3.3673Y-4.6429
X3.3673Y-4.6929
X3.372Y-5.9242
X3.4161Y-3.548
X3.4161Y-3.598
X3.4161Y-3.648
X3.4161Y-3.698
X3.4161Y-3.748
X3.4161Y-3.798
X3.4161Y-3.8512
X3.4161Y-3.9012
X3.4161Y-3.9512
X3.4161Y-4.0012
X3.4161Y-4.0512
X3.4161Y-4.1012
X3.4173Y-4.1476
X3.4173Y-4.1976
X3.4173Y-4.2476
X3.4173Y-4.2976
X3.4173Y-4.3476
X3.4173Y-4.3976
X3.4173Y-4.4429
X3.4173Y-4.4929
X3.4173Y-4.5429
X3.4173Y-4.5929
X3.4173Y-4.6429
X3.4173Y-4.6929
X3.6073Y-5.7293
X3.7549Y-5.7756
X3.7677Y-2.252
X3.7677Y-2.302
X3.7677Y-2.352
X3.7677Y-2.402
X3.7677Y-2.452
X3.7677Y-2.502
X3.7943Y-6.5207
X3.8177Y-2.252
X3.8177Y-2.302
X3.8177Y-2.352
X3.8177Y-2.402
X3.8177Y-2.452
X3.8177Y-2.502
X3.8462Y-5.6292
X3.8677Y-2.252
X3.8677Y-2.302
X3.8677Y-2.352
X3.8677Y-2.402
X3.8677Y-2.452
X3.8677Y-2.502
X3.874Y-2.9528
X3.9Y-2.9134
X3.9177Y-2.252
X3.9177Y-2.302
X3.9177Y-2.352
X3.9177Y-2.402
X3.9177Y-2.452
X3.9177Y-2.502
X3.9677Y-2.252
X3.9677Y-2.302
X3.9677Y-2.352
X3.9677Y-2.402
X3.9677Y-2.452
X3.9677Y-2.502
X3.9734Y-6.0325
X4.0177Y-2.252
X4.0177Y-2.302
X4.0177Y-2.352
X4.0177Y-2.402
X4.0177Y-2.452
X4.0177Y-2.502
X4.0226Y-6.5443
X4.0626Y-6.3382
X4.0677Y-2.252
X4.0677Y-2.302
X4.0677Y-2.352
X4.0677Y-2.402
X4.0677Y-2.452
X4.0677Y-2.502
X4.1004Y-6.5699
X4.1177Y-2.252
X4.1177Y-2.302
X4.1177Y-2.352
X4.1177Y-2.402
X4.1177Y-2.452
X4.1177Y-2.502
X4.139Y-4.2449
X4.139Y-4.2949
X4.139Y-4.3449
X4.139Y-4.3949
X4.139Y-4.4449
X4.139Y-4.4949
X4.139Y-4.5402
X4.139Y-4.5902
X4.139Y-4.6402
X4.139Y-4.6902
X4.139Y-4.7402
X4.139Y-4.7902
X4.1402Y-4.8366
X4.1402Y-4.8866
X4.1402Y-4.9366
X4.1402Y-4.9866
X4.1402Y-5.0366
X4.1402Y-5.0866
X4.1402Y-5.1319
X4.1402Y-5.1819
X4.1402Y-5.2319
X4.1402Y-5.2819
X4.1402Y-5.3319
X4.1402Y-5.3819
X4.189Y-4.2449
X4.189Y-4.2949
X4.189Y-4.3449
X4.189Y-4.3949
X4.189Y-4.4449
X4.189Y-4.4949
X4.189Y-4.5402
X4.189Y-4.5902
X4.189Y-4.6402
X4.189Y-4.6902
X4.189Y-4.7402
X4.189Y-4.7902
X4.1902Y-4.8366
X4.1902Y-4.8866
X4.1902Y-4.9366
X4.1902Y-4.9866
X4.1902Y-5.0366
X4.1902Y-5.0866
X4.1902Y-5.1319
X4.1902Y-5.1819
X4.1902Y-5.2319
X4.1902Y-5.2819
X4.1902Y-5.3319
X4.1902Y-5.3819
X4.1939Y-6.7224
X4.239Y-4.2449
X4.239Y-4.2949
X4.239Y-4.3449
X4.239Y-4.3949
X4.239Y-4.4449
X4.239Y-4.4949
X4.239Y-4.5402
X4.239Y-4.5902
X4.239Y-4.6402
X4.239Y-4.6902
X4.239Y-4.7402
X4.239Y-4.7902
X4.2402Y-4.8366
X4.2402Y-4.8866
X4.2402Y-4.9366
X4.2402Y-4.9866
X4.2402Y-5.0366
X4.2402Y-5.0866
X4.2402Y-5.1319
X4.2402Y-5.1819
X4.2402Y-5.2319
X4.2402Y-5.2819
X4.2402Y-5.3319
X4.2402Y-5.3819
X4.289Y-4.2449
X4.289Y-4.2949
X4.289Y-4.3449
X4.289Y-4.3949
X4.289Y-4.4449
X4.289Y-4.4949
X4.289Y-4.5402
X4.289Y-4.5902
X4.289Y-4.6402
X4.289Y-4.6902
X4.289Y-4.7402
X4.289Y-4.7902
X4.2902Y-4.8366
X4.2902Y-4.8866
X4.2902Y-4.9366
X4.2902Y-4.9866
X4.2902Y-5.0366
X4.2902Y-5.0866
X4.2902Y-5.1319
X4.2902Y-5.1819
X4.2902Y-5.2319
X4.2902Y-5.2819
X4.2902Y-5.3319
X4.2902Y-5.3819
X4.3346Y-6.8898
X4.339Y-4.2449
X4.339Y-4.2949
X4.339Y-4.3449
X4.339Y-4.3949
X4.339Y-4.4449
X4.339Y-4.4949
X4.339Y-4.5402
X4.339Y-4.5902
X4.339Y-4.6402
X4.339Y-4.6902
X4.339Y-4.7402
X4.339Y-4.7902
X4.3402Y-4.8366
X4.3402Y-4.8866
X4.3402Y-4.9366
X4.3402Y-4.9866
X4.3402Y-5.0366
X4.3402Y-5.0866
X4.3402Y-5.1319
X4.3402Y-5.1819
X4.3402Y-5.2319
X4.3402Y-5.2819
X4.3402Y-5.3319
X4.3402Y-5.3819
X4.389Y-4.2449
X4.389Y-4.2949
X4.389Y-4.3449
X4.389Y-4.3949
X4.389Y-4.4449
X4.389Y-4.4949
X4.389Y-4.5402
X4.389Y-4.5902
X4.389Y-4.6402
X4.389Y-4.6902
X4.389Y-4.7402
X4.389Y-4.7902
X4.3902Y-4.8366
X4.3902Y-4.8866
X4.3902Y-4.9366
X4.3902Y-4.9866
X4.3902Y-5.0366
X4.3902Y-5.0866
X4.3902Y-5.1319
X4.3902Y-5.1819
X4.3902Y-5.2319
X4.3902Y-5.2819
X4.3902Y-5.3319
X4.3902Y-5.3819
X4.439Y-4.2449
X4.439Y-4.2949
X4.439Y-4.3449
X4.439Y-4.3949
X4.439Y-4.4449
X4.439Y-4.4949
X4.439Y-4.5402
X4.439Y-4.5902
X4.439Y-4.6402
X4.439Y-4.6902
X4.439Y-4.7402
X4.439Y-4.7902
X4.4402Y-4.8366
X4.4402Y-4.8866
X4.4402Y-4.9366
X4.4402Y-4.9866
X4.4402Y-5.0366
X4.4402Y-5.0866
X4.4402Y-5.1319
X4.4402Y-5.1819
X4.4402Y-5.2319
X4.4402Y-5.2819
X4.4402Y-5.3319
X4.4402Y-5.3819
X4.489Y-4.2449
X4.489Y-4.2949
X4.489Y-4.3449
X4.489Y-4.3949
X4.489Y-4.4449
X4.489Y-4.4949
X4.489Y-4.5402
X4.489Y-4.5902
X4.489Y-4.6402
X4.489Y-4.6902
X4.489Y-4.7402
X4.489Y-4.7902
X4.4902Y-4.8366
X4.4902Y-4.8866
X4.4902Y-4.9366
X4.4902Y-4.9866
X4.4902Y-5.0366
X4.4902Y-5.0866
X4.4902Y-5.1319
X4.4902Y-5.1819
X4.4902Y-5.2319
X4.4902Y-5.2819
X4.4902Y-5.3319
X4.4902Y-5.3819
X4.5346Y-4.2449
X4.5346Y-4.2949
X4.5346Y-4.3449
X4.5346Y-4.3949
X4.5346Y-4.4449
X4.5346Y-4.4949
X4.5346Y-4.5402
X4.5346Y-4.5902
X4.5346Y-4.6402
X4.5346Y-4.6902
X4.5346Y-4.7402
X4.5346Y-4.7902
X4.5358Y-4.8366
X4.5358Y-4.8866
X4.5358Y-4.9366
X4.5358Y-4.9866
X4.5358Y-5.0366
X4.5358Y-5.0866
X4.5358Y-5.1319
X4.5358Y-5.1819
X4.5358Y-5.2319
X4.5358Y-5.2819
X4.5358Y-5.3319
X4.5358Y-5.3819
X4.5846Y-4.2449
X4.5846Y-4.2949
X4.5846Y-4.3449
X4.5846Y-4.3949
X4.5846Y-4.4449
X4.5846Y-4.4949
X4.5846Y-4.5402
X4.5846Y-4.5902
X4.5846Y-4.6402
X4.5846Y-4.6902
X4.5846Y-4.7402
X4.5846Y-4.7902
X4.5858Y-4.8366
X4.5858Y-4.8866
X4.5858Y-4.9366
X4.5858Y-4.9866
X4.5858Y-5.0366
X4.5858Y-5.0866
X4.5858Y-5.1319
X4.5858Y-5.1819
X4.5858Y-5.2319
X4.5858Y-5.2819
X4.5858Y-5.3319
X4.5858Y-5.3819
X4.623Y-6.7951
X4.6346Y-4.2449
X4.6346Y-4.2949
X4.6346Y-4.3449
X4.6346Y-4.3949
X4.6346Y-4.4449
X4.6346Y-4.4949
X4.6346Y-4.5402
X4.6346Y-4.5902
X4.6346Y-4.6402
X4.6346Y-4.6902
X4.6346Y-4.7402
X4.6346Y-4.7902
X4.6358Y-4.8366
X4.6358Y-4.8866
X4.6358Y-4.9366
X4.6358Y-4.9866
X4.6358Y-5.0366
X4.6358Y-5.0866
X4.6358Y-5.1319
X4.6358Y-5.1819
X4.6358Y-5.2319
X4.6358Y-5.2819
X4.6358Y-5.3319
X4.6358Y-5.3819
X4.6846Y-4.2449
X4.6846Y-4.2949
X4.6846Y-4.3449
X4.6846Y-4.3949
X4.6846Y-4.4449
X4.6846Y-4.4949
X4.6846Y-4.5402
X4.6846Y-4.5902
X4.6846Y-4.6402
X4.6846Y-4.6902
X4.6846Y-4.7402
X4.6846Y-4.7902
X4.6858Y-4.8366
X4.6858Y-4.8866
X4.6858Y-4.9366
X4.6858Y-4.9866
X4.6858Y-5.0366
X4.6858Y-5.0866
X4.6858Y-5.1319
X4.6858Y-5.1819
X4.6858Y-5.2319
X4.6858Y-5.2819
X4.6858Y-5.3319
X4.6858Y-5.3819
X4.7Y-3.25
X4.7Y-3.3
X4.7Y-3.35
X4.7Y-3.4
X4.7Y-3.45
X4.7Y-3.5
X4.7346Y-4.2449
X4.7346Y-4.2949
X4.7346Y-4.3449
X4.7346Y-4.3949
X4.7346Y-4.4449
X4.7346Y-4.4949
X4.7346Y-4.5402
X4.7346Y-4.5902
X4.7346Y-4.6402
X4.7346Y-4.6902
X4.7346Y-4.7402
X4.7346Y-4.7902
X4.7358Y-4.8366
X4.7358Y-4.8866
X4.7358Y-4.9366
X4.7358Y-4.9866
X4.7358Y-5.0366
X4.7358Y-5.0866
X4.7358Y-5.1319
X4.7358Y-5.1819
X4.7358Y-5.2319
X4.7358Y-5.2819
X4.7358Y-5.3319
X4.7358Y-5.3819
X4.747Y-6.7372
X4.75Y-3.25
X4.75Y-3.3
X4.75Y-3.35
X4.75Y-3.4
X4.75Y-3.45
X4.75Y-3.5
X4.7766Y-6.1368
X4.7846Y-4.2449
X4.7846Y-4.2949
X4.7846Y-4.3449
X4.7846Y-4.3949
X4.7846Y-4.4449
X4.7846Y-4.4949
X4.7846Y-4.5402
X4.7846Y-4.5902
X4.7846Y-4.6402
X4.7846Y-4.6902
X4.7846Y-4.7402
X4.7846Y-4.7902
X4.7858Y-4.8366
X4.7858Y-4.8866
X4.7858Y-4.9366
X4.7858Y-4.9866
X4.7858Y-5.0366
X4.7858Y-5.0866
X4.7858Y-5.1319
X4.7858Y-5.1819
X4.7858Y-5.2319
X4.7858Y-5.2819
X4.7858Y-5.3319
X4.7858Y-5.3819
X4.8Y-3.25
X4.8Y-3.3
X4.8Y-3.35
X4.8Y-3.4
X4.8Y-3.45
X4.8Y-3.5
X4.8199Y-1.9813
X4.8346Y-4.2449
X4.8346Y-4.2949
X4.8346Y-4.3449
X4.8346Y-4.3949
X4.8346Y-4.4449
X4.8346Y-4.4949
X4.8346Y-4.5402
X4.8346Y-4.5902
X4.8346Y-4.6402
X4.8346Y-4.6902
X4.8346Y-4.7402
X4.8346Y-4.7902
X4.8358Y-4.8366
X4.8358Y-4.8866
X4.8358Y-4.9366
X4.8358Y-4.9866
X4.8358Y-5.0366
X4.8358Y-5.0866
X4.8358Y-5.1319
X4.8358Y-5.1819
X4.8358Y-5.2319
X4.8358Y-5.2819
X4.8358Y-5.3319
X4.8358Y-5.3819
X4.85Y-3.25
X4.85Y-3.3
X4.85Y-3.35
X4.85Y-3.4
X4.85Y-3.45
X4.85Y-3.5
X4.8846Y-4.2449
X4.8846Y-4.2949
X4.8846Y-4.3449
X4.8846Y-4.3949
X4.8846Y-4.4449
X4.8846Y-4.4949
X4.8846Y-4.5402
X4.8846Y-4.5902
X4.8846Y-4.6402
X4.8846Y-4.6902
X4.8846Y-4.7402
X4.8846Y-4.7902
X4.8858Y-4.8366
X4.8858Y-4.8866
X4.8858Y-4.9366
X4.8858Y-4.9866
X4.8858Y-5.0366
X4.8858Y-5.0866
X4.8858Y-5.1319
X4.8858Y-5.1819
X4.8858Y-5.2319
X4.8858Y-5.2819
X4.8858Y-5.3319
X4.8858Y-5.3819
X4.9Y-3.25
X4.9Y-3.3
X4.9Y-3.35
X4.9Y-3.4
X4.9Y-3.45
X4.9Y-3.5
X4.9262Y-6.4587
X4.95Y-3.25
X4.95Y-3.3
X4.95Y-3.35
X4.95Y-3.4
X4.95Y-3.45
X4.95Y-3.5
X4.9547Y-6.6959
X4.9904Y-2.0284
X5.0Y-3.25
X5.0Y-3.3
X5.0Y-3.35
X5.0Y-3.4
X5.0Y-3.45
X5.0Y-3.5
X5.0406Y-2.898
X5.05Y-3.25
X5.05Y-3.3
X5.05Y-3.35
X5.05Y-3.4
X5.05Y-3.45
X5.05Y-3.5
X5.0709Y-2.0807
X5.1083Y-2.0797
X5.1457Y-2.4203
X5.1467Y-2.9409
X5.1841Y-6.3967
X5.1998Y-5.813
X5.2194Y-2.9684
X5.2642Y-2.6488
X5.2708Y-2.9676
X5.2923Y-1.8435
X5.3024Y-2.6492
X5.3435Y-2.9409
X5.3986Y-3.8327
X5.4012Y-3.0988
X5.4242Y-2.7874
X5.4272Y-5.937
X5.435Y-4.7884
X5.4587Y-3.6772
X5.4616Y-5.8376
X5.4734Y-4.8091
X5.4785Y-3.6032
X5.4852Y-3.5561
X5.501Y-3.998
X5.502Y-4.0384
X5.512Y-3.4398
X5.5396Y-3.369
X5.5433Y-6.2402
X5.5531Y-2.1801
X5.5711Y-3.302
X5.578Y-2.552
X5.5886Y-2.3799
X5.5974Y-1.8445
X5.6026Y-3.2351
X5.6213Y-2.5904
X5.6281Y-2.1396
X5.6329Y-2.8701
X5.6567Y-2.3108
X5.6656Y-3.2115
X5.6656Y-3.243
X5.6656Y-3.2863
X5.6695Y-3.3296
X5.6695Y-3.369
X5.6695Y-3.4123
X5.6762Y-3.5561
X5.6774Y-3.1682
X5.699Y-2.5175
X5.7118Y-2.1809
X5.7217Y-2.4713
X5.7256Y-3.0372
X5.7384Y-2.4545
X5.7404Y-3.0116
X5.764Y-2.6396
X5.7797Y-2.9929
X5.7797Y-3.1484
X5.7805Y-6.8612
X5.7953Y-7.1801
X5.8386Y-2.6417
X5.8386Y-6.0118
X5.8602Y-3.2835
X5.8752Y-2.6386
X5.8801Y-3.4801
X5.8809Y-2.1053
X5.8809Y-2.1299
X5.8829Y-2.1545
X5.8921Y-6.5319
X5.8998Y-2.9703
X5.9331Y-2.2756
X5.9677Y-3.3197
X5.9695Y-2.8563
X5.9715Y-2.7854
X5.9808Y-6.1796
X6.0108Y-2.7441
X6.0118Y-2.7864
X6.0344Y-6.0089
X6.0581Y-6.9085
X6.0593Y-3.1898
X6.0669Y-6.8504
X6.0701Y-3.3256
X6.0748Y-2.3465
X6.0799Y-3.4043
X6.0976Y-3.0234
X6.1073Y-7.2717
X6.122Y-2.2992
X6.1321Y-2.8138
X6.1348Y-2.438
X6.1388Y-6.0463
X6.1488Y-3.3659
X6.1585Y-2.3957
X6.1705Y-2.8138
X6.1919Y-2.1535
X6.1939Y-2.1299
X6.1949Y-2.1063
X6.2098Y-2.8138
X6.2354Y-3.1948
X6.2382Y-2.5594
X6.2463Y-2.9949
X6.2469Y-2.4564
X6.253Y-2.8839
X6.2648Y-2.7287
X6.2894Y-2.4961
X6.2925Y-3.1484
X6.312Y-4.1831
X6.3159Y-5.9242
X6.3327Y-4.3612
X6.3514Y-2.1181
X6.3543Y-2.2608
X6.3553Y-4.1575
X6.3573Y-2.3022
X6.3661Y-2.7287
X6.373Y-7.562
X6.3781Y-3.0983
X6.3952Y-2.1264
X6.4031Y-2.0359
X6.4075Y-3.0
X6.4154Y-4.3602
X6.4163Y-4.1811
X6.4242Y-3.1142
X6.4242Y-7.0138
X6.437Y-4.3356
X6.438Y-4.2717
X6.4409Y-5.1102
X6.4503Y-4.218
X6.4626Y-6.8947
X6.4715Y-5.8799
X6.4734Y-5.814
X6.4963Y-1.9713
X6.5031Y-2.4526
X6.5246Y-5.9744
X6.5266Y-5.936
X6.5344Y-5.3465
X6.5433Y-5.0709
X6.5522Y-6.0689
X6.563Y-2.6093
X6.572Y-2.3503
X6.5758Y-5.3317
X6.5837Y-3.9823
X6.6122Y-3.0541
X6.6457Y-3.0768
X6.6526Y-5.3465
X6.6673Y-2.1043
X6.6693Y-2.128
X6.6722Y-2.1516
X6.687Y-7.5472
X6.6919Y-5.3297
X6.702Y-3.116
X6.7264Y-2.3189
X6.7404Y-3.1377
X6.7835Y-2.8671
X6.7896Y-3.1652
X6.7915Y-2.5481
X6.8199Y-6.2224
X6.8248Y-5.3602
X6.8417Y-3.2075
X6.8622Y-2.3465
X6.8661Y-6.2402
X6.9451Y-3.4083
X6.9675Y-7.5837
X6.9726Y-3.3453
X6.9774Y-2.1506
X6.9783Y-2.126
X6.9793Y-2.1014
X6.9902Y-7.2657
X6.9963Y-3.2745
X7.0159Y-2.995
X7.0159Y-3.0698
X7.0199Y-3.1485
X7.2195Y-2.0256
X7.3573Y-7.0768
X7.4124Y-6.753
X7.4362Y-2.5382
X7.5217Y-2.4587
X7.5906Y-6.1299
X7.6663Y-3.4449
X7.7156Y-6.2667
X7.7165Y-6.1171
X7.812Y-6.2785
X7.9567Y-5.5374
X7.9705Y-3.4833
X8.55Y-2.15
X8.55Y-2.2
X8.55Y-2.25
X8.55Y-2.3
X8.55Y-2.35
X8.55Y-2.4
X8.5551Y-6.2795
X8.6Y-2.15
X8.6Y-2.2
X8.6Y-2.25
X8.6Y-2.3
X8.6Y-2.35
X8.6Y-2.4
X8.6171Y-5.5285
X8.6232Y-2.6988
X8.624Y-2.7654
X8.65Y-2.15
X8.65Y-2.2
X8.65Y-2.25
X8.65Y-2.3
X8.65Y-2.35
X8.65Y-2.4
X8.7Y-2.15
X8.7Y-2.2
X8.7Y-2.25
X8.7Y-2.3
X8.7Y-2.35
X8.7Y-2.4
X8.9016Y-6.5157
X8.9094Y-6.7598
X9.0612Y-5.0219
X9.239Y-5.2942
X9.2874Y-6.9921
X9.3425Y-2.0236
X9.3425Y-7.2953
X9.45Y-2.175
X9.5104Y-2.8326
X9.5433Y-6.0157
X9.5512Y-5.9764
X9.5787Y-2.1063
X9.5827Y-2.1339
X9.5827Y-2.1614
X9.6211Y-2.8681
X9.685Y-7.5039
X9.6929Y-4.5787
X9.6948Y-2.8661
X9.7317Y-2.581
X9.756Y-2.8661
X9.7699Y-2.581
X9.7717Y-2.3465
X9.7835Y-3.3858
X9.8163Y-5.366
X9.8189Y-5.811
X9.8278Y-2.8642
X9.8346Y-5.7008
X9.8465Y-3.3071
X9.85Y-4.75
X9.85Y-4.8
X9.85Y-4.8504
X9.85Y-4.9008
X9.85Y-4.9512
X9.85Y-5.0016
X9.85Y-5.05
X9.85Y-5.1
X9.85Y-5.1504
X9.85Y-5.2008
X9.85Y-5.2512
X9.85Y-5.3016
X9.8539Y-3.222
X9.8701Y-7.7362
X9.8787Y-3.0949
X9.8804Y-5.3538
X9.8819Y-2.1575
X9.8858Y-2.1063
X9.8858Y-2.1299
X9.9588Y-5.34
X9.9961Y-7.189
X9.9961Y-7.2835
X9.9961Y-7.6772
X9.997Y-5.3542
X9.997Y-7.0945
X10.0291Y-3.1504
X10.05Y-3.45
X10.05Y-3.5
X10.05Y-3.55
X10.05Y-3.6
X10.05Y-3.65
X10.05Y-3.7
X10.077Y-2.5707
X10.0839Y-2.3181
X10.1Y-3.45
X10.1Y-3.5
X10.1Y-3.55
X10.1Y-3.6
X10.1Y-3.65
X10.1Y-3.7
X10.1008Y-2.5083
X10.1055Y-2.5746
X10.1083Y-2.8799
X10.1207Y-4.1713
X10.122Y-7.4528
X10.125Y-4.2579
X10.1252Y-2.2823
X10.15Y-3.45
X10.15Y-3.5
X10.15Y-3.55
X10.15Y-3.6
X10.15Y-3.65
X10.15Y-3.7
X10.1634Y-4.1841
X10.1801Y-2.5157
X10.2Y-3.45
X10.2Y-3.5
X10.2Y-3.55
X10.2Y-3.6
X10.2Y-3.65
X10.2Y-3.7
X10.2037Y-4.3854
X10.2061Y-4.1791
X10.2098Y-2.4683
X10.2126Y-3.2205
X10.2195Y-2.1949
X10.2246Y-3.1484
X10.2283Y-7.374
X10.2295Y-2.4476
X10.2407Y-4.3858
X10.2435Y-4.1791
X10.2472Y-2.6376
X10.252Y-2.9843
X10.2598Y-3.2228
X10.2667Y-3.3376
X10.2726Y-3.3071
X10.2844Y-4.276
X10.3171Y-2.6406
X10.3495Y-5.9252
X10.3555Y-2.6396
X10.3604Y-3.4831
X10.363Y-2.1512
X10.3642Y-2.1272
X10.3646Y-2.1031
X10.3661Y-3.2667
X10.3986Y-6.0591
X10.3986Y-6.1673
X10.4094Y-2.2756
X10.4519Y-5.8228
X10.4559Y-2.7931
X10.4677Y-2.8699
X10.4795Y-5.9803
X10.4795Y-5.937
X10.4953Y-2.7931
X10.5315Y-6.937
X10.5413Y-6.6516
X10.5433Y-7.0079
X10.5435Y-3.3177
X10.5455Y-3.1898
X10.5632Y-3.4043
X10.5819Y-3.0215
X10.5866Y-2.315
X10.5955Y-3.2963
X10.6063Y-2.2992
X10.6144Y-2.8138
X10.6537Y-2.8128
X10.672Y-2.1539
X10.672Y-2.4024
X10.6732Y-3.7579
X10.6748Y-2.1299
X10.6752Y-2.1035
X10.685Y-6.9016
X10.6921Y-2.8128
X10.7057Y-4.0217
X10.7106Y-3.9429
X10.7146Y-2.6098
X10.7165Y-3.9754
X10.7285Y-2.9969
X10.7587Y-3.0
X10.7677Y-4.0659
X10.7965Y-2.1425
X10.8046Y-4.1245
X10.81Y-3.7205
X10.8166Y-3.1552
X10.8396Y-3.6969
X10.8504Y-7.1181
X10.8543Y-4.2283
X10.9969Y-3.1417
X11.0315Y-3.1366
X11.0406Y-3.3673
X11.0492Y-3.064
X11.05Y-4.3484
X11.05Y-4.3984
X11.05Y-4.4488
X11.05Y-4.4992
X11.05Y-4.5496
X11.05Y-4.6
X11.05Y-4.6484
X11.05Y-4.6984
X11.05Y-4.7488
X11.05Y-4.7992
X11.05Y-4.8496
X11.05Y-4.9
X11.05Y-4.9484
X11.05Y-4.9984
X11.05Y-5.0488
X11.05Y-5.0992
X11.05Y-5.1496
X11.05Y-5.2
X11.0535Y-2.3555
X11.065Y-2.6093
X11.0736Y-3.3681
X11.0787Y-6.685
X11.0817Y-3.061
X11.0868Y-2.2115
X11.1Y-4.3484
X11.1Y-4.3984
X11.1Y-4.4488
X11.1Y-4.4992
X11.1Y-4.5496
X11.1Y-4.6
X11.1Y-4.6484
X11.1Y-4.6984
X11.1Y-4.7488
X11.1Y-4.7992
X11.1Y-4.8496
X11.1Y-4.9
X11.1Y-4.9484
X11.1Y-4.9984
X11.1Y-5.0488
X11.1Y-5.0992
X11.1Y-5.1496
X11.1Y-5.2
X11.1083Y-3.3681
X11.123Y-3.0551
X11.1309Y-2.0815
X11.1467Y-3.3711
X11.15Y-4.3484
X11.15Y-4.3984
X11.15Y-4.4488
X11.15Y-4.4992
X11.15Y-4.5496
X11.15Y-4.6
X11.15Y-4.6484
X11.15Y-4.6984
X11.15Y-4.7488
X11.15Y-4.7992
X11.15Y-4.8496
X11.15Y-4.9
X11.15Y-4.9484
X11.15Y-4.9984
X11.15Y-5.0488
X11.15Y-5.0992
X11.15Y-5.1496
X11.15Y-5.2
X11.1713Y-1.9969
X11.1821Y-3.372
X11.2Y-4.3484
X11.2Y-4.3984
X11.2Y-4.4488
X11.2Y-4.4992
X11.2Y-4.5496
X11.2Y-4.6
X11.2Y-4.6484
X11.2Y-4.6984
X11.2Y-4.7488
X11.2Y-4.7992
X11.2Y-4.8496
X11.2Y-4.9
X11.2Y-4.9484
X11.2Y-4.9984
X11.2Y-5.0488
X11.2Y-5.0992
X11.2Y-5.1496
X11.2Y-5.2
X11.2043Y-2.848
X11.2106Y-2.5846
X11.2126Y-2.3839
X11.2323Y-2.9177
X11.25Y-4.3484
X11.25Y-4.3984
X11.25Y-4.4488
X11.25Y-4.4992
X11.25Y-4.5496
X11.25Y-4.6
X11.25Y-4.6484
X11.25Y-4.6984
X11.25Y-4.7488
X11.25Y-4.7992
X11.25Y-4.8496
X11.25Y-4.9
X11.25Y-4.9484
X11.25Y-4.9984
X11.25Y-5.0488
X11.25Y-5.0992
X11.25Y-5.1496
X11.25Y-5.2
X11.2638Y-1.8425
X11.3Y-4.3484
X11.3Y-4.3984
X11.3Y-4.4488
X11.3Y-4.4992
X11.3Y-4.5496
X11.3Y-4.6
X11.3Y-4.6484
X11.3Y-4.6984
X11.3Y-4.7488
X11.3Y-4.7992
X11.3Y-4.8496
X11.3Y-4.9
X11.3Y-4.9484
X11.3Y-4.9984
X11.3Y-5.0488
X11.3Y-5.0992
X11.3Y-5.1496
X11.3Y-5.2
X11.3268Y-6.5512
X11.328Y-2.915
X11.35Y-4.3484
X11.35Y-4.3984
X11.35Y-4.4488
X11.35Y-4.4992
X11.35Y-4.5496
X11.35Y-4.6
X11.35Y-4.6484
X11.35Y-4.6984
X11.35Y-4.7488
X11.35Y-4.7992
X11.35Y-4.8496
X11.35Y-4.9
X11.35Y-4.9484
X11.35Y-4.9984
X11.35Y-5.0488
X11.35Y-5.0992
X11.35Y-5.1496
X11.35Y-5.2
X11.3811Y-2.2233
X11.3868Y-3.1614
X11.4Y-4.3484
X11.4Y-4.3984
X11.4Y-4.4488
X11.4Y-4.4992
X11.4Y-4.5496
X11.4Y-4.6
X11.4Y-4.6484
X11.4Y-4.6984
X11.4Y-4.7488
X11.4Y-4.7992
X11.4Y-4.8496
X11.4Y-4.9
X11.4Y-4.9484
X11.4Y-4.9984
X11.4Y-5.0488
X11.4Y-5.0992
X11.4Y-5.1496
X11.4Y-5.2
X11.4173Y-2.0039
X11.437Y-2.4508
X11.45Y-4.3484
X11.45Y-4.3984
X11.45Y-4.4488
X11.45Y-4.4992
X11.45Y-4.5496
X11.45Y-4.6
X11.45Y-4.6484
X11.45Y-4.6984
X11.45Y-4.7488
X11.45Y-4.7992
X11.45Y-4.8496
X11.45Y-4.9
X11.45Y-4.9484
X11.45Y-4.9984
X11.45Y-5.0488
X11.45Y-5.0992
X11.45Y-5.1496
X11.45Y-5.2
X11.4803Y-6.4331
X11.5Y-4.3484
X11.5Y-4.3984
X11.5Y-4.4488
X11.5Y-4.4992
X11.5Y-4.5496
X11.5Y-4.6
X11.5Y-4.6484
X11.5Y-4.6984
X11.5Y-4.7488
X11.5Y-4.7992
X11.5Y-4.8496
X11.5Y-4.9
X11.5Y-4.9484
X11.5Y-4.9984
X11.5Y-5.0488
X11.5Y-5.0992
X11.5Y-5.1496
X11.5Y-5.2
X11.5187Y-3.7106
X11.5268Y-2.0461
X11.5701Y-2.0618
X11.6053Y-6.0571
X11.6604Y-2.6654
X11.6742Y-6.0768
X11.6772Y-3.5561
X11.6801Y-6.0276
X11.7008Y-2.0482
X11.7087Y-6.6142
X11.7441Y-6.4508
X11.8465Y-6.378
X11.8465Y-6.8071
X11.872Y-6.689
X11.95Y-2.1984
X11.95Y-2.2484
X11.95Y-2.2988
X11.95Y-2.3492
X11.95Y-2.3996
X11.95Y-2.45
X11.95Y-2.4984
X11.95Y-2.5484
X11.95Y-2.5988
X11.9705Y-2.7913
X12.0Y-2.1984
X12.0Y-2.2484
X12.0Y-2.2988
X12.0Y-2.3492
X12.0Y-2.3996
X12.0Y-2.45
X12.0Y-2.4984
X12.0Y-2.5484
X12.0Y-2.5988
X12.05Y-2.1984
X12.05Y-2.2484
X12.05Y-2.2988
X12.05Y-2.3492
X12.05Y-2.3996
X12.05Y-2.45
X12.05Y-2.4984
X12.05Y-2.5484
X12.05Y-2.5988
X12.1Y-2.1984
X12.1Y-2.2484
X12.1Y-2.2988
X12.1Y-2.3492
X12.1Y-2.3996
X12.1Y-2.45
X12.1Y-2.4984
X12.1Y-2.5484
X12.1Y-2.5988
X12.15Y-2.1984
X12.15Y-2.2484
X12.15Y-2.2988
X12.15Y-2.3492
X12.15Y-2.3996
X12.15Y-2.45
X12.15Y-2.4984
X12.15Y-2.5484
X12.15Y-2.5988
X12.2Y-2.1984
X12.2Y-2.2484
X12.2Y-2.2988
X12.2Y-2.3492
X12.2Y-2.3996
X12.2Y-2.45
X12.2Y-2.4984
X12.2Y-2.5484
X12.2Y-2.5988
X12.2323Y-6.7205
X12.25Y-2.1984
X12.25Y-2.2484
X12.25Y-2.2988
X12.25Y-2.3492
X12.25Y-2.3996
X12.25Y-2.45
X12.25Y-2.4984
X12.25Y-2.5484
X12.25Y-2.5988
X12.2677Y-2.8583
X12.3Y-2.1984
X12.3Y-2.2484
X12.3Y-2.2988
X12.3Y-2.3492
X12.3Y-2.3996
X12.3Y-2.45
X12.3Y-2.4984
X12.3Y-2.5484
X12.3Y-2.5988
X12.3Y-3.1992
X12.3Y-3.2492
X12.3Y-3.2996
X12.3Y-3.35
X12.3Y-3.4004
X12.3Y-3.4508
X12.3Y-3.4992
X12.3Y-3.5492
X12.3Y-3.5996
X12.3Y-3.65
X12.3Y-3.7004
X12.3Y-3.7508
X12.3307Y-2.874
X12.35Y-2.1984
X12.35Y-2.2484
X12.35Y-2.2988
X12.35Y-2.3492
X12.35Y-2.3996
X12.35Y-2.45
X12.35Y-2.4984
X12.35Y-2.5484
X12.35Y-2.5988
X12.35Y-3.1992
X12.35Y-3.2492
X12.35Y-3.2996
X12.35Y-3.35
X12.35Y-3.4004
X12.35Y-3.4508
X12.35Y-3.4992
X12.35Y-3.5492
X12.35Y-3.5996
X12.35Y-3.65
X12.35Y-3.7004
X12.35Y-3.7508
X12.4Y-2.1984
X12.4Y-2.2484
X12.4Y-2.2988
X12.4Y-2.3492
X12.4Y-2.3996
X12.4Y-2.45
X12.4Y-2.4984
X12.4Y-2.5484
X12.4Y-2.5988
X12.4Y-3.1992
X12.4Y-3.2492
X12.4Y-3.2996
X12.4Y-3.35
X12.4Y-3.4004
X12.4Y-3.4508
X12.4Y-3.4992
X12.4Y-3.5492
X12.4Y-3.5996
X12.4Y-3.65
X12.4Y-3.7004
X12.4Y-3.7508
X12.425Y-6.475
X12.4409Y-6.6654
X12.45Y-2.1984
X12.45Y-2.2484
X12.45Y-2.2988
X12.45Y-2.3492
X12.45Y-2.3996
X12.45Y-2.45
X12.45Y-2.4984
X12.45Y-2.5484
X12.45Y-2.5988
X12.45Y-3.1992
X12.45Y-3.2492
X12.45Y-3.2996
X12.45Y-3.35
X12.45Y-3.4004
X12.45Y-3.4508
X12.45Y-3.4992
X12.45Y-3.5492
X12.45Y-3.5996
X12.45Y-3.65
X12.45Y-3.7004
X12.45Y-3.7508
X12.4575Y-6.163
X12.4795Y-6.6398
X12.5Y-2.1984
X12.5Y-2.2484
X12.5Y-2.2988
X12.5Y-2.3492
X12.5Y-2.3996
X12.5Y-2.45
X12.5Y-2.4984
X12.5Y-2.5484
X12.5Y-2.5988
X12.5Y-3.1992
X12.5Y-3.2492
X12.5Y-3.2996
X12.5Y-3.35
X12.5Y-3.4004
X12.5Y-3.4508
X12.5Y-3.4992
X12.5Y-3.5492
X12.5Y-3.5996
X12.5Y-3.65
X12.5Y-3.7004
X12.5Y-3.7508
X12.55Y-2.1984
X12.55Y-2.2484
X12.55Y-2.2988
X12.55Y-2.3492
X12.55Y-2.3996
X12.55Y-2.45
X12.55Y-2.4984
X12.55Y-2.5484
X12.55Y-2.5988
X12.55Y-3.1992
X12.55Y-3.2492
X12.55Y-3.2996
X12.55Y-3.35
X12.55Y-3.4004
X12.55Y-3.4508
X12.55Y-3.4992
X12.55Y-3.5492
X12.55Y-3.5996
X12.55Y-3.65
X12.55Y-3.7004
X12.55Y-3.7508
X12.6Y-2.1984
X12.6Y-2.2484
X12.6Y-2.2988
X12.6Y-2.3492
X12.6Y-2.3996
X12.6Y-2.45
X12.6Y-2.4984
X12.6Y-2.5484
X12.6Y-2.5988
X12.6Y-3.1992
X12.6Y-3.2492
X12.6Y-3.2996
X12.6Y-3.35
X12.6Y-3.4004
X12.6Y-3.4508
X12.6Y-3.4992
X12.6Y-3.5492
X12.6Y-3.5996
X12.6Y-3.65
X12.6Y-3.7004
X12.6Y-3.7508
X12.6457Y-6.4449
X12.65Y-2.1984
X12.65Y-2.2484
X12.65Y-2.2988
X12.65Y-2.3492
X12.65Y-2.3996
X12.65Y-2.45
X12.65Y-2.4984
X12.65Y-2.5484
X12.65Y-2.5988
X12.65Y-3.1992
X12.65Y-3.2492
X12.65Y-3.2996
X12.65Y-3.35
X12.65Y-3.4004
X12.65Y-3.4508
X12.65Y-3.4992
X12.65Y-3.5492
X12.65Y-3.5996
X12.65Y-3.65
X12.65Y-3.7004
X12.65Y-3.7508
X12.7Y-2.1984
X12.7Y-2.2484
X12.7Y-2.2988
X12.7Y-2.3492
X12.7Y-2.3996
X12.7Y-2.45
X12.7Y-2.4984
X12.7Y-2.5484
X12.7Y-2.5988
X12.7Y-3.1992
X12.7Y-3.2492
X12.7Y-3.2996
X12.7Y-3.35
X12.7Y-3.4004
X12.7Y-3.4508
X12.7Y-3.4992
X12.7Y-3.5492
X12.7Y-3.5996
X12.7Y-3.65
X12.7Y-3.7004
X12.7Y-3.7508
X12.75Y-2.1984
X12.75Y-2.2484
X12.75Y-2.2988
X12.75Y-2.3492
X12.75Y-2.3996
X12.75Y-2.45
X12.75Y-2.4984
X12.75Y-2.5484
X12.75Y-2.5988
X12.75Y-3.1992
X12.75Y-3.2492
X12.75Y-3.2996
X12.75Y-3.35
X12.75Y-3.4004
X12.75Y-3.4508
X12.75Y-3.4992
X12.75Y-3.5492
X12.75Y-3.5996
X12.75Y-3.65
X12.75Y-3.7004
X12.75Y-3.7508
X12.7726Y-5.638
X12.8Y-2.1984
X12.8Y-2.2484
X12.8Y-2.2988
X12.8Y-2.3492
X12.8Y-2.3996
X12.8Y-2.45
X12.8Y-2.4984
X12.8Y-2.5484
X12.8Y-2.5988
X12.8Y-3.1992
X12.8Y-3.2492
X12.8Y-3.2996
X12.8Y-3.35
X12.8Y-3.4004
X12.8Y-3.4508
X12.8Y-3.4992
X12.8Y-3.5492
X12.8Y-3.5996
X12.8Y-3.65
X12.8Y-3.7004
X12.8Y-3.7508
X12.85Y-2.1984
X12.85Y-2.2484
X12.85Y-2.2988
X12.85Y-2.3492
X12.85Y-2.3996
X12.85Y-2.45
X12.85Y-2.4984
X12.85Y-2.5484
X12.85Y-2.5988
X12.85Y-3.1992
X12.85Y-3.2492
X12.85Y-3.2996
X12.85Y-3.35
X12.85Y-3.4004
X12.85Y-3.4508
X12.85Y-3.4992
X12.85Y-3.5492
X12.85Y-3.5996
X12.85Y-3.65
X12.85Y-3.7004
X12.85Y-3.7508
X12.9Y-2.1984
X12.9Y-2.2484
X12.9Y-2.2988
X12.9Y-2.3492
X12.9Y-2.3996
X12.9Y-2.45
X12.9Y-2.4984
X12.9Y-2.5484
X12.9Y-2.5988
X12.9Y-3.1992
X12.9Y-3.2492
X12.9Y-3.2996
X12.9Y-3.35
X12.9Y-3.4004
X12.9Y-3.4508
X12.9Y-3.4992
X12.9Y-3.5492
X12.9Y-3.5996
X12.9Y-3.65
X12.9Y-3.7004
X12.9Y-3.7508
X12.9488Y-5.9961
X12.95Y-3.1992
X12.95Y-3.2492
X12.95Y-3.2996
X12.95Y-3.35
X12.95Y-3.4004
X12.95Y-3.4508
X12.95Y-3.4992
X12.95Y-3.5492
X12.95Y-3.5996
X12.95Y-3.65
X12.95Y-3.7004
X12.95Y-3.7508
X12.9882Y-6.0039
X13.0Y-3.1992
X13.0Y-3.2492
X13.0Y-3.2996
X13.0Y-3.35
X13.0Y-3.4004
X13.0Y-3.4508
X13.0Y-3.4992
X13.0Y-3.5492
X13.0Y-3.5996
X13.0Y-3.65
X13.0Y-3.7004
X13.0Y-3.7508
X13.0021Y-5.6341
X13.05Y-3.1992
X13.05Y-3.2492
X13.05Y-3.2996
X13.05Y-3.35
X13.05Y-3.4004
X13.05Y-3.4508
X13.05Y-3.4992
X13.05Y-3.5492
X13.05Y-3.5996
X13.05Y-3.65
X13.05Y-3.7004
X13.05Y-3.7508
X13.05Y-4.1996
X13.05Y-4.2496
X13.05Y-4.3
X13.05Y-4.3504
X13.05Y-4.4008
X13.05Y-4.4512
X13.05Y-4.4996
X13.05Y-4.5496
X13.05Y-4.6
X13.05Y-4.6504
X13.05Y-4.7008
X13.05Y-4.7512
X13.05Y-4.7984
X13.05Y-4.8484
X13.05Y-4.8988
X13.05Y-4.9492
X13.05Y-4.9996
X13.05Y-5.05
X13.05Y-5.0984
X13.05Y-5.1484
X13.05Y-5.1988
X13.05Y-5.2492
X13.05Y-5.2996
X13.05Y-5.35
X13.1Y-3.1992
X13.1Y-3.2492
X13.1Y-3.2996
X13.1Y-3.35
X13.1Y-3.4004
X13.1Y-3.4508
X13.1Y-3.4992
X13.1Y-3.5492
X13.1Y-3.5996
X13.1Y-3.65
X13.1Y-3.7004
X13.1Y-3.7508
X13.1Y-4.1996
X13.1Y-4.2496
X13.1Y-4.3
X13.1Y-4.3504
X13.1Y-4.4008
X13.1Y-4.4512
X13.1Y-4.4996
X13.1Y-4.5496
X13.1Y-4.6
X13.1Y-4.6504
X13.1Y-4.7008
X13.1Y-4.7512
X13.1Y-4.7984
X13.1Y-4.8484
X13.1Y-4.8988
X13.1Y-4.9492
X13.1Y-4.9996
X13.1Y-5.05
X13.1Y-5.0984
X13.1Y-5.1484
X13.1Y-5.1988
X13.1Y-5.2492
X13.1Y-5.2996
X13.1Y-5.35
X13.15Y-3.1992
X13.15Y-3.2492
X13.15Y-3.2996
X13.15Y-3.35
X13.15Y-3.4004
X13.15Y-3.4508
X13.15Y-3.4992
X13.15Y-3.5492
X13.15Y-3.5996
X13.15Y-3.65
X13.15Y-3.7004
X13.15Y-3.7508
X13.15Y-4.1996
X13.15Y-4.2496
X13.15Y-4.3
X13.15Y-4.3504
X13.15Y-4.4008
X13.15Y-4.4512
X13.15Y-4.4996
X13.15Y-4.5496
X13.15Y-4.6
X13.15Y-4.6504
X13.15Y-4.7008
X13.15Y-4.7512
X13.15Y-4.7984
X13.15Y-4.8484
X13.15Y-4.8988
X13.15Y-4.9492
X13.15Y-4.9996
X13.15Y-5.05
X13.15Y-5.0984
X13.15Y-5.1484
X13.15Y-5.1988
X13.15Y-5.2492
X13.15Y-5.2996
X13.15Y-5.35
X13.185Y-5.7913
X13.2Y-3.1992
X13.2Y-3.2492
X13.2Y-3.2996
X13.2Y-3.35
X13.2Y-3.4004
X13.2Y-3.4508
X13.2Y-3.4992
X13.2Y-3.5492
X13.2Y-3.5996
X13.2Y-3.65
X13.2Y-3.7004
X13.2Y-3.7508
X13.2Y-4.1996
X13.2Y-4.2496
X13.2Y-4.3
X13.2Y-4.3504
X13.2Y-4.4008
X13.2Y-4.4512
X13.2Y-4.4996
X13.2Y-4.5496
X13.2Y-4.6
X13.2Y-4.6504
X13.2Y-4.7008
X13.2Y-4.7512
X13.2Y-4.7984
X13.2Y-4.8484
X13.2Y-4.8988
X13.2Y-4.9492
X13.2Y-4.9996
X13.2Y-5.05
X13.2Y-5.0984
X13.2Y-5.1484
X13.2Y-5.1988
X13.2Y-5.2492
X13.2Y-5.2996
X13.2Y-5.35
X13.25Y-3.1992
X13.25Y-3.2492
X13.25Y-3.2996
X13.25Y-3.35
X13.25Y-3.4004
X13.25Y-3.4508
X13.25Y-3.4992
X13.25Y-3.5492
X13.25Y-3.5996
X13.25Y-3.65
X13.25Y-3.7004
X13.25Y-3.7508
X13.25Y-4.1996
X13.25Y-4.2496
X13.25Y-4.3
X13.25Y-4.3504
X13.25Y-4.4008
X13.25Y-4.4512
X13.25Y-4.4996
X13.25Y-4.5496
X13.25Y-4.6
X13.25Y-4.6504
X13.25Y-4.7008
X13.25Y-4.7512
X13.25Y-4.7984
X13.25Y-4.8484
X13.25Y-4.8988
X13.25Y-4.9492
X13.25Y-4.9996
X13.25Y-5.05
X13.25Y-5.0984
X13.25Y-5.1484
X13.25Y-5.1988
X13.25Y-5.2492
X13.25Y-5.2996
X13.25Y-5.35
X13.2579Y-2.5295
X13.3Y-4.1996
X13.3Y-4.2496
X13.3Y-4.3
X13.3Y-4.3504
X13.3Y-4.4008
X13.3Y-4.4512
X13.3Y-4.4996
X13.3Y-4.5496
X13.3Y-4.6
X13.3Y-4.6504
X13.3Y-4.7008
X13.3Y-4.7512
X13.3Y-4.7984
X13.3Y-4.8484
X13.3Y-4.8988
X13.3Y-4.9492
X13.3Y-4.9996
X13.3Y-5.05
X13.3Y-5.0984
X13.3Y-5.1484
X13.3Y-5.1988
X13.3Y-5.2492
X13.3Y-5.2996
X13.3Y-5.35
X13.35Y-4.1996
X13.35Y-4.2496
X13.35Y-4.3
X13.35Y-4.3504
X13.35Y-4.4008
X13.35Y-4.4512
X13.35Y-4.4996
X13.35Y-4.5496
X13.35Y-4.6
X13.35Y-4.6504
X13.35Y-4.7008
X13.35Y-4.7512
X13.35Y-4.7984
X13.35Y-4.8484
X13.35Y-4.8988
X13.35Y-4.9492
X13.35Y-4.9996
X13.35Y-5.05
X13.35Y-5.0984
X13.35Y-5.1484
X13.35Y-5.1988
X13.35Y-5.2492
X13.35Y-5.2996
X13.35Y-5.35
X13.4Y-4.1996
X13.4Y-4.2496
X13.4Y-4.3
X13.4Y-4.3504
X13.4Y-4.4008
X13.4Y-4.4512
X13.4Y-4.4996
X13.4Y-4.5496
X13.4Y-4.6
X13.4Y-4.6504
X13.4Y-4.7008
X13.4Y-4.7512
X13.4Y-4.7984
X13.4Y-4.8484
X13.4Y-4.8988
X13.4Y-4.9492
X13.4Y-4.9996
X13.4Y-5.05
X13.4Y-5.0984
X13.4Y-5.1484
X13.4Y-5.1988
X13.4Y-5.2492
X13.4Y-5.2996
X13.4Y-5.35
X13.45Y-4.1996
X13.45Y-4.2496
X13.45Y-4.3
X13.45Y-4.3504
X13.45Y-4.4008
X13.45Y-4.4512
X13.45Y-4.4996
X13.45Y-4.5496
X13.45Y-4.6
X13.45Y-4.6504
X13.45Y-4.7008
X13.45Y-4.7512
X13.45Y-4.7984
X13.45Y-4.8484
X13.45Y-4.8988
X13.45Y-4.9492
X13.45Y-4.9996
X13.45Y-5.05
X13.45Y-5.0984
X13.45Y-5.1484
X13.45Y-5.1988
X13.45Y-5.2492
X13.45Y-5.2996
X13.45Y-5.35
X13.5Y-4.1996
X13.5Y-4.2496
X13.5Y-4.3
X13.5Y-4.3504
X13.5Y-4.4008
X13.5Y-4.4512
X13.5Y-4.4996
X13.5Y-4.5496
X13.5Y-4.6
X13.5Y-4.6504
X13.5Y-4.7008
X13.5Y-4.7512
X13.5Y-4.7984
X13.5Y-4.8484
X13.5Y-4.8988
X13.5Y-4.9492
X13.5Y-4.9996
X13.5Y-5.05
X13.5Y-5.0984
X13.5Y-5.1484
X13.5Y-5.1988
X13.5Y-5.2492
X13.5Y-5.2996
X13.5Y-5.35
X13.55Y-4.1996
X13.55Y-4.2496
X13.55Y-4.3
X13.55Y-4.3504
X13.55Y-4.4008
X13.55Y-4.4512
X13.55Y-4.4996
X13.55Y-4.5496
X13.55Y-4.6
X13.55Y-4.6504
X13.55Y-4.7008
X13.55Y-4.7512
X13.55Y-4.7984
X13.55Y-4.8484
X13.55Y-4.8988
X13.55Y-4.9492
X13.55Y-4.9996
X13.55Y-5.05
X13.55Y-5.0984
X13.55Y-5.1484
X13.55Y-5.1988
X13.55Y-5.2492
X13.55Y-5.2996
X13.55Y-5.35
X13.6Y-4.1996
X13.6Y-4.2496
X13.6Y-4.3
X13.6Y-4.3504
X13.6Y-4.4008
X13.6Y-4.4512
X13.6Y-4.4996
X13.6Y-4.5496
X13.6Y-4.6
X13.6Y-4.6504
X13.6Y-4.7008
X13.6Y-4.7512
X13.6Y-4.7984
X13.6Y-4.8484
X13.6Y-4.8988
X13.6Y-4.9492
X13.6Y-4.9996
X13.6Y-5.05
X13.6Y-5.0984
X13.6Y-5.1484
X13.6Y-5.1988
X13.6Y-5.2492
X13.6Y-5.2996
X13.6Y-5.35
X13.65Y-4.1996
X13.65Y-4.2496
X13.65Y-4.3
X13.65Y-4.3504
X13.65Y-4.4008
X13.65Y-4.4512
X13.65Y-4.4996
X13.65Y-4.5496
X13.65Y-4.6
X13.65Y-4.6504
X13.65Y-4.7008
X13.65Y-4.7512
X13.65Y-4.7984
X13.65Y-4.8484
X13.65Y-4.8988
X13.65Y-4.9492
X13.65Y-4.9996
X13.65Y-5.05
X13.65Y-5.0984
X13.65Y-5.1484
X13.65Y-5.1988
X13.65Y-5.2492
X13.65Y-5.2996
X13.65Y-5.35
X13.7Y-4.1996
X13.7Y-4.2496
X13.7Y-4.3
X13.7Y-4.3504
X13.7Y-4.4008
X13.7Y-4.4512
X13.7Y-4.4996
X13.7Y-4.5496
X13.7Y-4.6
X13.7Y-4.6504
X13.7Y-4.7008
X13.7Y-4.7512
X13.7Y-4.7984
X13.7Y-4.8484
X13.7Y-4.8988
X13.7Y-4.9492
X13.7Y-4.9996
X13.7Y-5.05
X13.7Y-5.0984
X13.7Y-5.1484
X13.7Y-5.1988
X13.7Y-5.2492
X13.7Y-5.2996
X13.7Y-5.35
X13.7362Y-5.9921
X13.75Y-4.1996
X13.75Y-4.2496
X13.75Y-4.3
X13.75Y-4.3504
X13.75Y-4.4008
X13.75Y-4.4512
X13.75Y-4.4996
X13.75Y-4.5496
X13.75Y-4.6
X13.75Y-4.6504
X13.75Y-4.7008
X13.75Y-4.7512
X13.75Y-4.7984
X13.75Y-4.8484
X13.75Y-4.8988
X13.75Y-4.9492
X13.75Y-4.9996
X13.75Y-5.05
X13.75Y-5.0984
X13.75Y-5.1484
X13.75Y-5.1988
X13.75Y-5.2492
X13.75Y-5.2996
X13.75Y-5.35
X13.8Y-4.1996
X13.8Y-4.2496
X13.8Y-4.3
X13.8Y-4.3504
X13.8Y-4.4008
X13.8Y-4.4512
X13.8Y-4.4996
X13.8Y-4.5496
X13.8Y-4.6
X13.8Y-4.6504
X13.8Y-4.7008
X13.8Y-4.7512
X13.8Y-4.7984
X13.8Y-4.8484
X13.8Y-4.8988
X13.8Y-4.9492
X13.8Y-4.9996
X13.8Y-5.05
X13.8Y-5.0984
X13.8Y-5.1484
X13.8Y-5.1988
X13.8Y-5.2492
X13.8Y-5.2996
X13.8Y-5.35
X13.85Y-4.1996
X13.85Y-4.2496
X13.85Y-4.3
X13.85Y-4.3504
X13.85Y-4.4008
X13.85Y-4.4512
X13.85Y-4.4996
X13.85Y-4.5496
X13.85Y-4.6
X13.85Y-4.6504
X13.85Y-4.7008
X13.85Y-4.7512
X13.85Y-4.7984
X13.85Y-4.8484
X13.85Y-4.8988
X13.85Y-4.9492
X13.85Y-4.9996
X13.85Y-5.05
X13.85Y-5.0984
X13.85Y-5.1484
X13.85Y-5.1988
X13.85Y-5.2492
X13.85Y-5.2996
X13.85Y-5.35
X13.9Y-4.1996
X13.9Y-4.2496
X13.9Y-4.3
X13.9Y-4.3504
X13.9Y-4.4008
X13.9Y-4.4512
X13.9Y-4.4996
X13.9Y-4.5496
X13.9Y-4.6
X13.9Y-4.6504
X13.9Y-4.7008
X13.9Y-4.7512
X13.9Y-4.7984
X13.9Y-4.8484
X13.9Y-4.8988
X13.9Y-4.9492
X13.9Y-4.9996
X13.9Y-5.05
X13.9Y-5.0984
X13.9Y-5.1484
X13.9Y-5.1988
X13.9Y-5.2492
X13.9Y-5.2996
X13.9Y-5.35
X13.9094Y-2.6575
X13.95Y-4.1996
X13.95Y-4.2496
X13.95Y-4.3
X13.95Y-4.3504
X13.95Y-4.4008
X13.95Y-4.4512
X13.95Y-4.4996
X13.95Y-4.5496
X13.95Y-4.6
X13.95Y-4.6504
X13.95Y-4.7008
X13.95Y-4.7512
X13.95Y-4.7984
X13.95Y-4.8484
X13.95Y-4.8988
X13.95Y-4.9492
X13.95Y-4.9996
X13.95Y-5.05
X13.95Y-5.0984
X13.95Y-5.1484
X13.95Y-5.1988
X13.95Y-5.2492
X13.95Y-5.2996
X13.95Y-5.35
X13.9724Y-5.7953
X14.0Y-4.1996
X14.0Y-4.2496
X14.0Y-4.3
X14.0Y-4.3504
X14.0Y-4.4008
X14.0Y-4.4512
X14.0Y-4.4996
X14.0Y-4.5496
X14.0Y-4.6
X14.0Y-4.6504
X14.0Y-4.7008
X14.0Y-4.7512
X14.0Y-4.7984
X14.0Y-4.8484
X14.0Y-4.8988
X14.0Y-4.9492
X14.0Y-4.9996
X14.0Y-5.05
X14.0Y-5.0984
X14.0Y-5.1484
X14.0Y-5.1988
X14.0Y-5.2492
X14.0Y-5.2996
X14.0Y-5.35
X14.2126Y-4.126
X14.2165Y-3.1417
X14.2165Y-5.1063
X14.4213Y-5.5315
X14.4331Y-3.374
X14.4331Y-4.3583
X14.437Y-5.3425
T2
X5.9864Y-3.0589
X5.9864Y-3.1091
X5.9864Y-3.1593
X6.0366Y-3.0589
X6.0366Y-3.1091
X6.0366Y-3.1593
X6.0868Y-3.0589
X6.0868Y-3.1091
X6.0868Y-3.1593
X10.4697Y-3.0589
X10.4697Y-3.1091
X10.4697Y-3.1593
X10.5199Y-3.0589
X10.5199Y-3.1091
X10.5199Y-3.1593
X10.5701Y-3.0589
X10.5701Y-3.1091
X10.5701Y-3.1593
T3
X6.6909Y-2.8681
X6.6929Y-2.9045
X6.6949Y-2.939
X8.95Y-2.4598
X9.7067Y-2.5386
X9.7364Y-5.5278
X9.7844Y-5.5256
X10.1988Y-7.0807
X10.3456Y-5.7874
X10.6319Y-2.7705
X10.9232Y-2.287
X11.3031Y-2.622
X11.3031Y-2.6555
X11.3051Y-2.5866
T4
X2.1253Y-5.8612
X2.153Y-5.7944
X2.153Y-5.928
X2.1626Y-2.6563
X2.1903Y-2.5895
X2.1903Y-2.7231
X2.2198Y-5.7667
X2.2198Y-5.9557
X2.2571Y-2.5618
X2.2571Y-2.7508
X2.2866Y-5.7944
X2.2866Y-5.928
X2.3143Y-5.8612
X2.3239Y-2.5895
X2.3239Y-2.7231
X2.3516Y-2.6563
X3.7518Y-6.2384
X3.7794Y-6.1716
X3.7794Y-6.3053
X3.8463Y-6.144
X3.8463Y-6.3329
X3.9131Y-6.1716
X3.9131Y-6.3053
X3.9407Y-6.2384
X4.3673Y-2.0264
X4.395Y-1.9596
X4.395Y-2.0932
X4.4618Y-1.9319
X4.4618Y-2.1209
X4.5286Y-1.9596
X4.5286Y-2.0932
X4.5563Y-2.0264
X4.9329Y-6.2384
X4.9605Y-6.1716
X4.9605Y-6.3053
X5.0274Y-6.144
X5.0274Y-6.3329
X5.0942Y-6.1716
X5.0942Y-6.3053
X5.1219Y-6.2384
X5.5559Y-6.5719
X5.5836Y-6.5051
X5.5836Y-6.6387
X5.6504Y-6.4774
X5.6504Y-6.6664
X5.7172Y-6.5051
X5.7172Y-6.6387
X5.7449Y-6.5719
X7.5169Y-2.0264
X7.5446Y-1.9596
X7.5446Y-2.0932
X7.6114Y-1.9319
X7.6114Y-2.1209
X7.6782Y-1.9596
X7.6782Y-2.0932
X7.7059Y-2.0264
X7.8004Y-5.176
X7.8281Y-5.1092
X7.8281Y-5.2428
X7.8949Y-5.0815
X7.8949Y-5.2705
X7.9617Y-5.1092
X7.9617Y-5.2428
X7.9894Y-5.176
X8.5681Y-5.176
X8.5958Y-5.1092
X8.5958Y-5.2428
X8.6626Y-5.0815
X8.6626Y-5.2705
X8.7294Y-5.1092
X8.7294Y-5.2428
X8.7571Y-5.176
X8.8516Y-2.0264
X8.8792Y-1.9596
X8.8792Y-2.0932
X8.9461Y-1.9319
X8.9461Y-2.1209
X9.0129Y-1.9596
X9.0129Y-2.0932
X9.0406Y-2.0264
X10.8126Y-6.5719
X10.8403Y-6.5051
X10.8403Y-6.6387
X10.9071Y-6.4774
X10.9071Y-6.6664
X10.9739Y-6.5051
X10.9739Y-6.6387
X11.0016Y-6.5719
X11.4337Y-6.2384
X11.4613Y-6.1716
X11.4613Y-6.3053
X11.5282Y-6.144
X11.5282Y-6.3329
X11.595Y-6.1716
X11.595Y-6.3053
X11.6226Y-6.2384
X12.0012Y-2.0264
X12.0289Y-1.9596
X12.0289Y-2.0932
X12.0957Y-1.9319
X12.0957Y-2.1209
X12.1625Y-1.9596
X12.1625Y-2.0932
X12.1902Y-2.0264
X12.6148Y-6.2384
X12.6424Y-6.1716
X12.6424Y-6.3053
X12.7093Y-6.144
X12.7093Y-6.3329
X12.7761Y-6.1716
X12.7761Y-6.3053
X12.8037Y-6.2384
X14.2063Y-2.6645
X14.228Y-2.5956
X14.2397Y-2.7287
X14.2432Y-5.8612
X14.2709Y-5.7944
X14.2709Y-5.928
X14.2922Y-2.5622
X14.3086Y-2.7504
X14.3377Y-5.7667
X14.3377Y-5.9557
X14.3611Y-2.5839
X14.3728Y-2.717
X14.3945Y-2.6481
X14.4045Y-5.7944
X14.4045Y-5.928
X14.4322Y-5.8612
T6
X4.2204Y-6.0571
X4.2204Y-6.1271
X4.2204Y-6.1972
X4.2204Y-6.2673
X4.2204Y-6.3374
X4.2204Y-6.4075
X4.2204Y-6.4775
X4.2204Y-6.5476
X4.6417Y-6.022
X4.6417Y-6.0921
X4.6417Y-6.1622
X4.6417Y-6.2323
X4.6417Y-6.3023
X4.6417Y-6.3724
X4.6417Y-6.4425
X4.6417Y-6.5126
X11.9023Y-6.0571
X11.9023Y-6.1271
X11.9023Y-6.1972
X11.9023Y-6.2673
X11.9023Y-6.3374
X11.9023Y-6.4075
X11.9023Y-6.4775
X11.9023Y-6.5476
X12.3236Y-6.022
X12.3236Y-6.0921
X12.3236Y-6.1622
X12.3236Y-6.2323
X12.3236Y-6.3023
X12.3236Y-6.3724
X12.3236Y-6.4425
X12.3236Y-6.5126
T7
X2.7707Y-2.6657
X2.7707Y-2.8657
X2.7757Y-2.7657
X6.1362Y-3.6102
X6.1412Y-3.5102
X6.1412Y-3.7102
X6.2362Y-3.6102
X6.2412Y-3.5102
X6.2412Y-3.7102
X6.9394Y-4.7335
X6.9394Y-4.8335
X6.9394Y-4.9335
X6.9394Y-5.0335
X6.9394Y-5.1335
X6.9394Y-5.2335
X6.9409Y-4.0858
X6.9409Y-4.1858
X6.9409Y-4.2858
X6.9409Y-4.3858
X6.9409Y-4.4858
X6.9409Y-4.5858
X6.9421Y-3.539
X6.9421Y-3.639
X6.9421Y-3.739
X6.9421Y-3.839
X6.9421Y-3.939
X9.613Y-4.0874
X9.613Y-4.1874
X9.613Y-4.2874
X9.613Y-4.3874
X9.613Y-4.4874
X9.613Y-4.5874
X9.6144Y-3.539
X9.6144Y-3.639
X9.6144Y-3.739
X9.6144Y-3.839
X9.6144Y-3.939
X10.6183Y-3.6102
X10.6233Y-3.5102
X10.6233Y-3.7102
X10.7183Y-3.6102
X10.7233Y-3.5102
X10.7233Y-3.7102
X10.9136Y-2.5389
X10.9136Y-2.7389
X10.9186Y-2.6389
X13.7421Y-2.5894
X13.7421Y-2.7894
X13.7471Y-2.6894
T8
X4.7768Y-2.1804
X4.7768Y-2.2804
X4.7768Y-2.3804
X6.1811Y-4.2326
X6.1852Y-4.3138
X6.2726Y-4.501
X6.4163Y-2.5522
X9.6134Y-4.7343
X9.6134Y-4.8343
X9.6134Y-4.9343
X9.6134Y-5.0343
X9.6134Y-5.1343
X9.6134Y-5.2343
X10.2156Y-4.4661
X10.2179Y-4.5445
X10.303Y-4.676
X11.7128Y-2.8887
T9
X7.7878Y-2.7512
X7.7878Y-2.8512
X7.7878Y-2.9512
X7.7878Y-3.0512
X7.7878Y-3.1512
X7.7878Y-3.2512
X7.7878Y-3.3512
X7.7878Y-3.4512
X8.7687Y-2.767
X8.7687Y-2.867
X8.7687Y-2.967
X8.7687Y-3.067
X8.7687Y-3.167
X8.7687Y-3.267
X8.7687Y-3.367
X8.7687Y-3.467
T10
X2.2198Y-5.8612
X2.2571Y-2.6563
X3.8463Y-6.2384
X4.4618Y-2.0264
X5.0274Y-6.2384
X5.6504Y-6.5719
X7.6114Y-2.0264
X7.8949Y-5.176
X8.6626Y-5.176
X8.9461Y-2.0264
X10.9071Y-6.5719
X11.5282Y-6.2384
X12.0957Y-2.0264
X12.7093Y-6.2384
X14.3004Y-2.6563
X14.3377Y-5.8612
T5
G00X5.8665Y-1.8846
M15
G01X5.8665Y-1.861
M16
G05
G00X5.8665Y-2.0591
M15
G01X5.8665Y-2.0157
M16
G05
G00X6.2067Y-1.8846
M15
G01X6.2067Y-1.861
M16
G05
G00X6.2067Y-2.0591
M15
G01X6.2067Y-2.0157
M16
G05
G00X6.6539Y-1.8846
M15
G01X6.6539Y-1.861
M16
G05
G00X6.6539Y-2.0591
M15
G01X6.6539Y-2.0157
M16
G05
G00X6.9941Y-1.8846
M15
G01X6.9941Y-1.861
M16
G05
G00X6.9941Y-2.0591
M15
G01X6.9941Y-2.0157
M16
G05
G00X9.5624Y-1.8847
M15
G01X9.5624Y-1.8611
M16
G05
G00X9.5624Y-2.0591
M15
G01X9.5624Y-2.0158
M16
G05
G00X9.9026Y-1.8847
M15
G01X9.9026Y-1.8611
M16
G05
G00X9.9026Y-2.0591
M15
G01X9.9026Y-2.0158
M16
G05
G00X10.3498Y-1.8847
M15
G01X10.3498Y-1.8611
M16
G05
G00X10.3498Y-2.0591
M15
G01X10.3498Y-2.0158
M16
G05
G00X10.69Y-1.8847
M15
G01X10.69Y-1.8611
M16
G05
G00X10.69Y-2.0591
M15
G01X10.69Y-2.0158
M16
G05
T0
M30
