%TF.GenerationSoftware,KiCad,Pcbnew,(6.99.0-4085-g6c752680d7)*%
%TF.CreationDate,2022-11-10T11:06:54+08:00*%
%TF.ProjectId,Rev2.4,52657632-2e34-42e6-9b69-6361645f7063,rev?*%
%TF.SameCoordinates,Original*%
%TF.FileFunction,Legend,Bot*%
%TF.FilePolarity,Positive*%
%FSLAX46Y46*%
G04 Gerber Fmt 4.6, Leading zero omitted, Abs format (unit mm)*
G04 Created by KiCad (PCBNEW (6.99.0-4085-g6c752680d7)) date 2022-11-10 11:06:54*
%MOMM*%
%LPD*%
G01*
G04 APERTURE LIST*
%ADD10C,0.150000*%
%ADD11C,0.152400*%
%ADD12C,0.100000*%
%ADD13C,1.700000*%
%ADD14C,1.600000*%
%ADD15C,0.800000*%
%ADD16C,6.400000*%
%ADD17R,1.200000X1.200000*%
%ADD18C,1.200000*%
%ADD19R,1.700000X1.700000*%
%ADD20O,1.700000X1.700000*%
%ADD21C,1.400000*%
%ADD22R,1.524000X1.524000*%
%ADD23O,1.524000X1.524000*%
%ADD24C,0.750000*%
%ADD25C,0.650000*%
%ADD26O,1.000000X2.100000*%
%ADD27O,1.000000X1.600000*%
%ADD28C,2.082800*%
%ADD29C,1.100000*%
G04 APERTURE END LIST*
D10*
%TO.C,D37*%
X188028467Y-175147721D02*
X187415632Y-174633491D01*
X187707458Y-174878362D02*
X187413613Y-175228554D01*
X187734622Y-175497912D02*
X187121786Y-174983682D01*
X186778966Y-175392239D02*
X186681018Y-175508970D01*
X186681018Y-175508970D02*
X186661226Y-175591822D01*
X186661226Y-175591822D02*
X186670617Y-175699162D01*
X186670617Y-175699162D02*
X186762860Y-175826293D01*
X186762860Y-175826293D02*
X186967139Y-175997703D01*
X186967139Y-175997703D02*
X187108357Y-176066469D01*
X187108357Y-176066469D02*
X187215696Y-176057078D01*
X187215696Y-176057078D02*
X187293853Y-176023200D01*
X187293853Y-176023200D02*
X187391802Y-175906469D01*
X187391802Y-175906469D02*
X187411593Y-175823617D01*
X187411593Y-175823617D02*
X187402202Y-175716277D01*
X187402202Y-175716277D02*
X187309959Y-175589146D01*
X187309959Y-175589146D02*
X187105680Y-175417736D01*
X187105680Y-175417736D02*
X186964463Y-175348970D01*
X186964463Y-175348970D02*
X186857123Y-175358361D01*
X186857123Y-175358361D02*
X186778966Y-175392239D01*
X186706162Y-176723583D02*
X186951033Y-176431757D01*
X186951033Y-176431757D02*
X186338198Y-175917527D01*
X186213743Y-176658503D02*
X186042333Y-176862782D01*
X186289880Y-177219688D02*
X186534752Y-176927862D01*
X186534752Y-176927862D02*
X185921916Y-176413632D01*
X185921916Y-176413632D02*
X185677045Y-176705458D01*
%TO.C,D17*%
X333511737Y-149929906D02*
X333511737Y-149129906D01*
X333511737Y-149510859D02*
X333054594Y-149510859D01*
X333054594Y-149929906D02*
X333054594Y-149129906D01*
X332521261Y-149129906D02*
X332368880Y-149129906D01*
X332368880Y-149129906D02*
X332292690Y-149168002D01*
X332292690Y-149168002D02*
X332216499Y-149244192D01*
X332216499Y-149244192D02*
X332178404Y-149396573D01*
X332178404Y-149396573D02*
X332178404Y-149663240D01*
X332178404Y-149663240D02*
X332216499Y-149815621D01*
X332216499Y-149815621D02*
X332292690Y-149891811D01*
X332292690Y-149891811D02*
X332368880Y-149929906D01*
X332368880Y-149929906D02*
X332521261Y-149929906D01*
X332521261Y-149929906D02*
X332597452Y-149891811D01*
X332597452Y-149891811D02*
X332673642Y-149815621D01*
X332673642Y-149815621D02*
X332711738Y-149663240D01*
X332711738Y-149663240D02*
X332711738Y-149396573D01*
X332711738Y-149396573D02*
X332673642Y-149244192D01*
X332673642Y-149244192D02*
X332597452Y-149168002D01*
X332597452Y-149168002D02*
X332521261Y-149129906D01*
X331454595Y-149929906D02*
X331835547Y-149929906D01*
X331835547Y-149929906D02*
X331835547Y-149129906D01*
X331187928Y-149510859D02*
X330921262Y-149510859D01*
X330806976Y-149929906D02*
X331187928Y-149929906D01*
X331187928Y-149929906D02*
X331187928Y-149129906D01*
X331187928Y-149129906D02*
X330806976Y-149129906D01*
%TO.C,D18*%
X322896243Y-166329797D02*
X322203423Y-165929797D01*
X322533337Y-166120273D02*
X322304766Y-166516170D01*
X322667671Y-166725694D02*
X321974851Y-166325694D01*
X321708185Y-166787574D02*
X321631994Y-166919540D01*
X321631994Y-166919540D02*
X321626890Y-167004570D01*
X321626890Y-167004570D02*
X321654778Y-167108649D01*
X321654778Y-167108649D02*
X321767696Y-167217830D01*
X321767696Y-167217830D02*
X321998636Y-167351164D01*
X321998636Y-167351164D02*
X322149650Y-167394363D01*
X322149650Y-167394363D02*
X322253728Y-167366475D01*
X322253728Y-167366475D02*
X322324814Y-167319540D01*
X322324814Y-167319540D02*
X322401005Y-167187574D01*
X322401005Y-167187574D02*
X322406109Y-167102544D01*
X322406109Y-167102544D02*
X322378221Y-166998465D01*
X322378221Y-166998465D02*
X322265303Y-166889284D01*
X322265303Y-166889284D02*
X322034363Y-166755950D01*
X322034363Y-166755950D02*
X321883349Y-166712751D01*
X321883349Y-166712751D02*
X321779271Y-166740639D01*
X321779271Y-166740639D02*
X321708185Y-166787574D01*
X321867672Y-168111334D02*
X322058148Y-167781420D01*
X322058148Y-167781420D02*
X321365328Y-167381420D01*
X321371433Y-168132751D02*
X321238099Y-168363691D01*
X321543862Y-168672189D02*
X321734338Y-168342274D01*
X321734338Y-168342274D02*
X321041518Y-167942274D01*
X321041518Y-167942274D02*
X320851042Y-168272189D01*
%TO.C,D23*%
X243078180Y-191170110D02*
X243691016Y-190655880D01*
X243399189Y-190900751D02*
X243105344Y-190550560D01*
X242784334Y-190819918D02*
X243397170Y-190305688D01*
X243054350Y-189897131D02*
X242956401Y-189780401D01*
X242956401Y-189780401D02*
X242878245Y-189746523D01*
X242878245Y-189746523D02*
X242770905Y-189737132D01*
X242770905Y-189737132D02*
X242629687Y-189805898D01*
X242629687Y-189805898D02*
X242425409Y-189977308D01*
X242425409Y-189977308D02*
X242333165Y-190104439D01*
X242333165Y-190104439D02*
X242323774Y-190211778D01*
X242323774Y-190211778D02*
X242343566Y-190294631D01*
X242343566Y-190294631D02*
X242441515Y-190411361D01*
X242441515Y-190411361D02*
X242519671Y-190445240D01*
X242519671Y-190445240D02*
X242627011Y-190454631D01*
X242627011Y-190454631D02*
X242768229Y-190385865D01*
X242768229Y-190385865D02*
X242972507Y-190214455D01*
X242972507Y-190214455D02*
X243064751Y-190087323D01*
X243064751Y-190087323D02*
X243074142Y-189979984D01*
X243074142Y-189979984D02*
X243054350Y-189897131D01*
X241755875Y-189594248D02*
X242000746Y-189886074D01*
X242000746Y-189886074D02*
X242613582Y-189371844D01*
X241905474Y-189120610D02*
X241734064Y-188916332D01*
X241339593Y-189098143D02*
X241584465Y-189389969D01*
X241584465Y-189389969D02*
X242197300Y-188875739D01*
X242197300Y-188875739D02*
X241952429Y-188583913D01*
%TO.C,D14*%
X364285902Y-106136670D02*
X363485902Y-106136670D01*
X363866855Y-106136670D02*
X363866855Y-106593813D01*
X364285902Y-106593813D02*
X363485902Y-106593813D01*
X363485902Y-107127146D02*
X363485902Y-107279527D01*
X363485902Y-107279527D02*
X363523998Y-107355717D01*
X363523998Y-107355717D02*
X363600188Y-107431908D01*
X363600188Y-107431908D02*
X363752569Y-107470003D01*
X363752569Y-107470003D02*
X364019236Y-107470003D01*
X364019236Y-107470003D02*
X364171617Y-107431908D01*
X364171617Y-107431908D02*
X364247807Y-107355717D01*
X364247807Y-107355717D02*
X364285902Y-107279527D01*
X364285902Y-107279527D02*
X364285902Y-107127146D01*
X364285902Y-107127146D02*
X364247807Y-107050955D01*
X364247807Y-107050955D02*
X364171617Y-106974765D01*
X364171617Y-106974765D02*
X364019236Y-106936669D01*
X364019236Y-106936669D02*
X363752569Y-106936669D01*
X363752569Y-106936669D02*
X363600188Y-106974765D01*
X363600188Y-106974765D02*
X363523998Y-107050955D01*
X363523998Y-107050955D02*
X363485902Y-107127146D01*
X364285902Y-108193812D02*
X364285902Y-107812860D01*
X364285902Y-107812860D02*
X363485902Y-107812860D01*
X363866855Y-108460479D02*
X363866855Y-108727145D01*
X364285902Y-108841431D02*
X364285902Y-108460479D01*
X364285902Y-108460479D02*
X363485902Y-108460479D01*
X363485902Y-108460479D02*
X363485902Y-108841431D01*
D11*
%TO.C,J24*%
X247862980Y-47513779D02*
X247862980Y-48094350D01*
X247862980Y-48094350D02*
X247901685Y-48210464D01*
X247901685Y-48210464D02*
X247979094Y-48287874D01*
X247979094Y-48287874D02*
X248095209Y-48326579D01*
X248095209Y-48326579D02*
X248172618Y-48326579D01*
X247514637Y-47591188D02*
X247475933Y-47552484D01*
X247475933Y-47552484D02*
X247398523Y-47513779D01*
X247398523Y-47513779D02*
X247204999Y-47513779D01*
X247204999Y-47513779D02*
X247127590Y-47552484D01*
X247127590Y-47552484D02*
X247088885Y-47591188D01*
X247088885Y-47591188D02*
X247050180Y-47668598D01*
X247050180Y-47668598D02*
X247050180Y-47746007D01*
X247050180Y-47746007D02*
X247088885Y-47862122D01*
X247088885Y-47862122D02*
X247553342Y-48326579D01*
X247553342Y-48326579D02*
X247050180Y-48326579D01*
X246353495Y-47784712D02*
X246353495Y-48326579D01*
X246547019Y-47475074D02*
X246740542Y-48055645D01*
X246740542Y-48055645D02*
X246237381Y-48055645D01*
D10*
%TO.C,D15*%
X364285902Y-131136670D02*
X363485902Y-131136670D01*
X363866855Y-131136670D02*
X363866855Y-131593813D01*
X364285902Y-131593813D02*
X363485902Y-131593813D01*
X363485902Y-132127146D02*
X363485902Y-132279527D01*
X363485902Y-132279527D02*
X363523998Y-132355717D01*
X363523998Y-132355717D02*
X363600188Y-132431908D01*
X363600188Y-132431908D02*
X363752569Y-132470003D01*
X363752569Y-132470003D02*
X364019236Y-132470003D01*
X364019236Y-132470003D02*
X364171617Y-132431908D01*
X364171617Y-132431908D02*
X364247807Y-132355717D01*
X364247807Y-132355717D02*
X364285902Y-132279527D01*
X364285902Y-132279527D02*
X364285902Y-132127146D01*
X364285902Y-132127146D02*
X364247807Y-132050955D01*
X364247807Y-132050955D02*
X364171617Y-131974765D01*
X364171617Y-131974765D02*
X364019236Y-131936669D01*
X364019236Y-131936669D02*
X363752569Y-131936669D01*
X363752569Y-131936669D02*
X363600188Y-131974765D01*
X363600188Y-131974765D02*
X363523998Y-132050955D01*
X363523998Y-132050955D02*
X363485902Y-132127146D01*
X364285902Y-133193812D02*
X364285902Y-132812860D01*
X364285902Y-132812860D02*
X363485902Y-132812860D01*
X363866855Y-133460479D02*
X363866855Y-133727145D01*
X364285902Y-133841431D02*
X364285902Y-133460479D01*
X364285902Y-133460479D02*
X363485902Y-133460479D01*
X363485902Y-133460479D02*
X363485902Y-133841431D01*
%TO.C,D16*%
X353511737Y-149929906D02*
X353511737Y-149129906D01*
X353511737Y-149510859D02*
X353054594Y-149510859D01*
X353054594Y-149929906D02*
X353054594Y-149129906D01*
X352521261Y-149129906D02*
X352368880Y-149129906D01*
X352368880Y-149129906D02*
X352292690Y-149168002D01*
X352292690Y-149168002D02*
X352216499Y-149244192D01*
X352216499Y-149244192D02*
X352178404Y-149396573D01*
X352178404Y-149396573D02*
X352178404Y-149663240D01*
X352178404Y-149663240D02*
X352216499Y-149815621D01*
X352216499Y-149815621D02*
X352292690Y-149891811D01*
X352292690Y-149891811D02*
X352368880Y-149929906D01*
X352368880Y-149929906D02*
X352521261Y-149929906D01*
X352521261Y-149929906D02*
X352597452Y-149891811D01*
X352597452Y-149891811D02*
X352673642Y-149815621D01*
X352673642Y-149815621D02*
X352711738Y-149663240D01*
X352711738Y-149663240D02*
X352711738Y-149396573D01*
X352711738Y-149396573D02*
X352673642Y-149244192D01*
X352673642Y-149244192D02*
X352597452Y-149168002D01*
X352597452Y-149168002D02*
X352521261Y-149129906D01*
X351454595Y-149929906D02*
X351835547Y-149929906D01*
X351835547Y-149929906D02*
X351835547Y-149129906D01*
X351187928Y-149510859D02*
X350921262Y-149510859D01*
X350806976Y-149929906D02*
X351187928Y-149929906D01*
X351187928Y-149929906D02*
X351187928Y-149129906D01*
X351187928Y-149129906D02*
X350806976Y-149129906D01*
%TO.C,D36*%
X178028467Y-188147721D02*
X177415632Y-187633491D01*
X177707458Y-187878362D02*
X177413613Y-188228554D01*
X177734622Y-188497912D02*
X177121786Y-187983682D01*
X176778966Y-188392239D02*
X176681018Y-188508970D01*
X176681018Y-188508970D02*
X176661226Y-188591822D01*
X176661226Y-188591822D02*
X176670617Y-188699162D01*
X176670617Y-188699162D02*
X176762860Y-188826293D01*
X176762860Y-188826293D02*
X176967139Y-188997703D01*
X176967139Y-188997703D02*
X177108357Y-189066469D01*
X177108357Y-189066469D02*
X177215696Y-189057078D01*
X177215696Y-189057078D02*
X177293853Y-189023200D01*
X177293853Y-189023200D02*
X177391802Y-188906469D01*
X177391802Y-188906469D02*
X177411593Y-188823617D01*
X177411593Y-188823617D02*
X177402202Y-188716277D01*
X177402202Y-188716277D02*
X177309959Y-188589146D01*
X177309959Y-188589146D02*
X177105680Y-188417736D01*
X177105680Y-188417736D02*
X176964463Y-188348970D01*
X176964463Y-188348970D02*
X176857123Y-188358361D01*
X176857123Y-188358361D02*
X176778966Y-188392239D01*
X176706162Y-189723583D02*
X176951033Y-189431757D01*
X176951033Y-189431757D02*
X176338198Y-188917527D01*
X176213743Y-189658503D02*
X176042333Y-189862782D01*
X176289880Y-190219688D02*
X176534752Y-189927862D01*
X176534752Y-189927862D02*
X175921916Y-189413632D01*
X175921916Y-189413632D02*
X175677045Y-189705458D01*
%TO.C,D26*%
X58385910Y-106136669D02*
X57585910Y-106136669D01*
X57966863Y-106136669D02*
X57966863Y-106593812D01*
X58385910Y-106593812D02*
X57585910Y-106593812D01*
X57585910Y-107127145D02*
X57585910Y-107279526D01*
X57585910Y-107279526D02*
X57624006Y-107355716D01*
X57624006Y-107355716D02*
X57700196Y-107431907D01*
X57700196Y-107431907D02*
X57852577Y-107470002D01*
X57852577Y-107470002D02*
X58119244Y-107470002D01*
X58119244Y-107470002D02*
X58271625Y-107431907D01*
X58271625Y-107431907D02*
X58347815Y-107355716D01*
X58347815Y-107355716D02*
X58385910Y-107279526D01*
X58385910Y-107279526D02*
X58385910Y-107127145D01*
X58385910Y-107127145D02*
X58347815Y-107050954D01*
X58347815Y-107050954D02*
X58271625Y-106974764D01*
X58271625Y-106974764D02*
X58119244Y-106936668D01*
X58119244Y-106936668D02*
X57852577Y-106936668D01*
X57852577Y-106936668D02*
X57700196Y-106974764D01*
X57700196Y-106974764D02*
X57624006Y-107050954D01*
X57624006Y-107050954D02*
X57585910Y-107127145D01*
X58385910Y-108193811D02*
X58385910Y-107812859D01*
X58385910Y-107812859D02*
X57585910Y-107812859D01*
X57966863Y-108460478D02*
X57966863Y-108727144D01*
X58385910Y-108841430D02*
X58385910Y-108460478D01*
X58385910Y-108460478D02*
X57585910Y-108460478D01*
X57585910Y-108460478D02*
X57585910Y-108841430D01*
%TO.C,D21*%
X272602226Y-180882652D02*
X273295046Y-180482652D01*
X272965132Y-180673128D02*
X272736560Y-180277231D01*
X272373654Y-180486755D02*
X273066475Y-180086755D01*
X272799808Y-179624875D02*
X272723618Y-179492909D01*
X272723618Y-179492909D02*
X272652531Y-179445974D01*
X272652531Y-179445974D02*
X272548453Y-179418086D01*
X272548453Y-179418086D02*
X272397440Y-179461285D01*
X272397440Y-179461285D02*
X272166499Y-179594618D01*
X272166499Y-179594618D02*
X272053581Y-179703800D01*
X272053581Y-179703800D02*
X272025694Y-179807878D01*
X272025694Y-179807878D02*
X272030797Y-179892909D01*
X272030797Y-179892909D02*
X272106988Y-180024875D01*
X272106988Y-180024875D02*
X272178075Y-180071810D01*
X272178075Y-180071810D02*
X272282153Y-180099698D01*
X272282153Y-180099698D02*
X272433166Y-180056499D01*
X272433166Y-180056499D02*
X272664106Y-179923165D01*
X272664106Y-179923165D02*
X272777024Y-179813983D01*
X272777024Y-179813983D02*
X272804912Y-179709905D01*
X272804912Y-179709905D02*
X272799808Y-179624875D01*
X271573655Y-179101114D02*
X271764131Y-179431029D01*
X271764131Y-179431029D02*
X272456951Y-179031029D01*
X271803227Y-178660651D02*
X271669894Y-178429710D01*
X271249845Y-178540260D02*
X271440321Y-178870174D01*
X271440321Y-178870174D02*
X272133142Y-178470174D01*
X272133142Y-178470174D02*
X271942666Y-178140260D01*
%TO.C,D38*%
X198028467Y-163147721D02*
X197415632Y-162633491D01*
X197707458Y-162878362D02*
X197413613Y-163228554D01*
X197734622Y-163497912D02*
X197121786Y-162983682D01*
X196778966Y-163392239D02*
X196681018Y-163508970D01*
X196681018Y-163508970D02*
X196661226Y-163591822D01*
X196661226Y-163591822D02*
X196670617Y-163699162D01*
X196670617Y-163699162D02*
X196762860Y-163826293D01*
X196762860Y-163826293D02*
X196967139Y-163997703D01*
X196967139Y-163997703D02*
X197108357Y-164066469D01*
X197108357Y-164066469D02*
X197215696Y-164057078D01*
X197215696Y-164057078D02*
X197293853Y-164023200D01*
X197293853Y-164023200D02*
X197391802Y-163906469D01*
X197391802Y-163906469D02*
X197411593Y-163823617D01*
X197411593Y-163823617D02*
X197402202Y-163716277D01*
X197402202Y-163716277D02*
X197309959Y-163589146D01*
X197309959Y-163589146D02*
X197105680Y-163417736D01*
X197105680Y-163417736D02*
X196964463Y-163348970D01*
X196964463Y-163348970D02*
X196857123Y-163358361D01*
X196857123Y-163358361D02*
X196778966Y-163392239D01*
X196706162Y-164723583D02*
X196951033Y-164431757D01*
X196951033Y-164431757D02*
X196338198Y-163917527D01*
X196213743Y-164658503D02*
X196042333Y-164862782D01*
X196289880Y-165219688D02*
X196534752Y-164927862D01*
X196534752Y-164927862D02*
X195921916Y-164413632D01*
X195921916Y-164413632D02*
X195677045Y-164705458D01*
D11*
%TO.C,J30*%
X267862980Y-47513779D02*
X267862980Y-48094350D01*
X267862980Y-48094350D02*
X267901685Y-48210464D01*
X267901685Y-48210464D02*
X267979094Y-48287874D01*
X267979094Y-48287874D02*
X268095209Y-48326579D01*
X268095209Y-48326579D02*
X268172618Y-48326579D01*
X267553342Y-47513779D02*
X267050180Y-47513779D01*
X267050180Y-47513779D02*
X267321114Y-47823417D01*
X267321114Y-47823417D02*
X267204999Y-47823417D01*
X267204999Y-47823417D02*
X267127590Y-47862122D01*
X267127590Y-47862122D02*
X267088885Y-47900826D01*
X267088885Y-47900826D02*
X267050180Y-47978236D01*
X267050180Y-47978236D02*
X267050180Y-48171760D01*
X267050180Y-48171760D02*
X267088885Y-48249169D01*
X267088885Y-48249169D02*
X267127590Y-48287874D01*
X267127590Y-48287874D02*
X267204999Y-48326579D01*
X267204999Y-48326579D02*
X267437228Y-48326579D01*
X267437228Y-48326579D02*
X267514637Y-48287874D01*
X267514637Y-48287874D02*
X267553342Y-48249169D01*
X266547019Y-47513779D02*
X266469609Y-47513779D01*
X266469609Y-47513779D02*
X266392200Y-47552484D01*
X266392200Y-47552484D02*
X266353495Y-47591188D01*
X266353495Y-47591188D02*
X266314790Y-47668598D01*
X266314790Y-47668598D02*
X266276085Y-47823417D01*
X266276085Y-47823417D02*
X266276085Y-48016941D01*
X266276085Y-48016941D02*
X266314790Y-48171760D01*
X266314790Y-48171760D02*
X266353495Y-48249169D01*
X266353495Y-48249169D02*
X266392200Y-48287874D01*
X266392200Y-48287874D02*
X266469609Y-48326579D01*
X266469609Y-48326579D02*
X266547019Y-48326579D01*
X266547019Y-48326579D02*
X266624428Y-48287874D01*
X266624428Y-48287874D02*
X266663133Y-48249169D01*
X266663133Y-48249169D02*
X266701838Y-48171760D01*
X266701838Y-48171760D02*
X266740542Y-48016941D01*
X266740542Y-48016941D02*
X266740542Y-47823417D01*
X266740542Y-47823417D02*
X266701838Y-47668598D01*
X266701838Y-47668598D02*
X266663133Y-47591188D01*
X266663133Y-47591188D02*
X266624428Y-47552484D01*
X266624428Y-47552484D02*
X266547019Y-47513779D01*
D10*
%TO.C,D33*%
X126576324Y-165595860D02*
X125921003Y-165136999D01*
X126233061Y-165355504D02*
X125970854Y-165729974D01*
X126314118Y-165970330D02*
X125658796Y-165511468D01*
X125352889Y-165948349D02*
X125265487Y-166073172D01*
X125265487Y-166073172D02*
X125252992Y-166157435D01*
X125252992Y-166157435D02*
X125271702Y-166263547D01*
X125271702Y-166263547D02*
X125374675Y-166382155D01*
X125374675Y-166382155D02*
X125593115Y-166535109D01*
X125593115Y-166535109D02*
X125739789Y-166591305D01*
X125739789Y-166591305D02*
X125845902Y-166572595D01*
X125845902Y-166572595D02*
X125920809Y-166532034D01*
X125920809Y-166532034D02*
X126008211Y-166407210D01*
X126008211Y-166407210D02*
X126020706Y-166322948D01*
X126020706Y-166322948D02*
X126001996Y-166216836D01*
X126001996Y-166216836D02*
X125899023Y-166098228D01*
X125899023Y-166098228D02*
X125680582Y-165945274D01*
X125680582Y-165945274D02*
X125533909Y-165889078D01*
X125533909Y-165889078D02*
X125427796Y-165907788D01*
X125427796Y-165907788D02*
X125352889Y-165948349D01*
X125396396Y-167280972D02*
X125614901Y-166968915D01*
X125614901Y-166968915D02*
X124959580Y-166510053D01*
X124900179Y-167259057D02*
X124747225Y-167477498D01*
X125024937Y-167811471D02*
X125243442Y-167499413D01*
X125243442Y-167499413D02*
X124588121Y-167040552D01*
X124588121Y-167040552D02*
X124369615Y-167352610D01*
%TO.C,D20*%
X294363318Y-168656662D02*
X294976154Y-168142432D01*
X294684327Y-168387303D02*
X294390482Y-168037112D01*
X294069472Y-168306470D02*
X294682308Y-167792240D01*
X294339488Y-167383683D02*
X294241539Y-167266953D01*
X294241539Y-167266953D02*
X294163383Y-167233075D01*
X294163383Y-167233075D02*
X294056043Y-167223684D01*
X294056043Y-167223684D02*
X293914825Y-167292450D01*
X293914825Y-167292450D02*
X293710547Y-167463860D01*
X293710547Y-167463860D02*
X293618303Y-167590991D01*
X293618303Y-167590991D02*
X293608912Y-167698330D01*
X293608912Y-167698330D02*
X293628704Y-167781183D01*
X293628704Y-167781183D02*
X293726653Y-167897913D01*
X293726653Y-167897913D02*
X293804809Y-167931792D01*
X293804809Y-167931792D02*
X293912149Y-167941183D01*
X293912149Y-167941183D02*
X294053367Y-167872417D01*
X294053367Y-167872417D02*
X294257645Y-167701007D01*
X294257645Y-167701007D02*
X294349889Y-167573875D01*
X294349889Y-167573875D02*
X294359280Y-167466536D01*
X294359280Y-167466536D02*
X294339488Y-167383683D01*
X293041013Y-167080800D02*
X293285884Y-167372626D01*
X293285884Y-167372626D02*
X293898720Y-166858396D01*
X293190612Y-166607162D02*
X293019202Y-166402884D01*
X292624731Y-166584695D02*
X292869603Y-166876521D01*
X292869603Y-166876521D02*
X293482438Y-166362291D01*
X293482438Y-166362291D02*
X293237567Y-166070465D01*
%TO.C,D28*%
X69715336Y-148405904D02*
X69715336Y-147605904D01*
X69715336Y-147986857D02*
X69258193Y-147986857D01*
X69258193Y-148405904D02*
X69258193Y-147605904D01*
X68724860Y-147605904D02*
X68572479Y-147605904D01*
X68572479Y-147605904D02*
X68496289Y-147644000D01*
X68496289Y-147644000D02*
X68420098Y-147720190D01*
X68420098Y-147720190D02*
X68382003Y-147872571D01*
X68382003Y-147872571D02*
X68382003Y-148139238D01*
X68382003Y-148139238D02*
X68420098Y-148291619D01*
X68420098Y-148291619D02*
X68496289Y-148367809D01*
X68496289Y-148367809D02*
X68572479Y-148405904D01*
X68572479Y-148405904D02*
X68724860Y-148405904D01*
X68724860Y-148405904D02*
X68801051Y-148367809D01*
X68801051Y-148367809D02*
X68877241Y-148291619D01*
X68877241Y-148291619D02*
X68915337Y-148139238D01*
X68915337Y-148139238D02*
X68915337Y-147872571D01*
X68915337Y-147872571D02*
X68877241Y-147720190D01*
X68877241Y-147720190D02*
X68801051Y-147644000D01*
X68801051Y-147644000D02*
X68724860Y-147605904D01*
X67658194Y-148405904D02*
X68039146Y-148405904D01*
X68039146Y-148405904D02*
X68039146Y-147605904D01*
X67391527Y-147986857D02*
X67124861Y-147986857D01*
X67010575Y-148405904D02*
X67391527Y-148405904D01*
X67391527Y-148405904D02*
X67391527Y-147605904D01*
X67391527Y-147605904D02*
X67010575Y-147605904D01*
%TO.C,D13*%
X364285902Y-81136670D02*
X363485902Y-81136670D01*
X363866855Y-81136670D02*
X363866855Y-81593813D01*
X364285902Y-81593813D02*
X363485902Y-81593813D01*
X363485902Y-82127146D02*
X363485902Y-82279527D01*
X363485902Y-82279527D02*
X363523998Y-82355717D01*
X363523998Y-82355717D02*
X363600188Y-82431908D01*
X363600188Y-82431908D02*
X363752569Y-82470003D01*
X363752569Y-82470003D02*
X364019236Y-82470003D01*
X364019236Y-82470003D02*
X364171617Y-82431908D01*
X364171617Y-82431908D02*
X364247807Y-82355717D01*
X364247807Y-82355717D02*
X364285902Y-82279527D01*
X364285902Y-82279527D02*
X364285902Y-82127146D01*
X364285902Y-82127146D02*
X364247807Y-82050955D01*
X364247807Y-82050955D02*
X364171617Y-81974765D01*
X364171617Y-81974765D02*
X364019236Y-81936669D01*
X364019236Y-81936669D02*
X363752569Y-81936669D01*
X363752569Y-81936669D02*
X363600188Y-81974765D01*
X363600188Y-81974765D02*
X363523998Y-82050955D01*
X363523998Y-82050955D02*
X363485902Y-82127146D01*
X364285902Y-83193812D02*
X364285902Y-82812860D01*
X364285902Y-82812860D02*
X363485902Y-82812860D01*
X363866855Y-83460479D02*
X363866855Y-83727145D01*
X364285902Y-83841431D02*
X364285902Y-83460479D01*
X364285902Y-83460479D02*
X363485902Y-83460479D01*
X363485902Y-83460479D02*
X363485902Y-83841431D01*
%TO.C,D31*%
X100343209Y-167780268D02*
X100998531Y-167321406D01*
X100686473Y-167539912D02*
X100424266Y-167165442D01*
X100081003Y-167405798D02*
X100736324Y-166946937D01*
X100430417Y-166510056D02*
X100343015Y-166385233D01*
X100343015Y-166385233D02*
X100268108Y-166344672D01*
X100268108Y-166344672D02*
X100161995Y-166325961D01*
X100161995Y-166325961D02*
X100015322Y-166382158D01*
X100015322Y-166382158D02*
X99796881Y-166535111D01*
X99796881Y-166535111D02*
X99693909Y-166653719D01*
X99693909Y-166653719D02*
X99675198Y-166759832D01*
X99675198Y-166759832D02*
X99687693Y-166844094D01*
X99687693Y-166844094D02*
X99775095Y-166968917D01*
X99775095Y-166968917D02*
X99850002Y-167009478D01*
X99850002Y-167009478D02*
X99956115Y-167028189D01*
X99956115Y-167028189D02*
X100102789Y-166971992D01*
X100102789Y-166971992D02*
X100321229Y-166819039D01*
X100321229Y-166819039D02*
X100424202Y-166700431D01*
X100424202Y-166700431D02*
X100442912Y-166594318D01*
X100442912Y-166594318D02*
X100430417Y-166510056D01*
X99163281Y-166095155D02*
X99381786Y-166407213D01*
X99381786Y-166407213D02*
X100037108Y-165948352D01*
X99353591Y-165636359D02*
X99200637Y-165417918D01*
X98791822Y-165564657D02*
X99010327Y-165876715D01*
X99010327Y-165876715D02*
X99665649Y-165417854D01*
X99665649Y-165417854D02*
X99447143Y-165105796D01*
D11*
%TO.C,J8*%
X173600935Y-47512027D02*
X173600935Y-48092598D01*
X173600935Y-48092598D02*
X173639640Y-48208712D01*
X173639640Y-48208712D02*
X173717049Y-48286122D01*
X173717049Y-48286122D02*
X173833164Y-48324827D01*
X173833164Y-48324827D02*
X173910573Y-48324827D01*
X173097773Y-47860370D02*
X173175183Y-47821665D01*
X173175183Y-47821665D02*
X173213888Y-47782960D01*
X173213888Y-47782960D02*
X173252592Y-47705551D01*
X173252592Y-47705551D02*
X173252592Y-47666846D01*
X173252592Y-47666846D02*
X173213888Y-47589436D01*
X173213888Y-47589436D02*
X173175183Y-47550732D01*
X173175183Y-47550732D02*
X173097773Y-47512027D01*
X173097773Y-47512027D02*
X172942954Y-47512027D01*
X172942954Y-47512027D02*
X172865545Y-47550732D01*
X172865545Y-47550732D02*
X172826840Y-47589436D01*
X172826840Y-47589436D02*
X172788135Y-47666846D01*
X172788135Y-47666846D02*
X172788135Y-47705551D01*
X172788135Y-47705551D02*
X172826840Y-47782960D01*
X172826840Y-47782960D02*
X172865545Y-47821665D01*
X172865545Y-47821665D02*
X172942954Y-47860370D01*
X172942954Y-47860370D02*
X173097773Y-47860370D01*
X173097773Y-47860370D02*
X173175183Y-47899074D01*
X173175183Y-47899074D02*
X173213888Y-47937779D01*
X173213888Y-47937779D02*
X173252592Y-48015189D01*
X173252592Y-48015189D02*
X173252592Y-48170008D01*
X173252592Y-48170008D02*
X173213888Y-48247417D01*
X173213888Y-48247417D02*
X173175183Y-48286122D01*
X173175183Y-48286122D02*
X173097773Y-48324827D01*
X173097773Y-48324827D02*
X172942954Y-48324827D01*
X172942954Y-48324827D02*
X172865545Y-48286122D01*
X172865545Y-48286122D02*
X172826840Y-48247417D01*
X172826840Y-48247417D02*
X172788135Y-48170008D01*
X172788135Y-48170008D02*
X172788135Y-48015189D01*
X172788135Y-48015189D02*
X172826840Y-47937779D01*
X172826840Y-47937779D02*
X172865545Y-47899074D01*
X172865545Y-47899074D02*
X172942954Y-47860370D01*
D10*
%TO.C,D19*%
X309263332Y-173350904D02*
X309263332Y-172550904D01*
X309263332Y-172931857D02*
X308806189Y-172931857D01*
X308806189Y-173350904D02*
X308806189Y-172550904D01*
X308272856Y-172550904D02*
X308120475Y-172550904D01*
X308120475Y-172550904D02*
X308044285Y-172589000D01*
X308044285Y-172589000D02*
X307968094Y-172665190D01*
X307968094Y-172665190D02*
X307929999Y-172817571D01*
X307929999Y-172817571D02*
X307929999Y-173084238D01*
X307929999Y-173084238D02*
X307968094Y-173236619D01*
X307968094Y-173236619D02*
X308044285Y-173312809D01*
X308044285Y-173312809D02*
X308120475Y-173350904D01*
X308120475Y-173350904D02*
X308272856Y-173350904D01*
X308272856Y-173350904D02*
X308349047Y-173312809D01*
X308349047Y-173312809D02*
X308425237Y-173236619D01*
X308425237Y-173236619D02*
X308463333Y-173084238D01*
X308463333Y-173084238D02*
X308463333Y-172817571D01*
X308463333Y-172817571D02*
X308425237Y-172665190D01*
X308425237Y-172665190D02*
X308349047Y-172589000D01*
X308349047Y-172589000D02*
X308272856Y-172550904D01*
X307206190Y-173350904D02*
X307587142Y-173350904D01*
X307587142Y-173350904D02*
X307587142Y-172550904D01*
X306939523Y-172931857D02*
X306672857Y-172931857D01*
X306558571Y-173350904D02*
X306939523Y-173350904D01*
X306939523Y-173350904D02*
X306939523Y-172550904D01*
X306939523Y-172550904D02*
X306558571Y-172550904D01*
%TO.C,D29*%
X89715336Y-148405904D02*
X89715336Y-147605904D01*
X89715336Y-147986857D02*
X89258193Y-147986857D01*
X89258193Y-148405904D02*
X89258193Y-147605904D01*
X88724860Y-147605904D02*
X88572479Y-147605904D01*
X88572479Y-147605904D02*
X88496289Y-147644000D01*
X88496289Y-147644000D02*
X88420098Y-147720190D01*
X88420098Y-147720190D02*
X88382003Y-147872571D01*
X88382003Y-147872571D02*
X88382003Y-148139238D01*
X88382003Y-148139238D02*
X88420098Y-148291619D01*
X88420098Y-148291619D02*
X88496289Y-148367809D01*
X88496289Y-148367809D02*
X88572479Y-148405904D01*
X88572479Y-148405904D02*
X88724860Y-148405904D01*
X88724860Y-148405904D02*
X88801051Y-148367809D01*
X88801051Y-148367809D02*
X88877241Y-148291619D01*
X88877241Y-148291619D02*
X88915337Y-148139238D01*
X88915337Y-148139238D02*
X88915337Y-147872571D01*
X88915337Y-147872571D02*
X88877241Y-147720190D01*
X88877241Y-147720190D02*
X88801051Y-147644000D01*
X88801051Y-147644000D02*
X88724860Y-147605904D01*
X87658194Y-148405904D02*
X88039146Y-148405904D01*
X88039146Y-148405904D02*
X88039146Y-147605904D01*
X87391527Y-147986857D02*
X87124861Y-147986857D01*
X87010575Y-148405904D02*
X87391527Y-148405904D01*
X87391527Y-148405904D02*
X87391527Y-147605904D01*
X87391527Y-147605904D02*
X87010575Y-147605904D01*
%TO.C,D27*%
X58385910Y-131136669D02*
X57585910Y-131136669D01*
X57966863Y-131136669D02*
X57966863Y-131593812D01*
X58385910Y-131593812D02*
X57585910Y-131593812D01*
X57585910Y-132127145D02*
X57585910Y-132279526D01*
X57585910Y-132279526D02*
X57624006Y-132355716D01*
X57624006Y-132355716D02*
X57700196Y-132431907D01*
X57700196Y-132431907D02*
X57852577Y-132470002D01*
X57852577Y-132470002D02*
X58119244Y-132470002D01*
X58119244Y-132470002D02*
X58271625Y-132431907D01*
X58271625Y-132431907D02*
X58347815Y-132355716D01*
X58347815Y-132355716D02*
X58385910Y-132279526D01*
X58385910Y-132279526D02*
X58385910Y-132127145D01*
X58385910Y-132127145D02*
X58347815Y-132050954D01*
X58347815Y-132050954D02*
X58271625Y-131974764D01*
X58271625Y-131974764D02*
X58119244Y-131936668D01*
X58119244Y-131936668D02*
X57852577Y-131936668D01*
X57852577Y-131936668D02*
X57700196Y-131974764D01*
X57700196Y-131974764D02*
X57624006Y-132050954D01*
X57624006Y-132050954D02*
X57585910Y-132127145D01*
X58385910Y-133193811D02*
X58385910Y-132812859D01*
X58385910Y-132812859D02*
X57585910Y-132812859D01*
X57966863Y-133460478D02*
X57966863Y-133727144D01*
X58385910Y-133841430D02*
X58385910Y-133460478D01*
X58385910Y-133460478D02*
X57585910Y-133460478D01*
X57585910Y-133460478D02*
X57585910Y-133841430D01*
%TO.C,D24*%
X233078180Y-178170110D02*
X233691016Y-177655880D01*
X233399189Y-177900751D02*
X233105344Y-177550560D01*
X232784334Y-177819918D02*
X233397170Y-177305688D01*
X233054350Y-176897131D02*
X232956401Y-176780401D01*
X232956401Y-176780401D02*
X232878245Y-176746523D01*
X232878245Y-176746523D02*
X232770905Y-176737132D01*
X232770905Y-176737132D02*
X232629687Y-176805898D01*
X232629687Y-176805898D02*
X232425409Y-176977308D01*
X232425409Y-176977308D02*
X232333165Y-177104439D01*
X232333165Y-177104439D02*
X232323774Y-177211778D01*
X232323774Y-177211778D02*
X232343566Y-177294631D01*
X232343566Y-177294631D02*
X232441515Y-177411361D01*
X232441515Y-177411361D02*
X232519671Y-177445240D01*
X232519671Y-177445240D02*
X232627011Y-177454631D01*
X232627011Y-177454631D02*
X232768229Y-177385865D01*
X232768229Y-177385865D02*
X232972507Y-177214455D01*
X232972507Y-177214455D02*
X233064751Y-177087323D01*
X233064751Y-177087323D02*
X233074142Y-176979984D01*
X233074142Y-176979984D02*
X233054350Y-176897131D01*
X231755875Y-176594248D02*
X232000746Y-176886074D01*
X232000746Y-176886074D02*
X232613582Y-176371844D01*
X231905474Y-176120610D02*
X231734064Y-175916332D01*
X231339593Y-176098143D02*
X231584465Y-176389969D01*
X231584465Y-176389969D02*
X232197300Y-175875739D01*
X232197300Y-175875739D02*
X231952429Y-175583913D01*
%TO.C,D6*%
X58385910Y-81136669D02*
X57585910Y-81136669D01*
X57966863Y-81136669D02*
X57966863Y-81593812D01*
X58385910Y-81593812D02*
X57585910Y-81593812D01*
X57585910Y-82127145D02*
X57585910Y-82279526D01*
X57585910Y-82279526D02*
X57624006Y-82355716D01*
X57624006Y-82355716D02*
X57700196Y-82431907D01*
X57700196Y-82431907D02*
X57852577Y-82470002D01*
X57852577Y-82470002D02*
X58119244Y-82470002D01*
X58119244Y-82470002D02*
X58271625Y-82431907D01*
X58271625Y-82431907D02*
X58347815Y-82355716D01*
X58347815Y-82355716D02*
X58385910Y-82279526D01*
X58385910Y-82279526D02*
X58385910Y-82127145D01*
X58385910Y-82127145D02*
X58347815Y-82050954D01*
X58347815Y-82050954D02*
X58271625Y-81974764D01*
X58271625Y-81974764D02*
X58119244Y-81936668D01*
X58119244Y-81936668D02*
X57852577Y-81936668D01*
X57852577Y-81936668D02*
X57700196Y-81974764D01*
X57700196Y-81974764D02*
X57624006Y-82050954D01*
X57624006Y-82050954D02*
X57585910Y-82127145D01*
X58385910Y-83193811D02*
X58385910Y-82812859D01*
X58385910Y-82812859D02*
X57585910Y-82812859D01*
X57966863Y-83460478D02*
X57966863Y-83727144D01*
X58385910Y-83841430D02*
X58385910Y-83460478D01*
X58385910Y-83460478D02*
X57585910Y-83460478D01*
X57585910Y-83460478D02*
X57585910Y-83841430D01*
%TO.C,D35*%
X166293747Y-192333036D02*
X166693747Y-191640216D01*
X166503271Y-191970130D02*
X166107374Y-191741559D01*
X165897850Y-192104464D02*
X166297850Y-191411644D01*
X165835970Y-191144978D02*
X165704004Y-191068787D01*
X165704004Y-191068787D02*
X165618974Y-191063683D01*
X165618974Y-191063683D02*
X165514895Y-191091571D01*
X165514895Y-191091571D02*
X165405714Y-191204489D01*
X165405714Y-191204489D02*
X165272380Y-191435429D01*
X165272380Y-191435429D02*
X165229181Y-191586443D01*
X165229181Y-191586443D02*
X165257069Y-191690521D01*
X165257069Y-191690521D02*
X165304004Y-191761607D01*
X165304004Y-191761607D02*
X165435970Y-191837798D01*
X165435970Y-191837798D02*
X165521000Y-191842902D01*
X165521000Y-191842902D02*
X165625079Y-191815014D01*
X165625079Y-191815014D02*
X165734260Y-191702096D01*
X165734260Y-191702096D02*
X165867594Y-191471156D01*
X165867594Y-191471156D02*
X165910793Y-191320142D01*
X165910793Y-191320142D02*
X165882905Y-191216064D01*
X165882905Y-191216064D02*
X165835970Y-191144978D01*
X164512210Y-191304465D02*
X164842124Y-191494941D01*
X164842124Y-191494941D02*
X165242124Y-190802121D01*
X164490793Y-190808226D02*
X164259853Y-190674892D01*
X163951355Y-190980655D02*
X164281270Y-191171131D01*
X164281270Y-191171131D02*
X164681270Y-190478311D01*
X164681270Y-190478311D02*
X164351355Y-190287835D01*
%TO.C,D32*%
X114143193Y-172826910D02*
X114143193Y-172026910D01*
X114143193Y-172407863D02*
X113686050Y-172407863D01*
X113686050Y-172826910D02*
X113686050Y-172026910D01*
X113152717Y-172026910D02*
X113000336Y-172026910D01*
X113000336Y-172026910D02*
X112924146Y-172065006D01*
X112924146Y-172065006D02*
X112847955Y-172141196D01*
X112847955Y-172141196D02*
X112809860Y-172293577D01*
X112809860Y-172293577D02*
X112809860Y-172560244D01*
X112809860Y-172560244D02*
X112847955Y-172712625D01*
X112847955Y-172712625D02*
X112924146Y-172788815D01*
X112924146Y-172788815D02*
X113000336Y-172826910D01*
X113000336Y-172826910D02*
X113152717Y-172826910D01*
X113152717Y-172826910D02*
X113228908Y-172788815D01*
X113228908Y-172788815D02*
X113305098Y-172712625D01*
X113305098Y-172712625D02*
X113343194Y-172560244D01*
X113343194Y-172560244D02*
X113343194Y-172293577D01*
X113343194Y-172293577D02*
X113305098Y-172141196D01*
X113305098Y-172141196D02*
X113228908Y-172065006D01*
X113228908Y-172065006D02*
X113152717Y-172026910D01*
X112086051Y-172826910D02*
X112467003Y-172826910D01*
X112467003Y-172826910D02*
X112467003Y-172026910D01*
X111819384Y-172407863D02*
X111552718Y-172407863D01*
X111438432Y-172826910D02*
X111819384Y-172826910D01*
X111819384Y-172826910D02*
X111819384Y-172026910D01*
X111819384Y-172026910D02*
X111438432Y-172026910D01*
%TO.C,D22*%
X257132652Y-192497773D02*
X256732652Y-191804953D01*
X256923128Y-192134867D02*
X256527231Y-192363439D01*
X256736755Y-192726345D02*
X256336755Y-192033524D01*
X255874875Y-192300191D02*
X255742909Y-192376381D01*
X255742909Y-192376381D02*
X255695974Y-192447468D01*
X255695974Y-192447468D02*
X255668086Y-192551546D01*
X255668086Y-192551546D02*
X255711285Y-192702559D01*
X255711285Y-192702559D02*
X255844618Y-192933500D01*
X255844618Y-192933500D02*
X255953800Y-193046418D01*
X255953800Y-193046418D02*
X256057878Y-193074305D01*
X256057878Y-193074305D02*
X256142909Y-193069202D01*
X256142909Y-193069202D02*
X256274875Y-192993011D01*
X256274875Y-192993011D02*
X256321810Y-192921924D01*
X256321810Y-192921924D02*
X256349698Y-192817846D01*
X256349698Y-192817846D02*
X256306499Y-192666833D01*
X256306499Y-192666833D02*
X256173165Y-192435893D01*
X256173165Y-192435893D02*
X256063983Y-192322975D01*
X256063983Y-192322975D02*
X255959905Y-192295087D01*
X255959905Y-192295087D02*
X255874875Y-192300191D01*
X255351114Y-193526344D02*
X255681029Y-193335868D01*
X255681029Y-193335868D02*
X255281029Y-192643048D01*
X254910651Y-193296772D02*
X254679710Y-193430105D01*
X254790260Y-193850154D02*
X255120174Y-193659678D01*
X255120174Y-193659678D02*
X254720174Y-192966857D01*
X254720174Y-192966857D02*
X254390260Y-193157333D01*
D11*
%TO.C,J19*%
X153987983Y-47512027D02*
X153987983Y-48092598D01*
X153987983Y-48092598D02*
X154026688Y-48208712D01*
X154026688Y-48208712D02*
X154104097Y-48286122D01*
X154104097Y-48286122D02*
X154220212Y-48324827D01*
X154220212Y-48324827D02*
X154297621Y-48324827D01*
X153175183Y-48324827D02*
X153639640Y-48324827D01*
X153407412Y-48324827D02*
X153407412Y-47512027D01*
X153407412Y-47512027D02*
X153484821Y-47628141D01*
X153484821Y-47628141D02*
X153562231Y-47705551D01*
X153562231Y-47705551D02*
X153639640Y-47744255D01*
X152788136Y-48324827D02*
X152633317Y-48324827D01*
X152633317Y-48324827D02*
X152555907Y-48286122D01*
X152555907Y-48286122D02*
X152517203Y-48247417D01*
X152517203Y-48247417D02*
X152439793Y-48131303D01*
X152439793Y-48131303D02*
X152401088Y-47976484D01*
X152401088Y-47976484D02*
X152401088Y-47666846D01*
X152401088Y-47666846D02*
X152439793Y-47589436D01*
X152439793Y-47589436D02*
X152478498Y-47550732D01*
X152478498Y-47550732D02*
X152555907Y-47512027D01*
X152555907Y-47512027D02*
X152710726Y-47512027D01*
X152710726Y-47512027D02*
X152788136Y-47550732D01*
X152788136Y-47550732D02*
X152826841Y-47589436D01*
X152826841Y-47589436D02*
X152865545Y-47666846D01*
X152865545Y-47666846D02*
X152865545Y-47860370D01*
X152865545Y-47860370D02*
X152826841Y-47937779D01*
X152826841Y-47937779D02*
X152788136Y-47976484D01*
X152788136Y-47976484D02*
X152710726Y-48015189D01*
X152710726Y-48015189D02*
X152555907Y-48015189D01*
X152555907Y-48015189D02*
X152478498Y-47976484D01*
X152478498Y-47976484D02*
X152439793Y-47937779D01*
X152439793Y-47937779D02*
X152401088Y-47860370D01*
D10*
%TO.C,D34*%
X147886326Y-177711061D02*
X147231005Y-177252200D01*
X147543063Y-177470705D02*
X147280856Y-177845175D01*
X147624120Y-178085531D02*
X146968798Y-177626669D01*
X146662891Y-178063550D02*
X146575489Y-178188373D01*
X146575489Y-178188373D02*
X146562994Y-178272636D01*
X146562994Y-178272636D02*
X146581704Y-178378748D01*
X146581704Y-178378748D02*
X146684677Y-178497356D01*
X146684677Y-178497356D02*
X146903117Y-178650310D01*
X146903117Y-178650310D02*
X147049791Y-178706506D01*
X147049791Y-178706506D02*
X147155904Y-178687796D01*
X147155904Y-178687796D02*
X147230811Y-178647235D01*
X147230811Y-178647235D02*
X147318213Y-178522411D01*
X147318213Y-178522411D02*
X147330708Y-178438149D01*
X147330708Y-178438149D02*
X147311998Y-178332037D01*
X147311998Y-178332037D02*
X147209025Y-178213429D01*
X147209025Y-178213429D02*
X146990584Y-178060475D01*
X146990584Y-178060475D02*
X146843911Y-178004279D01*
X146843911Y-178004279D02*
X146737798Y-178022989D01*
X146737798Y-178022989D02*
X146662891Y-178063550D01*
X146706398Y-179396173D02*
X146924903Y-179084116D01*
X146924903Y-179084116D02*
X146269582Y-178625254D01*
X146210181Y-179374258D02*
X146057227Y-179592699D01*
X146334939Y-179926672D02*
X146553444Y-179614614D01*
X146553444Y-179614614D02*
X145898123Y-179155753D01*
X145898123Y-179155753D02*
X145679617Y-179467811D01*
%TO.C,D25*%
X223078180Y-166170110D02*
X223691016Y-165655880D01*
X223399189Y-165900751D02*
X223105344Y-165550560D01*
X222784334Y-165819918D02*
X223397170Y-165305688D01*
X223054350Y-164897131D02*
X222956401Y-164780401D01*
X222956401Y-164780401D02*
X222878245Y-164746523D01*
X222878245Y-164746523D02*
X222770905Y-164737132D01*
X222770905Y-164737132D02*
X222629687Y-164805898D01*
X222629687Y-164805898D02*
X222425409Y-164977308D01*
X222425409Y-164977308D02*
X222333165Y-165104439D01*
X222333165Y-165104439D02*
X222323774Y-165211778D01*
X222323774Y-165211778D02*
X222343566Y-165294631D01*
X222343566Y-165294631D02*
X222441515Y-165411361D01*
X222441515Y-165411361D02*
X222519671Y-165445240D01*
X222519671Y-165445240D02*
X222627011Y-165454631D01*
X222627011Y-165454631D02*
X222768229Y-165385865D01*
X222768229Y-165385865D02*
X222972507Y-165214455D01*
X222972507Y-165214455D02*
X223064751Y-165087323D01*
X223064751Y-165087323D02*
X223074142Y-164979984D01*
X223074142Y-164979984D02*
X223054350Y-164897131D01*
X221755875Y-164594248D02*
X222000746Y-164886074D01*
X222000746Y-164886074D02*
X222613582Y-164371844D01*
X221905474Y-164120610D02*
X221734064Y-163916332D01*
X221339593Y-164098143D02*
X221584465Y-164389969D01*
X221584465Y-164389969D02*
X222197300Y-163875739D01*
X222197300Y-163875739D02*
X221952429Y-163583913D01*
D12*
%TO.C,J16*%
X223825000Y-70279752D02*
G75*
G03*
X223825000Y-70279752I-1100000J0D01*
G01*
%TO.C,J6*%
X198910003Y-87662000D02*
G75*
G03*
X198910003Y-87662000I-1100000J0D01*
G01*
%TD*%
%LPC*%
D13*
%TO.C,J20*%
X162975000Y-64825000D03*
%TD*%
D14*
%TO.C,J23*%
X342229998Y-64770003D03*
X342221998Y-70770003D03*
%TD*%
D15*
%TO.C,DRILL11*%
X361778405Y-148874002D03*
X362481349Y-147176946D03*
X362481349Y-150571058D03*
X364178405Y-146474002D03*
D16*
X364178405Y-148874002D03*
D15*
X364178405Y-151274002D03*
X365875461Y-147176946D03*
X365875461Y-150571058D03*
X366578405Y-148874002D03*
%TD*%
D17*
%TO.C,U12*%
X313019372Y-152959292D03*
D18*
X313019373Y-154739293D03*
X313019373Y-156519293D03*
X313019373Y-158299293D03*
X313019373Y-160079293D03*
X313019373Y-161859293D03*
X313019373Y-163639293D03*
X313019373Y-165419293D03*
X302319373Y-166309293D03*
X302319373Y-164529293D03*
X302319373Y-162749293D03*
X302319373Y-160969293D03*
X302319373Y-159189293D03*
X302319373Y-157409293D03*
X302319373Y-155629293D03*
X302319373Y-153849293D03*
%TD*%
D19*
%TO.C,J2*%
X121330002Y-55381999D03*
D20*
X121330002Y-57921999D03*
X121330002Y-60461999D03*
%TD*%
D15*
%TO.C,DRILL1*%
X125294998Y-158456551D03*
X125997942Y-156759495D03*
X125997942Y-160153607D03*
X127694998Y-156056551D03*
D16*
X127694998Y-158456551D03*
D15*
X127694998Y-160856551D03*
X129392054Y-156759495D03*
X129392054Y-160153607D03*
X130094998Y-158456551D03*
%TD*%
%TO.C,DRILL3*%
X290415139Y-158456548D03*
X291118083Y-156759492D03*
X291118083Y-160153604D03*
X292815139Y-156056548D03*
D16*
X292815139Y-158456548D03*
D15*
X292815139Y-160856548D03*
X294512195Y-156759492D03*
X294512195Y-160153604D03*
X295215139Y-158456548D03*
%TD*%
D14*
%TO.C,J22*%
X78330006Y-64770002D03*
X78322006Y-70770002D03*
%TD*%
D15*
%TO.C,REF\u002A\u002A*%
X183566059Y-190047880D03*
X184283029Y-189023940D03*
X185000000Y-188000000D03*
X185716971Y-186976060D03*
X186433941Y-185952120D03*
%TD*%
D21*
%TO.C,H19*%
X318905000Y-51796252D03*
%TD*%
D22*
%TO.C,J11*%
X244204999Y-89891751D03*
D23*
X244204999Y-92431751D03*
X244204999Y-94971751D03*
X244204999Y-97511751D03*
X244204999Y-100051751D03*
%TD*%
D22*
%TO.C,J17*%
X155987002Y-89158199D03*
D23*
X158527002Y-89158199D03*
X155860002Y-91698199D03*
X158400002Y-91698199D03*
X155987002Y-94238199D03*
X158527002Y-94238199D03*
%TD*%
D15*
%TO.C,DRILL12*%
X360839131Y-67679177D03*
X361391492Y-65927313D03*
X361687308Y-69308509D03*
X363020824Y-65079136D03*
D16*
X363229998Y-67470003D03*
D15*
X363439172Y-69860870D03*
X364772688Y-65631497D03*
X365068504Y-69012693D03*
X365620865Y-67260829D03*
%TD*%
D24*
%TO.C,K2*%
X282205000Y-46296752D03*
X282205000Y-49046752D03*
%TD*%
D25*
%TO.C,J24*%
X250095000Y-51221752D03*
X244315000Y-51221752D03*
D26*
X251524999Y-51751751D03*
D27*
X251524999Y-47571751D03*
D26*
X242884999Y-51751751D03*
D27*
X242884999Y-47571751D03*
%TD*%
D15*
%TO.C,REF\u002A\u002A*%
X187800000Y-44800000D03*
X189050000Y-44800000D03*
X190300000Y-44800000D03*
X191550000Y-44800000D03*
X192800000Y-44800000D03*
%TD*%
%TO.C,REF\u002A\u002A*%
X227500000Y-44800000D03*
X228750000Y-44800000D03*
X230000000Y-44800000D03*
X231250000Y-44800000D03*
X232500000Y-44800000D03*
%TD*%
%TO.C,REF\u002A\u002A*%
X228333941Y-179347880D03*
X227616971Y-178323940D03*
X226900000Y-177300000D03*
X226183029Y-176276060D03*
X225466059Y-175252120D03*
%TD*%
%TO.C,DRILL13*%
X304830003Y-51470001D03*
X305532947Y-49772945D03*
X305532947Y-53167057D03*
X307230003Y-49070001D03*
D16*
X307230003Y-51470001D03*
D15*
X307230003Y-53870001D03*
X308927059Y-49772945D03*
X308927059Y-53167057D03*
X309630003Y-51470001D03*
%TD*%
%TO.C,REF\u002A\u002A*%
X191866059Y-179447880D03*
X192583029Y-178423940D03*
X193300000Y-177400000D03*
X194016971Y-176376060D03*
X194733941Y-175352120D03*
%TD*%
D22*
%TO.C,J4*%
X176330002Y-89889999D03*
D23*
X176330002Y-92429999D03*
X176330002Y-94969999D03*
X176330002Y-97509999D03*
X176330002Y-100049999D03*
%TD*%
D22*
%TO.C,J28*%
X269831999Y-89159999D03*
D23*
X272371999Y-89159999D03*
X269704999Y-91699999D03*
X272244999Y-91699999D03*
X269831999Y-94239999D03*
X272371999Y-94239999D03*
%TD*%
D22*
%TO.C,J5*%
X176300002Y-103779999D03*
D23*
X176300002Y-106319999D03*
X176300002Y-108859999D03*
X176300002Y-111399999D03*
X176300002Y-113939999D03*
X176300002Y-116479999D03*
%TD*%
D28*
%TO.C,J16*%
X222725000Y-70281752D03*
X222725000Y-72821752D03*
X222725000Y-75361752D03*
X222725000Y-77901752D03*
X222725000Y-80441752D03*
X222725000Y-82981752D03*
X222725000Y-85521752D03*
X222725000Y-88061752D03*
%TD*%
D21*
%TO.C,H14*%
X171605000Y-186596252D03*
%TD*%
D13*
%TO.C,J31*%
X297505000Y-73371752D03*
%TD*%
D22*
%TO.C,J10*%
X349049999Y-65771499D03*
D23*
X349176999Y-68311499D03*
X349049999Y-70851499D03*
%TD*%
D22*
%TO.C,J21*%
X70374999Y-67709999D03*
D23*
X70501999Y-70249999D03*
X70374999Y-72789999D03*
%TD*%
D25*
%TO.C,J30*%
X270095000Y-51221752D03*
X264315000Y-51221752D03*
D26*
X271524999Y-51751751D03*
D27*
X271524999Y-47571751D03*
D26*
X262884999Y-51751751D03*
D27*
X262884999Y-47571751D03*
%TD*%
D15*
%TO.C,DRILL14*%
X224830006Y-51470000D03*
X225532950Y-49772944D03*
X225532950Y-53167056D03*
X227230006Y-49070000D03*
D16*
X227230006Y-51470000D03*
D15*
X227230006Y-53870000D03*
X228927062Y-49772944D03*
X228927062Y-53167056D03*
X229630006Y-51470000D03*
%TD*%
%TO.C,REF\u002A\u002A*%
X113800000Y-44800000D03*
X115050000Y-44800000D03*
X116300000Y-44800000D03*
X117550000Y-44800000D03*
X118800000Y-44800000D03*
%TD*%
%TO.C,DRILL4*%
X320415137Y-158456545D03*
X321118081Y-156759489D03*
X321118081Y-160153601D03*
X322815137Y-156056545D03*
D16*
X322815137Y-158456545D03*
D15*
X322815137Y-160856545D03*
X324512193Y-156759489D03*
X324512193Y-160153601D03*
X325215137Y-158456545D03*
%TD*%
%TO.C,REF\u002A\u002A*%
X301600000Y-44900000D03*
X302850000Y-44900000D03*
X304100000Y-44900000D03*
X305350000Y-44900000D03*
X306600000Y-44900000D03*
%TD*%
D29*
%TO.C,S1*%
X154210157Y-187749413D03*
X150854956Y-185965421D03*
%TD*%
D21*
%TO.C,H1*%
X54405000Y-141296252D03*
%TD*%
D25*
%TO.C,J8*%
X176220003Y-51220000D03*
X170440003Y-51220000D03*
D26*
X177650002Y-51749999D03*
D27*
X177650002Y-47569999D03*
D26*
X169010002Y-51749999D03*
D27*
X169010002Y-47569999D03*
%TD*%
D15*
%TO.C,DRILL15*%
X217630001Y-131469996D03*
X218332945Y-129772940D03*
X218332945Y-133167052D03*
X220030001Y-129069996D03*
D16*
X220030001Y-131469996D03*
D15*
X220030001Y-133869996D03*
X221727057Y-129772940D03*
X221727057Y-133167052D03*
X222430001Y-131469996D03*
%TD*%
D21*
%TO.C,H18*%
X101605000Y-51471752D03*
%TD*%
%TO.C,H2*%
X358605000Y-141671752D03*
%TD*%
D15*
%TO.C,DRILL10*%
X141120003Y-166926301D03*
X141822947Y-165229245D03*
X141822947Y-168623357D03*
X143520003Y-164526301D03*
D16*
X143520003Y-166926301D03*
D15*
X143520003Y-169326301D03*
X145217059Y-165229245D03*
X145217059Y-168623357D03*
X145920003Y-166926301D03*
%TD*%
D22*
%TO.C,J9*%
X277204999Y-64487971D03*
D23*
X277331999Y-67027971D03*
X277204999Y-69567971D03*
%TD*%
D15*
%TO.C,DRILL5*%
X53982004Y-148874000D03*
X54684948Y-147176944D03*
X54684948Y-150571056D03*
X56382004Y-146474000D03*
D16*
X56382004Y-148874000D03*
D15*
X56382004Y-151274000D03*
X58079060Y-147176944D03*
X58079060Y-150571056D03*
X58782004Y-148874000D03*
%TD*%
D17*
%TO.C,U3*%
X117899233Y-152959298D03*
D18*
X117899234Y-154739299D03*
X117899234Y-156519299D03*
X117899234Y-158299299D03*
X117899234Y-160079299D03*
X117899234Y-161859299D03*
X117899234Y-163639299D03*
X117899234Y-165419299D03*
X107199234Y-166309299D03*
X107199234Y-164529299D03*
X107199234Y-162749299D03*
X107199234Y-160969299D03*
X107199234Y-159189299D03*
X107199234Y-157409299D03*
X107199234Y-155629299D03*
X107199234Y-153849299D03*
%TD*%
D15*
%TO.C,DRILL2*%
X95295000Y-158456554D03*
X95997944Y-156759498D03*
X95997944Y-160153610D03*
X97695000Y-156056554D03*
D16*
X97695000Y-158456554D03*
D15*
X97695000Y-160856554D03*
X99392056Y-156759498D03*
X99392056Y-160153610D03*
X100095000Y-158456554D03*
%TD*%
%TO.C,DRILL8*%
X190930003Y-51470000D03*
X191632947Y-49772944D03*
X191632947Y-53167056D03*
X193330003Y-49070000D03*
D16*
X193330003Y-51470000D03*
D15*
X193330003Y-53870000D03*
X195027059Y-49772944D03*
X195027059Y-53167056D03*
X195730003Y-51470000D03*
%TD*%
%TO.C,REF\u002A\u002A*%
X236833941Y-190047880D03*
X236116971Y-189023940D03*
X235400000Y-188000000D03*
X234683029Y-186976060D03*
X233966059Y-185952120D03*
%TD*%
D22*
%TO.C,J1*%
X176260002Y-120229999D03*
D23*
X176260002Y-122769999D03*
X176260002Y-125309999D03*
X176260002Y-127849999D03*
X176260002Y-130389999D03*
X176260002Y-132929999D03*
%TD*%
D22*
%TO.C,J13*%
X244170002Y-103819999D03*
D23*
X244170002Y-106359999D03*
X244170002Y-108899999D03*
X244170002Y-111439999D03*
X244170002Y-113979999D03*
X244170002Y-116519999D03*
%TD*%
D24*
%TO.C,K1*%
X138330003Y-46295000D03*
X138330003Y-49045000D03*
%TD*%
D15*
%TO.C,DRILL9*%
X198130000Y-131469999D03*
X198832944Y-129772943D03*
X198832944Y-133167055D03*
X200530000Y-129069999D03*
D16*
X200530000Y-131469999D03*
D15*
X200530000Y-133869999D03*
X202227056Y-129772943D03*
X202227056Y-133167055D03*
X202930000Y-131469999D03*
%TD*%
D19*
%TO.C,J7*%
X244180002Y-120249999D03*
D20*
X244180002Y-122789999D03*
X244180002Y-125329999D03*
X244180002Y-127869999D03*
X244180002Y-130409999D03*
X244180002Y-132949999D03*
%TD*%
D21*
%TO.C,H3*%
X249505000Y-185471752D03*
%TD*%
D25*
%TO.C,J19*%
X156220003Y-51220000D03*
X150440003Y-51220000D03*
D26*
X157650002Y-51749999D03*
D27*
X157650002Y-47569999D03*
D26*
X149010002Y-51749999D03*
D27*
X149010002Y-47569999D03*
%TD*%
D28*
%TO.C,J6*%
X197810003Y-87660000D03*
X197810003Y-85120000D03*
X197810003Y-82580000D03*
X197810003Y-80040000D03*
X197810003Y-77500000D03*
X197810003Y-74960000D03*
X197810003Y-72420000D03*
X197810003Y-69880000D03*
%TD*%
D15*
%TO.C,DRILL16*%
X274639703Y-166926300D03*
X275342647Y-165229244D03*
X275342647Y-168623356D03*
X277039703Y-164526300D03*
D16*
X277039703Y-166926300D03*
D15*
X277039703Y-169326300D03*
X278736759Y-165229244D03*
X278736759Y-168623356D03*
X279439703Y-166926300D03*
%TD*%
%TO.C,DRILL6*%
X54930006Y-67470002D03*
X55632950Y-65772946D03*
X55632950Y-69167058D03*
X57330006Y-65070002D03*
D16*
X57330006Y-67470002D03*
D15*
X57330006Y-69870002D03*
X59027062Y-65772946D03*
X59027062Y-69167058D03*
X59730006Y-67470002D03*
%TD*%
D29*
%TO.C,S2*%
X269654743Y-185965422D03*
X266299542Y-187749414D03*
%TD*%
D15*
%TO.C,DRILL7*%
X110930003Y-51470001D03*
X111632947Y-49772945D03*
X111632947Y-53167057D03*
X113330003Y-49070001D03*
D16*
X113330003Y-51470001D03*
D15*
X113330003Y-53870001D03*
X115027059Y-49772945D03*
X115027059Y-53167057D03*
X115730003Y-51470001D03*
%TD*%
M02*
